<svg width="15" height="13" viewBox="0 0 15 13" fill="none" xmlns="http://www.w3.org/2000/svg">
<g clip-path="url(#clip0_1_2)">
<path d="M4.78245 1.24028L1.64291 5.75736C2.18361 6.50255 2.71123 7.25285 3.22576 8.00825C3.7403 8.75344 4.25919 9.50883 4.78245 10.2744H3.7621L2.18579 8.00825L1.39764 6.87515L1.10121 6.42188V5.75736V5.04334L1.39764 4.61661L2.18579 3.49117L3.7621 1.24028H4.78245ZM3.42198 11.1319H6.33913C5.71123 10.2336 5.07896 9.3455 4.44233 8.46761C3.81442 7.57951 3.19524 6.67609 2.58477 5.75736L6.32605 0.382803H3.42198L1.55134 3.06243L0.616022 4.40224V5V5.75736V6.26646V7.08952L1.55134 8.43699L3.42198 11.1319ZM3.27809 0H7.00628L8.23594 1.57715L4.25919 7.28857C4.66908 7.90106 5.0746 8.49313 5.47576 9.06478C5.88565 9.63644 6.29989 10.2183 6.71849 10.8104L8.2621 13H4.58623L3.265 11.5147L1.26355 8.62839L0.292695 7.15435L0.292701 6.43981L0.292695 5.8007L0.291016 5.04334L0.292695 4.32668L1.27009 2.87102L3.27809 0Z" fill="black"/>
<path d="M11.0944 5.26629C11.1509 5.26629 11.2099 5.271 11.2711 5.28043C11.3324 5.28986 11.389 5.30636 11.4409 5.32993C11.4927 5.3535 11.5351 5.3865 11.5681 5.42893C11.6059 5.47136 11.6247 5.52793 11.6247 5.59864C11.6247 5.66464 11.6059 5.71886 11.5681 5.76129C11.5304 5.80371 11.4833 5.83671 11.4267 5.86029C11.3749 5.88386 11.3159 5.90036 11.2499 5.90979C11.1886 5.91921 11.1344 5.92393 11.0873 5.92393H8.47086V5.26629H11.0944ZM11.0873 6.31286C11.2004 6.31286 11.3112 6.30107 11.4196 6.2775C11.5328 6.24921 11.6341 6.20679 11.7237 6.15021C11.8133 6.09364 11.884 6.02057 11.9359 5.931C11.9924 5.83671 12.0207 5.72593 12.0207 5.59864C12.0207 5.46664 11.9948 5.3535 11.9429 5.25921C11.8911 5.16493 11.8204 5.0895 11.7308 5.03293C11.6459 4.97636 11.5469 4.93629 11.4338 4.91271C11.3254 4.88443 11.2122 4.87029 11.0944 4.87029H8.08193V6.31286H11.0873ZM11.7308 6.63107C11.6648 6.66879 11.5917 6.69707 11.5116 6.71593C11.4314 6.73479 11.356 6.75364 11.2853 6.7725C11.5493 7.08364 11.8133 7.39007 12.0773 7.69179C12.346 7.9935 12.6147 8.29993 12.8834 8.61107H12.3106L10.6771 6.73714H8.08193V8.61107H7.6435V4.43893H11.0944C11.2876 4.43893 11.4668 4.46014 11.6318 4.50257C11.8015 4.545 11.9453 4.61336 12.0631 4.70764C12.1857 4.80193 12.28 4.92214 12.346 5.06829C12.4167 5.21443 12.4521 5.39121 12.4521 5.59864C12.4521 5.85793 12.3931 6.07243 12.2753 6.24214C12.1574 6.40714 11.9783 6.53679 11.7379 6.63107H11.7308ZM12.8481 5.59864C12.8481 5.32993 12.8056 5.09893 12.7208 4.90564C12.6359 4.70764 12.5157 4.545 12.3601 4.41771C12.2046 4.29043 12.0184 4.19614 11.8015 4.13486C11.5894 4.07357 11.3536 4.04293 11.0944 4.04293H7.26164V9.00707H8.47086V7.12607H10.4933L12.1197 9.00707H13.7461L11.9641 6.96343C12.5534 6.70414 12.8481 6.24921 12.8481 5.59864ZM7.08486 9.18386V3.86614H11.0944C11.2782 3.86614 11.455 3.88029 11.6247 3.90857C11.7944 3.93214 11.9641 3.984 12.1339 4.06414C12.3083 4.14429 12.4874 4.25979 12.6713 4.41064C12.8599 4.5615 13.0602 4.76186 13.2724 5.01171C13.4091 5.14843 13.5151 5.33229 13.5906 5.56329C13.6707 5.78957 13.7108 6.03707 13.7108 6.30579C13.7108 6.61693 13.6424 6.89271 13.5057 7.13314C13.3737 7.37357 13.1804 7.56921 12.9259 7.72007C13.072 7.88979 13.2252 8.06657 13.3855 8.25043C13.5458 8.43429 13.7061 8.6205 13.8664 8.80907C14.0266 8.99293 14.1846 9.17443 14.3401 9.35357C14.5004 9.53743 14.6513 9.7095 14.7927 9.86979H12.7561L12.0419 9.18386L11.0095 7.98879H9.33357V9.86979H7.81321L7.08486 9.18386Z" fill="black"/>
</g>
<defs>
<clipPath id="clip0_1_2">
<rect width="15" height="13" fill="white"/>
</clipPath>
</defs>
</svg>
