<?xml version="1.0" encoding="utf-8"?>
<svg version="1.1" id="Layer_1" xmlns="http://www.w3.org/2000/svg" xmlns:xlink="http://www.w3.org/1999/xlink" x="0px" y="0px"
	 viewBox="0 0 512 512" style="enable-background:new 0 0 512 512;" xml:space="preserve">
<g>
	<path d="M506.8,248.3L13.7,1c-2-1-4.3-1.2-6.5-0.7C2.2,1.5-1,6.6,0.3,11.7l50.8,207.6c0.8,3.1,3.1,5.7,6.1,6.7l87.1,29.9l-87,29.9
		c-3.1,1.1-5.4,3.5-6.1,6.7L0.3,500.3c-0.5,2.2-0.3,4.5,0.7,6.4c2.3,4.7,8,6.5,12.7,4.2l493.1-245.8c1.8-0.9,3.3-2.4,4.2-4.2
		C513.3,256.3,511.4,250.6,506.8,248.3z M58.4,441.3l29.7-121.2l174-59.7c1.4-0.5,2.5-1.5,2.9-2.9c0.8-2.5-0.5-5.1-2.9-6l-174-59.7
		L58.5,71l370.2,185.6L58.4,441.3z"/>
</g>
</svg>
