<svg version="1.1" xmlns="http://www.w3.org/2000/svg" viewBox="0 0 996.797092879401 758.8460146137381" width="2990.391278638203" height="2276.5380438412144">
  <g transform="translate(14.440235947052884 88.62588922521445) rotate(0 16.439426472277745 231.2885417666464)" stroke="none"><path fill="currentColor" d="M 1.69,-0.20 Q 1.69,-0.20 2.36,2.20 3.03,4.62 3.95,8.59 4.87,12.55 5.86,17.09 6.86,21.62 7.43,25.26 8.00,28.90 8.43,32.01 8.86,35.13 9.27,40.08 9.67,45.02 9.85,49.24 10.04,53.46 10.13,57.27 10.23,61.08 10.34,64.74 10.44,68.40 10.50,71.93 10.55,75.45 10.58,78.81 10.60,82.16 10.98,87.37 11.37,92.58 11.71,96.54 12.06,100.51 12.39,103.54 12.72,106.57 13.33,110.53 13.95,114.50 14.50,117.40 15.06,120.31 15.44,122.92 15.81,125.53 16.12,128.18 16.42,130.84 16.61,133.58 16.80,136.33 17.00,141.07 17.20,145.80 17.28,149.66 17.37,153.51 17.40,157.01 17.43,160.50 17.51,163.88 17.58,167.25 17.61,170.35 17.64,173.46 17.77,178.14 17.90,182.83 18.01,186.65 18.13,190.48 18.25,193.74 18.38,197.00 18.50,200.15 18.62,203.30 18.72,208.34 18.83,213.38 18.99,217.31 19.15,221.23 19.34,224.62 19.53,228.01 19.74,231.15 19.95,234.29 20.29,239.06 20.62,243.83 20.89,248.02 21.15,252.22 21.38,256.41 21.61,260.61 21.89,264.92 22.17,269.24 22.48,276.00 22.78,282.77 23.15,288.12 23.52,293.46 24.16,300.21 24.79,306.96 25.49,314.40 26.19,321.85 26.85,329.58 27.52,337.32 28.10,344.59 28.69,351.87 29.12,357.02 29.54,362.17 29.96,366.46 30.38,370.76 30.81,376.62 31.23,382.47 31.53,387.02 31.84,391.57 32.17,397.72 32.51,403.87 32.64,408.36 32.77,412.85 32.89,418.32 33.01,423.78 33.06,429.95 33.10,436.12 33.12,441.35 33.14,446.59 33.14,450.02 33.15,453.45 33.48,457.00 33.80,460.54 33.83,460.75 33.87,460.96 33.83,461.17 33.79,461.38 33.69,461.57 33.59,461.75 33.44,461.90 33.28,462.04 33.09,462.13 32.89,462.22 32.68,462.24 32.47,462.26 32.26,462.21 32.06,462.17 31.88,462.06 31.70,461.94 31.56,461.78 31.42,461.62 31.35,461.42 31.27,461.22 31.26,461.01 31.25,460.80 31.31,460.59 31.37,460.39 31.49,460.21 31.61,460.04 31.78,459.91 31.95,459.79 32.15,459.72 32.35,459.65 32.56,459.65 32.78,459.66 32.98,459.73 33.18,459.80 33.35,459.93 33.52,460.06 33.63,460.23 33.75,460.41 33.81,460.61 33.86,460.82 33.85,461.03 33.83,461.24 33.75,461.44 33.67,461.64 33.53,461.80 33.40,461.96 33.21,462.07 33.03,462.17 32.82,462.22 32.61,462.26 32.40,462.24 32.19,462.21 32.00,462.12 31.81,462.03 31.65,461.88 31.50,461.74 31.40,461.55 31.31,461.36 31.31,461.36 31.31,461.36 29.22,457.55 27.14,453.74 26.88,450.18 26.63,446.61 26.60,441.39 26.58,436.17 26.52,430.05 26.47,423.92 26.36,418.48 26.24,413.05 26.11,408.62 25.98,404.20 25.69,398.10 25.41,392.00 25.11,387.47 24.80,382.94 24.38,377.17 23.95,371.39 23.52,367.05 23.09,362.71 22.65,357.55 22.22,352.39 21.63,345.13 21.04,337.88 20.39,330.17 19.73,322.45 19.03,315.01 18.33,307.57 17.68,300.74 17.03,293.91 16.65,288.49 16.28,283.06 15.98,276.36 15.68,269.66 15.39,265.31 15.11,260.97 14.88,256.80 14.65,252.63 14.39,248.45 14.12,244.27 13.80,239.49 13.48,234.71 13.28,231.54 13.08,228.37 12.89,224.94 12.69,221.50 12.52,217.51 12.35,213.52 12.24,208.52 12.13,203.53 12.04,200.37 11.94,197.22 11.85,193.95 11.75,190.67 11.63,186.84 11.50,183.01 11.36,178.27 11.22,173.52 11.19,170.46 11.15,167.39 11.07,163.98 10.99,160.57 10.96,157.11 10.92,153.65 10.83,149.86 10.75,146.07 10.55,141.42 10.36,136.76 10.19,134.14 10.03,131.51 9.78,128.97 9.53,126.43 9.18,123.97 8.83,121.51 8.25,118.49 7.67,115.47 7.03,111.36 6.39,107.24 6.07,104.15 5.74,101.05 5.41,97.03 5.07,93.02 4.71,87.60 4.35,82.19 4.35,78.85 4.34,75.52 4.32,72.03 4.30,68.55 4.23,64.86 4.16,61.18 4.13,57.43 4.10,53.68 3.98,49.56 3.86,45.45 3.56,40.65 3.27,35.85 2.89,32.77 2.52,29.69 2.06,26.19 1.60,22.69 0.75,18.16 -0.10,13.63 -0.95,9.43 -1.81,5.22 -1.75,2.71 -1.69,0.20 -1.69,0.00 -1.69,-0.20 -1.64,-0.40 -1.59,-0.60 -1.50,-0.78 -1.40,-0.96 -1.27,-1.12 -1.13,-1.27 -0.96,-1.39 -0.79,-1.51 -0.60,-1.58 -0.41,-1.65 -0.20,-1.68 -0.00,-1.70 0.20,-1.68 0.40,-1.66 0.59,-1.58 0.79,-1.51 0.96,-1.39 1.13,-1.28 1.26,-1.12 1.40,-0.97 1.50,-0.79 1.59,-0.60 1.64,-0.40 1.69,-0.20 1.69,-0.20 L 1.69,-0.20 Z"></path></g><g transform="translate(45.09897091808182 554.0576463106809) rotate(0 157.31103581873487 -14.538114366922173)" stroke="none"><path fill="currentColor" d="M -0.80,-1.38 Q -0.80,-1.38 0.10,-2.50 1.00,-3.61 2.77,-4.29 4.54,-4.96 9.50,-6.34 14.46,-7.71 21.03,-9.03 27.60,-10.34 32.27,-10.96 36.93,-11.58 41.76,-12.03 46.59,-12.49 51.35,-13.04 56.11,-13.59 59.35,-14.06 62.59,-14.53 65.61,-15.02 68.63,-15.50 73.46,-16.13 78.29,-16.76 82.10,-17.12 85.92,-17.47 88.98,-17.74 92.05,-18.01 94.56,-18.19 97.07,-18.37 100.39,-18.51 103.71,-18.65 107.68,-18.74 111.66,-18.83 114.73,-18.89 117.81,-18.96 120.45,-19.08 123.09,-19.20 127.79,-19.71 132.48,-20.23 136.67,-20.59 140.85,-20.95 144.86,-21.32 148.87,-21.69 152.83,-22.03 156.80,-22.37 162.09,-22.64 167.38,-22.92 171.44,-23.10 175.50,-23.28 180.90,-23.53 186.30,-23.78 190.00,-24.01 193.69,-24.24 198.50,-24.63 203.32,-25.02 207.47,-25.40 211.63,-25.77 215.57,-26.24 219.52,-26.71 225.05,-27.44 230.59,-28.16 234.49,-28.53 238.40,-28.91 241.79,-29.19 245.18,-29.47 248.33,-29.65 251.47,-29.83 254.33,-29.97 257.18,-30.11 261.49,-30.17 265.79,-30.23 268.85,-30.25 271.91,-30.28 275.78,-30.47 279.65,-30.66 281.85,-30.81 284.05,-30.95 285.58,-31.01 287.11,-31.08 289.23,-31.16 291.36,-31.25 292.89,-31.32 294.43,-31.39 295.73,-31.42 297.03,-31.45 298.44,-31.47 299.85,-31.48 301.95,-31.47 304.06,-31.46 305.83,-31.58 307.60,-31.70 308.81,-31.81 310.02,-31.92 312.88,-30.71 315.75,-29.51 315.91,-29.38 316.08,-29.25 316.20,-29.07 316.32,-28.90 316.38,-28.69 316.44,-28.49 316.43,-28.28 316.41,-28.06 316.34,-27.87 316.26,-27.67 316.12,-27.51 315.98,-27.34 315.80,-27.24 315.62,-27.13 315.41,-27.08 315.20,-27.03 314.99,-27.06 314.78,-27.08 314.59,-27.17 314.40,-27.26 314.24,-27.40 314.09,-27.55 313.99,-27.74 313.89,-27.92 313.85,-28.13 313.82,-28.34 313.85,-28.55 313.89,-28.76 313.99,-28.95 314.08,-29.14 314.24,-29.29 314.39,-29.43 314.59,-29.52 314.78,-29.61 314.99,-29.63 315.20,-29.66 315.41,-29.61 315.62,-29.57 315.80,-29.46 315.98,-29.35 316.12,-29.18 316.26,-29.02 316.33,-28.83 316.41,-28.63 316.43,-28.42 316.44,-28.20 316.38,-28.00 316.32,-27.79 316.20,-27.62 316.09,-27.44 315.92,-27.31 315.75,-27.19 315.55,-27.12 315.34,-27.05 315.13,-27.05 314.92,-27.05 314.72,-27.12 314.52,-27.18 314.52,-27.18 314.52,-27.18 312.58,-26.11 310.64,-25.04 309.34,-24.93 308.05,-24.81 306.06,-24.69 304.07,-24.56 301.99,-24.54 299.91,-24.51 298.55,-24.50 297.18,-24.49 295.96,-24.47 294.73,-24.44 293.18,-24.37 291.64,-24.31 289.52,-24.22 287.39,-24.14 285.94,-24.08 284.49,-24.02 282.24,-23.88 279.99,-23.74 275.98,-23.54 271.97,-23.35 268.93,-23.33 265.89,-23.30 261.70,-23.25 257.52,-23.19 254.69,-23.06 251.87,-22.92 248.81,-22.75 245.75,-22.57 242.40,-22.30 239.05,-22.03 235.25,-21.68 231.46,-21.32 225.88,-20.63 220.29,-19.93 216.24,-19.49 212.20,-19.06 207.99,-18.72 203.78,-18.38 198.92,-18.10 194.07,-17.83 190.32,-17.62 186.57,-17.41 181.17,-17.21 175.77,-17.01 171.73,-16.85 167.69,-16.68 162.51,-16.42 157.32,-16.17 153.38,-15.84 149.43,-15.50 145.40,-15.14 141.37,-14.78 137.24,-14.44 133.10,-14.09 128.23,-13.65 123.36,-13.21 120.65,-13.09 117.94,-12.97 114.86,-12.90 111.79,-12.83 107.87,-12.75 103.96,-12.66 100.72,-12.53 97.49,-12.40 95.03,-12.23 92.57,-12.06 89.52,-11.79 86.46,-11.53 82.75,-11.19 79.03,-10.85 74.28,-10.29 69.54,-9.72 66.49,-9.25 63.43,-8.79 60.10,-8.30 56.78,-7.82 51.95,-7.27 47.12,-6.72 42.40,-6.29 37.69,-5.86 33.20,-5.28 28.71,-4.69 22.31,-3.45 15.91,-2.21 11.10,-1.01 6.29,0.18 4.95,0.56 3.61,0.94 2.20,1.16 0.80,1.38 0.62,1.46 0.44,1.53 0.25,1.56 0.06,1.59 -0.12,1.58 -0.31,1.56 -0.50,1.50 -0.68,1.44 -0.84,1.34 -1.01,1.24 -1.14,1.10 -1.27,0.96 -1.37,0.79 -1.47,0.62 -1.52,0.44 -1.57,0.25 -1.58,0.06 -1.59,-0.12 -1.55,-0.31 -1.51,-0.50 -1.43,-0.67 -1.35,-0.85 -1.23,-1.00 -1.10,-1.15 -0.95,-1.26 -0.80,-1.38 -0.80,-1.38 L -0.80,-1.38 Z"></path></g><g transform="translate(10 88.52009060249975) rotate(0 164.0242612674196 -11.048954694229906)" stroke="none"><path fill="currentColor" d="M 0.97,-1.00 Q 0.97,-1.00 2.17,-0.72 3.37,-0.43 5.96,-0.93 8.55,-1.43 12.89,-1.80 17.23,-2.17 20.72,-2.39 24.20,-2.60 27.39,-2.76 30.58,-2.92 35.83,-3.17 41.08,-3.41 45.49,-3.61 49.90,-3.81 53.88,-3.99 57.85,-4.16 63.86,-4.64 69.88,-5.11 74.40,-5.37 78.92,-5.62 82.59,-5.82 86.27,-6.02 91.57,-6.54 96.87,-7.05 101.09,-7.46 105.31,-7.86 108.77,-8.18 112.24,-8.51 115.49,-8.84 118.75,-9.17 124.18,-9.81 129.61,-10.45 133.89,-10.90 138.17,-11.35 143.92,-11.82 149.66,-12.30 155.10,-12.71 160.54,-13.13 164.94,-13.49 169.34,-13.86 172.84,-14.39 176.35,-14.91 180.39,-15.58 184.43,-16.24 189.00,-16.86 193.58,-17.49 198.69,-17.94 203.80,-18.40 207.59,-18.72 211.38,-19.03 214.19,-19.22 217.00,-19.42 220.43,-19.50 223.85,-19.59 226.19,-19.72 228.54,-19.84 230.54,-19.93 232.55,-20.01 236.06,-20.26 239.56,-20.50 242.93,-20.67 246.29,-20.84 250.77,-20.94 255.24,-21.05 258.21,-21.12 261.18,-21.20 264.24,-21.38 267.30,-21.57 270.64,-21.85 273.99,-22.14 277.42,-22.59 280.85,-23.04 284.75,-23.60 288.65,-24.16 291.95,-24.58 295.26,-25.01 297.64,-25.25 300.02,-25.50 302.03,-25.72 304.04,-25.94 306.95,-26.25 309.85,-26.56 312.92,-26.82 315.98,-27.08 318.06,-27.24 320.14,-27.41 321.49,-27.52 322.83,-27.62 325.79,-26.70 328.75,-25.77 328.89,-25.61 329.03,-25.45 329.11,-25.25 329.19,-25.06 329.20,-24.85 329.21,-24.63 329.16,-24.43 329.11,-24.22 328.99,-24.05 328.87,-23.87 328.70,-23.74 328.54,-23.61 328.33,-23.54 328.13,-23.47 327.92,-23.47 327.71,-23.46 327.51,-23.53 327.30,-23.59 327.13,-23.72 326.96,-23.85 326.84,-24.02 326.72,-24.20 326.66,-24.40 326.60,-24.61 326.61,-24.82 326.62,-25.03 326.70,-25.23 326.77,-25.43 326.91,-25.59 327.05,-25.75 327.23,-25.86 327.41,-25.98 327.61,-26.02 327.82,-26.07 328.03,-26.05 328.24,-26.03 328.44,-25.94 328.63,-25.86 328.79,-25.71 328.94,-25.57 329.05,-25.38 329.15,-25.19 329.18,-24.99 329.22,-24.78 329.19,-24.57 329.16,-24.36 329.06,-24.17 328.96,-23.98 328.81,-23.83 328.66,-23.68 328.46,-23.59 328.27,-23.50 328.06,-23.47 327.85,-23.45 327.64,-23.49 327.43,-23.54 327.25,-23.64 327.07,-23.75 327.07,-23.75 327.07,-23.75 325.22,-22.12 323.38,-20.49 322.05,-20.39 320.72,-20.29 318.65,-20.13 316.57,-19.96 313.59,-19.71 310.60,-19.46 307.71,-19.16 304.82,-18.85 302.78,-18.63 300.74,-18.40 298.45,-18.17 296.16,-17.94 292.91,-17.52 289.66,-17.10 285.71,-16.54 281.77,-15.98 278.18,-15.52 274.60,-15.05 271.16,-14.76 267.72,-14.47 264.54,-14.28 261.36,-14.10 258.38,-14.03 255.40,-13.96 251.02,-13.86 246.65,-13.76 243.35,-13.60 240.05,-13.43 236.45,-13.18 232.85,-12.93 230.88,-12.85 228.91,-12.76 226.47,-12.64 224.02,-12.51 220.76,-12.43 217.49,-12.35 214.72,-12.16 211.95,-11.97 208.19,-11.67 204.42,-11.36 199.48,-10.93 194.53,-10.50 190.04,-9.89 185.56,-9.28 181.42,-8.62 177.29,-7.96 173.59,-7.51 169.89,-7.07 165.47,-6.72 161.05,-6.38 155.63,-5.97 150.21,-5.57 144.54,-5.11 138.87,-4.66 134.62,-4.22 130.37,-3.78 124.88,-3.17 119.39,-2.57 116.11,-2.27 112.83,-1.97 109.37,-1.66 105.90,-1.35 101.67,-0.98 97.44,-0.62 92.02,-0.18 86.60,0.26 82.93,0.45 79.26,0.64 74.80,0.88 70.33,1.12 64.22,1.52 58.11,1.91 54.13,2.08 50.15,2.24 45.74,2.41 41.32,2.57 36.09,2.76 30.86,2.94 27.71,3.08 24.56,3.23 21.14,3.43 17.71,3.64 13.51,3.97 9.31,4.30 6.41,4.58 3.50,4.86 1.76,4.29 0.02,3.71 -0.47,2.36 -0.97,1.00 -1.07,0.87 -1.18,0.74 -1.25,0.59 -1.32,0.44 -1.36,0.27 -1.39,0.10 -1.38,-0.05 -1.38,-0.22 -1.33,-0.38 -1.28,-0.55 -1.20,-0.69 -1.11,-0.84 -0.99,-0.96 -0.88,-1.08 -0.73,-1.17 -0.59,-1.26 -0.43,-1.31 -0.27,-1.37 -0.10,-1.38 0.05,-1.39 0.22,-1.36 0.39,-1.34 0.54,-1.27 0.70,-1.20 0.83,-1.10 0.97,-1.00 0.97,-1.00 L 0.97,-1.00 Z"></path></g><g transform="translate(409.96514947790445 140.40178936761095) rotate(0 -17.173861512543624 104.15602684557689)" stroke="none"><path fill="currentColor" d="M -0.95,1.45 Q -0.95,1.45 -2.46,1.10 -3.96,0.75 -5.69,0.54 -7.41,0.34 -9.92,0.36 -12.43,0.39 -14.76,0.39 -17.10,0.40 -21.14,0.62 -25.18,0.83 -28.57,1.01 -31.95,1.18 -34.81,1.51 -37.66,1.84 -40.34,2.16 -43.02,2.48 -46.52,3.36 -50.02,4.24 -54.23,5.69 -58.43,7.13 -61.73,8.41 -65.03,9.70 -67.60,10.92 -70.18,12.14 -72.98,14.07 -75.78,15.99 -77.66,17.53 -79.54,19.07 -82.07,21.46 -84.59,23.84 -86.49,25.96 -88.38,28.08 -90.07,30.12 -91.76,32.15 -93.33,33.96 -94.89,35.76 -96.28,37.57 -97.66,39.38 -98.88,41.07 -100.10,42.76 -101.71,45.57 -103.32,48.39 -104.52,50.95 -105.73,53.52 -106.83,56.15 -107.93,58.78 -109.46,63.35 -111.00,67.93 -112.12,71.46 -113.24,74.99 -114.09,77.96 -114.93,80.94 -115.61,83.76 -116.30,86.59 -116.83,89.45 -117.36,92.31 -117.82,97.04 -118.28,101.77 -118.40,105.70 -118.51,109.64 -118.31,113.15 -118.11,116.65 -117.63,119.62 -117.14,122.59 -116.29,125.69 -115.44,128.78 -113.46,133.54 -111.47,138.30 -109.17,143.65 -106.87,148.99 -104.40,153.87 -101.93,158.74 -98.90,163.39 -95.88,168.03 -92.68,172.24 -89.49,176.46 -86.15,179.59 -82.81,182.72 -79.09,185.59 -75.36,188.46 -72.70,190.42 -70.03,192.38 -67.60,193.74 -65.17,195.10 -61.29,197.19 -57.42,199.28 -54.67,200.76 -51.92,202.25 -49.80,203.15 -47.69,204.04 -45.79,204.54 -43.88,205.04 -42.04,205.54 -40.20,206.04 -36.33,206.81 -32.46,207.59 -28.26,208.08 -24.05,208.56 -21.17,208.86 -18.29,209.16 -16.25,209.28 -14.21,209.40 -12.52,209.45 -10.83,209.50 -8.19,209.53 -5.54,209.55 -3.38,209.47 -1.22,209.40 0.32,209.31 1.88,209.23 4.57,208.93 7.26,208.63 9.16,208.34 11.06,208.05 12.66,207.73 14.25,207.41 16.61,206.75 18.96,206.09 20.91,205.27 22.86,204.46 24.81,203.50 26.75,202.54 29.83,200.74 32.91,198.94 35.43,197.23 37.95,195.53 39.88,193.99 41.80,192.44 44.27,190.21 46.75,187.98 48.57,186.27 50.38,184.57 52.63,181.91 54.88,179.25 56.57,176.91 58.25,174.56 59.84,172.31 61.42,170.06 63.60,166.07 65.79,162.08 67.48,159.03 69.17,155.98 71.06,152.04 72.95,148.10 75.10,142.08 77.24,136.07 78.70,132.30 80.17,128.52 80.92,126.23 81.67,123.93 82.30,121.29 82.93,118.64 83.36,116.10 83.79,113.56 84.04,109.29 84.29,105.02 84.41,101.86 84.53,98.70 84.57,96.27 84.62,93.84 84.31,90.55 84.00,87.26 83.70,84.86 83.40,82.47 82.80,79.88 82.19,77.29 81.59,75.53 80.99,73.76 80.44,72.01 79.90,70.26 79.22,67.63 78.54,65.00 77.99,62.36 77.44,59.72 77.01,58.09 76.59,56.46 75.32,53.76 74.04,51.07 73.07,49.20 72.10,47.33 71.28,46.15 70.45,44.97 68.98,43.10 67.51,41.23 66.28,39.93 65.06,38.63 63.87,37.53 62.67,36.43 60.95,34.62 59.22,32.81 58.09,31.69 56.97,30.57 55.99,29.51 55.01,28.45 53.70,26.85 52.38,25.24 51.45,24.20 50.51,23.16 49.63,22.36 48.75,21.56 46.90,19.79 45.05,18.02 43.52,16.57 41.99,15.12 39.98,13.51 37.97,11.90 36.49,10.87 35.01,9.84 33.12,8.80 31.23,7.77 28.97,6.46 26.71,5.16 25.19,4.35 23.67,3.54 21.89,2.80 20.11,2.05 18.67,1.45 17.23,0.86 16.07,0.49 14.92,0.12 13.17,-0.15 11.42,-0.43 9.79,-0.60 8.17,-0.77 6.29,-0.82 4.42,-0.88 1.76,-0.75 -0.89,-0.62 -2.61,-0.39 -4.33,-0.15 -5.82,-0.35 -7.30,-0.55 -7.54,-0.55 -7.79,-0.54 -8.02,-0.59 -8.26,-0.64 -8.47,-0.74 -8.69,-0.85 -8.88,-1.00 -9.06,-1.15 -9.21,-1.35 -9.35,-1.54 -9.45,-1.76 -9.54,-1.98 -9.58,-2.22 -9.61,-2.46 -9.59,-2.70 -9.57,-2.94 -9.50,-3.17 -9.42,-3.40 -9.29,-3.60 -9.16,-3.80 -8.98,-3.97 -8.81,-4.14 -8.60,-4.26 -8.39,-4.38 -8.16,-4.44 -7.93,-4.51 -5.37,-3.41 -2.82,-2.32 -2.63,-2.22 -2.44,-2.12 -2.30,-1.97 -2.15,-1.81 -2.06,-1.62 -1.97,-1.43 -1.95,-1.22 -1.92,-1.01 -1.97,-0.80 -2.01,-0.59 -2.12,-0.41 -2.23,-0.23 -2.39,-0.09 -2.55,0.04 -2.75,0.12 -2.95,0.20 -3.16,0.21 -3.37,0.22 -3.58,0.17 -3.78,0.11 -3.96,-0.00 -4.13,-0.12 -4.26,-0.29 -4.39,-0.45 -4.46,-0.65 -4.53,-0.86 -4.53,-1.07 -4.53,-1.28 -4.46,-1.48 -4.40,-1.68 -4.27,-1.85 -4.14,-2.02 -3.96,-2.14 -3.79,-2.26 -3.58,-2.32 -3.38,-2.38 -3.17,-2.37 -2.96,-2.36 -2.76,-2.28 -2.56,-2.20 -2.40,-2.06 -2.24,-1.93 -2.13,-1.74 -2.02,-1.56 -1.97,-1.36 -1.92,-1.15 -1.94,-0.94 -1.97,-0.73 -2.06,-0.53 -2.14,-0.34 -2.29,-0.18 -2.44,-0.03 -2.62,0.06 -2.81,0.16 -3.02,0.20 -3.23,0.23 -3.44,0.20 -3.65,0.16 -3.65,0.16 -3.65,0.16 -5.48,-0.19 -7.30,-0.55 -7.54,-0.55 -7.78,-0.54 -8.02,-0.59 -8.26,-0.64 -8.47,-0.74 -8.69,-0.84 -8.88,-1.00 -9.06,-1.15 -9.21,-1.35 -9.35,-1.54 -9.45,-1.76 -9.54,-1.98 -9.58,-2.22 -9.61,-2.46 -9.59,-2.70 -9.57,-2.94 -9.50,-3.17 -9.42,-3.40 -9.29,-3.60 -9.16,-3.80 -8.98,-3.97 -8.81,-4.14 -8.60,-4.26 -8.39,-4.38 -8.16,-4.44 -7.93,-4.51 -6.81,-6.15 -5.70,-7.80 -3.49,-8.19 -1.28,-8.58 1.73,-8.72 4.74,-8.86 6.88,-8.75 9.03,-8.64 10.89,-8.43 12.76,-8.22 15.07,-7.80 17.37,-7.37 18.81,-6.90 20.24,-6.42 21.72,-5.81 23.19,-5.20 25.28,-4.30 27.38,-3.40 29.01,-2.52 30.65,-1.64 32.85,-0.36 35.04,0.90 37.28,2.16 39.52,3.42 41.20,4.61 42.89,5.80 45.13,7.62 47.38,9.45 48.92,10.92 50.46,12.38 52.25,14.11 54.05,15.84 55.18,16.92 56.32,17.99 57.36,19.17 58.41,20.36 59.56,21.79 60.71,23.23 61.57,24.17 62.42,25.11 63.62,26.30 64.82,27.50 66.37,29.16 67.93,30.82 69.30,32.12 70.67,33.42 72.10,34.98 73.53,36.55 75.13,38.63 76.73,40.72 77.77,42.30 78.81,43.88 79.85,45.92 80.88,47.96 82.34,51.29 83.80,54.61 84.25,56.42 84.70,58.22 85.20,60.70 85.71,63.18 86.32,65.63 86.94,68.08 87.45,69.75 87.96,71.42 88.66,73.53 89.36,75.65 90.02,78.61 90.69,81.57 91.00,84.08 91.30,86.60 91.63,90.29 91.95,93.99 91.90,96.48 91.85,98.97 91.73,102.22 91.61,105.47 91.30,110.13 91.00,114.79 90.52,117.57 90.04,120.36 89.33,123.29 88.62,126.22 87.80,128.69 86.98,131.17 85.55,134.85 84.12,138.53 81.82,144.90 79.53,151.26 77.54,155.39 75.55,159.52 73.87,162.55 72.18,165.58 69.80,169.93 67.42,174.28 65.81,176.57 64.20,178.85 62.33,181.43 60.47,184.00 57.94,186.96 55.41,189.91 53.54,191.68 51.66,193.44 49.02,195.81 46.39,198.18 44.22,199.90 42.06,201.63 39.33,203.46 36.61,205.28 33.30,207.21 29.99,209.13 27.82,210.19 25.65,211.25 23.30,212.20 20.94,213.16 18.32,213.88 15.70,214.61 13.93,214.96 12.16,215.31 10.11,215.62 8.06,215.92 5.23,216.23 2.40,216.54 0.71,216.69 -0.98,216.83 -3.29,216.91 -5.61,216.98 -8.33,216.96 -11.06,216.93 -12.86,216.87 -14.66,216.82 -16.86,216.68 -19.06,216.55 -21.99,216.24 -24.92,215.94 -29.42,215.40 -33.93,214.87 -38.04,214.04 -42.15,213.21 -43.99,212.71 -45.82,212.21 -48.21,211.55 -50.60,210.88 -53.02,209.84 -55.44,208.80 -58.20,207.31 -60.96,205.83 -64.89,203.71 -68.82,201.58 -71.63,199.99 -74.45,198.39 -77.18,196.37 -79.92,194.36 -83.93,191.25 -87.94,188.14 -91.69,184.56 -95.44,180.97 -98.79,176.54 -102.14,172.10 -105.37,167.10 -108.61,162.10 -111.14,157.02 -113.68,151.93 -116.01,146.54 -118.33,141.15 -120.48,135.94 -122.62,130.73 -123.56,127.25 -124.49,123.78 -125.02,120.42 -125.55,117.07 -125.75,113.24 -125.95,109.41 -125.82,105.22 -125.69,101.03 -125.18,95.99 -124.66,90.95 -124.09,87.89 -123.51,84.83 -122.79,81.87 -122.07,78.91 -121.18,75.82 -120.30,72.74 -119.15,69.15 -118.01,65.57 -116.38,60.75 -114.76,55.93 -113.59,53.14 -112.43,50.35 -111.08,47.52 -109.73,44.69 -107.91,41.56 -106.09,38.43 -104.81,36.65 -103.52,34.87 -101.99,32.90 -100.47,30.92 -98.95,29.18 -97.43,27.43 -95.65,25.29 -93.87,23.16 -91.75,20.81 -89.64,18.47 -86.91,15.92 -84.18,13.37 -82.04,11.64 -79.90,9.91 -76.60,7.72 -73.31,5.52 -70.48,4.20 -67.66,2.88 -64.21,1.56 -60.76,0.24 -56.23,-1.25 -51.70,-2.76 -47.76,-3.66 -43.82,-4.55 -41.12,-4.84 -38.41,-5.13 -35.33,-5.43 -32.26,-5.74 -28.85,-5.87 -25.44,-5.99 -21.23,-6.09 -17.02,-6.18 -14.64,-6.12 -12.26,-6.05 -9.43,-5.89 -6.60,-5.73 -5.10,-5.43 -3.60,-5.14 -2.26,-4.55 -0.92,-3.95 0.01,-2.70 0.95,-1.45 1.11,-1.32 1.27,-1.18 1.39,-1.01 1.52,-0.84 1.60,-0.65 1.68,-0.45 1.71,-0.24 1.74,-0.04 1.72,0.16 1.70,0.37 1.63,0.57 1.56,0.77 1.44,0.94 1.33,1.12 1.17,1.26 1.02,1.40 0.83,1.51 0.65,1.61 0.45,1.66 0.25,1.72 0.04,1.72 -0.16,1.73 -0.37,1.68 -0.57,1.64 -0.76,1.54 -0.95,1.45 -0.95,1.45 L -0.95,1.45 Z"></path></g><g transform="translate(445.4871035171825 346.65855303129774) rotate(0 50.49409382495065 78.3922642814889)" stroke="none"><path fill="currentColor" d="M 1.47,-0.99 Q 1.47,-0.99 3.68,0.95 5.89,2.90 7.57,5.49 9.24,8.08 10.96,10.77 12.67,13.45 13.90,15.33 15.13,17.21 16.29,19.31 17.44,21.41 18.48,23.03 19.52,24.66 21.04,27.31 22.56,29.97 23.67,31.78 24.78,33.60 26.38,36.53 27.97,39.47 29.20,41.49 30.43,43.52 31.70,45.50 32.97,47.48 34.76,50.71 36.55,53.95 37.85,56.12 39.14,58.29 41.02,61.48 42.90,64.67 44.36,67.10 45.82,69.54 46.98,71.40 48.14,73.26 49.63,75.36 51.13,77.47 52.83,79.82 54.54,82.17 55.73,83.95 56.92,85.73 57.97,87.52 59.02,89.32 60.40,91.39 61.79,93.46 62.89,95.08 63.99,96.69 64.97,98.10 65.94,99.50 67.37,101.58 68.81,103.67 69.97,105.27 71.14,106.87 72.58,108.77 74.02,110.67 74.99,112.09 75.97,113.52 76.79,114.79 77.61,116.06 79.02,118.05 80.42,120.04 81.64,121.74 82.87,123.43 84.03,124.99 85.18,126.55 86.23,127.99 87.27,129.43 88.69,131.20 90.10,132.98 91.13,134.25 92.17,135.51 93.47,137.18 94.78,138.84 95.73,140.03 96.69,141.22 97.86,142.95 99.03,144.67 99.87,145.99 100.70,147.32 101.35,148.50 102.00,149.68 102.57,150.95 103.13,152.21 102.48,154.65 101.83,157.09 101.72,157.28 101.62,157.46 101.47,157.61 101.31,157.75 101.11,157.84 100.92,157.92 100.71,157.94 100.50,157.96 100.29,157.91 100.08,157.86 99.90,157.75 99.72,157.64 99.59,157.47 99.45,157.31 99.38,157.11 99.30,156.91 99.29,156.70 99.29,156.49 99.35,156.28 99.41,156.08 99.53,155.91 99.65,155.73 99.82,155.61 99.99,155.48 100.19,155.42 100.40,155.35 100.61,155.35 100.82,155.36 101.02,155.43 101.22,155.50 101.39,155.63 101.56,155.76 101.67,155.94 101.79,156.12 101.84,156.32 101.90,156.53 101.88,156.74 101.87,156.95 101.78,157.15 101.70,157.35 101.56,157.51 101.42,157.66 101.24,157.77 101.06,157.88 100.85,157.92 100.64,157.96 100.43,157.94 100.22,157.91 100.03,157.82 99.83,157.73 99.68,157.58 99.53,157.43 99.43,157.24 99.34,157.05 99.31,156.84 99.28,156.63 99.31,156.42 99.35,156.21 99.35,156.21 99.35,156.21 98.05,155.63 96.75,155.04 96.31,154.03 95.87,153.02 95.33,152.02 94.79,151.02 94.03,149.80 93.26,148.57 92.26,147.08 91.26,145.58 90.28,144.36 89.29,143.14 88.03,141.52 86.76,139.90 85.71,138.60 84.67,137.29 83.17,135.41 81.67,133.52 80.63,132.10 79.59,130.68 78.42,129.10 77.25,127.52 75.99,125.78 74.73,124.05 73.25,121.95 71.77,119.85 70.99,118.65 70.20,117.44 69.38,116.22 68.55,115.00 66.94,113.05 65.34,111.11 64.11,109.43 62.88,107.74 61.46,105.67 60.03,103.60 59.04,102.18 58.05,100.75 56.92,99.10 55.79,97.45 54.30,95.20 52.81,92.95 51.87,91.34 50.93,89.73 49.82,88.06 48.71,86.40 46.98,84.01 45.26,81.63 43.64,79.35 42.03,77.06 40.84,75.15 39.65,73.24 38.17,70.78 36.69,68.32 34.83,65.14 32.96,61.97 31.61,59.69 30.25,57.42 28.58,54.37 26.91,51.32 25.61,49.23 24.30,47.15 23.04,44.97 21.79,42.79 20.31,40.01 18.83,37.22 17.67,35.32 16.51,33.41 15.08,30.87 13.66,28.34 12.52,26.50 11.38,24.66 10.40,22.78 9.41,20.90 8.19,18.97 6.96,17.04 5.28,14.33 3.60,11.62 2.06,9.08 0.52,6.54 -0.47,3.77 -1.47,0.99 -1.56,0.80 -1.66,0.61 -1.71,0.40 -1.76,0.20 -1.76,-0.01 -1.76,-0.22 -1.70,-0.43 -1.65,-0.64 -1.55,-0.83 -1.45,-1.02 -1.31,-1.18 -1.16,-1.33 -0.99,-1.45 -0.81,-1.57 -0.61,-1.65 -0.41,-1.72 -0.19,-1.75 0.01,-1.77 0.22,-1.74 0.43,-1.72 0.63,-1.64 0.83,-1.56 1.01,-1.44 1.18,-1.32 1.32,-1.15 1.47,-0.99 1.47,-0.99 L 1.47,-0.99 Z"></path></g><g transform="translate(464.71594645508674 330.95070582438257) rotate(0 51.08128648257264 75.30944496607867)" stroke="none"><path fill="currentColor" d="M 1.47,-0.34 Q 1.47,-0.34 2.45,0.93 3.44,2.21 4.25,3.96 5.07,5.71 5.67,6.74 6.27,7.77 7.54,9.74 8.81,11.71 9.94,13.44 11.08,15.17 12.22,16.67 13.37,18.16 15.32,20.67 17.26,23.17 19.30,25.82 21.34,28.46 23.14,31.01 24.94,33.55 26.76,36.19 28.58,38.83 30.53,41.63 32.47,44.42 34.75,47.52 37.04,50.61 38.96,53.03 40.88,55.45 42.13,56.99 43.39,58.52 44.20,59.52 45.02,60.52 45.69,61.36 46.37,62.19 47.32,63.58 48.28,64.97 49.05,66.02 49.81,67.07 50.96,68.77 52.10,70.47 53.48,72.39 54.85,74.31 55.65,75.76 56.45,77.22 57.02,78.19 57.60,79.15 58.39,80.65 59.19,82.15 59.86,83.18 60.52,84.21 61.20,85.33 61.88,86.45 62.86,87.88 63.85,89.31 64.60,90.34 65.35,91.36 66.09,92.34 66.83,93.32 67.54,94.37 68.24,95.41 68.96,96.32 69.68,97.22 70.78,98.57 71.89,99.91 72.97,101.11 74.06,102.31 74.96,103.36 75.87,104.40 77.02,105.97 78.16,107.53 79.26,109.25 80.36,110.96 81.39,112.58 82.42,114.21 83.49,116.12 84.57,118.03 85.23,119.42 85.90,120.81 86.40,121.85 86.90,122.88 88.04,124.99 89.18,127.10 90.04,128.04 90.90,128.98 91.62,129.86 92.35,130.74 93.64,132.21 94.94,133.67 95.74,134.61 96.54,135.54 97.63,136.93 98.72,138.33 100.02,140.13 101.31,141.93 102.07,142.95 102.83,143.97 103.06,147.62 103.30,151.27 103.16,151.43 103.02,151.59 102.83,151.70 102.65,151.81 102.44,151.85 102.24,151.89 102.02,151.87 101.81,151.84 101.62,151.75 101.43,151.66 101.28,151.51 101.12,151.36 101.03,151.18 100.93,150.99 100.90,150.78 100.86,150.57 100.90,150.36 100.94,150.15 101.04,149.96 101.14,149.78 101.30,149.63 101.45,149.49 101.65,149.40 101.84,149.31 102.05,149.29 102.26,149.27 102.47,149.32 102.68,149.37 102.86,149.48 103.04,149.59 103.17,149.75 103.31,149.92 103.39,150.11 103.46,150.31 103.47,150.52 103.48,150.74 103.42,150.94 103.36,151.15 103.24,151.32 103.12,151.49 102.95,151.62 102.78,151.75 102.58,151.81 102.38,151.88 102.16,151.88 101.95,151.87 101.75,151.80 101.55,151.73 101.38,151.60 101.21,151.47 101.10,151.30 100.98,151.12 100.93,150.91 100.87,150.71 100.88,150.50 100.90,150.29 100.98,150.09 101.06,149.89 101.06,149.89 101.06,149.89 99.27,149.10 97.48,148.30 96.60,147.12 95.72,145.94 94.46,144.19 93.20,142.44 92.26,141.24 91.32,140.03 89.86,138.34 88.40,136.64 87.05,135.09 85.71,133.53 84.50,132.11 83.29,130.70 81.98,128.30 80.68,125.91 80.16,124.84 79.64,123.77 79.09,122.60 78.54,121.42 77.55,119.68 76.57,117.93 75.54,116.31 74.50,114.69 73.53,113.15 72.55,111.61 71.59,110.28 70.63,108.95 69.77,107.96 68.90,106.97 67.79,105.74 66.69,104.52 65.45,103.01 64.21,101.50 63.35,100.40 62.50,99.29 61.89,98.39 61.28,97.49 60.52,96.46 59.75,95.44 58.94,94.33 58.14,93.22 57.05,91.62 55.96,90.03 55.33,88.98 54.70,87.94 53.89,86.66 53.07,85.38 52.37,84.02 51.66,82.67 51.08,81.69 50.50,80.70 49.78,79.56 49.05,78.41 47.64,76.40 46.22,74.39 45.17,72.79 44.12,71.19 43.30,70.05 42.47,68.91 41.68,67.73 40.88,66.54 40.22,65.68 39.55,64.82 38.79,63.82 38.04,62.82 36.79,61.24 35.54,59.66 33.56,57.14 31.58,54.62 29.26,51.44 26.94,48.26 24.98,45.44 23.03,42.62 21.25,39.98 19.47,37.35 17.76,34.83 16.05,32.31 14.19,29.59 12.33,26.88 10.47,24.32 8.61,21.76 7.36,20.08 6.10,18.40 4.97,16.63 3.83,14.85 2.53,12.75 1.23,10.66 0.56,9.46 -0.10,8.26 -0.66,7.11 -1.21,5.96 -1.65,4.74 -2.09,3.52 -1.78,1.93 -1.47,0.34 -1.49,0.16 -1.51,-0.01 -1.48,-0.19 -1.46,-0.37 -1.39,-0.54 -1.33,-0.71 -1.22,-0.86 -1.12,-1.01 -0.98,-1.13 -0.84,-1.25 -0.68,-1.33 -0.52,-1.41 -0.34,-1.45 -0.16,-1.50 0.01,-1.49 0.19,-1.49 0.37,-1.45 0.55,-1.40 0.71,-1.32 0.87,-1.23 1.00,-1.11 1.14,-0.98 1.24,-0.83 1.34,-0.68 1.40,-0.51 1.47,-0.34 1.47,-0.34 L 1.47,-0.34 Z"></path></g><g transform="translate(545.0075023993455 499.919848498017) rotate(0 12.62356203150091 -11.597382877772134)" stroke="none"><path fill="currentColor" d="M -0.95,-1.37 Q -0.95,-1.37 -0.35,-2.29 0.24,-3.22 0.99,-4.07 1.74,-4.92 2.50,-5.67 3.26,-6.42 4.97,-7.74 6.68,-9.05 8.04,-9.97 9.39,-10.89 10.45,-11.64 11.50,-12.39 12.77,-13.35 14.04,-14.31 15.11,-15.41 16.17,-16.50 17.25,-17.64 18.33,-18.78 19.27,-19.83 20.20,-20.88 22.07,-22.09 23.93,-23.30 24.00,-23.50 24.06,-23.71 24.19,-23.88 24.31,-24.05 24.49,-24.17 24.66,-24.29 24.87,-24.35 25.07,-24.41 25.28,-24.40 25.49,-24.39 25.69,-24.32 25.89,-24.24 26.06,-24.10 26.22,-23.97 26.33,-23.79 26.44,-23.61 26.49,-23.40 26.54,-23.19 26.52,-22.98 26.50,-22.77 26.41,-22.58 26.33,-22.38 26.18,-22.23 26.04,-22.07 25.85,-21.97 25.67,-21.87 25.46,-21.83 25.25,-21.79 25.04,-21.82 24.83,-21.86 24.64,-21.95 24.45,-22.05 24.30,-22.20 24.15,-22.35 24.06,-22.55 23.97,-22.74 23.94,-22.95 23.92,-23.16 23.96,-23.37 24.00,-23.58 24.11,-23.76 24.22,-23.94 24.38,-24.08 24.54,-24.22 24.73,-24.30 24.93,-24.38 25.14,-24.40 25.35,-24.41 25.56,-24.36 25.77,-24.30 25.94,-24.19 26.12,-24.07 26.25,-23.90 26.38,-23.74 26.45,-23.54 26.52,-23.34 26.53,-23.12 26.53,-22.91 26.53,-22.91 26.53,-22.91 26.15,-20.80 25.77,-18.69 25.11,-17.86 24.45,-17.02 23.43,-15.92 22.41,-14.82 21.26,-13.66 20.11,-12.50 18.71,-11.18 17.32,-9.86 15.98,-8.90 14.64,-7.94 13.52,-7.16 12.41,-6.38 10.30,-5.02 8.20,-3.66 6.82,-2.48 5.43,-1.31 4.28,-0.22 3.12,0.86 2.04,1.11 0.95,1.37 0.78,1.46 0.60,1.56 0.40,1.60 0.21,1.65 0.01,1.66 -0.19,1.66 -0.38,1.61 -0.58,1.56 -0.76,1.47 -0.94,1.38 -1.09,1.25 -1.24,1.11 -1.36,0.95 -1.47,0.78 -1.54,0.59 -1.62,0.41 -1.64,0.21 -1.67,0.01 -1.65,-0.18 -1.62,-0.38 -1.55,-0.57 -1.48,-0.76 -1.37,-0.93 -1.25,-1.10 -1.10,-1.23 -0.95,-1.37 -0.95,-1.37 L -0.95,-1.37 Z"></path></g><g transform="translate(323.94902446314916 189.43372641326187) rotate(0 67.88810436502337 57.032485224829315)" stroke="none"><path fill="currentColor" d="M 1.14,1.14 Q 1.14,1.14 0.05,3.25 -1.03,5.37 -2.31,7.14 -3.59,8.90 -4.51,10.20 -5.42,11.49 -6.30,12.80 -7.17,14.10 -7.69,15.17 -8.22,16.24 -8.75,17.41 -9.27,18.59 -9.89,19.96 -10.50,21.32 -11.26,23.95 -12.02,26.58 -12.78,29.21 -13.54,31.85 -14.05,34.06 -14.56,36.27 -14.86,38.10 -15.15,39.93 -15.31,41.40 -15.47,42.87 -15.62,44.66 -15.77,46.45 -15.92,48.44 -16.06,50.43 -16.12,51.94 -16.18,53.45 -16.20,54.97 -16.23,56.48 -16.24,58.47 -16.25,60.46 -16.17,61.94 -16.09,63.41 -15.90,64.93 -15.71,66.45 -15.53,68.01 -15.36,69.57 -15.04,71.49 -14.73,73.41 -14.37,74.79 -14.01,76.16 -13.55,77.42 -13.10,78.68 -12.41,80.34 -11.71,82.00 -11.17,83.26 -10.62,84.52 -10.05,85.82 -9.48,87.12 -8.68,88.69 -7.88,90.26 -7.00,92.10 -6.13,93.93 -5.44,95.30 -4.75,96.66 -3.98,98.04 -3.21,99.41 -2.56,100.47 -1.91,101.54 -0.93,102.93 0.05,104.32 0.78,105.42 1.51,106.51 2.95,108.41 4.39,110.31 5.93,112.29 7.47,114.28 8.43,115.42 9.39,116.56 10.89,118.14 12.39,119.72 14.52,121.66 16.66,123.60 17.66,124.49 18.66,125.39 19.54,126.00 20.42,126.62 21.65,127.37 22.89,128.13 24.00,128.82 25.11,129.50 26.14,130.11 27.18,130.73 28.41,131.38 29.64,132.03 30.64,132.60 31.65,133.16 33.55,134.12 35.46,135.09 36.47,135.61 37.48,136.14 38.62,136.63 39.76,137.13 41.23,137.79 42.70,138.44 43.75,138.86 44.81,139.28 45.99,139.70 47.17,140.12 49.47,140.98 51.76,141.83 53.52,142.25 55.29,142.67 56.57,142.94 57.86,143.20 59.29,143.44 60.72,143.68 62.29,143.85 63.86,144.02 65.72,144.05 67.58,144.09 69.79,144.21 72.00,144.34 73.96,144.32 75.92,144.30 77.41,144.27 78.89,144.25 80.39,144.08 81.90,143.91 83.52,143.61 85.15,143.32 86.51,142.90 87.88,142.48 89.20,142.09 90.53,141.69 91.67,141.25 92.81,140.81 93.97,140.33 95.12,139.85 96.39,139.27 97.66,138.69 98.74,138.30 99.81,137.91 101.15,137.17 102.48,136.43 104.37,135.52 106.26,134.61 107.51,133.86 108.76,133.12 110.45,132.13 112.15,131.14 113.57,130.17 115.00,129.19 116.41,128.17 117.83,127.15 118.90,126.48 119.97,125.81 121.29,124.76 122.62,123.71 123.93,122.52 125.25,121.32 126.21,120.30 127.17,119.28 128.03,118.15 128.89,117.02 130.18,115.22 131.47,113.41 132.47,111.91 133.46,110.41 134.44,108.71 135.42,107.02 136.01,105.96 136.59,104.90 137.51,103.19 138.43,101.48 139.12,100.07 139.82,98.66 140.49,96.79 141.16,94.93 141.94,92.73 142.73,90.53 143.49,88.72 144.26,86.91 144.89,85.03 145.53,83.15 146.24,81.29 146.96,79.43 147.65,77.58 148.35,75.73 148.74,74.27 149.14,72.82 149.63,70.81 150.12,68.81 150.53,67.58 150.94,66.34 151.18,64.67 151.42,62.99 151.58,61.01 151.74,59.03 151.78,57.73 151.81,56.43 151.83,55.35 151.85,54.27 151.81,52.95 151.77,51.62 151.70,49.86 151.64,48.09 151.27,46.90 150.91,45.71 150.59,44.57 150.26,43.42 149.80,41.66 149.34,39.90 149.13,38.76 148.93,37.63 148.61,35.99 148.28,34.35 148.03,33.24 147.78,32.13 147.40,30.76 147.03,29.39 146.74,28.35 146.46,27.31 145.71,25.56 144.95,23.82 144.35,22.56 143.75,21.31 143.28,20.34 142.81,19.37 142.09,17.92 141.37,16.47 140.61,14.92 139.85,13.37 139.05,11.41 138.24,9.45 137.56,8.08 136.87,6.70 136.24,5.22 135.61,3.74 134.63,1.95 133.65,0.17 132.95,-1.04 132.25,-2.27 131.59,-3.30 130.94,-4.33 130.02,-5.68 129.09,-7.02 128.20,-8.18 127.31,-9.34 126.26,-10.45 125.20,-11.55 123.66,-12.95 122.11,-14.35 120.72,-15.25 119.32,-16.15 117.45,-17.36 115.57,-18.57 113.52,-19.70 111.47,-20.82 109.75,-21.50 108.03,-22.17 106.38,-22.89 104.73,-23.60 103.74,-24.01 102.76,-24.42 101.08,-24.95 99.41,-25.48 97.66,-25.92 95.90,-26.36 93.97,-26.80 92.04,-27.25 89.99,-27.59 87.95,-27.94 86.12,-28.28 84.30,-28.62 83.20,-28.87 82.09,-29.11 80.71,-29.34 79.32,-29.56 77.37,-29.67 75.41,-29.77 73.64,-29.79 71.87,-29.81 70.03,-29.81 68.18,-29.82 66.28,-29.58 64.38,-29.34 61.72,-29.06 59.05,-28.78 57.23,-28.57 55.40,-28.37 53.33,-28.12 51.27,-27.87 49.95,-27.68 48.64,-27.49 47.39,-27.26 46.15,-27.02 44.39,-26.61 42.63,-26.20 41.44,-25.72 40.25,-25.24 39.08,-24.72 37.90,-24.20 35.39,-23.17 32.87,-22.15 31.82,-21.73 30.76,-21.31 28.92,-20.46 27.08,-19.62 26.03,-19.16 24.99,-18.70 23.94,-18.15 22.90,-17.61 20.99,-16.61 19.08,-15.62 17.96,-14.86 16.84,-14.10 15.02,-12.77 13.19,-11.44 12.06,-10.56 10.93,-9.68 9.54,-8.71 8.14,-7.74 6.81,-6.55 5.48,-5.37 4.63,-4.54 3.78,-3.71 2.42,-2.20 1.05,-0.68 0.22,0.25 -0.60,1.19 -1.88,2.92 -3.17,4.66 -4.56,6.68 -5.94,8.70 -6.58,9.65 -7.21,10.61 -8.64,11.45 -10.08,12.29 -10.23,12.46 -10.39,12.63 -10.58,12.76 -10.77,12.88 -10.99,12.96 -11.20,13.04 -11.43,13.07 -11.66,13.09 -11.89,13.06 -12.12,13.03 -12.33,12.94 -12.54,12.86 -12.73,12.72 -12.92,12.59 -13.07,12.42 -13.22,12.24 -13.32,12.04 -13.43,11.83 -13.48,11.61 -13.53,11.38 -13.53,11.15 -13.52,10.92 -13.47,10.70 -13.41,10.48 -13.30,10.27 -13.19,10.07 -9.52,6.94 -5.85,3.80 -5.68,3.68 -5.50,3.56 -5.30,3.50 -5.09,3.44 -4.88,3.45 -4.67,3.46 -4.47,3.54 -4.27,3.62 -4.11,3.76 -3.95,3.89 -3.83,4.07 -3.72,4.25 -3.68,4.46 -3.63,4.67 -3.65,4.88 -3.67,5.09 -3.76,5.28 -3.85,5.48 -3.99,5.63 -4.14,5.79 -4.33,5.89 -4.51,5.99 -4.72,6.03 -4.93,6.06 -5.14,6.03 -5.35,6.00 -5.54,5.90 -5.73,5.80 -5.87,5.65 -6.02,5.49 -6.11,5.30 -6.20,5.11 -6.23,4.90 -6.25,4.69 -6.21,4.48 -6.16,4.27 -6.06,4.09 -5.95,3.91 -5.79,3.77 -5.63,3.63 -5.43,3.55 -5.23,3.47 -5.02,3.46 -4.81,3.44 -4.60,3.50 -4.40,3.55 -4.22,3.67 -4.04,3.79 -3.91,3.96 -3.78,4.13 -3.72,4.33 -3.65,4.53 -3.64,4.74 -3.64,4.95 -3.71,5.15 -3.78,5.36 -3.90,5.53 -4.03,5.70 -4.03,5.70 -4.03,5.70 -7.05,8.99 -10.08,12.29 -10.23,12.46 -10.39,12.63 -10.58,12.76 -10.77,12.88 -10.99,12.96 -11.20,13.04 -11.43,13.07 -11.66,13.09 -11.89,13.06 -12.12,13.03 -12.33,12.94 -12.54,12.86 -12.73,12.73 -12.92,12.59 -13.07,12.42 -13.22,12.24 -13.32,12.04 -13.43,11.83 -13.48,11.61 -13.53,11.38 -13.53,11.15 -13.52,10.92 -13.47,10.70 -13.41,10.48 -13.30,10.28 -13.19,10.07 -14.08,9.30 -14.98,8.53 -14.40,7.39 -13.83,6.24 -13.21,5.30 -12.58,4.35 -11.05,2.13 -9.52,-0.07 -8.76,-1.10 -8.00,-2.12 -7.28,-3.09 -6.56,-4.05 -5.68,-5.05 -4.80,-6.05 -4.00,-6.92 -3.20,-7.79 -2.47,-8.60 -1.75,-9.40 -0.06,-11.00 1.62,-12.60 2.63,-13.44 3.63,-14.28 4.84,-15.11 6.05,-15.94 7.29,-16.90 8.53,-17.86 10.48,-19.27 12.43,-20.69 13.84,-21.62 15.24,-22.56 17.26,-23.61 19.28,-24.66 21.40,-25.67 23.52,-26.69 25.68,-27.68 27.84,-28.66 28.90,-29.09 29.96,-29.51 32.33,-30.47 34.69,-31.42 35.97,-31.99 37.24,-32.55 38.93,-33.20 40.61,-33.84 42.65,-34.31 44.69,-34.78 46.11,-35.05 47.53,-35.31 48.92,-35.51 50.31,-35.71 52.42,-35.96 54.54,-36.22 56.38,-36.42 58.23,-36.62 60.84,-36.90 63.45,-37.17 65.82,-37.43 68.18,-37.70 69.34,-37.70 70.49,-37.70 72.01,-37.69 73.52,-37.67 75.66,-37.62 77.79,-37.56 79.12,-37.45 80.45,-37.35 82.13,-37.07 83.81,-36.79 84.92,-36.54 86.04,-36.29 87.72,-35.98 89.41,-35.67 91.50,-35.29 93.59,-34.90 95.62,-34.41 97.66,-33.92 99.71,-33.39 101.75,-32.87 103.74,-32.22 105.73,-31.57 106.78,-31.13 107.83,-30.70 109.37,-30.02 110.90,-29.35 112.92,-28.52 114.94,-27.70 116.41,-26.94 117.88,-26.19 118.82,-25.59 119.75,-25.00 121.67,-23.75 123.58,-22.51 124.52,-21.87 125.46,-21.23 126.41,-20.56 127.36,-19.88 128.91,-18.46 130.46,-17.05 131.41,-16.11 132.37,-15.16 133.43,-13.79 134.50,-12.42 135.30,-11.30 136.10,-10.17 137.07,-8.78 138.04,-7.39 138.74,-6.13 139.45,-4.88 140.29,-3.41 141.13,-1.95 141.87,-0.47 142.62,0.99 143.06,2.07 143.50,3.14 144.31,4.81 145.13,6.47 145.88,8.32 146.63,10.17 147.26,11.51 147.90,12.85 148.71,14.49 149.52,16.13 150.00,17.14 150.48,18.15 151.13,19.57 151.78,20.98 152.25,22.16 152.73,23.34 153.12,24.36 153.52,25.39 153.80,26.44 154.08,27.49 154.44,28.87 154.80,30.24 155.11,31.64 155.43,33.04 155.75,34.70 156.07,36.36 156.36,38.01 156.65,39.67 157.13,41.36 157.61,43.04 157.99,44.11 158.38,45.17 158.59,46.41 158.80,47.66 158.86,49.56 158.91,51.45 158.94,52.92 158.97,54.40 158.95,55.53 158.93,56.67 158.87,58.20 158.81,59.72 158.61,61.84 158.42,63.95 158.25,65.16 158.08,66.38 157.85,67.48 157.62,68.59 156.97,70.64 156.31,72.69 155.94,74.44 155.56,76.19 154.76,78.24 153.96,80.28 153.30,82.08 152.64,83.87 152.04,85.58 151.44,87.29 151.08,88.29 150.73,89.30 149.94,91.16 149.15,93.02 148.71,94.14 148.27,95.26 147.60,97.17 146.93,99.08 146.47,100.34 146.00,101.59 145.25,103.11 144.50,104.63 143.53,106.43 142.56,108.22 141.94,109.33 141.32,110.44 140.26,112.26 139.20,114.08 138.57,115.09 137.94,116.09 136.83,117.62 135.71,119.14 134.75,120.57 133.79,121.99 133.06,122.87 132.33,123.75 131.14,125.01 129.95,126.27 128.54,127.56 127.12,128.85 125.33,130.23 123.55,131.62 122.06,132.62 120.58,133.61 119.67,134.24 118.77,134.87 117.34,135.85 115.91,136.82 114.03,137.91 112.16,139.01 110.55,139.93 108.95,140.85 107.43,141.57 105.92,142.29 104.90,142.88 103.87,143.48 102.21,144.16 100.54,144.84 99.13,145.48 97.72,146.11 96.48,146.63 95.24,147.14 93.92,147.64 92.59,148.15 91.30,148.59 90.00,149.04 88.13,149.58 86.26,150.12 84.60,150.41 82.95,150.71 80.95,150.92 78.95,151.13 77.55,151.14 76.14,151.16 73.97,151.18 71.80,151.20 70.38,151.15 68.95,151.11 67.32,151.02 65.69,150.92 63.64,150.82 61.60,150.72 60.50,150.57 59.41,150.41 57.94,150.17 56.47,149.92 55.26,149.67 54.05,149.42 51.72,148.84 49.39,148.26 47.13,147.42 44.86,146.58 43.57,146.12 42.28,145.66 41.08,145.18 39.89,144.70 38.45,144.06 37.00,143.41 34.81,142.37 32.62,141.34 30.45,140.24 28.29,139.15 27.35,138.62 26.41,138.09 25.05,137.37 23.68,136.64 22.59,135.99 21.50,135.35 20.39,134.66 19.28,133.98 17.86,133.10 16.44,132.22 15.26,131.36 14.07,130.51 12.99,129.54 11.91,128.57 10.72,127.43 9.52,126.29 7.77,124.59 6.01,122.89 5.06,121.93 4.12,120.98 3.09,119.76 2.07,118.54 0.50,116.51 -1.07,114.47 -1.95,113.32 -2.83,112.16 -3.50,111.22 -4.16,110.27 -4.83,109.26 -5.50,108.24 -6.61,106.66 -7.72,105.07 -8.43,103.90 -9.14,102.73 -9.98,101.23 -10.83,99.72 -11.54,98.30 -12.26,96.87 -13.11,95.10 -13.95,93.33 -14.83,91.60 -15.70,89.86 -16.28,88.55 -16.86,87.24 -17.43,85.92 -18.00,84.61 -18.75,82.79 -19.50,80.97 -20.05,79.42 -20.61,77.86 -21.03,76.18 -21.45,74.50 -21.79,72.41 -22.12,70.32 -22.29,68.80 -22.46,67.28 -22.67,65.52 -22.89,63.76 -22.97,62.09 -23.05,60.42 -23.03,58.39 -23.02,56.36 -22.99,54.77 -22.96,53.17 -22.89,51.54 -22.82,49.92 -22.66,47.89 -22.50,45.87 -22.33,43.99 -22.16,42.10 -21.97,40.48 -21.78,38.86 -21.44,36.79 -21.10,34.72 -20.52,32.33 -19.94,29.94 -19.13,27.31 -18.32,24.67 -17.37,21.66 -16.43,18.65 -15.80,17.27 -15.17,15.90 -14.56,14.59 -13.95,13.27 -13.20,11.87 -12.44,10.47 -11.49,9.13 -10.55,7.80 -9.56,6.46 -8.58,5.12 -6.98,3.08 -5.38,1.04 -3.26,-0.05 -1.14,-1.14 -0.98,-1.26 -0.83,-1.38 -0.65,-1.46 -0.48,-1.54 -0.28,-1.57 -0.09,-1.61 0.09,-1.60 0.29,-1.58 0.47,-1.53 0.66,-1.47 0.83,-1.37 0.99,-1.27 1.13,-1.13 1.27,-0.99 1.37,-0.83 1.47,-0.66 1.53,-0.47 1.58,-0.29 1.60,-0.09 1.61,0.09 1.57,0.28 1.54,0.48 1.46,0.65 1.38,0.83 1.26,0.98 1.14,1.14 1.14,1.14 L 1.14,1.14 Z"></path></g><g transform="translate(418.33189263138377 187.81881159137993) rotate(0 16.513337279429606 3.743497849577352)" stroke="none"><path fill="currentColor" d="M -0.49,-1.58 Q -0.49,-1.58 0.17,-2.39 0.84,-3.20 2.30,-2.98 3.76,-2.76 4.96,-2.32 6.16,-1.88 7.62,-1.14 9.09,-0.40 10.48,0.54 11.88,1.50 13.23,2.44 14.58,3.38 16.11,4.60 17.64,5.82 19.12,7.09 20.61,8.37 22.05,9.39 23.49,10.41 24.62,11.22 25.74,12.03 27.52,13.02 29.29,14.01 30.35,14.80 31.40,15.58 29.62,17.08 27.84,18.57 27.29,17.55 26.75,16.53 26.70,15.02 26.64,13.50 26.90,11.47 27.15,9.44 27.64,7.66 28.13,5.87 28.66,4.33 29.19,2.79 27.38,2.01 25.57,1.23 23.72,0.12 21.87,-0.98 20.27,-2.05 18.68,-3.11 16.78,-4.10 14.89,-5.09 13.48,-5.60 12.08,-6.10 10.98,-6.40 9.88,-6.70 8.71,-6.93 7.54,-7.16 6.00,-7.30 4.46,-7.43 3.33,-7.54 2.20,-7.65 0.89,-8.02 -0.41,-8.38 1.15,-8.99 2.72,-9.59 2.09,-7.22 1.46,-4.85 1.42,-4.64 1.38,-4.43 1.27,-4.24 1.17,-4.06 1.01,-3.92 0.85,-3.78 0.65,-3.69 0.46,-3.61 0.25,-3.59 0.03,-3.58 -0.16,-3.63 -0.37,-3.68 -0.55,-3.80 -0.73,-3.91 -0.86,-4.08 -0.99,-4.24 -1.06,-4.44 -1.14,-4.64 -1.14,-4.86 -1.15,-5.07 -1.08,-5.27 -1.02,-5.47 -0.89,-5.65 -0.77,-5.82 -0.60,-5.94 -0.42,-6.07 -0.22,-6.13 -0.02,-6.19 0.19,-6.18 0.40,-6.18 0.60,-6.10 0.80,-6.03 0.96,-5.89 1.13,-5.76 1.24,-5.58 1.35,-5.40 1.40,-5.19 1.45,-4.99 1.44,-4.78 1.42,-4.57 1.33,-4.37 1.25,-4.18 1.11,-4.02 0.96,-3.86 0.78,-3.76 0.59,-3.65 0.38,-3.61 0.18,-3.57 -0.02,-3.60 -0.24,-3.63 -0.42,-3.73 -0.61,-3.82 -0.76,-3.97 -0.91,-4.12 -1.01,-4.32 -1.10,-4.51 -1.13,-4.72 -1.16,-4.93 -1.16,-4.93 -1.16,-4.93 -1.11,-8.58 -1.05,-12.22 -1.25,-13.30 -1.45,-14.38 1.22,-14.72 3.89,-15.07 5.50,-14.91 7.11,-14.74 8.72,-14.50 10.33,-14.26 11.81,-13.88 13.30,-13.51 14.70,-13.04 16.10,-12.56 17.14,-12.13 18.18,-11.69 19.45,-11.03 20.72,-10.36 21.74,-9.74 22.76,-9.11 24.18,-8.12 25.59,-7.13 27.46,-5.99 29.33,-4.86 31.43,-3.41 33.53,-1.95 34.51,-1.02 35.50,-0.09 35.99,1.58 36.49,3.27 36.08,4.34 35.68,5.42 35.27,6.60 34.86,7.78 34.47,9.09 34.08,10.39 33.86,11.86 33.64,13.32 33.74,15.06 33.84,16.80 33.70,18.25 33.57,19.70 31.91,20.97 30.25,22.25 29.13,21.95 28.01,21.64 27.03,20.83 26.04,20.01 25.05,19.47 24.05,18.94 22.89,18.24 21.73,17.55 20.61,16.73 19.49,15.91 17.84,14.68 16.20,13.45 14.79,12.21 13.38,10.97 12.07,9.85 10.76,8.73 9.40,7.73 8.03,6.73 7.02,5.92 6.01,5.10 4.98,4.45 3.95,3.80 2.90,3.08 1.85,2.35 1.17,1.96 0.49,1.58 0.29,1.61 0.10,1.65 -0.09,1.64 -0.29,1.62 -0.48,1.57 -0.67,1.51 -0.84,1.40 -1.02,1.30 -1.16,1.16 -1.30,1.02 -1.40,0.85 -1.51,0.68 -1.56,0.49 -1.62,0.29 -1.64,0.10 -1.65,-0.09 -1.61,-0.29 -1.58,-0.49 -1.50,-0.67 -1.41,-0.85 -1.29,-1.01 -1.17,-1.17 -1.01,-1.29 -0.85,-1.41 -0.67,-1.49 -0.49,-1.58 -0.49,-1.58 L -0.49,-1.58 Z"></path></g><g transform="translate(533.2646522037509 486.56084907211607) rotate(0 12.329965702689947 -11.010151644886719)" stroke="none"><path fill="currentColor" d="M -0.68,-1.37 Q -0.68,-1.37 0.12,-2.48 0.93,-3.59 1.86,-4.34 2.78,-5.08 4.32,-6.18 5.86,-7.29 7.31,-8.41 8.77,-9.54 9.75,-10.71 10.73,-11.87 11.31,-12.85 11.90,-13.82 12.85,-15.34 13.80,-16.86 15.12,-18.08 16.45,-19.30 17.54,-20.09 18.63,-20.87 19.59,-21.44 20.54,-22.02 21.89,-22.29 23.24,-22.56 23.36,-22.67 23.47,-22.78 23.60,-22.86 23.74,-22.94 23.89,-22.99 24.04,-23.04 24.20,-23.05 24.36,-23.05 24.51,-23.02 24.67,-22.99 24.81,-22.93 24.96,-22.86 25.08,-22.76 25.21,-22.66 25.30,-22.54 25.40,-22.41 25.46,-22.27 25.53,-22.12 25.55,-21.97 25.58,-21.81 25.57,-21.65 25.56,-21.50 25.51,-21.35 25.46,-21.20 25.38,-21.06 25.30,-20.93 24.81,-20.68 24.33,-20.43 24.12,-20.46 23.91,-20.48 23.72,-20.57 23.52,-20.66 23.37,-20.81 23.22,-20.96 23.12,-21.15 23.02,-21.34 22.99,-21.55 22.96,-21.75 22.99,-21.96 23.03,-22.17 23.13,-22.36 23.23,-22.55 23.39,-22.69 23.54,-22.84 23.74,-22.92 23.93,-23.01 24.14,-23.03 24.35,-23.05 24.56,-23.01 24.77,-22.96 24.95,-22.85 25.13,-22.74 25.27,-22.57 25.40,-22.41 25.48,-22.21 25.56,-22.01 25.56,-21.80 25.57,-21.59 25.52,-21.39 25.46,-21.18 25.34,-21.01 25.22,-20.83 25.04,-20.70 24.87,-20.58 24.67,-20.51 24.47,-20.45 24.26,-20.45 24.05,-20.45 23.84,-20.52 23.64,-20.59 23.48,-20.72 23.31,-20.85 23.19,-21.03 23.07,-21.20 23.02,-21.41 22.96,-21.61 22.98,-21.83 22.99,-22.04 23.07,-22.23 23.15,-22.43 23.29,-22.59 23.43,-22.75 23.61,-22.86 23.80,-22.97 23.52,-22.76 23.24,-22.56 23.36,-22.67 23.47,-22.78 23.60,-22.86 23.74,-22.94 23.89,-22.99 24.04,-23.04 24.20,-23.05 24.36,-23.05 24.51,-23.02 24.67,-22.99 24.81,-22.93 24.96,-22.86 25.08,-22.76 25.21,-22.66 25.30,-22.54 25.40,-22.41 25.46,-22.27 25.53,-22.12 25.55,-21.97 25.58,-21.81 25.57,-21.65 25.56,-21.50 25.51,-21.35 25.46,-21.20 25.38,-21.06 25.30,-20.93 24.77,-18.79 24.25,-16.65 22.96,-15.84 21.67,-15.03 20.37,-14.09 19.07,-13.15 18.13,-11.84 17.19,-10.52 16.41,-9.30 15.62,-8.08 14.07,-6.50 12.51,-4.93 10.82,-3.70 9.13,-2.48 7.65,-1.44 6.16,-0.40 4.81,0.50 3.45,1.40 2.07,1.39 0.68,1.37 0.51,1.44 0.33,1.50 0.15,1.52 -0.03,1.54 -0.21,1.51 -0.39,1.49 -0.57,1.42 -0.74,1.35 -0.89,1.24 -1.04,1.13 -1.16,0.99 -1.28,0.85 -1.36,0.68 -1.45,0.51 -1.49,0.33 -1.53,0.15 -1.53,-0.03 -1.52,-0.21 -1.47,-0.39 -1.43,-0.57 -1.34,-0.73 -1.25,-0.90 -1.12,-1.03 -1.00,-1.17 -0.84,-1.27 -0.68,-1.37 -0.68,-1.37 L -0.68,-1.37 Z"></path></g><g transform="translate(803.4079997251841 12.202544295307234) rotate(0 -1.501536246993055 190.81851045914345)" stroke="none"><path fill="currentColor" d="M -0.10,1.95 Q -0.10,1.95 -4.62,2.49 -9.15,3.03 -18.04,3.74 -26.94,4.44 -35.10,5.57 -43.27,6.71 -56.92,10.83 -70.57,14.95 -81.43,19.10 -92.28,23.24 -101.05,27.55 -109.82,31.85 -117.07,36.69 -124.33,41.54 -132.99,49.73 -141.66,57.92 -149.36,68.63 -157.05,79.34 -162.76,92.02 -168.48,104.71 -171.65,114.37 -174.83,124.03 -176.67,132.34 -178.51,140.66 -179.63,152.27 -180.74,163.87 -181.23,173.88 -181.71,183.88 -181.80,193.57 -181.89,203.25 -181.30,211.79 -180.71,220.33 -177.64,232.73 -174.57,245.13 -171.38,254.77 -168.20,264.41 -164.40,272.06 -160.60,279.70 -156.28,286.57 -151.95,293.44 -143.55,303.53 -135.15,313.63 -128.18,321.15 -121.22,328.68 -115.28,334.29 -109.33,339.90 -103.45,344.18 -97.56,348.47 -87.58,353.59 -77.60,358.72 -70.19,362.27 -62.78,365.81 -56.72,368.32 -50.65,370.83 -41.85,373.10 -33.04,375.36 -22.70,376.66 -12.35,377.96 0.16,377.85 12.69,377.74 21.27,377.06 29.85,376.39 36.60,375.42 43.35,374.45 51.23,372.36 59.11,370.26 65.19,367.97 71.27,365.68 79.98,361.42 88.69,357.16 95.01,353.33 101.34,349.50 108.88,342.75 116.42,336.00 121.63,330.35 126.84,324.71 130.93,319.69 135.02,314.68 139.35,308.09 143.69,301.50 147.09,294.98 150.49,288.46 154.04,281.50 157.59,274.53 162.16,264.17 166.74,253.81 169.58,246.09 172.42,238.36 174.37,228.57 176.32,218.77 177.27,211.18 178.22,203.58 178.04,190.01 177.86,176.45 176.71,163.41 175.57,150.36 174.38,141.92 173.20,133.48 170.84,125.15 168.47,116.82 166.27,110.46 164.07,104.11 159.09,94.74 154.11,85.37 150.08,78.92 146.05,72.48 140.98,66.19 135.91,59.91 131.96,55.73 128.01,51.54 122.43,46.55 116.85,41.57 112.34,37.77 107.84,33.97 101.53,29.77 95.23,25.58 85.75,20.62 76.27,15.67 69.47,12.72 62.68,9.76 56.74,7.99 50.80,6.21 42.02,4.97 33.24,3.73 24.89,3.19 16.53,2.65 6.70,3.45 -3.13,4.24 -9.64,5.26 -16.15,6.27 -22.31,8.21 -28.46,10.15 -32.73,12.87 -36.99,15.60 -38.95,17.07 -40.91,18.54 -41.08,18.66 -41.26,18.77 -41.47,18.83 -41.67,18.88 -41.88,18.87 -42.10,18.85 -42.29,18.77 -42.49,18.69 -42.65,18.55 -42.81,18.41 -42.92,18.23 -43.02,18.05 -43.07,17.84 -43.11,17.63 -43.08,17.42 -43.06,17.21 -42.97,17.02 -42.88,16.82 -42.73,16.67 -42.58,16.52 -42.39,16.42 -42.20,16.32 -41.99,16.29 -41.78,16.26 -41.57,16.30 -41.36,16.34 -41.18,16.44 -40.99,16.54 -40.85,16.70 -40.70,16.85 -40.61,17.05 -40.53,17.24 -40.51,17.45 -40.49,17.66 -40.54,17.87 -40.58,18.08 -40.70,18.26 -40.81,18.44 -40.97,18.57 -41.13,18.71 -41.33,18.78 -41.53,18.86 -41.74,18.87 -41.96,18.88 -42.16,18.82 -42.36,18.76 -42.54,18.64 -42.71,18.52 -42.84,18.35 -42.97,18.18 -43.03,17.97 -43.10,17.77 -43.09,17.56 -43.09,17.35 -43.02,17.15 -42.95,16.94 -42.82,16.78 -42.69,16.61 -42.69,16.61 -42.69,16.61 -41.07,14.77 -39.45,12.94 -35.30,7.89 -31.15,2.84 -24.27,0.56 -17.40,-1.71 -10.58,-2.76 -3.77,-3.81 6.63,-4.61 17.05,-5.41 25.72,-4.84 34.40,-4.27 43.76,-2.89 53.12,-1.52 59.51,0.41 65.90,2.35 72.96,5.43 80.02,8.51 89.86,13.69 99.70,18.88 106.36,23.36 113.01,27.84 117.61,31.72 122.20,35.61 128.01,40.85 133.81,46.08 137.96,50.52 142.10,54.95 147.42,61.63 152.74,68.30 156.91,75.02 161.07,81.73 166.16,91.67 171.25,101.62 173.51,108.20 175.77,114.77 178.21,123.60 180.65,132.44 181.84,141.07 183.02,149.71 184.20,163.03 185.38,176.36 185.51,190.44 185.65,204.51 184.65,212.38 183.64,220.25 181.53,230.59 179.42,240.92 176.49,248.87 173.56,256.83 168.90,267.37 164.23,277.91 160.67,284.92 157.11,291.92 153.53,298.75 149.95,305.59 145.45,312.55 140.94,319.51 136.70,324.70 132.46,329.90 126.99,335.81 121.52,341.72 113.43,348.89 105.33,356.06 98.70,360.06 92.07,364.07 83.02,368.48 73.98,372.90 67.53,375.31 61.08,377.72 52.76,379.91 44.44,382.10 37.45,383.10 30.46,384.09 21.61,384.79 12.76,385.48 -0.28,385.61 -13.33,385.74 -24.17,384.34 -35.00,382.95 -44.32,380.52 -53.65,378.08 -59.91,375.48 -66.17,372.89 -73.68,369.29 -81.20,365.69 -91.69,360.26 -102.18,354.82 -108.46,350.22 -114.73,345.62 -120.86,339.82 -127.00,334.02 -134.10,326.34 -141.20,318.66 -149.91,308.15 -158.62,297.63 -163.14,290.42 -167.66,283.20 -171.67,275.04 -175.68,266.89 -178.96,256.95 -182.24,247.02 -185.42,233.95 -188.61,220.89 -189.21,212.03 -189.81,203.18 -189.71,193.34 -189.61,183.50 -189.12,173.30 -188.62,163.11 -187.43,151.02 -186.23,138.94 -184.27,130.25 -182.30,121.56 -178.96,111.52 -175.62,101.47 -169.52,88.12 -163.42,74.77 -155.23,63.50 -147.04,52.23 -137.84,43.66 -128.64,35.08 -120.93,29.99 -113.23,24.90 -104.13,20.47 -95.03,16.03 -83.90,11.81 -72.77,7.58 -58.53,3.39 -44.29,-0.79 -35.86,-1.89 -27.42,-2.99 -18.11,-3.47 -8.80,-3.95 -4.35,-2.95 0.10,-1.95 0.33,-1.91 0.56,-1.87 0.77,-1.77 0.99,-1.68 1.18,-1.53 1.36,-1.39 1.51,-1.21 1.66,-1.02 1.76,-0.81 1.86,-0.59 1.90,-0.36 1.94,-0.13 1.93,0.09 1.92,0.33 1.85,0.56 1.78,0.78 1.66,0.98 1.54,1.19 1.38,1.35 1.21,1.52 1.01,1.65 0.81,1.77 0.59,1.84 0.36,1.91 0.13,1.93 -0.10,1.95 -0.10,1.95 L -0.10,1.95 Z"></path></g><g transform="translate(790.3946680464425 451.30523072197) rotate(0 -117.32102475686281 37.34281211773805)" stroke="none"><path fill="currentColor" d="M 1.54,0.68 Q 1.54,0.68 1.23,3.65 0.92,6.62 -2.19,11.37 -5.30,16.13 -8.25,19.92 -11.21,23.71 -14.55,27.26 -17.89,30.81 -22.04,34.17 -26.18,37.53 -30.36,40.76 -34.55,43.99 -42.01,48.18 -49.47,52.37 -59.47,56.22 -69.46,60.07 -81.40,63.22 -93.35,66.37 -102.79,68.44 -112.23,70.52 -120.57,72.16 -128.91,73.79 -139.05,75.19 -149.19,76.60 -156.17,77.14 -163.14,77.69 -168.71,77.34 -174.27,77.00 -181.84,75.00 -189.42,73.01 -195.48,70.95 -201.55,68.88 -206.77,66.37 -211.99,63.86 -216.51,61.20 -221.02,58.55 -225.18,55.92 -229.33,53.30 -231.51,51.79 -233.69,50.29 -234.95,47.33 -236.21,44.36 -234.31,42.95 -232.41,41.54 -232.27,41.37 -232.14,41.21 -231.96,41.10 -231.78,40.99 -231.57,40.94 -231.36,40.89 -231.15,40.91 -230.94,40.93 -230.75,41.02 -230.55,41.10 -230.40,41.25 -230.24,41.39 -230.14,41.58 -230.04,41.77 -230.00,41.98 -229.96,42.18 -230.00,42.39 -230.03,42.60 -230.12,42.79 -230.22,42.98 -230.37,43.13 -230.53,43.28 -230.72,43.37 -230.91,43.46 -231.12,43.49 -231.33,43.51 -231.54,43.47 -231.75,43.43 -231.93,43.32 -232.11,43.21 -232.25,43.05 -232.39,42.89 -232.47,42.70 -232.56,42.50 -232.57,42.29 -232.58,42.07 -232.53,41.87 -232.48,41.66 -232.36,41.49 -232.24,41.31 -232.07,41.18 -231.91,41.05 -231.71,40.98 -231.50,40.91 -231.29,40.91 -231.08,40.90 -230.88,40.97 -230.68,41.03 -230.50,41.16 -230.33,41.29 -230.21,41.46 -230.09,41.64 -230.03,41.84 -229.97,42.04 -229.98,42.26 -229.99,42.47 -230.07,42.67 -230.14,42.86 -230.14,42.86 -230.14,42.86 -230.26,44.89 -230.37,46.92 -229.80,45.30 -229.24,43.68 -227.12,45.08 -225.01,46.47 -220.96,49.03 -216.92,51.59 -212.70,54.10 -208.48,56.60 -203.70,58.93 -198.93,61.26 -193.13,63.25 -187.33,65.25 -180.52,67.12 -173.71,69.00 -168.73,69.35 -163.75,69.71 -157.01,69.19 -150.28,68.68 -140.36,67.33 -130.44,65.97 -122.19,64.36 -113.93,62.75 -104.65,60.72 -95.36,58.68 -83.81,55.68 -72.27,52.68 -62.76,49.09 -53.25,45.51 -46.24,41.69 -39.23,37.87 -35.09,34.72 -30.95,31.57 -27.15,28.58 -23.35,25.59 -20.21,22.34 -17.06,19.09 -14.22,15.54 -11.38,11.99 -8.45,7.86 -5.52,3.73 -3.53,1.52 -1.54,-0.68 -1.43,-0.85 -1.33,-1.03 -1.18,-1.17 -1.04,-1.32 -0.87,-1.42 -0.69,-1.53 -0.50,-1.59 -0.31,-1.65 -0.10,-1.67 0.09,-1.68 0.29,-1.64 0.49,-1.61 0.67,-1.52 0.86,-1.44 1.02,-1.32 1.18,-1.19 1.31,-1.03 1.43,-0.87 1.52,-0.69 1.60,-0.50 1.64,-0.30 1.68,-0.10 1.67,0.09 1.66,0.29 1.60,0.49 1.54,0.68 1.54,0.68 L 1.54,0.68 Z"></path></g><g transform="translate(795.5999165348884 389.8349774871499) rotate(0 -5.1052285012169705 179.40539334725167)" stroke="none"><path fill="currentColor" d="M 1.80,0.05 Q 1.80,0.05 2.28,1.97 2.76,3.88 2.76,5.25 2.76,6.61 2.77,7.76 2.78,8.91 2.73,10.16 2.69,11.41 2.60,14.04 2.51,16.67 2.32,19.72 2.13,22.77 1.68,27.35 1.22,31.93 0.92,37.05 0.61,42.17 0.49,48.29 0.36,54.40 0.14,62.00 -0.07,69.59 -0.39,77.49 -0.72,85.39 -1.04,90.73 -1.35,96.07 -1.48,100.40 -1.61,104.74 -1.78,110.92 -1.95,117.10 -2.37,125.12 -2.78,133.14 -3.30,141.90 -3.82,150.66 -4.16,158.78 -4.49,166.89 -4.64,174.41 -4.78,181.92 -4.84,189.60 -4.91,197.28 -4.93,204.75 -4.96,212.21 -4.97,219.36 -4.99,226.50 -4.99,233.63 -5.00,240.75 -5.00,245.74 -5.01,250.72 -5.01,254.39 -5.01,258.07 -5.00,263.02 -4.99,267.98 -4.99,271.99 -4.99,276.00 -4.99,279.54 -4.99,283.08 -4.87,286.08 -4.76,289.08 -4.71,292.95 -4.66,296.83 -4.64,299.50 -4.62,302.18 -4.61,304.47 -4.60,306.76 -4.60,310.10 -4.60,313.43 -4.60,316.00 -4.60,318.57 -4.65,321.59 -4.71,324.62 -4.74,326.51 -4.76,328.40 -4.77,330.52 -4.78,332.64 -4.79,335.39 -4.80,338.13 -4.69,340.84 -4.57,343.55 -4.53,345.62 -4.48,347.69 -4.46,350.03 -4.44,352.36 -4.43,353.69 -4.42,355.02 -7.19,357.67 -9.97,360.31 -10.18,360.28 -10.39,360.26 -10.58,360.16 -10.77,360.06 -10.92,359.91 -11.06,359.76 -11.16,359.57 -11.25,359.38 -11.28,359.17 -11.31,358.96 -11.27,358.75 -11.23,358.54 -11.12,358.36 -11.01,358.17 -10.86,358.03 -10.70,357.89 -10.50,357.81 -10.31,357.73 -10.09,357.71 -9.88,357.69 -9.68,357.74 -9.47,357.80 -9.29,357.91 -9.11,358.03 -8.98,358.19 -8.85,358.36 -8.78,358.56 -8.70,358.76 -8.70,358.97 -8.69,359.18 -8.76,359.39 -8.82,359.59 -8.95,359.76 -9.07,359.93 -9.24,360.06 -9.42,360.18 -9.62,360.24 -9.82,360.30 -10.04,360.30 -10.25,360.29 -10.45,360.22 -10.65,360.14 -10.81,360.01 -10.98,359.87 -11.09,359.69 -11.20,359.51 -11.25,359.31 -11.30,359.10 -11.29,358.89 -11.27,358.68 -11.18,358.48 -11.10,358.29 -10.96,358.13 -10.81,357.97 -10.63,357.87 -10.44,357.77 -10.23,357.73 -10.02,357.69 -10.02,357.69 -10.02,357.69 -10.62,356.38 -11.21,355.07 -11.22,353.74 -11.23,352.42 -11.25,350.14 -11.27,347.85 -11.32,345.84 -11.37,343.82 -11.48,340.97 -11.60,338.12 -11.60,335.36 -11.59,332.61 -11.58,330.46 -11.57,328.32 -11.55,326.40 -11.53,324.49 -11.47,321.53 -11.41,318.57 -11.42,316.01 -11.42,313.44 -11.42,310.11 -11.43,306.79 -11.44,304.51 -11.45,302.23 -11.47,299.57 -11.49,296.92 -11.54,293.13 -11.59,289.33 -11.70,286.21 -11.82,283.08 -11.82,279.54 -11.82,275.99 -11.82,271.99 -11.82,267.98 -11.81,263.02 -11.79,258.07 -11.79,254.39 -11.79,250.72 -11.79,245.73 -11.79,240.75 -11.79,233.62 -11.79,226.49 -11.78,219.34 -11.77,212.19 -11.75,204.71 -11.72,197.23 -11.66,189.51 -11.60,181.79 -11.46,174.20 -11.31,166.61 -10.98,158.43 -10.64,150.25 -10.11,141.52 -9.59,132.78 -9.17,124.85 -8.74,116.91 -8.57,110.72 -8.40,104.54 -8.26,100.10 -8.13,95.67 -7.82,90.39 -7.51,85.11 -7.18,77.25 -6.85,69.38 -6.60,61.82 -6.36,54.25 -6.20,48.00 -6.05,41.75 -5.70,36.48 -5.35,31.20 -4.81,26.74 -4.27,22.29 -4.00,19.25 -3.74,16.21 -3.52,13.66 -3.30,11.10 -3.23,9.98 -3.15,8.86 -3.12,7.68 -3.09,6.51 -3.04,5.11 -2.99,3.71 -2.39,1.82 -1.80,-0.05 -1.77,-0.26 -1.73,-0.48 -1.65,-0.68 -1.57,-0.88 -1.44,-1.06 -1.31,-1.23 -1.14,-1.37 -0.97,-1.51 -0.78,-1.61 -0.58,-1.70 -0.37,-1.75 -0.16,-1.79 0.05,-1.79 0.27,-1.78 0.48,-1.72 0.69,-1.66 0.88,-1.55 1.06,-1.45 1.22,-1.30 1.38,-1.15 1.50,-0.97 1.62,-0.78 1.69,-0.58 1.76,-0.37 1.78,-0.16 1.80,0.05 1.80,0.05 L 1.80,0.05 Z"></path></g><g transform="translate(457.2051265667809 215.68452659815466) rotate(0 0.41082870462651044 0)" stroke="none"><path fill="currentColor" d="M 0.82,-3.00 Q 0.82,-3.00 1.30,-2.92 1.78,-2.84 2.21,-2.62 2.64,-2.39 2.97,-2.03 3.30,-1.68 3.51,-1.24 3.71,-0.80 3.76,-0.32 3.82,0.16 3.71,0.63 3.61,1.11 3.36,1.52 3.11,1.94 2.74,2.26 2.37,2.57 1.91,2.75 1.46,2.93 0.98,2.96 0.49,2.98 0.02,2.85 -0.44,2.72 -0.84,2.45 -1.24,2.18 -1.53,1.79 -1.83,1.40 -1.98,0.94 -2.14,0.48 -2.14,-0.00 -2.14,-0.48 -1.98,-0.94 -1.83,-1.40 -1.53,-1.79 -1.24,-2.18 -0.84,-2.45 -0.43,-2.72 0.02,-2.85 0.49,-2.98 0.98,-2.96 1.46,-2.93 1.91,-2.75 2.37,-2.57 2.74,-2.25 3.11,-1.94 3.36,-1.52 3.61,-1.11 3.71,-0.63 3.82,-0.16 3.76,0.32 3.71,0.80 3.51,1.24 3.30,1.68 2.97,2.04 2.63,2.39 2.21,2.62 1.78,2.84 1.30,2.92 0.82,3.00 0.82,3.00 0.82,3.00 0.45,3.05 0.07,3.11 -0.29,3.07 -0.66,3.04 -1.02,2.91 -1.37,2.79 -1.69,2.58 -2.00,2.38 -2.26,2.10 -2.51,1.83 -2.70,1.50 -2.88,1.17 -2.98,0.81 -3.08,0.45 -3.09,0.07 -3.10,-0.29 -3.02,-0.66 -2.93,-1.03 -2.77,-1.36 -2.60,-1.70 -2.36,-1.99 -2.12,-2.27 -1.82,-2.50 -1.51,-2.72 -1.16,-2.86 -0.82,-3.00 0.00,-3.00 L 0.82,-3.00 Z"></path></g><g transform="translate(600.5810785808329 190.41638849503124) rotate(0 -21.054505518841324 7.395564465217831)" stroke="none"><path fill="currentColor" d="M 0.57,1.53 Q 0.57,1.53 -0.84,2.60 -2.26,3.66 -3.80,4.22 -5.35,4.77 -7.31,5.48 -9.28,6.19 -12.60,7.34 -15.92,8.50 -18.84,9.56 -21.75,10.62 -25.40,12.02 -29.05,13.42 -31.99,14.32 -34.94,15.23 -36.59,15.43 -38.23,15.64 -39.91,15.81 -41.58,15.99 -41.79,16.04 -41.99,16.09 -42.20,16.08 -42.42,16.06 -42.61,15.98 -42.81,15.90 -42.97,15.75 -43.12,15.61 -43.23,15.43 -43.34,15.24 -43.38,15.04 -43.42,14.83 -43.39,14.62 -43.36,14.41 -43.27,14.21 -43.17,14.02 -43.02,13.87 -42.87,13.72 -42.68,13.63 -42.49,13.53 -42.28,13.50 -42.07,13.47 -41.86,13.51 -41.66,13.55 -41.47,13.66 -41.28,13.76 -41.14,13.92 -41.00,14.07 -40.92,14.27 -40.83,14.46 -40.81,14.68 -40.79,14.89 -40.85,15.09 -40.90,15.30 -41.01,15.48 -41.12,15.66 -41.29,15.79 -41.45,15.93 -41.65,16.00 -41.85,16.08 -42.06,16.08 -42.28,16.09 -42.48,16.03 -42.68,15.96 -42.86,15.84 -43.03,15.72 -43.15,15.55 -43.28,15.37 -43.34,15.17 -43.40,14.97 -43.40,14.76 -43.39,14.54 -43.32,14.34 -43.25,14.14 -43.12,13.98 -42.98,13.81 -42.81,13.70 -42.63,13.58 -42.63,13.58 -42.63,13.58 -41.04,12.34 -39.45,11.10 -38.08,10.50 -36.70,9.90 -33.92,8.90 -31.15,7.91 -27.44,6.52 -23.74,5.12 -20.76,4.05 -17.77,2.98 -14.43,1.91 -11.10,0.83 -9.07,0.18 -7.04,-0.46 -5.57,-0.88 -4.11,-1.30 -2.34,-1.42 -0.57,-1.53 -0.37,-1.58 -0.18,-1.63 0.01,-1.62 0.21,-1.62 0.40,-1.57 0.59,-1.53 0.76,-1.43 0.94,-1.34 1.09,-1.21 1.23,-1.07 1.34,-0.91 1.45,-0.75 1.52,-0.56 1.59,-0.38 1.61,-0.18 1.64,0.01 1.61,0.20 1.59,0.40 1.51,0.58 1.44,0.77 1.33,0.93 1.22,1.09 1.07,1.22 0.92,1.35 0.74,1.44 0.57,1.53 0.57,1.53 L 0.57,1.53 Z"></path></g><g transform="translate(532.7958807995595 215.06827004575825) rotate(0 -16.124669026979404 5.752141683055015)" stroke="none"><path fill="currentColor" d="M 0.79,1.38 Q 0.79,1.38 -0.19,2.54 -1.17,3.70 -2.16,4.32 -3.15,4.95 -4.18,5.43 -5.22,5.90 -6.25,6.34 -7.28,6.79 -8.44,7.23 -9.61,7.68 -11.20,8.12 -12.79,8.57 -15.63,9.55 -18.47,10.52 -20.72,11.40 -22.97,12.27 -25.16,12.82 -27.35,13.37 -29.66,13.08 -31.97,12.78 -32.19,12.79 -32.40,12.80 -32.60,12.74 -32.81,12.69 -32.98,12.57 -33.16,12.44 -33.28,12.27 -33.41,12.10 -33.48,11.90 -33.54,11.70 -33.54,11.49 -33.54,11.28 -33.47,11.07 -33.40,10.87 -33.27,10.71 -33.14,10.54 -32.96,10.42 -32.79,10.30 -32.58,10.25 -32.37,10.19 -32.16,10.21 -31.95,10.22 -31.75,10.30 -31.56,10.38 -31.40,10.52 -31.24,10.66 -31.13,10.84 -31.02,11.02 -30.98,11.23 -30.93,11.44 -30.96,11.65 -30.98,11.86 -31.07,12.05 -31.16,12.25 -31.31,12.40 -31.46,12.55 -31.65,12.65 -31.84,12.75 -32.05,12.78 -32.26,12.81 -32.47,12.78 -32.67,12.74 -32.86,12.64 -33.05,12.54 -33.19,12.38 -33.34,12.23 -33.43,12.03 -33.51,11.84 -33.53,11.63 -33.56,11.42 -33.51,11.21 -33.46,11.00 -33.35,10.82 -33.24,10.64 -33.07,10.50 -32.91,10.37 -32.71,10.29 -32.51,10.21 -32.52,10.21 -32.52,10.21 -30.77,9.01 -29.03,7.80 -27.14,7.12 -25.24,6.43 -22.86,5.51 -20.49,4.59 -17.46,3.57 -14.43,2.54 -13.04,2.18 -11.64,1.82 -10.51,1.46 -9.39,1.11 -7.59,0.57 -5.80,0.02 -4.79,-0.41 -3.78,-0.86 -2.28,-1.12 -0.79,-1.38 -0.61,-1.45 -0.43,-1.53 -0.24,-1.56 -0.05,-1.59 0.13,-1.57 0.32,-1.56 0.50,-1.50 0.69,-1.43 0.85,-1.33 1.01,-1.23 1.14,-1.09 1.27,-0.95 1.37,-0.78 1.47,-0.61 1.52,-0.43 1.57,-0.24 1.58,-0.05 1.58,0.13 1.55,0.32 1.51,0.51 1.42,0.68 1.34,0.85 1.22,1.00 1.10,1.15 0.94,1.27 0.79,1.38 0.79,1.38 L 0.79,1.38 Z"></path></g><g transform="translate(455.35646487324686 241.56924514464572) rotate(0 -20.849077671070972 4.930376310145448)" stroke="none"><path fill="currentColor" d="M 0.42,1.63 Q 0.42,1.63 -2.16,2.83 -4.75,4.02 -7.12,4.69 -9.50,5.35 -11.75,6.09 -14.01,6.84 -17.54,7.78 -21.08,8.73 -25.00,9.51 -28.92,10.28 -32.04,10.71 -35.16,11.14 -36.64,11.27 -38.13,11.41 -39.74,11.27 -41.34,11.12 -41.55,11.14 -41.76,11.17 -41.97,11.12 -42.18,11.08 -42.36,10.97 -42.54,10.86 -42.68,10.70 -42.82,10.53 -42.90,10.34 -42.98,10.14 -42.99,9.93 -43.00,9.71 -42.94,9.51 -42.89,9.30 -42.77,9.13 -42.65,8.95 -42.48,8.82 -42.31,8.70 -42.11,8.63 -41.91,8.56 -41.69,8.56 -41.48,8.56 -41.28,8.63 -41.08,8.70 -40.91,8.82 -40.74,8.95 -40.62,9.13 -40.50,9.30 -40.44,9.51 -40.39,9.71 -40.40,9.93 -40.41,10.14 -40.49,10.34 -40.57,10.53 -40.71,10.69 -40.84,10.86 -41.02,10.97 -41.21,11.08 -41.41,11.12 -41.62,11.17 -41.83,11.14 -42.04,11.12 -42.24,11.03 -42.43,10.94 -42.58,10.80 -42.74,10.65 -42.84,10.46 -42.94,10.28 -42.97,10.07 -43.01,9.86 -42.97,9.65 -42.94,9.44 -42.84,9.25 -42.74,9.06 -42.58,8.91 -42.43,8.77 -42.24,8.68 -42.04,8.59 -42.04,8.59 -42.04,8.59 -40.56,7.59 -39.08,6.59 -37.51,6.12 -35.94,5.65 -32.96,5.21 -29.98,4.78 -26.23,4.07 -22.49,3.36 -19.09,2.49 -15.70,1.62 -13.32,0.86 -10.94,0.10 -8.52,-0.54 -6.11,-1.19 -3.27,-1.41 -0.42,-1.63 -0.22,-1.66 -0.02,-1.69 0.18,-1.67 0.38,-1.65 0.57,-1.58 0.76,-1.51 0.93,-1.39 1.10,-1.28 1.24,-1.13 1.38,-0.98 1.47,-0.80 1.57,-0.62 1.62,-0.42 1.67,-0.22 1.68,-0.02 1.68,0.18 1.63,0.38 1.59,0.57 1.49,0.76 1.40,0.94 1.27,1.09 1.14,1.25 0.97,1.37 0.80,1.48 0.61,1.56 0.42,1.63 0.42,1.63 L 0.42,1.63 Z"></path></g><g transform="translate(376.6845898239686 259.4418727643797) rotate(0 -20.13014768116011 6.16310534225272)" stroke="none"><path fill="currentColor" d="M 0.41,1.45 Q 0.41,1.45 -0.75,2.06 -1.91,2.67 -3.80,3.13 -5.68,3.59 -8.46,4.36 -11.24,5.14 -14.75,6.29 -18.27,7.43 -21.10,8.28 -23.94,9.14 -25.98,9.84 -28.02,10.54 -30.00,11.27 -31.97,12.00 -33.95,12.61 -35.92,13.22 -37.91,13.40 -39.91,13.59 -40.12,13.61 -40.33,13.63 -40.54,13.59 -40.74,13.54 -40.92,13.43 -41.11,13.32 -41.24,13.16 -41.38,13.00 -41.46,12.80 -41.54,12.60 -41.55,12.39 -41.56,12.18 -41.50,11.97 -41.45,11.77 -41.33,11.59 -41.21,11.42 -41.04,11.29 -40.87,11.16 -40.67,11.09 -40.47,11.02 -40.25,11.03 -40.04,11.03 -39.84,11.09 -39.64,11.16 -39.47,11.29 -39.30,11.42 -39.18,11.60 -39.06,11.77 -39.01,11.98 -38.95,12.18 -38.96,12.39 -38.97,12.60 -39.05,12.80 -39.13,13.00 -39.27,13.16 -39.41,13.32 -39.59,13.43 -39.77,13.54 -39.98,13.59 -40.19,13.63 -40.40,13.61 -40.61,13.59 -40.80,13.50 -40.99,13.41 -41.15,13.26 -41.30,13.11 -41.40,12.93 -41.50,12.74 -41.53,12.53 -41.57,12.32 -41.53,12.11 -41.50,11.90 -41.40,11.71 -41.30,11.53 -41.15,11.38 -40.99,11.23 -40.80,11.14 -40.61,11.06 -40.61,11.06 -40.61,11.06 -38.94,10.23 -37.28,9.40 -35.42,8.64 -33.57,7.88 -31.53,7.06 -29.49,6.25 -27.36,5.52 -25.24,4.80 -22.44,3.97 -19.64,3.14 -16.02,1.99 -12.39,0.83 -9.48,0.10 -6.57,-0.62 -4.81,-0.94 -3.04,-1.25 -1.72,-1.35 -0.41,-1.45 -0.23,-1.48 -0.05,-1.51 0.12,-1.49 0.30,-1.48 0.48,-1.42 0.65,-1.36 0.80,-1.26 0.96,-1.16 1.08,-1.03 1.21,-0.90 1.30,-0.74 1.39,-0.58 1.44,-0.41 1.49,-0.23 1.50,-0.05 1.50,0.12 1.47,0.30 1.43,0.48 1.35,0.64 1.27,0.81 1.16,0.95 1.04,1.09 0.89,1.20 0.75,1.31 0.58,1.38 0.41,1.45 0.41,1.45 L 0.41,1.45 Z"></path></g><g transform="translate(284.2502365742997 291.90028243952247) rotate(0 -11.708348172714977 3.4924083666671777)" stroke="none"><path fill="currentColor" d="M 0.43,1.66 Q 0.43,1.66 -0.83,2.37 -2.09,3.07 -3.33,3.45 -4.58,3.83 -5.96,4.24 -7.34,4.65 -8.73,5.16 -10.13,5.68 -12.39,6.40 -14.66,7.12 -16.72,7.77 -18.78,8.42 -19.90,8.67 -21.03,8.92 -21.32,8.97 -21.61,9.02 -21.91,9.01 -22.20,8.99 -22.48,8.90 -22.77,8.82 -23.02,8.66 -23.28,8.51 -23.49,8.30 -23.70,8.09 -23.85,7.84 -24.00,7.59 -24.09,7.30 -24.18,7.02 -24.20,6.73 -24.22,6.43 -24.17,6.14 -24.11,5.85 -23.99,5.58 -23.87,5.31 -23.69,5.07 -23.51,4.84 -23.28,4.65 -23.04,4.47 -22.77,4.35 -22.50,4.23 -11.44,1.48 -0.37,-1.25 -0.16,-1.28 0.04,-1.31 0.25,-1.27 0.45,-1.23 0.64,-1.12 0.82,-1.01 0.96,-0.86 1.10,-0.70 1.19,-0.50 1.27,-0.31 1.29,-0.09 1.30,0.11 1.25,0.31 1.20,0.52 1.08,0.70 0.97,0.88 0.80,1.01 0.64,1.14 0.44,1.21 0.24,1.29 0.02,1.29 -0.18,1.30 -0.38,1.23 -0.58,1.17 -0.76,1.04 -0.93,0.92 -1.05,0.75 -1.17,0.57 -1.24,0.37 -1.30,0.17 -1.29,-0.04 -1.28,-0.25 -1.21,-0.45 -1.14,-0.65 -1.00,-0.81 -0.87,-0.98 -0.69,-1.09 -0.51,-1.20 -0.30,-1.25 -0.10,-1.30 0.11,-1.29 0.32,-1.27 0.51,-1.18 0.71,-1.10 0.87,-0.96 1.02,-0.81 1.13,-0.63 1.23,-0.44 1.27,-0.23 1.31,-0.02 1.28,0.18 1.25,0.39 1.15,0.58 1.06,0.77 0.91,0.92 0.76,1.07 0.57,1.16 0.37,1.25 0.37,1.25 0.37,1.25 -10.32,5.08 -21.03,8.92 -21.32,8.97 -21.61,9.02 -21.91,9.01 -22.20,8.99 -22.48,8.90 -22.77,8.82 -23.02,8.66 -23.28,8.51 -23.49,8.30 -23.70,8.09 -23.85,7.84 -24.00,7.59 -24.09,7.30 -24.18,7.02 -24.20,6.73 -24.22,6.43 -24.17,6.14 -24.11,5.85 -23.99,5.58 -23.87,5.31 -23.69,5.07 -23.51,4.84 -23.28,4.65 -23.04,4.47 -22.77,4.35 -22.50,4.23 -21.40,3.92 -20.29,3.62 -18.23,2.97 -16.16,2.32 -13.98,1.65 -11.81,0.98 -10.27,0.44 -8.72,-0.08 -7.36,-0.47 -5.99,-0.87 -4.66,-1.26 -3.33,-1.66 -1.88,-1.66 -0.43,-1.66 -0.22,-1.69 -0.02,-1.72 0.18,-1.70 0.39,-1.68 0.58,-1.60 0.78,-1.53 0.95,-1.42 1.12,-1.30 1.26,-1.15 1.40,-0.99 1.50,-0.81 1.60,-0.63 1.65,-0.43 1.70,-0.23 1.71,-0.02 1.71,0.18 1.66,0.38 1.62,0.58 1.52,0.77 1.43,0.96 1.29,1.11 1.16,1.27 0.99,1.39 0.82,1.51 0.62,1.59 0.43,1.66 0.43,1.66 L 0.43,1.66 Z"></path></g><g transform="translate(336.17984240497356 63.3098802477607) rotate(0 2.9153135780926505 39.81676937985708)" stroke="none"><path fill="currentColor" d="M 1.50,-0.45 Q 1.50,-0.45 2.43,0.41 3.37,1.28 3.59,3.61 3.81,5.93 4.00,8.68 4.19,11.44 4.50,14.33 4.80,17.22 5.05,20.12 5.29,23.02 5.52,25.77 5.74,28.52 5.85,31.21 5.96,33.90 6.00,36.36 6.04,38.82 6.06,41.12 6.08,43.42 6.20,45.69 6.31,47.96 6.46,49.62 6.61,51.28 6.78,53.28 6.95,55.27 7.13,57.27 7.31,59.26 7.40,61.34 7.49,63.43 7.63,65.27 7.77,67.11 7.83,68.38 7.89,69.64 8.03,71.47 8.16,73.30 8.39,75.29 8.62,77.28 8.83,78.65 9.05,80.03 9.06,80.10 9.08,80.16 9.06,80.56 9.05,80.95 8.94,81.33 8.83,81.71 8.64,82.05 8.44,82.40 8.17,82.68 7.90,82.97 7.56,83.18 7.23,83.40 6.86,83.52 6.48,83.65 6.09,83.68 5.70,83.72 5.31,83.66 4.92,83.59 4.55,83.44 4.19,83.29 3.87,83.05 3.55,82.82 3.30,82.51 3.05,82.21 2.88,81.85 2.71,81.50 2.63,81.11 2.55,80.72 3.09,79.26 3.63,77.80 3.55,77.60 3.46,77.41 3.44,77.20 3.42,76.98 3.47,76.78 3.52,76.57 3.63,76.39 3.75,76.21 3.91,76.08 4.07,75.94 4.27,75.87 4.47,75.79 4.68,75.78 4.90,75.77 5.10,75.83 5.30,75.90 5.48,76.02 5.65,76.14 5.78,76.31 5.90,76.48 5.97,76.68 6.03,76.89 6.03,77.10 6.02,77.31 5.95,77.51 5.88,77.71 5.75,77.88 5.62,78.05 5.44,78.16 5.26,78.28 5.06,78.33 4.85,78.39 4.64,78.37 4.43,78.36 4.23,78.27 4.04,78.19 3.88,78.05 3.72,77.91 3.61,77.73 3.50,77.54 3.46,77.33 3.42,77.13 3.45,76.92 3.47,76.70 3.57,76.51 3.66,76.32 3.81,76.17 3.96,76.02 4.14,75.92 4.33,75.83 4.54,75.80 4.75,75.76 4.96,75.80 5.17,75.84 5.36,75.94 5.54,76.05 5.69,76.20 5.83,76.36 5.83,76.36 5.83,76.36 7.45,78.26 9.08,80.16 9.06,80.56 9.05,80.95 8.94,81.33 8.83,81.71 8.64,82.05 8.44,82.40 8.17,82.68 7.90,82.97 7.56,83.18 7.23,83.40 6.86,83.52 6.48,83.65 6.09,83.68 5.70,83.72 5.31,83.66 4.92,83.59 4.55,83.44 4.19,83.29 3.87,83.05 3.55,82.82 3.30,82.51 3.05,82.21 2.88,81.85 2.71,81.50 2.63,81.11 2.55,80.72 2.48,80.13 2.42,79.53 2.22,77.83 2.01,76.12 1.85,75.05 1.69,73.99 1.55,71.97 1.40,69.95 1.35,68.77 1.29,67.58 1.16,65.62 1.03,63.67 0.96,61.75 0.90,59.83 0.73,57.82 0.55,55.82 0.39,53.83 0.22,51.85 0.07,50.06 -0.08,48.27 -0.19,45.87 -0.30,43.46 -0.31,41.19 -0.32,38.91 -0.35,36.51 -0.38,34.11 -0.44,31.54 -0.50,28.97 -0.67,26.23 -0.85,23.50 -1.05,20.64 -1.25,17.79 -1.50,14.79 -1.76,11.79 -1.89,9.05 -2.02,6.32 -2.07,4.61 -2.11,2.90 -1.80,1.67 -1.50,0.45 -1.53,0.26 -1.56,0.07 -1.55,-0.11 -1.54,-0.29 -1.48,-0.47 -1.42,-0.65 -1.32,-0.82 -1.22,-0.98 -1.09,-1.11 -0.95,-1.24 -0.79,-1.34 -0.62,-1.43 -0.44,-1.49 -0.26,-1.54 -0.07,-1.55 0.11,-1.56 0.29,-1.52 0.48,-1.49 0.65,-1.41 0.82,-1.33 0.97,-1.21 1.12,-1.09 1.23,-0.94 1.35,-0.79 1.42,-0.62 1.50,-0.45 1.50,-0.45 L 1.50,-0.45 Z"></path></g><g transform="translate(345.2902063148123 174.6513238161515) rotate(0 2.7331139613777395 72.34454852161889)" stroke="none"><path fill="currentColor" d="M 1.43,-0.11 Q 1.43,-0.11 2.21,1.14 2.98,2.39 3.13,3.69 3.29,4.99 3.36,6.44 3.44,7.88 3.60,9.84 3.75,11.81 3.92,13.78 4.09,15.76 4.18,17.94 4.27,20.11 4.31,22.19 4.35,24.26 4.38,26.45 4.42,28.65 4.43,31.15 4.44,33.65 4.44,35.76 4.45,37.87 4.45,39.92 4.46,41.97 4.47,43.58 4.48,45.18 4.48,46.44 4.49,47.70 4.59,49.95 4.70,52.20 4.85,54.24 5.00,56.28 5.17,57.97 5.33,59.65 5.41,61.19 5.49,62.73 5.53,63.92 5.56,65.10 5.58,66.69 5.61,68.28 5.63,69.66 5.64,71.04 5.65,72.14 5.65,73.25 5.65,75.42 5.66,77.59 5.66,79.22 5.66,80.86 5.77,82.39 5.87,83.93 6.02,85.53 6.16,87.13 6.32,88.28 6.48,89.43 6.60,91.22 6.72,93.02 6.88,94.62 7.05,96.22 7.24,97.89 7.42,99.57 7.46,101.22 7.50,102.87 7.72,104.08 7.94,105.29 8.04,106.77 8.14,108.26 8.17,109.56 8.20,110.87 8.31,112.17 8.41,113.48 8.48,114.68 8.54,115.88 8.57,117.09 8.59,118.30 8.60,119.66 8.62,121.01 8.62,122.31 8.63,123.62 8.63,125.01 8.63,126.41 8.63,128.36 8.63,130.32 8.63,132.40 8.64,134.49 8.58,135.76 8.53,137.03 8.50,138.43 8.47,139.83 8.46,141.04 8.46,142.26 8.22,143.59 7.98,144.92 5.51,144.99 3.04,145.06 2.84,144.99 2.64,144.92 2.47,144.79 2.30,144.66 2.19,144.48 2.07,144.30 2.02,144.10 1.97,143.89 1.98,143.68 2.00,143.47 2.08,143.27 2.16,143.07 2.30,142.92 2.44,142.76 2.63,142.65 2.81,142.54 3.02,142.50 3.23,142.46 3.44,142.49 3.65,142.51 3.84,142.61 4.03,142.70 4.18,142.85 4.34,143.00 4.43,143.19 4.53,143.38 4.56,143.59 4.59,143.80 4.55,144.01 4.51,144.22 4.41,144.40 4.31,144.59 4.15,144.73 3.99,144.87 3.80,144.96 3.60,145.04 3.39,145.06 3.18,145.08 2.97,145.03 2.77,144.98 2.59,144.87 2.41,144.76 2.27,144.59 2.14,144.43 2.06,144.23 1.99,144.03 1.98,143.82 1.97,143.61 2.03,143.40 2.09,143.20 2.22,143.03 2.34,142.85 2.51,142.73 2.68,142.60 2.88,142.54 3.09,142.47 3.30,142.48 3.51,142.48 3.51,142.48 3.51,142.48 2.81,142.36 2.10,142.25 2.11,141.00 2.12,139.74 2.15,138.25 2.18,136.76 2.23,135.62 2.29,134.49 2.29,132.40 2.29,130.32 2.29,128.37 2.29,126.41 2.29,125.02 2.29,123.64 2.28,122.34 2.28,121.05 2.28,119.73 2.27,118.41 2.23,116.45 2.19,114.49 2.05,112.75 1.91,111.01 1.88,109.80 1.86,108.59 1.66,106.80 1.46,105.01 1.32,103.24 1.19,101.47 1.15,99.94 1.10,98.42 0.91,96.91 0.73,95.41 0.60,94.35 0.47,93.29 0.38,91.78 0.30,90.28 0.12,88.99 -0.04,87.69 -0.20,86.01 -0.35,84.33 -0.46,82.59 -0.56,80.86 -0.56,79.22 -0.56,77.59 -0.55,75.42 -0.55,73.26 -0.55,72.15 -0.55,71.05 -0.54,69.69 -0.52,68.32 -0.53,66.79 -0.55,65.26 -0.57,64.14 -0.60,63.03 -0.67,61.64 -0.73,60.25 -0.90,58.48 -1.07,56.72 -1.22,54.60 -1.37,52.47 -1.47,50.09 -1.57,47.70 -1.57,46.44 -1.57,45.19 -1.55,43.58 -1.54,41.98 -1.54,39.93 -1.54,37.88 -1.54,35.77 -1.54,33.66 -1.54,31.17 -1.54,28.68 -1.53,26.51 -1.52,24.34 -1.54,22.32 -1.55,20.30 -1.60,18.26 -1.65,16.22 -1.80,14.20 -1.95,12.18 -2.06,10.16 -2.17,8.14 -2.22,6.88 -2.27,5.61 -2.41,4.22 -2.56,2.84 -2.00,1.47 -1.43,0.11 -1.43,-0.05 -1.42,-0.23 -1.37,-0.39 -1.32,-0.56 -1.23,-0.71 -1.15,-0.86 -1.03,-0.99 -0.91,-1.11 -0.76,-1.21 -0.61,-1.30 -0.45,-1.35 -0.28,-1.41 -0.11,-1.42 0.05,-1.44 0.23,-1.41 0.40,-1.38 0.56,-1.31 0.72,-1.24 0.86,-1.14 0.99,-1.03 1.10,-0.90 1.21,-0.76 1.29,-0.61 1.36,-0.45 1.40,-0.28 1.43,-0.11 1.43,-0.11 L 1.43,-0.11 Z"></path></g><g transform="translate(354.4005702246508 351.41262913297123) rotate(0 6.923896682867337 89.01856679609114)" stroke="none"><path fill="currentColor" d="M 1.41,0.17 Q 1.41,0.17 1.88,1.93 2.36,3.69 2.42,5.64 2.49,7.58 2.65,10.21 2.81,12.85 3.09,15.37 3.36,17.89 3.79,20.93 4.22,23.97 4.89,26.53 5.56,29.09 6.29,31.99 7.01,34.89 7.44,37.15 7.87,39.40 8.26,41.54 8.65,43.68 9.01,45.32 9.37,46.95 9.65,48.64 9.93,50.33 10.36,52.78 10.78,55.23 11.19,58.22 11.59,61.22 12.07,64.43 12.55,67.65 12.87,70.60 13.19,73.56 13.54,76.06 13.90,78.55 14.27,80.92 14.64,83.29 14.82,86.23 15.01,89.17 15.20,92.19 15.39,95.21 15.69,97.60 16.00,99.99 16.26,102.89 16.52,105.78 16.63,108.74 16.74,111.70 16.90,114.41 17.05,117.12 17.12,119.16 17.19,121.21 17.22,123.50 17.26,125.80 17.28,127.61 17.29,129.43 17.40,130.92 17.51,132.42 17.67,134.23 17.83,136.04 17.85,138.21 17.88,140.38 17.83,142.50 17.79,144.62 17.67,146.67 17.55,148.72 17.43,150.68 17.30,152.64 17.28,154.15 17.26,155.65 17.19,157.22 17.13,158.80 17.10,160.34 17.08,161.89 17.07,163.28 17.06,164.68 17.05,166.00 17.05,167.33 17.05,169.00 17.05,170.67 17.05,171.85 17.05,173.03 17.05,174.67 17.06,176.32 14.19,178.56 11.32,180.80 11.11,180.77 10.90,180.74 10.71,180.65 10.52,180.55 10.37,180.40 10.22,180.25 10.13,180.06 10.03,179.87 10.01,179.66 9.98,179.45 10.02,179.24 10.06,179.03 10.17,178.85 10.27,178.66 10.43,178.52 10.59,178.38 10.79,178.30 10.98,178.21 11.19,178.20 11.41,178.18 11.61,178.23 11.82,178.29 12.00,178.40 12.17,178.52 12.31,178.68 12.44,178.85 12.51,179.05 12.58,179.25 12.59,179.46 12.59,179.67 12.53,179.88 12.47,180.08 12.34,180.25 12.22,180.42 12.04,180.55 11.87,180.67 11.67,180.73 11.46,180.79 11.25,180.79 11.04,180.78 10.84,180.70 10.64,180.63 10.47,180.50 10.31,180.36 10.20,180.18 10.08,180.00 10.03,179.80 9.98,179.59 10.00,179.38 10.02,179.17 10.10,178.97 10.19,178.78 10.33,178.62 10.47,178.46 10.66,178.36 10.85,178.25 11.05,178.22 11.26,178.18 11.26,178.18 11.26,178.18 10.58,177.25 9.90,176.32 9.90,174.67 9.90,173.03 9.91,171.84 9.91,170.66 9.92,168.98 9.92,167.30 9.93,165.96 9.93,164.62 9.95,163.19 9.96,161.77 9.99,160.13 10.02,158.49 10.09,157.00 10.16,155.51 10.27,152.97 10.39,150.42 10.45,149.35 10.50,148.28 10.63,146.37 10.76,144.46 10.82,142.44 10.87,140.42 10.87,138.51 10.87,136.61 10.72,134.75 10.58,132.89 10.47,131.18 10.36,129.47 10.35,127.68 10.35,125.88 10.33,123.65 10.31,121.42 10.26,119.45 10.21,117.48 10.07,114.70 9.93,111.92 9.85,109.12 9.77,106.31 9.59,103.53 9.40,100.74 9.14,98.16 8.88,95.57 8.73,92.54 8.59,89.52 8.47,86.87 8.36,84.21 8.02,81.80 7.67,79.39 7.35,76.80 7.03,74.22 6.73,71.39 6.43,68.55 5.95,65.29 5.47,62.03 5.09,59.16 4.71,56.28 4.28,53.80 3.86,51.32 3.61,49.80 3.36,48.27 2.98,46.52 2.60,44.77 2.22,42.66 1.84,40.54 1.45,38.46 1.06,36.37 0.35,33.49 -0.36,30.62 -1.09,27.71 -1.83,24.80 -2.25,21.65 -2.67,18.49 -2.90,15.79 -3.14,13.10 -3.20,10.36 -3.27,7.62 -3.23,5.31 -3.19,3.00 -2.30,1.41 -1.41,-0.17 -1.37,-0.34 -1.33,-0.51 -1.25,-0.66 -1.17,-0.81 -1.05,-0.94 -0.94,-1.07 -0.79,-1.16 -0.65,-1.26 -0.49,-1.32 -0.33,-1.38 -0.16,-1.40 0.00,-1.42 0.17,-1.40 0.34,-1.38 0.50,-1.32 0.66,-1.25 0.80,-1.16 0.94,-1.06 1.06,-0.93 1.17,-0.80 1.25,-0.65 1.33,-0.50 1.37,-0.33 1.41,-0.16 1.41,0.00 1.41,0.17 1.41,0.17 L 1.41,0.17 Z"></path></g></svg>