<svg version="1.1" xmlns="http://www.w3.org/2000/svg" viewBox="0 0 488.27300663655274 186.73884198538258">
  <g transform="translate(271.2854792285357 118.97251336126374) rotate(0 85.72853492611864 -10.113634966188101)" stroke="none"><path fill="#1e1e1e" d="M -1.10,-1.23 Q -1.10,-1.23 0.65,-3.27 2.41,-5.32 4.77,-6.87 7.12,-8.43 15.94,-10.68 24.75,-12.92 30.40,-14.29 36.05,-15.66 43.08,-17.19 50.12,-18.71 57.61,-19.93 65.10,-21.16 71.51,-21.69 77.92,-22.22 85.81,-21.84 93.71,-21.47 99.97,-20.44 106.23,-19.41 112.36,-18.03 118.49,-16.64 125.18,-15.22 131.88,-13.81 136.00,-12.89 140.12,-11.96 145.77,-11.51 151.41,-11.05 154.60,-10.85 157.78,-10.64 161.50,-10.57 165.21,-10.50 167.62,-9.97 170.03,-9.44 170.24,-9.49 170.45,-9.53 170.66,-9.51 170.87,-9.49 171.06,-9.40 171.26,-9.31 171.41,-9.17 171.56,-9.02 171.66,-8.83 171.76,-8.64 171.80,-8.43 171.83,-8.23 171.80,-8.02 171.77,-7.81 171.67,-7.62 171.57,-7.43 171.41,-7.28 171.26,-7.14 171.07,-7.05 170.87,-6.96 170.66,-6.93 170.45,-6.91 170.24,-6.96 170.04,-7.00 169.85,-7.11 169.67,-7.22 169.53,-7.38 169.40,-7.54 169.32,-7.74 169.24,-7.94 169.23,-8.15 169.21,-8.36 169.27,-8.57 169.33,-8.77 169.45,-8.95 169.57,-9.12 169.73,-9.25 169.90,-9.38 170.10,-9.45 170.31,-9.52 170.52,-9.52 170.73,-9.52 170.93,-9.45 171.13,-9.38 171.30,-9.26 171.47,-9.13 171.59,-8.95 171.71,-8.78 171.77,-8.57 171.83,-8.37 171.81,-8.15 171.80,-7.94 171.72,-7.75 171.65,-7.55 171.51,-7.39 171.37,-7.22 171.19,-7.11 171.01,-7.00 171.01,-7.00 171.01,-7.00 168.04,-5.85 165.07,-4.70 161.24,-4.81 157.41,-4.91 154.17,-5.13 150.93,-5.34 144.91,-5.88 138.89,-6.41 134.79,-7.33 130.70,-8.24 123.97,-9.67 117.24,-11.10 111.27,-12.46 105.30,-13.82 99.35,-14.82 93.40,-15.82 85.88,-16.27 78.36,-16.72 72.16,-16.23 65.97,-15.75 58.60,-14.57 51.23,-13.40 44.24,-12.00 37.25,-10.60 31.61,-9.28 25.96,-7.96 17.81,-6.09 9.66,-4.23 7.60,-3.01 5.54,-1.80 3.32,-0.28 1.10,1.23 0.94,1.35 0.77,1.46 0.59,1.53 0.40,1.61 0.20,1.63 0.00,1.66 -0.19,1.63 -0.38,1.61 -0.57,1.54 -0.76,1.47 -0.92,1.36 -1.09,1.24 -1.22,1.09 -1.36,0.94 -1.45,0.77 -1.54,0.59 -1.59,0.40 -1.64,0.20 -1.64,0.00 -1.64,-0.19 -1.60,-0.38 -1.55,-0.58 -1.46,-0.75 -1.37,-0.93 -1.23,-1.08 -1.10,-1.23 -1.10,-1.23 L -1.10,-1.23 Z"></path></g><g transform="translate(448.0265773868134 94.00728724611008) rotate(0 14.394392215879293 19.58954733174312)" stroke="none"><path fill="#1e1e1e" d="M 2.08,-0.71 Q 2.08,-0.71 2.93,0.91 3.78,2.54 7.24,5.00 10.71,7.46 15.10,10.36 19.50,13.27 22.50,15.01 25.51,16.75 27.30,17.89 29.09,19.04 29.37,19.26 29.66,19.47 29.88,19.74 30.10,20.02 30.25,20.34 30.40,20.66 30.47,21.01 30.54,21.35 30.53,21.71 30.51,22.06 30.41,22.40 30.31,22.74 30.14,23.04 29.96,23.35 29.71,23.60 29.47,23.86 29.17,24.05 28.87,24.24 28.53,24.35 28.19,24.46 27.84,24.48 27.49,24.51 27.14,24.45 26.79,24.40 26.47,24.26 26.14,24.12 25.42,26.27 24.70,28.41 21.56,30.48 18.42,32.55 15.57,34.33 12.72,36.10 10.36,37.54 7.99,38.98 6.05,39.28 4.11,39.58 3.96,39.73 3.81,39.88 3.61,39.97 3.42,40.06 3.21,40.09 3.00,40.12 2.79,40.08 2.58,40.04 2.40,39.93 2.22,39.83 2.08,39.67 1.93,39.51 1.85,39.31 1.77,39.12 1.75,38.90 1.74,38.69 1.79,38.49 1.84,38.28 1.96,38.10 2.07,37.92 2.24,37.79 2.41,37.66 2.60,37.59 2.80,37.52 3.02,37.51 3.23,37.51 3.43,37.57 3.64,37.63 3.81,37.76 3.98,37.88 4.10,38.06 4.22,38.23 4.29,38.43 4.35,38.64 4.34,38.85 4.33,39.06 4.26,39.26 4.18,39.46 4.05,39.62 3.92,39.79 3.74,39.90 3.56,40.02 3.35,40.07 3.14,40.12 2.93,40.10 2.72,40.08 2.53,39.99 2.33,39.91 2.17,39.77 2.02,39.62 1.91,39.44 1.81,39.25 1.77,39.04 1.73,38.83 1.76,38.62 1.79,38.41 1.89,38.22 1.98,38.03 1.98,38.03 1.98,38.03 3.38,35.86 4.78,33.69 7.12,32.28 9.46,30.86 12.26,29.12 15.06,27.38 17.81,25.63 20.56,23.87 24.83,21.46 29.09,19.04 29.37,19.26 29.66,19.47 29.88,19.74 30.10,20.02 30.25,20.34 30.40,20.66 30.47,21.01 30.54,21.35 30.53,21.71 30.51,22.06 30.41,22.40 30.31,22.74 30.14,23.04 29.96,23.35 29.71,23.60 29.47,23.86 29.17,24.05 28.87,24.24 28.53,24.35 28.19,24.46 27.84,24.48 27.49,24.51 27.14,24.45 26.79,24.40 26.47,24.26 26.14,24.12 24.38,22.91 22.62,21.70 19.49,19.87 16.36,18.04 11.74,15.02 7.12,11.99 2.92,8.39 -1.27,4.78 -1.68,2.75 -2.08,0.71 -2.14,0.45 -2.20,0.19 -2.19,-0.07 -2.18,-0.33 -2.11,-0.59 -2.03,-0.84 -1.90,-1.08 -1.77,-1.31 -1.59,-1.50 -1.41,-1.69 -1.18,-1.84 -0.96,-1.98 -0.71,-2.07 -0.45,-2.16 -0.19,-2.18 0.07,-2.20 0.33,-2.16 0.59,-2.12 0.84,-2.02 1.08,-1.92 1.30,-1.76 1.51,-1.60 1.68,-1.40 1.85,-1.19 1.97,-0.95 2.08,-0.71 2.08,-0.71 L 2.08,-0.71 Z"></path></g><g transform="translate(32.22931092445185 14.373556949347858) rotate(0 -11.114655462225926 13.029307676245253)" stroke="none"><path fill="#1e1e1e" d="M -0.88,1.47 Q -0.88,1.47 -3.14,0.80 -5.40,0.13 -7.15,0.52 -8.90,0.92 -10.20,1.61 -11.50,2.31 -12.93,4.38 -14.36,6.45 -15.73,9.55 -17.10,12.65 -17.66,14.88 -18.23,17.12 -18.15,19.38 -18.07,21.63 -17.64,22.68 -17.21,23.72 -15.44,24.78 -13.67,25.84 -10.63,26.84 -7.59,27.84 -6.10,28.32 -4.61,28.80 -4.41,28.87 -4.21,28.93 -4.04,29.06 -3.87,29.18 -3.74,29.36 -3.62,29.53 -3.56,29.73 -3.50,29.94 -3.51,30.15 -3.51,30.36 -3.59,30.56 -3.66,30.76 -3.80,30.92 -3.93,31.09 -4.11,31.20 -4.29,31.31 -4.50,31.36 -4.70,31.41 -4.91,31.40 -5.13,31.38 -5.32,31.29 -5.52,31.21 -5.67,31.06 -5.83,30.92 -5.93,30.74 -6.04,30.55 -6.08,30.34 -6.11,30.13 -6.08,29.92 -6.05,29.71 -5.96,29.52 -5.86,29.33 -5.71,29.18 -5.56,29.03 -5.37,28.94 -5.18,28.85 -4.97,28.82 -4.76,28.79 -4.55,28.83 -4.34,28.88 -4.16,28.98 -3.97,29.09 -3.83,29.25 -3.69,29.41 -3.61,29.60 -3.52,29.80 -3.51,30.01 -3.49,30.22 -3.55,30.43 -3.60,30.63 -3.71,30.81 -3.83,30.99 -4.00,31.12 -4.16,31.25 -4.36,31.32 -4.56,31.40 -4.77,31.40 -4.99,31.40 -4.99,31.40 -4.99,31.40 -6.55,31.45 -8.11,31.50 -12.25,31.47 -16.38,31.45 -18.23,30.42 -20.08,29.39 -21.54,27.68 -22.99,25.96 -23.64,23.88 -24.29,21.81 -24.27,18.70 -24.26,15.58 -23.50,12.83 -22.75,10.08 -21.00,6.37 -19.25,2.65 -16.80,-0.20 -14.35,-3.06 -11.94,-4.11 -9.52,-5.15 -6.25,-5.16 -2.97,-5.16 -1.04,-3.32 0.88,-1.47 1.04,-1.34 1.21,-1.22 1.34,-1.05 1.46,-0.89 1.55,-0.70 1.64,-0.51 1.67,-0.31 1.71,-0.10 1.70,0.09 1.69,0.30 1.63,0.50 1.57,0.70 1.46,0.87 1.35,1.05 1.21,1.20 1.06,1.35 0.88,1.45 0.71,1.56 0.51,1.62 0.31,1.69 0.10,1.70 -0.09,1.71 -0.30,1.68 -0.50,1.64 -0.69,1.55 -0.88,1.47 -0.88,1.47 L -0.88,1.47 Z"></path></g><g transform="translate(52.81877741420794 34.05418014731731) rotate(0 1.7309442430532158 10.47812996814173)" stroke="none"><path fill="#1e1e1e" d="M 0.53,1.61 Q 0.53,1.61 -0.85,2.64 -2.25,3.67 -3.90,4.84 -5.55,6.01 -6.13,7.97 -6.71,9.94 -6.81,11.22 -6.91,12.50 -5.00,14.34 -3.08,16.18 -1.21,16.94 0.66,17.70 2.50,17.83 4.35,17.97 6.62,16.56 8.90,15.15 8.57,11.51 8.25,7.88 5.79,6.52 3.33,5.16 2.10,3.83 0.88,2.49 0.74,2.33 0.60,2.16 0.53,1.97 0.45,1.77 0.44,1.56 0.43,1.34 0.49,1.14 0.55,0.93 0.67,0.76 0.79,0.58 0.96,0.46 1.13,0.33 1.33,0.26 1.53,0.20 1.74,0.20 1.96,0.20 2.16,0.27 2.36,0.34 2.53,0.47 2.69,0.60 2.81,0.78 2.93,0.95 2.99,1.16 3.04,1.36 3.03,1.58 3.01,1.79 2.93,1.99 2.85,2.18 2.71,2.34 2.58,2.50 2.39,2.61 2.21,2.72 2.00,2.76 1.79,2.81 1.58,2.78 1.37,2.76 1.18,2.67 0.99,2.58 0.83,2.43 0.68,2.28 0.58,2.09 0.49,1.90 0.45,1.69 0.42,1.49 0.46,1.28 0.49,1.07 0.59,0.88 0.69,0.69 0.85,0.55 1.01,0.40 1.20,0.32 1.39,0.23 1.60,0.21 1.82,0.18 2.02,0.23 2.23,0.28 2.41,0.39 2.59,0.50 2.59,0.50 2.59,0.50 3.72,1.20 4.84,1.89 8.66,3.34 12.48,4.79 13.11,11.20 13.74,17.61 10.85,20.37 7.97,23.12 5.86,23.50 3.76,23.88 0.98,23.48 -1.78,23.09 -4.61,21.61 -7.44,20.13 -9.93,16.70 -12.42,13.28 -12.30,10.56 -12.18,7.84 -10.75,4.84 -9.32,1.83 -8.06,0.85 -6.80,-0.11 -5.41,-0.85 -4.03,-1.58 -2.28,-1.59 -0.53,-1.61 -0.33,-1.65 -0.13,-1.69 0.06,-1.68 0.27,-1.68 0.47,-1.62 0.66,-1.56 0.84,-1.46 1.02,-1.36 1.17,-1.21 1.31,-1.07 1.42,-0.90 1.53,-0.72 1.60,-0.53 1.66,-0.33 1.68,-0.13 1.70,0.06 1.66,0.27 1.63,0.47 1.55,0.66 1.47,0.85 1.35,1.01 1.22,1.18 1.06,1.30 0.90,1.43 0.72,1.52 0.53,1.61 0.53,1.61 L 0.53,1.61 Z"></path></g><g transform="translate(82.5185359874099 36.60535785542106) rotate(0 -2.824201798669719 9.566988231781465)" stroke="none"><path fill="#1e1e1e" d="M 1.62,1.30 Q 1.62,1.30 0.91,2.87 0.20,4.44 -0.60,6.17 -1.40,7.89 -2.10,11.34 -2.80,14.78 -2.91,14.95 -3.02,15.11 -3.16,15.25 -3.31,15.38 -3.49,15.48 -3.66,15.57 -3.85,15.62 -4.04,15.67 -4.24,15.68 -4.44,15.68 -4.63,15.63 -4.83,15.59 -5.01,15.50 -5.18,15.41 -5.33,15.28 -5.48,15.15 -5.60,14.99 -5.72,14.83 -5.79,14.64 -5.86,14.46 -5.89,14.26 -5.92,14.07 -5.90,13.87 -5.87,13.67 -5.81,13.48 -5.74,13.30 -4.40,9.44 -3.07,5.58 -2.97,5.39 -2.88,5.20 -2.73,5.05 -2.58,4.90 -2.39,4.80 -2.20,4.71 -1.99,4.68 -1.78,4.65 -1.57,4.69 -1.36,4.73 -1.18,4.83 -0.99,4.94 -0.85,5.10 -0.71,5.25 -0.62,5.45 -0.54,5.64 -0.52,5.86 -0.50,6.07 -0.55,6.27 -0.60,6.48 -0.72,6.66 -0.83,6.84 -1.00,6.97 -1.16,7.11 -1.36,7.18 -1.56,7.25 -1.77,7.26 -1.99,7.27 -2.19,7.20 -2.39,7.14 -2.56,7.02 -2.74,6.89 -2.86,6.72 -2.99,6.55 -3.05,6.35 -3.11,6.14 -3.11,5.93 -3.10,5.72 -3.03,5.52 -2.96,5.32 -2.82,5.15 -2.69,4.99 -2.51,4.87 -2.33,4.76 -2.13,4.71 -1.92,4.66 -1.71,4.67 -1.50,4.69 -1.30,4.77 -1.11,4.86 -0.95,5.00 -0.79,5.14 -0.68,5.32 -0.58,5.51 -0.54,5.72 -0.50,5.93 -0.53,6.14 -0.55,6.35 -0.55,6.35 -0.55,6.35 -1.68,10.56 -2.80,14.78 -2.91,14.95 -3.02,15.11 -3.16,15.25 -3.31,15.38 -3.49,15.48 -3.66,15.57 -3.85,15.62 -4.04,15.67 -4.24,15.68 -4.44,15.68 -4.63,15.63 -4.83,15.59 -5.01,15.50 -5.18,15.41 -5.33,15.28 -5.48,15.15 -5.60,14.99 -5.71,14.83 -5.79,14.64 -5.86,14.46 -5.89,14.26 -5.92,14.07 -5.90,13.87 -5.87,13.67 -5.81,13.48 -5.74,13.30 -6.30,9.36 -6.87,5.43 -5.63,3.11 -4.39,0.79 -3.00,-0.25 -1.62,-1.30 -1.44,-1.47 -1.26,-1.65 -1.05,-1.77 -0.83,-1.90 -0.59,-1.97 -0.35,-2.05 -0.10,-2.06 0.14,-2.07 0.39,-2.02 0.63,-1.98 0.86,-1.87 1.09,-1.77 1.29,-1.61 1.48,-1.45 1.63,-1.25 1.79,-1.05 1.89,-0.82 1.99,-0.59 2.03,-0.35 2.07,-0.10 2.06,0.14 2.04,0.39 1.96,0.63 1.88,0.87 1.75,1.08 1.62,1.30 1.62,1.30 L 1.62,1.30 Z"></path></g><g transform="translate(79.96766952700887 46.445669454406016) rotate(0 17.67411699846707 2.2778543409001486)" stroke="none"><path fill="#1e1e1e" d="M -1.55,-0.21 Q -1.55,-0.21 -1.86,-1.91 -2.16,-3.61 -0.13,-6.38 1.89,-9.15 4.58,-10.47 7.27,-11.78 11.07,-11.35 14.88,-10.92 16.69,-7.96 18.50,-5.00 18.57,-1.05 18.64,2.88 19.03,5.42 19.42,7.95 21.50,9.01 23.59,10.07 26.68,10.38 29.78,10.68 31.37,10.89 32.97,11.10 33.18,11.13 33.39,11.17 33.58,11.26 33.77,11.36 33.92,11.51 34.06,11.67 34.16,11.86 34.25,12.05 34.27,12.26 34.30,12.47 34.25,12.68 34.21,12.89 34.10,13.07 34.00,13.25 33.84,13.39 33.68,13.53 33.48,13.61 33.28,13.69 33.07,13.71 32.86,13.72 32.65,13.67 32.45,13.61 32.27,13.50 32.09,13.38 31.96,13.21 31.83,13.04 31.76,12.84 31.69,12.64 31.69,12.43 31.69,12.22 31.75,12.02 31.82,11.81 31.94,11.64 32.07,11.47 32.25,11.35 32.42,11.23 32.62,11.17 32.83,11.11 33.04,11.12 33.25,11.13 33.45,11.21 33.65,11.28 33.81,11.42 33.98,11.55 34.09,11.73 34.20,11.91 34.25,12.12 34.30,12.33 34.28,12.54 34.26,12.75 34.17,12.95 34.08,13.14 33.94,13.30 33.79,13.45 33.61,13.55 33.42,13.65 33.21,13.69 33.00,13.73 33.00,13.73 33.00,13.73 31.41,13.98 29.82,14.22 25.41,14.62 21.00,15.02 17.75,12.60 14.51,10.18 13.69,6.49 12.88,2.80 13.07,0.00 13.27,-2.79 12.66,-4.86 12.06,-6.92 10.67,-6.73 9.28,-6.54 7.64,-5.95 6.00,-5.37 4.50,-3.91 3.00,-2.46 2.28,-1.12 1.55,0.21 1.51,0.39 1.46,0.58 1.37,0.74 1.28,0.91 1.15,1.05 1.02,1.19 0.86,1.30 0.70,1.40 0.53,1.47 0.35,1.53 0.16,1.55 -0.02,1.57 -0.21,1.54 -0.40,1.52 -0.57,1.45 -0.75,1.38 -0.90,1.27 -1.06,1.16 -1.18,1.01 -1.31,0.87 -1.39,0.70 -1.48,0.53 -1.52,0.34 -1.56,0.16 -1.56,-0.02 -1.55,-0.21 -1.55,-0.21 L -1.55,-0.21 Z"></path></g><g transform="translate(144.2868875724164 18.74701813017191) rotate(0 -7.834942650703624 24.874150248927094)" stroke="none"><path fill="#1e1e1e" d="M 1.84,0.75 Q 1.84,0.75 1.34,3.24 0.85,5.72 -0.08,8.38 -1.01,11.04 -3.15,18.35 -5.29,25.67 -6.64,30.17 -7.99,34.68 -9.32,38.67 -10.64,42.67 -12.28,45.73 -13.92,48.79 -13.99,48.98 -14.07,49.18 -14.20,49.35 -14.33,49.51 -14.51,49.63 -14.69,49.74 -14.90,49.79 -15.11,49.84 -15.32,49.82 -15.53,49.80 -15.72,49.72 -15.92,49.63 -16.08,49.49 -16.23,49.34 -16.34,49.16 -16.44,48.97 -16.48,48.76 -16.52,48.56 -16.49,48.35 -16.46,48.13 -16.36,47.95 -16.27,47.76 -16.11,47.61 -15.96,47.46 -15.77,47.36 -15.58,47.27 -15.37,47.24 -15.16,47.22 -14.95,47.26 -14.74,47.30 -14.56,47.41 -14.37,47.51 -14.23,47.67 -14.09,47.83 -14.01,48.03 -13.93,48.22 -13.91,48.43 -13.90,48.65 -13.95,48.85 -14.00,49.06 -14.12,49.24 -14.23,49.41 -14.40,49.55 -14.57,49.68 -14.77,49.75 -14.97,49.82 -15.18,49.83 -15.39,49.83 -15.59,49.77 -15.80,49.70 -15.97,49.58 -16.14,49.45 -16.26,49.28 -16.38,49.10 -16.45,48.90 -16.51,48.70 -16.50,48.48 -16.49,48.27 -16.49,48.27 -16.49,48.27 -16.47,44.51 -16.45,40.75 -15.17,36.83 -13.88,32.91 -12.52,28.42 -11.17,23.92 -8.91,16.46 -6.66,9.00 -5.64,6.25 -4.62,3.49 -3.23,1.36 -1.84,-0.75 -1.72,-0.96 -1.61,-1.17 -1.44,-1.35 -1.28,-1.52 -1.08,-1.65 -0.88,-1.78 -0.65,-1.86 -0.42,-1.94 -0.18,-1.97 0.05,-1.99 0.28,-1.95 0.52,-1.92 0.74,-1.83 0.97,-1.74 1.16,-1.60 1.36,-1.45 1.51,-1.27 1.67,-1.09 1.77,-0.87 1.88,-0.65 1.93,-0.42 1.98,-0.18 1.97,0.05 1.97,0.29 1.90,0.52 1.84,0.75 1.84,0.75 L 1.84,0.75 Z"></path></g><g transform="translate(124.79066666721133 32.04964917362031) rotate(0 13.11894701461324 7.106934274166292)" stroke="none"><path fill="#1e1e1e" d="M 1.55,-1.24 Q 1.55,-1.24 3.23,-0.01 4.90,1.21 7.31,3.10 9.72,5.00 12.03,6.42 14.34,7.84 17.25,8.81 20.17,9.78 23.35,11.13 26.52,12.48 26.72,12.54 26.93,12.61 27.10,12.74 27.26,12.87 27.38,13.04 27.50,13.22 27.56,13.42 27.62,13.63 27.61,13.84 27.60,14.05 27.52,14.25 27.44,14.45 27.30,14.61 27.16,14.77 26.98,14.88 26.80,14.99 26.59,15.04 26.39,15.08 26.17,15.06 25.96,15.04 25.77,14.95 25.58,14.86 25.42,14.72 25.27,14.57 25.17,14.38 25.07,14.19 25.03,13.98 25.00,13.78 25.03,13.57 25.07,13.36 25.17,13.17 25.27,12.98 25.42,12.83 25.57,12.69 25.77,12.60 25.96,12.51 26.17,12.49 26.38,12.46 26.59,12.51 26.80,12.55 26.98,12.66 27.16,12.77 27.30,12.93 27.44,13.09 27.52,13.29 27.60,13.49 27.61,13.70 27.62,13.91 27.56,14.12 27.51,14.32 27.39,14.50 27.27,14.68 27.10,14.80 26.93,14.93 26.73,15.00 26.53,15.07 26.31,15.07 26.10,15.07 26.10,15.07 26.10,15.07 22.20,15.27 18.30,15.47 14.71,14.30 11.12,13.12 8.47,11.47 5.82,9.81 2.97,7.44 0.12,5.07 -0.71,3.16 -1.55,1.24 -1.68,1.04 -1.81,0.83 -1.88,0.60 -1.95,0.37 -1.97,0.13 -1.99,-0.10 -1.95,-0.33 -1.91,-0.57 -1.81,-0.79 -1.71,-1.01 -1.57,-1.20 -1.42,-1.39 -1.23,-1.54 -1.04,-1.69 -0.83,-1.79 -0.61,-1.89 -0.37,-1.94 -0.14,-1.99 0.09,-1.97 0.34,-1.96 0.57,-1.89 0.80,-1.82 1.00,-1.70 1.21,-1.58 1.38,-1.41 1.55,-1.24 1.55,-1.24 L 1.55,-1.24 Z"></path></g><g transform="translate(167.24499696372766 54.64594508164714) rotate(0 -3.735235795440474 10.933700836321805)" stroke="none"><path fill="#1e1e1e" d="M 0.57,1.60 Q 0.57,1.60 -1.31,2.72 -3.21,3.83 -5.17,5.32 -7.12,6.80 -8.42,8.13 -9.72,9.45 -10.51,10.79 -11.30,12.12 -11.87,13.49 -12.44,14.86 -12.64,15.96 -12.84,17.06 -11.19,18.12 -9.54,19.17 -7.99,19.55 -6.44,19.93 -4.81,20.07 -3.18,20.20 -1.97,19.78 -0.76,19.35 0.87,17.71 2.52,16.07 3.31,13.43 4.10,10.80 2.97,8.19 1.83,5.58 0.39,4.33 -1.04,3.08 -2.72,2.61 -4.40,2.13 -6.11,1.85 -7.82,1.57 -8.00,1.49 -8.19,1.41 -8.35,1.29 -8.51,1.17 -8.64,1.02 -8.76,0.86 -8.85,0.68 -8.94,0.50 -8.98,0.30 -9.02,0.10 -9.01,-0.09 -9.00,-0.29 -8.95,-0.48 -8.89,-0.67 -8.79,-0.85 -8.69,-1.02 -8.56,-1.17 -8.42,-1.31 -8.25,-1.42 -8.08,-1.53 -7.89,-1.59 -7.70,-1.66 -7.50,-1.68 -7.30,-1.69 -7.10,-1.66 -6.90,-1.63 -5.01,-1.48 -3.12,-1.32 -2.91,-1.29 -2.70,-1.25 -2.51,-1.15 -2.32,-1.05 -2.18,-0.90 -2.03,-0.74 -1.95,-0.55 -1.86,-0.35 -1.84,-0.14 -1.81,0.06 -1.86,0.27 -1.91,0.47 -2.02,0.65 -2.13,0.84 -2.29,0.97 -2.45,1.11 -2.65,1.19 -2.85,1.27 -3.06,1.28 -3.27,1.29 -3.48,1.23 -3.68,1.17 -3.86,1.05 -4.03,0.93 -4.16,0.76 -4.29,0.59 -4.35,0.39 -4.42,0.19 -4.42,-0.01 -4.42,-0.23 -4.35,-0.43 -4.28,-0.63 -4.15,-0.80 -4.02,-0.97 -3.85,-1.08 -3.67,-1.20 -3.47,-1.26 -3.26,-1.31 -3.05,-1.30 -2.84,-1.29 -2.64,-1.21 -2.44,-1.13 -2.28,-0.99 -2.12,-0.85 -2.01,-0.67 -1.90,-0.49 -1.86,-0.28 -1.81,-0.07 -1.84,0.13 -1.86,0.34 -1.95,0.53 -2.04,0.72 -2.19,0.88 -2.33,1.03 -2.52,1.13 -2.71,1.23 -2.92,1.26 -3.13,1.30 -3.13,1.30 -3.13,1.30 -5.47,1.43 -7.82,1.57 -8.00,1.49 -8.19,1.41 -8.35,1.29 -8.51,1.17 -8.64,1.02 -8.76,0.86 -8.85,0.68 -8.94,0.50 -8.98,0.30 -9.02,0.10 -9.01,-0.09 -9.00,-0.29 -8.95,-0.48 -8.89,-0.67 -8.79,-0.85 -8.69,-1.02 -8.56,-1.17 -8.42,-1.31 -8.25,-1.42 -8.08,-1.53 -7.89,-1.59 -7.70,-1.66 -7.50,-1.68 -7.30,-1.69 -7.10,-1.66 -6.90,-1.63 -5.01,-2.20 -3.12,-2.77 -0.28,-1.96 2.55,-1.14 4.84,1.14 7.13,3.42 8.38,7.65 9.62,11.88 8.11,15.97 6.59,20.06 3.81,22.41 1.03,24.75 -1.28,25.32 -3.59,25.89 -5.80,25.65 -8.01,25.41 -10.33,24.67 -12.64,23.92 -15.05,21.97 -17.45,20.02 -17.91,18.11 -18.36,16.20 -17.97,14.40 -17.58,12.61 -16.78,10.87 -15.98,9.13 -14.76,7.35 -13.55,5.56 -11.86,3.98 -10.17,2.40 -7.56,0.74 -4.96,-0.90 -2.76,-1.25 -0.57,-1.60 -0.37,-1.65 -0.17,-1.69 0.03,-1.69 0.23,-1.68 0.43,-1.63 0.63,-1.58 0.81,-1.48 0.99,-1.38 1.14,-1.24 1.29,-1.10 1.41,-0.93 1.52,-0.76 1.59,-0.57 1.66,-0.37 1.68,-0.17 1.70,0.03 1.67,0.23 1.64,0.43 1.57,0.62 1.49,0.81 1.37,0.98 1.25,1.15 1.10,1.28 0.94,1.42 0.76,1.51 0.57,1.60 0.57,1.60 L 0.57,1.60 Z"></path></g><g transform="translate(177.99530107678584 58.29051202708774) rotate(0 -1.9132396282918762 12.664908442815545)" stroke="none"><path fill="#1e1e1e" d="M 1.73,1.20 Q 1.73,1.20 -0.17,4.68 -2.09,8.16 -3.42,10.55 -4.75,12.94 -5.39,14.76 -6.02,16.57 -5.93,17.78 -5.83,19.00 -4.40,19.72 -2.97,20.44 -1.42,21.08 0.13,21.72 2.61,22.70 5.10,23.68 5.30,23.74 5.50,23.80 5.68,23.92 5.85,24.05 5.98,24.22 6.10,24.39 6.17,24.59 6.23,24.79 6.23,25.01 6.22,25.22 6.15,25.42 6.08,25.62 5.95,25.79 5.82,25.95 5.64,26.07 5.46,26.19 5.26,26.24 5.05,26.29 4.84,26.28 4.63,26.26 4.43,26.18 4.24,26.10 4.08,25.96 3.92,25.82 3.81,25.63 3.70,25.45 3.66,25.24 3.62,25.03 3.65,24.82 3.67,24.61 3.77,24.42 3.86,24.23 4.01,24.08 4.16,23.93 4.35,23.83 4.53,23.73 4.74,23.70 4.95,23.67 5.16,23.71 5.37,23.75 5.56,23.85 5.75,23.95 5.89,24.11 6.03,24.27 6.12,24.46 6.20,24.65 6.22,24.87 6.24,25.08 6.19,25.28 6.14,25.49 6.03,25.67 5.92,25.85 5.75,25.99 5.59,26.12 5.39,26.20 5.19,26.27 4.98,26.28 4.77,26.29 4.77,26.29 4.77,26.29 1.55,26.55 -1.66,26.81 -4.10,26.02 -6.54,25.22 -8.84,23.07 -11.14,20.92 -11.45,17.83 -11.75,14.75 -10.86,12.35 -9.96,9.96 -8.44,7.39 -6.91,4.82 -4.32,1.81 -1.73,-1.20 -1.56,-1.39 -1.40,-1.58 -1.18,-1.73 -0.97,-1.87 -0.74,-1.96 -0.50,-2.05 -0.24,-2.08 0.00,-2.11 0.25,-2.08 0.51,-2.05 0.74,-1.96 0.98,-1.87 1.19,-1.72 1.40,-1.58 1.57,-1.38 1.74,-1.19 1.86,-0.97 1.98,-0.74 2.04,-0.49 2.10,-0.25 2.10,0.00 2.10,0.25 2.03,0.50 1.97,0.75 1.85,0.98 1.73,1.20 1.73,1.20 L 1.73,1.20 Z"></path></g><g transform="translate(226.09805891277256 62.846220708888495) rotate(0 -15.76098510976459 14.304944414559031)" stroke="none"><path fill="#1e1e1e" d="M -0.29,1.71 Q -0.29,1.71 -2.85,1.90 -5.42,2.10 -7.27,1.71 -9.12,1.33 -10.60,1.14 -12.08,0.96 -13.48,0.88 -14.88,0.81 -16.19,0.97 -17.51,1.14 -18.70,1.73 -19.88,2.32 -21.15,3.13 -22.42,3.95 -23.55,5.01 -24.69,6.07 -25.78,7.98 -26.87,9.89 -27.29,11.42 -27.72,12.94 -27.40,15.46 -27.09,17.98 -25.71,20.29 -24.34,22.59 -22.23,24.00 -20.13,25.41 -18.43,26.16 -16.73,26.90 -14.88,27.07 -13.03,27.24 -11.15,27.05 -9.28,26.87 -9.10,26.76 -8.91,26.65 -8.71,26.60 -8.50,26.55 -8.29,26.57 -8.08,26.59 -7.88,26.68 -7.69,26.77 -7.53,26.91 -7.38,27.06 -7.28,27.24 -7.18,27.43 -7.14,27.64 -7.10,27.85 -7.13,28.06 -7.17,28.27 -7.26,28.46 -7.36,28.65 -7.51,28.79 -7.67,28.94 -7.86,29.03 -8.05,29.12 -8.26,29.15 -8.47,29.17 -8.68,29.13 -8.89,29.09 -9.07,28.98 -9.26,28.87 -9.39,28.71 -9.53,28.55 -9.61,28.35 -9.69,28.16 -9.71,27.95 -9.72,27.73 -9.67,27.53 -9.61,27.32 -9.50,27.15 -9.38,26.97 -9.21,26.84 -9.04,26.71 -8.84,26.64 -8.64,26.57 -8.43,26.57 -8.22,26.56 -8.01,26.63 -7.81,26.69 -7.64,26.82 -7.47,26.95 -7.35,27.12 -7.23,27.30 -7.17,27.50 -7.11,27.71 -7.12,27.92 -7.13,28.13 -7.21,28.33 -7.28,28.53 -7.42,28.69 -7.55,28.85 -7.55,28.85 -7.55,28.85 -10.53,30.90 -13.50,32.95 -16.29,32.68 -19.08,32.40 -21.40,31.36 -23.72,30.31 -26.62,28.00 -29.53,25.70 -31.33,22.21 -33.12,18.73 -33.36,15.02 -33.60,11.32 -32.87,9.04 -32.13,6.76 -30.50,4.17 -28.86,1.58 -27.28,0.17 -25.70,-1.22 -24.01,-2.26 -22.33,-3.30 -20.29,-4.11 -18.24,-4.92 -16.38,-5.10 -14.52,-5.28 -12.89,-5.16 -11.26,-5.05 -9.55,-4.80 -7.84,-4.56 -6.13,-4.16 -4.42,-3.77 -2.06,-2.74 0.29,-1.71 0.49,-1.65 0.69,-1.59 0.87,-1.48 1.05,-1.38 1.20,-1.23 1.35,-1.08 1.46,-0.91 1.57,-0.73 1.64,-0.53 1.70,-0.33 1.72,-0.12 1.73,0.08 1.70,0.28 1.66,0.49 1.58,0.68 1.49,0.88 1.37,1.04 1.24,1.21 1.08,1.34 0.91,1.47 0.72,1.56 0.53,1.65 0.33,1.69 0.12,1.73 -0.08,1.72 -0.29,1.71 -0.29,1.71 L -0.29,1.71 Z"></path></g><g transform="translate(261.08182184988414 36.24086285346743) rotate(0 -9.383687277041872 28.42764132814125)" stroke="none"><path fill="#1e1e1e" d="M 1.91,0.53 Q 1.91,0.53 1.51,3.46 1.12,6.40 -0.20,11.01 -1.53,15.61 -2.61,19.57 -3.69,23.52 -4.84,27.34 -5.99,31.17 -7.53,35.71 -9.07,40.26 -10.04,43.11 -11.00,45.95 -11.73,48.07 -12.45,50.18 -13.10,51.81 -13.74,53.45 -15.68,55.48 -17.61,57.50 -17.76,57.65 -17.91,57.80 -18.10,57.90 -18.29,57.99 -18.50,58.02 -18.71,58.05 -18.92,58.01 -19.13,57.97 -19.32,57.86 -19.50,57.76 -19.64,57.60 -19.79,57.44 -19.87,57.25 -19.95,57.05 -19.97,56.84 -19.99,56.63 -19.94,56.42 -19.89,56.22 -19.77,56.04 -19.66,55.86 -19.49,55.73 -19.33,55.59 -19.13,55.52 -18.93,55.45 -18.72,55.44 -18.50,55.43 -18.30,55.50 -18.10,55.56 -17.93,55.68 -17.75,55.81 -17.63,55.98 -17.50,56.15 -17.44,56.35 -17.38,56.56 -17.38,56.77 -17.39,56.98 -17.46,57.18 -17.54,57.38 -17.67,57.55 -17.80,57.71 -17.98,57.83 -18.16,57.94 -18.37,57.99 -18.57,58.04 -18.78,58.03 -19.00,58.01 -19.19,57.93 -19.39,57.84 -19.54,57.70 -19.70,57.56 -19.81,57.37 -19.91,57.19 -19.95,56.98 -19.99,56.77 -19.96,56.56 -19.94,56.35 -19.84,56.16 -19.75,55.97 -19.75,55.97 -19.75,55.97 -19.57,53.59 -19.39,51.22 -18.79,49.71 -18.19,48.20 -17.46,46.10 -16.74,44.01 -15.77,41.15 -14.79,38.30 -13.26,33.86 -11.72,29.42 -10.57,25.67 -9.41,21.92 -8.27,17.92 -7.13,13.92 -5.69,9.41 -4.26,4.91 -3.08,2.18 -1.91,-0.53 -1.82,-0.75 -1.73,-0.97 -1.59,-1.16 -1.44,-1.36 -1.26,-1.51 -1.08,-1.66 -0.86,-1.77 -0.64,-1.87 -0.41,-1.92 -0.18,-1.97 0.05,-1.97 0.29,-1.96 0.52,-1.90 0.75,-1.83 0.96,-1.71 1.17,-1.60 1.35,-1.43 1.52,-1.27 1.65,-1.07 1.78,-0.87 1.86,-0.64 1.94,-0.41 1.96,-0.18 1.98,0.05 1.95,0.29 1.91,0.53 1.91,0.53 L 1.91,0.53 Z"></path></g><g transform="translate(240.31015574341313 60.29504300078497) rotate(0 15.123238567000499 7.289133890881089)" stroke="none"><path fill="#1e1e1e" d="M 1.29,-1.15 Q 1.29,-1.15 2.53,-0.59 3.76,-0.04 5.87,0.98 7.97,2.02 12.48,4.46 16.99,6.90 19.73,8.09 22.47,9.28 24.21,9.75 25.96,10.21 27.97,11.62 29.98,13.03 30.17,13.12 30.36,13.21 30.52,13.36 30.67,13.51 30.77,13.69 30.87,13.88 30.90,14.09 30.94,14.30 30.90,14.51 30.87,14.72 30.77,14.91 30.67,15.10 30.52,15.24 30.36,15.39 30.17,15.48 29.97,15.57 29.76,15.59 29.55,15.61 29.34,15.56 29.14,15.52 28.96,15.41 28.77,15.30 28.64,15.14 28.50,14.97 28.42,14.78 28.34,14.58 28.33,14.37 28.32,14.16 28.38,13.95 28.43,13.75 28.55,13.57 28.67,13.39 28.84,13.27 29.01,13.14 29.21,13.07 29.42,13.00 29.63,13.00 29.84,13.00 30.04,13.07 30.24,13.14 30.41,13.27 30.58,13.40 30.70,13.57 30.82,13.75 30.87,13.95 30.93,14.16 30.92,14.37 30.91,14.58 30.83,14.78 30.75,14.98 30.61,15.14 30.47,15.30 30.29,15.41 30.11,15.52 29.90,15.57 29.69,15.61 29.48,15.59 29.27,15.56 29.27,15.56 29.27,15.56 26.83,15.73 24.40,15.91 22.25,15.30 20.10,14.70 17.13,13.38 14.16,12.07 9.67,9.60 5.17,7.12 2.38,5.47 -0.41,3.81 -0.85,2.48 -1.29,1.15 -1.41,0.98 -1.53,0.80 -1.61,0.61 -1.68,0.41 -1.71,0.21 -1.73,0.00 -1.71,-0.20 -1.68,-0.41 -1.61,-0.60 -1.53,-0.80 -1.42,-0.97 -1.30,-1.14 -1.14,-1.28 -0.98,-1.42 -0.80,-1.52 -0.61,-1.62 -0.41,-1.67 -0.21,-1.72 -0.00,-1.72 0.20,-1.72 0.41,-1.67 0.61,-1.62 0.79,-1.52 0.98,-1.43 1.14,-1.29 1.29,-1.15 1.29,-1.15 L 1.29,-1.15 Z"></path></g><g transform="translate(62.47574017419117 107.49226155905944) rotate(0 -2.550878431466458 16.947197988889116)" stroke="none"><path fill="#1e1e1e" d="M -1.61,-1.11 Q -1.61,-1.11 -0.95,-2.90 -0.28,-4.68 0.31,-5.42 0.91,-6.15 1.15,-6.42 1.39,-6.70 1.69,-6.90 1.99,-7.11 2.33,-7.24 2.67,-7.37 3.04,-7.42 3.40,-7.46 3.76,-7.42 4.12,-7.37 4.47,-7.24 4.81,-7.11 5.11,-6.91 5.41,-6.70 5.65,-6.43 5.89,-6.15 6.06,-5.83 6.23,-5.51 6.32,-5.15 6.41,-4.80 6.41,-4.43 6.41,-4.07 6.32,-3.71 6.23,-3.36 6.06,-3.03 5.89,-2.71 5.47,1.14 5.04,5.00 3.93,8.74 2.82,12.48 0.68,18.85 -1.46,25.22 -2.81,29.15 -4.16,33.08 -5.77,35.92 -7.39,38.76 -7.44,38.97 -7.49,39.18 -7.61,39.35 -7.72,39.53 -7.89,39.66 -8.06,39.80 -8.26,39.87 -8.46,39.94 -8.67,39.94 -8.88,39.95 -9.08,39.88 -9.29,39.82 -9.46,39.69 -9.63,39.57 -9.75,39.40 -9.88,39.22 -9.94,39.02 -10.00,38.81 -9.99,38.60 -9.98,38.39 -9.91,38.19 -9.83,37.99 -9.70,37.83 -9.56,37.66 -9.38,37.55 -9.20,37.44 -9.00,37.39 -8.79,37.34 -8.58,37.36 -8.37,37.38 -8.17,37.46 -7.98,37.55 -7.82,37.69 -7.66,37.83 -7.56,38.02 -7.46,38.20 -7.42,38.41 -7.38,38.62 -7.41,38.83 -7.44,39.04 -7.54,39.23 -7.63,39.42 -7.78,39.57 -7.94,39.72 -8.13,39.81 -8.32,39.91 -8.53,39.93 -8.74,39.96 -8.95,39.92 -9.16,39.88 -9.34,39.77 -9.53,39.66 -9.67,39.51 -9.81,39.35 -9.89,39.15 -9.97,38.95 -9.99,38.74 -10.00,38.53 -10.00,38.53 -10.00,38.53 -10.06,34.80 -10.12,31.07 -8.82,27.12 -7.51,23.17 -5.39,16.92 -3.26,10.66 -2.19,7.14 -1.13,3.62 -0.59,1.21 -0.05,-1.20 0.42,-3.67 0.91,-6.15 1.15,-6.42 1.39,-6.70 1.69,-6.90 1.99,-7.11 2.33,-7.24 2.67,-7.37 3.04,-7.42 3.40,-7.46 3.76,-7.42 4.12,-7.37 4.47,-7.24 4.81,-7.11 5.11,-6.91 5.41,-6.70 5.65,-6.43 5.89,-6.15 6.06,-5.83 6.23,-5.51 6.32,-5.15 6.41,-4.80 6.41,-4.43 6.41,-4.07 6.32,-3.71 6.23,-3.36 6.06,-3.03 5.89,-2.71 5.18,-2.05 4.47,-1.39 3.04,-0.13 1.61,1.11 1.46,1.29 1.30,1.46 1.10,1.60 0.91,1.73 0.69,1.82 0.47,1.90 0.23,1.93 0.00,1.96 -0.23,1.93 -0.46,1.90 -0.69,1.82 -0.91,1.74 -1.10,1.60 -1.30,1.47 -1.45,1.29 -1.61,1.11 -1.72,0.90 -1.83,0.69 -1.89,0.46 -1.95,0.23 -1.95,0.00 -1.95,-0.23 -1.89,-0.46 -1.83,-0.69 -1.72,-0.90 -1.61,-1.11 -1.61,-1.11 L -1.61,-1.11 Z"></path></g><g transform="translate(68.12419165579252 111.13673273597624) rotate(0 9.201463718196067 9.840359483246516)" stroke="none"><path fill="#1e1e1e" d="M -1.31,0.07 Q -1.31,0.07 -2.03,-1.66 -2.75,-3.41 -2.85,-4.55 -2.95,-5.70 -2.62,-7.86 -2.28,-10.02 -1.22,-11.46 -0.16,-12.91 1.50,-14.33 3.16,-15.76 4.66,-16.61 6.16,-17.46 7.96,-17.75 9.76,-18.05 11.40,-17.36 13.04,-16.67 14.22,-15.55 15.40,-14.43 16.38,-12.99 17.37,-11.55 18.24,-9.69 19.12,-7.83 19.80,-5.81 20.47,-3.79 20.56,0.56 20.64,4.92 20.33,8.10 20.02,11.28 19.54,14.83 19.05,18.38 18.20,22.00 17.34,25.61 16.53,27.91 15.71,30.22 15.11,31.80 14.51,33.37 12.91,34.35 11.31,35.32 11.24,35.46 11.16,35.60 11.06,35.72 10.95,35.84 10.82,35.93 10.69,36.02 10.54,36.08 10.39,36.13 10.24,36.15 10.08,36.17 9.92,36.15 9.76,36.13 9.62,36.07 9.47,36.02 9.34,35.93 9.21,35.84 9.10,35.72 9.00,35.60 8.93,35.46 8.85,35.32 8.82,35.16 8.78,35.01 8.78,34.85 8.78,34.69 8.82,34.54 8.86,34.39 8.91,34.97 8.97,35.55 8.89,35.36 8.81,35.16 8.79,34.95 8.77,34.74 8.83,34.53 8.88,34.32 9.00,34.15 9.11,33.97 9.28,33.84 9.45,33.71 9.65,33.63 9.85,33.56 10.06,33.56 10.27,33.56 10.48,33.62 10.68,33.68 10.85,33.81 11.02,33.94 11.14,34.11 11.27,34.28 11.33,34.49 11.39,34.69 11.38,34.90 11.37,35.12 11.29,35.31 11.22,35.51 11.08,35.68 10.95,35.84 10.77,35.95 10.59,36.07 10.38,36.12 10.18,36.16 9.96,36.15 9.75,36.13 9.56,36.04 9.36,35.95 9.21,35.81 9.05,35.67 8.95,35.48 8.85,35.30 8.81,35.09 8.77,34.88 8.80,34.67 8.83,34.46 8.93,34.27 9.02,34.08 9.18,33.93 9.33,33.78 9.52,33.69 9.71,33.60 9.92,33.57 10.13,33.54 10.34,33.58 10.55,33.63 10.73,33.73 10.92,33.84 11.11,34.58 11.31,35.32 11.24,35.46 11.16,35.60 11.06,35.72 10.95,35.84 10.82,35.93 10.69,36.02 10.54,36.08 10.39,36.13 10.24,36.15 10.08,36.17 9.92,36.15 9.76,36.13 9.62,36.07 9.47,36.02 9.34,35.93 9.21,35.84 9.10,35.72 9.00,35.60 8.93,35.46 8.85,35.32 8.82,35.16 8.78,35.01 8.78,34.85 8.78,34.69 8.82,34.54 8.86,34.39 8.97,32.84 9.09,31.30 9.68,29.78 10.26,28.26 11.00,26.25 11.74,24.25 12.56,20.91 13.39,17.57 13.90,14.14 14.41,10.71 14.73,7.82 15.04,4.93 15.10,1.42 15.17,-2.07 14.57,-3.78 13.97,-5.49 13.32,-6.98 12.67,-8.47 12.04,-9.48 11.41,-10.49 10.06,-11.53 8.71,-12.57 7.71,-12.06 6.71,-11.54 4.77,-9.76 2.84,-7.99 2.60,-6.95 2.36,-5.91 2.34,-4.81 2.33,-3.71 1.82,-1.89 1.31,-0.07 1.30,0.08 1.29,0.23 1.24,0.39 1.19,0.54 1.11,0.67 1.03,0.81 0.92,0.92 0.80,1.03 0.67,1.11 0.53,1.19 0.38,1.24 0.23,1.29 0.07,1.30 -0.08,1.31 -0.23,1.28 -0.39,1.25 -0.53,1.18 -0.68,1.12 -0.80,1.02 -0.93,0.92 -1.02,0.80 -1.12,0.67 -1.19,0.53 -1.25,0.38 -1.28,0.23 -1.31,0.07 -1.31,0.07 L -1.31,0.07 Z"></path></g><g transform="translate(89.98907940468371 112.77686447624365) rotate(0 9.201475689261486 15.489361633860426)" stroke="none"><path fill="#1e1e1e" d="M -1.32,-0.78 Q -1.32,-0.78 -1.17,-2.25 -1.02,-3.73 -0.02,-4.85 0.97,-5.96 2.54,-6.98 4.11,-7.99 5.88,-8.60 7.65,-9.22 10.16,-8.58 12.67,-7.94 14.85,-4.94 17.03,-1.93 18.17,0.83 19.30,3.60 19.99,5.97 20.68,8.33 21.00,10.81 21.32,13.30 21.02,15.67 20.71,18.04 19.96,20.47 19.21,22.90 18.21,25.55 17.20,28.19 16.37,30.34 15.53,32.49 15.15,33.64 14.76,34.79 14.31,36.05 13.85,37.30 13.95,37.49 14.05,37.68 14.08,37.89 14.11,38.10 14.08,38.31 14.04,38.52 13.94,38.71 13.84,38.89 13.68,39.04 13.53,39.18 13.33,39.27 13.14,39.36 12.93,39.38 12.72,39.40 12.51,39.35 12.30,39.30 12.12,39.19 11.94,39.08 11.81,38.92 11.67,38.76 11.59,38.56 11.52,38.36 11.51,38.15 11.50,37.93 11.56,37.73 11.61,37.53 11.74,37.35 11.86,37.18 12.03,37.05 12.20,36.92 12.40,36.86 12.60,36.79 12.81,36.79 13.03,36.79 13.23,36.86 13.43,36.93 13.60,37.06 13.76,37.19 13.88,37.37 14.00,37.55 14.05,37.75 14.11,37.96 14.10,38.17 14.08,38.38 14.00,38.58 13.92,38.78 13.78,38.94 13.64,39.10 13.46,39.21 13.28,39.31 13.07,39.36 12.86,39.40 12.65,39.38 12.44,39.35 12.25,39.26 12.05,39.17 11.90,39.02 11.75,38.87 11.75,38.87 11.75,38.87 10.57,35.94 9.39,33.01 9.82,31.72 10.25,30.43 11.09,28.30 11.93,26.17 12.88,23.68 13.84,21.19 14.50,19.19 15.16,17.19 15.47,15.55 15.77,13.91 15.55,11.88 15.33,9.84 14.74,7.74 14.16,5.64 13.28,3.33 12.40,1.02 11.32,-1.03 10.24,-3.08 8.63,-3.12 7.02,-3.17 5.38,-2.02 3.75,-0.87 2.53,-0.04 1.32,0.78 1.21,0.93 1.09,1.07 0.95,1.19 0.80,1.30 0.64,1.38 0.47,1.46 0.29,1.49 0.10,1.53 -0.07,1.52 -0.26,1.51 -0.43,1.46 -0.61,1.40 -0.77,1.31 -0.93,1.22 -1.06,1.09 -1.20,0.96 -1.29,0.80 -1.39,0.64 -1.45,0.46 -1.51,0.29 -1.52,0.10 -1.53,-0.07 -1.50,-0.26 -1.47,-0.44 -1.39,-0.61 -1.32,-0.78 -1.32,-0.78 L -1.32,-0.78 Z"></path></g><g transform="translate(136.087569630414 130.9996034349224) rotate(0 7.197172165808695 5.74017378536405)" stroke="none"><path fill="#1e1e1e" d="M 1.02,-1.26 Q 1.02,-1.26 3.24,-0.06 5.46,1.13 6.67,1.60 7.89,2.06 9.50,1.82 11.12,1.57 12.89,0.64 14.66,-0.29 15.73,-1.27 16.80,-2.26 17.58,-3.46 18.35,-4.65 18.85,-6.00 19.34,-7.34 16.56,-8.42 13.79,-9.49 11.88,-9.42 9.97,-9.35 8.15,-9.12 6.33,-8.90 5.07,-8.37 3.81,-7.84 2.28,-6.32 0.76,-4.79 -0.66,-2.51 -2.09,-0.23 -3.03,3.07 -3.97,6.37 -4.17,9.13 -4.38,11.90 -3.99,13.59 -3.61,15.28 -2.92,16.61 -2.23,17.93 -1.41,18.82 -0.59,19.71 0.59,20.10 1.77,20.48 3.50,20.63 5.22,20.78 6.48,20.63 7.75,20.47 9.64,19.71 11.54,18.94 14.94,19.01 18.34,19.07 18.56,19.07 18.77,19.08 18.97,19.15 19.17,19.21 19.34,19.34 19.51,19.47 19.63,19.65 19.74,19.83 19.80,20.03 19.85,20.24 19.84,20.45 19.83,20.66 19.75,20.86 19.67,21.06 19.53,21.22 19.39,21.38 19.21,21.49 19.02,21.59 18.82,21.64 18.61,21.68 18.40,21.66 18.19,21.63 17.99,21.54 17.80,21.45 17.65,21.30 17.50,21.16 17.40,20.97 17.30,20.78 17.27,20.57 17.23,20.36 17.27,20.15 17.31,19.94 17.41,19.75 17.51,19.57 17.66,19.42 17.82,19.28 18.01,19.19 18.21,19.10 18.42,19.08 18.63,19.06 18.84,19.11 19.04,19.15 19.22,19.26 19.41,19.38 19.54,19.54 19.68,19.70 19.75,19.90 19.83,20.10 19.84,20.31 19.85,20.52 19.79,20.73 19.74,20.93 19.61,21.11 19.49,21.28 19.32,21.41 19.15,21.54 18.95,21.60 18.75,21.67 18.75,21.67 18.75,21.67 16.22,23.02 13.70,24.37 12.44,24.86 11.18,25.36 9.76,25.80 8.34,26.25 6.44,26.40 4.54,26.55 2.02,26.18 -0.49,25.81 -2.63,24.73 -4.76,23.64 -6.09,22.06 -7.42,20.48 -8.34,18.46 -9.26,16.43 -9.69,13.95 -10.12,11.46 -9.79,8.08 -9.46,4.70 -8.14,0.72 -6.83,-3.26 -4.93,-6.06 -3.02,-8.86 -0.66,-10.90 1.69,-12.94 3.67,-13.66 5.64,-14.38 7.73,-14.62 9.83,-14.86 12.20,-14.90 14.58,-14.94 17.35,-14.48 20.11,-14.03 22.04,-12.85 23.96,-11.68 24.48,-9.94 25.00,-8.20 24.66,-6.79 24.33,-5.38 23.55,-3.51 22.77,-1.63 21.54,0.05 20.32,1.74 18.65,3.12 16.98,4.49 14.28,5.66 11.58,6.83 8.83,6.86 6.09,6.89 4.18,6.02 2.28,5.14 0.63,3.20 -1.02,1.26 -1.15,1.12 -1.29,0.98 -1.39,0.81 -1.49,0.64 -1.54,0.45 -1.60,0.26 -1.61,0.07 -1.62,-0.12 -1.58,-0.31 -1.54,-0.50 -1.45,-0.68 -1.37,-0.86 -1.25,-1.01 -1.12,-1.16 -0.97,-1.28 -0.81,-1.40 -0.63,-1.48 -0.45,-1.55 -0.26,-1.59 -0.07,-1.62 0.12,-1.60 0.31,-1.59 0.50,-1.53 0.69,-1.47 0.85,-1.36 1.02,-1.26 1.02,-1.26 L 1.02,-1.26 Z"></path></g><g transform="translate(204.96194568860983 116.42133565315999) rotate(0 -11.66127825450144 16.947245873151132)" stroke="none"><path fill="#1e1e1e" d="M 1.25,1.01 Q 1.25,1.01 0.18,3.25 -0.89,5.50 -2.03,7.01 -3.17,8.52 -4.34,10.30 -5.51,12.09 -7.37,14.91 -9.22,17.72 -11.15,20.76 -13.07,23.80 -14.32,25.78 -15.56,27.76 -16.71,29.64 -17.86,31.51 -19.97,32.99 -22.07,34.47 -22.24,34.60 -22.40,34.73 -22.60,34.81 -22.80,34.88 -23.01,34.89 -23.23,34.89 -23.43,34.83 -23.63,34.77 -23.81,34.64 -23.98,34.52 -24.10,34.35 -24.23,34.18 -24.29,33.97 -24.35,33.77 -24.35,33.56 -24.34,33.34 -24.27,33.15 -24.19,32.95 -24.06,32.78 -23.93,32.61 -23.75,32.50 -23.57,32.38 -23.36,32.33 -23.16,32.28 -22.95,32.30 -22.73,32.32 -22.54,32.40 -22.34,32.48 -22.19,32.63 -22.03,32.77 -21.92,32.95 -21.82,33.14 -21.78,33.35 -21.74,33.55 -21.77,33.76 -21.79,33.98 -21.89,34.17 -21.98,34.36 -22.13,34.51 -22.28,34.66 -22.47,34.75 -22.66,34.85 -22.87,34.87 -23.08,34.90 -23.29,34.86 -23.50,34.82 -23.69,34.72 -23.87,34.62 -24.01,34.46 -24.16,34.30 -24.24,34.10 -24.32,33.91 -24.34,33.70 -24.36,33.49 -24.31,33.28 -24.26,33.07 -24.14,32.89 -24.03,32.71 -24.03,32.71 -24.03,32.71 -23.41,30.60 -22.80,28.49 -21.63,26.58 -20.45,24.68 -19.20,22.69 -17.95,20.70 -15.96,17.60 -13.98,14.50 -12.07,11.76 -10.16,9.01 -8.87,7.08 -7.58,5.16 -6.38,3.60 -5.18,2.04 -3.22,0.51 -1.25,-1.01 -1.11,-1.15 -0.98,-1.28 -0.81,-1.38 -0.64,-1.48 -0.45,-1.53 -0.26,-1.59 -0.07,-1.60 0.11,-1.61 0.31,-1.57 0.50,-1.53 0.67,-1.45 0.85,-1.37 1.00,-1.25 1.15,-1.12 1.27,-0.97 1.39,-0.81 1.47,-0.63 1.55,-0.46 1.58,-0.26 1.61,-0.07 1.60,0.11 1.58,0.31 1.52,0.49 1.46,0.68 1.36,0.84 1.25,1.01 1.25,1.01 L 1.25,1.01 Z"></path></g><g transform="translate(168.1560429315639 172.36538080455875) rotate(0 0.36442317556065973 2.095654724185465)" stroke="none"><path fill="#1e1e1e" d="M 1.57,0.13 Q 1.57,0.13 1.87,1.41 2.16,2.70 2.36,3.18 2.55,3.66 2.55,3.95 2.55,4.24 2.48,4.52 2.41,4.80 2.27,5.05 2.13,5.31 1.94,5.53 1.74,5.74 1.50,5.90 1.27,6.07 0.99,6.17 0.72,6.27 0.43,6.30 0.15,6.33 -0.13,6.29 -0.42,6.26 -0.69,6.15 -0.96,6.05 -1.20,5.88 -1.43,5.71 -1.62,5.49 -1.81,5.28 -1.95,5.02 -2.08,4.76 -2.14,4.48 -2.21,4.20 -1.68,3.03 -1.15,1.85 -1.27,0.91 -1.39,-0.02 -1.29,-0.30 -1.18,-0.58 -1.02,-0.83 -0.85,-1.07 -0.63,-1.27 -0.41,-1.47 -0.14,-1.61 0.11,-1.75 0.40,-1.83 0.69,-1.90 0.98,-1.90 1.28,-1.90 1.57,-1.83 1.86,-1.76 2.13,-1.63 2.39,-1.49 2.61,-1.30 2.84,-1.10 3.01,-0.86 3.18,-0.61 3.29,-0.34 3.39,-0.06 3.43,0.23 3.47,0.52 3.44,0.82 3.40,1.11 1.66,0.51 -0.08,-0.08 -0.33,-0.44 -0.59,-0.79 -0.44,-1.05 -0.29,-1.31 -0.08,-1.53 0.11,-1.75 0.37,-1.91 0.62,-2.07 0.90,-2.17 1.19,-2.27 1.49,-2.29 1.79,-2.32 2.08,-2.27 2.38,-2.23 2.66,-2.11 2.94,-1.99 3.18,-1.82 3.42,-1.64 3.61,-1.40 3.80,-1.17 3.93,-0.90 4.06,-0.63 4.12,-0.34 4.19,-0.04 4.18,0.25 4.17,0.55 4.08,0.84 4.00,1.12 3.01,1.29 2.02,1.46 1.98,1.62 1.94,1.77 1.87,1.91 1.79,2.05 1.69,2.16 1.58,2.28 1.45,2.37 1.32,2.46 1.17,2.51 1.02,2.56 0.86,2.58 0.70,2.60 0.55,2.58 0.39,2.56 0.24,2.50 0.10,2.44 -0.02,2.35 -0.15,2.25 -0.26,2.13 -0.36,2.01 -0.43,1.87 -0.50,1.73 -0.54,1.58 -0.57,1.42 -0.57,1.27 -0.57,1.11 -0.56,1.32 -0.56,1.53 -0.56,1.32 -0.57,1.11 -0.51,0.90 -0.44,0.70 -0.32,0.53 -0.20,0.36 -0.02,0.23 0.14,0.11 0.34,0.05 0.55,-0.01 0.76,-0.00 0.97,0.00 1.17,0.07 1.37,0.14 1.54,0.28 1.70,0.41 1.82,0.59 1.93,0.77 1.98,0.97 2.03,1.18 2.01,1.39 2.00,1.60 1.91,1.80 1.83,1.99 1.69,2.15 1.54,2.31 1.36,2.41 1.17,2.52 0.97,2.56 0.76,2.60 0.55,2.57 0.34,2.54 0.15,2.45 -0.03,2.35 -0.18,2.20 -0.33,2.05 -0.43,1.86 -0.52,1.67 -0.55,1.46 -0.58,1.25 -0.54,1.04 -0.50,0.83 -0.39,0.65 -0.29,0.46 -0.13,0.32 0.02,0.18 0.21,0.09 0.41,0.01 0.62,-0.00 0.83,-0.01 1.04,0.03 1.24,0.08 1.42,0.19 1.60,0.31 1.73,0.47 1.87,0.64 1.95,1.05 2.02,1.46 1.98,1.62 1.94,1.77 1.87,1.91 1.79,2.05 1.69,2.16 1.58,2.28 1.45,2.37 1.32,2.46 1.17,2.51 1.02,2.56 0.86,2.58 0.70,2.60 0.55,2.58 0.39,2.56 0.24,2.50 0.10,2.44 -0.02,2.35 -0.15,2.25 -0.26,2.13 -0.36,2.01 -0.43,1.87 -0.50,1.73 -0.54,1.58 -0.57,1.42 -0.57,1.27 -0.57,1.11 -0.58,0.15 -0.59,-0.79 -0.44,-1.05 -0.29,-1.31 -0.08,-1.53 0.11,-1.75 0.37,-1.91 0.62,-2.07 0.90,-2.17 1.19,-2.27 1.49,-2.29 1.79,-2.32 2.08,-2.27 2.38,-2.23 2.66,-2.11 2.94,-1.99 3.18,-1.82 3.42,-1.64 3.61,-1.41 3.80,-1.17 3.93,-0.90 4.06,-0.63 4.12,-0.34 4.19,-0.04 4.18,0.25 4.17,0.55 4.08,0.84 4.00,1.12 3.92,1.36 3.85,1.59 2.79,2.66 1.74,3.72 0.21,3.17 -1.31,2.62 -1.35,1.29 -1.39,-0.02 -1.29,-0.30 -1.18,-0.58 -1.02,-0.83 -0.85,-1.07 -0.63,-1.27 -0.41,-1.47 -0.14,-1.61 0.11,-1.75 0.40,-1.83 0.69,-1.90 0.98,-1.90 1.28,-1.90 1.57,-1.83 1.86,-1.77 2.12,-1.63 2.39,-1.49 2.61,-1.30 2.84,-1.10 3.01,-0.86 3.18,-0.61 3.29,-0.34 3.39,-0.06 3.43,0.23 3.47,0.52 3.44,0.82 3.40,1.11 2.98,2.39 2.55,3.66 2.55,3.95 2.55,4.24 2.48,4.52 2.41,4.80 2.27,5.05 2.13,5.31 1.94,5.52 1.74,5.74 1.51,5.90 1.27,6.07 0.99,6.17 0.72,6.27 0.43,6.30 0.15,6.33 -0.13,6.29 -0.42,6.26 -0.69,6.15 -0.96,6.05 -1.20,5.88 -1.43,5.71 -1.62,5.49 -1.81,5.28 -1.94,5.02 -2.08,4.76 -2.14,4.48 -2.21,4.20 -2.39,3.26 -2.58,2.32 -2.07,1.09 -1.57,-0.13 -1.53,-0.31 -1.49,-0.50 -1.41,-0.67 -1.33,-0.84 -1.21,-0.99 -1.09,-1.14 -0.94,-1.25 -0.78,-1.37 -0.61,-1.44 -0.43,-1.52 -0.24,-1.55 -0.05,-1.58 0.13,-1.56 0.32,-1.54 0.50,-1.48 0.68,-1.42 0.84,-1.32 1.00,-1.22 1.13,-1.08 1.26,-0.94 1.36,-0.78 1.45,-0.61 1.51,-0.43 1.56,-0.24 1.57,-0.05 1.57,0.13 1.57,0.13 L 1.57,0.13 Z"></path></g></svg>