<svg width="588" height="541" viewBox="0 0 588 541" fill="none" xmlns="http://www.w3.org/2000/svg">
<g clip-path="url(#clip0_149_1905)">
<path d="M140.033 371.066C139.417 371.066 138.812 371.13 138.219 371.257L138.083 371.288C135.236 371.967 133.199 373.805 131.974 376.803C131.895 376.998 131.819 377.197 131.748 377.4C131.653 377.673 131.577 377.953 131.522 378.237C129.14 390.54 126.633 399.656 124.003 405.585C118.075 418.899 114.599 426.915 113.576 429.635H113.571C113.241 430.25 112.974 430.698 112.769 430.979H112.764C110.434 432.692 109.635 435.894 111.011 438.539C112.074 440.584 114.156 441.755 116.311 441.755C117.239 441.755 118.181 441.538 119.061 441.08C119.983 440.6 120.842 439.904 121.636 438.992C122.505 437.994 123.408 436.596 124.346 434.796C124.479 434.542 124.593 434.278 124.687 434.008C125.354 432.104 128.762 424.246 134.912 410.434L134.915 410.427C137.579 404.422 140.068 395.876 142.382 384.789H142.387C143.898 386.043 145.816 387.911 148.14 390.394C153.691 396.471 159.375 403.576 165.193 411.708C165.32 411.886 165.458 412.057 165.604 412.22L170.989 418.225L177.897 429.023C179.036 430.804 180.963 431.776 182.931 431.776C184.032 431.776 185.145 431.472 186.142 430.835C188.919 429.058 189.73 425.367 187.953 422.59L180.784 411.383C180.61 411.112 180.415 410.855 180.2 410.615L174.737 404.524H174.732C168.679 396.08 162.736 388.667 156.903 382.287L156.855 382.235C151.196 376.191 146.578 372.623 143.001 371.532C141.985 371.221 140.995 371.066 140.033 371.066Z" fill="black"/>
<path d="M133.066 287.579C132.908 287.579 132.748 287.585 132.588 287.598C129.302 287.858 126.849 290.733 127.109 294.019C127.394 297.617 127.625 299.914 127.804 300.91H127.801C127.966 302.059 128.327 303.889 128.883 306.4H128.877C128.917 306.665 128.982 307.161 129.072 307.888H129.067C129.471 313.598 129.789 317.571 130.021 319.807H130.019C130.146 321.337 130.803 326.951 131.991 336.648C132.147 338.019 132.259 339.379 132.326 340.728C132.394 342.087 132.417 343.434 132.394 344.771C131.987 356.342 131.774 362.769 131.757 364.051L131.756 364.115C131.754 365.187 131.539 367.508 131.114 371.076C131.102 371.178 131.092 371.28 131.086 371.382C130.977 372.998 130.994 374.545 131.137 376.024C131.436 379.11 134.034 381.418 137.071 381.418C137.264 381.418 137.458 381.409 137.653 381.39C140.935 381.073 143.337 378.155 143.02 374.874C142.946 374.111 142.933 373.29 142.983 372.411H142.978C143.445 368.481 143.684 365.748 143.694 364.21C143.71 363.012 143.921 356.636 144.328 345.082L144.33 344.972C144.357 343.37 144.33 341.757 144.249 340.133C144.169 338.514 144.034 336.883 143.846 335.242L143.84 335.197C142.624 325.265 141.983 319.81 141.917 318.833C141.916 318.83 141.916 318.827 141.916 318.823C141.911 318.739 141.904 318.656 141.895 318.573C141.673 316.435 141.361 312.51 140.958 306.797C140.951 306.693 140.941 306.59 140.928 306.486C140.792 305.388 140.689 304.636 140.619 304.231C140.593 304.082 140.566 303.945 140.538 303.819C140.018 301.47 139.707 299.907 139.606 299.13C139.592 299.021 139.575 298.913 139.555 298.805C139.445 298.194 139.264 296.285 139.01 293.077C138.762 289.951 136.149 287.579 133.066 287.579Z" fill="black"/>
<path d="M129.88 287.579C127.589 287.579 125.403 288.906 124.417 291.137C123.053 294.224 121.294 299.392 119.141 306.641H119.138C118.788 307.735 117.734 311.583 115.974 318.185H115.971C113.542 326.278 112.216 330.758 111.993 331.627C111.963 331.742 111.936 331.855 111.913 331.966H111.908C111.236 334.557 110.794 336.513 110.585 337.835C110.068 341.09 112.288 344.149 115.544 344.666C115.861 344.716 116.176 344.741 116.487 344.741C119.371 344.741 121.908 342.646 122.375 339.707C122.53 338.73 122.912 337.075 123.521 334.743C123.534 334.695 123.546 334.646 123.557 334.598H123.555C123.74 333.877 125.041 329.491 127.459 321.439C127.476 321.379 127.493 321.32 127.509 321.26C129.228 314.813 130.221 311.173 130.488 310.34C130.523 310.241 130.555 310.141 130.585 310.04C132.593 303.278 134.177 298.586 135.337 295.963C136.669 292.947 135.305 289.422 132.29 288.09C131.505 287.743 130.686 287.579 129.88 287.579Z" fill="black"/>
<path d="M163.629 280.964C163.339 280.964 163.046 280.985 162.75 281.029C159.714 281.476 157.729 281.804 156.794 282.01H156.789C155.899 282.182 154.05 282.632 151.241 283.362H151.236C150.542 283.514 149.82 283.656 149.071 283.787L149.006 283.799C148.423 283.908 147.396 284.063 145.927 284.264H145.925C144.691 284.419 143.468 284.551 142.255 284.658C142.187 284.664 142.117 284.672 142.049 284.68C141.468 284.752 140.878 284.847 140.278 284.965L140.218 284.977C138.512 285.316 136.728 285.839 134.869 286.548C131.788 287.722 130.242 291.171 131.416 294.251C132.324 296.633 134.59 298.097 136.995 298.097C137.702 298.097 138.42 297.97 139.12 297.704C140.366 297.229 141.517 296.887 142.574 296.68L142.632 296.668L142.637 296.667H142.64C142.905 296.616 143.164 296.574 143.416 296.541H143.411C144.756 296.42 146.113 296.273 147.485 296.1L147.546 296.092C149.161 295.871 150.357 295.689 151.134 295.546H151.132C152.113 295.374 153.058 295.187 153.968 294.984C154.035 294.969 154.104 294.952 154.2 294.927L154.219 294.922C156.855 294.238 158.448 293.844 158.997 293.742H158.994C159.128 293.72 159.26 293.693 159.348 293.672L159.352 293.671L159.392 293.662C159.928 293.536 161.628 293.261 164.492 292.839C167.753 292.358 170.007 289.324 169.526 286.063C169.089 283.097 166.54 280.964 163.629 280.964Z" fill="black"/>
<path d="M106.668 325.702C108.525 325.702 109.994 326.675 111.076 328.621C109.958 326.888 108.051 325.887 106.059 325.887C105.48 325.887 104.894 325.972 104.318 326.147H104.315C105.158 325.851 105.943 325.702 106.668 325.702ZM102.994 326.735C101.248 327.78 100.128 329.667 100.092 331.75H100.088C100.088 329.479 101.055 327.807 102.989 326.735H102.994ZM102.996 318.898C102.225 318.898 101.44 319.049 100.684 319.367C97.6456 320.645 96.2185 324.145 97.497 327.184C99.178 331.179 100.211 333.563 100.595 334.333C100.857 334.859 101.139 335.328 101.441 335.741H101.436C104.986 341.589 107.849 346.582 110.025 350.719L109.803 350.248L110.05 350.766C110.557 351.709 111.003 352.626 111.39 353.516H111.385C111.452 354.101 111.608 354.687 111.859 355.254C112.215 356.059 112.478 356.631 112.649 356.969C113.866 359.384 115.524 360.592 117.622 360.592C118.42 360.592 119.281 360.418 120.206 360.069L120.247 360.053C123.764 358.698 124.925 356.157 123.73 352.432C123.57 351.935 123.203 350.939 122.628 349.444L122.562 349.281C121.998 347.935 121.341 346.562 120.591 345.162C118.207 340.629 115.069 335.171 111.178 328.786H111.173C110.809 328.001 109.918 325.923 108.501 322.554C107.541 320.272 105.327 318.898 102.996 318.898Z" fill="black"/>
<path d="M99.0719 314.488C99.0744 314.501 99.077 314.513 99.0796 314.526H99.0749C99.0437 314.723 99.0224 314.922 99.0112 315.122C99.0153 314.912 99.034 314.7 99.0672 314.488H99.0719ZM104.427 305.166C104.028 305.166 103.622 305.206 103.217 305.29C100.092 305.934 98.0268 308.92 98.5266 312.071C98.7932 313.751 98.9533 314.852 99.0071 315.373H99.0024C99.0014 315.443 99.0016 315.513 99.0031 315.583C99.0157 316.184 98.9323 316.809 98.7531 317.456C98.7444 317.487 98.7355 317.517 98.7264 317.547C98.7125 317.545 98.6986 317.542 98.6845 317.539H98.6798C98.233 317.405 97.9067 317.282 97.7012 317.17H97.6965C97.5857 317.06 97.4707 316.954 97.3517 316.853H97.347C96.9637 316.361 96.3367 315.346 95.4662 313.807C94.3682 311.866 92.3467 310.776 90.2655 310.776C89.2697 310.776 88.2603 311.026 87.3317 311.551C85.2186 312.747 84.1139 315.037 84.3269 317.308H84.3224C83.3769 318.456 82.8567 319.958 82.9798 321.558C83.2069 324.514 84.64 326.889 87.2792 328.684C88.3856 329.437 89.7016 330.057 91.2264 330.544C93.2774 331.208 95.358 331.576 97.4686 331.649C97.5692 331.652 97.6699 331.653 97.7365 331.653C97.8147 331.653 97.846 331.652 97.7755 331.652H97.7708C97.7486 331.652 97.7172 331.652 97.6753 331.652L98.241 331.626C99.162 331.538 99.9896 331.398 100.724 331.207C101.885 330.904 102.89 330.45 103.739 329.844H103.734C104.359 329.411 104.944 328.948 105.489 328.457H105.484C106.788 327.815 107.889 326.923 108.787 325.781H108.782C109.231 325.255 109.618 324.634 109.942 323.92C110.129 323.51 110.33 323.001 110.547 322.393L110.562 322.349C111.668 319.168 111.55 314.939 110.206 309.663C109.522 306.973 107.102 305.166 104.427 305.166Z" fill="black"/>
<path d="M118.909 350.358C118.523 350.358 118.136 350.378 117.749 350.418C117.674 350.426 117.601 350.435 117.526 350.446C113.171 351.061 109.507 353.616 106.534 358.109C106.004 358.91 105.685 359.811 105.581 360.733H105.576C104.946 362.522 105.19 364.559 106.333 366.17H106.329C106.818 369.011 109.294 371.118 112.204 371.118C112.326 371.118 112.449 371.115 112.573 371.107C115.624 370.921 118.001 368.474 118.17 365.495H118.165C118.198 365.494 118.231 365.494 118.264 365.493H118.269C118.59 365.554 119.106 365.732 119.817 366.026C119.844 366.037 119.87 366.048 119.897 366.058H119.892C120.095 366.159 120.451 366.349 120.958 366.627H120.953C121.577 367.003 122.182 367.403 122.771 367.825C122.854 367.885 122.939 367.942 123.025 367.998C123.211 368.118 123.391 368.228 123.564 368.328C124.084 368.629 124.587 368.865 125.072 369.036C125.819 369.299 126.556 369.43 127.282 369.43C128.061 369.43 128.827 369.278 129.581 368.976C133.394 367.443 134.498 364.682 132.893 360.693C132.806 360.475 132.706 360.264 132.593 360.058C130.897 356.953 128.761 354.536 126.187 352.806H126.183C124.738 351.794 123.244 351.095 121.702 350.708C120.774 350.475 119.842 350.358 118.909 350.358Z" fill="black"/>
<path d="M132.583 236.81L132.012 236.823C130.469 236.892 128.767 237.236 126.906 237.854C123.819 237.291 120.709 237.309 117.577 237.907C114.612 238.473 111.687 239.754 108.8 241.749C106.334 243.771 104.452 246.087 103.152 248.697C101.642 252.199 100.871 254.42 100.839 255.36C100.494 256.99 100.262 258.72 100.142 260.55C100.07 261.861 100.169 263.167 100.438 264.467C100.544 265.436 101.139 267.154 102.223 269.619C102.158 270.53 102.582 272.781 103.495 276.373C104.366 279.134 105.642 281.573 107.323 283.691C108.008 284.63 109.105 285.729 110.611 286.988C111.353 287.591 113.191 288.592 116.127 289.991C119.729 291.534 123.401 292.305 127.141 292.305C133.713 292.299 139.954 290.11 145.865 285.738C151.234 281.44 154.283 275.553 155.01 268.077C155.246 264.875 155.237 262.917 154.985 262.203C154.485 259.661 154.103 258.164 153.838 257.71C153.745 257.2 153.055 255.805 151.768 253.526C151.207 252.631 150.574 251.758 149.869 250.908C149.041 248.575 148.243 246.927 147.476 245.966C145.754 243.555 143.624 241.53 141.086 239.892C137.379 237.602 134.544 236.575 132.583 236.81Z" fill="black"/>
<path d="M184.393 279.663C183.92 279.663 183.441 279.719 182.961 279.837C175.335 281.714 170.681 282.695 169 282.778C168.892 282.783 168.782 282.792 168.675 282.803C167.324 282.944 166.068 283.05 164.906 283.119L164.808 283.126C164.263 283.167 162.645 283.23 159.957 283.315C159.877 283.318 159.797 283.322 159.717 283.328L154.489 283.703L154.48 283.704C154.202 283.725 153.896 283.735 153.561 283.735C152.723 283.735 151.707 283.671 150.513 283.542C150.296 283.519 150.081 283.508 149.867 283.508C146.857 283.508 144.269 285.778 143.94 288.839C143.587 292.117 145.959 295.059 149.237 295.412C150.843 295.585 152.293 295.671 153.585 295.671C154.208 295.671 154.795 295.651 155.345 295.611L160.451 295.244H160.445C163.158 295.158 164.89 295.088 165.642 295.035H165.636C166.932 294.957 168.311 294.843 169.773 294.692H169.768C172.292 294.529 177.641 293.441 185.815 291.429C189.016 290.641 190.972 287.407 190.184 284.206C189.514 281.484 187.076 279.663 184.393 279.663Z" fill="black"/>
<path d="M74.6636 419.196C73.8191 419.866 73.2009 420.724 72.8269 421.668C73.0963 420.753 73.707 419.929 74.6591 419.196H74.6636ZM72.7433 423.594C72.8405 423.848 72.9083 424.046 72.9466 424.19C73.0654 424.719 73.255 425.23 73.5119 425.708C73.1127 424.965 72.855 424.261 72.7389 423.594H72.7433ZM55.9913 383.279C55.8902 383.279 55.789 383.281 55.6877 383.285C55.308 383.3 54.93 383.351 54.5601 383.438C52.5112 383.92 50.7925 385.133 49.4037 387.078C48.617 388.18 47.9262 389.556 47.331 391.206L47.3049 391.28C46.2408 394.356 45.1342 397.75 43.9852 401.463C43.9528 401.567 43.9234 401.673 43.8968 401.779C42.2317 408.436 40.8514 413.228 39.7558 416.157C39.7286 416.229 39.703 416.302 39.6787 416.376C37.7473 422.221 36.211 425.928 35.0697 427.497C33.1301 430.162 33.7186 433.896 36.3842 435.835C37.4443 436.607 38.6734 436.978 39.8913 436.978C41.7357 436.978 43.5546 436.126 44.7228 434.521C46.5778 431.972 48.6528 427.238 50.948 420.321H50.9442C52.1822 417.007 53.6741 411.869 55.4198 404.909H55.4155C56.13 402.602 56.8261 400.426 57.5037 398.383H57.508C61.1493 402.395 63.2995 404.924 63.9585 405.971H63.9542C63.9939 406.055 64.0356 406.137 64.0792 406.219C68.4985 414.501 71.0925 419.6 71.861 421.516C71.8818 421.568 71.9035 421.62 71.9035 421.62L71.9543 421.736C72.1616 422.198 72.3376 422.602 72.4823 422.947H72.4779C72.2467 424.421 72.5645 425.984 73.4895 427.301C74.6513 428.956 76.5009 429.841 78.3802 429.841C79.5648 429.841 80.7613 429.49 81.8045 428.757C84.8873 426.593 85.7563 423.956 84.4114 420.847H84.4068C84.1255 419.885 83.6277 418.603 82.9133 416.999H82.9112C81.9629 414.664 79.2424 409.283 74.7498 400.858H74.7454C74.6003 400.538 74.4263 400.21 74.2233 399.874C73.0547 397.937 69.4079 393.65 63.2828 387.013C63.2416 386.969 63.1998 386.925 63.1573 386.881C62.3889 386.098 61.6365 385.452 60.9001 384.941C59.3003 383.833 57.6637 383.279 55.9913 383.279Z" fill="black"/>
<path d="M46.2496 293.142C44.8757 293.142 43.4721 293.759 42.0388 294.994C41.2866 295.642 40.7078 296.467 40.355 297.395C40.1557 297.919 40.0026 298.501 39.8954 299.141C39.4203 301.979 39.7371 308.871 40.8459 319.816L40.8579 319.925C44.3476 349.06 46.663 371.745 47.8042 387.978H47.8001C47.9299 391.259 49.2514 394.156 51.7644 396.672C52.9302 397.839 54.4587 398.422 55.9872 398.422C57.5139 398.422 59.0406 397.84 60.2059 396.676C62.5381 394.346 62.5398 390.566 60.2097 388.234C59.8918 387.916 59.7312 387.661 59.7278 387.471C59.726 387.366 59.7214 387.261 59.714 387.157C58.6058 371.386 56.4106 349.669 53.1284 322.004H53.1326L75.1565 350.351H75.1521C76.8687 353.066 78.2452 355.46 79.2817 357.533H79.2772C79.125 357.871 79.0022 358.229 78.9129 358.603C78.1476 361.81 80.1267 365.03 83.3333 365.795C84.0372 365.963 84.7184 366.047 85.377 366.047C86.2222 366.047 87.0301 365.908 87.8007 365.632C91.8492 364.178 93.1955 361.151 91.8404 356.55C91.7707 356.313 91.6915 356.071 91.6029 355.824C91.5725 355.74 91.5406 355.657 91.5065 355.574C90.1546 352.282 88.0054 348.318 85.0587 343.681C84.958 343.523 84.8497 343.369 84.7344 343.22L60.0187 311.408C59.9118 311.271 59.7989 311.138 59.6806 311.011H59.6763C58.7667 309.729 56.3335 305.286 52.3767 297.679C52.3066 297.545 52.2315 297.413 52.1513 297.284C52.0473 297.116 51.9441 296.958 51.8416 296.807L51.84 296.805C51.6182 296.48 51.3916 296.184 51.1604 295.915C49.5679 294.067 47.931 293.142 46.2496 293.142Z" fill="black"/>
<path d="M43.7647 302.915C41.9689 302.915 40.0847 303.607 38.1121 304.99C38.0594 305.027 38.006 305.065 37.9536 305.103L37.9482 305.107C37.0448 305.764 36.1614 306.597 35.298 307.608C35.2806 307.628 35.2634 307.648 35.2634 307.652H35.265C35.2802 307.644 35.4125 307.518 35.9013 307.03H35.9054L35.1008 307.851C34.1962 309.03 33.318 310.476 32.4663 312.191C28.1387 320.741 23.2437 330.791 17.7817 342.34H17.7797C16.7229 344.438 15.708 346.246 14.7348 347.765L14.6844 347.845C14.5805 348.013 14.475 348.18 14.3678 348.345C13.9244 348.243 13.4781 348.193 13.0365 348.193C10.637 348.193 8.37431 349.65 7.46285 352.024C6.49756 354.539 5.90069 356.19 5.67225 356.979C5.44505 357.764 5.33944 358.51 5.35543 359.215H5.35168C5.34624 360.18 5.53338 361.089 5.91311 361.942C7.07803 364.559 8.76918 365.867 10.9866 365.867C12.0047 365.867 13.1337 365.592 14.3737 365.04C14.7945 364.853 15.1927 364.617 15.5594 364.338C19.2599 361.525 22.336 358.148 24.7877 354.205C26.0055 352.304 27.2467 350.092 28.5128 347.569L28.5736 347.444C33.9989 335.973 38.8537 326.005 43.1378 317.542L43.1581 317.502C43.3787 317.058 43.5923 316.656 43.7991 316.298H43.8032C44.5654 316.634 45.3897 316.807 46.2192 316.807C47.4355 316.807 48.6632 316.436 49.7225 315.666C52.3896 313.729 52.981 309.996 51.043 307.328C50.8488 307.061 50.6492 306.807 50.4443 306.566C48.3733 304.132 46.1467 302.915 43.7647 302.915Z" fill="black"/>
<path d="M38.6709 270.768C38.8236 270.773 39.027 270.79 39.281 270.818C39.0464 270.956 38.7639 271.143 38.4336 271.38C38.5038 271.192 38.573 271.01 38.6413 270.833L38.6668 270.768H38.6709ZM44.7228 289.119C44.7626 289.158 44.8033 289.196 44.8447 289.233L44.9074 289.289C44.9496 289.326 44.9925 289.362 45.0362 289.398C45.1236 289.47 45.214 289.54 45.3074 289.608C45.1492 289.622 45.0224 289.633 44.9269 289.641C44.8858 289.552 44.8462 289.459 44.8082 289.362C44.7401 289.184 44.7117 289.104 44.7228 289.119ZM40.4501 255.382L40.1121 255.387C37.6682 255.507 35.3613 256.304 33.1913 257.778C32.3959 258.327 31.5545 259.207 30.6671 260.419C29.6363 260.88 28.3329 261.848 26.7567 263.323C26.1015 263.854 25.1247 265.132 23.8264 267.158C22.8002 268.824 21.9966 270.516 21.4156 272.234L20.711 274.83C19.9943 278.319 20.168 281.912 21.2321 285.611L22.353 288.758C23.1296 290.209 24.0259 291.603 25.042 292.94C25.5995 294.945 26.3855 296.793 27.3999 298.484C27.504 298.853 28.2649 299.811 29.6827 301.357L31.5768 303.032C34.2756 305.129 37.668 306.686 41.7539 307.701C43.7968 308.209 46.0132 308.582 48.4029 308.819C51.6906 309.061 53.35 309.158 53.3812 309.111C54.892 309.111 56.371 308.949 57.818 308.626L59.9646 308.021C61.3798 307.537 62.763 306.892 64.1143 306.085C66.6913 304.637 69.3919 302.212 72.2163 298.808C76.0869 291.633 77.1016 284.419 75.2602 277.164C74.5999 274.64 74.2283 273.423 74.1456 273.515C73.0504 271.46 71.9104 269.664 70.7257 268.129C68.3008 264.951 65.4745 262.381 62.2471 260.42C60.6333 259.439 58.9192 258.611 57.1048 257.934L54.0673 256.973C52.9251 256.688 51.2053 256.401 48.9077 256.112C46.9005 255.906 45.1045 255.85 43.5196 255.946C42.3416 255.53 41.3184 255.342 40.4501 255.382Z" fill="black"/>
<path d="M324.272 333.78C330.485 333.78 335.23 335.56 338.507 339.12C338.584 339.204 338.664 339.285 338.745 339.364C340.122 340.699 340.122 343.272 338.745 347.084C338.234 348.176 336.386 350.172 333.2 353.073L333.174 353.097C331.221 354.897 329.519 356.027 328.067 356.489L327.938 356.531C325.559 357.348 323.295 357.756 321.148 357.756C319.952 357.756 318.793 357.63 317.669 357.377H317.662C314.111 356.176 311.923 354.678 311.099 352.883L311.097 352.878C309.73 349.906 309.555 346.36 310.571 342.24H310.564C311.19 341.085 313.217 340.129 316.644 339.374C319.301 338.789 321.151 336.517 321.318 333.931H321.311C321.65 333.884 321.995 333.852 322.346 333.834L322.368 333.833C323.018 333.797 323.652 333.78 324.272 333.78ZM324.347 321.839C323.487 321.839 322.61 321.864 321.717 321.913H321.715C318.403 322.084 315.323 322.902 312.474 324.364H312.468C311.858 324.587 311.24 324.907 310.613 325.324C309.258 326.227 306.585 328.548 302.595 332.288C301.707 333.12 301.13 334.16 300.869 335.262H300.862C300.261 336.125 299.765 337.052 299.372 338.042C299.286 338.259 299.213 338.481 299.153 338.708C297.27 345.795 297.636 352.181 300.251 357.866C302.54 362.85 307.173 366.491 314.149 368.789C314.3 368.839 314.454 368.883 314.609 368.921C316.753 369.441 318.937 369.701 321.163 369.701C324.576 369.701 328.084 369.089 331.689 367.866H331.684C334.811 366.872 337.995 364.883 341.238 361.9C345.656 357.877 348.451 354.578 349.622 352.003C349.754 351.713 349.871 351.425 349.973 351.14C353.052 342.615 352.152 335.905 347.273 331.009H347.266C341.626 324.896 333.986 321.839 324.347 321.839Z" fill="black"/>
<path d="M313.083 234.73C311.49 234.73 309.9 235.364 308.725 236.618C306.601 238.886 306.588 242.373 308.609 244.653H308.603C308.637 244.775 308.671 244.931 308.704 245.12H308.697C308.696 245.164 308.693 245.21 308.689 245.257C308.22 250.515 307.985 253.706 307.985 254.83C307.985 254.982 307.988 255.128 307.994 255.268H307.987C307.954 257.239 308.057 261.388 308.296 267.714L308.301 267.819C308.545 272.221 308.799 275.558 309.062 277.828L309.074 277.925C310.578 289.267 311.366 295.582 311.44 296.869H311.433C311.433 297.051 311.442 297.234 311.459 297.416C311.73 300.282 311.97 305.887 312.18 314.23L312.181 314.273C312.218 315.418 312.337 317.116 312.536 319.367H312.535C312.85 323.963 314.399 327.548 317.183 330.123C318.332 331.185 319.785 331.71 321.235 331.71C322.841 331.71 324.442 331.066 325.618 329.794C327.857 327.374 327.709 323.597 325.289 321.359C324.815 320.92 324.532 319.957 324.44 318.47L324.428 318.312C324.25 316.315 324.146 314.854 324.114 313.93C323.907 305.68 323.663 299.94 323.382 296.71H323.375C323.375 296.574 323.371 296.436 323.364 296.295C323.286 294.768 322.472 288.154 320.921 276.453C320.688 274.438 320.456 271.375 320.227 267.263C319.981 260.772 319.881 256.772 319.928 255.262C319.933 255.119 319.932 254.977 319.927 254.834H319.923C319.923 254.061 320.143 251.212 320.582 246.288L320.585 246.256C320.648 245.502 320.653 244.762 320.599 244.037C320.588 243.894 320.572 243.751 320.551 243.61C320.33 242.118 319.967 240.798 319.461 239.651C318.883 238.34 318.116 237.237 317.162 236.343C316.011 235.264 314.545 234.73 313.083 234.73Z" fill="black"/>
<path d="M304.998 223.934C302.186 223.995 300.36 224.498 299.521 225.443L299.754 225.164C297.961 227.451 297.158 230.319 297.345 233.77L297.324 233.496C297.489 235.134 299.051 237.458 302.009 240.465L302.12 240.581C304.9 243.563 307.859 245.636 310.998 246.802L310.767 246.721C315.748 248.342 320.217 247.803 324.172 245.104L323.952 245.261C329.431 241.148 332.511 235.609 333.192 228.644L333.165 229.338C333.111 226.505 332.79 224.755 332.2 224.088C332.201 224.089 332.201 224.089 332.203 224.091C331.839 223.705 331.527 223.273 331.277 222.805C331.334 222.911 331.383 222.99 331.424 223.043C330.517 221.875 327.473 219.833 322.291 216.915L322.743 217.145C316.072 214.102 312.002 213.091 310.535 214.111C310.539 214.108 310.542 214.105 310.545 214.102C310.525 214.124 310.498 214.167 310.464 214.231C308.95 217.159 305.349 218.305 302.42 216.791C299.492 215.277 298.346 211.675 299.86 208.747C300.413 207.678 301.089 206.723 301.888 205.882C302.445 205.295 303.056 204.77 303.721 204.308C308.909 200.701 316.901 201.359 327.697 206.283C327.851 206.353 328.001 206.43 328.149 206.513C334.728 210.218 338.963 213.287 340.853 215.721C341.226 216.202 341.545 216.688 341.807 217.179L340.882 215.894C340.971 215.988 341.059 216.084 341.145 216.182C343.674 219.043 344.992 223.353 345.101 229.113C345.105 229.344 345.096 229.576 345.073 229.807C344.051 240.258 339.4 248.592 331.12 254.808C331.048 254.862 330.975 254.915 330.9 254.965C323.716 259.868 315.773 260.904 307.074 258.074C306.996 258.048 306.92 258.022 306.842 257.993C301.937 256.172 297.453 253.081 293.388 248.722L293.499 248.838C288.575 243.832 285.891 239.116 285.446 234.689C285.437 234.598 285.43 234.507 285.425 234.415C285.076 227.978 286.721 222.438 290.36 217.798C290.434 217.703 290.512 217.609 290.592 217.519C293.738 213.975 298.453 212.135 304.739 211.998C308.035 211.927 310.764 214.541 310.836 217.836C310.907 221.132 308.294 223.862 304.998 223.934Z" fill="black"/>
<path d="M425.073 332.906C424.718 332.906 424.358 332.938 423.996 333.003C421.085 333.534 418.792 333.901 417.117 334.105H417.109C412.839 334.486 405.819 335.29 396.05 336.516H396.042C396.027 336.518 396.011 336.519 395.995 336.521L395.987 336.521C394.781 336.644 389.548 337.48 380.288 339.027H380.281C377.833 339.369 376.037 339.59 374.893 339.691L374.863 339.694C370.398 340.112 366.613 340.358 363.507 340.431L363.45 340.433C360.426 340.534 355.805 340.584 349.585 340.584C348.765 340.584 347.918 340.583 347.042 340.582C347.038 340.582 347.034 340.582 347.03 340.582C346.945 340.582 346.859 340.583 346.774 340.587C344.573 340.682 342.494 340.91 340.536 341.273C337.294 341.872 335.152 344.986 335.752 348.228C336.284 351.102 338.793 353.112 341.615 353.112C341.975 353.112 342.34 353.08 342.707 353.012C344.081 352.758 345.564 352.594 347.159 352.52H347.166C347.988 352.522 348.787 352.522 349.562 352.522C355.905 352.522 360.653 352.47 363.805 352.366H363.798C367.171 352.286 371.22 352.025 375.945 351.583C377.311 351.462 379.347 351.212 382.055 350.833L382.212 350.809C391.121 349.32 396.103 348.518 397.156 348.402H397.149C397.247 348.395 397.346 348.385 397.444 348.373C407.211 347.147 414.159 346.351 418.287 345.986C418.334 345.981 418.382 345.977 418.391 345.976H418.389L418.478 345.966C420.394 345.735 422.946 345.329 426.136 344.748C429.379 344.157 431.529 341.049 430.938 337.806C430.413 334.925 427.901 332.906 425.073 332.906Z" fill="black"/>
<path d="M457.025 302.58C450.712 302.58 444.614 304.706 438.731 308.96C436.06 310.892 435.46 314.623 437.392 317.295C438.559 318.909 440.383 319.767 442.234 319.767C443.446 319.767 444.669 319.399 445.726 318.634C449.479 315.921 453.306 314.565 457.208 314.565C458.829 314.565 460.462 314.799 462.109 315.267C462.222 315.299 462.335 315.328 462.45 315.353C470.7 317.181 476.311 320.636 479.281 325.718H479.274C481.655 330.327 481.225 336.313 477.985 343.676H477.976C475.121 349.022 470.873 352.109 465.231 352.937H465.223C463.115 353.126 461.116 353.221 459.228 353.221C448.824 353.221 441.765 350.345 438.054 344.594H438.046C436.861 340.943 437.558 337.549 440.135 334.41H440.127C442.207 332.663 443.905 331.789 445.221 331.789C445.786 331.789 446.281 331.951 446.705 332.273C447.784 333.094 449.054 333.491 450.313 333.491C452.114 333.491 453.895 332.679 455.069 331.134C457.064 328.51 456.554 324.765 453.93 322.77C451.159 320.663 448.263 319.609 445.243 319.609C441.069 319.609 436.657 321.621 432.008 325.645C431.794 325.83 431.594 326.03 431.409 326.243C425.391 333.166 423.926 340.821 427.012 349.207C427.138 349.551 427.296 349.883 427.484 350.198C433.419 360.173 443.984 365.16 459.179 365.16C461.507 365.16 463.943 365.043 466.488 364.809C466.583 364.8 466.678 364.79 466.773 364.776C476.628 363.391 483.938 358.107 488.705 348.923C488.762 348.813 488.816 348.702 488.866 348.588C493.758 337.529 494.034 327.96 489.692 319.881C489.659 319.818 489.624 319.756 489.588 319.695C484.891 311.659 476.776 306.342 465.242 303.744H465.234C462.458 302.968 459.722 302.58 457.025 302.58Z" fill="black"/>
<path d="M414.259 211.777C413.811 211.777 413.356 211.828 412.901 211.934C400.319 214.862 388.523 216.978 377.513 218.28H377.506C374.593 218.554 371.711 218.711 368.86 218.751L368.814 218.752C365.218 218.831 360.923 218.87 355.929 218.87C354.483 218.87 352.978 218.867 351.414 218.86L351.34 218.86C349.339 218.877 347.519 218.911 345.88 218.965H345.878L345.835 218.966C342.327 219.099 338.542 219.314 334.478 219.612C331.19 219.852 328.72 222.713 328.961 226.001C329.19 229.14 331.809 231.534 334.907 231.534C335.054 231.534 335.201 231.529 335.349 231.518C339.265 231.231 342.903 231.024 346.264 230.896H346.266C347.8 230.847 349.51 230.814 351.397 230.798H351.404C352.971 230.805 354.482 230.808 355.934 230.808C361.008 230.808 365.382 230.768 369.057 230.688H369.051C372.249 230.642 375.478 230.465 378.736 230.155L378.872 230.141C390.334 228.787 402.579 226.594 415.607 223.561C418.818 222.813 420.815 219.605 420.068 216.394C419.426 213.638 416.972 211.777 414.259 211.777Z" fill="black"/>
<path d="M444.469 196.909C448.398 197.759 451.477 198.769 453.707 199.939C453.771 199.972 453.835 200.005 453.901 200.036C456.203 201.139 458.698 203.318 461.384 206.573C461.431 206.63 461.478 206.685 461.527 206.74C463.09 208.497 464.075 210.551 464.483 212.902H464.474C464.813 216.105 464.496 218.501 463.523 220.09H463.517C460.932 223.861 455.707 226.37 447.843 227.616H447.835C445.762 227.884 443.829 228.018 442.037 228.018C433.476 228.018 428.109 224.958 425.937 218.837H425.929C425.372 215.134 426.291 211.373 428.686 207.554H428.678C431.094 205.106 434.586 203.63 439.154 203.125C442.306 202.778 444.613 200.035 444.461 196.909H444.469ZM437.757 183.732C437.693 183.732 437.629 183.733 437.565 183.735C432.262 183.906 428.33 184.684 425.77 186.07C425.162 186.399 424.607 186.768 424.106 187.176H424.098C421.564 188.917 419.023 192.165 416.474 196.923C415.28 199.152 415.646 201.8 417.193 203.616H417.185C414.154 209.383 413.17 215.271 414.234 221.281C414.281 221.551 414.347 221.816 414.431 222.076C418.291 234.021 427.318 239.994 441.513 239.994C444.018 239.994 446.684 239.808 449.511 239.436L449.662 239.414C461.137 237.605 469.116 233.296 473.599 226.49C473.635 226.435 473.67 226.379 473.705 226.323C476.141 222.344 477.007 217.316 476.301 211.24C476.289 211.134 476.274 211.028 476.256 210.923C475.48 206.387 473.593 202.404 470.595 198.974H470.591C466.853 194.445 463.076 191.243 459.26 189.367H459.253C454.521 186.884 447.625 185.024 438.565 183.787C438.297 183.75 438.027 183.732 437.757 183.732Z" fill="black"/>
<path d="M450.301 229.747C447.733 229.747 445.361 231.417 444.585 234.003C443.837 236.496 443.415 239.583 443.317 243.261C443.315 243.326 443.314 243.393 443.315 243.458C443.357 250.18 443.639 256.282 444.158 261.765L444.167 261.855L446.995 287.587L447 287.627C447.208 289.407 447.79 293.084 448.746 298.658H448.742C450.261 309.815 451.394 317.497 452.14 321.707C452.653 324.6 455.171 326.634 458.011 326.634C458.356 326.634 458.707 326.604 459.06 326.542C462.306 325.966 464.471 322.869 463.895 319.623C463.173 315.549 462.056 307.96 460.545 296.856L460.545 296.854L460.543 296.844C460.534 296.776 460.524 296.708 460.512 296.64C459.6 291.321 459.05 287.869 458.862 286.283L456.034 260.55C455.553 255.439 455.293 249.716 455.252 243.382H455.256C455.333 240.857 455.588 238.874 456.02 237.433C456.967 234.275 455.175 230.947 452.018 230C451.446 229.829 450.868 229.747 450.301 229.747Z" fill="black"/>
<path d="M360.115 133.196C357.54 133.196 355.189 134.874 354.412 137.419H354.405C353.071 140.372 344.919 152.949 329.948 175.149H329.941L304.967 207.182C302.94 209.782 303.404 213.533 306.004 215.56C307.095 216.41 308.387 216.822 309.67 216.822C311.447 216.822 313.205 216.032 314.382 214.522L339.535 182.26C339.619 182.152 339.699 182.041 339.776 181.927C355.492 158.623 364.06 145.275 365.48 141.883C365.667 141.436 365.811 141.013 365.911 140.612C366.709 137.414 364.763 134.174 361.565 133.375C361.08 133.254 360.593 133.196 360.115 133.196Z" fill="black"/>
<path d="M366.822 103.123C366.853 103.125 366.882 103.128 366.911 103.131H366.909C367.057 103.15 367.206 103.163 367.354 103.171C370.136 103.319 374.149 104.132 379.395 105.608H379.387C384.318 107.634 387.546 110.69 389.072 114.775H389.069C390.714 119.749 388.587 128.54 382.69 141.149H382.682C379.932 145.341 376.49 147.438 372.356 147.438C372.33 147.438 372.304 147.438 372.279 147.438H372.271C366.258 147.177 361.561 145.425 358.179 142.181L358.117 142.123C352.383 136.777 349.374 132.183 349.092 128.341C349.083 128.223 349.071 128.104 349.055 127.987C348.276 122.169 349.337 117.085 352.237 112.736H352.235C355.135 108.635 359.141 105.905 364.253 104.547C365.247 104.283 366.116 103.783 366.815 103.123H366.822ZM366.789 91.1934C364.226 91.1934 360.235 91.7293 354.818 92.801C352.131 93.3326 350.225 95.5901 350.024 98.1933H350.017C347.14 100.264 344.63 102.814 342.488 105.844L342.415 105.949C337.768 112.828 336.037 120.699 337.221 129.562H337.214C337.839 136.408 342.093 143.506 349.977 150.855C355.542 156.162 362.839 159.001 371.871 159.369L372.036 159.374C372.157 159.376 372.279 159.376 372.4 159.376C381.003 159.376 387.868 155.312 392.995 147.182C393.126 146.975 393.243 146.76 393.348 146.539C400.788 130.719 403.105 118.78 400.301 110.723L400.255 110.597C397.465 103.127 391.883 97.7274 383.51 94.3979C383.321 94.3227 383.128 94.2572 382.933 94.2017C376.813 92.4666 371.904 91.4868 368.208 91.2623H368.2C368.151 91.257 368.102 91.2519 368.052 91.2471C367.679 91.2113 367.257 91.1934 366.789 91.1934Z" fill="black"/>
<path d="M388.207 141.294C385.283 141.294 382.729 143.445 382.305 146.424C381.569 151.603 383.411 156.967 387.831 162.514C387.946 162.659 388.069 162.799 388.197 162.933C402.233 177.523 414.092 188.947 423.774 197.206H423.766C425.732 199.356 426.86 201.378 427.15 203.273C427.601 206.226 430.145 208.341 433.043 208.341C433.343 208.341 433.647 208.318 433.953 208.272C437.211 207.773 439.449 204.728 438.951 201.469C438.275 197.049 436.031 192.814 432.219 188.765C432.068 188.605 431.909 188.453 431.741 188.31C422.374 180.34 410.808 169.206 397.043 154.908H397.036C394.846 152.121 393.876 149.853 394.125 148.105C394.589 144.841 392.319 141.819 389.055 141.355C388.77 141.314 388.487 141.294 388.207 141.294Z" fill="black"/>
<path d="M444.542 33.0181C442.869 33.0181 441.206 33.7174 440.025 35.082C437.598 37.8878 432.944 42.7379 426.063 49.6321H426.055C413.758 60.8973 404.769 69.8263 399.086 76.419H399.079C392.729 82.1792 388.879 85.7812 387.529 87.2251C385.201 89.6703 383.492 92.1453 382.403 94.6503C381.088 97.6734 382.473 101.19 385.496 102.505C386.272 102.842 387.079 103.001 387.874 103.001C390.178 103.001 392.373 101.659 393.351 99.4111C393.882 98.1895 394.833 96.8608 396.205 95.4249L396.25 95.3776C397.396 94.1518 401.115 90.6867 407.407 84.9823C407.593 84.814 407.768 84.6338 407.931 84.4435C413.315 78.1591 422.108 69.4316 434.309 58.2612C434.375 58.2007 434.44 58.1388 434.503 58.0754C441.589 50.9756 446.44 45.9146 449.054 42.8923C451.211 40.3992 450.938 36.6296 448.445 34.4728C447.316 33.4965 445.926 33.0181 444.542 33.0181Z" fill="black"/>
<path d="M454.586 11.4132C457.566 11.4132 460.66 12.1645 463.866 13.6672H463.862C472.668 18.075 477.652 22.7883 478.812 27.8072C478.827 27.873 478.843 27.9384 478.861 28.0037C480.831 35.38 479.288 41.7005 474.232 46.9652H474.223C468.446 51.1369 462.435 53.2228 456.191 53.2228C453.862 53.2228 451.5 52.9325 449.106 52.352H449.098C444.136 50.7091 440.087 48.1155 436.951 44.5713C436.895 44.5083 436.838 44.4465 436.78 44.386C434.928 42.4638 434.002 39.9443 434.002 36.8275H433.995C434.552 27.0701 438.405 22.1914 445.555 22.1914C445.849 22.1914 446.15 22.1997 446.456 22.2162C446.566 22.2222 446.675 22.2251 446.784 22.2251C449.933 22.2251 452.567 19.7608 452.739 16.5791C452.84 14.7129 452.073 13.0006 450.79 11.835H450.781C452.028 11.5538 453.296 11.4132 454.586 11.4132ZM454.571 -0.586914C450.06 -0.586914 445.654 0.482295 441.353 2.62067C438.401 4.08821 437.198 7.67093 438.665 10.6229C438.708 10.7089 438.753 10.7935 438.799 10.8767H438.791C428.479 13.1616 422.908 21.5851 422.076 36.147C422.071 36.2294 422.068 36.3127 422.067 36.3953C421.967 42.9075 424.005 48.3318 428.182 52.6679H428.175C432.76 57.7814 438.562 61.4795 445.581 63.7622C445.712 63.8049 445.845 63.843 445.979 63.8766C449.506 64.7585 452.973 65.1995 456.38 65.1995C465.233 65.1995 473.682 62.2221 481.727 56.2674C481.97 56.0879 482.198 55.8902 482.411 55.6762C490.875 47.1551 493.553 36.9694 490.446 25.119H490.443C488.432 16.4188 481.305 9.01893 469.06 2.91933L468.932 2.85716C464.032 0.561123 459.245 -0.586914 454.571 -0.586914Z" fill="black"/>
<path d="M524.42 133.56C522.154 133.56 519.988 134.857 518.986 137.054C517.487 140.34 509.865 149.175 496.119 163.558H496.11L466.25 191.823C463.49 194.381 461.053 196.381 458.94 197.823C456.218 199.682 455.517 203.396 457.376 206.118C458.531 207.812 460.405 208.723 462.311 208.723C463.47 208.723 464.641 208.386 465.671 207.683C468.285 205.899 471.199 203.516 474.413 200.534L474.457 200.493L504.516 172.04C504.588 171.971 504.659 171.901 504.728 171.829C519.416 156.46 527.79 146.519 529.848 142.007C531.216 139.008 529.893 135.468 526.894 134.1C526.091 133.733 525.249 133.56 524.42 133.56Z" fill="black"/>
<path d="M533.582 114.468C535.834 114.468 538.513 115.011 541.622 116.097H541.612C547.992 119.897 551.898 125.14 553.33 131.824H553.324C554.247 137.543 552.149 143.236 547.029 148.903H547.02C543.705 151.867 539.264 153.349 533.698 153.349C532.354 153.349 530.944 153.262 529.468 153.089H529.459C521.833 151.443 517.822 148.46 517.426 144.141L517.419 144.068C517.101 141.012 517.895 137.922 519.802 134.799L519.838 134.738C521.362 132.174 523.276 130.765 525.581 130.512C528.857 130.152 531.222 127.204 530.863 123.927C530.527 120.872 527.941 118.609 524.937 118.609C524.821 118.609 524.704 118.613 524.587 118.619C525.572 118.31 526.49 117.742 527.231 116.92C528.703 115.285 530.82 114.468 533.582 114.468ZM533.314 102.476C527.221 102.476 522.236 104.627 518.361 108.93C516.154 111.379 516.351 115.153 518.801 117.36C519.902 118.352 521.273 118.858 522.647 118.892H522.638C517.164 119.947 512.809 123.196 509.575 128.64C506.295 134.04 504.951 139.594 505.545 145.304C506.509 155.478 513.74 161.985 527.238 164.822C527.402 164.857 527.568 164.884 527.734 164.905C529.836 165.165 531.86 165.295 533.808 165.295C542.546 165.295 549.731 162.679 555.366 157.449C555.486 157.337 555.602 157.22 555.713 157.098C563.632 148.423 566.743 139.238 565.046 129.545C565.033 129.471 565.019 129.396 565.003 129.323C562.794 119.012 556.826 111.063 547.1 105.477C546.8 105.304 546.485 105.158 546.159 105.04C541.437 103.331 537.155 102.476 533.314 102.476Z" fill="black"/>
<path d="M468.596 40.8428C466.953 40.8428 465.317 41.5172 464.138 42.8404C461.945 45.3014 462.162 49.0746 464.623 51.2679C468.595 54.8083 471.027 57.33 471.92 58.833C471.983 58.9394 472.05 59.0441 472.12 59.1464C475.209 63.6788 478.819 69.7535 482.95 77.3704C482.994 77.4518 483.041 77.533 483.089 77.6123C484.192 79.4379 485.286 81.0148 486.37 82.3429H486.365C487.347 83.6158 488.775 84.9929 490.647 86.4743C490.799 86.5949 490.958 86.7081 491.121 86.8132C496.452 90.2428 499.669 92.4877 500.772 93.5478H500.763C500.961 93.8452 501.186 94.1247 501.436 94.3829H501.427C501.719 94.7647 502.228 95.5556 502.955 96.7555H502.946C507.523 105.929 510.781 111.791 512.718 114.34H512.709C512.717 114.352 512.724 114.363 512.731 114.375C514.082 116.56 517.641 120.251 523.408 125.449C524.549 126.477 525.978 126.984 527.402 126.984C529.034 126.984 530.66 126.318 531.838 125.011C534.045 122.562 533.849 118.787 531.4 116.58C526.578 112.235 523.756 109.432 522.934 108.173H522.927C522.739 107.813 522.514 107.473 522.256 107.159C520.915 105.524 517.99 100.182 513.481 91.1308C513.409 90.9861 513.331 90.8442 513.248 90.7058C512.131 88.8566 511.25 87.5372 510.607 86.7477H510.599C510.318 86.323 509.983 85.9053 509.594 85.4947C508.021 83.8319 504.116 80.9888 497.879 76.9662H497.871C496.824 76.1276 496.134 75.4826 495.802 75.031C495.743 74.9507 495.681 74.8711 495.618 74.7939C494.934 73.9552 494.212 72.9167 493.453 71.6785H493.444C489.178 63.8134 485.403 57.4603 482.118 52.6195H482.114C480.565 50.07 477.382 46.6488 472.566 42.3557C471.428 41.3416 470.009 40.8428 468.596 40.8428Z" fill="black"/>
<path d="M537.508 249.286C535.45 249.286 533.447 250.351 532.34 252.259C531.183 254.252 529.812 256.357 528.229 258.575C528.162 258.669 528.098 258.764 528.037 258.861C527.523 259.641 525.48 262.199 521.909 266.536C521.782 266.691 521.663 266.852 521.551 267.018C514.617 277.417 509.884 284.051 507.353 286.921H507.35L483.023 312.993H483.021C481.699 314.347 480.642 315.141 479.849 315.377C476.689 316.315 474.888 319.638 475.827 322.798C476.597 325.391 478.973 327.069 481.546 327.069C482.109 327.069 482.681 326.989 483.248 326.82C486.056 325.986 488.865 324.119 491.675 321.218L491.752 321.137L516.194 294.941L516.307 294.817C519.165 291.576 524.156 284.62 531.278 273.95H531.269C534.91 269.525 537.137 266.712 537.949 265.513H537.944C539.746 262.989 541.319 260.569 542.664 258.253C544.319 255.402 543.35 251.748 540.499 250.093C539.556 249.546 538.525 249.286 537.508 249.286Z" fill="black"/>
<path d="M559.498 231.43C560.92 231.43 562.372 231.643 563.852 232.069H563.843C570.272 234.822 574.052 238.339 575.182 242.619C575.205 242.704 575.23 242.791 575.256 242.875C576.769 247.718 574.386 255.093 568.107 265.001H568.098C565.075 268.946 559.6 270.949 551.671 271.011C548.432 270.966 545.11 269.466 541.705 266.511C540.358 265.34 539.579 262.97 539.369 259.403H539.361C539.345 255.521 540.511 252.063 542.86 249.029C542.927 248.942 542.992 248.853 543.055 248.762H543.051C544.04 247.641 547.154 246.579 552.392 245.576C555.629 244.957 557.752 241.829 557.132 238.591C556.611 235.87 554.318 233.937 551.678 233.757H551.669C554.173 232.206 556.782 231.43 559.498 231.43ZM559.343 219.444C554.237 219.444 549.346 220.984 544.671 224.063C541.918 225.877 541.156 229.579 542.97 232.332C543.756 233.525 544.897 234.345 546.162 234.742H546.153C540.407 236.228 536.389 238.268 534.099 240.865C533.78 241.226 533.489 241.6 533.226 241.987H533.217C529.327 247.122 527.396 252.944 527.423 259.454C527.424 259.545 527.426 259.636 527.431 259.727C527.787 266.83 529.933 272.094 533.87 275.518L533.874 275.521C539.509 280.414 545.419 282.89 551.604 282.949L551.701 282.949C563.809 282.868 572.542 279.16 577.899 271.828C577.975 271.723 578.048 271.616 578.117 271.507C586.342 258.563 589.213 247.918 586.729 239.571H586.725C584.575 231.43 578.383 225.216 568.146 220.927C567.959 220.848 567.767 220.779 567.573 220.72C564.77 219.869 562.027 219.444 559.343 219.444Z" fill="black"/>
<path d="M538.761 145.901C538.115 147.578 538.257 149.468 539.166 151.037C539.387 151.419 539.648 151.772 539.941 152.09H539.932C539.935 152.134 539.937 152.178 539.94 152.223C538.018 150.659 537.622 148.552 538.752 145.901H538.761ZM543.062 153.878C543.328 153.936 543.6 153.976 543.876 153.997C543.573 153.974 543.286 153.936 543.015 153.883H543.006C543.022 153.881 543.037 153.88 543.053 153.878H543.062ZM543.713 141.89C543.67 141.89 543.627 141.89 543.585 141.89C542.576 141.903 540.978 142.078 538.792 142.414C535.534 142.914 533.298 145.961 533.799 149.219C534.252 152.171 536.794 154.283 539.691 154.283C539.801 154.283 539.911 154.28 540.022 154.274H540.031C540.102 156.118 540.178 158.651 540.258 161.871L540.264 162.031C540.383 164.35 540.582 166.777 540.859 169.312C541.441 174.627 541.967 179.046 542.435 182.566C542.708 184.757 543.389 188.301 544.476 193.2H544.466C544.888 196.047 545.163 198.491 545.29 200.533L545.294 200.589C545.466 202.985 545.551 205.413 545.55 207.872C545.538 211.131 545.426 216.226 545.215 223.158L545.213 223.251C545.19 224.784 545.188 226.325 545.206 227.872L545.206 227.902C545.291 233.046 545.516 237.109 545.879 240.09C546.248 243.117 548.823 245.338 551.797 245.338C552.038 245.338 552.281 245.323 552.527 245.293C555.799 244.894 558.128 241.918 557.73 238.646C557.417 236.083 557.222 232.446 557.143 227.734C557.127 226.323 557.128 224.918 557.148 223.521C557.363 216.47 557.476 211.262 557.488 207.898L557.488 207.88C557.49 205.153 557.396 202.456 557.206 199.79C557.052 197.324 556.724 194.426 556.223 191.096C556.202 190.96 556.177 190.825 556.147 190.691C555.123 186.081 554.5 182.868 554.276 181.051L554.269 180.993C553.813 177.562 553.298 173.236 552.726 168.014C552.48 165.764 552.303 163.618 552.194 161.575H552.192C552.022 154.745 551.85 150.649 551.674 149.288L551.674 149.285C551.669 149.251 551.664 149.213 551.659 149.172C551.615 148.858 551.546 148.548 551.452 148.244C551.325 147.829 551.186 147.441 551.038 147.077C550.116 144.827 548.765 143.335 546.986 142.601H546.977C546.932 142.579 546.887 142.557 546.842 142.535L546.84 142.534C545.938 142.105 544.895 141.89 543.713 141.89Z" fill="black"/>
<path d="M334.479 415.451C334.34 415.827 334.239 416.221 334.178 416.628C333.822 419.002 334.923 421.358 336.974 422.609C333.941 420.76 333.107 418.374 334.472 415.451H334.479ZM364.988 359.672C362.933 359.672 360.934 360.734 359.825 362.638C358.579 364.777 357.699 367.138 357.187 369.722C357.132 370 357.096 370.282 357.081 370.565C356.46 382.192 355.439 389.908 354.019 393.713C353.991 393.788 353.964 393.865 353.939 393.941C351.736 400.665 349.721 404.694 347.893 406.028C347.679 406.185 347.476 406.355 347.285 406.538C344.462 409.241 341.568 410.971 338.603 411.729C338.323 411.8 338.052 411.891 337.79 412H337.783C334.903 412.448 325.411 413.271 309.308 414.467C309.198 414.475 309.089 414.486 308.98 414.5C304.331 415.105 300.268 416.36 296.789 418.264L296.654 418.34C291.154 421.539 287.359 424.494 285.27 427.206L285.249 427.234L267.895 450.039C265.899 452.663 266.407 456.408 269.03 458.404C270.111 459.226 271.381 459.623 272.641 459.623C274.441 459.623 276.221 458.812 277.395 457.269L294.749 434.463C295.884 433.008 298.476 431.099 302.525 428.736H302.521C304.651 427.57 307.262 426.778 310.356 426.36H310.349C328.284 425.027 338.476 424.092 340.927 423.556C341.505 423.429 342.039 423.254 342.526 423.031H342.519C347.038 421.697 351.283 419.165 355.253 415.434H355.246C358.984 412.524 362.305 406.675 365.209 397.887H365.204C367.025 393.007 368.282 384.282 368.975 371.712H368.967C369.224 370.57 369.615 369.548 370.14 368.647C371.8 365.799 370.836 362.144 367.987 360.485C367.042 359.934 366.008 359.672 364.988 359.672Z" fill="black"/>
<path d="M399.078 408.987C397.275 409.547 395.87 410.918 395.241 412.644C395.661 410.832 396.937 409.613 399.07 408.987H399.078ZM399.452 344.875C396.166 344.875 393.496 347.533 393.483 350.822L393.331 392.33C393.33 392.558 393.342 392.785 393.367 393.011C394.585 403.984 395.174 410.644 395.133 412.992H395.126C395.006 413.398 394.927 413.821 394.896 414.256C394.47 420.131 392.039 425.786 387.602 431.221C387.44 431.419 387.291 431.628 387.156 431.845C384.698 435.799 381.175 438.456 376.585 439.816H376.577C371.571 440.937 367.878 441.625 365.499 441.88H365.506C367.657 444.374 367.186 447.803 364.093 452.167C363.696 452.618 363.115 453.163 362.351 453.802H362.358C363.075 453.83 363.811 453.86 364.565 453.891C364.685 453.896 364.804 453.897 364.849 453.897C364.879 453.897 364.875 453.897 364.813 453.896L365.167 453.886C368.113 453.711 372.86 452.888 379.41 451.416C379.527 451.389 379.644 451.359 379.759 451.326C387.209 449.172 392.975 444.904 397.058 438.523H397.05C402.68 431.546 405.898 424.124 406.703 416.257H406.696C406.848 415.718 406.952 415.13 407.006 414.494C407.223 411.955 406.647 404.491 405.277 392.102H405.27L405.421 350.867C405.434 347.57 402.771 344.888 399.474 344.875H399.452Z" fill="black"/>
<path d="M364.125 351.887C361.337 351.887 358.844 353.851 358.278 356.69C357.892 358.623 357.635 360.849 357.505 363.367L357.504 363.393C357.362 366.421 357.344 369.446 357.45 372.468C357.563 375.691 360.212 378.227 363.412 378.227C363.482 378.227 363.554 378.226 363.625 378.223C366.919 378.108 369.496 375.343 369.381 372.048C369.286 369.362 369.302 366.672 369.428 363.979C369.527 362.04 369.713 360.389 369.985 359.025C370.63 355.792 368.532 352.649 365.299 352.004C364.905 351.925 364.512 351.887 364.125 351.887Z" fill="black"/>
<path d="M375.672 271.861C374.644 271.861 373.672 272.008 372.756 272.302H372.748C362.09 274.243 355.367 280.352 352.58 290.63H352.572C352.433 291.086 352.327 291.579 352.256 292.11C352.048 293.647 352.068 296.281 352.315 300.013H352.308C352.395 302.403 353.315 307.852 355.07 316.361H355.062C355.23 317.773 355.45 322.247 355.724 329.785C355.732 329.99 355.75 330.195 355.778 330.398C356.713 337.06 357.177 341.145 357.171 342.653H357.164C356.661 345.213 357.891 347.897 360.334 349.13C361.197 349.565 362.114 349.771 363.018 349.771C365.2 349.771 367.302 348.57 368.353 346.488C368.789 345.623 369.035 344.611 369.09 343.451C369.186 341.449 368.707 336.671 367.653 329.116H367.646C367.345 320.885 367.077 315.975 366.841 314.386C366.839 314.368 366.836 314.348 366.832 314.327C366.817 314.232 366.8 314.137 366.781 314.042C365.098 305.886 364.251 301.085 364.24 299.638C364.24 299.5 364.236 299.362 364.227 299.225C364.049 296.535 363.994 294.766 364.064 293.917H364.057C364.068 293.879 364.078 293.841 364.089 293.803C365.584 288.242 369.315 284.967 375.281 283.978C375.493 283.943 375.702 283.896 375.908 283.839H375.915C377.405 284.125 380.106 285.653 384.019 288.424H384.011C387.796 291.509 390.694 295.111 392.704 299.227L392.783 299.384C397.823 308.979 400.028 322.695 399.399 340.535C399.283 343.83 401.859 346.595 405.154 346.711C405.226 346.713 405.297 346.715 405.368 346.715C408.568 346.715 411.216 344.179 411.33 340.956C412.03 321.096 409.398 305.441 403.434 293.99H403.431C400.609 288.209 396.568 283.203 391.307 278.97C391.213 278.895 391.117 278.823 391.02 278.753C385.029 274.501 380.245 272.219 376.669 271.905C376.331 271.876 375.999 271.861 375.672 271.861Z" fill="black"/>
<path d="M378.444 273.499L378.239 273.501C376.088 273.507 374.11 274.433 372.304 276.279C370.438 278.139 368.83 280.291 367.481 282.734C366.767 283.252 366.038 283.974 365.293 284.901C364.03 286.759 363.306 287.992 363.12 288.602C361.675 292.136 360.722 295.323 360.261 298.163C359.82 302.901 359.614 307.943 359.643 313.288C359.338 314.522 359.226 315.578 359.306 316.456C359.277 316.834 359.474 317.622 359.898 318.819C360.201 322.491 360.681 325.408 361.338 327.568C361.981 329.378 362.653 331 363.353 332.435C364.611 334.857 365.551 336.413 366.17 337.104C366.522 338.017 366.832 338.662 367.102 339.038C368.784 341.124 370.497 342.766 372.241 343.965C372.814 345.609 373.713 346.936 374.939 347.945C376.67 349.614 378.938 350.474 381.74 350.525C384.111 350.623 387.115 349.574 390.752 347.378C392.215 346.538 393.945 344.667 395.942 341.767C398.107 341.045 399.925 339.717 401.395 337.784C402.584 336.409 403.693 333.577 404.723 329.287C405.728 324.246 406.111 319.835 405.871 316.056C405.433 311.381 403.944 307.338 401.406 303.925C400.239 302.325 398.905 300.99 397.402 299.919C396.785 297.625 395.677 295.696 394.079 294.132C391.994 292.391 390.149 291.55 388.544 291.609C387.761 284.318 386.446 279.419 384.6 276.911C382.993 274.636 380.941 273.499 378.444 273.499Z" fill="black"/>
<path d="M250.469 371.913C258.185 375.686 270.083 380.547 286.163 386.496H286.156C286.195 386.514 286.232 386.532 286.27 386.55H286.263C284.662 388.862 283.22 391.449 281.937 394.309L279.511 393.074H279.505C275.116 390.461 270.758 387.639 266.433 384.61L266.417 384.598L266.415 384.597C266.226 384.465 266.029 384.345 265.826 384.236L255.723 378.821H255.716C254.095 377.859 253.012 377.118 252.469 376.6H252.463C251.861 375.313 250.834 374.317 249.605 373.737H249.599C249.645 373.656 249.69 373.576 249.733 373.496C249.86 373.264 249.977 373.031 250.084 372.798C250.216 372.513 250.342 372.218 250.462 371.913H250.469ZM246.186 357.22C243.439 357.22 241.541 358.843 240.491 362.089C240.362 362.487 240.275 362.898 240.232 363.315C240.025 365.326 239.698 366.816 239.25 367.784C239.109 368.042 238.765 368.433 238.217 368.956C235.833 371.233 235.746 375.011 238.022 377.395C238.884 378.297 239.96 378.87 241.094 379.111H241.088C241.086 379.656 241.159 380.209 241.314 380.759C241.65 381.948 242.281 383.082 243.208 384.163C244.513 385.686 246.672 387.34 249.684 389.124C249.758 389.167 249.831 389.209 249.907 389.249L259.903 394.606H259.897C264.406 397.754 268.951 400.689 273.532 403.412C273.644 403.479 273.758 403.541 273.874 403.601L280.221 406.832C280.286 406.865 280.352 406.897 280.505 406.967C281.427 407.386 282.337 407.654 283.235 407.772H283.228C283.698 407.848 284.154 407.886 284.595 407.886C287.142 407.886 289.206 406.614 290.785 404.071C291.008 403.711 291.193 403.328 291.335 402.928C293.315 397.377 295.812 393.066 298.826 389.994C298.938 389.88 299.045 389.762 299.147 389.64C301.132 387.264 301.274 384.599 299.573 381.648C299.276 381.131 298.903 380.662 298.466 380.256C296.717 378.63 294.205 377.061 290.929 375.55C290.788 375.485 290.644 375.425 290.498 375.371C269.636 367.657 256.264 361.975 250.381 358.323C249.948 358.054 249.482 357.842 247.261 357.43H247.267L248.989 357.69C247.973 357.377 247.038 357.22 246.186 357.22Z" fill="black"/>
<path d="M253.056 384.896C252.868 384.896 252.678 384.904 252.488 384.922C249.903 385.166 246.857 385.775 243.348 386.748H243.342L235.189 387.927C235.059 387.946 234.931 387.969 234.803 387.996C231.869 388.619 229.947 390.254 229.038 392.901C228.95 393.158 228.88 393.42 228.827 393.686C228.501 395.344 228.614 397.041 229.166 398.776C229.251 399.043 229.346 399.31 229.452 399.577C229.539 399.797 229.639 400.012 229.751 400.221C231.576 403.595 233.28 407.855 234.863 413C234.918 413.176 234.98 413.351 235.051 413.522C236.142 416.164 236.837 417.794 237.137 418.414C237.196 418.534 237.252 418.646 237.307 418.748C237.349 418.827 237.393 418.904 242.563 421.895L237.448 418.986H237.442C238.384 420.567 239.69 421.677 241.361 422.316H241.357C242.21 422.65 243.158 422.818 244.201 422.818C244.422 422.818 244.647 422.81 244.876 422.795C248.19 422.578 256.03 420.112 268.397 415.394L284.851 409.225C285.001 409.169 285.148 409.107 285.293 409.039C288.61 407.481 290.193 404.971 290.042 401.508C289.901 398.303 287.259 395.8 284.083 395.8C283.995 395.8 283.906 395.802 283.817 395.806C281.745 395.897 279.967 397.033 278.968 398.683H278.962L264.205 404.216L264.173 404.228C255.824 407.414 249.987 409.456 246.662 410.357C246.524 410.025 246.375 409.665 246.215 409.278H246.208C245.021 405.445 243.752 402.001 242.402 398.947H242.396L245.446 398.506C245.704 398.469 245.961 398.414 246.212 398.343C249.186 397.505 251.652 396.993 253.61 396.808C256.892 396.498 259.301 393.586 258.991 390.304C258.7 387.213 256.099 384.896 253.056 384.896Z" fill="black"/>
<path d="M172.581 365.639C170.484 365.639 168.45 366.746 167.358 368.709C165.757 371.59 166.794 375.225 169.675 376.827C181.331 383.306 189.582 389.261 194.429 394.693C194.475 394.745 194.522 394.795 194.57 394.846C195.577 395.898 196.791 397.822 198.211 400.62H198.205C203.801 414.509 207.912 422.883 210.537 425.741C210.614 425.825 210.69 425.906 210.767 425.985H210.762C221.356 438.404 229.734 447.045 235.894 451.908L235.902 451.914C244.015 458.297 251.139 461.692 257.274 462.102H257.267C258.461 462.293 259.605 462.388 260.701 462.388C266.773 462.388 271.34 459.459 274.402 453.599C275.929 450.678 274.798 447.071 271.876 445.545C270.993 445.083 270.048 444.865 269.117 444.865C266.965 444.865 264.887 446.032 263.821 448.071C263.015 449.613 261.77 450.384 260.085 450.384C259.728 450.384 259.352 450.35 258.956 450.281C258.71 450.238 258.461 450.21 258.211 450.199C254.538 450.025 249.564 447.471 243.291 442.538C237.711 438.133 229.836 429.963 219.665 418.027C219.559 417.902 219.448 417.783 219.33 417.666C217.668 415.856 214.278 408.591 209.163 395.872C209.1 395.715 209.031 395.562 208.955 395.411C207.015 391.565 205.143 388.676 203.339 386.744H203.336C197.594 380.309 188.307 373.525 175.476 366.392C174.557 365.882 173.562 365.639 172.581 365.639Z" fill="black"/>
<path d="M221.112 523.865C221.381 523.873 221.674 523.908 221.991 523.97C221.698 523.913 221.403 523.878 221.106 523.865H221.112ZM27.352 476.194C24.0915 476.194 20.8152 476.28 17.5232 476.451C14.2309 476.621 11.7006 479.429 11.8714 482.721C12.0368 485.908 14.6727 488.381 17.8273 488.381C17.9316 488.381 18.0365 488.378 18.1418 488.373C21.2269 488.213 24.2963 488.132 27.3501 488.132C35.7384 488.132 44.009 488.736 52.1619 489.944L52.1661 489.945C54.8692 490.343 57.5381 490.85 60.1729 491.464H60.1712L95.5457 500.158H95.5411C108.208 503.995 119.623 508.132 129.785 512.568H129.78L166.276 534.405H166.271C166.555 534.581 166.866 534.749 167.205 534.907C168.844 535.674 173.71 537.282 181.803 539.733C181.871 539.754 181.937 539.773 182.005 539.791C184.21 540.375 186.409 540.666 188.601 540.666C188.82 540.666 189.038 540.663 189.256 540.658L189.349 540.655C198.255 540.28 209.003 538.655 221.594 535.782H221.588C221.803 535.766 222.022 535.742 222.247 535.709C225.476 535.238 238.575 531.132 261.54 523.39H261.547C261.116 523.153 260.721 522.883 260.362 522.578C257.857 520.166 257.053 517.858 257.948 515.654C258.594 513.965 259.621 512.51 261.029 511.289C260.988 511.194 260.95 511.099 260.914 511.003H260.908C237.236 519.013 223.845 523.299 220.736 523.861H220.731C220.321 523.869 219.912 523.919 219.51 524.012C207.4 526.801 197.193 528.372 188.89 528.725H188.885C188.792 528.728 188.699 528.728 188.605 528.728C187.488 528.728 186.35 528.58 185.192 528.284H185.186C177.98 526.102 173.721 524.726 172.407 524.158H172.401L135.57 502.121C135.355 501.992 135.132 501.877 134.902 501.776C124.177 497.076 112.153 492.71 98.8293 488.68C98.7293 488.649 98.6272 488.622 98.5257 488.597L62.9523 479.854L62.8824 479.837C59.9296 479.149 56.9391 478.582 53.9109 478.135C45.1774 476.841 36.3249 476.194 27.352 476.194Z" fill="black"/>
<path d="M140.429 352.648C138.451 352.648 136.516 353.63 135.38 355.424C133.616 358.209 134.444 361.897 137.229 363.661C137.433 363.79 137.65 363.916 137.879 364.039C139.091 364.692 140.959 365.387 143.484 366.125C143.599 366.158 143.714 366.188 143.83 366.215L154.455 368.638H154.452C155.615 368.924 156.662 369.229 157.593 369.553C157.714 369.595 157.836 369.633 157.96 369.667C159.236 370.021 161.678 371.315 165.285 373.549C166.264 374.156 167.35 374.445 168.423 374.445C170.421 374.445 172.373 373.442 173.503 371.619C175.239 368.816 174.374 365.137 171.572 363.401C167.151 360.662 163.758 358.94 161.392 358.233H161.387C160.108 357.794 158.712 357.389 157.197 357.02L157.11 356.999L146.686 354.621H146.681C145.103 354.157 144.072 353.801 143.588 353.554H143.583C142.601 352.941 141.508 352.648 140.429 352.648Z" fill="black"/>
<path d="M20.94 368.988C20.4603 369.148 20.0028 369.369 19.5801 369.644C20.0353 369.347 20.4873 369.128 20.9361 368.988H20.94ZM41.5377 365.02C39.2182 365.02 36.8417 365.28 34.4081 365.8H34.404C34.3451 365.809 34.2855 365.819 34.2251 365.83L34.2228 365.831C33.1678 366.022 28.9008 367.028 21.4217 368.849C21.3279 368.872 21.2347 368.897 21.1422 368.924H21.1383C20.175 369.114 17.1513 369.575 12.0673 370.307L11.9997 370.317C11.3742 370.414 10.7651 370.54 10.1725 370.694H10.1687C7.32405 371.368 4.50993 373.054 1.72627 375.752C-0.641113 378.046 -0.700516 381.825 1.59361 384.192C2.76426 385.4 4.32159 386.007 5.88067 386.007C7.37685 386.007 8.87469 385.448 10.034 384.325C11.2581 383.139 12.2247 382.466 12.934 382.307C13.0084 382.291 13.0814 382.273 13.1551 382.253C13.3512 382.202 13.56 382.158 13.7814 382.121H13.7779C19.4737 381.301 22.8394 380.777 23.8749 380.548L23.8768 380.547C24.0658 380.505 24.2495 380.458 24.4279 380.405H24.4239C31.3326 378.723 35.2776 377.787 36.2592 377.595H36.2551C36.4203 377.573 36.5845 377.544 36.7474 377.508C38.4035 377.144 39.9979 376.961 41.5305 376.961C43.1443 376.961 44.6897 377.163 46.1666 377.568C46.6939 377.712 47.224 377.781 47.7454 377.781C50.3687 377.781 52.7736 376.038 53.4994 373.385C54.3694 370.206 52.497 366.923 49.3173 366.053C46.7997 365.364 44.2065 365.02 41.5377 365.02Z" fill="black"/>
<path d="M367.46 440.869C364.673 440.869 361.617 441.772 358.29 443.578C358.168 443.645 358.046 443.717 357.935 443.788L357.931 443.79L357.925 443.794C346.938 450.805 338.533 456.773 332.712 461.699C332.472 461.902 332.248 462.125 332.042 462.363C325.058 470.483 317.935 480.552 310.675 492.568H310.668C304.663 499.745 299.914 504.198 296.422 505.927C295.919 506.177 295.453 506.496 295.039 506.876H295.032C292.598 508.666 282.888 512.007 265.904 516.901H265.897C264.374 517.234 261.518 517.4 257.327 517.4C255.552 517.4 253.539 517.37 251.285 517.31H251.279C250.177 516.283 248.716 515.705 247.204 515.705C246.451 515.705 245.686 515.848 244.946 516.151C244.339 516.399 243.812 516.642 243.366 516.88C240.774 518.262 239.487 520.237 239.506 522.804C239.535 526.522 241.604 528.606 245.713 529.055C246.261 529.115 246.909 529.145 247.655 529.145C247.682 529.145 247.71 529.145 247.737 529.145H247.743C251.074 529.261 254.051 529.319 256.673 529.319C262.423 529.319 266.469 529.039 268.809 528.481C268.898 528.46 268.987 528.436 269.075 528.411C287.745 523.035 298.84 518.999 302.359 516.302L302.36 516.301C302.364 516.298 302.368 516.296 302.372 516.293H302.365C307.3 513.643 313.231 508.155 320.157 499.83C320.35 499.598 320.525 499.351 320.681 499.093C327.556 487.681 334.251 478.16 340.766 470.53H340.758C346.125 466.033 353.914 460.522 364.127 453.998H364.12C365.611 453.198 366.683 452.798 367.336 452.798C367.392 452.798 367.445 452.801 367.496 452.807H367.488C368.043 452.968 368.603 453.045 369.155 453.045C371.722 453.045 374.094 451.375 374.87 448.789C375.817 445.631 374.024 442.304 370.868 441.357C370.268 441.178 369.651 441.047 369.016 440.966C368.507 440.901 367.989 440.869 367.46 440.869Z" fill="black"/>
<path d="M269.792 506.314C269.365 506.314 268.926 506.354 268.48 506.435L268.829 506.36H268.823C267.148 506.666 265.099 507.23 262.677 508.054H262.671C262.652 508.06 262.633 508.066 262.614 508.072L262.609 508.073C261.582 508.395 257.451 509.934 250.215 512.69H250.209C248.724 513.169 247.399 513.491 246.235 513.657C242.971 514.121 240.701 517.143 241.166 520.407C241.589 523.386 244.144 525.536 247.068 525.536C247.348 525.536 247.631 525.516 247.916 525.476C249.818 525.205 251.879 524.706 254.098 523.978C254.188 523.949 254.276 523.918 254.364 523.884C261.249 521.261 265.164 519.796 266.107 519.488H266.101C266.218 519.456 266.335 519.42 266.451 519.38C268.361 518.729 269.873 518.302 270.985 518.101L270.987 518.101C271.104 518.08 271.22 518.055 271.334 518.027H271.328L271.372 518.018L271.374 518.018C274.4 517.264 276.362 514.279 275.8 511.166C275.286 508.321 272.836 506.314 269.792 506.314Z" fill="black"/>
<path d="M100.677 367.289C100.459 367.289 100.24 367.3 100.019 367.325C98.117 367.533 96.1781 367.707 94.2019 367.847H94.1973L78.3278 368.807H78.3233C78.2862 368.809 78.2478 368.811 78.2083 368.813H78.2069C77.8874 368.83 77.2481 368.882 76.2889 368.968H76.2845C76.2525 368.971 76.2199 368.974 76.1866 368.977C75.8538 369.007 75.1463 369.089 74.0628 369.223L73.8998 369.245C71.0665 369.676 69.2503 369.928 68.4512 370.003C68.3685 370.01 68.2865 370.02 68.2043 370.031H68.2002C67.9742 370.056 67.4237 370.104 66.5485 370.175H66.5441C63.7324 370.346 61.6088 370.498 60.1733 370.631L60.3247 370.619L60.0223 370.647C58.0843 370.876 56.2736 371.387 54.5903 372.18L54.5889 372.18C51.6068 373.586 50.3287 377.143 51.7341 380.125C52.786 382.357 55.0435 383.634 57.1514 383.634C57.8594 383.634 58.5505 383.49 59.1734 383.19L59.6787 382.979C60.1695 382.748 60.7245 382.592 61.3439 382.512H61.3396C62.6554 382.391 64.6559 382.249 67.3411 382.087L67.4627 382.078C68.5465 381.991 69.2706 381.925 69.6351 381.882H69.6307C70.6691 381.782 72.655 381.509 75.5885 381.064H75.584C76.4653 380.955 77.0129 380.89 77.2267 380.87H77.2222C77.2097 380.87 77.1958 380.871 77.1806 380.872L77.3346 380.86C78.1236 380.789 78.6205 380.747 78.8253 380.735H78.8208C78.8757 380.733 78.9306 380.731 78.985 380.727L94.9668 379.761L95.0266 379.756C97.1666 379.605 99.2644 379.417 101.32 379.192C104.597 378.832 106.962 375.885 106.603 372.608C106.268 369.552 103.682 367.289 100.677 367.289Z" fill="black"/>
<path d="M103.306 368.366C100.974 368.366 98.7593 369.741 97.8 372.026C96.5239 375.066 97.9534 378.564 100.987 379.838C101.076 379.875 101.165 379.912 101.254 379.946L101.259 379.948C102.202 380.316 103.503 380.671 105.162 381.012H105.16C105.234 381.028 105.313 381.043 105.397 381.059C105.699 381.115 106.24 381.2 107.02 381.314L107.054 381.319L113.713 382.252C114.438 382.355 115.698 382.611 117.495 383.019C117.604 383.044 117.715 383.066 117.824 383.084C118.516 383.201 119.029 383.279 119.362 383.319C119.485 383.334 119.604 383.346 119.718 383.355H119.713C120.389 383.429 121.176 383.466 122.073 383.466C122.571 383.466 123.104 383.454 123.671 383.432H123.666C124.654 383.415 127.312 383.271 131.639 382.999C134.93 382.793 137.429 379.958 137.223 376.668C137.025 373.505 134.398 371.072 131.272 371.072C131.146 371.072 131.019 371.076 130.892 371.084C126.613 371.353 124.136 371.49 123.461 371.495C123.393 371.496 123.327 371.498 123.259 371.5C122.782 371.521 122.367 371.531 122.013 371.531C121.576 371.531 121.234 371.515 120.985 371.485C120.902 371.474 120.818 371.466 120.735 371.459H120.73C120.592 371.441 120.345 371.402 119.99 371.343H119.985C117.937 370.88 116.402 370.576 115.381 370.43L115.37 370.429L108.711 369.496C108.16 369.416 107.797 369.36 107.62 369.329H107.614L107.567 369.319C106.585 369.117 105.935 368.955 105.615 368.833C104.86 368.516 104.077 368.366 103.306 368.366Z" fill="black"/>
<path d="M316.061 380.063C313.413 380.063 310.994 381.839 310.291 384.519C309.499 387.54 306.857 392.862 302.365 400.484C300.692 403.324 301.638 406.983 304.478 408.657C305.429 409.217 306.473 409.484 307.503 409.484C309.547 409.484 311.538 408.433 312.651 406.545C317.703 397.971 320.766 391.639 321.838 387.549C322.675 384.36 320.768 381.097 317.579 380.26C317.072 380.127 316.562 380.063 316.061 380.063Z" fill="black"/>
<path d="M326.891 383.472C327.306 383.472 327.691 383.512 328.046 383.592C327.66 383.514 327.262 383.473 326.856 383.473C326.76 383.473 326.663 383.475 326.566 383.48C326.676 383.474 326.785 383.472 326.891 383.472ZM307.147 373.739C305.331 373.739 303.538 374.564 302.365 376.129C300.389 378.768 300.925 382.509 303.563 384.485C305.505 385.94 308.353 387.552 312.107 389.321C319.018 392.609 323.154 394.494 324.517 394.977C325.334 395.266 326.116 395.411 326.864 395.411C326.958 395.411 327.051 395.408 327.143 395.404C330.436 395.243 332.974 392.443 332.813 389.15C332.682 386.471 330.804 384.291 328.335 383.659H328.328C327.134 383.196 323.441 381.493 317.25 378.548L317.196 378.522C314.174 377.098 312.016 375.901 310.721 374.931C309.648 374.127 308.392 373.739 307.147 373.739Z" fill="black"/>
<path d="M308.115 368.547C306.618 368.547 305.12 369.106 303.96 370.23C301.593 372.525 301.535 376.304 303.34 378.097L303.83 378.672C303.957 378.802 304.091 378.933 304.232 379.065C304.916 379.7 305.894 380.444 307.167 381.298C307.454 381.49 307.758 381.658 308.074 381.798L310.503 382.874H310.497C312.669 384.457 314.626 385.7 316.367 386.602L316.428 386.633L323.586 390.24L326.031 392.07C327.104 392.873 328.359 393.261 329.603 393.261C331.42 393.261 333.214 392.435 334.387 390.868C336.362 388.229 335.824 384.488 333.185 382.513L330.319 380.368C330.039 380.158 329.741 379.973 329.428 379.816L321.8 375.972C320.49 375.287 318.91 374.256 317.057 372.88C316.703 372.618 316.32 372.394 315.917 372.216L313.42 371.109H313.413C312.94 370.783 312.607 370.537 312.415 370.37H312.408L312.401 370.361C311.23 369.154 309.673 368.547 308.115 368.547Z" fill="black"/>
</g>
<defs>
<clipPath id="clip0_149_1905">
<rect width="588" height="540.324" fill="white"/>
</clipPath>
</defs>
</svg>
