<svg width="643" height="449" viewBox="0 0 643 449" fill="none" xmlns="http://www.w3.org/2000/svg">
<g clip-path="url(#clip0_149_1858)">
<path d="M243.15 159.558C244.51 159.558 245.699 160.069 246.716 161.091C245.732 160.103 244.421 159.574 243.084 159.559H243.082C243.105 159.559 243.128 159.558 243.15 159.558ZM241.713 159.727C241.443 159.798 241.177 159.89 240.917 160.006C239.29 160.728 238.169 162.216 237.89 163.925C238.029 161.644 239.303 160.244 241.711 159.727H241.713ZM554.515 119.29C564.078 119.29 573.249 119.767 582.031 120.723H582.027C584.194 134.122 582.145 190.537 575.879 289.969C575.868 290.151 575.866 290.333 575.873 290.514L582.04 437.727L548.433 431.506C548.121 431.448 547.804 431.419 547.486 431.419C547.475 431.419 547.465 431.419 547.454 431.419L517.987 431.599C487.621 424.69 466.345 421.236 454.157 421.236C453.228 421.236 452.352 421.256 451.528 421.296L334.812 418.641C334.773 418.64 334.733 418.64 334.694 418.64C334.504 418.64 334.313 418.65 334.124 418.671C309.749 421.355 291.253 422.697 278.636 422.697C274.972 422.697 271.803 422.583 269.131 422.357L269.082 422.353C260.871 421.735 255.077 421.148 251.699 420.593H251.698C253.635 403.297 254.302 353.344 253.698 270.734C253.697 270.657 253.695 270.581 253.691 270.504L248.266 165.255H248.265C248.289 164.948 248.297 164.626 248.288 164.289C248.243 162.509 247.288 155.122 245.424 142.13H245.422L257.631 140.14L337.037 141.794C337.074 141.794 337.11 141.795 337.146 141.795C337.341 141.795 337.536 141.784 337.73 141.762L517.621 121.44C530.505 120.006 542.803 119.29 554.515 119.29ZM302.027 63.2114C298.366 63.2114 295.434 64.5426 293.231 67.2049L245.486 124.691H245.484C244.811 125.419 244.051 126.161 243.205 126.919C243.203 126.902 243.2 126.885 243.198 126.868C243.19 126.815 243.181 126.761 243.171 126.708C243.088 126.245 243 125.839 242.906 125.489C242.159 122.697 240.496 121.215 237.919 121.041C237.741 121.029 237.566 121.023 237.396 121.023C234.673 121.023 232.942 122.556 232.202 125.62C231.919 126.793 231.672 128.939 231.463 132.058C231.386 133.192 231.679 134.265 232.238 135.161H232.237C231.167 136.556 230.847 138.442 231.496 140.165C232.111 141.8 233.479 142.969 235.089 143.378H235.088C236.783 155.139 237.706 162.067 237.858 164.161H237.857C237.823 164.447 237.813 164.738 237.829 165.033L243.288 270.959H243.287C243.953 362.22 243.132 412.886 240.825 422.959C240.618 423.863 240.656 424.805 240.936 425.689C241.491 427.448 242.772 428.733 244.778 429.546C247.644 430.707 255.482 431.77 268.29 432.735H268.288C271.18 432.979 274.59 433.101 278.518 433.101C291.584 433.101 310.385 431.753 334.92 429.059H334.922L451.484 431.71C451.524 431.711 451.563 431.711 451.603 431.711C451.695 431.711 451.788 431.709 451.88 431.704C452.646 431.663 453.468 431.643 454.346 431.643C465.688 431.643 486.326 435.057 516.26 441.884C516.64 441.971 517.028 442.015 517.418 442.015C517.428 442.015 517.439 442.015 517.449 442.015L547.024 441.835L584.672 448.803C584.872 448.841 585.074 448.866 585.277 448.879C585.564 448.898 585.842 448.907 586.112 448.907C590.169 448.907 592.338 446.776 592.618 442.513L592.618 442.512C592.627 442.365 592.633 442.216 592.635 442.065C592.637 441.969 592.635 441.874 592.631 441.778L586.29 290.398H586.285C593.098 182.23 594.724 123.64 591.161 114.631C590.085 111.91 588.282 110.47 585.751 110.311C585.616 110.302 585.482 110.298 585.349 110.298C584.874 110.298 584.415 110.352 583.972 110.461C574.57 109.406 564.751 108.878 554.516 108.878C542.413 108.878 529.728 109.616 516.461 111.092L516.452 111.093L336.907 131.376L257.371 129.72C257.335 129.719 257.299 129.719 257.263 129.719C256.982 129.719 256.702 129.741 256.425 129.787L254.533 130.095L301.246 73.8504L301.252 73.8433C301.373 73.6974 301.645 73.6245 302.068 73.6245C302.122 73.6245 302.178 73.6256 302.236 73.628C302.284 73.6299 302.331 73.6312 302.379 73.6318L411.307 75.0055H411.304C436.917 77.8053 461.619 81.4036 485.409 85.8004C485.721 85.8581 486.038 85.887 486.355 85.887C486.517 85.887 486.678 85.8795 486.84 85.8644C515.349 83.1982 553.087 81.8651 600.054 81.8651C607.602 81.8651 615.388 81.8996 623.413 81.9684H623.408C615.74 90.7147 607.784 98.4587 599.541 105.2C599.417 105.302 599.298 105.409 599.183 105.522C598.978 105.724 598.777 105.941 598.582 106.173C597.095 107.935 595.688 110.96 594.36 115.249C593.51 117.996 595.047 120.912 597.794 121.762C598.306 121.921 598.825 121.997 599.335 121.997C601.557 121.997 603.615 120.563 604.307 118.329C605.168 115.547 605.88 113.774 606.444 113.01H606.438C616.475 104.766 626.083 95.1368 635.263 84.122H635.262C635.672 83.6497 636.025 83.1826 636.323 82.7205C637.04 81.61 637.465 80.4819 637.599 79.3362C638.027 75.671 636.294 73.2569 632.397 72.0942C631.727 71.8943 630.981 71.7462 630.158 71.65C629.976 71.6286 629.792 71.617 629.609 71.6151C619.399 71.5071 609.56 71.4531 600.091 71.4531C553.167 71.4531 515.334 72.7789 486.591 75.4305C462.69 71.0322 437.888 67.4313 412.185 64.6275C412.019 64.6094 411.852 64.5993 411.686 64.5972L302.578 63.2212H302.575C302.391 63.2147 302.208 63.2114 302.027 63.2114Z" fill="black"/>
<path d="M630.105 66.7158C629.796 66.7158 629.474 66.7327 629.139 66.7664C628.118 66.8693 627.121 67.2332 626.149 67.8584C623.73 69.4133 623.03 72.6344 624.585 75.053C624.739 75.2932 624.91 75.5165 625.095 75.7223H625.09C625.129 80.2492 625.483 88.5022 626.152 100.481H626.146C625.927 107.486 625.899 115.075 626.061 123.249C626.066 123.508 626.091 123.766 626.134 124.021C627.016 129.196 627.555 144.143 627.751 168.862C627.752 169.022 627.761 169.181 627.777 169.339L629.077 182.347H629.072C628.483 195.201 628.264 202.935 628.416 205.55H628.41C628.394 208.415 628.703 216.28 629.337 229.145H629.331L629.225 248.977C629.225 249.081 629.227 249.186 629.233 249.29L630.205 266.999L630.326 290.38H630.32C630.316 290.473 630.314 290.568 630.313 290.665C630.289 292.677 631.144 302.544 632.876 320.266H632.871L632.217 350.258L630.385 373.085C630.381 373.133 630.378 373.182 630.375 373.23C630.132 377.873 630.4 381.923 631.178 385.38H631.173C617.795 398.317 605.039 411.867 592.904 426.028C592.84 426.103 592.777 426.181 592.717 426.26C588.653 431.593 586.399 436.122 585.955 439.846C585.615 442.701 587.654 445.291 590.509 445.631C590.718 445.656 590.926 445.668 591.131 445.668C593.731 445.668 595.979 443.724 596.294 441.078C596.511 439.261 598.036 436.481 600.871 432.738H600.866C613.448 418.06 626.709 404.05 640.651 390.71C642.152 389.273 642.656 387.081 641.932 385.134C640.917 382.407 640.529 378.668 640.766 373.918H640.764L642.608 350.939C642.616 350.838 642.621 350.737 642.623 350.636L643.288 320.137C643.293 319.93 643.285 319.723 643.266 319.53L643.265 319.523L643.264 319.51C641.552 302.002 640.705 292.427 640.724 290.784L640.729 290.784C640.736 290.672 640.739 290.56 640.739 290.447L640.616 266.816C640.616 266.73 640.613 266.644 640.608 266.558L639.638 248.877L639.745 228.96C639.745 228.865 639.743 228.771 639.739 228.676C639.091 215.543 638.786 207.792 638.824 205.424C638.827 205.277 638.823 205.13 638.813 204.983C638.669 202.894 638.895 195.37 639.492 182.409C639.504 182.157 639.497 181.903 639.472 181.652L638.167 168.6H638.161C637.964 144.054 637.401 128.76 636.47 122.717H636.465C636.311 114.734 636.344 107.337 636.562 100.525C636.567 100.372 636.565 100.22 636.557 100.067C635.673 84.2456 635.33 75.3311 635.529 73.3235C635.563 72.9797 635.563 72.6333 635.528 72.2897C635.154 68.5738 633.346 66.7158 630.105 66.7158Z" fill="black"/>
<path d="M606.342 106.275C605.804 106.275 605.258 106.359 604.719 106.536L599.704 108.181C599.663 108.195 599.622 108.209 599.581 108.223C598.727 108.527 597.489 109.058 595.865 109.816H595.863C593.518 110.876 590.071 112.784 585.524 115.54C583.065 117.031 582.28 120.232 583.77 122.691C584.749 124.307 586.467 125.2 588.227 125.2C589.147 125.2 590.077 124.956 590.921 124.445C595.149 121.882 598.242 120.162 600.2 119.283L600.27 119.251C601.52 118.667 602.421 118.273 602.975 118.068H602.97L607.964 116.43C610.696 115.534 612.184 112.592 611.288 109.86C610.569 107.667 608.531 106.275 606.342 106.275Z" fill="black"/>
<path d="M296.389 179.737C295.8 181.153 294.94 182.034 293.809 182.379C294.927 181.859 295.863 180.945 296.387 179.737H296.389ZM373.826 170.76L487.059 174.867H487.055C485.763 192.446 486.432 213.087 489.061 236.79H489.057C486.487 252.915 485.494 287.382 486.078 340.191L486.078 340.197C486.206 350.722 487.57 361.705 490.169 373.145H490.165L423.612 376.365C388.067 376.168 357.62 375.535 332.274 374.467C332.2 374.464 332.127 374.462 332.054 374.462C331.893 374.462 331.732 374.47 331.572 374.485L307.73 376.705C308.361 363.743 308.651 333.491 308.599 285.95C308.599 285.879 308.597 285.808 308.594 285.738L306.725 241.164C306.718 240.991 306.702 240.818 306.678 240.646L298.879 186.039C298.872 185.985 298.863 185.93 298.853 185.875L297.318 177.128L373.826 170.76ZM373.704 160.34C373.56 160.34 373.416 160.346 373.273 160.358L284.275 167.765C281.409 168.004 279.28 170.52 279.518 173.385C279.744 176.104 282.021 178.16 284.701 178.16C284.845 178.16 284.991 178.154 285.138 178.141L286.418 178.035H286.42C286.49 178.989 286.822 179.904 287.371 180.678H287.369L288.584 187.594L296.333 241.86L298.189 286.118H298.187C298.246 340.946 297.903 372.181 297.158 379.824H297.156C296.392 381.097 296.206 382.64 296.654 384.064C297.487 386.715 299.209 388.04 301.82 388.04C301.822 388.04 301.825 388.04 301.827 388.04H301.829C302.839 388.039 303.712 387.848 304.45 387.468H304.448L332.186 384.885H332.189C357.626 385.951 388.128 386.582 423.694 386.777C423.703 386.778 423.712 386.778 423.721 386.778C423.806 386.778 423.89 386.776 423.974 386.771L496.978 383.24C498.546 383.164 499.995 382.385 500.924 381.119C501.852 379.854 502.16 378.237 501.762 376.719C498.388 363.854 496.631 351.64 496.49 340.076C495.903 287.058 496.889 252.957 499.447 237.775C499.527 237.297 499.541 236.811 499.486 236.329C496.7 211.512 496.104 190.224 497.697 172.468C497.712 172.306 497.719 172.145 497.718 171.983C497.706 168.812 496.054 166.608 492.762 165.372C491.477 164.889 489.878 164.593 487.965 164.482C487.927 164.48 487.89 164.478 487.852 164.476L373.893 160.343C373.83 160.341 373.767 160.34 373.704 160.34Z" fill="black"/>
<path d="M312.919 142.854C314.316 142.854 315.611 143.637 316.801 145.205C315.913 144.037 314.573 143.298 313.112 143.17C312.96 143.156 312.808 143.15 312.657 143.15C311.76 143.15 310.883 143.381 310.109 143.816C311.088 143.174 312.024 142.854 312.919 142.854ZM289.788 164.463C289.735 164.477 289.68 164.491 289.624 164.506C289.561 164.522 289.497 164.539 289.434 164.558C289.553 164.523 289.671 164.491 289.786 164.463H289.788ZM316.244 138.413C314.599 138.413 312.981 139.191 311.969 140.642C310.631 142.562 309.727 143.82 309.257 144.415H309.255C309.21 144.454 309.166 144.494 309.122 144.534C305.807 147.6 301.788 151.096 297.062 155.021H297.06C296.867 155.167 296.671 155.331 296.472 155.512C295.634 156.277 294.112 157.999 291.905 160.679H291.903C291.01 161.539 289.389 162.968 287.04 164.964C286.786 165.18 286.554 165.419 286.346 165.679C284.979 167.388 284.571 169.169 285.12 171.023C285.898 173.646 287.469 174.958 289.833 174.958C290.569 174.958 291.382 174.831 292.273 174.576H292.271C294.243 174.066 295.895 173.384 297.227 172.531C298.911 171.451 299.764 169.564 299.605 167.7H299.603C299.662 167.635 299.72 167.568 299.777 167.5C301.66 165.207 302.871 163.8 303.41 163.28H303.408C303.466 163.236 303.521 163.192 303.572 163.15L303.573 163.149L303.597 163.13C308.324 159.205 312.386 155.68 315.783 152.555H315.781C315.815 152.53 315.849 152.504 315.884 152.478C316.215 152.227 316.545 151.913 316.876 151.536C317.5 150.824 318.711 149.178 320.511 146.597C322.155 144.238 321.576 140.993 319.217 139.349C318.31 138.717 317.272 138.413 316.244 138.413Z" fill="black"/>
<path d="M375.497 132.105C373.165 132.105 371.042 133.684 370.451 136.049C369.753 138.838 371.449 141.665 374.238 142.363C379.968 143.796 383.771 144.549 385.648 144.622H385.645C393.919 145.138 399.046 145.396 401.027 145.396C401.116 145.396 401.199 145.395 401.276 145.394H401.279C406.255 146.023 409.603 146.338 411.323 146.338C411.495 146.338 411.651 146.335 411.791 146.328C411.836 146.326 411.881 146.324 411.924 146.321H411.928C414.236 146.334 416.491 146.34 418.691 146.34C436.897 146.34 451.378 145.909 462.137 145.045H462.141C464.524 145.062 466.815 145.071 469.013 145.071C477.789 145.071 485.085 144.933 490.902 144.658H490.906L501.938 144.813C501.962 144.814 501.986 144.814 502.01 144.814C502.055 144.814 502.101 144.813 502.147 144.812L513.302 144.521H513.306C511.403 146.509 509.593 148.584 507.876 150.744H507.872C499.621 156.983 493.058 163.069 488.182 169.001H488.179C486.937 170.026 485.275 171.146 483.192 172.361C480.709 173.81 479.87 176.998 481.319 179.482C482.287 181.14 484.03 182.065 485.821 182.065C486.712 182.065 487.614 181.836 488.44 181.355C491.273 179.701 493.57 178.113 495.329 176.589C495.56 176.389 495.773 176.17 495.965 175.932C500.437 170.416 506.675 164.657 514.677 158.654C515.043 158.38 515.371 158.058 515.653 157.698C519.316 153.016 523.468 148.784 528.107 145.002C528.391 144.77 528.65 144.509 528.879 144.223C529.416 143.554 529.824 142.87 530.103 142.172C531.618 138.382 530.454 135.718 526.612 134.182C525.996 133.936 525.34 133.81 524.679 133.81C524.634 133.81 524.588 133.811 524.543 133.812L501.98 134.401L490.889 134.244C490.864 134.244 490.84 134.244 490.816 134.244C490.732 134.244 490.649 134.246 490.566 134.25C484.888 134.523 477.709 134.659 469.029 134.659C466.782 134.659 464.434 134.65 461.985 134.631C461.972 134.631 461.959 134.631 461.946 134.631C461.806 134.631 461.665 134.637 461.525 134.648C451.023 135.502 436.753 135.928 418.715 135.928C416.463 135.928 414.151 135.921 411.78 135.908C411.771 135.908 411.761 135.908 411.751 135.908C411.6 135.908 411.449 135.915 411.299 135.928H411.296C411.241 135.93 411.179 135.931 411.111 135.931C409.951 135.931 406.968 135.624 402.161 135.011C401.943 134.983 401.723 134.969 401.502 134.969C401.363 134.969 401.225 134.974 401.086 134.985H401.083C401.005 134.988 400.91 134.989 400.798 134.989C399.239 134.989 394.379 134.735 386.216 134.225C386.148 134.221 386.081 134.218 386.013 134.216L386.009 134.216H386.011C384.924 134.183 381.842 133.532 376.765 132.262C376.341 132.156 375.916 132.105 375.497 132.105Z" fill="black"/>
<path d="M534.673 255.379C534.431 256.381 533.836 257.253 532.888 257.996C533.745 257.324 534.363 256.407 534.669 255.379H534.673ZM521.708 340.196C521.764 340.976 521.66 341.669 521.394 342.273C521.637 341.61 521.743 340.903 521.703 340.196H521.708ZM499.39 368.694C500.078 369.051 500.587 369.465 500.918 369.938C500.502 369.441 499.988 369.016 499.386 368.694H499.39ZM533.064 123.895C532.443 123.895 531.811 124.007 531.197 124.243C528.513 125.275 527.174 128.287 528.206 130.971C528.35 131.346 528.479 131.986 528.591 132.889L530.717 151.166L531.141 181.441C531.162 184.15 530.535 190.132 529.258 199.387C529.234 199.557 529.219 199.728 529.213 199.899C528.925 207.396 528.572 213.041 528.156 216.835C528.135 217.026 528.125 217.219 528.125 217.412H528.121C528.018 218.797 527.225 224.826 525.74 235.498C525.7 235.783 525.684 236.072 525.692 236.36C525.752 238.51 525.366 244.059 524.532 253.008H524.528C524.486 253.208 524.452 253.414 524.427 253.627C524.161 255.826 524.073 266.268 524.163 284.953L524.164 285.024C524.496 302.967 525.79 315.134 528.046 321.527H528.042C519.093 329.803 513.924 334.925 512.535 336.893C512.156 337.431 511.864 337.972 511.658 338.518H511.654C505.296 350.414 499.264 359.285 493.557 365.128C493.298 365.394 493.067 365.687 492.87 366.002C492.466 366.647 492.126 367.263 491.849 367.851C491.623 368.332 491.435 368.801 491.287 369.258C489.95 373.378 491.091 376.29 494.711 377.994C495.427 378.332 496.182 378.491 496.925 378.491C498.878 378.491 500.751 377.386 501.638 375.501C502.247 374.208 502.277 372.792 501.835 371.544H501.831C508.052 364.932 514.476 355.394 521.102 342.929C521.154 342.83 521.203 342.731 521.249 342.63H521.244C522.733 340.766 528.34 335.372 538.065 326.451C539.152 325.454 539.765 324.042 539.751 322.568C539.739 321.167 539.163 319.835 538.159 318.867H538.155C536.137 315.971 534.944 304.65 534.576 284.903C534.492 267.418 534.546 257.497 534.738 255.141H534.734C534.794 254.893 534.837 254.639 534.862 254.382C535.707 245.342 536.123 239.404 536.108 236.566H536.104C537.642 225.503 538.449 219.269 538.525 217.862C538.526 217.847 538.527 217.831 538.528 217.816H538.523C538.953 213.836 539.314 208.098 539.606 200.601H539.601C540.932 190.93 541.582 184.503 541.553 181.32L541.552 181.295L541.124 150.755C541.122 150.578 541.11 150.402 541.09 150.226L538.929 131.646L538.911 131.511L538.912 131.51C538.695 129.806 538.366 128.38 537.925 127.234C537.129 125.165 535.156 123.895 533.064 123.895Z" fill="black"/>
<path d="M370.271 207.705C388.095 210.312 406.277 212.326 424.816 213.746H424.813C425.995 213.892 427.434 213.965 429.131 213.965C434.792 213.965 443.32 213.152 454.714 211.528H454.717L440.26 224.449H440.257C436.411 224.964 430.772 225.222 423.341 225.222C414.879 225.222 404.093 224.888 390.982 224.22C390.894 224.215 390.805 224.213 390.717 224.213C390.436 224.213 390.155 224.236 389.877 224.281C387.648 224.646 382.982 224.828 375.88 224.828C370.636 224.828 364.065 224.729 356.164 224.53H356.162L358.501 222.517C358.612 222.422 358.719 222.321 358.822 222.217C362.934 218.025 366.75 213.188 370.268 207.705H370.271ZM390.968 234.645C403.838 235.294 414.568 235.619 423.158 235.619C428.795 235.619 433.51 235.48 437.305 235.2H437.308C433.88 261.012 432.549 276.673 433.318 282.183H433.314C433.392 285.164 433.816 288.775 434.584 293.016C434.596 293.084 434.61 293.15 434.625 293.217C437.751 307.294 439.992 318.799 441.348 327.729H441.345C392.568 328.644 363.299 329.61 353.539 330.626C354.232 320.629 353.998 305.69 352.836 285.809C352.833 285.757 352.83 285.705 352.825 285.654C350.819 262.942 349.881 246.164 350.011 235.319C350.012 235.215 350.011 235.111 350.006 235.007H350.003C350.829 234.893 351.471 234.836 351.929 234.836C351.98 234.836 352.029 234.836 352.076 234.838L352.091 234.838C361.389 235.095 369.125 235.224 375.3 235.224C382.868 235.224 388.09 235.031 390.965 234.645H390.968ZM369.221 197.081C368.975 197.081 368.729 197.098 368.485 197.133C367.993 197.204 367.524 197.299 367.079 197.421C365.067 197.969 363.534 199.01 362.479 200.544C362.432 200.613 362.386 200.682 362.342 200.753C359.015 206.127 355.41 210.804 351.527 214.784H351.524L339.561 225.078C339.375 225.238 339.2 225.411 339.039 225.596C339.018 225.619 338.998 225.643 338.977 225.667L338.976 225.668C338.798 225.876 338.632 226.085 338.481 226.297H338.478C338.167 226.691 337.922 227.117 337.742 227.561H337.739C337.497 228.09 337.331 228.63 337.241 229.181C336.788 231.956 337.568 233.918 339.58 235.065H339.577C339.586 235.172 339.593 235.284 339.6 235.4H339.597C339.477 246.596 340.429 263.653 342.453 286.57H342.451C343.686 307.77 343.851 323.048 342.947 332.404C342.927 332.607 342.919 332.811 342.924 333.015C342.935 333.55 342.979 334.063 343.056 334.555C343.778 339.171 346.46 341.48 351.1 341.48C351.138 341.48 351.176 341.48 351.214 341.479C351.26 341.479 351.304 341.478 351.349 341.477L351.354 341.477C351.419 341.476 351.485 341.474 351.551 341.471C352.104 341.449 352.648 341.339 353.164 341.147H353.161C357.853 340.127 389.049 339.092 446.748 338.043C447.99 338.021 449.184 337.554 450.113 336.728C451.526 335.472 452.257 333.741 452.306 331.536C452.33 330.5 452.194 329.278 451.899 327.871H451.896C450.54 318.506 448.185 306.265 444.831 291.146H444.827C444.127 287.279 443.757 284.103 443.717 281.618C443.712 281.338 443.685 281.06 443.636 280.785C442.861 276.453 444.426 259.983 448.33 231.374C448.339 231.311 448.346 231.248 448.352 231.184H448.349L472.626 209.488L472.629 209.485C473.355 208.839 473.918 208.149 474.317 207.416C476.195 203.964 475.393 201.291 471.91 199.395C471.142 198.977 470.286 198.761 469.421 198.761C469.136 198.761 468.849 198.785 468.565 198.832C449.567 202.001 436.538 203.585 429.478 203.585C428.094 203.585 426.94 203.524 426.014 203.402C425.921 203.39 425.826 203.38 425.732 203.373C406.767 201.923 388.186 199.845 369.987 197.138C369.733 197.1 369.477 197.081 369.221 197.081Z" fill="black"/>
<path d="M468.595 201.385C466.348 201.385 464.274 202.852 463.605 205.118C462.383 209.253 461.477 214.609 460.888 221.184C460.881 221.263 460.875 221.341 460.872 221.42C460.523 229.337 460.122 236.215 459.666 242.053C459.656 242.192 459.65 242.332 459.651 242.471L459.678 253.321H459.674C459.369 259.478 459.241 263.231 459.29 264.579H459.286C459.263 269.176 459.388 272.604 459.662 274.861H459.661C460.902 287.277 462.029 297.211 463.041 304.663H463.038L460.508 306.778C460.187 307.046 459.9 307.352 459.652 307.689C453.399 316.203 447.745 322.86 442.689 327.662C440.604 329.642 440.519 332.937 442.5 335.022C443.523 336.099 444.898 336.643 446.275 336.643C447.563 336.643 448.852 336.168 449.86 335.212C455.257 330.085 461.192 323.138 467.663 314.371H467.659L471.775 310.929C472.829 310.048 473.492 308.785 473.619 307.417C473.681 306.747 473.69 306.102 473.645 305.484C473.629 305.266 473.606 305.05 473.577 304.838L473.575 304.827C472.522 297.335 471.334 286.965 470.01 273.717C470.007 273.681 470.003 273.645 469.998 273.609C469.774 271.755 469.674 268.699 469.699 264.44C469.7 264.359 469.699 264.278 469.695 264.196C469.654 263.187 469.783 259.666 470.084 253.632C470.088 253.541 470.09 253.451 470.09 253.36L470.064 242.701H470.06C470.515 236.831 470.917 229.958 471.265 222.079H471.261C471.789 216.207 472.566 211.536 473.59 208.068C474.405 205.31 472.83 202.415 470.073 201.6C469.581 201.455 469.084 201.385 468.595 201.385Z" fill="black"/>
<path d="M376.815 263.407C377.176 265.345 377.338 267.12 377.302 268.73C377.258 270.721 376.082 272.511 374.273 273.344L374.272 273.344C375.969 272.564 376.929 271.349 377.152 269.699C376.9 271.565 376.786 281.93 376.811 300.795C376.811 300.957 376.804 301.12 376.789 301.282C376.981 299.212 376.28 297.905 374.686 297.363C374.695 297.366 374.71 297.371 374.731 297.376L373.819 297.212C380.076 297.77 390.529 297.207 405.177 295.523C405.557 295.479 405.941 295.478 406.322 295.518C404.197 295.292 402.831 295.987 402.224 297.602C402.228 297.592 402.233 297.577 402.239 297.556L402.216 297.633C402.191 297.718 402.174 297.786 402.165 297.837C402.365 296.733 402.4 293.238 402.27 287.35L402.305 287.846C401.54 281.378 401.112 274.738 401.021 267.927L401.065 268.533C401.055 268.458 401.047 268.405 401.04 268.372C401.221 269.2 401.786 269.934 402.734 270.573C402.543 270.444 402.36 270.303 402.188 270.149C402.844 270.732 403.475 271.022 404.081 271.021C403.979 271.021 403.81 271.043 403.574 271.087L403.995 270.991C397.143 272.868 391.773 273.956 387.885 274.255C387.823 274.26 387.762 274.264 387.701 274.266C380.482 274.565 375.612 274.7 373.088 274.671L373.24 274.67C371.997 274.692 370.949 274.63 370.095 274.486C368.959 274.293 367.988 273.924 367.18 273.378C366.7 273.053 366.277 272.651 365.93 272.187C364.135 269.794 364.335 267.312 366.529 264.742C366.793 264.433 367.103 264.108 367.458 263.766C367.555 263.674 367.655 263.585 367.759 263.5C372.378 259.704 375.042 257.377 375.75 256.521C375.746 256.527 375.739 256.535 375.73 256.547C375.843 256.399 375.965 256.257 376.093 256.123C378.233 253.882 380.203 251.524 382.001 249.051L381.729 249.464C382.746 247.743 384.355 246.604 386.557 246.047C387.744 245.747 389.144 245.623 390.757 245.676L390.791 245.677C403.144 246.16 412.53 247.119 418.948 248.555C419.49 248.676 420.008 248.883 420.485 249.168C423.143 250.759 424.125 253.261 423.43 256.672C423.081 258.388 422.156 260.499 420.656 263.005C420.431 263.38 420.193 263.768 419.94 264.166C417.381 268.204 414.292 271.736 410.673 274.761C408.467 276.605 405.184 276.311 403.339 274.105C401.495 271.899 401.789 268.616 403.995 266.772C406.783 264.442 409.166 261.715 411.145 258.593C411.351 258.268 411.543 257.957 411.721 257.658C412.613 256.169 413.115 255.148 413.227 254.594C412.941 255.999 413.578 257.169 415.138 258.103L416.675 258.716C410.872 257.418 402.108 256.54 390.384 256.081L390.418 256.083C389.783 256.062 389.347 256.082 389.11 256.142C389.712 255.989 390.24 255.529 390.695 254.759C390.611 254.901 390.52 255.039 390.423 255.172C388.351 258.023 386.085 260.737 383.623 263.314L383.987 262.89C383.92 262.977 383.849 263.066 383.774 263.156C382.64 264.528 379.505 267.324 374.369 271.544L374.67 271.277C374.563 271.38 374.489 271.455 374.448 271.503C375.862 269.847 375.799 267.994 374.261 265.941L373.011 264.751C372.574 264.456 372.182 264.279 371.837 264.22C372.053 264.257 372.46 264.27 373.057 264.26C373.107 264.259 373.158 264.258 373.208 264.259C375.549 264.286 380.236 264.154 387.27 263.863L387.086 263.874C390.312 263.625 395.031 262.65 401.243 260.948C401.382 260.91 401.523 260.878 401.665 260.852C402.522 260.692 403.316 260.611 404.049 260.608C406.092 260.602 407.776 261.187 409.101 262.363L408.554 261.939C409.913 262.855 410.798 264.258 411.212 266.148C411.282 266.47 411.341 266.815 411.389 267.182C411.416 267.383 411.43 267.585 411.433 267.788C411.519 274.237 411.923 280.515 412.645 286.623C412.664 286.788 412.676 286.954 412.68 287.12C412.825 293.709 412.735 297.902 412.41 299.696C412.353 300.007 412.286 300.297 412.207 300.565L412.184 300.642C412.117 300.857 412.046 301.065 411.97 301.266C410.687 304.679 408.437 306.214 405.22 305.872L406.366 305.867C391.014 307.632 379.857 308.204 372.895 307.583C372.586 307.556 372.281 307.501 371.983 307.419C371.759 307.358 371.542 307.292 371.333 307.221C367.745 306 366.108 303.7 366.421 300.321L366.399 300.808C366.373 281.472 366.518 270.636 366.834 268.303C367.123 266.171 368.152 264.698 369.922 263.884L366.892 268.497C366.912 267.605 366.808 266.543 366.579 265.311C366.053 262.485 367.918 259.767 370.744 259.241C373.571 258.715 376.289 260.58 376.815 263.407Z" fill="black"/>
<path d="M426.967 281.594C427.038 281.88 427.08 282.187 427.091 282.516H427.088C427.075 282.211 427.034 281.904 426.964 281.594H426.967ZM417.839 254.046C416.931 254.046 416.01 254.284 415.173 254.784C412.705 256.259 411.9 259.456 413.376 261.924C413.901 262.803 414.234 263.551 414.375 264.169H414.372C414.976 270.99 415.592 276.714 416.219 281.339C416.229 281.409 416.24 281.478 416.252 281.547C416.419 282.492 416.629 283.371 416.883 284.182H416.879C416.931 284.377 416.993 284.575 417.066 284.775H417.062C413.232 287.62 410.754 289.634 409.631 290.816H409.627C408.617 291.795 407.706 292.798 406.894 293.825C405.836 295.16 404.699 296.815 403.482 298.79H403.479C403.394 298.884 403.304 298.967 403.208 299.039C400.908 300.764 400.442 304.028 402.168 306.328C403.191 307.691 404.754 308.41 406.336 308.41C407.424 308.41 408.52 308.071 409.457 307.368C410.381 306.675 411.198 305.859 411.908 304.921C412.012 304.783 412.11 304.64 412.2 304.492C413.261 302.754 414.213 301.353 415.057 300.289L415.063 300.281C415.614 299.584 416.249 298.891 416.969 298.201C417.045 298.128 417.118 298.054 417.19 297.976C418.074 297.02 421.159 294.631 426.445 290.81C426.905 290.478 427.307 290.073 427.636 289.611C428.807 287.967 428.954 286.08 428.078 283.95C428.053 283.889 428.027 283.827 428 283.765C427.979 283.717 427.957 283.668 427.879 283.505L427.878 283.504H427.88C427.387 282.452 427.064 281.74 426.911 281.368H426.908C426.883 281.277 426.856 281.186 426.826 281.095C426.716 280.745 426.619 280.345 426.534 279.895H426.531C425.919 275.368 425.314 269.717 424.716 262.942C424.702 262.785 424.681 262.629 424.653 262.474C424.312 260.585 423.532 258.621 422.313 256.582C421.338 254.95 419.611 254.046 417.839 254.046Z" fill="black"/>
<path d="M382.519 287.226C382.699 287.489 382.906 287.738 383.14 287.97C382.892 287.725 382.684 287.477 382.516 287.226H382.519ZM386.814 279.076C385.446 279.076 384.079 279.612 383.057 280.678C381.416 282.388 381.174 284.928 382.302 286.882H382.299C382.306 286.901 382.314 286.922 382.323 286.943H382.32C382.325 286.967 382.33 286.993 382.335 287.022C382.355 287.131 382.371 287.255 382.383 287.395H382.38L382.452 289.138C382.461 289.357 382.484 289.576 382.521 289.793L382.57 290.085C382.592 290.211 382.618 290.336 382.648 290.46C383.12 292.374 384.23 293.67 385.979 294.349C386.581 294.582 387.219 294.701 387.862 294.701C388.058 294.701 388.254 294.69 388.451 294.667L388.559 294.655C389.209 294.581 389.838 294.386 390.415 294.079C391.35 293.581 392.119 292.828 392.72 291.817C392.741 291.782 392.762 291.746 392.782 291.711C392.814 291.654 392.847 291.594 392.881 291.53C393.12 291.08 393.671 289.932 394.533 288.088C395.75 285.483 394.625 282.384 392.02 281.167C391.568 280.956 391.101 280.815 390.632 280.74H390.629C390.56 280.666 390.49 280.594 390.417 280.525C389.408 279.557 388.11 279.076 386.814 279.076Z" fill="black"/>
<path d="M79.012 409.437C78.9551 409.702 78.9134 409.954 78.8868 410.194C78.6832 412.026 79.4645 413.83 80.9408 414.936C81.0668 415.03 81.1964 415.118 81.3289 415.2C78.9149 413.792 78.1427 411.871 79.012 409.437ZM81.9969 415.548C82.6512 415.83 83.3544 415.975 84.0617 415.975C84.728 415.975 85.3979 415.847 86.0338 415.586C85.3621 415.862 84.6971 416 84.0389 416C83.3508 416 82.6702 415.85 81.9969 415.548ZM122.932 322.824C122.22 322.824 121.472 322.907 120.687 323.073C120.658 323.079 120.628 323.086 120.597 323.093L120.593 323.093C120.322 323.153 120.056 323.235 119.798 323.337C118.786 323.739 117.882 324.236 117.087 324.829C115.903 325.711 114.985 326.775 114.334 328.023C112.617 330.848 109.498 336.822 104.977 345.946C103.315 349.268 100.142 357.649 95.457 371.088C85.2645 393.416 79.7989 406.129 79.0602 409.224C79.0558 409.243 79.0515 409.261 79.0472 409.279C78.3463 410.706 76.1164 414.879 72.358 421.797C72.3297 421.849 72.3024 421.901 72.2759 421.954C72.098 422.31 71.955 422.614 71.8467 422.867C70.6784 425.591 71.1981 427.782 73.4059 429.439L73.4089 429.442C74.5428 430.291 75.6387 430.716 76.6966 430.716C78.1465 430.716 79.5251 429.918 80.8323 428.322C80.9464 428.182 81.0714 428.022 81.2066 427.842C81.7381 427.133 82.0615 426.333 82.1875 425.515C86.0794 418.34 88.2677 414.203 88.7527 413.103C89.0781 412.365 89.2832 411.671 89.3677 411.022C90.4976 407.529 95.7182 395.585 105.029 375.192C105.097 375.045 105.157 374.895 105.21 374.743C109.801 361.564 112.829 353.514 114.295 350.592L114.307 350.569C117.702 343.716 120.248 338.751 121.945 335.673C124.755 344.241 130.211 356.647 138.313 372.893C139.178 375.037 139.898 377.28 140.475 379.619C140.482 379.651 140.491 379.683 140.499 379.714C143.428 390.703 146.019 401.344 148.271 411.636C148.349 411.991 148.464 412.337 148.614 412.669C148.704 412.868 148.791 413.05 148.875 413.216C150.034 415.492 151.542 416.629 153.398 416.629C154.193 416.629 155.052 416.421 155.974 416.004L155.976 416.003C158.273 414.963 159.3 413.061 159.057 410.295C158.933 408.889 158.236 405.551 156.965 400.284C156.768 399.465 156.386 398.738 155.876 398.137C154.252 391.271 152.486 384.262 150.58 377.109C149.867 374.218 148.966 371.441 147.88 368.778C147.83 368.657 147.776 368.537 147.718 368.42C138.639 350.228 133.032 337.189 130.895 329.304C130.843 329.111 130.78 328.921 130.706 328.735C130.474 328.154 130.209 327.613 129.911 327.112C128.211 324.253 125.884 322.824 122.932 322.824Z" fill="black"/>
<path d="M125.254 192.937C122.637 192.937 120.383 194.906 120.087 197.568C119.833 199.85 119.649 202.172 119.537 204.536C119.455 205.92 119.402 208.645 119.377 212.711C119.348 213.716 119.291 214.706 119.207 215.682L115.32 250.964L115.315 251.006C114.988 254.213 114.784 256.562 114.703 258.054C114.585 259.983 114.518 261.96 114.502 263.985L114.501 264.021L114.461 294.105C114.461 294.142 114.461 294.179 114.462 294.216C114.47 295.046 114.242 298.475 113.776 304.502C113.771 304.568 113.767 304.634 113.765 304.7L113.244 318.079L113.242 318.127C113.156 321.066 112.231 325.473 110.467 331.35C109.641 334.104 111.203 337.006 113.957 337.833C114.456 337.983 114.96 338.054 115.456 338.054C117.695 338.054 119.763 336.598 120.44 334.343C122.458 327.618 123.527 322.332 123.649 318.484L124.165 305.212C124.649 298.932 124.885 295.228 124.874 294.099L124.914 264.035C124.929 262.194 124.991 260.4 125.098 258.654L125.1 258.619C125.172 257.298 125.361 255.126 125.669 252.104L129.564 216.75C129.568 216.711 129.572 216.671 129.576 216.631C129.681 215.416 129.752 214.184 129.787 212.936C129.788 212.898 129.789 212.859 129.789 212.821C129.813 208.86 129.86 206.29 129.933 205.112L129.936 205.042C130.039 202.894 130.205 200.787 130.435 198.719C130.753 195.862 128.694 193.287 125.837 192.969C125.641 192.948 125.447 192.937 125.254 192.937Z" fill="black"/>
<path d="M131.958 158.649C131.731 159.234 131.512 159.833 131.303 160.445L130.994 161.374C130.793 162 130.601 162.639 130.417 163.293C130.05 164.6 129.718 165.962 129.421 167.379C129.396 167.312 129.369 167.226 129.338 167.119C129.345 166.296 129.393 165.285 129.48 164.086C129.644 163.64 129.812 163.203 129.985 162.776C130.158 162.349 130.335 161.932 130.516 161.524L130.792 160.92C131.163 160.124 131.552 159.367 131.958 158.649ZM137.732 197.834C137.218 198.01 136.539 198.219 135.696 198.462C135.288 198.542 134.883 198.615 134.48 198.682C133.775 198.794 133.274 198.867 132.976 198.901C133.355 198.798 133.735 198.686 134.117 198.565C134.308 198.504 134.5 198.441 134.691 198.377C135.171 198.21 135.46 198.108 135.557 198.069C135.877 198.053 136.198 198.028 136.52 197.996C136.681 197.979 136.842 197.961 137.004 197.94C137.084 197.933 137.327 197.897 137.732 197.834ZM131.276 119.978L129.969 119.999C126.501 120.114 123.186 120.688 120.023 121.722C117.24 121.626 114.657 121.729 112.273 122.032C109.491 122.502 107.914 122.845 107.54 123.061C105.364 123.889 104.094 124.483 103.73 124.844C102.891 125.313 101.122 126.807 98.4233 129.326C94.4969 133.341 91.3927 138.456 89.111 144.669C86.4687 152.558 85.3001 159.878 85.6049 166.631L86.1099 171.589C86.6307 174.823 87.5199 177.916 88.7775 180.866C91.0034 186.126 95.2814 192.099 101.612 198.785C105.641 202.712 109.555 205.365 113.355 206.746C117.803 208.66 123.178 209.61 129.479 209.598C139.416 209.571 149.066 205.565 158.43 197.581L162.079 193.555C164.328 190.7 166.208 187.503 167.72 183.962C169.231 180.422 170.375 176.539 171.15 172.314C171.574 169.557 171.811 166.992 171.862 164.619C172.103 163.295 171.81 159.859 170.984 154.313C170.535 152.157 169.917 150.091 169.129 148.114C168.341 146.137 167.384 144.25 166.257 142.452C165.733 140.666 165.069 138.975 164.267 137.379L162.958 135.055C162.016 133.553 160.935 132.146 159.715 130.833C157.46 128.292 154.276 125.962 150.161 123.841C144.844 121.567 138.549 120.28 131.276 119.978Z" fill="black"/>
<path d="M84.0752 154.029C82.1797 154.029 80.3522 155.068 79.4325 156.872C75.4317 164.723 73.658 171.933 74.1112 178.503C73.7553 183.131 76.6789 194.869 82.8823 213.716C82.9131 213.81 82.9466 213.903 82.9827 213.994C85.9193 221.46 90.045 228.033 95.3596 233.715C97.2044 235.821 101.045 238.673 106.881 242.27C106.969 242.324 107.059 242.376 107.15 242.425C108.772 243.296 110.489 243.938 112.3 244.353C112.336 244.362 112.374 244.37 112.411 244.378C113.515 244.606 114.382 244.747 115.01 244.803C115.276 244.826 115.534 244.838 115.784 244.838C118.061 244.838 119.694 243.864 120.681 241.917C122.215 238.892 121.379 236.47 118.175 234.651C118.013 234.559 117.836 234.465 117.645 234.368C116.89 233.985 116.087 233.804 115.295 233.804C114.812 233.804 114.333 233.872 113.873 234.002C113.293 233.823 112.735 233.595 112.2 233.317C107.28 230.278 104.275 228.121 103.185 226.846C103.132 226.785 103.078 226.725 103.023 226.665C98.6168 221.971 95.1843 216.522 92.7255 210.318C86.921 192.672 84.1738 182.363 84.4841 179.391C84.5489 178.975 84.5629 178.552 84.5259 178.132C84.1086 173.402 85.5032 167.892 88.7095 161.6C90.0151 159.038 88.9967 155.903 86.4349 154.598C85.6777 154.212 84.8705 154.029 84.0752 154.029Z" fill="black"/>
<path d="M167.92 161.223C165.13 161.223 162.82 163.433 162.72 166.243C162.598 169.673 162.415 172.189 162.172 173.791H162.171L159.639 187.247L158.032 192.745C157.966 192.973 157.915 193.205 157.88 193.44C157.011 199.288 156.137 203.713 155.257 206.714C154.062 210.712 153.195 213.137 152.656 213.99C152.47 214.252 152.307 214.531 152.173 214.822C151.752 215.723 150.179 217.144 147.454 219.084C139.48 224.686 132.825 228.784 127.489 231.377C127.175 231.53 126.877 231.714 126.6 231.927L119.971 237.003C117.688 238.752 117.255 242.019 119.003 244.302C120.028 245.64 121.575 246.343 123.14 246.343C124.244 246.343 125.357 245.993 126.302 245.27L132.52 240.508C138.273 237.663 145.255 233.356 153.467 227.585L153.493 227.566C157.483 224.725 160.119 222.083 161.402 219.64H161.402C161.414 219.622 161.426 219.603 161.437 219.584C162.495 217.922 163.763 214.616 165.241 209.669L165.248 209.643C166.244 206.249 167.202 201.478 168.125 195.331H168.124L169.705 189.922C169.753 189.758 169.793 189.592 169.825 189.424L172.424 175.61C172.434 175.555 172.444 175.499 172.452 175.444C172.763 173.44 172.987 170.497 173.126 166.614C173.228 163.741 170.982 161.329 168.109 161.226C168.045 161.224 167.982 161.223 167.92 161.223Z" fill="black"/>
<path d="M107.098 13.1262C106.272 13.8604 105.701 14.8391 105.468 15.9209C104.912 18.4996 105.556 20.8709 107.4 23.0348C108.039 23.785 108.825 24.4902 109.758 25.1502C110.008 25.3272 110.274 25.4818 110.551 25.6121C112.273 26.4213 113.91 27.2128 115.46 27.9865C115.447 28.0344 115.435 28.0824 115.422 28.1304C115.375 28.3136 115.339 28.4992 115.312 28.6863C115.043 30.5804 114.781 32.3894 114.528 34.1135C114.258 34.0884 113.984 34.0689 113.705 34.055C113.619 34.0507 113.532 34.0485 113.446 34.0485C113.429 34.0485 113.411 34.0487 113.394 34.0488C112.622 34.0566 111.85 34.0605 111.076 34.0605C103.175 34.0605 95.185 33.6551 87.1065 32.8443C87.1665 26.3794 89.3956 21.2028 93.7938 17.3146C98.0355 15.3036 102.47 13.9075 107.098 13.1262ZM126.231 13.2129C133.668 14.4091 141.51 16.8961 149.758 20.6737C150.25 20.9369 150.736 21.2053 151.216 21.4788C151.382 22.3849 151.484 23.3396 151.526 24.3427C151.445 26.895 150.888 29.3868 149.857 31.8181C148.778 34.2511 147.788 36.5008 146.889 38.5674C145.146 36.1827 142.963 33.8321 140.341 31.5157C137.825 29.1344 134.284 26.5881 129.72 23.8769C130.022 22.2935 129.586 20.5928 128.397 19.3294C127.372 18.2414 125.99 17.692 124.605 17.692C123.325 17.692 122.043 18.161 121.038 19.1076C121.03 19.1147 121.022 19.1219 121.015 19.129C120.083 18.657 119.124 18.1806 118.138 17.6999C120.792 15.8411 123.49 14.3454 126.231 13.2129ZM161.509 28.8834C166.093 33.0223 169.921 37.8673 172.995 43.4185H172.994C173.866 45.4441 174.41 47.6291 174.627 49.9734C174.231 49.1148 173.794 48.247 173.316 47.3703C173.179 47.118 173.021 46.8775 172.844 46.6513C169.807 42.772 164.852 40.2878 157.979 39.1984C158.434 38.1649 158.909 37.0888 159.405 35.9704C159.416 35.9451 159.427 35.9197 159.438 35.8942C160.411 33.6016 161.101 31.2646 161.509 28.8834H161.509ZM125.173 33.2703C128.672 35.3891 131.358 37.3394 133.229 39.1214C133.278 39.1686 133.329 39.2148 133.38 39.26C133.709 39.5499 134.029 39.839 134.339 40.1272C129.261 42.079 125.221 45.9036 122.218 51.6009C123.113 46.7627 124.098 40.6525 125.173 33.2703ZM93.608 43.8501C98.0939 44.1676 102.555 44.3636 106.99 44.4383C104.294 46.5483 101.34 49.0343 98.1301 51.8961C96.3875 48.6857 94.8801 46.0037 93.608 43.8501ZM78.5729 44.4028C78.8387 45.1742 79.1303 45.9132 79.4477 46.6196C79.5816 46.9177 79.7434 47.2026 79.9308 47.4704C81.8565 50.2227 83.9054 53.8277 86.0774 58.2852L79.4006 52.1447C77.713 50.4848 76.4735 48.4361 75.6823 45.9986C75.638 45.8157 75.6017 45.6371 75.5739 45.463C76.5012 45.0355 77.5008 44.6821 78.5729 44.4028ZM110.337 58.9499C110.261 59.0215 110.188 59.0953 110.117 59.1711C110.184 59.0982 110.258 59.0245 110.337 58.9499ZM111.126 54.4563C110.595 56.9889 110.139 58.7032 109.758 59.5989C109.48 59.9691 109.251 60.3759 109.079 60.8091C108.166 63.1123 107.193 65.2345 106.16 67.1758C105.114 65.1379 104.114 63.2043 103.16 61.3747C106.04 58.753 108.696 56.4469 111.126 54.4563ZM141.014 49.3869C141.067 49.5411 141.116 49.6951 141.162 49.8488C141.278 50.4233 141.379 50.9904 141.466 51.5501C140.798 53.2957 140.377 54.5336 140.205 55.2638C140.167 55.4236 140.134 55.5795 140.107 55.7315C138.723 60.608 138.199 64.887 138.537 68.5684C136.979 70.9395 134.878 73.0195 132.232 74.8086C130.409 66.593 129.681 61.4807 130.048 59.4714C130.107 59.3526 130.16 59.2316 130.21 59.1086C132.278 53.9624 135.089 50.8085 138.643 49.6467C139.452 49.551 140.242 49.4644 141.014 49.3869ZM153.713 49.0248C158.969 49.4141 162.532 50.6644 164.4 52.7758H164.4C168.452 60.5119 167.419 66.9908 161.301 72.2126C161.271 72.2375 161.243 72.2623 161.214 72.2879C159.944 73.4209 158.682 74.4872 157.426 75.487C155.87 74.9484 154.791 74.4999 154.188 74.1417C154.012 73.9659 153.822 73.8028 153.621 73.6538C151.94 72.4048 150.696 71.1827 149.888 69.9876C152.056 64.9942 152.806 59.2635 152.138 52.7953C152.583 51.7067 153.108 50.4498 153.713 49.0248ZM119.725 62.5461C120.004 66.6358 120.966 72.2774 122.613 79.471C121.577 79.682 120.513 79.7875 119.423 79.7875C117.01 79.7875 114.462 79.2713 111.781 78.2387C111.748 78.1735 111.715 78.1083 111.682 78.0433C114.24 74.4351 116.51 70.1898 118.493 65.3074C118.686 65.0136 118.864 64.696 119.03 64.3547C119.251 63.8998 119.483 63.2969 119.725 62.5461ZM90.3514 76.3622L93.6579 79.4032C93.7392 79.478 93.8229 79.5501 93.9088 79.6196C94.2125 79.8651 94.5137 80.1047 94.8126 80.3383C93.6951 81.0561 92.517 81.6503 91.2781 82.1208C90.3423 80.4833 90.0334 78.5638 90.3514 76.3622ZM67.9259 54.1288C69.0803 56.1691 70.4989 58.0091 72.1816 59.6487C72.2174 59.6836 72.2538 59.7181 72.2906 59.752L82.1385 68.8089C81.5741 69.766 81.124 70.6818 80.7886 71.5564C80.7211 71.7323 80.6632 71.9118 80.6152 72.094C79.5364 76.187 79.3525 79.8397 80.0635 83.0521C74.8443 81.9255 71.2375 79.5499 69.2429 75.9254C65.9436 68.2865 65.4449 61.1998 67.7475 54.6653C67.7647 54.6163 67.7812 54.5672 67.797 54.5177C67.8387 54.3869 67.8819 54.2572 67.9259 54.1288ZM143.781 78.871C144.738 79.8491 145.82 80.7996 147.028 81.7225C147.162 81.8535 147.303 81.9816 147.452 82.1068C147.447 82.109 147.442 82.1113 147.438 82.1135C144.319 82.9516 140.508 83.8304 136.005 84.75C139.011 83.0056 141.603 81.046 143.781 78.871ZM104.197 86.2516C104.514 86.4124 104.83 86.5684 105.145 86.7196C105.416 87.0389 105.692 87.3503 105.973 87.6537C105.733 87.6585 105.491 87.6609 105.247 87.6609C104.392 87.6609 103.515 87.6312 102.618 87.5718C103.154 87.1527 103.68 86.7126 104.197 86.2516ZM161.987 87.7595C162.416 87.8807 162.855 88.0032 163.302 88.1268H163.301C163.534 88.258 163.861 88.5252 164.283 88.9286H164.283C164.72 89.6509 164.023 91.2974 162.192 93.8682H162.191C153.792 101.983 144.706 106.08 134.934 106.159C134.846 106.16 134.758 106.163 134.67 106.168C132.932 106.271 131.279 106.322 129.71 106.322C120.382 106.322 114.031 104.507 110.657 100.876C110.845 100.778 111.047 100.677 111.264 100.571C112.239 100.097 113.419 99.6102 114.805 99.1108C119.131 98.4158 123.171 97.7312 126.926 97.0571C128.132 97.1692 129.34 97.2253 130.551 97.2253C137.534 97.2253 144.613 95.3614 151.789 91.6337C155.983 90.4363 159.098 89.2786 161.135 88.1604H161.134C161.421 88.028 161.705 87.8944 161.987 87.7595H161.987ZM139.264 0.14502C134.402 0.14502 129.664 0.930545 125.052 2.50158C122.028 2.12341 119.056 1.93432 116.135 1.93432C106.393 1.93432 97.2252 4.03763 88.6315 8.24423C88.2558 8.42808 87.9037 8.65655 87.5828 8.92465C80.6683 14.7003 77.0457 22.2537 76.7148 31.5846C76.4912 31.5529 76.2676 31.5208 76.0438 31.4885C75.7961 31.4527 75.5473 31.435 75.2991 31.435C74.4822 31.435 73.673 31.6273 72.9387 32.0009C69.3207 33.8414 66.9337 36.2632 65.7777 39.2662C62.1513 42.2179 59.5243 46.226 57.8973 51.2906C54.7001 60.4353 55.3293 70.1013 59.7859 80.2885C59.8387 80.4093 59.8961 80.528 59.9579 80.6444C63.8783 88.0241 70.8854 92.4005 80.9794 93.7735C81.1131 93.7917 81.2477 93.8047 81.3825 93.8125C82.1453 93.8563 82.8981 93.8782 83.6411 93.8782C85.0662 93.8782 86.4548 93.7976 87.8069 93.6363C89.8309 94.9501 92.231 96.0788 95.0073 97.0224C95.2676 97.1109 95.5345 97.1786 95.8054 97.2249C97.0728 97.4415 98.3158 97.6175 99.5346 97.7527C98.8012 99.6142 98.9233 101.55 99.9012 103.561C99.9363 103.633 99.9731 103.705 100.012 103.775C104.716 112.409 114.692 116.726 129.938 116.726C131.613 116.726 133.352 116.674 135.154 116.57C147.797 116.431 159.344 111.24 169.795 100.997C170.001 100.795 170.19 100.577 170.36 100.343C175.707 92.9997 176.287 86.8977 172.102 82.0372C172.017 81.9383 171.928 81.8425 171.836 81.7502H171.835C175.717 78.7137 178.77 75.2692 180.996 71.4167C181.131 71.1826 181.248 70.9383 181.346 70.6861C186.038 58.5229 186.398 47.9601 182.425 38.9978C182.366 38.8633 182.3 38.7312 182.23 38.6022C176.856 28.8134 169.526 20.8775 160.24 14.7946H160.24C157.813 8.14053 152.823 3.4354 145.27 0.679245C144.866 0.531782 144.445 0.434976 144.017 0.391036C142.42 0.227031 140.836 0.14502 139.264 0.14502Z" fill="black"/>
<path d="M28.391 104.548C28.3634 104.669 28.3326 104.782 28.2988 104.889C28.3332 104.776 28.3643 104.663 28.391 104.548ZM22.8817 72.2622C18.9739 72.2622 14.8969 74.0692 10.6506 77.6831L10.601 77.7258C8.15791 79.8586 5.61418 83.6824 2.96984 89.1971L2.9419 89.2564C0.668842 94.1539 -0.342303 98.0433 -0.0915305 100.925C-0.0770855 101.09 -0.0587991 101.254 -0.0366609 101.417C0.319958 104.026 2.55269 105.918 5.11497 105.918C5.34969 105.918 5.58719 105.903 5.82626 105.87C8.67006 105.481 10.662 102.865 10.2818 100.022C10.1921 98.9915 10.8844 96.8839 12.359 93.699C14.3663 89.5129 16.0495 86.8146 17.4095 85.6041H17.4088C19.5985 83.7423 21.4423 82.8115 22.94 82.8115C23.5002 82.8115 24.0119 82.9417 24.4753 83.2021H24.4746C25.7319 84.1161 26.2376 86.2948 25.9917 89.7382C25.9892 89.7735 25.9871 89.8087 25.9853 89.8439H25.9846C25.9097 90.2533 25.6263 90.9554 25.1345 91.9501H25.1338C24.6713 92.7367 24.1847 93.4934 23.674 94.2201H23.6733C21.2561 97.064 19.71 99.0745 19.0349 100.251C18.7762 100.702 18.5721 101.146 18.4225 101.582H18.4218C17.5041 103.81 17.2914 106.091 17.7837 108.424C18.2147 110.536 19.1678 112.549 20.6437 114.463C20.7565 114.609 20.8771 114.75 21.0049 114.883L30.1281 124.418C31.1507 125.487 32.5195 126.025 33.8904 126.025C35.1843 126.025 36.4802 125.546 37.4889 124.581C39.5664 122.593 39.6391 119.297 37.6514 117.22L28.747 107.913C28.335 107.343 28.08 106.816 27.9833 106.331L27.9716 106.273C27.9189 106.024 27.9544 105.759 28.0782 105.48C28.1089 105.411 28.138 105.341 28.1656 105.271C28.6267 104.55 29.8226 103.057 31.7545 100.79C31.8522 100.676 31.9448 100.557 32.0322 100.434C32.8062 99.348 33.5363 98.2147 34.2225 97.0343C34.2773 96.9402 34.3291 96.8441 34.3779 96.7467C35.4102 94.6826 36.0432 92.9084 36.2768 91.4241C36.3302 91.0853 36.3651 90.754 36.3816 90.4304C36.9087 82.8991 34.8313 77.5788 30.1504 74.4695C30.092 74.4308 30.0329 74.3932 29.973 74.3568C27.6746 72.9604 25.3109 72.2622 22.8817 72.2622Z" fill="black"/>
<path d="M55.7976 136.701C55.4793 136.701 55.1565 136.73 54.8324 136.791C53.9546 136.955 53.1698 137.331 52.5209 137.856C52.4099 137.849 52.2994 137.846 52.1896 137.846C49.5367 137.846 47.2696 139.864 47.013 142.559C46.9388 143.337 46.9314 144.073 46.9907 144.767C47.1822 147.005 48.0277 148.793 49.5273 150.132C50.3118 150.833 51.2202 151.345 52.2521 151.669C52.4007 151.715 52.5514 151.755 52.7036 151.788L53.2142 151.899C53.3528 151.929 53.4927 151.954 53.6334 151.973C54.0423 152.027 54.441 152.054 54.8293 152.054C55.2998 152.054 55.7551 152.014 56.1952 151.934C56.3864 151.9 56.5757 151.854 56.7618 151.798L57.1251 151.689C57.3356 151.626 57.5419 151.55 57.7427 151.46C60.057 150.432 61.3237 148.603 61.5429 145.973C61.5969 145.325 61.5699 144.646 61.4619 143.934C61.4434 143.812 61.4224 143.689 61.3991 143.564L60.9087 140.948C60.4396 138.447 58.2537 136.701 55.7976 136.701Z" fill="black"/>
<path d="M210.385 59.9907C208.426 59.9907 206.585 60.7406 204.86 62.2403C203.006 63.8519 201.431 66.437 200.136 69.9957C199.152 72.6974 200.545 75.6851 203.246 76.6689C203.834 76.883 204.436 76.9846 205.027 76.9846C207.153 76.9846 209.15 75.672 209.919 73.5583C209.959 73.4485 209.999 73.3413 210.038 73.2365H210.04C210.032 74.7637 209.798 76.7502 209.336 79.1959H209.334C208.214 82.0362 206.23 85.3757 203.381 89.2145C203.359 89.2435 203.338 89.2723 203.313 89.308C202.489 90.4555 199.564 92.5928 194.54 95.7198C194.468 95.7647 194.397 95.8112 194.327 95.8596C194.041 96.0574 193.756 96.2826 193.472 96.5351C192.647 97.2691 191.728 98.342 190.715 99.7541C188.086 103.398 186.817 108.482 186.909 115.007C186.949 117.857 189.272 120.14 192.113 120.14C192.138 120.14 192.163 120.14 192.188 120.14C195.063 120.1 197.361 117.736 197.32 114.861C197.261 110.627 197.875 107.62 199.163 105.84L199.175 105.823C199.68 105.12 200.058 104.643 200.309 104.394H200.308C206.302 100.646 210.113 97.6544 211.742 95.42C215.31 90.6129 217.81 86.2859 219.242 82.4393C219.341 82.1733 219.418 81.8998 219.472 81.6212C221.269 72.4272 220.243 65.9858 216.394 62.297C216.19 62.1014 215.971 61.9227 215.737 61.7628C215.405 61.5349 215.07 61.3294 214.731 61.1463C214.304 60.9163 213.872 60.7216 213.435 60.5624C212.389 60.1813 211.372 59.9907 210.385 59.9907Z" fill="black"/>
<path d="M196.732 148.362L194.77 149.343C192.198 150.629 189.071 149.587 187.785 147.015C186.499 144.443 187.542 141.316 190.113 140.03L192.075 139.049C194.646 137.763 197.774 138.806 199.06 141.377C200.345 143.949 199.303 147.076 196.732 148.362Z" fill="black"/>
</g>
<defs>
<clipPath id="clip0_149_1858">
<rect width="643" height="448.589" fill="white"/>
</clipPath>
</defs>
</svg>
