<svg width="838" height="398" viewBox="0 0 838 398" fill="none" xmlns="http://www.w3.org/2000/svg">
<g clip-path="url(#clip0_144_1925)">
<path d="M383.447 26.5586C382.242 26.5586 381.155 27.3885 380.876 28.6125C376.856 46.2649 374.663 55.7295 374.297 57.0062C371.278 64.1599 363.287 93.7403 350.324 145.747C343.171 169.264 334.97 198.917 325.724 234.706C321.756 248.999 316.448 266.327 309.801 286.692L309.779 286.762C308.186 292.148 307.231 296.971 306.912 301.231C306.803 302.685 307.893 303.951 309.347 304.06C309.414 304.065 309.48 304.067 309.546 304.067C310.914 304.067 312.072 303.012 312.176 301.625C312.466 297.75 313.35 293.307 314.829 288.297C321.501 267.855 326.831 250.451 330.819 236.083L330.831 236.037C340.07 200.279 348.258 170.67 355.396 147.211C355.409 147.168 355.421 147.125 355.432 147.081C368.379 95.1361 376.294 65.7805 379.178 59.0142C379.23 58.8984 379.278 58.7672 379.323 58.6207C379.666 57.5066 381.899 47.8942 386.023 29.7844C386.346 28.3632 385.456 26.9487 384.035 26.6251C383.838 26.5801 383.641 26.5586 383.447 26.5586Z" fill="black"/>
<path d="M833.167 91.6816C832.358 91.9153 831.675 92.5314 831.391 93.3914C802.804 180.077 774.098 279.771 745.275 392.475C741.676 392.325 733.485 391.34 720.702 389.518H720.698C689.877 383.703 663.327 377.222 641.046 370.073C640.935 370.037 640.821 370.009 640.705 369.988L576.02 358.393H576.017C512.191 341.319 471.52 331.255 454.005 328.203H454.004C433.858 324.008 412.571 321.248 390.142 319.923L314.236 303.484C314.047 303.443 313.859 303.424 313.674 303.424C312.459 303.424 311.365 304.268 311.097 305.505C310.789 306.929 311.694 308.334 313.118 308.643L389.223 325.125C389.356 325.154 389.491 325.173 389.627 325.18C411.886 326.486 432.999 329.218 452.964 333.378L453.05 333.394C470.392 336.411 510.96 346.453 574.755 363.519C574.826 363.538 574.898 363.554 574.971 363.568L639.608 375.154H639.605C662.069 382.351 688.788 388.871 719.764 394.714L719.881 394.733C733.905 396.732 742.776 397.732 746.492 397.732C747.114 397.732 747.591 397.704 747.924 397.648C749.478 397.387 750.353 396.57 750.549 395.198C750.624 394.672 750.574 394.192 750.4 393.756H750.395C779.187 281.18 807.857 181.609 836.404 95.0446C836.543 94.6234 836.57 94.1923 836.502 93.7833H836.496C836.3 93.8287 836.102 93.8508 835.904 93.8508C834.984 93.8508 834.091 93.3692 833.605 92.5116C833.464 92.2628 833.32 91.9862 833.173 91.6816H833.167Z" fill="black"/>
<path d="M402.49 3.6333C401.805 3.6333 401.121 3.89802 400.604 4.42566C398.873 6.1927 397.66 7.52213 396.966 8.414C396.945 8.43689 396.924 8.46034 396.904 8.48431C396.405 9.07025 393.952 12.389 389.544 18.4404L383.632 25.3156C383.596 25.3569 383.562 25.3992 383.529 25.4426C382.487 26.8182 381.774 28.2744 381.39 29.8112C381.036 31.2253 381.896 32.6582 383.31 33.0117C383.525 33.0654 383.741 33.0911 383.952 33.0911C385.135 33.0911 386.211 32.2905 386.511 31.0912C386.715 30.2762 387.106 29.4785 387.686 28.6981L393.621 21.7947C393.667 21.7409 393.711 21.6852 393.75 21.6315C393.757 21.6223 393.76 21.6174 393.761 21.617L393.762 21.615C398.009 15.7839 400.384 12.562 400.887 11.9493C400.956 11.877 401.021 11.8006 401.082 11.7206C401.628 11.0036 402.725 9.80318 404.375 8.11938C405.395 7.07812 405.378 5.40719 404.336 4.38715C403.823 3.88405 403.156 3.6333 402.49 3.6333Z" fill="black"/>
<path d="M835.147 87.4443C833.856 87.4443 832.728 88.3922 832.538 89.7071C832.407 90.6157 832.239 91.8354 832.034 93.3661C831.84 94.8107 832.854 96.139 834.298 96.3328C834.417 96.3488 834.536 96.3565 834.653 96.3565C835.954 96.3565 837.087 95.3935 837.265 94.0679C837.468 92.5558 837.634 91.3534 837.763 90.4608C837.971 89.0181 836.97 87.6798 835.527 87.4717C835.399 87.4533 835.272 87.4443 835.147 87.4443Z" fill="black"/>
<path d="M729.4 25.1879C730.004 25.6919 730.213 26.4242 730.027 27.385C730.163 26.5889 729.922 25.7795 729.396 25.1879H729.4ZM775.698 44.1696C775.874 44.402 776.088 44.604 776.331 44.7672C776.092 44.6244 775.879 44.4252 775.693 44.1696H775.698ZM727.425 24.3037C726.407 24.3037 725.436 24.8973 725.004 25.8913C724.94 26.0387 724.889 26.1905 724.852 26.3467C724.517 27.76 725.075 28.8379 726.525 29.5803C727.676 30.1692 731.087 31.1399 736.759 32.4923H736.754C748.422 36.5554 755.239 39.2079 757.205 40.4499C757.476 40.6206 757.775 40.7409 758.088 40.8047C768.935 43.0139 775.06 44.3621 776.464 44.8494H776.459C781.737 48.1752 794.699 53.6254 815.345 61.2002C815.474 61.2477 815.608 61.2849 815.743 61.3117C815.902 61.3432 816.057 61.3676 816.207 61.3849C816.423 61.4099 816.632 61.4235 816.831 61.4255H816.826C817.742 67.0147 819.637 74.3141 822.51 83.3235C822.565 83.4945 822.637 83.6595 822.725 83.8159C823.487 85.1702 824.571 86.1281 825.976 86.6893C826.07 86.727 826.167 86.7591 826.265 86.7857C830.78 88.0088 833.359 88.7725 834.001 89.0768C834.372 89.2561 834.763 89.3411 835.149 89.3411C836.129 89.3411 837.07 88.7932 837.526 87.8526C838.162 86.541 837.614 84.9623 836.302 84.3261C836.289 84.32 836.277 84.3142 836.266 84.3088L836.261 84.3065C835.348 83.874 832.543 83.0204 827.847 81.7456H827.842C827.69 81.6686 827.559 81.5576 827.447 81.4124H827.442C823.562 69.2067 821.57 60.4362 821.465 55.1009C821.447 54.2076 820.979 53.384 820.22 52.9119C819.58 52.5138 818.981 52.3147 818.423 52.3147C817.48 52.3147 816.654 52.884 815.946 54.0225C815.858 54.1634 815.775 54.3154 815.698 54.4772C815.555 54.7756 815.422 55.1362 815.299 55.559C796.2 48.5128 784.221 43.4731 779.363 40.4399H779.358C779.125 40.2652 778.856 40.1171 778.552 39.9957C777.171 39.4446 770.848 38.0202 759.583 35.7224H759.578C756.866 34.1947 749.791 31.4406 738.354 27.46C738.27 27.4307 738.184 27.4056 738.097 27.385C733.295 26.2419 730.339 25.4513 729.229 25.0134H729.225C729.011 24.8138 728.76 24.6466 728.476 24.5233C728.134 24.3743 727.777 24.3037 727.425 24.3037Z" fill="black"/>
<path d="M722.8 24.4399C722.154 24.4399 721.444 24.6337 720.669 25.0212C720.647 25.0321 720.624 25.0441 720.598 25.0573C720.361 25.1807 720.121 25.3279 719.882 25.4985C719.822 25.5413 719.763 25.5864 719.707 25.6341C717.558 27.4531 715.952 28.7375 714.89 29.4875H714.886C708.568 33.5144 703.466 37.0444 699.581 40.0774L699.54 40.1104L692.062 46.1933C690.931 47.1131 690.76 48.7754 691.68 49.9061C692.201 50.5474 692.962 50.8799 693.729 50.8799C694.314 50.8799 694.903 50.6862 695.393 50.288L702.871 44.2051C706.637 41.2679 711.62 37.8259 717.817 33.8791C717.852 33.857 717.887 33.8336 717.92 33.8098C718.972 33.068 720.45 31.9 722.354 30.3057H722.358C722.724 30.4885 723.13 30.5855 723.542 30.5855C723.939 30.5855 724.341 30.4957 724.72 30.3063C726.024 29.6545 726.552 28.0693 725.901 26.7656C725.126 25.2152 724.092 24.4399 722.8 24.4399Z" fill="black"/>
<path d="M405.963 0.369015C412.521 4.25414 423.405 7.80977 438.616 11.0359L438.648 11.043C440.477 11.4547 445.562 11.6415 453.905 11.6033C453.982 11.6029 454.059 11.606 454.135 11.6122L464.134 12.4398C464.207 12.4458 464.28 12.4549 464.352 12.467L477.324 14.6384L477.02 14.6055C484.685 14.9877 497.137 16.4577 514.375 19.0156L514.294 19.0049C519.522 19.6155 528.744 21.2625 541.96 23.9456C542.026 23.9591 542.093 23.9753 542.158 23.9938C565.307 30.5879 580.277 35.495 587.068 38.7153L586.719 38.5792C609.798 45.7348 625.384 50.1881 633.477 51.9391C633.627 51.9717 633.775 52.0173 633.917 52.0757L649.986 58.6459L649.599 58.5216C655.291 59.8792 662.293 61.9863 670.604 64.843C670.654 64.86 670.702 64.8785 670.751 64.8984C670.692 64.8741 670.644 64.8573 670.608 64.8477C671.442 65.0667 674.636 65.2685 680.189 65.4528C680.43 65.4608 680.669 65.5018 680.899 65.5748C682.339 66.0315 683.423 66.9356 684.151 68.287C684.842 69.5704 684.362 71.171 683.078 71.862C681.795 72.553 680.194 72.0727 679.503 70.7893C679.451 70.6931 679.385 70.6321 679.303 70.6063L680.014 70.7283C674.065 70.5309 670.483 70.2726 669.267 69.9532C669.076 69.9029 668.901 69.845 668.74 69.779L668.888 69.8348C660.738 67.0337 653.901 64.9741 648.375 63.656C648.243 63.6246 648.114 63.583 647.988 63.5317L631.92 56.9615L632.36 57.0981C624.117 55.3146 608.383 50.8222 585.156 43.6208C585.036 43.5837 584.92 43.5383 584.807 43.4847C578.279 40.3893 563.581 35.5846 540.712 29.0704L540.91 29.1186C527.838 26.4647 518.762 24.8411 513.681 24.2477L513.6 24.2369C496.531 21.7042 484.25 20.251 476.757 19.8774C476.655 19.8723 476.553 19.8613 476.453 19.8445L463.481 17.673L463.699 17.7003L453.7 16.8727L453.929 16.8817C445.187 16.9218 439.707 16.692 437.488 16.1924L437.521 16.1995C421.744 12.8533 410.328 9.09024 403.273 4.91027C402.019 4.16727 401.605 2.54837 402.348 1.29437C403.09 0.0403287 404.709 -0.373965 405.963 0.369015Z" fill="black"/>
<path d="M697.489 45.8521C697.362 45.8521 697.233 45.8613 697.104 45.8802C694.913 46.2006 692.855 47.4486 690.93 49.6241C690.368 50.2439 689.805 50.9387 689.242 51.7086L689.176 51.8036C687.609 54.1568 685.318 57.4302 682.303 61.6239C681.733 62.3935 681.108 63.1075 680.429 63.7656L680.416 63.7781C678.955 65.2136 676.732 66.7885 673.749 68.5028C672.485 69.229 672.049 70.8422 672.775 72.1061C673.263 72.9555 674.152 73.4309 675.066 73.4309C675.512 73.4309 675.964 73.3178 676.378 73.0796C679.745 71.1453 682.32 69.3041 684.102 67.5563C684.999 66.6875 685.821 65.746 686.57 64.7317L686.589 64.7053C689.601 60.5162 691.907 57.2223 693.506 54.8235H693.503C693.963 54.1948 694.414 53.637 694.858 53.1503L694.883 53.1219C695.955 51.9102 696.95 51.2373 697.868 51.1031C699.31 50.8922 700.308 49.552 700.097 48.1097C699.905 46.7969 698.778 45.8521 697.489 45.8521Z" fill="black"/>
<path d="M672.795 68.4287C672.795 68.4287 672.795 68.4288 672.795 68.4287ZM675.426 65.6221C673.775 65.6221 672.894 66.4672 672.784 68.1573C672.77 68.3748 672.752 68.9572 672.729 69.9039C672.728 69.9567 672.728 70.0098 672.73 70.0627L672.805 72.1042C672.808 72.1891 672.815 72.2738 672.826 72.358L673.265 75.6431C673.285 75.7937 673.319 75.9423 673.364 76.0873C674.696 80.3078 675.86 85.2938 676.857 91.0452C676.871 91.127 676.889 91.2081 676.911 91.2899C676.917 91.3117 676.924 91.3337 676.93 91.356C677.56 93.5528 679.582 95.2834 682.993 96.5468H682.99C685.875 97.7545 687.958 98.4888 689.238 98.7498C689.356 98.7738 689.476 98.7897 689.596 98.7975C694.322 99.1019 697.089 99.4016 697.896 99.6965L697.901 99.6984C697.903 99.6989 697.903 99.6992 697.903 99.6992L697.968 99.7222L710.223 103.91C710.415 103.976 710.615 104.019 710.817 104.039C714.87 104.44 718.398 104.968 721.399 105.623C721.57 105.661 721.744 105.681 721.919 105.684C728.306 105.787 732.027 106.044 733.081 106.452H733.077C733.213 106.522 733.354 106.579 733.5 106.624C745.413 110.288 754.45 113.695 760.611 116.846C760.805 116.945 761.012 117.021 761.225 117.069L769.365 118.927H769.361C780.594 123.787 788.051 126.706 791.729 127.685C805.694 131.573 815.24 133.621 820.37 133.828H820.365C821.176 134.029 822.281 134.59 823.678 135.51C824.125 135.804 824.629 135.944 825.127 135.944C825.985 135.944 826.827 135.526 827.334 134.756C828.135 133.538 827.798 131.901 826.58 131.1C824.498 129.73 822.704 128.899 821.196 128.607C821.056 128.58 820.914 128.565 820.772 128.56C816.129 128.423 806.91 126.433 793.116 122.591L793.086 122.583C789.635 121.666 782.35 118.8 771.229 113.984C771.08 113.92 770.926 113.869 770.767 113.833L762.726 111.998H762.721C756.336 108.769 747.183 105.317 735.262 101.643H735.257C735.181 101.609 735.103 101.575 735.021 101.543C733.405 100.908 729.155 100.53 722.271 100.41H722.266C719.202 99.7545 715.662 99.2237 711.648 98.8178H711.644L699.675 94.7274H699.676C698.389 94.2695 695.21 93.8747 690.139 93.5431H690.135C689.149 93.3141 687.421 92.6817 684.951 91.6456L684.911 91.629L684.909 91.6284L684.843 91.6029C683.184 90.9905 682.247 90.4492 682.033 89.9792H682.029C681.017 84.1717 679.832 79.092 678.474 74.7402H678.47L678.075 71.7847L678.01 70.0124H678.007C678.01 69.8741 678.013 69.745 678.016 69.6251H678.012C678.056 69.4347 678.078 69.2365 678.078 69.033C678.077 68.6369 678.075 68.3691 678.069 68.2294C678.003 66.4913 677.122 65.6221 675.426 65.6221Z" fill="black"/>
<path d="M679.033 72.8491C677.732 72.8491 676.511 72.9182 675.372 73.0566C673.925 73.2322 672.895 74.5477 673.07 75.9946C673.233 77.3336 674.371 78.3161 675.687 78.3161C675.793 78.3161 675.9 78.3097 676.008 78.2966C676.951 78.1821 677.969 78.1249 679.061 78.1249C682.343 78.1249 686.3 78.6411 690.933 79.6736H690.929L700.84 83.4123C701.029 83.4837 701.226 83.5331 701.427 83.5596C705.067 84.0388 708.272 84.618 711.04 85.2971L745.4 93.744L752.3 95.8973C752.388 95.9247 752.477 95.9476 752.567 95.9656C769.699 99.4022 778.937 101.373 780.28 101.876H780.279C780.375 101.916 780.474 101.951 780.574 101.979L832.935 116.678C833.173 116.745 833.413 116.777 833.65 116.777C834.803 116.777 835.862 116.015 836.189 114.85C836.583 113.447 835.765 111.99 834.361 111.596L782.136 96.9346H782.134C780.53 96.3326 771.07 94.2945 753.754 90.8201H753.749L746.895 88.6809C746.843 88.6648 746.791 88.6503 746.739 88.6373L712.299 80.171L712.298 80.1707C709.422 79.4651 706.131 78.864 702.426 78.3674H702.422L692.612 74.6672C692.497 74.6238 692.38 74.5886 692.26 74.5616C687.181 73.4199 682.772 72.8491 679.033 72.8491Z" fill="black"/>
<path d="M420.943 224.317C420.551 224.317 420.153 224.405 419.778 224.59C418.471 225.234 417.933 226.816 418.577 228.123C420.77 232.575 422.546 238.257 423.904 245.168L423.914 245.213C425.167 251.047 425.955 255.276 426.277 257.9L426.282 257.942C426.543 259.823 426.735 261.811 426.857 263.908C426.878 264.277 426.895 264.608 426.91 264.902H426.909C426.733 265.331 426.669 265.811 426.745 266.303C426.81 266.716 426.868 267.032 426.92 267.25C427.269 268.723 428.123 269.46 429.481 269.46C429.554 269.46 429.628 269.458 429.704 269.453H429.702C431.299 269.365 432.14 268.469 432.228 266.766C432.252 266.291 432.218 265.238 432.127 263.607L432.127 263.601C431.997 261.379 431.794 259.265 431.516 257.258C431.176 254.484 430.365 250.115 429.084 244.15C427.635 236.781 425.711 230.661 423.312 225.791C422.853 224.858 421.916 224.317 420.943 224.317Z" fill="black"/>
<path d="M440.416 213.806C440.249 213.806 440.078 213.822 439.907 213.855C435.719 214.674 431.064 215.914 425.941 217.576H425.94C423.411 218.297 419.063 219.847 412.897 222.225H412.896C411.342 222.754 408.752 223.581 405.129 224.707L405.032 224.739C403.015 225.452 401.577 226.344 400.719 227.415C400.305 227.93 400.015 228.487 399.849 229.085C399.459 230.489 400.281 231.944 401.686 232.334C401.922 232.4 402.16 232.431 402.393 232.431C403.493 232.431 404.506 231.739 404.882 230.667H404.881C405.141 230.394 405.76 230.084 406.739 229.734H406.738C410.429 228.587 413.069 227.743 414.657 227.202L414.756 227.166C420.841 224.818 425.068 223.309 427.437 222.638L427.534 222.609C432.468 221.006 436.93 219.815 440.92 219.036C442.35 218.756 443.283 217.37 443.004 215.939C442.758 214.68 441.653 213.806 440.416 213.806Z" fill="black"/>
<path d="M462.306 223.107C469.551 223.113 475.066 225.453 478.852 230.127L478.913 230.199C481.243 232.875 481.823 236.824 480.652 242.045H480.651C479.075 247.402 476.46 250.938 472.807 252.653L472.777 252.667C471.907 253.089 470.892 253.299 469.734 253.299C468.118 253.299 466.222 252.889 464.046 252.068H464.044C461.394 250.85 459.392 248.794 458.039 245.902H458.038C456.677 242.013 456.938 237.259 458.821 231.64H458.819C459.537 229.892 460.886 229.019 462.866 229.019C463.048 229.019 463.235 229.026 463.427 229.041C463.496 229.046 463.564 229.048 463.632 229.048C464.998 229.048 466.154 227.995 466.26 226.61C466.371 225.157 465.283 223.889 463.83 223.778C463.443 223.748 463.066 223.733 462.699 223.733C461.606 223.733 460.6 223.864 459.681 224.127C460.482 223.52 461.356 223.18 462.304 223.107H462.306ZM462.277 217.828C462.254 217.828 462.231 217.828 462.207 217.828C462.154 217.828 462.101 217.83 462.047 217.833C458.954 218.027 456.35 219.469 454.237 222.161H454.235C452.328 224.163 451.38 227.075 451.393 230.897C451.396 231.929 451.992 232.821 452.857 233.252H452.855C451.507 238.709 451.589 243.55 453.101 247.774C453.126 247.845 453.155 247.915 453.186 247.984C455.099 252.158 458.014 255.132 461.931 256.906C461.98 256.928 462.03 256.949 462.08 256.968C464.892 258.039 467.45 258.574 469.755 258.574C471.7 258.574 473.465 258.193 475.05 257.431C480.167 255.03 483.733 250.358 485.749 243.415C485.764 243.364 485.778 243.313 485.789 243.261C487.36 236.315 486.415 230.829 482.956 226.805H482.954C478.107 220.82 471.214 217.828 462.277 217.828Z" fill="black"/>
<path d="M508.959 249.089C509.033 249.167 509.099 249.246 509.156 249.326C509.095 249.244 509.028 249.165 508.957 249.089H508.959ZM491.322 210.423C491.059 210.423 490.791 210.463 490.527 210.547C489.137 210.985 488.366 212.468 488.805 213.858C489.093 214.772 489.522 215.783 490.091 216.89C490.117 216.939 490.143 216.988 490.172 217.035C493.864 223.227 495.889 226.846 496.247 227.893H496.245C496.284 228.094 496.346 228.291 496.43 228.478C497.048 229.855 498.527 234.301 500.866 241.816L500.892 241.895C502.907 247.716 504.138 251.064 504.585 251.939C504.794 252.346 505.045 252.675 505.34 252.924C505.836 253.341 506.44 253.546 507.041 253.546C507.792 253.546 508.537 253.227 509.059 252.608C509.831 251.693 509.874 250.408 509.248 249.457H509.246C508.87 248.659 507.757 245.589 505.907 240.247H505.906C503.639 232.963 502.127 228.416 501.371 226.608H501.369C501.348 226.524 501.323 226.438 501.296 226.35C500.865 224.987 498.687 221.012 494.762 214.427H494.76C494.341 213.606 494.033 212.886 493.838 212.269C493.483 211.143 492.443 210.423 491.322 210.423Z" fill="black"/>
<path d="M499.005 204.174C497.234 204.174 495.608 204.469 494.127 205.059L494.106 205.067C493.345 205.378 492.7 205.786 492.172 206.292C491.415 207.017 490.931 207.892 490.72 208.918C490.562 209.688 490.57 210.511 490.745 211.387C490.996 212.641 492.098 213.509 493.331 213.509C493.502 213.509 493.676 213.492 493.851 213.457C495.28 213.171 496.207 211.781 495.921 210.352C495.897 210.229 495.884 210.131 495.884 210.06H495.882C495.929 210.03 495.995 209.998 496.079 209.963C496.934 209.623 497.91 209.453 499.009 209.453C499.75 209.453 500.546 209.53 501.397 209.685H501.395C504.737 210.645 507.21 211.745 508.814 212.983C508.856 213.015 508.898 213.046 508.941 213.076C509.88 213.715 510.528 214.704 510.887 216.043H510.885C511.082 217.616 509.947 219.596 507.482 221.982L507.398 222.067C505.676 223.891 501.919 226.054 496.126 228.556C494.788 229.134 494.171 230.687 494.749 232.026C495.18 233.023 496.152 233.619 497.173 233.619C497.523 233.619 497.878 233.549 498.219 233.402C504.611 230.641 508.927 228.095 511.167 225.763H511.165C515.009 222.038 516.646 218.47 516.075 215.059C516.063 214.987 516.048 214.916 516.03 214.845C515.358 212.201 514.015 210.177 512.001 208.774H511.999C509.842 207.12 506.748 205.72 502.718 204.573C502.641 204.551 502.563 204.532 502.484 204.518C501.268 204.289 500.109 204.174 499.005 204.174Z" fill="black"/>
<path d="M571.001 183.511C569.291 183.511 567.291 184.324 565.002 185.952C564.754 186.129 564.5 186.316 564.242 186.513C564.159 186.576 564.081 186.643 564.006 186.715C558.834 191.725 555.936 195.881 555.312 199.182C555.295 199.276 555.282 199.37 555.275 199.465C555.177 200.71 555.349 201.806 555.792 202.755C556.164 203.551 556.704 204.207 557.414 204.724C557.533 204.811 557.656 204.893 557.783 204.971H557.781C558.478 205.484 559.726 206.106 561.524 206.835C561.599 206.866 561.676 206.893 561.754 206.917C566.618 208.384 569.418 209.343 570.153 209.793H570.15C570.228 209.849 570.31 209.9 570.394 209.947C571.994 210.836 572.848 211.59 572.956 212.209C572.971 212.296 572.991 212.382 573.015 212.466C573.472 214.097 572.74 215.954 570.818 218.039L570.774 218.087C568.971 220.141 566.777 221.245 564.193 221.398C562.738 221.484 561.628 222.733 561.715 224.188C561.798 225.59 562.96 226.672 564.347 226.672C564.399 226.672 564.452 226.67 564.505 226.667C568.536 226.429 571.934 224.745 574.699 221.617C577.904 218.141 579.05 214.668 578.14 211.199H578.137C577.713 209.003 576.033 207.074 573.099 205.412H573.096C573.037 205.372 572.975 205.332 572.911 205.292C571.798 204.61 568.629 203.48 563.407 201.902H563.404C562.074 201.359 561.25 200.97 560.93 200.735C560.815 200.64 560.691 200.555 560.562 200.481H560.559C560.529 200.387 560.519 200.239 560.527 200.037H560.525C561.001 197.858 563.345 194.721 567.556 190.626H567.553C567.726 190.496 567.895 190.371 568.061 190.254C569.347 189.34 570.266 188.853 570.819 188.793H570.821C571.337 189.413 572.089 189.743 572.852 189.743C573.381 189.743 573.915 189.584 574.379 189.255C575.567 188.41 575.845 186.762 575 185.574C574.948 185.501 574.896 185.431 574.841 185.362C573.966 184.251 572.824 183.64 571.415 183.527C571.279 183.516 571.141 183.511 571.001 183.511Z" fill="black"/>
<path d="M588.115 182.27C587.932 182.27 587.746 182.289 587.559 182.329C586.134 182.634 585.226 184.037 585.532 185.463C585.698 186.235 585.998 187.424 586.434 189.029L586.457 189.108L586.458 189.11L586.466 189.136C588.208 194.638 589.191 197.979 589.414 199.159C589.424 199.212 589.436 199.264 589.449 199.316C590.044 201.67 590.772 206.69 591.633 214.376C591.639 214.432 591.648 214.489 591.658 214.545C592.062 216.816 592.783 218.565 593.818 219.792L593.886 219.869C595.237 221.35 597.038 222.091 599.29 222.091C600.504 222.091 601.849 221.876 603.325 221.445C607.483 220.233 611.04 218.427 613.997 216.026C615.128 215.107 615.3 213.445 614.381 212.313C613.86 211.671 613.099 211.338 612.331 211.338C611.747 211.338 611.158 211.531 610.669 211.928C608.264 213.882 605.324 215.364 601.849 216.377L601.848 216.377C600.83 216.674 599.988 216.823 599.322 216.823C598.644 216.823 598.147 216.669 597.833 216.361H597.83C597.427 215.865 597.109 214.992 596.876 213.74H596.873C596.003 205.972 595.244 200.776 594.598 198.151H594.596C594.325 196.747 593.295 193.219 591.506 187.568L591.505 187.566H591.507C591.107 186.094 590.836 185.024 590.693 184.356C590.427 183.117 589.333 182.27 588.115 182.27Z" fill="black"/>
<path d="M611.789 195.707C611.693 195.707 611.597 195.712 611.5 195.723C607.399 196.169 603.854 196.907 600.865 197.939C596.798 199.285 593.968 200.746 592.379 202.323C591.344 203.349 591.336 205.02 592.363 206.055C592.879 206.575 593.558 206.836 594.237 206.836C594.909 206.836 595.581 206.581 596.095 206.071C597.101 205.073 599.254 204.029 602.554 202.94L602.588 202.929C605.202 202.026 608.363 201.373 612.071 200.97C613.52 200.813 614.567 199.51 614.409 198.061C614.262 196.709 613.118 195.707 611.789 195.707Z" fill="black"/>
<path d="M597.173 179.233C595.941 179.233 594.877 179.295 593.979 179.418C593.914 179.427 593.849 179.439 593.784 179.452C592.811 179.661 591.81 180.032 590.78 180.564L590.686 180.615C588.931 181.613 587.713 182.466 587.033 183.173L586.995 183.213C586.171 184.106 585.6 184.942 585.281 185.721C584.719 187.092 584.817 188.327 585.573 189.424C586.085 190.167 586.91 190.565 587.748 190.565C588.265 190.565 588.787 190.414 589.244 190.098C590.132 189.486 590.528 188.428 590.34 187.433H590.337C590.453 187.271 590.62 187.071 590.837 186.833C591.159 186.499 591.953 185.97 593.222 185.245H593.22C593.788 184.952 594.315 184.749 594.798 184.635H594.795C595.452 184.55 596.244 184.508 597.17 184.508C598.516 184.508 600.145 184.597 602.058 184.775L602.062 184.776C603.777 184.932 605.608 185.302 607.555 185.884C607.807 185.959 608.061 185.995 608.312 185.995C609.448 185.995 610.497 185.256 610.839 184.111C611.257 182.715 610.463 181.244 609.067 180.827C606.785 180.144 604.611 179.709 602.547 179.519C600.497 179.329 598.706 179.233 597.173 179.233Z" fill="black"/>
<path d="M639.839 172.086C636.17 172.086 632.412 174.327 628.564 178.808C628.507 178.875 628.453 178.945 628.402 179.017C626.7 181.456 625.25 185.919 624.052 192.406H624.048C623.296 195.47 623.565 198.534 624.854 201.6H624.851C626.582 206.311 631.452 209.325 639.461 210.64C639.574 210.659 639.688 210.67 639.802 210.674C640.096 210.683 640.389 210.688 640.68 210.688C643.518 210.688 646.214 210.229 648.768 209.309H648.765C648.913 209.271 649.065 209.223 649.221 209.165C650.441 208.71 652.789 207.14 656.263 204.457C657.416 203.566 657.629 201.909 656.738 200.755C656.218 200.082 655.437 199.729 654.647 199.729C654.084 199.729 653.516 199.909 653.036 200.28C650.035 202.598 648.161 203.906 647.413 204.205H647.41C647.308 204.229 647.208 204.259 647.11 204.296C645.096 205.038 642.951 205.41 640.676 205.41C640.501 205.41 640.325 205.407 640.148 205.403H640.145C634.22 204.405 630.766 202.507 629.78 199.71C629.763 199.661 629.744 199.611 629.723 199.562C628.87 197.537 628.695 195.54 629.198 193.572C629.213 193.514 629.226 193.455 629.236 193.396C630.275 187.763 631.413 184.017 632.65 182.156H632.647C635.36 179.02 637.795 177.452 639.952 177.452C640.686 177.452 641.388 177.634 642.057 177.997C642.457 178.214 642.889 178.317 643.314 178.317C644.25 178.317 645.158 177.817 645.636 176.936C646.331 175.655 645.856 174.052 644.575 173.357C643.013 172.51 641.434 172.086 639.839 172.086Z" fill="black"/>
<path d="M661.778 170.021C661.218 170.021 660.653 170.199 660.173 170.567C659.017 171.454 658.799 173.111 659.686 174.267C660.627 175.493 661.894 178.889 663.488 184.453C664.366 187.733 665.248 192.516 666.133 198.801H666.132C666.141 198.868 666.151 198.936 666.164 199.007C666.241 199.429 666.548 200.679 667.085 202.755C667.393 203.945 668.464 204.734 669.638 204.734C669.857 204.734 670.079 204.707 670.301 204.65C671.712 204.285 672.56 202.845 672.195 201.434C671.693 199.489 671.413 198.366 671.358 198.065H671.36C670.441 191.539 669.512 186.531 668.574 183.041L668.562 183C666.784 176.792 665.221 172.811 663.874 171.054C663.354 170.377 662.571 170.021 661.778 170.021Z" fill="black"/>
<path d="M668.786 168.095C668.278 168.095 667.766 168.128 667.248 168.194C667.113 168.211 666.979 168.239 666.848 168.277C662.252 169.61 659.778 172.178 659.426 175.982C659.291 177.433 660.358 178.719 661.81 178.853C661.893 178.861 661.975 178.865 662.057 178.865C663.404 178.865 664.555 177.838 664.681 176.469C664.809 175.095 665.952 174.075 668.112 173.408H668.109C668.314 173.388 668.518 173.378 668.722 173.378C670.4 173.378 672.045 174.055 673.658 175.41H673.654C674.527 176.416 675.003 177.129 675.083 177.549C675.095 177.621 675.111 177.692 675.129 177.762C675.666 179.813 675.831 181.232 675.624 182.018C675.595 182.129 675.573 182.241 675.559 182.354C675.434 183.32 674.901 184.64 673.958 186.313C673.909 186.399 673.866 186.487 673.827 186.578H673.823C673.51 187.052 672.601 188.158 671.097 189.896C671.063 189.935 671.03 189.975 670.998 190.016C670.387 190.814 669.913 191.554 669.577 192.237C669.364 192.67 669.206 193.087 669.103 193.489C668.771 194.784 668.965 195.908 669.685 196.863C669.74 196.936 669.799 197.006 669.861 197.072C674.095 201.621 679.928 204.703 687.358 206.318C687.547 206.359 687.736 206.379 687.922 206.379C689.136 206.379 690.23 205.535 690.498 204.3C690.808 202.876 689.904 201.47 688.48 201.16C682.577 199.877 677.912 197.574 674.487 194.254H674.483C674.644 193.977 674.855 193.667 675.115 193.322H675.112C676.911 191.243 678.011 189.866 678.413 189.193C678.497 189.052 678.571 188.912 678.633 188.774H678.629C679.813 186.652 680.525 184.804 680.765 183.232H680.761C681.156 181.591 680.993 179.369 680.272 176.567H680.269C680.006 175.179 679.077 173.579 677.482 171.769C677.402 171.678 677.316 171.593 677.225 171.514C674.579 169.235 671.766 168.095 668.786 168.095Z" fill="black"/>
<path d="M696.507 168.193C695.313 168.193 694.231 169.009 693.942 170.221C693.571 171.782 693.512 173.395 693.766 175.062L693.776 175.122C694.936 181.705 695.92 188.083 696.726 194.255C696.732 194.303 696.74 194.351 696.749 194.398C697.173 196.669 698.163 198.645 699.72 200.326H699.716C700.025 200.716 700.396 201.057 700.827 201.346C701.954 202.104 703.532 202.483 705.561 202.483C706.613 202.483 707.785 202.381 709.079 202.178H709.075C711.742 201.857 715.755 200.568 721.115 198.311C722.458 197.745 723.089 196.198 722.523 194.854C722.098 193.845 721.119 193.239 720.089 193.239C719.748 193.239 719.401 193.305 719.066 193.446C714.14 195.521 710.592 196.685 708.421 196.94L708.313 196.955C707.073 197.153 706.074 197.251 705.314 197.251C704.608 197.251 704.109 197.166 703.818 196.995H703.814C703.759 196.924 703.701 196.855 703.64 196.79C702.772 195.869 702.212 194.785 701.959 193.539H701.956C701.142 187.317 700.152 180.893 698.985 174.266C698.834 173.277 698.864 172.337 699.077 171.444C699.415 170.026 698.539 168.603 697.121 168.265C696.916 168.216 696.71 168.193 696.507 168.193Z" fill="black"/>
<path d="M717.169 178.339C717.02 178.339 716.868 178.352 716.715 178.379C712.616 179.09 705.887 180.755 696.53 183.374C695.127 183.766 694.307 185.223 694.7 186.626C695.026 187.792 696.086 188.555 697.24 188.555C697.476 188.555 697.715 188.523 697.953 188.457C707.138 185.886 713.693 184.26 717.617 183.579C719.054 183.33 720.016 181.964 719.767 180.528C719.544 179.244 718.429 178.339 717.169 178.339Z" fill="black"/>
<path d="M716.801 166.639C716.796 166.639 716.79 166.639 716.785 166.639C713.505 166.658 710.955 166.72 709.136 166.825L709.132 166.825C705.94 167.012 703.437 167.244 701.625 167.521H701.624C697.735 168.066 694.79 168.931 692.789 170.115C691.535 170.858 691.12 172.477 691.863 173.731C692.356 174.563 693.234 175.026 694.136 175.026C694.593 175.026 695.057 174.907 695.478 174.657C696.878 173.829 699.181 173.191 702.388 172.744L702.421 172.739C704.071 172.487 706.41 172.272 709.439 172.094C711.169 171.995 713.627 171.936 716.816 171.918C718.273 171.909 719.448 170.721 719.44 169.263C719.431 167.811 718.251 166.639 716.801 166.639Z" fill="black"/>
<path d="M734.072 160.149C732.74 160.149 731.596 161.153 731.451 162.507C731.147 165.331 731.446 168.213 732.345 171.154C732.681 172.273 733.093 173.485 733.581 174.789L733.606 174.853C735.491 179.513 736.813 182.955 737.57 185.182L737.6 185.264C738.11 186.614 739.047 189.58 740.411 194.163C740.752 195.309 741.802 196.05 742.939 196.05C743.189 196.05 743.442 196.015 743.693 195.94C745.09 195.524 745.886 194.054 745.47 192.657C744.095 188.039 743.128 184.981 742.569 183.481H742.567C741.781 181.171 740.434 177.656 738.525 172.938C738.076 171.739 737.7 170.635 737.397 169.625L737.393 169.61C736.704 167.358 736.473 165.178 736.699 163.07C736.855 161.621 735.806 160.32 734.357 160.164C734.261 160.154 734.166 160.149 734.072 160.149Z" fill="black"/>
<path d="M727.455 162.336C727.207 163.301 726.601 163.902 725.639 164.137C726.514 163.888 727.2 163.204 727.451 162.336H727.455ZM749.34 154.756C749.154 154.756 748.966 154.776 748.776 154.817C746.627 155.285 743.897 155.803 740.587 156.372H740.585C730.544 157.967 725.161 158.842 724.436 158.998C724.392 159.007 724.348 159.017 724.305 159.028H724.3C722.296 159.401 720.339 159.833 718.428 160.324C717.016 160.687 716.166 162.126 716.529 163.537C716.835 164.729 717.908 165.52 719.083 165.52C719.301 165.52 719.522 165.493 719.742 165.436C721.579 164.964 723.463 164.55 725.395 164.194C725.463 164.181 725.529 164.166 725.595 164.149H725.591C726.402 163.986 731.688 163.13 741.448 161.579L741.48 161.574C744.867 160.992 747.674 160.459 749.9 159.974C751.324 159.664 752.227 158.258 751.917 156.834C751.648 155.599 750.555 154.756 749.34 154.756Z" fill="black"/>
<path d="M712.308 146.817C712.164 147.575 711.805 148.109 711.229 148.418C711.771 148.043 712.159 147.473 712.304 146.817H712.308ZM758.383 139.746C759.21 139.746 759.803 140.019 760.162 140.566H760.157L773.875 192.1L773.875 192.103C774.019 192.639 774.121 193.089 774.183 193.452H774.179C767.566 194.797 760.257 198.17 752.251 203.571H752.246C741.973 206.941 731.628 209.888 721.211 212.414C720.841 212.503 720.495 212.672 720.197 212.907C712.69 218.834 707.769 221.871 705.434 222.017C705.362 222.021 705.291 222.029 705.22 222.039C689.862 224.262 673.024 228.248 654.708 233.998H654.705C646.931 235.19 637.957 236.837 627.781 238.937C627.73 238.948 627.679 238.96 627.628 238.974L581.139 251.512L581.068 251.532C568.902 255.179 547.444 258.519 516.694 261.552C516.546 261.567 516.399 261.594 516.256 261.633C499.811 266.135 481.811 269.549 462.255 271.876C462.113 271.893 461.973 271.921 461.836 271.961C444.849 276.859 433.212 281.027 426.925 284.463H426.923L405.423 289.371C403.7 276.922 397.447 257.98 386.664 232.543L381.306 213.872L426.775 204.769C426.932 204.737 427.086 204.691 427.235 204.632C434.15 201.87 438.212 200.452 439.421 200.377H439.422C439.438 200.377 439.454 200.377 439.47 200.377C439.542 200.377 439.614 200.374 439.685 200.368L465.073 198.286C465.475 198.253 465.864 198.128 466.211 197.921H466.209C468.235 196.857 480.743 194.501 503.734 190.853C503.842 190.836 503.949 190.812 504.054 190.781L525.113 184.689H525.111C533.871 182.97 544.48 181.959 556.938 181.657C557.096 181.653 557.253 181.636 557.408 181.604L611.682 170.402L661.261 164.229C661.42 164.209 661.576 164.175 661.728 164.127L710.519 148.766C710.721 148.702 710.911 148.616 711.087 148.51H711.083C713.181 147.956 722.558 146.883 739.213 145.292L739.223 145.291C741.856 145.029 747.823 143.236 757.126 139.912H757.121C757.589 139.801 758.01 139.746 758.383 139.746ZM758.687 134.418C757.78 134.418 756.796 134.551 755.735 134.817C755.651 134.838 755.569 134.863 755.487 134.892C746.512 138.103 740.917 139.818 738.701 140.038C720.993 141.731 711.155 142.908 709.186 143.57C708.934 143.655 708.704 143.755 708.497 143.87H708.493L660.371 159.02L610.925 165.177C610.856 165.186 610.786 165.197 610.718 165.211L556.572 176.386H556.57C543.864 176.704 533.002 177.752 523.984 179.531C523.909 179.545 523.835 179.563 523.761 179.585L502.742 185.666H502.74C480.314 189.226 467.45 191.693 464.149 193.065H464.148L439.37 195.098H439.368C439.299 195.099 439.227 195.101 439.155 195.105C437.405 195.199 432.853 196.71 425.501 199.641H425.5L377.461 209.259C376.738 209.403 376.108 209.844 375.725 210.474C375.341 211.104 375.239 211.865 375.442 212.574L378.8 224.279C378.251 225.014 378.1 226.016 378.494 226.918C379.597 229.44 380.658 231.902 381.678 234.304C381.736 234.494 381.812 234.673 381.906 234.839C393.312 261.762 399.51 281.09 400.503 292.824C400.567 293.585 400.959 294.282 401.576 294.732C402.032 295.066 402.578 295.241 403.133 295.241C403.329 295.241 403.526 295.219 403.72 295.174L428.464 289.525C428.709 289.469 428.945 289.378 429.165 289.255C434.991 285.995 446.3 281.941 463.091 277.092H463.09C482.739 274.745 500.853 271.309 517.432 266.784H517.43C548.352 263.728 570.049 260.336 582.522 256.607H582.519L628.916 244.093H628.913C639.062 241.999 647.994 240.363 655.709 239.185C655.842 239.164 655.973 239.134 656.102 239.094C674.183 233.408 690.776 229.469 705.88 227.277H705.876C709.261 227.001 714.973 223.712 723.011 217.409H723.007C733.495 214.851 743.911 211.871 754.254 208.468C754.487 208.391 754.709 208.282 754.912 208.144C763.01 202.641 770.216 199.389 776.531 198.389C776.649 198.37 776.766 198.343 776.88 198.309C778.329 197.872 779.187 196.828 779.452 195.176C779.629 194.071 779.47 192.593 778.976 190.743L765.167 138.867C765.119 138.686 765.052 138.511 764.967 138.344C763.629 135.727 761.536 134.418 758.687 134.418Z" fill="black"/>
<path d="M718.444 42.5059C717.991 42.5059 717.532 42.6226 717.113 42.8679C715.855 43.6044 715.432 45.2211 716.169 46.4789C717.729 49.144 718.694 50.9669 719.064 51.9479C719.09 52.0166 719.119 52.0843 719.151 52.1506C719.455 52.7907 719.882 54.4421 720.431 57.1046C720.689 58.3523 721.787 59.2114 723.013 59.2114C723.19 59.2114 723.369 59.1935 723.549 59.1564C724.977 58.8621 725.895 57.4662 725.601 56.0386C725.001 53.1305 724.467 51.1384 723.999 50.0625H723.995C723.515 48.8008 722.425 46.7173 720.724 43.8121C720.233 42.9732 719.35 42.5059 718.444 42.5059Z" fill="black"/>
<path d="M734.077 46.2544C733.359 46.2544 732.644 46.5453 732.123 47.118L714.576 66.4137H714.574C712.666 68.4002 710.674 70.131 708.6 71.6059C707.412 72.4506 707.134 74.0983 707.979 75.2863C708.494 76.0102 709.307 76.3962 710.132 76.3962C710.661 76.3962 711.195 76.2376 711.659 75.9077C714.022 74.2274 716.28 72.2632 718.434 70.0151L718.481 69.9651L736.029 50.6694C737.009 49.591 736.93 47.9218 735.852 46.9411C735.346 46.4813 734.71 46.2544 734.077 46.2544Z" fill="black"/>
<path d="M737.76 64.712C738.245 65.1535 738.879 65.3997 739.537 65.3997C739.559 65.3997 739.58 65.3994 739.602 65.3989C740.149 65.3855 740.672 65.2029 741.105 64.8835H741.109C740.575 65.3364 740.044 65.5627 739.516 65.5627C738.925 65.5627 738.339 65.2792 737.756 64.712H737.76ZM746.324 52.2871C745.585 52.2871 744.85 52.5958 744.328 53.1984L737.674 60.8801H737.67C737.599 60.9483 737.524 61.0265 737.447 61.1143C736.895 61.7387 734.743 64.6607 730.988 69.8799H730.985C729.993 71.142 729.331 71.9124 728.998 72.1911C727.881 73.1276 727.735 74.7922 728.672 75.9092C729.194 76.5318 729.942 76.8528 730.695 76.8528C731.294 76.8528 731.895 76.6505 732.39 76.236C733.011 75.7148 733.951 74.6527 735.208 73.0496L735.273 72.9623C738.706 68.1904 740.717 65.4434 741.308 64.7214H741.303C741.384 64.6489 741.46 64.5712 741.532 64.4885L748.318 56.6544C749.272 55.5527 749.153 53.8859 748.051 52.9315C747.552 52.4991 746.937 52.2871 746.324 52.2871Z" fill="black"/>
<path d="M747.051 51.4639C746.609 51.4639 746.161 51.5751 745.749 51.8092C744.482 52.5296 744.039 54.1409 744.759 55.408C745.518 56.7417 745.949 57.6008 746.053 57.9853C746.07 58.0523 746.091 58.1188 746.114 58.1842C746.333 58.8116 746.472 59.4038 746.532 59.9608C747.194 66.3414 747.525 72.1888 747.522 77.5029C747.521 78.9605 748.702 80.1426 750.16 80.1434C750.16 80.1434 750.161 80.1434 750.161 80.1434C751.618 80.1434 752.8 78.9626 752.8 77.5054C752.803 72.0057 752.463 65.9728 751.781 59.4067L751.78 59.3983C751.681 58.4732 751.466 57.525 751.135 56.5535H751.133C750.901 55.7358 750.306 54.4844 749.348 52.7992C748.862 51.9438 747.97 51.4639 747.051 51.4639Z" fill="black"/>
<path d="M741.847 63.3472C740.951 63.3472 740.077 63.804 739.582 64.6286C738.832 65.8784 739.237 67.4996 740.487 68.2497C741.45 68.8281 742.55 69.3363 743.786 69.7744C744.186 69.9161 744.6 70.0506 745.029 70.178L745.077 70.1917C746.411 70.5604 747.301 70.8223 747.749 70.9773L747.842 71.0075C748.315 71.1517 749.029 71.4195 749.983 71.8109C750.311 71.9452 750.65 72.0089 750.984 72.0089C752.023 72.0089 753.008 71.3911 753.426 70.3701C753.979 69.0215 753.334 67.4799 751.986 66.9269C750.931 66.4943 750.092 66.1807 749.471 65.9861H749.467C748.919 65.797 747.941 65.5077 746.533 65.1179H746.532C746.19 65.0165 745.863 64.9103 745.55 64.7993C744.646 64.4791 743.864 64.1205 743.203 63.7238C742.778 63.4686 742.309 63.3472 741.847 63.3472Z" fill="black"/>
<path d="M766.609 59.1426C765.3 59.1426 764.165 60.1157 763.995 61.4482C763.588 64.6352 762.971 67.4779 762.142 69.9763L762.128 70.0189C761.456 72.1662 760.094 75.27 758.042 79.3304C757.385 80.6313 757.906 82.2189 759.207 82.8763C759.589 83.0692 759.995 83.1606 760.395 83.1606C761.36 83.1606 762.289 82.6305 762.753 81.7112C764.923 77.417 766.39 74.0592 767.152 71.6381C768.089 68.8157 768.781 65.6417 769.231 62.116C769.415 60.67 768.392 59.3484 766.946 59.1641C766.833 59.1496 766.721 59.1426 766.609 59.1426Z" fill="black"/>
<path d="M769.08 55.2119C768.744 55.2119 768.403 55.2764 768.073 55.4128C766.726 55.9697 766.085 57.5133 766.642 58.8602C768.962 64.471 771.541 68.2055 774.379 70.0638C774.502 70.1445 774.632 70.2148 774.767 70.2738C775.487 70.5891 776.215 70.7468 776.95 70.7468C777.793 70.7468 778.644 70.5398 779.506 70.1259H779.51C778.725 73.3723 777.363 77.2869 775.425 81.8698C774.857 83.2124 775.485 84.7609 776.828 85.3286C777.163 85.4705 777.512 85.5377 777.854 85.5377C778.883 85.5377 779.861 84.9327 780.286 83.9257C783.985 75.1805 785.749 68.4552 785.581 63.7498C785.567 63.3721 785.473 63.0018 785.304 62.6639C785.013 62.0825 784.634 61.6428 784.165 61.3449L784.164 61.3441C783.568 60.9662 783.014 60.7772 782.502 60.7772C781.69 60.7772 780.983 61.2516 780.381 62.2004L780.363 62.2278C779.437 63.726 778.446 64.7432 777.391 65.2796L777.329 65.3119C777.182 65.3916 777.067 65.4367 776.983 65.4473C775.151 64.0891 773.33 61.2212 771.52 56.8434C771.1 55.8262 770.117 55.2119 769.08 55.2119Z" fill="black"/>
<path d="M794.855 66.0894C793.818 66.0894 792.834 66.7052 792.414 67.7241L786.457 82.1855H786.453C786.197 82.7028 786.049 83.2758 786.009 83.9043C785.972 84.4779 786.028 85.0988 786.175 85.7668C786.189 85.832 786.206 85.8967 786.225 85.9606C786.377 86.4651 786.626 86.9447 786.971 87.3994C787.724 88.3898 789.009 89.3036 790.827 90.1407C790.91 90.1788 790.995 90.2127 791.081 90.2421L800.22 93.3489C800.502 93.4446 800.788 93.4901 801.07 93.4901C802.169 93.4901 803.195 92.7981 803.568 91.6996C804.037 90.3195 803.299 88.8205 801.919 88.3513L792.932 85.2961H792.927C792.106 84.9125 791.559 84.5904 791.287 84.3299H791.282C791.291 84.3095 791.3 84.289 791.308 84.2684L797.295 69.7344C797.85 68.3866 797.207 66.844 795.86 66.2889C795.531 66.1535 795.19 66.0894 794.855 66.0894Z" fill="black"/>
<path d="M300.598 186.896C300.131 186.896 299.658 187.021 299.229 187.281C297.984 188.038 297.588 189.662 298.345 190.907C300.698 194.777 302.06 197.632 302.431 199.472C302.445 199.541 302.462 199.61 302.481 199.677L305.395 209.856C306.119 213.45 307.937 220.449 310.851 230.854C311.64 235.341 313.212 241.86 315.567 250.411L315.57 250.422C317.519 257.377 319.094 261.597 320.297 263.082C320.652 263.521 321.044 263.856 321.472 264.086C321.87 264.301 322.299 264.403 322.722 264.403C323.661 264.403 324.57 263.9 325.047 263.016C325.671 261.858 325.342 260.442 324.329 259.667C323.577 258.618 322.353 255.066 320.656 249.009C318.322 240.538 316.78 234.14 316.029 229.817C316.013 229.729 315.994 229.642 315.97 229.557C313.042 219.106 311.235 212.16 310.551 208.718C310.537 208.647 310.519 208.576 310.499 208.507L307.583 198.319C307.065 195.881 305.489 192.496 302.856 188.165C302.359 187.348 301.489 186.896 300.598 186.896Z" fill="black"/>
<path d="M312.403 179.217C312.096 179.217 311.784 179.271 311.48 179.384C310.114 179.895 309.421 181.415 309.931 182.78C310.772 185.031 311.41 186.934 311.845 188.49C312.786 193.49 313.537 196.704 314.1 198.131L320.902 216.222C321.457 217.738 322.024 219.508 322.604 221.534L322.606 221.542C323.767 225.551 325.205 232.385 326.922 242.046C327.149 243.325 328.262 244.224 329.517 244.224C329.671 244.224 329.826 244.21 329.982 244.182C331.417 243.927 332.374 242.557 332.119 241.122C330.371 231.284 328.891 224.271 327.679 220.082C327.061 217.924 326.452 216.025 325.851 214.385L325.843 214.364L319.031 196.248L319.013 196.201C318.571 195.091 317.904 192.159 317.012 187.404C316.998 187.331 316.982 187.258 316.962 187.187C316.485 185.463 315.79 183.379 314.876 180.933C314.479 179.872 313.473 179.217 312.403 179.217Z" fill="black"/>
<path d="M284.721 99.3022C284.811 99.3206 284.902 99.3429 284.993 99.369C285.018 99.3616 285.042 99.3543 285.065 99.3472C284.951 99.3307 284.836 99.3164 284.721 99.3022Z" fill="black"/>
<path d="M285.35 99.4077C285.325 99.4189 285.294 99.433 285.258 99.4501C285.258 99.45 285.258 99.4494 285.258 99.4501C285.269 99.4453 285.276 99.4425 285.278 99.4417C285.298 99.4322 285.321 99.4208 285.35 99.4077Z" fill="black"/>
<path d="M287.706 92.4048C287.513 92.4048 287.32 92.4259 287.131 92.4682C281.492 93.7272 277.781 96.1692 275.997 99.7941L275.997 99.795C270.648 101.063 265.33 104.113 260.044 108.947C259.965 109.019 259.891 109.096 259.821 109.177C252.058 118.238 248.726 128.54 249.826 140.081L249.825 140.082C248.99 147.991 252.414 157.07 260.096 167.319C260.226 167.492 260.377 167.648 260.545 167.785C272.571 177.544 283.946 183.783 294.671 186.501C294.713 186.512 294.755 186.521 294.797 186.53C296.993 186.974 299.126 187.195 301.198 187.195C310.346 187.195 318.29 182.872 325.03 174.225C325.14 174.084 325.236 173.931 325.315 173.77C332.209 159.794 334.692 144.358 332.765 127.463C332.758 127.408 332.75 127.354 332.741 127.299C330.553 115.023 323.112 105.08 310.416 97.4704C310.328 97.3928 310.236 97.3185 310.139 97.2453C307.916 95.5634 300.545 93.957 288.027 92.4243C287.92 92.4112 287.813 92.4048 287.706 92.4048ZM287.847 97.7205C299.065 99.1063 305.425 100.344 306.927 101.435C307.087 101.597 307.268 101.739 307.464 101.856C318.904 108.646 325.593 117.41 327.53 128.148L327.53 128.149C329.311 143.883 327.034 158.23 320.7 171.192C315.067 178.325 308.505 181.893 301.014 181.893C299.357 181.893 297.653 181.718 295.905 181.369C286.023 178.85 275.43 173.025 264.126 163.893L264.126 163.894C257.329 154.755 254.32 146.927 255.1 140.41C255.123 140.218 255.125 140.023 255.105 139.831C254.081 129.727 256.954 120.695 263.724 112.735L263.723 112.736C266.699 110.032 269.664 107.99 272.62 106.609L272.621 106.61C273.059 106.128 273.738 105.631 274.659 105.119C274.978 104.09 275.548 103.291 276.367 102.723C276.667 102.515 277.056 102.287 277.536 102.038L277.675 101.971L277.589 102.011L279.053 101.291L280.262 100.701L282.546 99.6221C282.807 99.5025 283.071 99.4074 283.338 99.3367C283.583 99.2703 283.834 99.2371 284.089 99.2371C284.106 99.2371 284.122 99.2373 284.138 99.2375C284.018 99.2249 283.897 99.2144 283.776 99.2042C284.88 98.6027 286.237 98.1088 287.847 97.7205Z" fill="black"/>
<path d="M292.495 112.532C302.181 112.532 309.203 115.438 313.563 121.25C313.635 121.346 313.712 121.436 313.796 121.521C317.403 125.176 318.794 130.954 317.967 138.854C317.958 138.94 317.954 139.026 317.953 139.112C317.901 147.132 317.506 152.338 316.768 154.73C316.735 154.837 316.709 154.946 316.689 155.056C315.732 160.553 314.351 164.264 312.545 166.188C312.473 166.265 312.405 166.346 312.343 166.431C310.414 169.056 307.444 170.368 303.433 170.368C301.734 170.368 299.848 170.133 297.776 169.662L281.829 162.864C278.628 160.871 275.702 158.076 273.052 154.482L272.982 154.39C268.073 148.309 266.313 141.201 267.699 133.066C267.706 133.025 267.712 132.984 267.717 132.943C267.992 130.698 269.063 128.13 270.932 125.239C271.226 125.351 271.543 125.411 271.867 125.411C272.078 125.411 272.292 125.386 272.506 125.333C273.664 125.045 274.451 124.034 274.506 122.9C274.906 122.193 275.99 121.047 277.758 119.463C278.395 119.237 278.915 118.775 279.22 118.187C280.219 117.334 281.371 116.383 282.676 115.333C284.853 113.785 287.271 112.872 289.932 112.596C290.806 112.553 291.66 112.532 292.495 112.532ZM292.525 107.252C291.712 107.252 290.884 107.271 290.041 107.307C289.137 107.636 288.098 107.921 286.923 108.162C286.491 108.25 286.081 108.293 285.691 108.293C285.482 108.293 285.279 108.281 285.082 108.256C283.122 108.898 281.276 109.841 279.544 111.084C279.505 111.112 279.467 111.141 279.43 111.17C277.917 112.385 276.575 113.507 275.404 114.537C272.713 115.188 270.03 117.376 267.355 121.1L267.332 121.133C264.525 125.168 262.909 128.873 262.484 132.249C260.856 141.902 262.975 150.375 268.842 157.665C271.934 161.849 275.397 165.115 279.232 167.464C279.342 167.532 279.457 167.591 279.575 167.642L295.92 174.609C296.061 174.669 296.206 174.717 296.355 174.751C298.961 175.36 301.365 175.665 303.567 175.665C309.203 175.665 313.515 173.67 316.504 169.682C318.953 166.996 320.739 162.475 321.862 156.119C322.716 153.196 323.172 147.581 323.23 139.276C324.191 129.869 322.341 122.758 317.68 117.943C312.261 110.816 303.875 107.252 292.525 107.252Z" fill="black"/>
<path d="M289.542 92.1494C289.17 92.1494 288.793 92.2283 288.435 92.3943C288.125 92.5031 287.367 92.67 286.159 92.8953C286.098 92.9066 286.038 92.9202 285.978 92.9358C285.435 93.0771 284.901 93.2545 284.374 93.468L284.342 93.481C283.967 93.639 283.61 93.8164 283.273 94.0131C283.219 94.0443 283.167 94.0773 283.116 94.1121C282.433 94.5774 281.704 95.0043 280.929 95.3928C278.271 96.3764 275.608 97.4506 272.941 98.6154C272.873 98.6403 272.804 98.6681 272.733 98.6987C272.199 98.9283 271.071 99.5553 269.35 100.58C268.098 101.325 267.687 102.945 268.432 104.197C268.926 105.027 269.803 105.487 270.703 105.487C271.162 105.487 271.627 105.367 272.05 105.115C273.53 104.234 274.442 103.716 274.788 103.561C274.849 103.539 274.909 103.516 274.968 103.49C277.616 102.332 280.257 101.267 282.891 100.295C282.978 100.263 283.063 100.227 283.145 100.186C284.152 99.6891 285.103 99.139 285.998 98.5355C286.113 98.4714 286.237 98.4113 286.369 98.3552C286.652 98.2409 286.938 98.1444 287.226 98.0657C288.715 97.7857 289.741 97.5408 290.305 97.3308C290.46 97.2729 290.603 97.2109 290.733 97.1454C292.034 96.4887 292.557 94.9015 291.9 93.6002C291.436 92.6803 290.506 92.1494 289.542 92.1494Z" fill="black"/>
<path d="M309.867 50.6454C309.832 50.6544 309.797 50.6623 309.764 50.6691C309.799 50.6619 309.833 50.6541 309.867 50.6454ZM266.14 59.5253C265.882 59.7738 265.675 60.075 265.534 60.4134C265.694 60.03 265.896 59.7339 266.14 59.5253ZM211.951 40.1655C210.804 40.1655 209.748 40.9195 209.416 42.0773C209.013 43.4784 209.823 44.9401 211.224 45.3422C214.849 46.3824 223.615 51.1045 237.524 59.5084C237.582 59.5436 237.642 59.5764 237.703 59.607C243.047 62.2969 248.807 63.9634 254.982 64.6064C255.037 64.6122 255.091 64.6162 255.147 64.6184C257.657 64.7217 259.826 64.7734 261.656 64.7734C264.996 64.7734 267.203 64.6013 268.277 64.257C268.687 64.1259 269.044 63.9548 269.349 63.7438C271.421 63.0214 272.956 62.3328 273.955 61.6777C274.001 61.6473 274.047 61.6155 274.091 61.5823C279.253 57.7118 283.192 55.1943 285.905 54.0297C285.963 54.0048 286.02 53.978 286.076 53.949C288.114 52.8959 290.33 52.1482 292.723 51.7059L309.382 50.7199C309.427 50.7173 309.472 50.7134 309.516 50.7086C310.606 50.8129 313.945 51.8143 319.531 53.7127C331.713 59.7498 343.392 68.3821 354.569 79.6095C359.151 86.8425 361.248 91.3315 360.859 93.0766C359.826 93.9418 359.604 95.4673 360.385 96.5978C360.897 97.3392 361.721 97.7371 362.558 97.7371C363.076 97.7371 363.598 97.5853 364.056 97.2689C364.919 96.6729 365.517 95.8563 365.85 94.8189C366.889 91.5837 364.562 85.4891 358.869 76.5352C358.767 76.3753 358.649 76.2269 358.515 76.0923C346.817 64.3027 334.549 55.2396 321.713 48.9031C321.61 48.8522 321.504 48.8082 321.395 48.7712C315.082 46.6229 311.186 45.5094 309.706 45.4306C309.622 45.4261 309.539 45.4239 309.458 45.4239C309.273 45.4239 309.095 45.4357 308.926 45.4592L292.252 46.446C292.149 46.4521 292.045 46.4645 291.943 46.4827C289.001 47.0091 286.266 47.9206 283.736 49.2172C280.656 50.5552 276.41 53.251 270.997 57.3046C270.279 57.7583 268.989 58.2983 267.13 58.9244C266.871 59.0117 266.629 59.1376 266.413 59.2957C265.704 59.4447 264.334 59.5192 262.302 59.5192C260.524 59.5192 258.239 59.4621 255.448 59.348C249.982 58.7695 244.888 57.2998 240.169 54.939C225.909 46.3255 216.746 41.4354 212.68 40.2686C212.437 40.1988 212.192 40.1655 211.951 40.1655Z" fill="black"/>
<path d="M187.812 30.6924C184.613 30.6924 181.312 31.1901 177.908 32.1854C171.147 34.1573 167.022 35.8411 165.531 37.2368C165.354 37.4028 165.195 37.5741 165.056 37.7507H165.055C155.537 48.0027 149.794 54.4935 147.825 57.223C146.972 58.4052 147.24 60.0548 148.422 60.9074C148.889 61.2441 149.429 61.4062 149.963 61.4062C150.783 61.4062 151.59 61.0259 152.106 60.3107C153.954 57.7485 159.592 51.3908 169.02 41.2378C169.072 41.1824 169.121 41.1248 169.167 41.0652H169.166C170.085 40.2427 173.492 38.9716 179.388 37.2521L179.389 37.2516C182.306 36.3988 185.115 35.9724 187.816 35.9724C189.491 35.9724 191.125 36.1365 192.718 36.4645H192.717C197.461 37.8571 200.226 38.7539 201.011 39.1551L201.015 39.157L207.458 42.4377C207.815 43.4886 208.81 44.2269 209.954 44.2269C210.016 44.2269 210.078 44.2246 210.141 44.2203C211.595 44.1183 212.691 42.8569 212.589 41.4028C212.501 40.1478 211.914 39.115 210.828 38.3044C210.721 38.2246 210.609 38.1475 210.493 38.0734C210.421 38.0277 210.348 37.9856 210.272 37.9471L203.413 34.455C202.329 33.9005 199.224 32.8718 194.098 31.369C194.032 31.3497 193.966 31.3329 193.899 31.3188C191.913 30.9012 189.884 30.6924 187.812 30.6924Z" fill="black"/>
<path d="M113.572 144.767C113.835 145.148 113.967 145.61 113.968 146.155C113.967 145.652 113.823 145.174 113.57 144.767H113.572ZM155.122 53.5557C154.33 53.5557 153.546 53.9111 153.026 54.5884C143.997 66.3563 139.154 73.5747 138.497 76.2437H138.495C134.822 83.9681 131.581 90.9481 128.772 97.1837C128.754 97.2241 128.736 97.265 128.72 97.3062C117.885 125.001 111.556 140.585 109.733 144.059H109.731C109.485 144.246 109.269 144.479 109.096 144.752C105.053 151.161 97.6021 164.122 86.745 183.634H86.7429L74.6681 202.572C73.8845 203.801 74.2455 205.432 75.4746 206.216C75.9143 206.496 76.4055 206.63 76.891 206.63C77.7625 206.63 78.6155 206.199 79.1188 205.409L91.2534 186.378C91.2817 186.334 91.3088 186.288 91.3343 186.242C101.682 167.646 108.909 155.045 113.015 148.441H113.013C113.291 148.215 113.552 147.92 113.796 147.557C115.281 145.347 121.883 129.268 133.6 99.3203H133.599C136.426 93.0462 139.694 86.0101 143.404 78.2118C143.514 77.9802 143.59 77.7338 143.629 77.4805H143.628C144.058 75.6046 148.587 69.0449 157.214 57.8016C158.101 56.6451 157.883 54.9885 156.727 54.1011C156.248 53.7335 155.683 53.5557 155.122 53.5557Z" fill="black"/>
<path d="M32.4068 195.521C32.2508 195.521 32.0952 195.535 31.9416 195.562C9.34739 199.608 -1.26014 205.482 0.119011 213.184C0.148371 213.348 0.183119 213.512 0.223259 213.676H0.220207C0.107494 215.819 0.846758 218.055 2.43801 220.383C2.49276 220.464 2.55175 220.54 2.61495 220.614C11.7951 231.301 17.8773 237.065 20.8615 237.906C20.9527 237.932 21.0434 237.955 21.1334 237.975H21.1305C60.2007 254.187 85.135 263.431 95.9334 265.706H95.9314L140.711 278.556C140.777 278.575 140.843 278.591 140.91 278.605C153.156 281.111 184.094 289.002 233.723 302.279C233.782 302.294 233.84 302.308 233.9 302.32L293.62 313.961C293.687 313.974 293.754 313.984 293.822 313.992C295.739 314.213 297.297 314.324 298.496 314.324C299.325 314.324 299.983 314.271 300.469 314.165L300.474 314.164C300.482 314.162 300.491 314.16 300.5 314.158C300.632 314.128 300.761 314.089 300.887 314.039C303.626 312.964 308.741 311.872 316.234 310.764C317.676 310.551 318.672 309.209 318.459 307.767C318.265 306.456 317.138 305.514 315.851 305.514C315.723 305.514 315.593 305.523 315.462 305.543C307.772 306.679 302.351 307.843 299.199 309.033C299.022 309.057 298.789 309.069 298.499 309.069C297.654 309.069 296.33 308.966 294.528 308.76L235.002 297.157C185.463 283.904 154.487 276.004 142.074 273.456H142.073L97.2896 260.604C97.2272 260.586 97.164 260.57 97.1006 260.557C86.6514 258.377 61.9164 249.189 22.8956 232.992C22.6974 232.91 22.49 232.852 22.2779 232.82H22.2751C20.3073 232.242 15.126 227.07 6.73116 217.305H6.72817C5.79248 215.909 5.38624 214.724 5.50945 213.75C5.55745 213.371 5.52242 212.986 5.40682 212.621C5.36684 212.495 5.33617 212.372 5.31481 212.253C4.55929 208.034 13.6628 204.217 32.6253 200.802H32.628C47.8419 201.008 67.8122 203.713 92.5386 208.918H92.5365C131.68 217.983 169.545 228.647 206.133 240.91C242.507 254.547 271.286 264.149 292.474 269.716C306.031 274.451 313.6 277.607 315.18 279.184C315.635 280.077 316.554 280.624 317.531 280.624C317.812 280.624 318.097 280.579 318.378 280.484C319.758 280.017 320.498 278.518 320.031 277.138C319.866 276.649 319.585 276.185 319.19 275.744C317.194 273.519 308.836 269.837 294.115 264.698C294.049 264.675 293.982 264.655 293.915 264.637C272.881 259.117 244.221 249.554 207.934 235.948L207.846 235.917C171.072 223.59 133.016 212.873 93.6796 203.765L93.628 203.754C68.4259 198.448 48.0291 195.704 32.4377 195.521C32.4274 195.521 32.4171 195.521 32.4068 195.521Z" fill="black"/>
<path d="M95.4091 169.763C94.8068 169.763 94.2641 169.792 93.7809 169.848C92.9089 169.951 92.1614 170.147 91.5384 170.436C89.7155 171.283 88.9161 172.662 89.1404 174.571C89.2981 175.914 90.4383 176.903 91.7583 176.903C91.8611 176.903 91.9649 176.897 92.0695 176.885C93.1153 176.762 93.9461 176.043 94.2627 175.108H94.2606C94.3036 175.102 94.3489 175.096 94.3966 175.091C94.7305 175.052 95.1107 175.032 95.5371 175.032C97.95 175.032 101.844 175.66 107.219 176.916H107.217C118.575 181.641 131.488 185.874 145.956 189.616C146.013 189.63 146.071 189.643 146.129 189.654C161.834 192.606 171.875 194.713 176.252 195.977L176.291 195.988L230.01 210.603L283.396 229.788C293.162 233.58 302.708 238.176 312.035 243.576C312.099 243.613 312.165 243.648 312.232 243.679C313.716 244.378 315.458 245.053 317.459 245.702C317.926 246.53 318.808 247.044 319.756 247.044C319.987 247.044 320.221 247.013 320.455 246.949C320.563 246.92 320.665 246.888 320.763 246.856C321.656 246.558 322.293 246.059 322.671 245.358C323.564 243.699 323.12 242.389 321.339 241.429C321.178 241.342 321.007 241.272 320.832 241.22C318.334 240.485 316.25 239.728 314.581 238.95C305.039 233.433 295.271 228.734 285.274 224.854L285.212 224.831L231.697 205.601C231.631 205.577 231.564 205.556 231.497 205.538L177.677 190.894H177.678C173.13 189.586 162.97 187.449 147.198 184.484H147.196C132.917 180.788 120.2 176.613 109.045 171.959C108.911 171.903 108.773 171.858 108.632 171.825C102.781 170.451 98.3736 169.763 95.4091 169.763Z" fill="black"/>
<path d="M452.441 81.7709C452.74 81.7709 453.001 81.8372 453.223 81.9698C452.934 81.8652 452.63 81.8127 452.326 81.8127C452.038 81.8127 451.75 81.8598 451.473 81.9544C451.831 81.832 452.154 81.7709 452.441 81.7709ZM507.741 134.239C507.51 134.981 507.611 135.814 508.072 136.499C507.516 135.695 507.404 134.941 507.739 134.239H507.741ZM442.846 44.0812C443.506 50.6427 444.392 57.3498 445.504 64.2023H445.503C445.503 64.3406 445.51 64.4835 445.524 64.6311C445.659 66.009 446.808 69.6045 448.972 75.4172H448.971C448.437 79.9992 448.424 83.0637 448.932 84.6109C448.939 84.6309 448.945 84.6501 448.952 84.6686L448.952 84.6698C449.529 86.3585 450.481 87.2029 451.808 87.2029C451.886 87.2029 451.966 87.2 452.047 87.194H452.049C458.766 89.8836 468.36 91.2285 480.831 91.2285C482.113 91.2285 483.426 91.2142 484.768 91.1858C485.578 91.1686 486.335 90.7806 486.822 90.1332C496.376 77.4257 506.702 65.4454 517.8 54.1921H517.803C521.391 61.7821 523.816 72.9212 525.077 87.6095H525.075C525.231 91.222 524.562 96.7095 523.067 104.072H523.065C516.616 120.686 511.786 130.327 508.575 132.993C508.223 133.286 507.965 133.651 507.807 134.051H507.805C506.249 135.799 499.023 141.696 486.128 151.741H486.127C481.988 154.712 471.2 160.368 453.762 168.71C453.581 168.796 453.411 168.903 453.254 169.028L445.109 175.529L420.668 134.082H420.667C419.179 129.428 416.061 122.87 411.313 114.409H411.312C409.951 110.537 409.375 107.263 409.583 104.586L409.589 104.47C409.895 95.3282 412.526 85.7988 417.482 75.8815H417.481C424.972 63.4186 433.427 52.8184 442.845 44.0812H442.846ZM444.892 34.665C444.823 34.665 444.753 34.6678 444.683 34.6733C443.23 34.7873 442.144 36.0577 442.258 37.5108C442.258 37.512 442.258 37.5131 442.258 37.5143H442.257C431.237 47.101 421.454 59.0094 412.91 73.2396C412.876 73.2971 412.844 73.3558 412.813 73.4156C407.485 84.0469 404.652 94.329 404.315 104.262C404.063 107.715 404.761 111.756 406.412 116.385C406.462 116.526 406.524 116.662 406.597 116.792C411.328 125.207 414.369 131.59 415.718 135.94C415.778 136.135 415.861 136.323 415.965 136.499L441.686 180.117C441.737 180.203 441.793 180.286 441.853 180.366C442.536 181.271 443.355 181.723 444.311 181.723C444.899 181.723 445.54 181.551 446.232 181.208C446.546 181.052 446.871 180.851 447.207 180.605L447.294 180.539L456.309 173.343H456.308C473.961 164.894 484.952 159.104 489.28 155.975L489.355 155.918C503.251 145.094 510.871 138.785 512.214 136.994C512.326 136.844 512.426 136.695 512.513 136.547H512.511C516.384 132.795 521.571 122.533 528.072 105.759C528.125 105.621 528.167 105.479 528.197 105.334C529.823 97.3676 530.539 91.342 530.342 87.2572L530.336 87.1581C528.825 69.5586 525.62 56.6538 520.721 48.4435C520.305 47.7459 519.591 47.2789 518.785 47.1774C518.674 47.1636 518.564 47.1567 518.455 47.1567C517.762 47.1567 517.092 47.4295 516.595 47.9239C504.661 59.7824 493.589 72.4516 483.38 85.9315H483.378C482.493 85.9443 481.622 85.9507 480.767 85.9507C468.882 85.9507 459.901 84.7065 453.823 82.218H453.822C453.725 80.9883 453.88 78.7205 454.287 75.4146C454.339 74.9927 454.289 74.5645 454.14 74.1664C452.059 68.6086 450.942 65.2908 450.789 64.2131H450.788C450.8 64.0176 450.79 63.8211 450.758 63.627C449.422 55.4346 448.414 47.4572 447.736 39.6948H447.734C448.457 38.7353 448.452 37.3708 447.646 36.4112C447.502 36.2386 447.339 36.0893 447.164 35.9635H447.163C446.7 35.18 445.847 34.665 444.892 34.665Z" fill="black"/>
<path d="M420.852 89.0065C421.05 89.5251 421.405 89.9635 421.861 90.2651C421.41 90.0363 421.073 89.6168 420.851 89.0065H420.852ZM421.858 85.1465C419.684 85.1465 415.841 85.5308 410.33 86.2994C408.886 86.5008 407.879 87.8344 408.08 89.278C408.264 90.5979 409.395 91.553 410.691 91.553C410.812 91.553 410.935 91.5446 411.059 91.5273C416.478 90.7716 420.006 90.3937 421.643 90.3937C421.817 90.3937 421.971 90.398 422.102 90.4066H422.101C422.222 90.4696 422.349 90.5236 422.481 90.5676C428.993 92.7449 433.732 95.5546 436.7 98.9968L453.425 118.395H453.424C459.539 128.014 464.229 134.601 467.494 138.159H467.492L469.156 140.938L475.685 154.385H475.683C475.953 155.055 476.171 155.614 476.338 156.063H476.336C476.148 156.818 476.295 157.648 476.806 158.313C476.881 158.41 476.953 158.498 477.022 158.579C477.688 159.353 478.416 159.741 479.207 159.741C479.556 159.741 479.917 159.666 480.29 159.515C481.701 158.945 482.237 157.836 481.897 156.185C481.755 155.494 481.301 154.201 480.536 152.305C480.513 152.249 480.489 152.194 480.463 152.14L473.854 138.529C473.82 138.46 473.784 138.392 473.744 138.326L471.877 135.207C471.782 135.047 471.669 134.898 471.542 134.762C468.474 131.474 463.884 125.019 457.772 115.396C457.703 115.288 457.627 115.185 457.543 115.087L440.697 95.5502C437.184 91.4749 431.846 88.2051 424.683 85.7408H424.682C424.297 85.4969 423.83 85.3283 423.28 85.2348C422.934 85.1759 422.46 85.1465 421.858 85.1465Z" fill="black"/>
<path d="M509.992 101.402C509.654 101.402 509.32 101.407 508.991 101.418H508.989C504.722 101.491 500.955 101.727 497.688 102.125H497.686L490.609 102.23L490.515 102.233C486.574 102.433 483.55 102.831 481.445 103.425C481.264 103.476 481.089 103.546 480.922 103.635C478.264 105.049 472.179 107.029 462.668 109.575C462.601 109.593 462.534 109.614 462.469 109.637C456.615 111.711 453.2 113.025 452.223 113.581C452.175 113.608 452.127 113.636 452.082 113.664H452.08C450.794 114.249 448.551 115.804 445.351 118.33H445.349C442.026 120.116 438.728 122.03 435.455 124.071C435.353 124.135 435.255 124.206 435.162 124.283C429.496 129.008 423.877 132.931 418.307 136.052C417.035 136.765 416.582 138.373 417.294 139.645C417.778 140.508 418.675 140.994 419.599 140.994C420.036 140.994 420.479 140.886 420.887 140.657C426.693 137.403 432.53 133.337 438.397 128.458H438.396C441.591 126.469 444.811 124.606 448.054 122.869C448.192 122.795 448.323 122.709 448.446 122.612C451.567 120.141 453.498 118.763 454.239 118.479C454.47 118.397 454.687 118.283 454.885 118.141H454.884C455.675 117.717 458.757 116.553 464.129 114.649H464.127C473.681 112.089 480.014 110.019 483.125 108.438H483.123C484.84 107.99 487.377 107.68 490.734 107.508H490.732L497.909 107.401C498.004 107.399 498.099 107.393 498.194 107.381C501.314 106.994 504.951 106.766 509.103 106.696L509.148 106.694C509.425 106.685 509.706 106.68 509.992 106.68C510.914 106.68 511.88 106.729 512.89 106.827L512.839 106.822L512.93 106.831C517.364 107.193 519.663 108.335 519.827 110.255C519.945 111.631 521.098 112.669 522.454 112.669C522.529 112.669 522.605 112.666 522.681 112.66C524.134 112.535 525.21 111.258 525.086 109.805C524.669 104.928 520.773 102.184 513.398 101.573H513.396C512.218 101.459 511.084 101.402 509.992 101.402Z" fill="black"/>
<path d="M591.948 300.843C592.93 300.843 593.857 300.976 594.729 301.241H594.726C598.767 302.959 601.719 304.444 603.584 305.696H603.581C607.899 308.917 609.449 312.666 608.232 316.942C608.183 317.114 608.152 317.289 608.138 317.467C607.988 319.46 606.565 322.094 603.87 325.369C602.932 326.456 601.291 327.39 598.949 328.17H598.946C596.644 328.616 594.562 328.839 592.701 328.839C590.713 328.839 588.977 328.585 587.492 328.076H587.489C582.01 325.7 578.521 323.216 577.022 320.624H577.019C575.031 316.116 575.004 312.235 576.938 308.98H576.935C577.581 308.026 578.696 307.304 580.28 306.816C580.342 306.797 580.402 306.776 580.461 306.753H580.459C580.546 306.742 580.649 306.736 580.765 306.736C581.603 306.736 583.184 307.025 585.508 307.603C585.722 307.656 585.936 307.681 586.147 307.681C587.33 307.681 588.407 306.879 588.706 305.679C589.058 304.264 588.196 302.832 586.782 302.48C586.468 302.403 586.164 302.329 585.867 302.26H585.864C587.692 301.451 588.923 301.031 589.557 301H589.56C589.631 301.006 589.702 301.009 589.772 301.009C589.902 301.009 590.032 301 590.161 300.98C590.776 300.889 591.371 300.843 591.948 300.843ZM591.955 295.563C591.202 295.563 590.434 295.616 589.65 295.722C589.626 295.721 589.601 295.721 589.577 295.721C589.523 295.721 589.467 295.722 589.412 295.724H589.413C587.479 295.786 583.563 297.34 577.665 300.387L577.623 300.409C572.958 302.926 570.203 305.334 569.358 307.634C568.901 308.877 569.439 310.242 570.567 310.859H570.564C569.746 314.526 570.304 318.528 572.238 322.864C572.27 322.934 572.304 323.003 572.341 323.07C574.39 326.763 578.767 330.058 585.472 332.955C585.528 332.979 585.584 333.001 585.641 333.021C587.705 333.748 590.061 334.112 592.709 334.112C594.971 334.112 597.446 333.847 600.134 333.316C600.239 333.296 600.341 333.269 600.443 333.236C603.831 332.13 606.323 330.636 607.92 328.754L607.945 328.724C611.241 324.719 613.051 321.198 613.375 318.16H613.372C615.149 311.613 612.907 306.025 606.645 301.397L606.55 301.33C604.387 299.873 601.089 298.206 596.658 296.327C596.583 296.295 596.506 296.267 596.428 296.242C595.004 295.79 593.514 295.563 591.955 295.563Z" fill="black"/>
<path d="M597.064 305.193C596.164 305.193 595.287 305.654 594.793 306.484C593.166 309.219 592.213 310.914 591.933 311.569C591.87 311.715 591.819 311.857 591.778 311.995H591.775C591.325 313.175 590.938 314.238 590.613 315.183L589.931 314.241C589.567 313.736 589.014 313.08 588.27 312.273C587.75 311.707 587.04 311.421 586.328 311.421C585.689 311.421 585.048 311.652 584.541 312.119C583.469 313.106 583.4 314.775 584.387 315.848C584.987 316.5 585.407 316.992 585.648 317.326L585.651 317.33L588.25 320.922C588.295 320.984 588.342 321.043 588.39 321.099C588.439 321.156 588.488 321.21 588.537 321.263C589.386 322.169 590.313 322.622 591.318 322.622C591.743 322.622 592.182 322.541 592.636 322.379C592.74 322.341 592.843 322.297 592.942 322.247C593.655 321.884 594.178 321.316 594.51 320.544C594.58 320.382 594.633 320.212 594.669 320.039C594.921 318.823 595.62 316.72 596.763 313.728C596.779 313.686 596.795 313.643 596.808 313.601H596.806C597.029 313.109 597.871 311.636 599.33 309.182C600.075 307.929 599.663 306.31 598.411 305.565C597.988 305.313 597.523 305.193 597.064 305.193Z" fill="black"/>
<path d="M624.306 311.718C624.118 311.718 623.987 311.719 623.914 311.72H623.911C623.613 311.722 623.184 311.739 622.624 311.771C621.996 311.808 620.956 311.923 619.505 312.116C618.06 312.308 617.044 313.635 617.236 315.079C617.412 316.406 618.546 317.372 619.849 317.372C619.965 317.372 620.082 317.364 620.2 317.348C621.521 317.173 622.431 317.07 622.931 317.041H622.933C623.408 317.013 623.744 316.999 623.939 316.999C623.94 316.999 623.941 316.999 623.942 316.999L624.017 316.998H624.019L624.024 316.998C624.067 316.997 624.154 316.996 624.284 316.996C624.537 316.996 624.954 316.998 625.536 317.002C625.542 317.002 625.548 317.002 625.553 317.002C627.003 317.002 628.183 315.831 628.192 314.379C628.201 312.922 627.027 311.733 625.569 311.724C625.014 311.72 624.593 311.718 624.306 311.718Z" fill="black"/>
<path d="M638.36 308.712C638.198 308.712 638.039 308.718 637.882 308.729L637.841 308.733L637.868 308.73H637.865C637.582 308.751 637.307 308.79 637.04 308.847L637.037 308.847C636.784 308.901 636.538 308.971 636.3 309.056H636.304L636.114 309.128L635.908 309.215C635.829 309.249 635.752 309.286 635.677 309.327C635.504 309.421 635.386 309.483 635.324 309.513H635.321C635.317 309.515 635.312 309.517 635.308 309.519C635.255 309.541 635.196 309.562 635.131 309.581L635.13 309.582C635.053 309.605 634.969 309.625 634.879 309.643C634.852 309.648 634.826 309.654 634.799 309.66H634.796C634.701 309.674 634.534 309.692 634.297 309.716C632.846 309.861 631.788 311.154 631.933 312.605C632.069 313.966 633.217 314.981 634.556 314.981C634.644 314.981 634.733 314.977 634.822 314.968C635.217 314.928 635.511 314.893 635.705 314.861C635.792 314.846 635.876 314.83 635.956 314.811H635.953C636.191 314.763 636.422 314.705 636.645 314.638C636.86 314.574 637.069 314.501 637.27 314.419H637.267C637.36 314.385 637.458 314.343 637.562 314.294C637.69 314.234 637.861 314.146 638.074 314.031H638.071L638.093 314.022H638.09C638.103 314.018 638.117 314.014 638.133 314.011C638.168 314.003 638.209 313.998 638.255 313.994H638.254C638.288 313.992 638.324 313.991 638.362 313.991C638.385 313.991 638.408 313.991 638.433 313.992H638.429L638.661 314.01C638.728 314.015 638.795 314.017 638.862 314.017C640.229 314.017 641.386 312.962 641.491 311.576C641.6 310.122 640.51 308.855 639.057 308.746L638.783 308.725L638.712 308.721C638.593 308.715 638.476 308.712 638.36 308.712Z" fill="black"/>
<path d="M669.302 297.112C670.432 297.112 671.543 297.315 672.635 297.72C672.937 297.833 673.248 297.886 673.553 297.886C674.149 297.886 674.725 297.683 675.187 297.319H675.191C678.884 298.825 681.045 299.886 681.675 300.504C681.782 300.619 681.899 300.725 682.025 300.819C683.135 301.65 684.785 304.033 686.974 307.967C688.572 311.004 688.332 314.897 686.257 319.648H686.253C684.51 322.369 681.575 323.945 677.446 324.379C674.672 324.314 672.473 324.031 670.848 323.53H670.844C665.756 321.603 662.392 320.031 660.753 318.814C659.265 317.671 658.042 314.686 657.086 309.86H657.082C656.591 306.121 658.36 302.662 662.389 299.482H662.386C664.766 297.902 667.071 297.112 669.302 297.112ZM666.863 289.73C666.552 289.73 666.251 289.743 665.961 289.767H665.957C663.71 289.821 661.452 291.271 659.183 294.117C658.797 294.601 658.609 295.18 658.608 295.754H658.604C653.36 300.082 651.109 305.026 651.854 310.585C651.861 310.637 651.869 310.69 651.879 310.742C653.096 316.95 654.981 321.036 657.537 323L657.563 323.019C659.596 324.541 663.419 326.364 669.031 328.488C669.076 328.505 669.122 328.521 669.168 328.535C671.315 329.216 674.091 329.591 677.497 329.66C677.514 329.66 677.532 329.66 677.549 329.66C677.635 329.66 677.721 329.656 677.807 329.648C683.84 329.059 688.189 326.592 690.854 322.246C690.915 322.146 690.97 322.043 691.017 321.936C693.857 315.527 694.055 310.029 691.609 305.442L691.587 305.4C689.122 300.972 687.05 298.083 685.371 296.735C684.135 295.524 680.788 293.841 675.33 291.688L675.311 291.681C671.94 290.381 669.124 289.73 666.863 289.73Z" fill="black"/>
<path d="M671.038 312.234C670.619 312.274 670.214 312.414 669.859 312.643C670.057 312.514 670.25 312.415 670.437 312.345H670.433C670.616 312.29 670.817 312.253 671.035 312.234H671.038ZM674.718 303.574C674.01 303.574 673.303 303.857 672.783 304.417C672.043 305.215 671.535 306.044 671.26 306.905H671.257C670.7 308.4 670.373 309.307 670.276 309.627C670.259 309.681 670.244 309.734 670.23 309.787H670.227C670.179 309.936 670.123 310.136 670.059 310.386C669.852 310.118 669.632 309.825 669.397 309.507C668.88 308.806 668.081 308.436 667.272 308.436C666.727 308.436 666.178 308.604 665.706 308.952C664.534 309.818 664.285 311.471 665.151 312.643C666.772 314.838 668.072 316.257 669.051 316.901C669.753 317.362 670.431 317.593 671.085 317.593C671.481 317.593 671.868 317.508 672.246 317.339H672.243C672.97 317.084 673.55 316.529 673.984 315.675C674.093 315.462 674.199 315.216 674.303 314.938L674.329 314.866C674.55 314.217 674.7 313.722 674.779 313.38L674.785 313.353C675.009 312.338 675.16 311.7 675.24 311.44H675.238C675.272 311.352 675.301 311.263 675.325 311.172H675.323C675.392 310.945 675.7 310.097 676.247 308.63C676.261 308.592 676.275 308.553 676.287 308.514C676.324 308.4 676.445 308.231 676.652 308.008C677.644 306.94 677.582 305.27 676.513 304.279C676.005 303.807 675.361 303.574 674.718 303.574Z" fill="black"/>
<path d="M697.095 304.597C697.027 304.597 696.959 304.599 696.89 304.605C695.875 304.683 694.964 304.741 694.158 304.781C694.113 304.783 694.069 304.786 694.024 304.791C693.538 304.839 693.147 304.896 692.849 304.963C692.822 304.969 692.796 304.975 692.771 304.981H692.767C691.528 305.22 690.414 305.773 689.424 306.64C688.328 307.6 688.217 309.267 689.177 310.364C689.699 310.96 690.429 311.265 691.164 311.265C691.781 311.265 692.4 311.05 692.901 310.611C693.183 310.365 693.482 310.214 693.8 310.158C693.866 310.146 693.931 310.132 693.997 310.115C694.082 310.096 694.243 310.074 694.48 310.05H694.477C695.316 310.008 696.255 309.947 697.295 309.868C698.748 309.756 699.835 308.487 699.724 307.034C699.617 305.649 698.461 304.597 697.095 304.597Z" fill="black"/>
<path d="M709.127 300.794C708.96 300.794 708.791 300.81 708.622 300.843C706.805 301.195 704.754 301.645 702.468 302.193C701.05 302.533 700.177 303.957 700.517 305.375C700.807 306.586 701.889 307.399 703.081 307.399C703.285 307.399 703.492 307.376 703.699 307.326C705.909 306.796 707.885 306.362 709.626 306.025C711.057 305.747 711.992 304.363 711.715 302.932C711.471 301.67 710.366 300.794 709.127 300.794Z" fill="black"/>
<path d="M733.232 287.8C735.482 287.927 737.916 288.726 740.535 290.196L740.616 290.24C743.764 291.867 745.888 295.819 746.986 302.098H746.982C746.807 308.398 745.015 312.587 741.607 314.664L741.508 314.728C739.891 315.815 737.632 316.358 734.733 316.358C732.462 316.358 729.797 316.025 726.74 315.358L726.684 315.347C724.774 314.973 722.735 313.185 720.568 309.984H720.564C720.165 309.247 719.765 307.06 719.366 303.424C719.228 301.981 719.295 300.626 719.567 299.36C719.582 299.289 719.594 299.218 719.603 299.146C719.895 296.896 721.457 294.651 724.289 292.409H724.285C725.535 291.792 726.689 291.483 727.745 291.483C728.702 291.483 729.579 291.736 730.377 292.242C730.816 292.521 731.305 292.654 731.789 292.654C732.662 292.654 733.517 292.22 734.019 291.428C734.796 290.205 734.44 288.587 733.228 287.8H733.232ZM732.546 282.437C729.237 282.437 726.152 283.495 723.292 285.611C722.648 286.088 722.284 286.801 722.23 287.542H722.226C722.039 287.63 721.852 287.723 721.664 287.82C721.521 287.894 721.385 287.98 721.257 288.079C717.169 291.248 714.875 294.694 714.376 298.416H714.371C714.014 300.164 713.927 302.001 714.111 303.926L714.115 303.962C714.597 308.368 715.217 311.244 715.974 312.59C715.988 312.616 716.003 312.642 716.018 312.668C716.046 312.715 716.074 312.76 716.104 312.805C719.115 317.294 722.303 319.868 725.67 320.527H725.668C729.004 321.251 732.003 321.614 734.665 321.614C738.654 321.614 741.885 320.8 744.357 319.172H744.353C749.458 316.061 752.096 310.315 752.266 301.934C752.269 301.768 752.257 301.603 752.229 301.439C750.856 293.347 747.821 288.065 743.123 285.594H743.12C739.372 283.489 735.847 282.437 732.546 282.437Z" fill="black"/>
<path d="M725.011 296.75C724.385 296.75 723.756 296.971 723.252 297.422C722.166 298.394 722.074 300.063 723.046 301.149C723.315 301.449 723.533 301.813 723.702 302.241C723.724 302.296 723.747 302.35 723.776 302.411C724.032 302.961 724.491 304.729 725.155 307.713L725.164 307.749C725.367 308.605 725.786 309.358 726.421 310.008C726.551 310.142 726.69 310.271 726.838 310.393C727.331 310.804 727.929 311.004 728.524 311.004C729.281 311.004 730.033 310.68 730.555 310.052C731.471 308.951 731.339 307.326 730.272 306.385H730.267C729.573 303.28 729.022 301.253 728.615 300.303H728.612C728.212 299.29 727.668 298.398 726.979 297.629C726.458 297.046 725.736 296.75 725.011 296.75Z" fill="black"/>
<path d="M734.572 297.112C733.412 297.112 732.349 297.883 732.028 299.056C731.716 300.196 732.201 301.366 733.145 301.973H733.141C733.15 301.999 733.159 302.027 733.168 302.058C733.257 302.362 733.39 302.905 733.569 303.688H733.568C734.062 306.17 734.373 307.64 734.5 308.098H734.499C734.772 309.218 735.062 310.25 735.37 311.196C735.732 312.311 736.767 313.02 737.879 313.02C738.15 313.02 738.425 312.978 738.696 312.89C740.082 312.439 740.84 310.95 740.39 309.564C740.116 308.722 739.855 307.79 739.608 306.769L739.585 306.683C739.492 306.347 739.207 304.982 738.73 302.586L738.715 302.514C738.505 301.594 738.34 300.931 738.22 300.526L738.21 300.495C738.048 299.97 737.851 299.508 737.62 299.11C737.041 298.111 736.258 297.477 735.27 297.207C735.037 297.143 734.803 297.112 734.572 297.112Z" fill="black"/>
<path d="M152.341 157.289C152.126 157.579 151.976 157.906 151.894 158.247C151.951 157.924 152.099 157.605 152.34 157.289H152.341ZM215.672 124.35C215.265 124.35 214.856 124.372 214.443 124.415L188.525 127.057C188.447 127.065 188.37 127.076 188.293 127.091L174.349 129.781C173.783 129.779 173.226 129.778 172.679 129.778C164.944 129.778 158.995 130.028 154.829 130.529L154.784 130.535C151.861 130.937 149.828 131.504 148.684 132.235C148.59 132.295 148.499 132.358 148.411 132.422H148.41C147.319 132.823 146.679 133.729 146.489 135.14C146.31 136.475 146.634 139.066 147.463 142.914C147.479 142.99 147.499 143.066 147.522 143.14C150.226 151.855 151.67 156.962 151.854 158.461H151.852C151.791 158.862 151.821 159.277 151.949 159.672H151.947C152.234 161.239 152.514 169.39 152.788 184.127L152.788 184.151C152.823 185.406 153.21 186.965 153.951 188.828C154.362 189.863 155.355 190.493 156.404 190.493C156.729 190.493 157.058 190.433 157.378 190.306C158.733 189.767 159.394 188.233 158.856 186.878C158.352 185.611 158.089 184.661 158.066 184.029C157.794 169.387 157.487 160.968 157.145 158.774H157.144C157.15 158.634 157.149 158.49 157.141 158.342C157.046 156.699 155.534 151.153 152.603 141.705H152.602C152.083 139.286 151.789 137.578 151.719 136.58H151.717C152.316 136.302 153.567 136.032 155.472 135.769H155.47C159.426 135.294 165.156 135.056 172.661 135.056C173.289 135.056 173.929 135.058 174.581 135.061C174.586 135.061 174.59 135.061 174.595 135.061C174.762 135.061 174.93 135.045 175.095 135.013L189.178 132.296L214.989 129.665L214.731 129.679L215.001 129.664C215.225 129.64 215.447 129.629 215.666 129.629C216.162 129.629 216.646 129.689 217.119 129.811C218.227 130.126 218.786 130.439 218.797 130.749C218.799 130.796 218.802 130.843 218.806 130.89L223.095 178.375C223.106 178.503 223.127 178.63 223.157 178.755L228.414 200.589C228.741 201.989 228.843 204.7 228.721 208.721C228.677 210.177 229.822 211.394 231.279 211.439C231.306 211.44 231.333 211.44 231.36 211.44C232.781 211.44 233.953 210.31 233.997 208.881C234.133 204.385 233.984 201.213 233.548 199.366L233.545 199.354L228.334 177.707L224.071 130.496C223.942 127.651 222.089 125.726 218.513 124.72L218.462 124.706C217.548 124.468 216.618 124.35 215.672 124.35Z" fill="black"/>
<path d="M174.365 147.651C173.425 147.651 172.447 147.836 171.43 148.206C169.217 149.011 167.354 150.529 165.839 152.759L165.818 152.791C162.633 157.63 162.357 162.501 164.992 167.405C165.054 167.52 165.123 167.629 165.201 167.733C168.463 172.111 171.853 174.322 175.371 174.367C175.382 174.368 175.393 174.368 175.404 174.368C175.442 174.368 175.481 174.367 175.519 174.365C181.056 174.126 185.537 172.219 188.962 168.642C189.97 167.59 189.934 165.919 188.881 164.911C188.37 164.421 187.713 164.178 187.056 164.178C186.362 164.178 185.668 164.45 185.15 164.991C182.719 167.53 179.46 168.895 175.374 169.088C173.643 169.031 171.705 167.584 169.558 164.746H169.557C168.013 161.753 168.23 158.746 170.207 155.724C171.082 154.435 172.091 153.582 173.235 153.166C173.613 153.029 173.965 152.96 174.291 152.96C174.724 152.96 175.111 153.081 175.454 153.323C175.917 153.651 176.449 153.809 176.976 153.809C177.803 153.809 178.618 153.42 179.132 152.694C179.975 151.504 179.693 149.857 178.503 149.015C177.218 148.106 175.839 147.651 174.365 147.651Z" fill="black"/>
<path d="M199.718 148.811C199.523 148.811 199.324 148.832 199.125 148.878C197.705 149.204 196.817 150.62 197.144 152.041C197.554 153.828 197.817 155.436 197.933 156.865L197.934 156.885C197.984 157.438 198.145 160.541 198.419 166.191L198.42 166.206C198.488 167.464 198.607 169.604 198.777 172.626C198.856 174.031 200.02 175.117 201.41 175.117C201.46 175.117 201.51 175.116 201.56 175.113C203.015 175.031 204.129 173.785 204.047 172.33C203.878 169.327 203.76 167.195 203.691 165.936C203.417 160.273 203.251 157.108 203.194 156.439C203.058 154.756 202.756 152.896 202.288 150.86C202.008 149.638 200.921 148.811 199.718 148.811Z" fill="black"/>
</g>
<defs>
<clipPath id="clip0_144_1925">
<rect width="838" height="398" fill="white"/>
</clipPath>
</defs>
</svg>
