<svg width="938" height="945" viewBox="0 0 938 945" fill="none" xmlns="http://www.w3.org/2000/svg">
<g clip-path="url(#clip0_157_237)">
<path d="M226.167 637.707C225.477 638.004 225.046 638.722 225.129 639.487C225.133 639.52 225.138 639.554 225.143 639.587C224.95 638.655 225.29 638.028 226.165 637.707L226.167 637.707ZM225.246 639.951C225.493 640.561 226.074 640.994 226.759 641.032C225.993 640.99 225.488 640.63 225.244 639.951L225.246 639.951ZM291.691 619.41L291.686 619.411C286.438 620.782 281.275 622.178 276.198 623.598L276.182 623.603C266.007 626.557 249.41 631.232 226.39 637.628C226.325 637.646 226.262 637.668 226.202 637.692L226.199 637.693C225.324 637.955 219.558 639.462 208.9 642.215C204.978 643.228 200.392 644.41 195.144 645.761L195.142 645.761C192.709 646.39 190.21 646.994 187.643 647.575L187.641 647.575C175.691 650.292 165.533 652.565 157.166 654.393L157.165 654.393C157.031 654.401 156.89 654.42 156.742 654.451L156.741 654.451C156.309 654.54 153.028 655.377 146.896 656.961C144.08 657.688 140.663 658.573 136.645 659.616C136.613 659.624 136.582 659.632 136.551 659.64C130.099 661.306 125.694 663.191 123.336 665.295C122.621 665.933 122.558 667.029 123.196 667.744C123.643 668.246 124.317 668.427 124.926 668.269C125.185 668.203 125.432 668.075 125.645 667.884C127.585 666.154 131.508 664.526 137.414 663.001C137.446 662.992 137.479 662.984 137.511 662.976L137.514 662.975C141.777 661.869 145.358 660.942 148.255 660.193C152.775 659.026 155.635 658.293 156.835 657.995L156.834 657.995C156.923 657.99 157.014 657.978 157.104 657.958C165.627 656.1 176.062 653.766 188.41 650.959L188.408 650.959C191.012 650.37 193.546 649.757 196.01 649.121L196.009 649.121C200.956 647.848 205.318 646.724 209.095 645.748C220.616 642.772 226.698 641.18 227.34 640.972C227.373 640.961 227.406 640.95 227.437 640.938L227.435 640.939C250.395 634.559 266.961 629.893 277.134 626.94C282.198 625.523 287.34 624.133 292.56 622.769L292.563 622.768L292.558 622.769L355.844 606.427L389.948 598.222L389.974 598.215L444.357 584.234L498.09 571.756L498.114 571.75L518.138 566.799L518.133 566.8C528.327 564.559 535.506 562.934 539.671 561.927L539.666 561.928C541.406 561.554 551.381 559.071 569.592 554.48L569.587 554.482C611.203 544.532 634.135 539.073 638.385 538.103L638.378 538.105C638.46 538.101 638.542 538.092 638.625 538.077L715.221 524.006L715.214 524.008C716.626 523.8 722.652 522.404 733.292 519.819L733.284 519.821C743.826 517.666 753.635 515.764 762.713 514.114L762.793 514.098C772.518 511.853 782.2 509.745 791.841 507.773L791.865 507.768C795.278 507.019 800.816 505.656 808.479 503.676C813.387 502.408 819.166 500.888 825.818 499.116L825.822 499.114L825.881 499.098C832.1 497.257 837.307 495.351 841.502 493.379C842.369 492.972 842.741 491.938 842.334 491.071C841.973 490.304 841.123 489.924 840.332 490.128C840.228 490.155 840.126 490.192 840.026 490.239C835.994 492.134 830.957 493.976 824.916 495.765L824.908 495.767C818.259 497.539 812.486 499.058 807.59 500.322C800.008 502.281 794.528 503.631 791.151 504.372L791.146 504.373C781.492 506.348 771.798 508.459 762.064 510.705L762.056 510.707C752.956 512.361 743.123 514.268 732.556 516.428L732.494 516.442C721.797 519.041 715.862 520.42 714.689 520.577L714.607 520.59L638.954 534.489L638.948 534.49C638.785 534.49 638.611 534.507 638.425 534.542C637.284 534.758 614.065 540.28 568.768 551.11L568.747 551.115C550.486 555.719 540.543 558.194 538.917 558.54L538.871 558.551C534.725 559.553 527.556 561.176 517.362 563.417L517.318 563.427L497.289 568.38L443.549 580.86L443.509 580.869L389.123 594.851L355.018 603.056L354.99 603.063L291.691 619.41Z" fill="black"/>
<path d="M104.451 210.615C104.684 210.87 104.989 211.051 105.326 211.132C104.969 211.083 104.676 210.91 104.449 210.615L104.451 210.615ZM107.468 209.363C107.514 209.963 107.327 210.417 106.906 210.724C107.276 210.385 107.492 209.891 107.466 209.363L107.468 209.363ZM101.003 202.951C100.342 203.122 99.667 203.444 98.9775 203.919C98.1882 204.462 97.9887 205.542 98.532 206.331C98.9567 206.949 99.7097 207.205 100.395 207.028C100.587 206.979 100.773 206.896 100.945 206.777C101.297 206.534 101.606 206.379 101.87 206.311C101.875 206.31 101.879 206.308 101.884 206.307C102.69 206.107 103.412 207.293 104.049 209.863C104.095 210.046 104.168 210.215 104.263 210.367L104.261 210.367C104.835 212.08 107.225 220.382 111.43 235.271L111.462 235.374L127.327 280.577L127.326 280.578C130.391 290.717 134.473 304.84 139.574 322.947L139.606 323.05C143.823 335.097 149.757 350.092 157.411 368.035L157.409 368.035C159.493 373.645 161.211 378.969 162.562 384.007L162.564 384.015C163.089 385.934 163.804 388.746 164.709 392.449C168.633 409.404 170.847 418.721 171.351 420.401L171.35 420.401L181.572 459.978L181.578 460.002C184.372 470.204 188.302 485.245 193.366 505.124L193.364 505.124L199.606 536.558L199.615 536.605C202.981 551.436 205.846 563.396 208.209 572.486C209.014 575.94 209.575 578.435 209.892 579.972L209.896 579.992C213.142 594.88 215.215 604.998 216.115 610.345L216.114 610.346C221.884 654.49 227.316 687.584 232.41 709.628L232.412 709.64C233.299 713.354 234.308 717.231 235.441 721.27L235.448 721.295L243.8 749.403L243.799 749.404C246.618 760.386 251.492 777.968 258.42 802.15L258.428 802.176L268.972 836.869L268.99 836.927C274.243 852.278 277.593 862.63 279.039 867.982L279.044 867.997C280.207 872.155 281.25 876.33 282.171 880.523L282.176 880.545C283.402 885.801 285.067 893.987 287.17 905.101L287.192 905.201C288.593 910.788 289.868 914.972 291.016 917.752C291.351 918.562 292.227 918.984 293.052 918.771C293.129 918.751 293.206 918.725 293.282 918.694C294.168 918.328 294.589 917.313 294.223 916.428C293.146 913.817 291.931 909.822 290.578 904.441L290.576 904.442C288.468 893.302 286.796 885.08 285.56 879.778C284.626 875.526 283.569 871.292 282.389 867.076C280.924 861.658 277.559 851.252 272.293 835.86L272.292 835.86L261.747 801.167C254.819 776.984 249.951 759.421 247.143 748.478L247.126 748.415L238.774 720.307C237.658 716.325 236.663 712.505 235.791 708.847C230.719 686.902 225.304 653.897 219.546 609.833L219.537 609.77C218.628 604.37 216.546 594.204 213.29 579.272C212.966 577.699 212.395 575.16 211.577 571.655L211.567 571.613C209.216 562.568 206.363 550.658 203.01 535.883L196.75 504.362L196.73 504.271C191.664 484.387 187.731 469.333 184.932 459.11L174.693 419.468L174.675 419.403C174.192 417.794 171.995 408.541 168.085 391.646L168.08 391.625C167.168 387.896 166.446 385.057 165.913 383.108C164.528 377.942 162.767 372.489 160.633 366.749L160.602 366.673C152.997 348.843 147.1 333.948 142.91 321.988L142.908 321.989C137.792 303.826 133.698 289.663 130.625 279.5L130.601 279.428L114.766 234.309L114.764 234.309C110.244 218.306 107.786 209.81 107.39 208.821C107.371 208.772 107.351 208.725 107.33 208.68L107.328 208.68C106.119 204.115 104.026 202.201 101.049 202.939C101.034 202.943 101.019 202.947 101.003 202.951Z" fill="black"/>
<path d="M97.8853 183.095C97.8636 183.101 97.842 183.107 97.8206 183.112L97.8171 183.113C94.8734 183.934 92.1972 185.999 89.7886 189.309L89.7866 189.31C89.7527 189.34 89.7188 189.371 89.6851 189.404C88.4773 190.58 84.5206 197.234 77.8153 209.365C77.3518 210.203 77.6558 211.259 78.4944 211.722C78.8985 211.946 79.353 211.991 79.7674 211.884C80.2129 211.769 80.612 211.478 80.8521 211.043C87.3068 199.366 91.0449 192.995 92.0664 191.93L92.0644 191.931C92.2196 191.819 92.3558 191.683 92.4671 191.527C94.4378 188.765 96.5306 187.075 98.7456 186.457C98.7539 186.454 98.7618 186.452 98.7702 186.45C100.208 186.079 103.11 187.532 107.477 190.808C107.606 190.906 107.749 190.984 107.9 191.042L107.897 191.042C108.838 191.678 111.827 194.92 116.865 200.769C116.911 200.822 116.959 200.872 117.011 200.919L124.604 207.835C125.054 208.245 125.66 208.374 126.208 208.232C126.524 208.151 126.82 207.98 127.055 207.721C127.701 207.013 127.649 205.915 126.941 205.27L119.438 198.436L119.435 198.437C114.081 192.222 110.817 188.757 109.644 188.041C109.556 187.988 109.469 187.94 109.382 187.898L109.38 187.899C104.215 184.051 100.383 182.45 97.8853 183.095Z" fill="black"/>
<path d="M823.251 473.92C823.002 473.985 822.763 474.106 822.554 474.285C821.828 474.91 821.746 476.006 822.372 476.732C822.479 476.857 822.611 476.978 822.767 477.095C823.947 477.983 830.585 481.022 842.683 486.214L842.681 486.214C844.44 487.053 846.435 488.094 848.667 489.337C850.462 490.337 851.454 491.395 851.644 492.511L851.635 492.513C851.746 494.933 850.541 497.241 848.02 499.437L847.973 499.479C846.736 500.639 845.836 501.41 845.274 501.792L845.245 501.812C838.314 506.729 833.262 510.433 830.089 512.923C829.336 513.514 829.204 514.605 829.796 515.359C830.235 515.918 830.948 516.135 831.595 515.967C831.82 515.909 832.037 515.805 832.232 515.652C835.357 513.2 840.355 509.536 847.225 504.662L847.224 504.662C847.929 504.183 848.954 503.314 850.301 502.053L850.299 502.053C853.742 499.055 855.338 495.744 855.088 492.12C855.084 492.065 855.078 492.01 855.069 491.956C854.702 489.736 853.131 487.852 850.355 486.306C848.035 485.013 845.954 483.929 844.112 483.053L844.051 483.025C832.45 478.047 826.073 475.162 824.918 474.369L824.911 474.371C824.466 473.927 823.83 473.771 823.251 473.92Z" fill="black"/>
<path d="M759.415 559.394L756.64 560.213C753.522 561.143 750.422 562.105 747.337 563.099C745.795 563.596 744.257 564.101 742.724 564.614C741.952 564.86 739.66 565.647 735.85 566.974C737.087 567.379 738.129 567.807 738.975 568.257C739.394 568.527 739.668 568.866 739.797 569.275C740.099 569.151 742.78 568.253 747.839 566.581C750.79 565.627 753.943 564.646 757.298 563.64C757.034 562.99 757.023 562.464 757.265 562.062L757.493 561.707L759.415 559.394Z" fill="black"/>
<path d="M773.102 555.633L771.401 556.081C772.648 556.838 772.412 558.096 770.692 559.854C771.711 559.558 775.067 558.705 780.762 557.293C783.042 556.759 785.322 556.225 787.601 555.691L794.492 554.185L801.433 552.775L809.986 551.183C813.11 550.63 816.248 550.105 819.403 549.609C820.18 549.465 823.615 548.961 829.706 548.099L837.196 547.112C837.969 546.807 838.379 546.255 838.427 545.455C838.277 544.483 837.857 543.925 837.169 543.78C836.861 543.722 836.652 543.699 836.54 543.713L829.236 544.661C820.677 545.826 812.226 547.196 803.883 548.771L797.646 549.99L791.45 551.286L785.293 552.658L779.177 554.107L773.102 555.633Z" fill="black"/>
<path d="M722.446 571.947L715.76 574.617C705.42 578.886 696.193 583.044 688.079 587.092L687.922 587.469C687.921 588.191 687.874 588.664 687.781 588.889L686.627 591.695L690.62 589.709C693.29 588.399 695.974 587.117 698.673 585.862C701.372 584.608 704.085 583.381 706.814 582.181C712.271 579.782 717.788 577.494 723.364 575.316C722.926 574.962 722.622 574.543 722.454 574.06C722.254 573.733 722.252 573.029 722.446 571.947Z" fill="black"/>
<path d="M681.444 590.442L679.51 591.446C674.359 594.135 669.264 596.93 664.224 599.829C663.427 600.089 662.534 600.482 661.545 601.008C661.267 601.127 660.158 601.917 658.219 603.38C656.108 605.192 654.309 606.976 652.822 608.732L653.368 608.717C653.455 608.435 653.711 608.175 654.136 607.937C654.37 607.818 654.745 607.745 655.26 607.718C655.678 607.727 656.293 608.154 657.106 608.998C658.737 607.224 660.656 605.638 662.863 604.239C663.83 603.736 664.442 603.434 664.7 603.335C665.079 603.166 665.423 603.042 665.733 602.963C671.559 599.617 677.121 596.578 682.419 593.847C681.707 593.275 681.382 592.14 681.444 590.442Z" fill="black"/>
<path d="M183.549 231.557C183.482 231.574 183.415 231.596 183.348 231.622C182.456 231.971 182.016 232.978 182.366 233.87L280.674 484.846C280.697 484.905 280.724 484.963 280.753 485.02C310.111 540.94 343.727 617.261 381.602 713.982C403.92 771.823 432.795 810.644 468.226 830.444L468.301 830.484C491.236 841.871 511.836 845.205 530.099 840.488C546.255 836.315 560.582 825.842 573.082 809.068L573.079 809.07C583.757 796.101 589.762 786.951 591.093 781.62L591.107 781.557C606.791 707.125 617.238 668.752 622.448 666.437C622.824 666.27 623.129 665.974 623.307 665.603C632.192 647.108 640.029 632.695 646.816 622.364L646.823 622.363C646.646 622.196 646.453 622.004 646.243 621.786C645.21 621.986 644.405 621.728 643.828 621.011C643.8 620.974 643.775 620.936 643.751 620.898L643.746 620.9C636.863 631.354 629.075 645.613 620.382 663.679L620.376 663.682C613.983 668.786 603.095 707.84 587.712 780.842L587.711 780.843C586.472 785.679 580.702 794.353 570.4 806.864L570.348 806.931C558.4 822.985 544.69 833.011 529.217 837.007C511.709 841.53 491.943 838.332 469.922 827.415L469.919 827.416C435.215 808.022 406.854 769.792 384.836 712.725L384.833 712.717C346.937 615.941 313.287 539.541 283.883 483.517L283.88 483.519L185.597 232.604C185.273 231.779 184.387 231.34 183.549 231.557Z" fill="black"/>
<path d="M230.544 317.787C230.471 318.063 230.465 318.361 230.541 318.657C230.778 319.585 231.722 320.146 232.651 319.91C234.676 319.393 236.355 319.133 237.687 319.127L237.684 319.128C237.765 319.247 237.844 319.368 237.921 319.492C238.33 320.154 239.113 320.445 239.83 320.26C239.995 320.217 240.156 320.149 240.309 320.055C240.412 319.991 240.507 319.918 240.591 319.838L240.594 319.837C240.659 319.885 240.72 319.935 240.777 319.988C240.81 320.018 240.844 320.046 240.878 320.073C244.093 322.591 246.121 325.633 246.961 329.199L246.958 329.2C247.42 332.869 246.661 335.466 244.681 336.991L244.635 337.028C243.524 337.945 242.649 338.486 242.012 338.65C241.961 338.664 241.911 338.674 241.863 338.683C241.817 338.691 241.772 338.7 241.727 338.712C241.716 338.715 241.705 338.718 241.695 338.721C241.648 338.734 241.601 338.746 241.553 338.759C240.145 339.122 237.998 339.261 235.111 339.174L235.108 339.175C231.808 338.942 229.619 337.933 228.541 336.146C226.219 332.064 225.365 328.198 225.979 324.548C226.482 321.882 228.002 319.629 230.541 317.788L230.544 317.787ZM232.244 312.931C232.033 312.985 231.821 313.05 231.606 313.126C231.534 313.152 231.463 313.183 231.395 313.218C226.367 315.799 223.425 319.362 222.569 323.906L222.564 323.935C221.801 328.409 222.788 333.051 225.524 337.862L225.541 337.891C227.233 340.739 230.346 342.321 234.879 342.637L234.946 342.64C238.191 342.741 240.687 342.566 242.434 342.115C242.472 342.105 242.51 342.095 242.548 342.085L242.551 342.084C242.646 342.065 242.742 342.044 242.84 342.018C243.992 341.721 245.312 340.961 246.8 339.74L246.798 339.74C249.855 337.386 251.05 333.683 250.383 328.632C250.376 328.577 250.366 328.522 250.353 328.467C249.344 324.115 246.925 320.427 243.099 317.405L243.096 317.406C242.185 316.583 240.986 316.057 239.497 315.828L239.494 315.829C238.566 314.806 237.479 313.959 236.23 313.288L236.126 313.236C234.903 312.68 233.609 312.578 232.244 312.931Z" fill="black"/>
<path d="M289.768 440.449C291.116 440.1 292.732 439.946 294.614 439.985C294.667 439.986 294.72 439.985 294.773 439.981C296.504 439.859 298.961 440.835 302.144 442.909C302.569 443.186 303.071 443.252 303.526 443.135C303.82 443.059 304.096 442.905 304.319 442.682L304.322 442.681C306.078 444.955 307.266 446.919 307.887 448.575C309.2 452.449 308.8 456.464 306.687 460.62L306.684 460.621C305.345 462.392 303.557 463.567 301.318 464.146C299.87 464.52 298.234 464.644 296.409 464.519L296.34 464.515C291.667 464.382 287.603 462.447 284.148 458.709C282.306 456.701 281.501 453.925 281.731 450.38L281.731 450.376C281.849 448.494 283.522 445.664 286.75 441.884L286.747 441.884C287.532 441.245 288.539 440.766 289.768 440.449ZM297.287 433.605C296.767 433.74 296.316 434.114 296.105 434.652C295.816 435.388 296.065 436.202 296.662 436.661C295.94 436.527 295.261 436.478 294.624 436.514L294.62 436.515C292.459 436.474 290.552 436.668 288.899 437.095C287.102 437.559 285.605 438.299 284.409 439.316C284.34 439.375 284.275 439.439 284.216 439.508C280.418 443.935 278.435 447.485 278.268 450.159C277.975 454.688 279.082 458.319 281.591 461.054L281.595 461.059C285.71 465.513 290.591 467.822 296.236 467.984L296.232 467.984C298.447 468.131 300.454 467.972 302.252 467.508C305.284 466.725 307.723 465.073 309.571 462.553C309.624 462.48 309.672 462.403 309.713 462.323C312.337 457.234 312.817 452.26 311.153 447.403L311.136 447.357C310.176 444.798 308.175 441.742 305.133 438.188L305.105 438.156C303.403 436.263 301.152 434.768 298.353 433.671C298 433.532 297.629 433.517 297.287 433.605Z" fill="black"/>
<path d="M261.582 364.04C261.192 364.389 260.991 364.884 261.004 365.383C260.928 364.881 261.12 364.433 261.579 364.041L261.582 364.04ZM311.039 451.497C311.201 451.537 311.342 451.595 311.462 451.671C311.329 451.595 311.186 451.537 311.035 451.498L311.039 451.497ZM230.715 302.026C230.309 302.131 229.939 302.382 229.693 302.762C229.172 303.566 229.401 304.64 230.205 305.161C231.528 306.019 232.789 307.618 233.989 309.957L233.986 309.957C235.091 313.165 239.061 321.205 245.899 334.078L245.896 334.078C247.005 337.378 248.807 342.028 251.302 348.028C251.331 348.098 251.365 348.166 251.403 348.232C257.286 358.377 260.49 364.131 261.014 365.494L261.011 365.495C261.035 365.745 261.113 365.994 261.249 366.222L291.307 416.589L291.304 416.589C293.04 420.498 295.478 425.304 298.617 431.005L298.613 431.006C304.395 445.03 307.874 452.734 309.05 454.119C309.142 454.227 309.237 454.323 309.335 454.409L309.332 454.41C313.303 460.631 316.27 464.227 318.231 465.197L318.227 465.198L328.773 472.811C328.951 472.94 329.152 473.033 329.366 473.087C330.296 473.32 331.153 473.336 331.937 473.134C332.857 472.896 333.676 472.358 334.394 471.52C335.018 470.793 334.934 469.698 334.206 469.074C333.759 468.69 333.172 468.575 332.642 468.712C332.31 468.797 332 468.982 331.76 469.262C331.549 469.508 331.305 469.667 331.029 469.738C330.863 469.781 330.686 469.793 330.498 469.773L330.494 469.774L320.114 462.281C320.006 462.203 319.889 462.137 319.766 462.086C318.451 461.538 315.885 458.259 312.069 452.249C311.949 452.061 311.797 451.9 311.62 451.772L311.617 451.773C310.579 450.374 307.298 442.972 301.773 429.566C301.748 429.506 301.72 429.447 301.689 429.39C298.55 423.691 296.128 418.916 294.423 415.063C294.394 414.999 294.362 414.937 294.326 414.876L264.429 364.781L264.426 364.781C264.411 364.72 264.394 364.657 264.374 364.594C263.963 363.279 260.663 357.285 254.474 346.611L254.471 346.612C251.987 340.635 250.208 336.039 249.135 332.824C249.104 332.733 249.066 332.644 249.021 332.559C242.13 319.589 238.2 311.641 237.229 308.715C237.202 308.633 237.168 308.553 237.129 308.475C235.633 305.532 233.954 303.457 232.093 302.25C231.668 301.975 231.169 301.909 230.715 302.026Z" fill="black"/>
<path d="M254.848 315.911C255.176 316.345 255.269 316.803 255.127 317.286C255.23 316.81 255.128 316.31 254.844 315.912L254.848 315.911ZM260.384 299.873C259.806 300.023 259.32 300.466 259.146 301.082C258.834 302.19 258.283 303.551 257.495 305.166L257.494 305.167C254.006 311.772 252.121 315.445 251.839 316.187C251.802 316.284 251.772 316.379 251.748 316.473L251.745 316.474C249.583 322.172 248.299 325.341 247.892 325.98L247.889 325.981C247.823 326.066 247.766 326.158 247.718 326.255C247.195 327.304 246.592 328.23 245.91 329.035L245.909 329.035C245.732 329.233 245.558 329.419 245.389 329.594C245.287 329.601 245.186 329.618 245.087 329.644C244.783 329.722 244.497 329.884 244.265 330.129C243.745 330.676 243.397 331.071 243.22 331.314C243.119 331.452 243.038 331.587 242.978 331.716C242.71 332.298 242.783 332.98 243.169 333.491C243.188 333.515 243.207 333.539 243.227 333.563C243.732 334.172 244.299 334.396 244.929 334.233C245.23 334.155 245.546 333.989 245.876 333.734L245.873 333.735C246.699 333.173 247.568 332.383 248.48 331.365L248.477 331.366L248.471 331.372L248.557 331.278C249.385 330.301 250.115 329.194 250.746 327.957L250.743 327.958C250.764 327.928 250.785 327.896 250.805 327.864C251.345 327.027 252.761 323.583 255.054 317.534C255.076 317.475 255.095 317.416 255.11 317.356L255.107 317.357C255.426 316.592 257.253 313.052 260.588 306.737L260.613 306.688C261.492 304.887 262.117 303.333 262.486 302.025C262.746 301.103 262.21 300.145 261.288 299.884C260.981 299.798 260.671 299.799 260.384 299.873Z" fill="black"/>
<path d="M322.567 273.784C322.531 273.803 322.495 273.819 322.46 273.834C322.495 273.819 322.529 273.802 322.563 273.785L322.567 273.784ZM297.469 383.406C297.705 384.076 297.498 384.663 296.848 385.169C297.39 384.743 297.617 384.05 297.466 383.407L297.469 383.406ZM384.195 391.083C383.835 391.348 383.595 391.739 383.517 392.17C383.498 391.773 383.722 391.411 384.19 391.084L384.195 391.083ZM369.784 402.497C369.896 402.723 369.934 402.975 369.898 403.252C369.915 402.994 369.874 402.736 369.78 402.498L369.784 402.497ZM369.212 404.524C369.054 404.646 368.871 404.738 368.662 404.8C368.862 404.74 369.046 404.647 369.208 404.525L369.212 404.524ZM277.016 256.819C277.04 256.836 277.064 256.853 277.089 256.87L277.085 256.871C281.687 264.833 285.304 268.906 287.937 269.089C288.098 269.101 288.256 269.101 288.411 269.09L288.408 269.091C288.819 269.266 289.262 269.292 289.738 269.169C289.919 269.122 290.105 269.054 290.295 268.964C292.03 268.146 295.927 263.69 301.986 255.595L301.982 255.596C302.131 255.466 302.252 255.383 302.345 255.346L302.348 255.345C303.005 255.823 303.377 256.528 303.466 257.461C303.481 257.62 303.518 257.777 303.577 257.927L303.573 257.928C303.829 258.968 303.83 263.239 303.578 270.742C303.576 270.815 303.578 270.889 303.585 270.962C303.671 271.881 303.908 272.662 304.297 273.306L304.293 273.307C304.46 274.05 304.959 274.586 305.79 274.916C307.567 275.623 312.974 275.305 322.012 273.964C322.071 273.955 322.131 273.943 322.189 273.929L322.185 273.93C323.081 274.093 325.316 275.14 328.891 277.07L328.887 277.071C329.049 277.183 329.144 277.274 329.173 277.345L329.17 277.346C329.169 277.351 329.168 277.358 329.167 277.366C329.159 277.411 329.154 277.456 329.15 277.501L329.146 277.502C328.791 278.334 327.266 280.63 324.569 284.388C324.524 284.452 324.482 284.519 324.445 284.588C323.433 286.503 323.623 288.386 325.016 290.239L325.037 290.266C325.886 291.351 327.676 292.255 330.408 292.979C330.461 292.993 330.515 293.005 330.57 293.014C340.724 294.689 346.405 295.964 347.613 296.84L347.609 296.841C347.688 296.938 347.777 297.025 347.875 297.103C348.889 297.903 349.398 298.488 349.402 298.857L349.397 298.858L342.592 304.309C342.473 304.404 342.367 304.514 342.277 304.637C341.992 305.026 341.774 305.388 341.624 305.721C341.584 305.81 341.548 305.899 341.516 305.986C341.003 307.407 341.388 308.406 342.67 308.983C342.73 309.01 342.791 309.034 342.854 309.054L362.415 315.3L362.411 315.301C362.346 315.366 362.276 315.434 362.203 315.504L362.199 315.505L353.753 322.935C353.709 322.973 353.668 323.014 353.628 323.056C352.487 324.284 352.18 325.845 352.708 327.738C353.098 329.259 354.524 330.584 356.988 331.712L357.096 331.757L377.216 339.376L377.212 339.377C377.227 339.941 376.927 340.664 376.313 341.547L376.309 341.548L365.97 350.105C365.926 350.142 365.883 350.181 365.842 350.223C364.737 351.342 364.132 352.429 364.027 353.483C363.984 353.921 364.024 354.346 364.149 354.756C364.585 356.196 365.706 357.507 367.511 358.689L367.556 358.718C370.762 360.677 375.795 363.4 382.654 366.886C383.082 367.113 383.38 367.357 383.548 367.618L383.544 367.619C383.359 367.826 382.999 368.079 382.463 368.379C382.372 368.429 382.286 368.488 382.206 368.554C381.277 369.24 376.503 370.97 367.885 373.746L367.823 373.767C366.05 374.413 364.964 375.552 364.565 377.185C364.537 377.3 364.521 377.417 364.517 377.536C364.454 379.325 365.484 380.998 367.608 382.556C367.663 382.596 367.72 382.632 367.779 382.666C376.431 387.571 381.593 390.786 383.267 392.311L383.263 392.312C383.19 392.345 383.108 392.379 383.017 392.415L383.013 392.416C373.392 395.153 367.891 397.245 366.51 398.694C366.446 398.761 366.387 398.829 366.331 398.897L366.327 398.899C366.112 399.132 365.933 399.38 365.789 399.641C365.41 400.332 365.295 401.064 365.446 401.838C365.581 402.533 365.936 403.22 366.513 403.901L366.509 403.902C366.65 404.198 366.891 404.476 367.232 404.735C367.985 405.309 370.763 406.681 375.565 408.85L375.561 408.851C375.788 409.016 375.966 409.158 376.094 409.278L376.09 409.279C375.925 409.476 375.619 409.737 375.169 410.065L375.165 410.066L362.303 417.165C361.931 417.37 361.648 417.704 361.506 418.103C361.229 418.884 361.369 419.649 361.926 420.401C362.269 420.863 362.812 421.337 363.555 421.823C363.655 421.888 363.762 421.943 363.873 421.987C370.011 424.386 373.48 425.887 374.28 426.49L374.276 426.491C374.368 426.597 374.473 426.692 374.589 426.773C375.057 427.102 375.436 427.402 375.725 427.671C375.742 427.688 375.759 427.704 375.776 427.719L375.772 427.72C373.361 429.407 370.595 430.654 367.472 431.461C359.965 433.4 350.399 432.795 338.774 429.646L338.77 429.647C328.572 425.389 317.532 414.146 305.649 395.92L305.639 395.904C300.715 388.525 297.985 384.334 297.45 383.331L297.447 383.332C297.407 383.192 297.349 383.055 297.272 382.924C294.703 378.557 290.742 370.343 285.388 358.281L285.343 358.189C282.197 352.103 277.172 344.149 270.266 334.329L270.262 334.329C268.941 332.152 268.017 330.157 267.49 328.346C262.164 309.345 261.497 295.019 265.492 285.368L265.489 285.369C266.338 283.873 267.15 282.373 267.924 280.867L267.921 280.868C268.54 279.972 269.216 279.134 269.949 278.354C270.494 277.774 270.563 276.917 270.17 276.268L270.167 276.269C273.112 269.879 275.394 263.396 277.012 256.82L277.016 256.819ZM275.63 253.062C275.205 253.171 274.821 253.388 274.477 253.713C274.229 253.948 274.055 254.251 273.978 254.584C272.059 262.901 269.044 271.073 264.931 279.1L264.928 279.101C257.934 289.458 257.674 306.185 264.149 329.282L264.153 329.297C264.766 331.409 265.815 333.69 267.302 336.14L267.366 336.238C274.213 345.97 279.178 353.818 282.261 359.782L282.258 359.783C287.568 371.742 291.538 379.977 294.168 384.49L294.165 384.491C294.189 384.553 294.216 384.617 294.246 384.681C294.666 385.579 297.502 389.962 302.753 397.83C315.057 416.7 326.649 428.386 337.53 432.89C337.598 432.918 337.667 432.941 337.738 432.961C350.009 436.299 360.217 436.917 368.362 434.813C372.289 433.798 375.737 432.151 378.705 429.87C378.781 429.812 378.852 429.748 378.917 429.678C379.72 428.816 379.853 427.824 379.316 426.7C379.073 426.19 378.664 425.668 378.091 425.133C377.731 424.798 377.296 424.446 376.784 424.077L376.78 424.078C376.698 423.992 376.607 423.908 376.507 423.827C375.557 423.056 372.053 421.478 365.995 419.092L365.991 419.093L376.945 413.046C376.998 413.018 377.048 412.986 377.052 412.983L377.05 412.983L377.12 412.936C378.169 412.182 378.878 411.463 379.246 410.779C379.39 410.513 379.49 410.245 379.547 409.975L379.542 409.976C379.83 409.244 379.737 408.489 379.263 407.709C378.909 407.127 378.293 406.527 377.413 405.911C377.325 405.849 377.23 405.795 377.131 405.75C373.006 403.888 370.494 402.687 369.597 402.147L369.592 402.148C369.534 402.065 369.468 401.985 369.394 401.911C369.115 401.631 368.942 401.412 368.877 401.256L368.873 401.257C368.88 401.248 368.889 401.239 368.899 401.229C368.943 401.184 368.985 401.137 369.024 401.087L369.022 401.088C369.971 400.092 374.978 398.306 384.043 395.731C384.091 395.717 384.139 395.701 384.186 395.683C385.013 395.369 385.652 394.986 386.102 394.534C386.47 394.165 386.72 393.762 386.852 393.326L386.847 393.327C387.331 392.682 387.274 391.894 386.677 390.965C386.664 390.945 386.65 390.925 386.636 390.904L386.636 390.903C385.522 389.252 379.845 385.522 369.605 379.713L369.601 379.714C368.619 378.985 368.084 378.36 367.997 377.838L367.993 377.839C368.14 377.498 368.468 377.231 368.977 377.04L368.973 377.041C377.883 374.171 382.979 372.274 384.261 371.349L384.257 371.35C385.557 370.606 386.412 369.783 386.821 368.882C387.024 368.434 387.121 367.974 387.111 367.502C387.108 367.381 387.093 367.26 387.065 367.142C386.732 365.728 385.792 364.615 384.247 363.803L384.226 363.792C377.481 360.365 372.543 357.696 369.413 355.786L369.411 355.786C368.341 355.085 367.7 354.425 367.487 353.804L367.483 353.806C367.518 353.575 367.771 353.217 368.241 352.732L368.237 352.733L378.706 344.069C378.819 343.975 378.92 343.868 379.006 343.749C380.758 341.326 381.146 339.163 380.17 337.262C379.974 336.88 379.643 336.584 379.241 336.432L358.417 328.547L358.413 328.548C356.954 327.879 356.173 327.321 356.069 326.876L356.051 326.805C355.882 326.201 355.906 325.757 356.123 325.474L356.119 325.475L364.55 318.058L364.606 318.007C365.521 317.128 366.12 316.357 366.402 315.693C366.845 314.652 366.713 313.764 366.008 313.03C365.998 313.019 365.988 313.009 365.978 312.999C365.782 312.802 365.541 312.655 365.277 312.571L345.651 306.304L351.932 301.274C352.095 301.144 352.232 300.985 352.339 300.807C353.553 298.766 352.842 296.671 350.205 294.523L350.201 294.525C350.081 294.386 349.942 294.255 349.784 294.132C348.2 292.897 342.018 291.388 331.238 289.607L331.234 289.608C329.327 289.099 328.18 288.614 327.791 288.154L327.79 288.154C327.307 287.512 327.198 286.897 327.463 286.311L327.459 286.312C330.458 282.128 332.132 279.521 332.48 278.491C332.568 278.233 332.614 277.984 332.62 277.746L332.616 277.747C332.641 277.527 332.647 277.309 332.632 277.093C332.606 276.719 332.521 276.359 332.378 276.013C332.07 275.273 331.513 274.64 330.708 274.114C330.667 274.088 330.626 274.063 330.584 274.041C326.347 271.752 323.595 270.556 322.326 270.452C322.004 270.425 321.708 270.447 321.437 270.517C321.382 270.531 321.328 270.547 321.275 270.566C313.734 271.679 309.135 272.09 307.476 271.798L307.472 271.799C307.428 271.726 307.377 271.656 307.322 271.59C307.19 271.432 307.101 271.157 307.053 270.765L307.049 270.765C307.313 262.879 307.265 258.277 306.906 256.96L306.902 256.961C306.657 254.841 305.653 253.258 303.89 252.21C303.805 252.159 303.715 252.116 303.621 252.08C303.55 252.053 303.478 252.028 303.406 252.006C302.932 251.86 302.449 251.82 301.958 251.886C301.817 251.905 301.677 251.932 301.539 251.968C300.847 252.147 300.175 252.537 299.525 253.139C299.448 253.211 299.378 253.289 299.315 253.373C294.154 260.276 290.81 264.325 289.283 265.52C288.998 265.446 288.699 265.446 288.414 265.52C288.316 265.545 288.219 265.58 288.125 265.623C286.674 265.439 283.935 261.839 279.908 254.82C279.793 254.619 279.638 254.442 279.453 254.302C278.505 253.583 277.649 253.158 276.885 253.028C276.433 252.951 276.015 252.962 275.63 253.062Z" fill="black"/>
<path d="M253.985 247.683C253.816 247.727 253.651 247.797 253.495 247.895C252.684 248.405 252.44 249.476 252.95 250.287C254.362 252.532 256.276 255.51 258.692 259.221C259.658 260.816 260.341 261.999 260.741 262.767L260.759 262.801C261.501 264.152 262.404 265.953 263.467 268.206L263.466 268.206C265.386 272.703 266.569 275.387 267.016 276.258C267.394 276.994 268.224 277.345 268.992 277.146C269.114 277.115 269.235 277.069 269.352 277.009C270.204 276.572 270.541 275.526 270.103 274.674C269.692 273.872 268.534 271.242 266.631 266.784L266.605 266.725C265.52 264.427 264.592 262.573 263.819 261.164C263.38 260.321 262.65 259.059 261.63 257.375L261.6 257.328C259.194 253.633 257.29 250.67 255.888 248.44C255.476 247.784 254.697 247.499 253.985 247.683Z" fill="black"/>
<path d="M268.09 240.733C267.885 240.786 267.687 240.877 267.506 241.009C266.73 241.571 266.557 242.656 267.12 243.432C269.367 246.53 270.771 248.705 271.332 249.955L271.353 250.001C273.243 253.904 274.455 256.456 274.989 257.659L274.999 257.681C275.512 258.794 275.989 260.123 276.429 261.67C276.688 262.577 277.623 263.109 278.531 262.874C278.545 262.87 278.559 262.866 278.574 262.862C279.495 262.6 280.029 261.64 279.766 260.718C279.28 259.011 278.744 257.521 278.16 256.251C277.613 255.018 276.392 252.446 274.498 248.535C273.84 247.066 272.316 244.686 269.929 241.395C269.498 240.8 268.76 240.56 268.09 240.733Z" fill="black"/>
<path d="M260.423 204.793C268.394 217.957 271.473 229.05 269.659 238.073L269.656 238.074C267.309 243.53 262.577 247.177 255.461 249.015C252.722 249.723 249.631 250.162 246.186 250.334L246.182 250.335C244.068 248.858 242.179 247.625 240.515 246.638L240.512 246.639C240.1 246.353 239.708 246.005 239.337 245.595L239.333 245.596C237.374 242.121 233.374 236.418 227.332 228.487L227.329 228.488C226.965 227.928 226.763 227.515 226.722 227.249L226.718 227.25C226.783 227.178 226.881 227.125 227.012 227.091C227.217 227.038 227.503 227.032 227.87 227.072L227.869 227.073C233.875 227.896 239.725 229.192 245.419 230.962C245.496 230.986 245.575 231.004 245.655 231.017C246.779 231.2 247.718 231.194 248.471 231C248.618 230.962 248.759 230.916 248.893 230.863C249.139 230.766 249.365 230.644 249.569 230.499L249.566 230.5C249.76 230.39 249.946 230.25 250.125 230.079C250.75 229.487 251.448 228.295 252.221 226.506C252.238 226.466 252.253 226.426 252.268 226.385C253.824 221.88 255.636 217.377 257.701 212.877C257.73 212.815 257.755 212.751 257.776 212.686C258.982 208.942 259.863 206.311 260.419 204.794L260.423 204.793ZM259.816 200.128C259.333 200.253 258.862 200.58 258.403 201.109L258.402 201.111L258.397 201.116C258.145 201.408 257.914 201.777 257.704 202.223L257.683 202.269C257.184 203.412 256.122 206.504 254.497 211.546L254.494 211.547C252.408 216.101 250.576 220.66 248.998 225.223L248.994 225.224C248.457 226.46 248.052 227.226 247.777 227.521L247.774 227.522C247.708 227.56 247.645 227.602 247.585 227.648L247.582 227.649C247.572 227.652 247.562 227.655 247.551 227.658C247.326 227.716 246.922 227.701 246.34 227.612L246.336 227.613C240.481 225.801 234.468 224.473 228.296 223.629L228.252 223.623C227.39 223.528 226.633 223.565 225.982 223.733C224.716 224.06 223.848 224.885 223.378 226.207C223.351 226.284 223.329 226.362 223.313 226.442C223.285 226.578 223.266 226.717 223.255 226.858C223.176 227.895 223.57 229.076 224.435 230.402C224.458 230.438 224.482 230.472 224.508 230.506C230.575 238.467 234.536 244.111 236.388 247.438C236.446 247.541 236.514 247.639 236.596 247.733C237.201 248.432 237.857 249.024 238.564 249.511L238.665 249.575C240.637 250.741 242.96 252.282 245.636 254.198C246.07 254.51 246.6 254.592 247.081 254.468C247.461 254.37 247.81 254.143 248.056 253.799C248.082 253.762 248.107 253.725 248.13 253.687L248.133 253.686C251.14 253.452 253.894 253.012 256.396 252.366C264.649 250.234 270.16 245.861 272.928 239.246C272.971 239.144 273.004 239.038 273.026 238.929C275.176 228.573 271.596 215.999 262.287 201.208C262.196 201.064 262.084 200.933 261.955 200.822C261.217 200.182 260.504 199.95 259.816 200.128Z" fill="black"/>
<path d="M358.576 436.911C357.831 437.104 357.387 437.693 357.244 438.679C357.211 438.907 357.197 439.176 357.2 439.488C357.21 440.333 357.822 441.03 358.624 441.175L358.621 441.176L361.176 447.999L361.193 448.043C361.725 449.355 362.286 450.589 362.875 451.746L362.871 451.747C363.594 453.41 365.813 457.048 369.529 462.662C369.948 463.296 370.712 463.565 371.409 463.385C371.591 463.338 371.768 463.261 371.933 463.152C372.732 462.623 372.951 461.546 372.422 460.747C368.735 455.176 366.603 451.693 366.025 450.297C366.008 450.255 365.989 450.213 365.968 450.172C365.43 449.116 364.916 447.986 364.426 446.782L361.832 439.858L361.828 439.846C361.529 439.066 361.325 438.564 361.217 438.342C361.171 438.246 361.12 438.156 361.064 438.073C360.976 437.937 360.888 437.815 360.802 437.707C360.332 437.123 359.778 436.834 359.139 436.841C358.935 436.843 358.747 436.867 358.576 436.911Z" fill="black"/>
<path d="M370.017 435.386C369.547 435.508 369.149 435.769 368.825 436.17C368.479 436.597 368.295 437.123 368.273 437.747L368.273 437.748C368.273 437.765 368.272 437.781 368.272 437.797C368.271 437.85 368.272 437.903 368.276 437.956L368.306 438.376C368.309 438.418 368.313 438.46 368.319 438.503C368.38 438.917 368.5 439.389 368.68 439.919C369.127 441.235 369.602 442.52 370.105 443.775L370.119 443.807L373.259 451.198L373.266 451.214C373.844 452.538 374.816 454.426 376.183 456.877C376.576 457.581 377.386 457.906 378.131 457.713C378.272 457.677 378.41 457.622 378.543 457.548C379.38 457.081 379.68 456.024 379.214 455.188C377.907 452.844 376.987 451.062 376.453 449.841L373.312 442.451C372.841 441.273 372.395 440.067 371.975 438.832L371.971 438.833C372.46 438.667 372.87 438.285 373.053 437.76C373.368 436.855 372.89 435.866 371.985 435.551C371.68 435.445 371.392 435.374 371.121 435.338C370.717 435.284 370.349 435.3 370.017 435.386Z" fill="black"/>
<path d="M378.779 457.836C379.179 457.733 379.578 457.648 379.977 457.582C380.027 457.574 380.077 457.563 380.126 457.55C380.138 457.547 380.15 457.544 380.162 457.541C380.255 457.515 380.348 457.49 380.442 457.465C383.795 456.599 387.15 457.094 390.509 458.949L390.505 458.95C392.824 460.489 394.283 462.876 394.883 466.11C395.036 466.938 395.754 467.519 396.565 467.529L396.561 467.53C396.862 469.664 397.125 472.153 397.349 474.999L397.348 475C397.457 477.5 397.36 480.81 397.059 484.931L397.054 484.932C396.969 485.502 396.854 485.858 396.71 485.998C396.245 486.114 395.585 485.877 394.728 485.288C394.501 485.12 394.045 484.609 393.363 483.754L393.359 483.755C390.877 480.146 389.166 477.844 388.226 476.846L388.222 476.847C386.444 474.71 384.887 473.521 383.552 473.279C383.447 473.26 383.342 473.246 383.238 473.238C383.13 473.228 383.021 473.229 382.913 473.241C382.77 473.255 382.633 473.28 382.501 473.314C381.76 473.505 381.202 474 380.827 474.8C380.709 475.052 380.614 475.335 380.542 475.648L380.52 475.758C379.825 480.047 378.532 485.282 376.643 491.462L376.639 491.463C376.454 491.763 376.303 491.935 376.184 491.979C376.114 491.98 375.997 491.932 375.832 491.836C375.808 491.823 375.784 491.809 375.76 491.797L375.756 491.798C375.665 491.721 375.526 491.589 375.34 491.402L375.336 491.403C373.823 489.099 372.469 487.287 371.275 485.966L371.274 485.967C371.065 485.72 370.698 485.041 370.174 483.93L370.17 483.931C368.143 478.686 367.094 474.497 367.022 471.364C367.021 471.319 367.018 471.275 367.013 471.23C366.694 468.061 367.603 465.402 369.739 463.253L369.737 463.254C372.776 460.414 375.79 458.609 378.779 457.836ZM377.909 454.477C374.351 455.396 370.837 457.477 367.368 460.719L367.328 460.757C364.388 463.686 363.132 467.289 363.56 471.566L363.556 471.567C363.66 475.088 364.787 479.628 366.936 485.188L366.983 485.299C367.664 486.75 368.212 487.72 368.626 488.209L368.666 488.255C369.77 489.468 371.054 491.194 372.518 493.433C372.58 493.528 372.651 493.617 372.731 493.698C373.158 494.134 373.495 494.443 373.741 494.626C373.906 494.749 374.073 494.847 374.241 494.919L374.237 494.92C374.939 495.299 375.638 495.475 376.332 495.446C376.576 495.436 376.814 495.401 377.048 495.341C377.136 495.318 377.224 495.291 377.311 495.261C378.257 494.935 379.055 494.213 379.705 493.095L379.705 493.094C379.723 493.064 379.74 493.034 379.757 493.005C379.818 492.896 379.867 492.781 379.904 492.662C381.742 486.67 383.039 481.519 383.795 477.207L383.799 477.206C384.267 477.602 384.854 478.224 385.56 479.072C385.589 479.108 385.62 479.142 385.652 479.175C386.432 479.974 388.049 482.158 390.504 485.726L390.625 485.882L390.623 485.883C391.513 486.999 392.196 487.732 392.671 488.082C392.679 488.088 392.686 488.094 392.694 488.099L392.718 488.116C394.466 489.33 396.084 489.745 397.57 489.361C397.723 489.321 397.875 489.273 398.025 489.217L398.134 489.172C398.377 489.061 398.606 488.923 398.818 488.757C399.726 488.049 400.289 486.894 400.508 485.292L400.519 485.184C400.833 480.895 400.931 477.429 400.812 474.785L400.808 474.727C400.166 466.576 399.165 461.072 397.806 458.212C397.443 457.449 396.596 457.073 395.807 457.277C395.701 457.304 395.597 457.342 395.494 457.39C395.183 457.538 394.936 457.767 394.766 458.04C394.048 457.267 393.231 456.583 392.316 455.988L392.211 455.925C388.038 453.614 383.83 453.006 379.584 454.103C379.494 454.126 379.404 454.15 379.315 454.175C378.845 454.256 378.377 454.356 377.909 454.477Z" fill="black"/>
<path d="M262.031 321.488C261.814 321.544 261.605 321.643 261.415 321.787C260.567 322.432 259.555 323.457 258.379 324.861C258.348 324.897 258.32 324.934 258.292 324.973L254.491 330.343C254.128 330.839 253.737 331.314 253.318 331.769C252.117 333.045 250.398 334.471 248.159 336.05C247.376 336.602 247.189 337.684 247.741 338.468C248.169 339.074 248.915 339.323 249.593 339.148C249.79 339.097 249.982 339.01 250.158 338.886C252.597 337.167 254.497 335.582 255.859 334.132L255.87 334.119C256.384 333.561 256.864 332.978 257.308 332.369L257.323 332.348L261.07 327.055L261.067 327.056C262.064 325.868 262.881 325.032 263.517 324.548C264.279 323.968 264.427 322.88 263.847 322.117C263.41 321.544 262.687 321.318 262.031 321.488Z" fill="black"/>
<path d="M308.614 415.566C307.671 415.81 306.883 416.047 306.25 416.278L306.248 416.278C303.246 417.319 301.35 418.344 300.559 419.352C299.949 420.128 299.788 420.941 300.074 421.79C300.093 421.847 300.116 421.904 300.141 421.959C300.395 422.514 300.844 422.929 301.486 423.204C302.013 423.43 302.725 423.568 303.62 423.618C303.67 423.621 303.72 423.621 303.77 423.62C307.335 423.51 311.882 423.609 317.413 423.917L317.47 423.92C319.403 423.963 321.234 423.761 322.963 423.315C323.89 423.075 324.448 422.129 324.209 421.201C323.969 420.273 323.023 419.715 322.095 419.955C320.693 420.317 319.197 420.483 317.606 420.452L317.603 420.453C313.05 420.199 309.14 420.085 305.873 420.11L305.87 420.111C306.326 419.933 306.84 419.745 307.412 419.547L307.439 419.538C307.969 419.345 308.645 419.142 309.47 418.929C309.918 418.813 310.41 418.694 310.946 418.572C310.962 418.569 310.979 418.565 310.995 418.56C311.021 418.554 311.047 418.547 311.072 418.539L311.069 418.54C311.08 418.536 311.092 418.533 311.106 418.53C311.541 418.417 313.328 418.079 316.468 417.515L316.525 417.504C317.689 417.254 318.568 417.052 319.164 416.898C319.258 416.874 319.345 416.851 319.425 416.829C320.349 416.576 320.893 415.621 320.64 414.697C320.389 413.781 319.449 413.239 318.533 413.476C318.525 413.478 318.516 413.48 318.508 413.483C318.44 413.501 318.367 413.52 318.287 413.541C317.751 413.679 316.933 413.867 315.833 414.103L315.83 414.104C312.624 414.68 310.745 415.04 310.191 415.183C310.169 415.188 310.149 415.194 310.132 415.199L310.131 415.199C310.128 415.2 310.125 415.2 310.122 415.201C309.582 415.324 309.079 415.446 308.614 415.566Z" fill="black"/>
<path d="M330.161 425.587C329.304 425.808 328.74 426.65 328.883 427.541C329.079 428.757 329.825 430.148 331.124 431.715C331.194 431.799 331.271 431.877 331.365 431.954C335.019 434.968 337.523 437.068 338.874 438.256C337.986 438.313 336.96 438.305 335.796 438.232L335.783 438.231C331.176 437.975 326.178 437.386 320.79 436.465C320.723 436.453 320.655 436.446 320.586 436.442C316.687 436.242 310.604 435.738 302.337 434.929C302.129 434.909 301.926 434.926 301.734 434.975C301.049 435.152 300.515 435.741 300.442 436.487C300.348 437.44 301.046 438.289 301.999 438.382C310.256 439.19 316.363 439.697 320.319 439.903L320.315 439.904C325.791 440.837 330.883 441.434 335.59 441.695C338.08 441.852 340.103 441.733 341.659 441.338C341.661 441.337 341.663 441.336 341.665 441.336C341.737 441.317 341.807 441.294 341.875 441.267C341.892 441.261 341.908 441.254 341.926 441.247L341.927 441.246C342.209 441.128 342.456 440.98 342.668 440.803C343.689 439.949 343.829 438.909 343.089 437.683C343.017 437.564 342.935 437.445 342.844 437.325L342.84 437.326C342.775 437.222 342.699 437.12 342.611 437.02C342.02 436.342 339.052 433.798 333.707 429.388L333.703 429.389C332.866 428.362 332.401 427.563 332.309 426.991C332.158 426.045 331.268 425.401 330.321 425.553C330.267 425.562 330.213 425.573 330.161 425.587Z" fill="black"/>
<path d="M304.594 441.165C304.138 441.283 303.731 441.585 303.493 442.035C303.046 442.882 303.371 443.932 304.218 444.379C307.201 445.953 309.531 446.984 311.208 447.474L311.206 447.475C318.026 449.75 323.026 451.209 326.207 451.851C327.288 452.069 328.385 452.245 329.497 452.379L329.594 452.388C333.266 452.624 336.876 453.022 340.425 453.581C340.473 453.589 340.521 453.594 340.569 453.598C342.595 453.746 344.692 453.635 346.861 453.266C347.184 453.211 347.493 453.145 347.788 453.069C350.812 452.288 352.322 450.391 352.317 447.378L352.316 447.313C352.256 445.784 350.834 442.72 348.051 438.122L348.047 438.123C347.492 436.763 347.142 435.745 346.997 435.07C346.797 434.133 345.874 433.536 344.937 433.737C344.913 433.742 344.889 433.748 344.866 433.754C343.97 433.985 343.409 434.884 343.604 435.797C343.796 436.691 344.221 437.939 344.879 439.542C344.913 439.626 344.954 439.707 345.001 439.784C347.529 443.948 348.812 446.503 348.848 447.449L348.847 447.449C348.824 448.625 348.133 449.389 346.773 449.741C346.617 449.781 346.452 449.816 346.279 449.845C344.419 450.162 342.629 450.261 340.91 450.143L340.906 450.144C337.294 449.577 333.622 449.172 329.889 448.93L329.885 448.931C328.873 448.809 327.876 448.648 326.893 448.45C323.843 447.834 318.96 446.405 312.244 444.163L312.181 444.143C310.728 443.719 308.614 442.775 305.837 441.31C305.44 441.1 304.998 441.06 304.594 441.165Z" fill="black"/>
<path d="M253.492 275.553C253.168 275.636 252.848 275.787 252.531 276.004C252.444 276.063 252.36 276.127 252.277 276.196C252.194 276.266 252.112 276.341 252.033 276.421L252.029 276.422C250.466 277.856 248.655 280.63 246.597 284.744L246.559 284.825C241.637 295.895 238.763 302.102 237.937 303.445C237.899 303.507 237.864 303.572 237.834 303.639C237.195 305.054 236.657 306.48 236.218 307.918C235.939 308.835 236.456 309.804 237.372 310.084C237.689 310.18 238.012 310.182 238.31 310.104C238.876 309.958 239.355 309.53 239.538 308.93C239.921 307.671 240.391 306.42 240.947 305.177L240.944 305.178C241.906 303.558 244.835 297.243 249.731 286.232L249.735 286.222L249.738 286.215L249.741 286.215C251.473 282.763 252.935 280.431 254.127 279.218L254.13 279.218C254.191 279.295 254.258 279.387 254.329 279.491L254.332 279.491L254.431 279.625C254.793 280.058 255.728 281.819 257.235 284.909C257.265 284.97 257.298 285.028 257.334 285.085L260.066 289.345L260.063 289.345C260.434 290.123 260.612 290.847 260.595 291.516C260.57 292.474 261.327 293.27 262.285 293.295C262.45 293.299 262.611 293.28 262.764 293.24C263.495 293.051 264.043 292.397 264.063 291.604C264.096 290.331 263.781 289.029 263.119 287.697C263.091 287.64 263.06 287.585 263.026 287.532L260.325 283.321L260.322 283.322C258.806 280.218 257.764 278.286 257.195 277.529L257.191 277.53C256.691 276.8 256.167 276.27 255.619 275.939C254.895 275.502 254.186 275.373 253.492 275.553Z" fill="black"/>
<path d="M253.72 296.683C253.72 296.683 253.72 296.683 253.72 296.683ZM253.047 293.308C252.824 293.366 252.604 293.451 252.387 293.563C252.243 293.638 252.102 293.724 251.967 293.823C251.812 293.934 251.665 294.061 251.523 294.202L251.52 294.203C251.398 294.299 251.28 294.411 251.166 294.54C250.696 295.072 249.942 296.365 248.903 298.421C248.879 298.466 248.858 298.513 248.839 298.561C245.744 306.32 242.391 313.475 238.782 320.027C238.319 320.866 238.625 321.921 239.464 322.383C239.868 322.606 240.321 322.651 240.735 322.544C241.181 322.429 241.581 322.137 241.821 321.701C245.484 315.051 248.885 307.799 252.023 299.944L252.02 299.945C252.856 298.294 253.419 297.281 253.71 296.906L253.707 296.907C253.77 296.859 253.829 296.807 253.885 296.751L253.889 296.751C254.635 297.133 255.726 298.71 257.16 301.48C257.539 302.213 258.367 302.561 259.133 302.363C259.257 302.331 259.38 302.285 259.498 302.223C260.349 301.783 260.682 300.736 260.241 299.885C258.234 296.007 256.374 293.827 254.662 293.343C254.104 293.186 253.566 293.174 253.047 293.308Z" fill="black"/>
<path d="M303.767 346.724C304.206 346.611 304.695 346.592 305.233 346.667L305.229 346.668L305.501 346.826L305.497 346.827C304.98 347.09 304.607 347.607 304.554 348.228C304.473 349.182 305.182 350.022 306.137 350.103C308.517 350.304 310.978 351.77 313.52 354.501L313.517 354.502C314.539 355.816 315.304 358.17 315.814 361.566C316.141 364.398 315.685 366.851 314.448 368.923L314.444 368.924C312.963 371.019 311.508 372.251 310.081 372.619C309.774 372.699 309.468 372.738 309.164 372.738L309.161 372.738C306.057 372.593 303.499 371.092 301.486 368.235C299.368 365.156 298.524 361.196 298.953 356.355L298.958 356.279C299.18 351.321 300.381 348.335 302.559 347.319C302.657 347.274 302.749 347.22 302.837 347.157C303.117 346.956 303.427 346.812 303.767 346.724ZM302.905 343.353C302.208 343.533 301.555 343.831 300.945 344.246L300.941 344.247C297.589 345.9 295.773 349.859 295.491 356.124L295.49 356.124C295.003 361.761 296.049 366.453 298.627 370.202L298.637 370.216C301.307 374.014 304.766 376.011 309.014 376.205L309.069 376.207C309.708 376.216 310.338 376.141 310.957 375.981C313.221 375.396 315.349 373.681 317.342 370.836L317.408 370.734C319.071 367.966 319.686 364.756 319.253 361.104L319.246 361.051C318.633 356.967 317.602 354.032 316.154 352.244L316.077 352.155C314.849 350.834 313.613 349.749 312.367 348.9L312.364 348.901C312.376 348.882 312.388 348.863 312.399 348.843C312.882 348.015 312.603 346.953 311.775 346.47L306.7 343.508C306.529 343.409 306.343 343.339 306.15 343.302C304.98 343.079 303.898 343.096 302.905 343.353Z" fill="black"/>
<path d="M317.471 304.465C322.734 303.647 326.542 304.9 328.895 308.221L328.892 308.222C332.235 313.663 332.935 318.837 330.99 323.745L330.986 323.746C329.492 326.361 327.484 327.994 324.962 328.645C324.338 328.806 323.683 328.907 322.996 328.948L322.992 328.949C317.305 328.768 312.677 326.928 309.108 323.429L309.104 323.43C307.024 320.322 306.898 316.33 308.726 311.455L308.742 311.409C309.049 310.514 310.247 309.367 312.336 307.969L312.332 307.97C313.087 307.513 313.763 307.208 314.358 307.054C314.828 306.933 315.248 306.906 315.618 306.973C315.873 307.019 316.125 307.007 316.361 306.946C316.996 306.782 317.51 306.264 317.635 305.576C317.706 305.182 317.639 304.795 317.467 304.466L317.471 304.465ZM316.582 301.101C315.723 301.323 315.16 302.167 315.305 303.06C315.329 303.205 315.37 303.343 315.426 303.472C314.808 303.45 314.165 303.526 313.497 303.698C312.556 303.941 311.565 304.378 310.526 305.007L310.462 305.048C307.69 306.896 306.023 308.641 305.46 310.284C303.204 316.33 303.493 321.407 306.327 325.516C306.387 325.602 306.454 325.684 306.529 325.758C310.777 330.001 316.252 332.221 322.954 332.42C323.002 332.421 323.049 332.42 323.097 332.418C324.088 332.366 325.029 332.225 325.922 331.994C329.372 331.103 332.091 328.879 334.08 325.323C334.116 325.259 334.148 325.193 334.175 325.124C336.61 319.078 335.813 312.805 331.786 306.305L331.727 306.215C328.512 301.679 323.516 299.963 316.738 301.068C316.685 301.077 316.633 301.088 316.582 301.101Z" fill="black"/>
<path d="M321.199 320.456L321.179 320.461C320.772 320.591 320.406 320.725 320.079 320.865C319.513 320.952 319.015 321.078 318.583 321.244C318.127 321.413 317.69 321.629 317.272 321.891C316.762 322.068 316.317 322.243 315.939 322.415C315.201 322.85 314.673 323.252 314.356 323.619C313.598 324.42 313.189 325.346 313.129 326.399C313.099 326.926 313.156 327.484 313.3 328.073L313.623 329.082L314.249 330.362C314.434 330.673 314.662 330.968 314.932 331.245C315.604 331.885 316.426 332.407 317.399 332.811C318.851 333.438 320.618 333.863 322.702 334.087C323.336 334.615 324.109 334.98 325.02 335.182C326.2 335.411 327.068 335.427 327.624 335.228C328.465 335.001 329.243 334.622 329.96 334.092C330.524 333.711 331.077 332.936 331.62 331.764C332.408 329.499 332.392 327.25 331.57 325.018L331.208 324.257C330.89 323.683 330.615 323.283 330.381 323.057C329.584 322.205 328.939 321.699 328.445 321.539C327.246 321.092 326.292 320.881 325.584 320.905C325.112 320.669 324.563 320.499 323.937 320.394C322.849 320.247 321.936 320.267 321.199 320.456Z" fill="black"/>
<path d="M313.515 309.331C313.573 309.316 313.632 309.302 313.693 309.288L313.699 309.287C318.247 308.224 321.269 307.886 322.765 308.272C322.862 308.297 322.962 308.313 323.062 308.321C325.259 308.494 327.579 309.563 330.023 311.53L330.102 311.59C331.367 312.494 333.044 314.86 335.132 318.69C335.192 318.799 335.262 318.902 335.344 318.996C335.939 319.682 336.234 320.835 336.229 322.453C335.961 322.256 335.643 322.11 335.275 322.014C335.042 321.953 334.797 321.921 334.539 321.917C334.376 321.915 334.207 321.924 334.033 321.945C333.951 321.955 333.869 321.971 333.791 321.991C333.548 322.054 333.334 322.16 333.212 322.269L333.113 322.348C332.754 322.653 332.475 322.937 332.275 323.2C332.131 323.388 332.017 323.579 331.934 323.77L331.931 323.771C330.981 325.678 330.216 326.995 329.635 327.721L329.58 327.794C328.771 328.924 327.895 329.929 326.952 330.81L326.95 330.811C326.359 331.323 325.751 331.73 325.124 332.03C323.853 331.872 322.564 331.432 321.256 330.709L321.254 330.71C319.172 329.438 318.038 328.243 317.851 327.124C317.693 326.179 316.799 325.541 315.854 325.699C315.803 325.707 315.753 325.718 315.704 325.73C314.842 325.953 314.279 326.802 314.428 327.696C314.482 328.018 314.565 328.337 314.677 328.652C313.95 327.766 313.241 326.794 312.55 325.736L312.549 325.733C309.007 320.327 308.569 315.349 311.232 310.798L311.231 310.798C311.679 310.098 312.44 309.609 313.515 309.331ZM312.639 305.974C310.69 306.477 309.247 307.462 308.308 308.928L308.276 308.98C304.845 314.785 305.302 321.003 309.646 327.635C311.395 330.316 313.277 332.521 315.29 334.25C315.338 334.291 315.388 334.329 315.44 334.365C317.314 335.65 319.514 336.237 322.039 336.129L322.035 336.13C322.994 336.161 323.923 336.061 324.821 335.829C325.116 335.753 325.407 335.663 325.695 335.558L325.699 335.557C326.178 335.577 326.658 335.567 327.137 335.528L327.133 335.529C327.932 335.529 328.694 335.435 329.418 335.248C331.659 334.669 333.541 333.195 335.063 330.825L335.067 330.824C335.246 331.366 335.689 331.809 336.283 331.962C336.578 332.037 336.873 332.033 337.148 331.962C337.74 331.809 338.233 331.348 338.396 330.714C340.137 323.944 340.042 319.339 338.112 316.9L338.108 316.901C335.833 312.746 333.864 310.055 332.201 308.826L332.199 308.827C329.252 306.455 326.349 305.138 323.49 304.875L323.487 304.876C321.42 304.4 317.896 304.744 312.915 305.906L312.916 305.906C312.823 305.928 312.73 305.95 312.639 305.974Z" fill="black"/>
<path d="M342.285 355.954L342.603 355.936C343.019 355.835 343.417 355.892 343.797 356.109C345.291 356.802 346.6 357.464 347.725 358.096C348.872 358.737 349.88 359.368 350.749 359.988L351.949 360.91C352.679 361.52 353.271 362.118 353.723 362.706L354.297 363.58L354.663 364.437C354.874 365.247 355.008 365.903 355.065 366.404C354.934 368.268 354.549 369.944 353.91 371.431L353.383 372.511C352.999 373.208 352.551 373.857 352.039 374.46C351.527 375.063 350.951 375.619 350.311 376.128L349.063 376.804C347.326 377.611 345.772 378.031 344.401 378.063C342.707 378.053 341.503 377.899 340.79 377.602L340.072 377.357C339.639 377.12 339.215 376.855 338.798 376.561L338.179 376.099C336.953 375.13 335.796 373.903 334.706 372.417L334.129 370.698C334.039 370.382 333.979 370 333.949 369.551C333.799 368.573 334.029 366.263 334.638 362.623C334.762 361.776 335.139 360.748 335.769 359.54C336.61 359.147 337.466 358.924 338.338 358.872C339.088 358.794 340.127 358.924 341.453 359.26C341.745 359.286 342.058 359.213 342.39 359.044C343.043 358.603 343.339 358.051 343.277 357.386C343.125 356.629 342.794 356.152 342.285 355.954ZM336.21 352.862L335.886 352.948C335.019 353.183 334.115 353.471 333.175 353.813C332.916 353.867 332.625 354.101 332.302 354.515C331.791 355.69 332.082 356.543 333.177 357.075L332.381 357.698C331.882 358.123 331.439 358.568 331.054 359.033C330.284 359.964 329.742 360.975 329.429 362.067C329.059 362.811 329.024 364.466 329.325 367.033C329.392 368.089 329.867 369.856 330.749 372.335L331.219 373.446C331.432 373.655 331.771 374.292 332.236 375.356C332.687 376.188 333.231 376.981 333.868 377.736L334.893 378.84C335.622 379.557 336.445 380.236 337.361 380.877C339.731 382.384 341.396 383.29 342.356 383.593C343.062 383.784 343.789 383.887 344.537 383.902C345.859 383.867 346.826 383.746 347.438 383.542C349.551 383.01 351.342 382.055 352.81 380.677C354.422 379.305 355.945 377.188 357.379 374.326C358.123 372.622 358.545 370.859 358.643 369.036L358.559 365.326C358.408 364.088 358.162 362.93 357.822 361.851C357.142 359.694 356.083 357.854 354.647 356.333C352.992 354.742 351.396 353.61 349.86 352.935C349.274 352.72 348.46 352.57 347.419 352.485C346.38 352.401 345.11 352.383 343.611 352.431C343.407 352.343 342.676 352.258 341.416 352.175C339.863 352.138 338.127 352.367 336.21 352.862Z" fill="black"/>
<path d="M342.689 366.894L342.42 366.971C341.726 367.177 340.838 367.641 339.756 368.365L339.081 369.017C338.716 369.418 338.42 369.836 338.194 370.273C337.501 371.547 337.459 373.05 338.065 374.782C338.25 375.266 338.635 375.819 339.22 376.442C339.579 376.788 339.986 377.071 340.442 377.291C340.505 377.427 340.831 377.742 341.42 378.235C341.669 378.422 341.94 378.593 342.233 378.749C344 379.666 345.794 379.941 347.614 379.573C347.824 379.507 348.02 379.431 348.203 379.346C348.526 379.199 348.854 379.026 349.189 378.824C349.695 378.637 349.994 378.514 350.086 378.455C350.563 378.202 350.844 378.04 350.93 377.969C351.79 377.391 352.364 376.802 352.651 376.2C352.973 375.479 353.1 374.837 353.03 374.274C352.985 373.918 352.905 373.515 352.791 373.063C352.639 372.533 352.485 372.168 352.33 371.969C352.304 371.385 352.195 370.878 352.002 370.446C351.841 370.054 351.629 369.69 351.368 369.354L350.938 368.872C350.314 368.258 349.49 367.757 348.466 367.37C347.823 367.142 347.391 367.011 347.171 366.976L346.007 366.729L345.34 366.657C344.554 366.59 343.67 366.669 342.689 366.894Z" fill="black"/>
<path d="M301.902 370.224L301.905 370.233L301.914 370.266C301.896 370.278 301.854 370.314 301.789 370.375L301.751 370.413C301.725 370.439 301.701 370.466 301.677 370.494C301.607 370.576 301.544 370.666 301.489 370.761L301.516 370.69L301.548 370.623L301.584 370.557L301.625 370.495L301.67 370.435L301.72 370.379L301.775 370.325L301.835 370.273L301.899 370.225L301.902 370.224ZM301.399 370.948L301.399 370.95C301.398 370.951 301.396 370.951 301.395 370.951C301.395 370.95 301.395 370.949 301.396 370.949L301.399 370.948ZM299.42 351.662L299.258 351.712C298.571 352.04 298.197 352.502 298.136 353.097C297.91 354.676 297.773 356.075 297.725 357.293L297.706 358.173C297.704 358.737 297.725 359.256 297.768 359.73C297.971 361.317 298.249 362.726 298.6 363.956C299.32 366.646 299.985 368.814 300.595 370.462C300.986 371.571 301.258 372.236 301.411 372.458C301.657 372.857 301.977 373.129 302.373 373.272C302.63 373.383 302.942 373.434 303.31 373.426C303.618 373.427 303.945 373.253 304.289 372.903L304.774 372.874C304.332 372.934 304.295 372.944 304.662 372.903C304.844 372.873 305.01 372.824 305.16 372.757C305.625 372.922 306.109 372.92 306.61 372.751C307.244 372.496 307.728 372.019 308.061 371.318C308.944 371.214 309.685 370.942 310.285 370.502C310.857 369.98 311.278 369.295 311.547 368.448C311.955 367.159 312.084 365.478 311.936 363.404C311.831 361.436 311.497 359.599 310.937 357.893C310.761 357.35 310.537 356.771 310.264 356.157C310.152 355.916 309.908 355.571 309.534 355.12C308.859 354.375 308.084 353.944 307.207 353.827C306.988 353.289 306.716 352.858 306.391 352.535C306.149 352.316 305.885 352.163 305.599 352.077C305.373 351.853 305.127 351.667 304.862 351.52C304.486 351.281 303.955 351.152 303.269 351.132C302.942 351.152 302.702 351.194 302.548 351.257L301.319 351.7C301.19 351.749 301.046 351.832 300.887 351.949C300.423 351.629 299.934 351.533 299.42 351.662Z" fill="black"/>
<path d="M304.893 353.844L305.063 353.869C305.593 353.942 306.14 354.186 306.705 354.602C307.287 355.134 307.626 355.5 307.722 355.7C308.148 356.304 308.54 357.063 308.897 357.977L309.158 358.692C309.592 360.11 309.847 360.956 309.923 361.23C310.414 362.904 310.865 364.543 311.276 366.145L311.986 373.266C311.614 373.356 311.189 373.367 310.711 373.3C309.566 373.095 308.591 372.712 307.788 372.151C307.221 371.777 306.696 371.357 306.214 370.889L305.523 370.152L304.896 369.344L304.333 368.465L303.834 367.515L303.399 366.495C303.133 365.732 302.904 365.04 302.709 364.417C302.456 363.64 302.211 362.627 301.974 361.378C302.1 360.428 302.336 359.06 302.682 357.274C303.575 357.784 304.379 357.619 305.093 356.779C305.156 356.725 305.239 356.521 305.344 356.166C305.374 356.02 305.384 355.871 305.375 355.721C305.366 355.57 305.337 355.421 305.288 355.273C305.026 354.722 304.845 354.276 304.746 353.935L304.893 353.844ZM301.683 348.238L301.636 348.25C300.929 348.462 300.489 348.859 300.315 349.441C300.061 350.146 300.24 350.801 300.854 351.407C299.731 352.198 298.958 353.684 298.534 355.864C298.207 357.544 298.186 359.389 298.473 361.4C298.325 362.418 298.213 363.585 298.137 364.902C298.125 365.225 298.19 365.52 298.331 365.788C298.627 366.347 299.119 366.658 299.807 366.721C300.098 367.644 300.445 368.511 300.849 369.32C301.251 370.13 301.708 370.884 302.219 371.581L303.027 372.585L303.916 373.504C304.536 374.089 305.21 374.617 305.939 375.089C308.901 376.774 311.356 377.279 313.301 376.604C314.008 377.795 314.95 378.258 316.129 377.992C317.029 377.74 317.774 377.108 318.364 376.095C318.522 375.945 318.873 374.942 319.415 373.083L319.857 370.973L320.068 368.898L320.049 366.861L319.799 364.859L319.32 362.894L318.61 360.966L317.671 359.074C316.725 357.522 316.111 356.6 315.828 356.306L312.93 352.958C312.378 352.374 311.711 351.784 310.93 351.189C309.182 349.917 307.365 348.998 305.48 348.431C304.905 348.267 304.357 348.158 303.837 348.104C302.585 348.067 301.867 348.112 301.683 348.238Z" fill="black"/>
<path d="M205.971 177.591C205.873 177.616 205.776 177.65 205.681 177.694C204.81 178.093 204.427 179.123 204.826 179.994C206.136 182.855 208.958 188.357 213.294 196.5L213.299 196.51C214.645 198.998 215.882 200.822 217.01 201.98C217.46 202.443 218.105 202.601 218.688 202.45C218.971 202.377 219.239 202.232 219.463 202.014C220.15 201.345 220.164 200.247 219.496 199.56C218.594 198.633 217.547 197.07 216.356 194.87C212.054 186.788 209.262 181.347 207.981 178.549C207.625 177.773 206.77 177.385 205.971 177.591Z" fill="black"/>
<path d="M223.038 171.135C222.785 171.2 222.543 171.324 222.333 171.507C221.611 172.137 221.536 173.233 222.166 173.955C226.527 178.956 229.513 182.79 231.123 185.457L231.141 185.485C232.881 188.247 233.98 190.135 234.436 191.147C234.482 191.248 234.537 191.344 234.6 191.435L234.597 191.435C234.815 191.852 235.355 193.216 236.216 195.528C236.529 196.368 237.424 196.822 238.274 196.603C238.332 196.588 238.39 196.57 238.447 196.548C239.345 196.214 239.802 195.215 239.468 194.317C238.505 191.733 237.879 190.185 237.587 189.672C237.578 189.655 237.568 189.638 237.558 189.622L237.554 189.622C237.013 188.453 235.86 186.466 234.094 183.663C232.38 180.824 229.275 176.828 224.781 171.674C224.335 171.162 223.654 170.976 223.038 171.135Z" fill="black"/>
<path d="M182.74 146.752C182.247 146.879 181.815 147.221 181.59 147.72C181.197 148.594 181.587 149.621 182.46 150.015C183.496 150.481 185.141 152.274 187.394 155.394C189.764 158.77 192.032 162.797 194.199 167.475C194.557 168.247 195.41 168.632 196.206 168.427C196.306 168.401 196.405 168.365 196.503 168.32C197.372 167.918 197.751 166.886 197.348 166.017C195.09 161.142 192.714 156.93 190.221 153.381L190.207 153.362C187.592 149.741 185.484 147.57 183.884 146.85C183.51 146.682 183.108 146.657 182.74 146.752Z" fill="black"/>
<path d="M222.317 135.426C222.136 135.473 221.96 135.55 221.795 135.659C220.995 136.187 220.775 137.263 221.303 138.062L225.555 144.503C226.168 145.463 226.995 146.979 228.036 149.053C228.976 150.957 229.913 153.005 230.847 155.198L230.853 155.211C231.761 157.297 232.992 160.42 234.547 164.58L234.572 164.644C235.235 166.222 235.733 167.352 236.068 168.034C236.437 168.786 237.278 169.152 238.058 168.951C238.171 168.922 238.282 168.881 238.39 168.828C239.251 168.405 239.606 167.366 239.183 166.506C238.883 165.893 238.421 164.846 237.798 163.365L237.797 163.365C236.224 159.157 234.972 155.981 234.039 153.839C233.078 151.581 232.112 149.47 231.142 147.506L231.137 147.496C230.034 145.299 229.143 143.671 228.464 142.612L228.451 142.592L224.199 136.151C223.78 135.516 223.015 135.246 222.317 135.426Z" fill="black"/>
<path d="M268.056 169.898C267.91 169.936 267.766 169.993 267.628 170.072C266.796 170.548 266.507 171.607 266.983 172.439C267.678 173.655 268.241 174.539 268.671 175.091L268.699 175.127C271.042 177.977 272.386 179.693 272.732 180.274C272.76 180.32 272.789 180.365 272.821 180.408C273.244 180.988 273.996 182.15 275.077 183.895C275.129 183.979 275.188 184.059 275.254 184.133L275.25 184.134C275.84 185.004 278.612 190.11 283.567 199.453L283.578 199.475C284.364 200.908 285.396 202.657 286.673 204.724C287.083 205.387 287.866 205.677 288.583 205.492C288.748 205.45 288.909 205.382 289.061 205.288C289.876 204.784 290.129 203.715 289.625 202.9C288.385 200.894 287.387 199.203 286.632 197.828C281.489 188.13 278.62 182.869 278.024 182.046C278.011 182.028 277.998 182.01 277.985 181.993L277.981 181.994C276.934 180.305 276.173 179.129 275.698 178.465L275.694 178.466C275.238 177.717 273.81 175.881 271.409 172.959C271.08 172.537 270.609 171.79 269.995 170.717C269.599 170.023 268.795 169.707 268.056 169.898Z" fill="black"/>
<path d="M631.702 618.469C630.559 618.764 629.4 619.191 628.224 619.75L628.158 619.783C622.953 622.532 620.112 626.313 619.635 631.128C619.631 631.17 619.628 631.212 619.627 631.253C619.419 639.135 620.221 647.083 622.034 655.097L622.032 655.098C622.349 656.826 622.806 658.536 623.402 660.227C623.42 660.28 623.442 660.332 623.466 660.384C625.453 664.64 626.742 667.805 627.331 669.877C627.364 669.993 627.409 670.105 627.465 670.211L627.46 670.213C627.762 671.052 628.79 675.013 630.543 682.097C631.719 687.088 632.519 691.752 632.945 696.09C631.22 692.385 629.43 688.792 627.575 685.311L627.533 685.237C621.487 675.126 617.56 668.713 615.751 665.999C615.33 665.368 614.568 665.101 613.873 665.281C613.69 665.328 613.511 665.406 613.345 665.517C612.547 666.049 612.332 667.126 612.863 667.923C614.642 670.591 618.539 676.956 624.555 687.018L624.553 687.018C627.489 692.532 630.26 698.335 632.867 704.426C632.888 704.476 632.912 704.526 632.939 704.575C633.036 704.752 633.132 704.908 633.226 705.041C633.816 705.871 634.489 706.189 635.246 705.993C635.422 705.948 635.603 705.875 635.788 705.774L635.79 705.772C636.153 705.574 636.426 705.278 636.608 704.885C636.71 704.665 636.765 704.425 636.769 704.182C636.875 697.435 635.924 689.801 633.916 681.282L633.912 681.263C632.06 673.786 630.974 669.646 630.651 668.844L630.645 668.845C630.003 666.62 628.678 663.355 626.672 659.049L626.666 659.051C626.127 657.518 625.716 655.97 625.433 654.406L625.418 654.332C623.679 646.642 622.904 639.021 623.093 631.469L623.088 631.47C623.441 627.909 625.653 625.045 629.724 622.88L629.718 622.882C630.653 622.438 631.573 622.099 632.479 621.865C635.756 621.019 638.837 621.548 641.722 623.454C642.149 623.735 642.654 623.804 643.113 623.686C643.514 623.582 643.88 623.335 644.126 622.962C644.425 622.51 644.484 621.969 644.335 621.49L644.341 621.488C644.154 621.362 643.983 621.202 643.828 621.01C643.72 620.865 643.644 620.708 643.6 620.541L643.606 620.539C639.863 618.076 635.894 617.386 631.702 618.469Z" fill="black"/>
<path d="M627.577 600.088C625.412 600.647 623.23 601.394 621.029 602.33L620.999 602.344C613.821 605.56 609.595 608.369 608.32 610.771C606.303 614.457 604.976 618.022 604.341 621.464L604.335 621.465C604.298 621.572 604.267 621.685 604.242 621.805C603.974 623.095 604.064 628.581 604.514 638.262L604.515 638.278C604.519 638.354 604.528 638.429 604.541 638.504C606.32 648.034 608.868 657.694 612.185 667.484C612.479 668.35 613.389 668.832 614.261 668.607C614.302 668.596 614.344 668.584 614.385 668.57C615.293 668.263 615.779 667.278 615.472 666.37C612.226 656.79 609.729 647.342 607.982 638.026L607.976 638.028C607.557 628.984 607.439 623.849 607.62 622.62L607.615 622.622C607.665 622.503 607.702 622.378 607.725 622.25C608.281 619.12 609.498 615.842 611.374 612.417L611.385 612.397C612.286 610.699 615.954 608.408 622.389 605.523L622.387 605.523C624.428 604.655 626.447 603.964 628.444 603.448C629.983 603.05 631.509 602.757 633.022 602.569L633.016 602.57C639.701 602.729 646.58 604.568 653.653 608.087C653.694 608.107 653.735 608.126 653.776 608.143C653.916 608.033 654.083 607.944 654.276 607.877L654.455 607.824C654.488 607.813 654.521 607.804 654.554 607.795C654.893 607.708 655.238 607.717 655.589 607.823C655.746 607.681 655.88 607.508 655.979 607.307C656.406 606.449 656.057 605.408 655.199 604.981C647.616 601.207 640.202 599.246 632.958 599.098C632.877 599.097 632.795 599.101 632.714 599.11C631.013 599.317 629.301 599.643 627.577 600.088Z" fill="black"/>
<path d="M695.265 562.869C694.591 563.043 694.06 563.616 693.976 564.35C693.585 567.727 693.258 569.909 692.992 570.896L692.987 570.917L682.86 610.585L682.859 610.585C681.533 615.042 678.87 620.107 674.87 625.781L674.863 625.782C673.06 627.948 670.813 629.378 668.122 630.073C666.67 630.448 665.089 630.609 663.379 630.556L663.378 630.556C661.622 630.472 659.848 630.05 658.058 629.288C657.97 629.25 657.878 629.22 657.785 629.198L657.779 629.199C657.025 628.948 653.893 627.164 648.384 623.847C647.968 623.597 647.49 623.542 647.055 623.654C646.63 623.764 646.247 624.034 646.003 624.439C645.508 625.26 645.773 626.326 646.594 626.82C652.334 630.276 655.701 632.167 656.695 632.495L656.696 632.496C656.753 632.515 656.81 632.532 656.865 632.546L656.859 632.548C658.977 633.43 661.095 633.921 663.213 634.022L663.239 634.023C665.326 634.09 667.262 633.894 669.046 633.433C672.457 632.552 675.316 630.705 677.621 627.892C677.648 627.86 677.673 627.827 677.697 627.792C681.941 621.776 684.777 616.347 686.205 611.505L686.222 611.443L696.349 571.775C696.657 570.615 697.015 568.273 697.423 564.748C697.533 563.796 696.85 562.936 695.898 562.826C695.68 562.8 695.466 562.817 695.265 562.869Z" fill="black"/>
<path d="M698.851 546.928C696.359 547.571 693.861 548.546 691.358 549.851L691.289 549.889C684.87 553.612 680.169 560.448 677.188 570.396L677.165 570.482C676.298 574.02 675.934 577.487 676.075 580.882C676.079 580.983 676.092 581.082 676.113 581.18C678.076 590.185 678.911 595.456 678.617 596.994C678.603 597.066 678.594 597.139 678.59 597.212C678.275 602.304 677.477 606.067 676.196 608.5L676.19 608.502C676.001 608.794 675.804 609.057 675.598 609.293C675.002 609.976 674.293 610.424 673.473 610.636C670.723 611.347 666.716 609.405 661.454 604.812C661.006 604.421 660.414 604.302 659.878 604.44C659.551 604.524 659.245 604.705 659.006 604.979C658.376 605.701 658.451 606.797 659.173 607.427C665.4 612.862 670.453 615.079 674.33 614.078C675.791 613.7 677.085 612.866 678.213 611.574C678.561 611.175 678.888 610.731 679.194 610.245C679.217 610.208 679.238 610.171 679.258 610.133C680.761 607.286 681.689 603.102 682.043 597.581L682.037 597.582C682.183 596.733 682.125 595.26 681.862 593.162L681.868 593.161C681.819 593.063 681.774 592.957 681.732 592.844C681.687 592.731 681.649 592.61 681.617 592.481C681.499 592.015 681.443 591.317 681.448 590.388L681.455 590.386C681.027 587.77 680.39 584.517 679.544 580.627L679.537 580.629C679.424 577.623 679.75 574.544 680.514 571.392L680.512 571.392C683.221 562.354 687.373 556.198 692.97 552.925L692.963 552.927C695.216 551.753 697.459 550.877 699.691 550.301C704.162 549.146 708.593 549.189 712.984 550.43C715.091 551.036 717.316 552.226 719.659 553.998L719.656 553.998L733.392 565.609C733.838 565.986 734.421 566.099 734.947 565.963C735.283 565.877 735.596 565.689 735.837 565.404C736.455 564.672 736.363 563.577 735.632 562.959L721.826 551.289L721.752 551.23C719.063 549.197 716.457 547.818 713.934 547.093L713.927 547.091C708.927 545.678 703.901 545.623 698.851 546.928Z" fill="black"/>
<path d="M703.099 562.815C702.137 563.064 701.29 563.48 700.559 564.065L700.552 564.067C696.391 566.727 694.261 569.58 694.162 572.624C694.131 573.582 694.882 574.384 695.84 574.415C696.009 574.42 696.174 574.401 696.331 574.361C697.057 574.173 697.604 573.525 697.63 572.737C697.69 570.89 699.319 568.955 702.516 566.93C702.577 566.892 702.635 566.849 702.691 566.803C703.045 566.511 703.478 566.3 703.989 566.167C705.075 565.887 706.515 565.967 708.309 566.407L708.304 566.408C709.466 566.772 710.554 567.348 711.567 568.136L711.56 568.138C721.924 577.597 727.91 582.689 729.518 583.413C729.603 583.451 729.688 583.485 729.77 583.513L729.763 583.515C730.586 583.982 731.448 584.4 732.35 584.769L732.39 584.784L743.117 588.867C743.178 588.89 743.239 588.909 743.302 588.925C745.383 589.461 747.484 589.661 749.606 589.526L749.599 589.528C751.187 589.555 752.697 589.384 754.129 589.014C756.971 588.28 759.505 586.763 761.73 584.464L761.798 584.39C765.977 579.54 768.103 574.452 768.173 569.124C768.185 568.166 767.419 567.379 766.461 567.366C766.303 567.364 766.149 567.383 766.003 567.421C765.264 567.612 764.714 568.278 764.703 569.078C764.644 573.564 762.799 577.913 759.169 582.124L759.163 582.126C757.418 583.905 755.438 585.081 753.222 585.654C752.072 585.951 750.858 586.085 749.581 586.057C749.53 586.056 749.479 586.057 749.428 586.061C747.702 586.175 745.99 586.02 744.293 585.597L744.286 585.599L733.624 581.541C732.811 581.207 732.04 580.827 731.306 580.4C731.186 580.33 731.057 580.274 730.924 580.235L730.917 580.237C730.678 580.124 730.297 579.872 729.775 579.481L729.782 579.48C729.354 579.319 728.915 579.126 728.466 578.899C726.481 577.684 724.834 576.545 723.523 575.482C722.967 574.975 722.617 574.531 722.472 574.148C722.339 573.805 722.272 573.467 722.272 573.134L722.279 573.132C719.92 571.041 717.095 568.492 713.802 565.486C713.769 565.456 713.734 565.427 713.699 565.399C712.322 564.327 710.831 563.548 709.226 563.062L709.136 563.037C706.778 562.459 704.766 562.385 703.099 562.815Z" fill="black"/>
<path d="M764.297 539.649C764.434 539.951 764.47 540.241 764.404 540.52C764.441 540.227 764.402 539.927 764.289 539.651L764.297 539.649ZM772.448 526.556C772.134 526.637 771.839 526.807 771.603 527.064C765.279 533.97 761.811 538.032 761.199 539.251C761.098 539.45 761.026 539.645 760.981 539.834L760.974 539.836C760.662 540.465 760.407 541.102 760.208 541.748L760.191 541.807C759.094 545.873 757.359 551.713 754.987 559.326L754.985 559.326C754.273 561.263 753.523 562.684 752.737 563.59L752.698 563.635C752.175 564.28 751.259 564.772 749.951 565.11C749.138 565.32 748.174 565.47 747.058 565.562L747.05 565.564C744.131 565.605 741.834 565.038 740.16 563.863C739.727 563.559 739.203 563.481 738.728 563.604C738.343 563.703 737.99 563.935 737.743 564.287C737.193 565.071 737.382 566.153 738.166 566.703C740.462 568.315 743.454 569.091 747.141 569.033L747.25 569.027C748.549 568.925 749.715 568.741 750.747 568.474C752.825 567.937 754.362 567.068 755.357 565.865L755.356 565.866C755.971 565.157 756.553 564.263 757.099 563.184L757.107 563.182C757.084 563.073 757.073 562.961 757.074 562.845C757.068 562.429 757.202 562.05 757.476 561.707L758.047 561.023L758.054 561.021C758.128 560.83 758.201 560.635 758.274 560.436L758.3 560.358C760.674 552.739 762.416 546.876 763.525 542.77L763.524 542.77C763.694 542.216 763.925 541.666 764.215 541.121C764.29 540.98 764.344 540.831 764.377 540.68L764.37 540.682C765.039 539.564 768.303 535.806 774.163 529.407C774.81 528.7 774.761 527.603 774.055 526.956C773.605 526.544 772.997 526.414 772.448 526.556Z" fill="black"/>
<path d="M789.678 536.588C789.315 536.682 788.979 536.894 788.734 537.216C787.466 538.877 786.596 539.886 786.123 540.241L786.12 540.242C782.499 542.768 780.379 544.411 779.758 545.17L779.757 545.172C779.728 545.207 779.701 545.243 779.674 545.278L779.667 545.279C778.353 546.726 776.689 548.918 774.675 551.854C773.952 552.861 773.068 554.497 772.025 556.761L772.033 556.759C772.137 556.968 772.181 557.195 772.166 557.44C772.101 557.904 771.955 558.29 771.726 558.597C771.371 559.033 771.012 559.462 770.647 559.883L770.654 559.881C770.432 560.407 770.204 560.956 769.971 561.528L769.969 561.529C769.293 563.005 768.275 565.862 766.915 570.1L766.911 570.101C766.388 571.425 766.001 572.322 765.752 572.793C765.304 573.639 765.627 574.689 766.474 575.138C766.872 575.348 767.315 575.389 767.719 575.284C768.175 575.167 768.581 574.865 768.819 574.416C769.135 573.819 769.589 572.769 770.182 571.266L770.22 571.16C771.559 566.986 772.535 564.238 773.15 562.916L773.183 562.841C775.07 558.224 776.512 555.229 777.51 553.855L777.536 553.817C779.508 550.942 781.103 548.843 782.32 547.52C782.365 547.471 782.408 547.419 782.447 547.365C782.866 546.852 784.769 545.414 788.157 543.051L788.206 543.016C788.935 542.468 790.031 541.236 791.493 539.32C792.074 538.558 791.927 537.47 791.166 536.889C790.725 536.553 790.176 536.46 789.678 536.588Z" fill="black"/>
<path d="M794.53 516.642C796.008 516.26 797.669 515.976 799.513 515.79L799.547 515.787C802 515.491 806.656 515.236 813.516 515.024L813.612 515.018L819.771 514.486L819.763 514.488C824.119 515.042 826.901 516.469 828.109 518.769L828.101 518.772C829.16 522.515 828.449 525.533 825.969 527.825C825.932 527.859 825.896 527.895 825.862 527.933C824.661 529.256 820.325 531.773 812.854 535.485L812.847 535.487C809.331 537.035 805.562 538.329 801.538 539.368C800.967 539.516 800.391 539.658 799.81 539.795C799.798 539.798 799.787 539.801 799.775 539.804C799.733 539.815 799.691 539.827 799.651 539.841C799.165 540.006 798.673 540.153 798.175 540.281C793.464 541.498 788.182 541.093 782.328 539.065L782.32 539.067C779.212 536.786 777.889 533.737 778.352 529.919L778.359 529.917C778.569 529.939 778.776 529.922 778.97 529.872C779.624 529.703 780.146 529.159 780.253 528.449C780.551 526.464 781.452 524.869 782.956 523.663L783.049 523.584C786.347 520.537 789.445 518.451 792.345 517.327L792.344 517.328C793.022 517.072 793.75 516.843 794.53 516.642ZM794.782 510.991C791.566 511.822 787.797 513.534 783.477 516.126L783.416 516.165C780.213 518.271 778.07 520.443 776.987 522.679L776.975 522.704C773.051 531.142 774.224 537.583 780.494 542.028C780.625 542.12 780.768 542.195 780.919 542.248C787.54 544.588 793.577 545.053 799.032 543.645C799.589 543.5 800.141 543.337 800.687 543.154L800.694 543.152C801.27 543.015 801.841 542.874 802.408 542.727C806.64 541.634 810.61 540.269 814.317 538.631L814.387 538.598C822.089 534.772 826.737 532.029 828.332 530.371L828.324 530.373C831.904 527.065 832.92 522.806 831.372 517.593C831.343 517.496 831.305 517.401 831.26 517.31C829.506 513.81 825.751 511.714 819.995 511.021C819.877 511.006 819.758 511.004 819.639 511.015L813.392 511.554L813.384 511.556C806.466 511.771 801.727 512.031 799.167 512.337L799.165 512.338C798.799 512.375 798.439 512.416 798.085 512.46L798.077 512.462C798.08 512.337 798.07 512.209 798.045 512.081C797.861 511.141 796.949 510.528 796.009 510.712C795.609 510.79 795.2 510.883 794.782 510.991Z" fill="black"/>
<path d="M840.727 522.751C841.781 522.479 842.757 522.377 843.655 522.445C843.708 522.449 843.761 522.451 843.81 522.45C844.435 522.452 846.759 522.928 850.783 523.876C848.251 523.58 845.845 523.35 843.563 523.187L843.504 523.184C841.753 523.119 840.33 523.12 839.232 523.188L839.224 523.191C839.534 523.083 839.857 522.985 840.193 522.899C840.204 522.896 840.216 522.893 840.227 522.89L840.291 522.872C840.438 522.829 840.583 522.788 840.727 522.751ZM873.075 507.942C872.368 508.125 871.827 508.744 871.778 509.512C871.749 509.952 871.709 510.381 871.656 510.798L871.648 510.8C871.073 514.496 868.809 517.321 864.854 519.277L864.846 519.279C863.197 520.011 861.714 520.547 860.398 520.888C859.252 521.183 858.233 521.331 857.339 521.33L857.257 521.332C856.452 521.369 855.139 521.228 853.32 520.909L853.312 520.911C848.111 519.663 844.977 519.02 843.91 518.982L843.901 518.984C842.626 518.889 841.278 519.025 839.859 519.392C839.685 519.437 839.51 519.485 839.333 519.537C839.329 519.538 839.325 519.539 839.321 519.54C835.443 520.542 832.805 522.565 831.406 525.61L831.398 525.612C830.863 525.929 830.323 526.278 829.779 526.658C828.994 527.208 828.803 528.289 829.352 529.075C829.597 529.424 829.947 529.656 830.33 529.757L830.322 529.759C830.321 529.765 830.321 529.77 830.32 529.776C830.221 530.729 830.913 531.582 831.866 531.681C832.078 531.703 832.285 531.686 832.479 531.636C833.161 531.46 833.694 530.876 833.771 530.135C833.85 529.375 833.998 528.671 834.216 528.022L834.207 528.024C835.104 527.57 835.972 527.234 836.81 527.018C837.392 526.868 837.96 526.775 838.514 526.739L838.634 526.727C839.61 526.595 841.19 526.57 843.375 526.651L843.372 526.652C846.234 526.858 849.299 527.171 852.567 527.591L852.568 527.59L852.642 527.599C854.145 527.73 855.336 527.784 856.214 527.762L856.277 527.759C858.318 527.632 860.113 527.369 861.66 526.97C862.736 526.691 863.693 526.347 864.531 525.937L864.522 525.939C867.535 524.686 870.067 522.421 872.119 519.145L872.111 519.148C873.661 517.072 874.645 514.521 875.064 511.495L875.055 511.497C875.148 510.919 875.211 510.323 875.242 509.711C875.29 508.758 874.561 507.945 873.609 507.891C873.424 507.88 873.245 507.899 873.075 507.942Z" fill="black"/>
<path d="M814.07 515.526L814.117 515.522C814.213 515.514 814.307 515.509 814.399 515.508C814.554 515.507 814.686 515.509 814.796 515.516C814.967 515.527 815.108 515.548 815.219 515.581L815.211 515.583C815.193 515.639 815.161 515.718 815.117 515.82C814.969 515.76 814.818 515.707 814.663 515.661C814.585 515.639 814.507 515.618 814.427 515.599C814.347 515.581 814.267 515.564 814.185 515.549L814.062 515.528L814.07 515.526ZM812.448 512.303L812.261 512.353C809.959 512.988 808.177 514.251 806.913 516.143C806.211 515.648 805.489 515.659 804.748 516.175C804.413 516.493 804.22 516.794 804.171 517.079C803.969 517.856 803.891 518.589 803.938 519.277C804.042 520.261 804.214 520.904 804.454 521.205C805.021 522.168 805.597 522.81 806.182 523.131C806.801 523.534 807.176 523.752 807.306 523.786C807.814 524.02 808.333 524.177 808.863 524.258C809.523 524.879 810.24 525.32 811.015 525.58C811.127 525.638 811.467 525.702 812.036 525.771C812.492 525.8 812.952 525.755 813.417 525.635C814.257 525.395 815.01 525.01 815.675 524.48C816.191 524.112 816.677 523.57 817.133 522.853C817.519 522.108 817.74 521.484 817.796 520.98C817.872 520.216 817.778 519.428 817.516 518.614C818.38 517.281 818.788 516.061 818.741 514.954C818.696 514.475 818.54 514.048 818.273 513.676C817.77 513.064 817.285 512.668 816.819 512.489C816.306 512.25 815.716 512.106 815.049 512.057C814.32 511.982 813.453 512.064 812.448 512.303Z" fill="black"/>
<path d="M630.411 686.177C630.411 686.178 630.411 686.177 630.411 686.177ZM632.059 683.052C631.64 684.832 631.375 686.6 631.264 688.355C630.871 687.243 630.574 686.431 630.374 685.92C630.365 685.897 630.356 685.874 630.347 685.851C630.052 685.122 629.62 684.723 629.052 684.655L629.047 684.656C630.268 683.976 631.27 683.441 632.054 683.054L632.059 683.052ZM632.648 679.043C632.418 679.102 632.178 679.187 631.927 679.297L631.922 679.298C630.722 679.788 628.625 680.889 625.63 682.601L625.624 682.603C624.472 683.138 623.615 683.503 623.052 683.697C622.147 684.011 621.667 684.999 621.98 685.904C622.278 686.765 623.185 687.241 624.052 687.017C624.097 687.006 624.142 686.992 624.187 686.976C624.851 686.747 625.802 686.345 627.039 685.771L627.045 685.77C626.938 686.073 626.925 686.431 627.006 686.844C627.035 686.992 627.098 687.249 627.194 687.616L627.206 687.657L628.52 692.199L628.528 692.225C628.585 692.412 628.661 692.746 628.757 693.229L628.751 693.23C628.472 693.545 628.305 693.962 628.314 694.415C628.333 695.373 629.124 696.135 630.082 696.116C630.142 696.115 630.2 696.112 630.258 696.107L630.252 696.109C630.895 698.055 631.452 699.845 631.924 701.48C631.971 701.654 632.023 701.813 632.081 701.958C632.233 702.337 632.438 702.645 632.694 702.883C633.13 703.288 633.74 703.438 634.308 703.291C634.375 703.274 634.442 703.252 634.508 703.226C635.129 702.982 635.555 702.405 635.604 701.74C635.637 701.298 635.618 700.84 635.546 700.367C635.15 697.575 634.933 695.84 634.897 695.162L634.894 695.124C634.733 693.002 634.66 691.519 634.675 690.674L634.675 690.62C634.639 687.959 635.009 685.253 635.785 682.505C635.914 682.097 635.936 681.656 635.853 681.182C635.798 680.871 635.695 680.54 635.543 680.19C635.476 680.034 635.386 679.888 635.276 679.758C634.68 679.052 633.876 678.797 632.864 678.994C632.793 679.008 632.721 679.024 632.648 679.043Z" fill="black"/>
<path d="M605.127 633.85C605.092 633.859 605.056 633.869 605.021 633.881C604.11 634.178 603.613 635.157 603.91 636.068C604.351 637.421 605.102 638.533 606.162 639.404C606.509 639.689 606.887 639.946 607.295 640.173C607.336 640.196 607.378 640.217 607.42 640.236C608.72 640.829 610.022 641.512 611.325 642.285C612.419 642.952 613.149 643.446 613.515 643.769C613.57 643.817 613.628 643.862 613.689 643.903C614.433 644.408 615.664 645.81 617.383 648.111C617.817 648.693 618.546 648.924 619.207 648.753C619.419 648.699 619.625 648.602 619.811 648.463C620.579 647.89 620.736 646.803 620.163 646.035C618.295 643.534 616.832 641.899 615.775 641.129L615.769 641.131C615.243 640.676 614.357 640.069 613.112 639.311L613.096 639.302C611.723 638.487 610.348 637.763 608.971 637.13L608.966 637.132C608.746 637.008 608.545 636.872 608.365 636.723C607.826 636.281 607.441 635.704 607.209 634.992C606.923 634.116 606.007 633.623 605.127 633.85Z" fill="black"/>
<path d="M623.504 601.395C622.581 601.633 622.023 602.572 622.255 603.497C623.358 607.896 624.383 611.224 625.33 613.481C626.911 617.38 628.343 620.085 629.629 621.595C630.074 622.118 630.762 622.311 631.385 622.15C631.631 622.087 631.867 621.968 632.074 621.792C632.804 621.171 632.892 620.076 632.271 619.346C631.226 618.118 629.981 615.722 628.538 612.158L628.53 612.138C627.651 610.043 626.681 606.881 625.621 602.653C625.387 601.724 624.445 601.159 623.516 601.392C623.512 601.393 623.508 601.394 623.504 601.395Z" fill="black"/>
<path d="M665.383 605.691C664.455 605.931 663.897 606.877 664.137 607.805C664.244 608.217 664.363 608.647 664.494 609.095L664.498 609.107L664.697 609.763L664.7 609.775C664.843 610.235 664.999 610.713 665.167 611.209L665.169 611.214C665.336 611.706 665.515 612.216 665.706 612.742L665.71 612.752L666.912 615.991C667.09 616.501 667.256 617.005 667.412 617.505L667.642 618.264L667.858 619.025C667.991 619.513 668.113 619.996 668.224 620.474C668.6 622.214 668.857 623.383 668.994 623.98C669.147 624.673 669.376 625.622 669.681 626.829C669.915 627.758 670.858 628.321 671.787 628.087C671.791 628.086 671.794 628.085 671.797 628.084C672.72 627.846 673.279 626.906 673.045 625.98C672.751 624.817 672.532 623.907 672.386 623.251L672.376 623.202C672.241 622.615 671.985 621.452 671.61 619.715L671.604 619.688C671.482 619.164 671.347 618.633 671.201 618.095L671.196 618.08L670.976 617.302L670.967 617.272L670.729 616.485L670.725 616.47C670.554 615.925 670.371 615.373 670.176 614.815L670.165 614.783L668.963 611.545C668.782 611.047 668.613 610.566 668.456 610.104L668.455 610.099L668.453 610.095C668.296 609.632 668.151 609.187 668.018 608.758L667.819 608.102C667.7 607.696 667.592 607.308 667.497 606.937C667.257 606.009 666.311 605.451 665.383 605.691Z" fill="black"/>
<path d="M680.351 562.466C680.098 562.531 679.857 562.654 679.647 562.837C678.924 563.466 678.848 564.562 679.478 565.285C680.501 566.46 681.672 567.504 682.99 568.417C683.431 568.723 684.276 569.264 685.525 570.04L685.552 570.057C690.011 572.715 692.682 574.343 693.565 574.94C693.994 575.23 694.506 575.303 694.971 575.183C695.366 575.081 695.727 574.84 695.974 574.475C696.511 573.682 696.303 572.603 695.509 572.066C694.573 571.433 691.855 569.775 687.357 567.093C686.155 566.346 685.358 565.837 684.966 565.565C683.886 564.817 682.928 563.963 682.094 563.006C681.648 562.494 680.967 562.307 680.351 562.466Z" fill="black"/>
<path d="M730.014 557.829C729.282 558.018 728.734 558.673 728.714 559.465C728.647 562.133 728.574 563.934 728.497 564.87C728.65 564.769 728.815 564.697 728.991 564.652C729.231 564.59 729.493 564.578 729.776 564.615C730.517 564.77 731.174 565.026 731.747 565.384C731.798 565.407 731.857 565.438 731.924 565.474C732.022 564.488 732.108 562.514 732.183 559.553C732.207 558.595 731.45 557.799 730.492 557.775C730.327 557.77 730.166 557.79 730.014 557.829Z" fill="black"/>
<path d="M727.032 578.002C727.23 580.588 728.347 582.1 730.383 582.535C730.655 582.594 730.926 582.585 731.179 582.519C731.795 582.36 732.3 581.867 732.443 581.202C732.53 580.795 732.466 580.389 732.289 580.046L732.297 580.045C731.118 579.975 729.842 579.593 728.467 578.899C727.97 578.594 727.494 578.295 727.039 578L727.032 578.002Z" fill="black"/>
<path d="M752.536 563.976C752.432 564.003 752.328 564.04 752.228 564.088C751.361 564.497 750.99 565.531 751.391 566.379L751.392 566.382L751.401 566.4C752.029 567.731 752.624 568.931 753.185 569.999L753.207 570.039C757.02 576.924 759.176 580.92 759.676 582.027L759.705 582.088C760.675 584.03 761.707 586.432 762.803 589.294C763.121 590.127 764.012 590.573 764.855 590.355C764.918 590.339 764.981 590.318 765.043 590.295C765.938 589.952 766.386 588.949 766.043 588.054C764.919 585.116 763.851 582.631 762.84 580.599L762.839 580.599C762.3 579.406 760.101 575.325 756.241 568.356L756.237 568.349L756.235 568.345C755.705 567.335 755.142 566.197 754.545 564.934L754.537 564.916C754.176 564.151 753.326 563.772 752.536 563.976Z" fill="black"/>
<path d="M765.257 538.332C764.914 538.42 764.596 538.614 764.354 538.908C763.744 539.647 763.849 540.74 764.588 541.35C765.299 541.936 766.383 542.94 767.839 544.361L767.836 544.361L773.019 549.909L773.089 549.98L777.938 554.605L777.935 554.606C778.861 555.592 779.402 556.212 779.558 556.463C779.963 557.136 780.753 557.435 781.477 557.248C781.636 557.207 781.791 557.143 781.938 557.055C782.759 556.561 783.025 555.495 782.53 554.673C782.523 554.661 782.515 554.648 782.507 554.635C782.226 554.181 781.523 553.356 780.399 552.161L780.333 552.094L775.521 547.504L770.318 541.934L770.262 541.877C768.737 540.389 767.581 539.321 766.796 538.673C766.35 538.306 765.776 538.198 765.257 538.332Z" fill="black"/>
<path d="M735.31 563.439C735.623 563.841 735.746 564.242 735.677 564.642L735.67 564.644C735.643 564.653 735.616 564.663 735.589 564.673C735.652 564.245 735.553 563.802 735.303 563.441L735.31 563.439ZM733.355 566.081C733.67 566.179 733.999 566.184 734.305 566.105C734.372 566.087 734.438 566.066 734.502 566.041L734.509 566.039C734.508 566.049 734.506 566.058 734.505 566.068L734.498 566.07C734.423 566.103 734.347 566.129 734.271 566.149C733.975 566.225 733.668 566.203 733.348 566.083L733.355 566.081ZM731.694 562.631C730.809 562.859 730.247 563.743 730.428 564.65C730.615 565.59 731.529 566.199 732.469 566.012C732.786 565.948 733.029 565.952 733.197 566.023L733.201 566.022C733.372 566.109 733.827 566.357 734.567 566.766L734.56 566.768C734.703 567.265 735.068 567.693 735.586 567.899C736.648 568.321 737.672 568.687 738.661 568.997L738.654 568.999C739.156 569.241 739.597 569.43 739.978 569.567L739.971 569.569C740.044 569.602 740.121 569.633 740.201 569.662C740.91 569.916 742.388 570.106 744.635 570.232C744.819 570.243 744.998 570.224 745.167 570.18C745.871 569.998 746.411 569.383 746.464 568.619C746.529 567.671 745.82 566.848 744.873 566.771C743.391 566.65 741.748 566.315 739.945 565.763L739.938 565.765C739.785 565.689 739.624 565.607 739.454 565.518C736.602 563.921 735.011 563.043 734.681 562.883C734.638 562.862 734.596 562.843 734.554 562.825L734.547 562.827C733.724 562.479 732.805 562.406 731.79 562.609C731.758 562.616 731.726 562.623 731.694 562.631Z" fill="black"/>
<path d="M659.428 603.614C659.222 603.668 659.022 603.76 658.839 603.894C657.835 604.627 657.036 605.321 656.44 605.974L656.38 606.044C655.056 607.659 652.92 610.001 649.973 613.07L649.902 613.148L647.703 615.733L647.702 615.734C646.652 616.905 644.859 619.658 642.325 623.99C641.841 624.818 642.119 625.88 642.947 626.364C643.358 626.605 643.828 626.657 644.256 626.546C644.688 626.435 645.077 626.158 645.32 625.742C647.764 621.563 649.427 618.991 650.307 618.026L650.346 617.982L652.545 615.396L652.551 615.395C655.482 612.341 657.635 609.98 659.008 608.312L659.004 608.313C659.443 607.831 660.071 607.291 660.887 606.695C661.66 606.129 661.829 605.044 661.263 604.27C660.831 603.68 660.096 603.442 659.428 603.614Z" fill="black"/>
</g>
<defs>
<clipPath id="clip0_157_237">
<rect width="768" height="777" fill="white" transform="translate(0.0429688 192.382) rotate(-14.483)"/>
</clipPath>
</defs>
</svg>
