<svg width="316" height="327" viewBox="0 0 316 327" fill="none" xmlns="http://www.w3.org/2000/svg">
<g clip-path="url(#clip0_149_3)">
<path d="M123.698 182.258C124.151 183.114 125.012 183.678 125.971 183.757H125.969C124.902 183.695 124.142 183.195 123.689 182.258H123.698ZM126.026 183.758L126.202 183.764C126.173 183.764 126.144 183.763 126.115 183.763H126.107C126.077 183.761 126.047 183.759 126.018 183.758H126.026ZM128.948 181.68C128.677 183.073 127.811 183.769 126.352 183.769C126.301 183.769 126.249 183.768 126.196 183.766H126.203C126.309 183.766 126.416 183.761 126.524 183.748C127.689 183.616 128.638 182.785 128.94 181.68H128.948ZM134.256 47.9395C133.423 47.9395 132.593 48.2169 131.768 48.7722C130.467 49.6462 130.122 51.4086 130.996 52.7087C131.347 53.231 131.842 53.5991 132.392 53.7963H132.383C132.067 57.9306 131.45 63.486 130.533 70.4621L130.522 70.5641C129.51 81.2389 128.995 87.1883 128.976 88.412H128.968C128.759 90.8897 128.518 98.1356 128.244 110.15L126.32 150.987C125.664 160.207 124.688 170.058 123.394 180.54H123.386C123.38 180.581 123.374 180.622 123.369 180.663C123.268 181.444 122.95 186.092 122.415 194.605H122.41C121.11 205.098 120.427 211.042 120.363 212.436L120.36 212.529C120.3 216.945 119.24 230.318 117.178 252.65C116.8 255.668 116.401 257.782 115.984 258.991C115.846 259.39 115.719 259.754 115.602 260.082H115.594C115.069 260.481 114.681 261.064 114.536 261.76C114.407 262.38 114.326 262.856 114.293 263.186C114.108 265.047 114.861 266.156 116.551 266.514L116.562 266.516C116.81 266.567 117.049 266.593 117.276 266.593C118.368 266.593 119.218 266 119.825 264.815C120.123 264.233 120.63 262.909 121.347 260.843L121.348 260.838C121.897 259.244 122.387 256.718 122.817 253.261L122.827 253.171C124.888 230.843 125.956 217.353 126.031 212.699C126.089 211.443 126.765 205.587 128.061 195.132L128.077 194.961C128.567 187.163 128.866 182.705 128.974 181.587H128.964C128.988 181.486 129.007 181.383 129.02 181.278C130.331 170.657 131.319 160.672 131.982 151.321L131.986 151.254L133.913 110.348L133.916 110.279C134.195 98.0133 134.435 90.8285 134.636 88.7251L134.648 88.4996C134.665 87.4286 135.169 81.6625 136.16 71.2012C137.199 63.2944 137.858 57.1554 138.143 52.7841C138.176 52.3394 138.174 51.9278 138.136 51.5493C138.037 50.5575 137.695 49.7424 137.108 49.1051C136.911 48.8921 136.684 48.7102 136.432 48.5661C135.704 48.1483 134.978 47.9395 134.256 47.9395Z" fill="black"/>
<path d="M141.904 191.355C142.187 191.623 142.387 191.949 142.504 192.335C142.37 191.97 142.162 191.636 141.896 191.355H141.904ZM139.448 190.501C138.337 190.656 137.382 191.466 137.091 192.613C137.446 191.215 138.229 190.511 139.439 190.501H139.448ZM143.285 -0.894043C141.756 -0.894043 140.476 -0.324222 139.445 0.815417C138.542 1.81343 137.922 3.22452 137.586 5.04863C137.484 5.60655 137.405 6.21034 137.351 6.85987H137.342C136.939 8.72937 136.908 14.8173 137.25 25.1236H137.243C136.973 32.0538 136.789 35.8735 136.691 36.5827L136.687 36.612C135.429 45.1854 134.649 51.8356 134.348 56.5631H134.34C133.769 56.872 133.301 57.3769 133.048 58.0287C132.48 59.4886 133.203 61.1325 134.663 61.7005C135.002 61.8324 135.345 61.9166 135.689 61.9531C135.865 61.9715 136.036 61.9809 136.202 61.9809C137.849 61.9809 138.986 61.0628 139.616 59.2267C139.783 58.7385 139.901 58.1701 139.97 57.5228L139.981 57.3874C140.248 52.8079 141.018 46.1738 142.292 37.4851C142.299 37.4448 142.305 37.4032 142.311 37.3601C142.435 36.4588 142.638 32.3853 142.919 25.1396L142.92 24.9355C142.595 15.1498 142.578 9.5536 142.868 8.14676H142.863C142.932 7.93351 142.975 7.71295 142.992 7.4895C143.031 6.96379 143.089 6.49288 143.165 6.07644C143.273 5.49147 143.393 5.07066 143.524 4.81419H143.533C143.638 4.82683 143.744 4.83383 143.85 4.83485C149.204 4.88215 152.007 6.6015 152.26 9.99309L152.262 10.0147C152.327 10.8039 152.354 11.3033 152.345 11.5132H152.342C152.336 11.5698 152.331 11.6266 152.329 11.6836L149.976 61.7923L144.761 113.493H144.752C144.749 113.515 144.745 113.536 144.742 113.558C144.589 114.624 144.282 120.39 143.821 130.857H143.812C143.225 134.34 142.704 139.848 142.25 147.379H142.242L139.529 165.238L139.51 165.384C137.807 182.592 136.955 191.877 136.955 193.24C136.955 193.296 136.956 193.352 136.958 193.407H136.95C136.171 198.135 135.779 200.989 135.774 201.968H135.771C135.48 206.823 135.346 212.862 135.369 220.086H135.367C134.783 234.724 134.222 244.793 133.682 250.291L133.671 250.472L133.192 264.594H133.184C133.017 265.227 132.414 265.764 131.375 266.203C131.263 266.25 131.155 266.304 131.05 266.365C129.894 267 125.935 267.43 119.176 267.655L118.94 267.673C118.322 267.746 117.776 267.94 117.302 268.256C115.666 269.347 115.334 270.876 116.307 272.846C116.43 273.095 116.581 273.355 116.76 273.623C117.307 274.442 118.206 274.886 119.123 274.886C119.664 274.886 120.21 274.732 120.694 274.409C121.149 274.106 121.488 273.694 121.7 273.231H121.691C127.877 272.931 131.874 272.318 133.682 271.389H133.674C136.697 270.086 138.415 268.047 138.827 265.272C138.843 265.166 138.853 265.059 138.856 264.951L139.34 250.664H139.346C139.892 245.005 140.456 234.847 141.04 220.189L141.042 220.068C141.019 212.892 141.152 206.925 141.442 202.166L141.447 201.994C141.451 201.279 141.848 198.54 142.639 193.775C142.688 193.478 142.689 193.184 142.648 192.901H142.639C142.743 190.829 143.577 181.892 145.141 166.09H145.137L147.883 148.012C147.896 147.927 147.905 147.842 147.911 147.756C148.363 140.236 148.875 134.844 149.444 131.582C149.465 131.461 149.478 131.34 149.484 131.207L149.484 131.195C149.921 121.29 150.206 115.725 150.341 114.5H150.333C150.364 114.371 150.387 114.239 150.4 114.107L155.628 62.2863L155.639 62.1345L157.995 11.9494H158.001C158.006 11.8902 158.009 11.8295 158.012 11.7673C158.032 11.3209 158 10.5888 157.917 9.57152C157.41 2.76916 152.814 -0.699691 144.128 -0.835062H144.119C143.861 -0.871215 143.607 -0.890691 143.356 -0.893545C143.332 -0.893817 143.309 -0.894043 143.285 -0.894043Z" fill="black"/>
<path d="M253.496 71.2922C253.781 71.2922 254.089 71.3408 254.419 71.4382C254.159 71.3628 253.893 71.3258 253.629 71.3258C253.234 71.3258 252.843 71.4081 252.482 71.5679H252.472C252.462 71.5693 252.451 71.5706 252.439 71.5721C252.749 71.3854 253.101 71.2922 253.496 71.2922ZM231.233 76.0467C231.144 76.0611 231.057 76.0705 230.971 76.0749C231.056 76.0692 231.14 76.06 231.223 76.0467H231.233ZM230.893 76.0771C230.898 76.0771 230.903 76.0771 230.909 76.0771H230.9C230.892 76.0772 230.883 76.0774 230.875 76.0774L230.879 76.0771C230.883 76.0771 230.888 76.0771 230.893 76.0771ZM152.3 65.4072C152.283 65.4072 152.266 65.4072 152.249 65.4075C150.683 65.4167 149.42 66.6942 149.43 68.2607C149.439 69.8216 150.707 71.0801 152.266 71.0801C152.272 71.0801 152.277 71.0801 152.283 71.0801C152.296 71.0801 152.309 71.0801 152.323 71.0801C153.829 71.0801 159.018 71.5586 167.889 72.5156H167.884C174.61 73.3714 180.814 74.3454 186.498 75.4378L186.629 75.4597C188.082 75.6692 189.571 75.8091 191.096 75.8793L191.105 75.8798C192.755 75.9556 194.521 75.9935 196.403 75.9935C196.754 75.9935 197.108 75.9922 197.467 75.9895L197.488 75.9893L212.821 75.761L212.877 75.7598C212.939 75.7576 213.024 75.7566 213.131 75.7566C214.042 75.7566 216.572 75.835 220.72 75.9922L220.817 75.9945C226.381 76.0141 229.669 76.0423 230.68 76.0791C230.715 76.0803 230.749 76.0811 230.784 76.0811C230.832 76.0811 230.88 76.0798 230.928 76.0774H230.937C231.596 76.0841 234.823 76.2286 240.62 76.5106L240.651 76.5119C241.646 76.5497 244.298 76.7587 248.607 77.1393L248.663 77.1437C250.119 77.2432 251.124 77.2953 251.679 77.2998L251.813 77.2978C252.671 77.2642 253.348 77.1925 253.844 77.0825C253.976 77.0536 254.101 77.0201 254.223 76.9825H254.214C254.945 76.855 255.621 76.4259 256.241 75.6951C256.535 75.3477 256.864 74.8681 257.226 74.2564C258.024 72.9084 257.578 71.1688 256.23 70.3706C255.777 70.1021 255.279 69.9744 254.788 69.9744C253.818 69.9744 252.874 70.472 252.344 71.3666C252.295 71.45 252.249 71.5263 252.206 71.5955H252.197C252.048 71.6074 251.869 71.6176 251.659 71.6264C251.207 71.6192 250.36 71.5732 249.116 71.4885H249.106C244.745 71.1033 242.009 70.8888 240.898 70.8444C234.87 70.5511 231.526 70.4045 230.87 70.4045C230.863 70.4045 230.857 70.4045 230.85 70.4045L230.854 70.4042H230.844C230.816 70.4043 230.788 70.4049 230.76 70.4057C229.566 70.3687 226.275 70.3406 220.889 70.3216H220.88C216.722 70.1641 214.109 70.0854 213.039 70.0854C212.898 70.0854 212.783 70.0868 212.696 70.0896H212.687L197.408 70.3171H197.399C197.063 70.3194 196.731 70.3206 196.403 70.3206C194.628 70.3206 192.963 70.2852 191.408 70.2146H191.399L191.357 70.2121C190.049 70.1517 188.776 70.0341 187.538 69.8589H187.529C181.724 68.7442 175.398 67.7516 168.55 66.8815L168.497 66.8753C159.427 65.8966 154.028 65.4072 152.3 65.4072Z" fill="black"/>
<path d="M219.225 18.0495C219.818 18.4206 220.167 19.0499 220.27 19.9371C220.179 19.1673 219.784 18.5004 219.215 18.0495H219.225ZM167.052 4.12988C162.715 4.41394 159.918 4.79512 158.661 5.27367C157.024 5.89629 156.256 6.9739 156.356 8.50619C156.426 9.56279 156.939 10.3923 157.897 10.9934H157.889C158.219 11.2293 158.616 11.4103 159.081 11.5361C160.767 11.9929 168.897 12.8205 183.471 14.0188H183.462C187.3 14.832 190.712 15.6392 193.698 16.4405H193.689C205.828 20.438 213.443 22.6384 216.533 23.0417H216.524C216.646 23.095 216.774 23.1445 216.908 23.1903C220.114 24.2847 241.028 25.9189 279.649 28.0922H279.639C281.54 28.3396 283.088 28.9737 284.283 29.9945H284.281C298.842 43.2638 307.377 51.7912 309.888 55.5769C309.959 55.6842 310.038 55.7871 310.123 55.8835C310.667 56.501 310.806 57.0107 310.542 57.4126H310.535C304.774 65.0708 298.538 72.3015 291.828 79.105C289.389 77.7961 286.928 76.7522 284.446 75.9732L284.418 75.9648C282.104 75.2648 280.217 74.8171 278.758 74.6217L278.555 74.602L253.913 73.0901C253.854 73.0865 253.795 73.0847 253.737 73.0847C252.249 73.0847 251 74.2428 250.908 75.7475C250.812 77.311 252.002 78.6565 253.565 78.7523L278.116 80.2587H278.106C279.256 80.4224 280.812 80.801 282.775 81.3945C285.02 82.101 287.255 83.0645 289.48 84.2851C289.565 84.3314 289.651 84.3733 289.74 84.4108C290.542 84.7498 291.323 84.9349 292.083 84.9663C292.161 84.9694 292.239 84.971 292.316 84.971C292.733 84.971 293.14 84.9239 293.536 84.8299C294.049 84.7084 294.517 84.4468 294.889 84.0743C302.193 76.7609 308.957 68.9612 315.179 60.6752L315.281 60.5314C317.086 57.7882 316.846 55.059 314.561 52.3437H314.551C311.706 48.123 302.868 39.2556 288.036 25.7414L287.968 25.6817C285.887 23.9032 283.307 22.8256 280.231 22.4492L280.045 22.4325C243.01 20.3489 222.67 18.8397 219.025 17.9049H219.016C218.566 17.6074 218.028 17.436 217.455 17.436C217.437 17.436 217.419 17.4363 217.401 17.4365C215.665 17.4271 208.315 15.2867 195.351 11.0155L195.243 10.9822L195.238 10.9807L195.194 10.9687C192.052 10.125 188.473 9.2788 184.456 8.43029C184.339 8.40562 184.221 8.38835 184.102 8.37877C178.416 7.91163 173.751 7.50843 170.107 7.16878H170.098C170.108 7.03871 170.108 6.90658 170.1 6.77284C170.002 5.28173 168.769 4.13511 167.153 4.13511C167.077 4.13511 167 4.13752 166.922 4.14282L167.06 4.12988H167.052Z" fill="black"/>
<path d="M182.117 21.0745C182.386 21.0745 182.686 21.1189 183.017 21.2076L183.109 21.2305C185.112 21.6966 187.529 23.1803 190.358 25.682H190.349C190.899 26.3247 191.122 27.073 191.02 27.9265H191.011C189.096 30.9828 187.366 32.9501 185.821 33.8284H185.812C185.401 34.0258 184.924 34.1692 184.383 34.2586H184.374C183.374 34.3566 182.47 34.4512 181.662 34.5421C181.25 33.0859 180.802 31.4514 180.318 29.6387H180.309C179.701 26.1462 179.842 23.5429 180.731 21.8288C181.016 21.3259 181.477 21.0745 182.117 21.0745ZM177.705 41.0333C178.526 43.5651 179.196 45.2526 179.713 46.0959L181.963 49.9541L179.155 53.1968H179.148C177.925 54.4466 177.071 55.1997 176.587 55.4563H176.578C175.351 55.7447 174.414 55.8888 173.767 55.8888C173.499 55.8888 173.281 55.8642 173.113 55.8149H173.104C172.624 55.3442 172.304 54.1839 172.143 52.334H172.139C172.005 47.4616 172.989 44.189 175.091 42.516L175.265 42.3654C175.729 41.9294 176.54 41.4853 177.696 41.0333H177.705ZM181.774 15.3394C179.182 15.3394 177.189 16.5701 175.794 19.0315L175.762 19.091C174.225 21.9596 173.88 25.8103 174.725 30.6429L174.779 30.885C175.233 32.5899 175.663 34.1572 176.068 35.5868H176.06C174.01 36.3528 172.457 37.2277 171.402 38.2111H171.393C167.927 41.0752 166.286 45.8346 166.468 52.4893L166.476 52.6399C166.786 56.4814 167.937 59.1121 169.927 60.5324L170.097 60.6444C170.333 60.7886 170.584 60.9153 170.849 61.0244C171.652 61.3547 172.622 61.5199 173.76 61.5199C175.02 61.5199 176.486 61.317 178.158 60.9114C178.246 60.89 178.333 60.8643 178.419 60.8348C178.57 60.7822 178.725 60.7199 178.881 60.6479C180.003 60.1324 181.487 58.9277 183.33 57.0346L183.406 56.9535L183.408 56.951L183.444 56.9099L184.983 55.132L186.029 56.9239H186.023C186.087 57.0395 186.158 57.1564 186.238 57.2748C186.641 57.8694 187.752 59.1696 189.571 61.1745L189.658 61.2666C190.362 61.9762 191.062 62.331 191.759 62.331C192.427 62.331 193.092 62.0048 193.753 61.3524L193.772 61.3338C194.723 60.3783 194.893 59.2636 194.283 57.99L194.187 57.8068L193.518 56.6369C193.166 56.0222 192.619 55.5888 192 55.3707H191.991C191.51 54.8206 191.183 54.43 191.011 54.1985H191.002C190.979 54.1535 190.954 54.1092 190.929 54.0654L188.907 50.5999L191.367 47.7581L191.456 47.6509C191.966 46.9994 192.343 46.4169 192.587 45.9028C192.626 45.8188 192.664 45.7346 192.697 45.6537L192.698 45.6512C193.295 44.2029 192.605 42.545 191.157 41.9479C190.803 41.8021 190.437 41.7331 190.077 41.7331C188.962 41.7331 187.905 42.3938 187.455 43.4866C187.387 43.6216 187.232 43.8435 186.99 44.1523H186.985L185.886 45.4218L184.581 43.1837L184.549 43.13C184.25 42.6435 183.843 41.6225 183.327 40.0669H183.318C183.848 40.0119 184.421 39.9542 185.037 39.894L185.536 39.7989L185.202 39.8726C186.423 39.6811 187.531 39.3281 188.526 38.8136L188.625 38.7599C191.096 37.3551 193.6 34.5751 196.139 30.4196C196.3 30.1562 196.417 29.8678 196.485 29.5665C197.17 26.538 196.469 23.9107 194.382 21.6847C194.323 21.6217 194.261 21.5608 194.197 21.5038C190.657 18.3602 187.422 16.4351 184.491 15.7281H184.486C183.519 15.469 182.615 15.3394 181.774 15.3394Z" fill="black"/>
<path d="M214.589 37.5815C212.604 37.5815 210.622 38.3013 208.644 39.7412C205.625 41.8749 204.456 44.4294 205.136 47.4045H205.131C205.287 48.1999 205.679 48.9311 206.307 49.598C206.821 50.1443 207.513 50.6554 208.383 51.1308C208.51 51.2005 208.643 51.2602 208.78 51.3097L215.191 53.6259H215.181C215.941 53.9552 216.616 54.3387 217.206 54.7762H217.198C217.739 55.2398 217.975 55.5793 217.906 55.795H217.899C217.574 56.5004 216.562 56.9643 214.863 57.1867H214.854C214.687 57.192 214.53 57.1947 214.381 57.1947C213.688 57.1947 213.19 57.136 212.887 57.0187H212.878C212.6 55.7068 211.436 54.7737 210.108 54.7737C209.985 54.7737 209.861 54.7813 209.736 54.7978C208.183 55.0009 207.088 56.4246 207.291 57.9781C207.298 58.0284 207.305 58.078 207.313 58.1269C207.551 59.6405 208.309 60.8198 209.587 61.6648C210.796 62.4646 212.441 62.8646 214.52 62.8646C214.744 62.8646 214.974 62.8599 215.208 62.8506L215.44 62.8317C219.594 62.3231 222.205 60.587 223.275 57.6232L223.308 57.5257C224.163 54.8581 223.294 52.4535 220.703 50.3118L220.586 50.2199C219.603 49.4909 218.5 48.8683 217.277 48.352L217.138 48.2977L210.952 46.0631H210.943C210.833 45.9998 210.739 45.9416 210.661 45.8887H210.652C210.7 45.4373 211.13 44.9266 211.943 44.3562L211.982 44.3278C212.95 43.6239 213.839 43.2719 214.652 43.2719C214.906 43.2719 215.152 43.3063 215.391 43.3749C215.653 43.4503 215.917 43.4864 216.177 43.4864C217.409 43.4864 218.543 42.677 218.901 41.434C219.335 39.9286 218.466 38.3569 216.96 37.9232C216.169 37.6954 215.379 37.5815 214.589 37.5815Z" fill="black"/>
<path d="M231.566 31.2178C231.34 31.2178 231.11 31.245 230.88 31.3019C229.36 31.6793 228.433 33.218 228.811 34.7382C228.954 35.313 229.06 36.235 229.131 37.5041C229.162 38.3544 229.176 38.9299 229.173 39.2303L229.173 39.2656C229.175 39.4918 229.174 39.7107 229.172 39.9224C229.152 40.7077 229.142 41.27 229.143 41.6094V41.6229C229.146 42.1556 229.151 42.5032 229.158 42.6656C229.165 42.8967 229.174 43.1276 229.185 43.3587L229.187 43.3828C229.31 45.5049 229.376 46.6608 229.383 46.8508L229.391 46.9974C229.394 47.1219 229.396 47.3817 229.398 47.7768L229.399 47.8164L229.398 47.8186C229.399 47.92 229.39 48.202 229.371 48.6645C229.276 50.0291 229.223 50.8174 229.214 51.0297C229.212 51.0666 229.211 51.1011 229.211 51.133C229.145 52.6471 229.103 53.5014 229.087 53.6958C229.084 53.7332 229.08 53.7704 229.077 53.8081C229.05 54.2664 228.961 55.2951 228.811 56.894L228.806 56.9525C228.761 57.5649 228.736 57.9521 228.729 58.114H228.733L228.73 58.1366H228.726C228.707 58.4143 228.684 59.2375 228.655 60.6054C228.622 62.1713 229.865 63.4679 231.431 63.5012C231.451 63.5016 231.472 63.5019 231.492 63.5019C233.031 63.5019 234.294 62.2711 234.327 60.7253C234.349 59.6664 234.366 58.9784 234.379 58.6612H234.37C234.384 58.5581 234.394 58.4541 234.397 58.3499C234.401 58.2524 234.422 57.9438 234.46 57.4241C234.595 55.986 234.682 54.9747 234.724 54.3904H234.715C234.726 54.3116 234.736 54.2303 234.742 54.1465C234.763 53.8816 234.81 52.9332 234.881 51.3037L234.882 51.2731L234.882 51.2687C234.889 51.1051 234.94 50.3405 235.035 48.9746L235.04 48.8895C235.061 48.3494 235.072 47.9872 235.071 47.8029C235.071 47.7857 235.071 47.7689 235.071 47.7524C235.069 47.2233 235.063 46.8671 235.054 46.6838H235.052L235.05 46.6432C235.042 46.4145 234.977 45.2258 234.851 43.077C234.842 42.8833 234.834 42.6884 234.828 42.4921L234.826 42.4322C234.822 42.3381 234.818 42.0556 234.815 41.5865C234.815 41.2917 234.825 40.7717 234.843 40.0266L234.844 39.9871C234.847 39.7515 234.848 39.5128 234.846 39.2706C234.849 38.8813 234.833 38.2054 234.798 37.2428L234.795 37.1881C234.705 35.5636 234.545 34.2913 234.317 33.3715C233.996 32.0805 232.839 31.2178 231.566 31.2178Z" fill="black"/>
<path d="M226.369 42.9165C226.258 42.9165 226.148 42.9174 226.037 42.919C226.022 42.9189 226.007 42.9187 225.992 42.9187C225.713 42.9187 225.121 42.9471 224.214 43.0036H224.205C224.079 43.0075 223.951 43.0097 223.822 43.0098C223.304 43.0017 222.963 42.9873 222.8 42.9668C222.681 42.9519 222.563 42.9446 222.446 42.9446C221.036 42.9446 219.814 43.9952 219.635 45.431C219.442 46.9856 220.545 48.4024 222.1 48.5961C222.469 48.6421 223.025 48.6709 223.766 48.6825L223.81 48.683C224.024 48.683 224.242 48.679 224.463 48.671L224.538 48.6673C225.34 48.617 225.825 48.5919 225.992 48.5919C225.987 48.5919 225.978 48.5918 225.966 48.5914H225.975L226.084 48.5919C226.178 48.5903 226.273 48.5894 226.368 48.5894C226.758 48.5894 227.152 48.6029 227.55 48.6297L227.601 48.6327C227.993 48.6521 228.625 48.7214 229.496 48.8408C230.241 48.9435 231.544 49.1729 233.409 49.5289L233.475 49.5406C234.128 49.6494 234.768 49.7354 235.394 49.7986C235.937 49.8586 236.627 49.9051 237.466 49.9383L237.548 49.9402C238.892 49.9548 240.511 49.9901 242.405 50.0463C242.434 50.0469 242.462 50.0475 242.491 50.0475C244.018 50.0475 245.279 48.8322 245.324 47.2951C245.371 45.7291 244.139 44.4221 242.573 44.3756C240.675 44.3193 239.04 44.2836 237.666 44.2681H237.656C236.952 44.24 236.398 44.2031 235.996 44.1578L235.964 44.1544C235.483 44.1058 234.987 44.0397 234.478 43.9563H234.473C232.51 43.5818 231.108 43.3367 230.269 43.2206L230.266 43.2204C229.265 43.0834 228.489 42.9997 227.938 42.9695H227.931C227.407 42.9342 226.886 42.9165 226.369 42.9165Z" fill="black"/>
<path d="M259.153 40.6787C258.552 40.6787 257.991 40.7506 257.47 40.8942C256.588 41.1377 255.833 41.5677 255.206 42.1843H255.197C254.563 42.7216 254.005 43.3867 253.523 44.1798H253.513C252.521 44.6613 251.86 45.7022 251.918 46.8732C251.94 47.3144 251.96 47.7472 251.978 48.1718H251.968C251.94 48.2898 251.913 48.4092 251.886 48.5299L251.848 48.7395C251.746 49.4575 251.688 50.0074 251.673 50.3895L251.359 55.7791H251.356C251.348 55.8869 251.343 55.9995 251.343 56.1171C251.341 56.7567 251.485 58.2371 251.776 60.5579L251.783 60.6059C251.98 62.0002 253.173 63.0419 254.586 63.0448C254.588 63.0448 254.589 63.0448 254.591 63.0448C256.017 63.0448 257.221 61.9863 257.404 60.5721C257.773 57.7241 257.864 53.7952 257.679 48.7853H257.67C258.005 47.6295 258.417 46.861 258.904 46.4798C258.958 46.4374 259.011 46.3927 259.062 46.3464H259.053C259.113 46.3359 259.181 46.3307 259.255 46.3307C259.727 46.3307 260.483 46.5395 261.523 46.9569C261.745 47.0464 261.978 47.1068 262.217 47.1378H262.207C262.986 47.352 264.486 48.5113 266.708 50.6157C267.257 51.1351 267.958 51.3926 268.658 51.3926C269.41 51.3926 270.161 51.0956 270.718 50.5064C271.796 49.369 271.747 47.5735 270.609 46.4964C267.643 43.6878 265.296 42.0655 263.567 41.6296C263.501 41.613 263.435 41.5978 263.37 41.5838H263.36C261.788 40.9805 260.386 40.6787 259.153 40.6787Z" fill="black"/>
<path d="M254.508 55.7695C254.449 55.7695 254.39 55.7711 254.33 55.775C252.946 55.8602 251.855 56.9247 251.69 58.2525H251.68C251.418 58.5773 251.214 58.9757 251.068 59.4473C250.97 59.7645 250.857 60.2445 250.73 60.886C250.59 61.5942 250.727 62.2931 251.065 62.8704H251.056C251.187 64.0658 251.801 64.8718 252.897 65.2887C253.376 65.4723 253.817 65.5641 254.218 65.5641C255.307 65.5641 256.111 64.8892 256.631 63.5396L256.686 63.3821C256.872 62.7987 257.052 61.9889 257.225 60.9527L257.233 60.8974C257.297 60.4658 257.337 60.0505 257.355 59.6518H257.349C257.362 59.5286 257.368 59.3926 257.368 59.2439C257.368 59.0537 257.358 58.7819 257.336 58.4314C257.243 56.9272 255.994 55.7695 254.508 55.7695Z" fill="black"/>
<path d="M58.0361 64.7607C57.1144 64.7607 56.2354 65.211 55.6998 65.9894C54.3702 67.9218 53.4578 69.0599 52.9627 69.4036H52.9563C52.8926 69.4389 52.8304 69.4767 52.7696 69.5168C45.3889 74.3868 37.9884 78.6903 30.5682 82.4272C30.466 82.4788 30.3663 82.5368 30.2712 82.6002C28.7477 83.6155 27.7093 84.4188 27.156 85.0105C26.0276 86.2171 25.7764 87.4278 26.4025 88.6424H26.3952C26.5404 89.095 26.7756 89.5386 27.1006 89.9731C27.4512 90.4416 27.9286 90.9226 28.5327 91.4163C28.6706 91.529 28.8187 91.6283 29.1169 91.7794H29.1027C32.1903 93.3736 34.5985 94.9747 36.3274 96.5827H36.32C41.0846 101.993 44.2981 105.329 45.9603 106.591H45.9528C47.9874 109.006 49.7605 111.972 51.2721 115.49C51.5721 116.188 52.1398 116.737 52.8478 117.012C53.1795 117.142 53.529 117.206 53.8781 117.206C54.2233 117.206 54.568 117.143 54.8947 117.018H54.8871C55.24 116.935 55.8584 116.894 56.7422 116.894C58.4254 116.894 61.0714 117.044 64.6802 117.344C64.7592 117.35 64.8379 117.354 64.9168 117.354C64.9463 117.354 64.9759 117.353 65.0055 117.352L78.5539 116.92L119.074 121.11H119.066C119.109 121.117 119.153 121.124 119.198 121.131C119.738 121.21 120.843 121.249 122.51 121.249C124.704 121.249 127.873 121.181 132.018 121.044C133.584 120.992 134.812 119.681 134.76 118.116C134.709 116.582 133.45 115.373 131.927 115.373C131.895 115.373 131.863 115.373 131.832 115.374C127.437 115.519 124.248 115.592 122.263 115.592C121.15 115.592 120.416 115.569 120.06 115.523H120.053C119.957 115.503 119.859 115.488 119.761 115.478L78.9461 111.258C78.8489 111.248 78.7513 111.243 78.6538 111.243C78.6239 111.243 78.594 111.243 78.5641 111.244L64.9858 111.677C61.5921 111.397 58.8985 111.258 56.9048 111.258C56.426 111.258 55.9876 111.266 55.5895 111.282C53.9854 107.945 52.1301 105.059 50.0238 102.622C49.856 102.428 49.6626 102.257 49.4489 102.115C48.3143 101.361 45.3155 98.2193 40.4525 92.6917C40.3927 92.6238 40.3295 92.5583 40.2634 92.4964C38.4385 90.7847 36.0659 89.1218 33.1457 87.5078H33.1383C33.1759 87.4824 33.2141 87.4569 33.2529 87.4309H33.2455C40.7707 83.6344 48.2721 79.273 55.7498 74.3468H55.7422C55.8944 74.2634 56.0465 74.1688 56.1984 74.0634C57.029 73.4864 58.061 72.3705 59.2945 70.7156H59.3021C60.8369 70.9755 62.0209 71.1056 62.8542 71.1056C62.9916 71.1056 63.1195 71.1021 63.2379 71.0951H63.2302L79.0906 70.6133H79.0985C81.8784 70.6739 85.481 70.9743 89.9063 71.5145L90.1123 71.5319C91.656 71.6068 93.2961 71.6444 95.0325 71.6444C96.6232 71.6444 98.2947 71.6128 100.047 71.5501H100.055L121.307 72.9016H121.299C121.596 72.9286 121.951 72.942 122.364 72.942C124.041 72.942 126.674 72.7203 130.261 72.2772L130.282 72.2745L130.289 72.2735C131.833 72.0711 132.927 70.6605 132.736 69.1132C132.558 67.6779 131.338 66.6262 129.912 66.6262C129.793 66.6262 129.673 66.6338 129.552 66.6486C126.151 67.0683 123.796 67.2783 122.486 67.2783C122.209 67.2783 121.979 67.2689 121.796 67.2501L121.688 67.2412L100.272 65.8791C100.212 65.8753 100.152 65.8734 100.092 65.8734C100.057 65.8734 100.022 65.8742 99.9871 65.8754C98.2478 65.9394 96.5952 65.9715 95.0296 65.9715C93.4306 65.9715 91.9222 65.9381 90.5044 65.8712H90.4964C85.8872 65.3108 82.1013 65.0004 79.1388 64.9402L78.995 64.9409L63.0212 65.426L63.1062 65.4245L62.8836 65.4334C62.8343 65.4372 62.7781 65.4392 62.7151 65.4392C62.0643 65.4392 60.6885 65.231 58.5878 64.815C58.4038 64.7787 58.2191 64.7607 58.0361 64.7607Z" fill="black"/>
<path d="M73.5281 77.3317C73.7365 77.3317 73.9181 77.3709 74.073 77.4492C74.1497 77.4879 74.2273 77.5229 74.3071 77.5545C75.0008 77.8295 75.5146 78.0692 75.8483 78.2732H75.8405C75.6665 79.038 75.094 80.4315 74.1231 82.4539H74.1194C73.4269 83.7158 72.5717 84.6551 71.5537 85.2718C71.0075 85.5889 70.6128 85.7893 70.371 85.8733C70.061 84.6536 69.8368 83.5456 69.6983 82.5489H69.6906C69.6481 80.6244 69.9028 79.3442 70.4545 78.7087H70.4468C71.7874 77.7907 72.8145 77.3317 73.5281 77.3317ZM72.3901 91.1736C72.3959 91.2246 72.4029 91.2757 72.4114 91.3267C72.439 91.4924 72.4092 91.7302 72.3221 92.0402H72.318C72.2264 91.7885 72.137 91.5397 72.0499 91.2938H72.0421C72.1519 91.2582 72.2653 91.2182 72.3824 91.1736H72.3901ZM66.6334 92.9879C67.0981 94.3107 67.6213 95.704 68.203 97.1678L68.2847 97.3537C68.5259 97.8532 68.7672 98.3405 69.0087 98.8156H69.0009C68.2898 100.277 67.6574 101.646 67.1035 102.922H67.0978C66.937 103.23 66.7738 103.49 66.6081 103.701C66.5877 103.684 66.5668 103.666 66.5454 103.647L66.3638 103.502C64.7714 102.332 63.9007 101.318 63.7516 100.459C63.3533 97.9198 64.2693 95.4762 66.4999 93.128L66.5799 93.0401C66.5953 93.0226 66.6106 93.0051 66.6257 92.9879H66.6334ZM73.6045 71.665C71.6104 71.665 69.4141 72.5048 67.0158 74.1843C66.9101 74.2583 66.8098 74.3395 66.7151 74.427C64.8204 76.1824 63.9225 78.965 64.0214 82.7749C64.0239 82.8713 64.0313 82.9678 64.0437 83.0636C64.1995 84.2738 64.4605 85.6103 64.8265 87.0733H64.8188C64.0304 87.5488 63.1931 88.2939 62.3069 89.3086H62.3039C58.851 92.9838 57.4654 96.9937 58.1471 101.339L58.1498 101.355C58.5377 103.733 60.1463 105.966 62.9755 108.052H62.9678C63.6477 108.622 64.3253 109.039 65.0005 109.304C65.6574 109.561 66.2869 109.69 66.8888 109.69C67.9203 109.69 68.8713 109.312 69.7416 108.556H69.7338C70.7238 107.772 71.5611 106.691 72.2457 105.313L72.3075 105.181C72.3633 105.052 72.4201 104.922 72.4777 104.792H72.4855C73.6157 106.455 74.7486 107.852 75.8843 108.981C76.4377 109.532 77.1613 109.807 77.8847 109.807C78.613 109.807 79.3414 109.528 79.8956 108.971C81.0005 107.861 80.9958 106.065 79.8852 104.96C78.4249 103.507 76.928 101.429 75.3943 98.726H75.3865C75.8837 97.7541 76.413 96.7433 76.9746 95.6935L77.0648 95.5091C77.9352 93.5544 78.2494 91.8499 78.0074 90.3954C77.8659 89.5449 77.3596 88.8463 76.6753 88.4326H76.6675C77.6367 87.481 78.4751 86.3424 79.1825 85.0169L79.2371 84.9092C80.6728 81.9189 81.4436 79.746 81.5496 78.3906C81.5746 78.0703 81.5703 77.7644 81.5368 77.4738H81.529C81.5328 76.3936 81.092 75.4096 80.2068 74.5215C79.4276 73.7403 78.2095 73.0141 76.5528 72.3432H76.545C75.6192 71.891 74.6391 71.665 73.6045 71.665Z" fill="black"/>
<path d="M86.4522 87.0103C86.4337 87.0103 86.4152 87.0103 86.3965 87.0108C84.8303 87.0407 83.5851 88.335 83.6153 89.9013C83.6294 90.6328 83.654 91.166 83.6891 91.501C83.7151 91.8306 83.7672 92.2844 83.8483 92.8623C83.859 92.963 83.8668 93.0684 83.8739 93.1784C83.8922 93.464 83.8977 93.7775 83.8902 94.1166C83.7981 96.2026 83.6208 98.1642 83.3596 100.001C83.1392 101.552 84.2178 102.988 85.7687 103.209C85.9041 103.228 86.0386 103.237 86.1715 103.237C87.5611 103.237 88.775 102.215 88.9762 100.8C89.2659 98.7616 89.4604 96.5961 89.5598 94.3033L89.5624 94.1803C89.5714 93.7012 89.5628 93.2461 89.5353 92.8175C89.5205 92.5843 89.5002 92.3579 89.4745 92.1384L89.4662 92.0739C89.3952 91.5679 89.3533 91.2174 89.3407 91.0222L89.3312 90.9107C89.313 90.7357 89.2983 90.3627 89.2872 89.7918C89.2574 88.244 87.9933 87.0103 86.4522 87.0103Z" fill="black"/>
<path d="M83.184 82.0658L83.1999 81.0531C83.2246 79.4868 84.5145 78.2369 86.0808 78.2616C87.6472 78.2865 88.8968 79.5761 88.8722 81.1425L88.8562 82.1553C88.8315 83.7215 87.5417 84.9713 85.9753 84.9466C84.4089 84.922 83.1592 83.6321 83.184 82.0658Z" fill="black"/>
<path d="M101.533 96.7496C101.611 97.5423 101.357 98.765 100.769 100.418C100.731 100.517 100.693 100.608 100.657 100.691C100.591 100.634 100.525 100.566 100.457 100.484H100.449C100.167 100.022 99.9524 99.3599 99.806 98.4989H99.7979C100.113 98.3193 100.398 98.0763 100.634 97.772C100.893 97.4371 101.141 97.147 101.375 96.9019C101.427 96.848 101.477 96.7972 101.525 96.7496H101.533ZM101.289 100.87C101.298 100.87 101.308 100.87 101.317 100.87L101.152 100.875C101.196 100.872 101.242 100.87 101.289 100.87ZM104.858 74.2554C104.285 74.2554 103.704 74.3651 103.116 74.5846C101.476 75.1962 99.7337 76.7932 97.8908 79.375L97.7692 79.5604C97.0272 80.7935 96.1108 83.1318 95.02 86.5755L95.0027 86.632C94.4248 88.5976 94.0838 90.4322 93.9795 92.1359L93.9783 92.1575C93.6913 97.5241 94.2618 101.329 95.6896 103.572L95.7968 103.729C97.1798 105.61 98.9185 106.551 101.013 106.551C101.126 106.551 101.24 106.549 101.356 106.543H101.347C102.612 106.532 103.705 106.004 104.626 104.959C105.198 104.311 105.687 103.448 106.094 102.371L106.114 102.319C107.731 97.7715 107.491 94.3629 105.393 92.0928L105.268 91.9654C105.245 91.9438 105.223 91.9236 105.203 91.9047C104.23 91.0034 103.173 90.5529 102.033 90.5529C101.413 90.5529 100.768 90.6858 100.099 90.9518C99.9976 90.9922 99.896 91.0359 99.7946 91.0829C99.9293 90.2079 100.141 89.2765 100.429 88.2887C101.336 85.4244 102.043 83.5361 102.55 82.624H102.542C103.596 81.1524 104.398 80.2676 104.948 79.9691H104.956C105.073 79.9838 105.19 79.991 105.306 79.991C106.55 79.991 107.691 79.1664 108.039 77.909C108.455 76.3989 107.569 74.8369 106.059 74.4196C105.663 74.3101 105.262 74.2554 104.858 74.2554Z" fill="black"/>
<path d="M117.841 76.2764C116.28 76.2764 115.014 77.5366 115.004 79.0958H114.996C114.937 79.402 114.738 79.9414 114.4 80.7139L114.397 80.7211C113.128 83.6378 111.743 86.5903 110.24 89.5785C110.195 89.668 110.155 89.7594 110.119 89.853C109.78 90.7532 109.561 91.4558 109.463 91.9609C109.352 92.5252 109.352 93.0444 109.462 93.5183H109.454C109.466 93.5924 109.48 93.6656 109.495 93.738C109.859 95.4882 110.868 96.7026 112.522 97.3812C113.046 97.6103 113.631 97.7844 114.279 97.9033C115.517 98.1337 116.959 98.3587 118.604 98.5785C118.732 98.5954 118.859 98.6039 118.984 98.6039C120.383 98.6039 121.601 97.5681 121.792 96.1428C121.999 94.5902 120.909 93.1632 119.356 92.9556C117.833 92.7521 116.507 92.5462 115.379 92.3377H115.375L115.303 92.3232C115.29 92.3208 115.278 92.3186 115.266 92.3163H115.258C115.287 92.2346 115.319 92.1469 115.353 92.0532H115.345C116.879 88.9999 118.296 85.979 119.596 82.9905C120.182 81.6531 120.528 80.5712 120.635 79.7448C120.663 79.528 120.677 79.3181 120.677 79.1162C120.679 77.5496 119.41 76.278 117.844 76.2764C117.843 76.2764 117.842 76.2764 117.841 76.2764Z" fill="black"/>
<path d="M119.68 99.8618C118.563 99.9123 117.569 100.622 117.164 101.674H117.157C117.555 100.506 118.393 99.902 119.672 99.8618H119.68ZM120.963 85.1538C119.58 85.1538 118.369 86.1657 118.16 87.5743C117.798 90.0176 117.599 91.6388 117.564 92.4381C117.532 92.8911 117.5 93.349 117.474 93.8116L117.134 99.4136C117.091 100.125 117.055 100.79 117.025 101.407L117.025 101.413C116.995 102.063 116.978 102.455 116.975 102.589C116.971 102.731 116.973 102.868 116.98 103H116.972C116.973 103.321 116.984 103.631 117.006 103.93C117.008 103.963 117.008 103.997 117.01 104.032C117.043 104.492 117.159 105.2 117.36 106.155C117.64 107.492 118.819 108.409 120.133 108.409C120.326 108.409 120.522 108.389 120.719 108.348C122.252 108.026 123.234 106.522 122.912 104.989C122.773 104.332 122.694 103.895 122.673 103.677L122.664 103.517C122.647 103.283 122.641 103.029 122.647 102.753C122.676 101.31 121.617 100.075 120.186 99.8839C120.092 99.8715 119.999 99.8638 119.906 99.8605H119.914C121.735 99.8936 122.646 100.803 122.648 102.588H122.651C122.658 102.418 122.671 102.115 122.691 101.68C122.72 101.084 122.755 100.443 122.796 99.757L123.137 94.1468L123.137 94.1386C123.164 93.6764 123.194 93.2202 123.227 92.7701L123.232 92.6845C123.258 92.0824 123.438 90.6565 123.772 88.407C124.002 86.8572 122.932 85.4149 121.383 85.1849C121.241 85.1641 121.101 85.1538 120.963 85.1538Z" fill="black"/>
<path d="M151.704 92.0464C150.658 92.0464 149.652 92.6272 149.158 93.6284C148.465 95.0333 149.041 96.734 150.446 97.4274C154.493 99.4245 157.345 100.525 159.002 100.73H158.991C159.968 100.885 160.781 100.967 161.431 100.976L161.542 100.975C162.235 100.958 162.848 100.949 163.38 100.949C164.223 100.949 164.863 100.971 165.299 101.015H165.291L169.155 101.643C169.248 101.659 169.342 101.669 169.436 101.675C172.195 101.845 175.011 102.115 177.882 102.486L178.029 102.501L185.493 103.072L185.676 103.079L185.523 103.073H185.514C185.828 103.096 186.238 103.107 186.745 103.107C187.547 103.107 188.591 103.079 189.877 103.022H189.886C190.414 103.023 190.93 103.04 191.434 103.074H191.425L196.639 103.647C197.147 103.705 198.441 103.761 200.522 103.816H200.513C203.427 104.098 205.604 104.243 207.044 104.251H207.035C215.922 105.134 221.289 105.609 223.136 105.674H223.127C223.516 105.71 224.07 105.728 224.788 105.728C226.578 105.728 229.389 105.616 233.222 105.393H233.231C235.064 105.466 236.7 105.503 238.141 105.503C238.665 105.503 239.164 105.498 239.637 105.488H239.648C240.024 105.494 241.225 105.607 243.253 105.826L255.71 107.28C255.795 107.29 255.88 107.296 255.966 107.299L262.112 107.456C262.136 107.457 262.16 107.457 262.184 107.457C262.355 107.457 262.524 107.442 262.691 107.411C262.799 107.392 262.9 107.371 262.994 107.35C264.94 106.906 265.748 105.776 265.417 103.961C265.174 102.624 264.314 101.829 262.835 101.576C262.452 101.511 261.859 101.458 261.059 101.417C261.01 101.415 260.961 101.414 260.913 101.414C260.455 101.414 260.021 101.523 259.636 101.718L256.24 101.631L243.887 100.189L243.863 100.186C241.62 99.9432 240.225 99.8196 239.679 99.815H239.672C239.661 99.815 239.651 99.815 239.64 99.815C239.589 99.815 239.54 99.8158 239.493 99.817H239.483C239.058 99.8255 238.609 99.8297 238.136 99.8297C236.738 99.8297 235.132 99.7926 233.316 99.7184C233.277 99.717 233.238 99.7162 233.2 99.7162C233.144 99.7162 233.089 99.7177 233.034 99.7209C229.094 99.9521 226.357 100.068 224.822 100.068C224.281 100.068 223.89 100.053 223.647 100.025L223.398 100.006C221.766 99.9578 216.453 99.4864 207.46 98.5918C207.366 98.5824 207.27 98.5779 207.176 98.5779C207.171 98.5779 207.166 98.5779 207.16 98.5779C205.89 98.5779 203.822 98.4383 200.959 98.1593L200.758 98.1468C198.775 98.0953 197.618 98.05 197.285 98.011L197.247 98.007L191.968 97.4264L191.848 97.4157C191.19 97.3714 190.518 97.3492 189.835 97.3492C189.83 97.3492 189.824 97.3492 189.819 97.3492L189.696 97.3522C188.422 97.4086 187.44 97.4368 186.749 97.4368C186.396 97.4368 186.118 97.4295 185.917 97.4147H185.915L178.561 96.852H178.552C175.631 96.4759 172.761 96.1994 169.942 96.0223H169.933L166.107 95.3999L165.955 95.3794C165.325 95.3115 164.446 95.2774 163.319 95.2774C162.76 95.2774 162.14 95.2858 161.459 95.3025C161.068 95.2926 160.516 95.2299 159.802 95.1144L159.696 95.0992C158.675 94.9732 156.429 94.0535 152.957 92.34C152.553 92.1409 152.125 92.0464 151.704 92.0464Z" fill="black"/>
<path d="M259.557 145.109L259.073 145.48C258.71 145.759 258.423 146.119 258.232 146.526C258.551 145.793 258.989 145.321 259.547 145.109H259.557ZM263.791 99.0923C262.844 99.0923 261.899 99.5 260.957 100.315C260.896 100.368 260.838 100.42 260.783 100.473L260.777 100.478L260.763 100.492C259.627 101.57 259.58 103.366 260.658 104.502C261.216 105.089 261.965 105.386 262.716 105.386C262.925 105.386 263.134 105.363 263.34 105.317H263.349L269.558 115.595C269.647 115.742 269.75 115.882 269.864 116.011L281.305 128.907H281.296C280.473 129.284 279.719 129.703 279.032 130.164L278.886 130.269L259.977 144.787C259.817 144.731 259.638 144.666 259.439 144.592L259.344 144.558C259.055 144.462 258.75 144.412 258.445 144.412C258.386 144.412 258.327 144.414 258.267 144.417C257.598 144.46 256.949 144.481 256.322 144.481C255.193 144.481 254.131 144.412 253.138 144.276L253.058 144.266L213.421 139.963C213.319 139.952 213.217 139.946 213.115 139.946C213.031 139.946 212.946 139.95 212.862 139.957C212.41 139.998 211.77 140.018 210.943 140.018C208.016 140.018 202.742 139.764 195.121 139.257C195.058 139.253 194.995 139.251 194.932 139.251C194.715 139.251 194.498 139.276 194.286 139.326H194.283C193.05 139.558 186.558 139.877 174.809 140.281L174.801 140.282L174.774 140.283C174.697 140.286 174.62 140.292 174.543 140.301C173.388 140.262 168.856 139.619 160.948 138.37C160.801 138.347 160.653 138.335 160.504 138.335C160.483 138.335 160.462 138.336 160.441 138.336C159.356 138.361 158.325 138.373 157.348 138.373C153.227 138.373 150.079 138.154 147.903 137.716C147.714 137.678 147.526 137.66 147.34 137.66C146.017 137.66 144.833 138.59 144.562 139.937C144.253 141.473 145.247 142.968 146.783 143.277C149.326 143.789 152.87 144.045 157.414 144.045C158.337 144.045 159.301 144.035 160.307 144.014H160.316C168.612 145.322 173.388 145.976 174.645 145.976C174.82 145.976 174.988 145.966 175.149 145.946H175.14C186.44 145.556 193.086 145.221 195.078 144.94H195.087C202.572 145.435 207.886 145.683 211.028 145.683C211.858 145.683 212.536 145.665 213.063 145.631H213.072L252.446 149.906H252.437C253.665 150.071 254.96 150.154 256.322 150.154C256.875 150.154 257.44 150.14 258.017 150.113H258.026C258.761 150.369 259.354 150.536 259.807 150.614C260.119 150.667 260.413 150.694 260.688 150.694C261.683 150.694 262.443 150.345 262.969 149.649H262.959L282.204 134.874H282.195C283.378 134.08 284.953 133.448 286.92 132.978C287.889 132.747 288.666 132.023 288.966 131.072C289.266 130.121 289.044 129.083 288.383 128.337L274.28 112.439L267.6 101.382C267.517 101.244 267.422 101.114 267.316 100.992C267.112 100.756 266.901 100.543 266.684 100.355C265.717 99.513 264.753 99.0923 263.791 99.0923Z" fill="black"/>
<path d="M171.869 108.427C172.154 108.427 172.406 108.492 172.624 108.621C172.724 108.68 172.828 108.733 172.934 108.779H172.926C172.897 108.823 172.866 108.869 172.832 108.917L172.744 109.051C171.081 111.759 169.74 113.431 168.719 114.067L168.591 114.152C168.436 114.26 168.282 114.366 168.129 114.47C168.078 114.075 168.035 113.672 167.998 113.262H167.995C167.93 111.689 168.294 110.483 169.089 109.645H169.081C170.223 108.833 171.152 108.427 171.869 108.427ZM169.981 120.036L169.689 120.533C169.653 120.449 169.619 120.363 169.584 120.278H169.575C169.707 120.198 169.84 120.118 169.972 120.036H169.981ZM164.454 122.72C164.638 123.161 164.833 123.593 165.04 124.016L165.056 124.049C165.513 124.955 165.974 125.834 166.439 126.684H166.43C165.833 127.517 165.088 128.252 164.195 128.89H164.186C164.106 128.925 164.036 128.951 163.977 128.968C163.903 128.876 163.818 128.736 163.724 128.548C163.515 128.135 163.328 127.595 163.163 126.93H163.154C162.908 124.899 162.987 123.676 163.393 123.262L163.479 123.171C163.548 123.094 163.633 123.021 163.734 122.953H163.725C163.964 122.88 164.204 122.803 164.445 122.72H164.454ZM171.89 102.718C169.933 102.718 167.837 103.531 165.604 105.158C165.505 105.23 165.411 105.308 165.323 105.392C163.185 107.417 162.186 110.119 162.327 113.499L162.335 113.622C162.443 114.887 162.61 116.105 162.836 117.275H162.827C162.493 117.396 162.162 117.502 161.837 117.595C161.649 117.649 161.467 117.722 161.294 117.812C160.501 118.229 159.822 118.752 159.257 119.382H159.255C157.633 121.112 157.059 123.888 157.535 127.711C157.547 127.808 157.564 127.906 157.587 128.002C157.867 129.208 158.224 130.242 158.659 131.104C159.18 132.137 159.825 132.951 160.593 133.546C161.556 134.291 162.638 134.664 163.839 134.664C163.916 134.664 163.993 134.663 164.071 134.66H164.076C165.002 134.623 165.953 134.359 166.927 133.867C167.041 133.809 167.152 133.744 167.257 133.671C168.079 133.106 168.827 132.485 169.501 131.808H169.509C170.814 133.785 172.149 135.559 173.512 137.129C174.073 137.775 174.862 138.106 175.655 138.106C176.315 138.106 176.977 137.877 177.514 137.411C178.697 136.384 178.823 134.592 177.796 133.409C176.165 131.532 174.569 129.305 173.007 126.727H172.998C173.455 125.84 173.959 124.777 174.512 123.538H174.503L176.093 120.828C176.886 119.477 176.434 117.739 175.083 116.946C174.824 116.795 174.551 116.688 174.274 116.625H174.265C175.292 115.467 176.369 113.977 177.496 112.155H177.49C178.124 111.243 178.538 110.356 178.732 109.495C179.174 107.529 178.615 105.909 177.054 104.635C176.938 104.541 176.817 104.45 176.691 104.362C176.292 104.085 175.84 103.841 175.335 103.631H175.326C174.232 103.022 173.087 102.718 171.89 102.718Z" fill="black"/>
<path d="M202.394 120.896C201.92 121.34 201.357 121.562 200.704 121.562C200.521 121.562 200.33 121.544 200.131 121.509H200.141C200.289 121.532 200.438 121.544 200.584 121.544C201.252 121.544 201.886 121.306 202.385 120.896H202.394ZM186.218 115.537C185.23 115.537 184.27 116.054 183.748 116.976C182.976 118.338 183.454 120.069 186.215 121.21L184.823 120.843H184.814C184.92 120.935 185.049 121.13 185.201 121.427L185.206 121.435C187.653 126.186 189.173 129.353 189.768 130.938H189.764C190.021 131.665 190.521 132.241 191.266 132.665C191.541 132.821 191.839 132.93 192.149 132.988C192.375 133.03 192.593 133.051 192.804 133.051C193.874 133.051 194.756 132.51 195.45 131.427C195.514 131.328 195.571 131.224 195.622 131.117C196.524 129.224 197.273 127.858 197.87 127.017C200.436 123.506 201.976 121.439 202.487 120.816H202.478C202.902 120.436 203.216 119.925 203.35 119.326C203.692 117.798 202.73 116.281 201.201 115.939C200.967 115.886 200.739 115.86 200.518 115.86C199.702 115.86 198.978 116.217 198.345 116.931C197.854 117.485 196.169 119.731 193.29 123.668L193.271 123.695L193.247 123.727C193.146 123.87 193.043 124.021 192.937 124.182C192.205 122.678 191.314 120.905 190.261 118.862L190.247 118.834C189.695 117.759 189.026 116.921 188.24 116.32C188.039 116.167 187.829 116.028 187.614 115.906C187.173 115.656 186.692 115.537 186.218 115.537Z" fill="black"/>
<path d="M217.786 121.398C218.226 121.689 218.573 122.04 218.824 122.448H218.815C218.954 122.775 219.018 123.012 219.009 123.159C218.995 123.269 218.988 123.381 218.988 123.493C218.983 124.947 218.763 126.294 218.327 127.534C217.934 128.56 217.199 129.303 216.123 129.765H216.114C215.838 129.839 215.553 129.876 215.26 129.876C214.506 129.876 213.694 129.63 212.825 129.139H212.821C212.364 128.849 212.022 128.047 211.795 126.732H211.786C211.713 125.274 212.255 123.78 213.412 122.25C213.622 121.973 214.13 121.834 214.937 121.834C215.22 121.834 215.54 121.851 215.897 121.885C215.989 121.894 216.08 121.899 216.171 121.899C216.761 121.899 217.316 121.715 217.776 121.398H217.786ZM214.772 114.746C214.047 114.746 213.373 114.848 212.752 115.051C212.102 115.264 211.522 115.582 211.012 116.004L211 116.014C209.706 117.097 208.734 118.314 208.084 119.663C207.97 119.899 207.892 120.144 207.847 120.39H207.838C206.557 122.569 205.986 124.816 206.126 127.13C206.132 127.22 206.141 127.309 206.155 127.398C206.648 130.532 207.857 132.709 209.783 133.93L209.872 133.984C211.677 135.038 213.46 135.564 215.221 135.564C216.135 135.564 217.043 135.423 217.944 135.139L218.161 135.061C220.85 133.97 222.684 132.103 223.663 129.46L223.678 129.416C224.324 127.582 224.651 125.623 224.66 123.541H224.669C224.745 122.407 224.485 121.192 223.887 119.893C223.849 119.809 223.806 119.727 223.76 119.648C222.126 116.852 219.288 115.225 215.245 114.767L215.011 114.75C214.931 114.747 214.851 114.746 214.772 114.746Z" fill="black"/>
<path d="M226.018 115.949C225.086 115.949 224.172 116.408 223.63 117.251C222.58 118.883 221.869 121.031 221.5 123.694C221.167 125.934 221.206 127.683 221.617 128.941C221.724 129.266 221.856 129.57 222.013 129.849H222.004C222.757 131.436 224.163 132.652 226.219 133.498C227.502 134.048 228.8 134.323 230.116 134.323C230.672 134.323 231.232 134.274 231.795 134.176C233.338 133.905 234.37 132.436 234.099 130.892C233.858 129.515 232.661 128.545 231.309 128.545C231.146 128.545 230.982 128.559 230.816 128.588C230.591 128.627 230.365 128.647 230.139 128.647C229.571 128.647 229.001 128.522 228.429 128.274L228.376 128.251C227.652 127.953 227.232 127.666 227.117 127.391C227.086 127.318 227.053 127.247 227.017 127.177H227.009C226.874 126.765 226.909 125.874 227.114 124.504L227.119 124.474C227.374 122.637 227.801 121.253 228.401 120.321C229.248 119.004 228.868 117.249 227.551 116.401C227.076 116.095 226.544 115.949 226.018 115.949Z" fill="black"/>
<path d="M247.084 111.324C244.338 111.324 241.905 112.594 239.783 115.134H239.774C238.858 115.638 238.314 116.593 238.306 117.597H238.296C237.663 119.104 237.305 120.897 237.221 122.974C236.917 127.334 237.039 130.28 237.59 131.811C238.121 133.29 239.063 134.14 240.413 134.361C240.564 134.386 240.717 134.398 240.871 134.398C240.891 134.398 240.912 134.398 240.933 134.397C242.504 134.363 243.514 133.48 243.964 131.749C244.091 131.263 244.18 130.634 244.231 129.862L244.237 129.695C244.278 124.422 244.242 120.787 244.13 118.791H244.12C245.104 117.609 246.086 117.011 247.068 116.997H247.077C248.028 117.101 248.853 117.779 249.551 119.032C250.07 119.963 251.036 120.488 252.031 120.488C252.498 120.488 252.972 120.372 253.409 120.128C254.778 119.365 255.269 117.638 254.506 116.27C252.799 113.207 250.439 111.561 247.428 111.333L247.274 111.326C247.211 111.324 247.147 111.324 247.084 111.324Z" fill="black"/>
<path d="M115.71 258.272C114.741 258.272 113.798 258.768 113.268 259.662C112.926 260.238 112.678 260.8 112.524 261.349C112.454 261.599 112.403 261.847 112.371 262.092H112.368C112.338 262.273 112.313 262.458 112.294 262.647L112.294 262.649L111.989 265.689L111.982 265.764C111.923 266.567 111.898 267.148 111.908 267.506C111.91 267.552 111.912 267.595 111.914 267.636C111.918 267.824 111.924 268.006 111.936 268.18L111.943 268.269C111.985 268.684 112.016 269.082 112.038 269.464C112.05 269.703 112.058 269.936 112.06 270.163C112.075 271.72 113.342 272.972 114.896 272.972C114.905 272.972 114.914 272.972 114.924 272.972C116.49 272.957 117.748 271.674 117.733 270.108C117.729 269.795 117.719 269.477 117.702 269.154L117.702 269.144C117.677 268.708 117.642 268.258 117.597 267.793C117.59 267.688 117.584 267.573 117.582 267.449L117.579 267.345C117.574 267.187 117.593 266.824 117.634 266.255L117.938 263.215C117.947 263.133 117.958 263.057 117.971 262.987L117.988 262.881C118.007 262.812 118.059 262.704 118.147 262.556C118.946 261.209 118.502 259.468 117.154 258.669C116.7 258.4 116.202 258.272 115.71 258.272Z" fill="black"/>
<path d="M0.289233 259.545C0.167536 261.405 0.0434601 263.292 -0.0830078 265.206H-0.0759151C10.2409 265.522 16.2379 266.187 17.9152 267.199C18.0964 267.309 18.2889 267.397 18.4899 267.464C21.1307 268.338 24.6423 270.19 29.0247 273.022C32.8671 275.602 36.4463 278.584 39.7635 281.966C39.8684 282.072 39.9817 282.171 40.1022 282.26C43.479 284.757 45.8942 286.258 47.348 286.765H47.3404C49.4566 287.688 52.5978 288.732 56.7639 289.897L56.9711 289.947L79.0394 294.364L79.0827 294.372C80.4772 294.629 84.1927 296.196 90.2289 299.072C90.3284 299.119 90.4304 299.161 90.5344 299.196H90.5265C91.847 300.155 94.9989 304.246 99.9821 311.469C100.059 311.581 100.144 311.687 100.236 311.786H100.228C100.875 312.864 102.257 316.696 104.376 323.281C104.763 324.484 105.877 325.25 107.075 325.25C107.363 325.25 107.656 325.206 107.945 325.113C109.436 324.633 110.256 323.036 109.776 321.544C107.429 314.249 105.801 309.917 104.892 308.55C104.789 308.396 104.683 308.254 104.574 308.124H104.566C99.0466 300.131 95.345 295.535 93.4612 294.334C93.1318 294.125 92.8024 293.964 92.473 293.854H92.4649C86.1437 290.847 82.0398 289.163 80.1533 288.801L58.2146 284.41H58.2071C54.2514 283.302 51.3464 282.336 49.492 281.514C49.3993 281.473 49.3036 281.436 49.207 281.405C48.3819 281.141 46.5396 279.956 43.6802 277.85H43.6727C40.1115 274.238 36.2685 271.049 32.1437 268.283L32.103 268.256C27.4542 265.253 23.601 263.224 20.5432 262.17H20.536C17.8348 260.781 11.0883 259.906 0.296264 259.545H0.289233Z" fill="black"/>
<path d="M188.761 207.891C188.358 207.891 187.946 207.963 187.523 208.108C186.042 208.617 185.253 210.23 185.762 211.712C185.878 212.051 186.052 212.354 186.27 212.613H186.261C186.076 213.31 185.752 214.275 185.289 215.507H185.28C182.975 220.337 179.539 225.672 174.972 231.514L174.938 231.559C174.721 231.847 174.562 232.174 174.467 232.523C170.718 246.377 167.22 255.251 163.973 259.145H163.97C158.71 264.985 155.518 268.251 154.394 268.944H154.385C153.948 269.122 153.56 269.408 153.259 269.775H153.251C152.213 270.698 148.287 272.466 141.472 275.08C141.275 275.156 141.087 275.253 140.912 275.37C137.29 277.792 134.204 280.222 131.653 282.661H131.645C129.616 284.334 127.606 287.209 125.615 291.286C115.024 279.32 106.061 270.994 98.7265 266.308C96.2024 264.62 94.2974 263.575 93.0138 263.174L93.0056 263.171L68.8696 255.711L68.8232 255.697C66.067 254.896 60.4024 249.922 51.8294 240.774C51.7225 240.66 51.6065 240.555 51.4823 240.46C49.3258 238.812 46.3235 237.048 42.4754 235.169C42.3654 235.115 42.2518 235.069 42.1358 235.03C33.7745 232.215 25.9828 230.807 18.7608 230.807C12.7545 230.807 7.14231 231.781 1.9241 233.728H1.93113C1.82196 235.503 1.70982 237.311 1.59473 239.152H1.60182C1.92131 239.273 2.26323 239.338 2.61128 239.338C2.94783 239.338 3.29 239.277 3.62311 239.15C8.27591 237.372 13.3245 236.483 18.769 236.483C25.3295 236.483 32.4647 237.774 40.1746 240.355H40.1671C43.4926 241.988 46.064 243.486 47.8814 244.849H47.8738C57.058 254.63 63.5136 260.061 67.2406 261.144L91.3302 268.591C92.0941 268.833 93.5076 269.643 95.5713 271.024L95.6244 271.058C103.166 275.863 112.707 284.958 124.248 298.346C124.791 298.976 125.578 299.33 126.396 299.33C126.547 299.33 126.699 299.318 126.851 299.293C127.824 299.135 128.645 298.483 129.02 297.571C131.291 292.038 133.396 288.505 135.335 286.972C135.406 286.916 135.473 286.857 135.539 286.795C137.795 284.632 140.546 282.457 143.792 280.269H143.784C151.075 277.462 155.518 275.35 157.11 273.932H157.102C157.134 273.914 157.167 273.895 157.2 273.876C158.798 272.946 162.485 269.274 168.259 262.86L168.329 262.779C172.057 258.308 175.877 248.907 179.789 234.575H179.78C184.499 228.49 188.072 222.878 190.5 217.739L190.59 217.526C191.604 214.834 192.113 212.859 192.117 211.602C192.122 209.822 191.395 208.657 189.936 208.107C189.554 207.963 189.163 207.891 188.761 207.891Z" fill="black"/>
<path d="M209.412 200.807C208.197 200.807 207.073 201.594 206.7 202.817L204.83 208.953C204.713 209.334 204.679 209.736 204.728 210.132C204.989 212.213 204.264 218.53 202.555 229.084H202.547C200.584 237.251 198.917 243.387 197.544 247.491C197.504 247.612 197.472 247.735 197.448 247.86L195.459 258.303H195.45C195.143 259.37 194.882 260.082 194.668 260.439H194.659C185.981 272.235 177.914 281.026 170.457 286.813C170.185 287.024 169.956 287.281 169.779 287.569H169.77C168.409 288.657 163.451 291.242 154.897 295.323L154.699 295.427C152.889 296.474 150.972 298.218 148.948 300.659H148.939C142.38 307.393 139.116 314.861 139.149 323.063C139.155 324.626 140.424 325.888 141.985 325.888C141.989 325.888 141.993 325.888 141.996 325.888C143.563 325.882 144.828 324.607 144.822 323.041C144.795 316.336 147.563 310.153 153.127 304.491L153.289 304.311C154.839 302.438 156.215 301.137 157.417 300.41H157.409C166.902 295.879 172.383 292.921 173.85 291.534C174.043 291.352 174.212 291.164 174.358 290.971H174.349C182.14 284.833 190.476 275.719 199.356 263.627L199.484 263.438C199.993 262.613 200.488 261.344 200.97 259.628L201.026 259.392L202.973 249.172H202.964C204.392 244.878 206.109 238.554 208.113 230.199L208.155 229.991C209.811 219.765 210.564 213.141 210.415 210.117H210.406L212.127 204.471C212.584 202.973 211.739 201.388 210.241 200.931C209.965 200.847 209.686 200.807 209.412 200.807Z" fill="black"/>
<path d="M190.269 197.631C189.712 197.631 189.104 197.83 188.445 198.228C188.159 198.401 187.879 198.63 187.607 198.914C187.584 198.938 187.561 198.962 187.539 198.985C186.474 200.134 186.543 201.929 187.692 202.994C187.714 203.015 187.738 203.036 187.761 203.056H187.752C187.751 203.091 187.749 203.119 187.748 203.142L187.741 203.197L187.707 203.584H187.705C187.601 204.409 187.513 205.188 187.441 205.923L187.439 205.938C187.353 206.862 187.309 207.515 187.308 207.895L187.308 207.935C187.311 208.185 187.327 208.428 187.357 208.663C187.554 210.186 188.266 211.302 189.492 212.012C189.94 212.272 190.428 212.395 190.911 212.395C191.89 212.395 192.842 211.888 193.368 210.98C194.006 209.878 193.82 208.526 193.001 207.637H192.992C193.007 207.376 193.039 206.99 193.086 206.479C193.156 205.766 193.243 205.004 193.346 204.192L193.358 204.085L193.392 203.698C193.397 203.648 193.403 203.597 193.406 203.544C193.424 203.293 193.432 202.908 193.429 202.387L193.428 202.307C193.417 202.004 193.394 201.714 193.359 201.437L193.355 201.41C193.306 201.059 193.243 200.743 193.165 200.46C193.003 199.875 192.76 199.38 192.437 198.975H192.428C191.824 198.079 191.104 197.631 190.269 197.631Z" fill="black"/>
<path d="M61.6173 190.617C61.1736 190.917 60.6958 191.072 60.1841 191.082C60.6819 191.059 61.1671 190.903 61.6096 190.617H61.6173ZM93.8408 184.163C92.6168 184.163 91.2252 184.242 89.6658 184.4H89.6578C89.5938 184.401 89.5285 184.404 89.4619 184.407C88.6062 184.459 85.2782 184.971 79.4793 185.943H79.4714C78.0514 186.121 76.8183 186.212 75.7722 186.216H75.7803L75.6772 186.218H75.6745C75.6724 186.218 75.6701 186.218 75.6677 186.218L75.6337 186.22C75.5837 186.222 75.5148 186.223 75.4272 186.223C74.9635 186.223 73.9738 186.19 72.4581 186.124H72.4503C64.9033 185.656 60.8077 185.418 60.1636 185.41H60.1688C60.152 185.41 60.1354 185.41 60.1188 185.41C60.0824 185.41 60.0462 185.41 60.0103 185.411L52.371 185.262C51.3356 185.241 48.625 185.112 44.2367 184.873L44.1583 184.87C41.0152 184.787 37.2797 184.674 32.9518 184.534L32.9316 184.533C32.2224 184.515 31.5227 184.506 30.8324 184.506C30.6153 184.506 30.399 184.507 30.1837 184.509L30.1546 184.509C27.0859 184.566 24.2225 184.694 21.5643 184.895L21.4725 184.903C15.2953 185.571 9.58995 186.109 4.35647 186.516H4.36357C4.33458 187.818 4.25993 189.478 4.13965 191.496C4.19278 191.629 4.24789 191.866 4.30496 192.21C9.71501 191.795 15.6221 191.242 22.0263 190.549H22.019C24.5565 190.359 27.3011 190.236 30.253 190.181H30.2466C30.4376 190.18 30.6296 190.179 30.8226 190.179C31.4664 190.179 32.1214 190.187 32.7877 190.204H32.7828C37.1063 190.345 40.8405 190.457 43.9853 190.541H43.9779C48.3977 190.781 51.158 190.911 52.2589 190.933L59.9973 191.085C60.0157 191.085 60.034 191.085 60.0524 191.085C60.0838 191.085 60.1153 191.085 60.1466 191.084H60.1542C60.887 191.103 64.8706 191.338 72.1051 191.787L72.1575 191.79C73.7452 191.859 74.8578 191.894 75.4952 191.894C75.6287 191.894 75.7413 191.892 75.8331 191.889H75.8252C77.1161 191.882 78.5985 191.773 80.2725 191.56L80.384 191.544C85.8368 190.63 88.9552 190.14 89.7393 190.075H89.7473C89.7604 190.075 89.7736 190.075 89.7867 190.075C89.885 190.075 89.9832 190.07 90.0813 190.06C91.5177 189.91 92.7667 189.835 93.8284 189.835C94.2142 189.835 94.5753 189.845 94.9116 189.865L94.9565 189.867C95.7393 189.901 96.4376 189.971 97.0513 190.077H97.0432C99.6579 190.823 101.429 191.222 102.358 191.274H102.361C102.413 191.277 102.464 191.279 102.514 191.281H102.506C106.424 191.546 109.654 191.877 112.195 192.271L112.439 192.298C113.194 192.349 113.972 192.375 114.773 192.375C115.133 192.375 115.498 192.37 115.868 192.359H115.876C116.002 192.364 116.134 192.379 116.272 192.405L116.696 192.444L116.294 192.407H116.286C116.541 192.454 116.73 192.505 116.853 192.559H116.845C117.356 193.47 118.316 194.004 119.318 194.004C119.7 194.004 120.087 193.927 120.459 193.763C121.893 193.132 122.543 191.458 121.912 190.024C121.525 189.145 120.908 188.427 120.063 187.869C119.314 187.376 118.397 187.029 117.313 186.828C116.837 186.739 116.366 186.692 115.902 186.686L115.78 186.687C115.441 186.697 115.107 186.702 114.778 186.702C114.152 186.702 113.544 186.684 112.954 186.647H112.946C110.25 186.233 106.877 185.89 102.829 185.616L102.799 185.615L102.791 185.614L102.679 185.61C102.155 185.581 100.745 185.237 98.453 184.579C98.3634 184.554 98.2724 184.532 98.1808 184.515C97.2987 184.354 96.3219 184.25 95.2505 184.202H95.2442C94.8038 184.176 94.336 184.163 93.8408 184.163Z" fill="black"/>
<path d="M154.151 191.292C154.784 191.39 155.31 191.703 155.727 192.232C155.323 191.757 154.767 191.422 154.143 191.292H154.151ZM156.253 193.134C156.863 194.536 156.471 195.649 155.076 196.474H155.073C156.112 195.824 156.62 194.573 156.317 193.375C156.296 193.293 156.272 193.212 156.245 193.134H156.253ZM142.849 190.393C142.08 190.393 141.314 190.459 140.551 190.589L140.549 190.59L140.47 190.606L140.416 190.616C138.946 190.94 137.976 192.367 138.234 193.866C138.469 195.234 139.648 196.204 141.08 196.204C141.247 196.204 141.417 196.191 141.59 196.163H141.598L141.512 196.18C141.956 196.104 142.401 196.066 142.849 196.066C142.972 196.066 143.095 196.069 143.218 196.075H143.209C147.715 196.568 151.049 196.843 153.212 196.9H153.203C153.356 196.92 153.516 196.931 153.681 196.933C153.694 196.933 153.709 196.933 153.723 196.933C154.532 196.933 157.427 196.727 162.407 196.316H162.398C162.638 196.307 162.88 196.303 163.122 196.303C163.985 196.303 164.865 196.361 165.764 196.478C167.353 196.7 168.869 196.999 170.312 197.374H170.304C177.176 199.51 181.79 200.747 184.145 201.085H184.141C185.564 201.321 187.281 201.512 189.292 201.656L189.472 201.664C193.654 201.699 196.074 201.774 196.73 201.889H196.732L196.83 201.911L212.677 204.859L212.813 204.881C222.651 206.223 228.189 207.042 229.425 207.338L229.576 207.37C241.309 209.514 248.277 211.057 250.48 211.999C250.76 212.119 251.054 212.191 251.352 212.217H251.342C251.563 212.298 251.895 212.432 252.338 212.622C252.341 212.495 252.345 212.369 252.348 212.242H252.339C252.22 212.261 252.097 212.271 251.97 212.271C251.811 212.271 251.646 212.256 251.475 212.225H251.484C251.521 212.227 251.558 212.227 251.595 212.227C251.846 212.227 252.098 212.194 252.342 212.127H252.352C252.406 210.419 252.519 208.608 252.693 206.695H252.702C252.691 206.691 252.68 206.688 252.669 206.685C252.503 206.638 252.341 206.6 252.184 206.571H252.175C249.199 205.471 242.042 203.884 230.707 201.81H230.697C229.204 201.463 223.531 200.618 213.681 199.274H213.672L197.868 196.333H197.877C197.823 196.322 197.768 196.312 197.711 196.302C196.755 196.134 194.058 196.03 189.621 195.992H189.612C187.788 195.859 186.257 195.688 185.018 195.48L184.951 195.47C182.882 195.173 178.525 193.991 171.881 191.924L171.753 191.887C170.086 191.454 168.342 191.11 166.522 190.856L166.496 190.852C165.354 190.704 164.229 190.629 163.123 190.629C162.789 190.629 162.456 190.636 162.126 190.65L162.008 190.657C157.485 191.031 154.792 191.231 153.93 191.257C153.827 191.244 153.723 191.236 153.617 191.234C151.634 191.199 148.355 190.931 143.778 190.43L143.586 190.413C143.34 190.4 143.094 190.393 142.849 190.393Z" fill="black"/>
<path d="M2.01109 232.423C1.89896 234.253 1.7836 236.12 1.66504 238.022C2.0537 237.926 2.42839 237.747 2.76117 237.48C3.98311 236.5 4.17903 234.714 3.19874 233.492C2.85392 233.063 2.46039 232.706 2.01818 232.423H2.01109Z" fill="black"/>
<path d="M255.133 210.044C255.791 211.472 255.38 212.617 253.898 213.48C254.83 212.934 255.371 211.905 255.294 210.827C255.274 210.555 255.216 210.292 255.123 210.044H255.133ZM252.494 206.801C252.355 206.801 252.243 206.835 252.173 206.904L251.107 207.112C251.022 207.146 250.939 207.182 250.859 207.219L250.856 207.22C248.791 208.167 248.141 209.584 248.906 211.471C249.214 212.23 249.792 212.841 250.641 213.306C250.77 213.377 250.91 213.447 251.059 213.515H251.049C251.183 213.596 251.325 213.67 251.476 213.737C252.077 214.006 253.751 214.574 256.496 215.441H256.487C257.867 216.068 258.775 216.455 259.209 216.602C259.331 216.644 259.447 216.678 259.555 216.704H259.549C261.423 217.228 262.555 217.586 262.946 217.781L263.101 217.857C264.409 218.448 265.713 219.086 267.013 219.772C267.095 219.815 267.178 219.854 267.263 219.889H267.253C267.633 220.108 268.558 220.704 270.028 221.678C270.132 221.747 270.241 221.809 270.354 221.864L273.914 223.594C274.313 223.789 274.736 223.88 275.152 223.88C276.203 223.88 277.214 223.293 277.705 222.283C278.39 220.875 277.803 219.177 276.394 218.492L273.04 216.862H273.031C271.341 215.744 270.27 215.065 269.818 214.825C269.743 214.785 269.668 214.748 269.593 214.714H269.583C268.216 213.995 266.845 213.324 265.468 212.701H265.472C264.758 212.346 263.279 211.855 261.034 211.229H261.029C260.757 211.137 259.969 210.794 258.666 210.2L258.627 210.183L258.619 210.179C258.526 210.139 258.431 210.103 258.335 210.073C256.828 209.597 255.687 209.228 254.912 208.966H254.902C254.874 208.868 254.841 208.771 254.802 208.674C254.32 207.486 253.123 206.801 252.494 206.801Z" fill="black"/>
</g>
<defs>
<clipPath id="clip0_149_3">
<rect width="316" height="326.194" fill="white"/>
</clipPath>
</defs>
</svg>
