<svg width="990" height="1095" viewBox="0 0 990 1095" fill="none" xmlns="http://www.w3.org/2000/svg">
<g clip-path="url(#clip0_151_193)">
<path d="M377.058 140.2C406.976 140.2 438.595 145.84 471.916 157.121C472.432 157.295 472.957 157.378 473.474 157.378C475.499 157.378 477.389 156.102 478.075 154.077C478.935 151.536 477.572 148.778 475.031 147.918C470.062 146.236 465.13 144.674 460.235 143.233H460.241C544.624 151.587 621.374 206.642 690.491 308.396C690.588 308.54 690.694 308.678 690.807 308.811C734.706 360.485 745.667 443.004 723.692 556.366C723.677 556.44 723.665 556.514 723.654 556.589C713.586 625.554 657.922 683.614 556.662 730.769H556.655C523.902 740.708 490.805 745.678 457.364 745.678C400.198 745.678 342.028 731.155 282.854 702.108C282.771 702.068 282.687 702.03 282.602 701.994C225.223 677.769 176.923 622.983 137.7 537.636H137.698C110.252 472.031 107.947 404.837 130.785 336.052H130.783C193.18 205.484 275.272 140.2 377.058 140.2ZM376.246 130.285C270.912 130.285 186.128 197.565 121.892 332.124C121.806 332.305 121.73 332.491 121.667 332.682C97.9523 403.884 100.311 473.46 128.744 541.408C128.766 541.46 128.788 541.51 128.811 541.561C169.072 629.219 219.043 685.667 278.724 710.903H278.72C339.223 740.578 398.755 755.415 457.316 755.415C491.824 755.415 525.995 750.263 559.829 739.959C560.045 739.893 560.257 739.812 560.462 739.716C664.975 691.112 722.566 630.611 733.235 558.215H733.23C755.764 441.975 744.161 356.826 698.421 302.768H698.414C622.114 190.51 536.234 133.727 440.771 132.419C440.748 132.418 440.726 132.418 440.703 132.418C438.127 132.418 436.008 134.429 435.855 136.983C415.304 132.518 395.434 130.285 376.246 130.285Z" fill="black"/>
<path d="M402.433 238.583C433.61 238.583 469.614 244.1 510.446 255.135H510.44C510.796 257.303 512.601 259.025 514.889 259.188C527.802 260.106 552.66 277.5 589.463 311.369H589.459C623.998 345.287 644.208 367.464 650.087 377.901C650.227 378.15 650.39 378.387 650.572 378.608C679.641 413.84 691.533 457.226 686.246 508.767C686.144 509.762 686.352 510.757 686.832 511.621H686.824C687.795 517.752 679.778 544.431 662.772 591.657H662.764C647.312 611.967 630.875 628.694 613.451 641.839C613.357 641.91 613.266 641.984 613.177 642.061C582.582 668.845 548.288 682.237 510.294 682.237C503 682.237 495.57 681.743 488.003 680.756H487.997C408.692 663.473 346.775 634.312 302.244 593.273C301.92 592.974 301.556 592.721 301.163 592.52C297.154 590.47 288.277 577.704 274.531 554.22H274.528L235.262 461.811C228.102 444.748 224.844 427.007 225.487 408.588H225.484C234.145 364.728 244.947 330.832 257.889 306.9C257.917 306.848 257.944 306.795 257.971 306.741C265.908 290.682 285.754 274.551 317.509 258.348C317.589 258.307 317.667 258.265 317.744 258.22C340.247 245.129 368.476 238.583 402.433 238.583ZM402.439 228.91C366.725 228.91 336.894 235.864 312.945 249.771H312.941C279.362 266.925 258.135 284.481 249.26 302.436H249.257C235.85 327.289 224.725 362.166 215.881 407.068C215.832 407.317 215.802 407.569 215.793 407.822C215.034 427.822 218.54 447.078 226.312 465.591L226.32 465.61L265.697 558.283C265.778 558.473 265.871 558.657 265.975 558.835C280.206 583.169 290.236 597.153 296.064 600.786H296.06C341.889 642.855 405.243 672.69 486.122 690.291C486.254 690.32 486.387 690.343 486.521 690.361C494.642 691.43 502.614 691.964 510.438 691.964C550.688 691.964 587.008 677.819 619.399 649.528H619.391C637.674 635.72 654.867 618.183 670.97 596.916C671.266 596.525 671.501 596.092 671.668 595.631C689.72 545.543 697.919 516.757 696.264 509.274C696.203 508.997 696.131 508.73 696.048 508.473H696.04C701.257 454.97 688.696 409.739 658.358 372.779H658.35C651.783 361.407 631.052 338.591 596.156 304.328C596.119 304.292 596.081 304.255 596.042 304.22C572.152 282.234 552.754 266.867 537.849 258.119H537.842C537.85 258.093 537.858 258.068 537.866 258.042C538.647 255.476 537.199 252.762 534.632 251.981C484.062 236.601 439.997 228.91 402.439 228.91Z" fill="black"/>
<path d="M631.675 352.831C630.978 352.831 630.271 352.981 629.6 353.299C627.175 354.446 626.139 357.343 627.287 359.768C636.579 379.406 641.157 401.599 641.021 426.347C641.02 426.486 641.025 426.625 641.037 426.764C641.851 436.863 637.282 456.375 627.327 485.301C627.304 485.368 627.283 485.435 627.263 485.503C618.243 515.965 593.228 550.46 552.218 588.987H552.211C521.192 610.748 494.989 621.628 473.602 621.628C472.202 621.628 470.823 621.582 469.464 621.488C469.353 621.481 469.242 621.477 469.131 621.477C469.056 621.477 468.981 621.479 468.907 621.482C449.885 622.362 433.292 622.802 419.126 622.802C408.406 622.802 399.076 622.55 391.137 622.046H391.132C347.144 616.052 321.464 610.013 314.093 603.93C313.188 603.183 312.092 602.818 311.003 602.818C309.604 602.818 308.215 603.42 307.254 604.584C305.546 606.653 305.839 609.715 307.908 611.423C316.711 618.688 344.072 625.446 389.99 631.696C390.104 631.712 390.219 631.723 390.334 631.731C398.506 632.255 408.104 632.517 419.127 632.517C433.39 632.517 450.041 632.078 469.079 631.201H469.084C470.553 631.295 472.04 631.342 473.546 631.342C497.092 631.342 525.278 619.802 558.105 596.721C558.291 596.589 558.468 596.445 558.635 596.289C600.973 556.556 626.935 520.614 636.519 488.463H636.514C646.816 458.529 651.559 437.806 650.745 426.294H650.737C650.867 400.115 645.978 376.555 636.069 355.612C635.239 353.858 633.494 352.831 631.675 352.831Z" fill="black"/>
<path d="M186.178 259.544C184.475 259.544 182.822 260.441 181.932 262.034C180.624 264.376 181.462 267.335 183.804 268.644C191.344 272.856 195.582 275.314 196.52 276.02H196.518C196.654 276.13 196.795 276.233 196.942 276.328C198.745 277.498 203.016 280.781 209.754 286.178L209.756 286.18L209.76 286.183C209.92 286.311 210.087 286.428 210.261 286.534C211.971 287.579 213.785 288.294 215.703 288.677C216.025 288.742 216.345 288.773 216.661 288.773C218.929 288.773 220.958 287.176 221.42 284.866C221.946 282.236 220.239 279.676 217.608 279.15C216.905 279.01 216.226 278.755 215.572 278.388H215.569C208.971 273.106 204.601 269.753 202.459 268.328H202.456C202.426 268.305 202.394 268.281 202.363 268.257C201.073 267.287 196.467 264.588 188.542 260.162C187.793 259.743 186.98 259.544 186.178 259.544Z" fill="black"/>
<path d="M197.295 275.854C196.518 275.854 195.729 276.041 194.997 276.436C192.354 277.858 190.068 280.611 188.14 284.695L188.099 284.784C186.624 288.079 186.231 291.247 186.923 294.289C186.937 294.354 186.954 294.42 186.971 294.484C188.902 301.607 193.188 306.611 199.827 309.497C200.187 309.654 200.565 309.766 200.951 309.831C201.456 309.917 201.972 309.96 202.498 309.96C202.5 309.96 202.501 309.96 202.503 309.96C207.404 309.957 213.88 305.663 221.933 297.076C223.293 295.634 223.975 293.831 223.979 291.667C223.984 289.178 222.953 286.102 220.886 282.441C219.993 280.859 218.346 279.97 216.651 279.97C215.842 279.97 215.022 280.172 214.267 280.599C211.931 281.917 211.106 284.881 212.425 287.217C213.416 288.973 214.007 290.275 214.196 291.122H214.193C208.778 296.825 205.012 299.853 202.897 300.209C199.611 298.539 197.442 295.833 196.39 292.093H196.387C196.195 291.19 196.375 290.107 196.927 288.844H196.926C197.944 286.687 198.836 285.403 199.601 284.991C201.964 283.72 202.848 280.774 201.577 278.411C200.7 276.781 199.025 275.854 197.295 275.854Z" fill="black"/>
<path d="M182.002 315.629C181.653 315.629 181.311 315.637 180.977 315.653H180.974C178.06 315.767 175.795 316.172 174.178 316.867C173.556 317.134 172.998 317.451 172.502 317.819H172.499C172.165 318.031 171.835 318.276 171.51 318.555C170.235 319.649 168.829 321.501 167.293 324.109C165.741 326.67 165.057 329.742 165.243 333.324H165.241C165.326 336.376 166.082 339.03 167.509 341.286C167.55 341.35 167.592 341.413 167.635 341.475C171.022 346.31 176.873 350.33 185.189 353.535C185.763 353.756 186.354 353.861 186.935 353.861C188.885 353.861 190.725 352.678 191.469 350.749C192.434 348.245 191.186 345.434 188.683 344.469C182.295 342.007 177.962 339.194 175.684 336.029H175.681C175.22 335.267 174.977 334.249 174.951 332.974C174.95 332.923 174.948 332.872 174.946 332.821C174.862 331.215 175.085 329.982 175.615 329.123L175.665 329.04C176.605 327.443 177.305 326.428 177.766 325.993H177.763C177.89 325.917 178.012 325.836 178.131 325.749H178.128C178.687 325.551 179.773 325.422 181.385 325.36L181.435 325.358C181.626 325.349 181.823 325.344 182.026 325.344C183.465 325.344 185.216 325.575 187.279 326.038C187.369 326.058 187.459 326.076 187.549 326.091H187.547C188.63 326.339 192.437 327.67 198.969 330.084C199.524 330.289 200.093 330.387 200.652 330.387C202.628 330.387 204.485 329.173 205.21 327.212C206.14 324.695 204.854 321.901 202.337 320.971C195.302 318.37 191.049 316.91 189.578 316.589C189.48 316.568 189.385 316.549 189.293 316.532H189.29C186.576 315.93 184.147 315.629 182.002 315.629Z" fill="black"/>
<path d="M162.891 373.221C164.488 373.221 166.922 373.4 170.192 373.757L170.21 373.759C171.642 373.91 174.217 374.31 177.935 374.957H177.932C175.635 375.176 173.754 377.014 173.558 379.395C172.845 388.071 170.626 392.822 166.901 393.646C166.694 393.692 166.489 393.752 166.29 393.824C165.736 393.824 164.806 393.302 163.501 392.258L163.478 392.239C160.833 390.149 159.248 388.225 158.725 386.468H158.722C157.599 380.505 158.574 376.188 161.647 373.518H161.644C161.883 373.36 162.088 373.265 162.26 373.232H162.258C162.452 373.225 162.663 373.221 162.891 373.221ZM162.808 363.508C162.373 363.508 161.974 363.517 161.612 363.535C161.536 363.539 161.459 363.545 161.383 363.552C159.444 363.742 157.605 364.458 155.869 365.701C155.773 365.769 155.679 365.841 155.588 365.917C149.421 371.048 147.296 378.566 149.213 388.47C149.234 388.575 149.257 388.68 149.285 388.783C150.309 392.676 153.032 396.369 157.455 399.863C160.527 402.314 163.481 403.54 166.32 403.54C166.448 403.54 166.576 403.537 166.703 403.532C167.597 403.497 168.463 403.341 169.3 403.064H169.297C177.502 401.093 182.15 393.469 183.241 380.191C183.411 378.125 182.263 376.256 180.499 375.41H180.501C182.21 375.716 184.106 376.063 186.191 376.451C186.241 376.46 186.29 376.468 186.34 376.476C187.773 376.697 190.67 377.473 195.03 378.805C195.194 378.855 195.36 378.896 195.527 378.928C197.287 379.269 198.629 379.448 199.553 379.466H199.555C199.618 379.468 199.679 379.468 199.738 379.468C202.421 379.468 204.596 377.293 204.596 374.61C204.595 371.93 202.425 369.757 199.746 369.752H199.743C199.4 369.745 198.694 369.64 197.626 369.438H197.623C193.031 368.04 189.796 367.19 187.918 366.889H187.916C179.383 365.303 173.827 364.373 171.248 364.099C167.644 363.705 164.83 363.508 162.808 363.508Z" fill="black"/>
<path d="M170.877 459.497C170.879 459.497 170.882 459.497 170.885 459.497H170.886C170.884 459.497 170.882 459.497 170.88 459.497H170.877ZM177.944 449.778C177.943 449.778 177.942 449.778 177.941 449.778L170.984 449.782C170.974 449.782 170.964 449.782 170.953 449.782H170.952C170.934 449.782 170.915 449.782 170.895 449.782C170.526 449.782 169.754 449.802 168.58 449.841L168.508 449.844C167.294 449.903 166.518 449.948 166.181 449.978L166.172 449.979C166.146 449.981 166.121 449.984 166.098 449.986H166.096C162.862 450.279 160.632 450.453 159.407 450.51L159.385 450.511L151.498 450.912C150.491 450.96 149.287 450.989 147.887 450.998C145.204 451.015 143.043 453.204 143.061 455.887C143.078 458.559 145.249 460.714 147.918 460.714C147.928 460.714 147.939 460.714 147.95 460.714C149.493 460.704 150.836 460.671 151.98 460.616L151.991 460.615L159.878 460.214H159.88C161.25 460.15 163.62 459.965 166.988 459.661L167.044 459.656C167.25 459.637 167.882 459.602 168.941 459.551H168.938C169.986 459.515 170.627 459.497 170.861 459.497C170.866 459.497 170.871 459.497 170.876 459.497C170.875 459.497 170.874 459.497 170.874 459.497L170.877 459.497L170.954 459.498L177.946 459.494C180.629 459.493 182.803 457.317 182.802 454.634C182.8 451.952 180.626 449.778 177.944 449.778Z" fill="black"/>
<path d="M174.982 467.521C174.891 467.629 174.805 467.742 174.724 467.858C174.799 467.746 174.884 467.634 174.979 467.521H174.982ZM172.146 452.826C169.894 452.826 167.873 454.402 167.396 456.694C166.848 459.321 168.534 461.893 171.16 462.441C174.019 463.037 175.186 464.846 174.66 467.87H174.657C174.622 467.963 174.591 468.041 174.564 468.105H174.562C172.996 470.637 172.106 472.063 171.889 472.383H171.887C171.175 473.35 170.578 474.036 170.095 474.443C170.045 474.486 169.996 474.529 169.947 474.573C168.479 475.915 166.491 476.893 163.983 477.508C161.378 478.147 159.783 480.778 160.422 483.383C160.966 485.601 162.951 487.086 165.136 487.086C165.519 487.086 165.909 487.04 166.297 486.945C170.354 485.95 173.718 484.251 176.389 481.847H176.386C177.477 480.922 178.621 479.639 179.818 477.997C179.844 477.961 179.87 477.924 179.895 477.888C179.908 477.869 179.921 477.85 179.934 477.831C180.219 477.41 181.148 475.928 182.721 473.385H182.718C182.934 473.077 183.13 472.734 183.307 472.356C183.485 471.976 183.69 471.467 183.922 470.831C184.002 470.609 184.067 470.382 184.115 470.151C186.087 460.605 182.429 454.865 173.142 452.929C172.808 452.86 172.475 452.826 172.146 452.826Z" fill="black"/>
<path d="M175.346 476.758C172.91 476.758 170.808 478.587 170.526 481.066C170.222 483.732 172.137 486.139 174.823 486.445C177.508 486.751 179.572 487.02 181.015 487.252H181.012C181.452 487.383 181.775 487.496 181.981 487.592H181.978C182.016 487.624 182.054 487.655 182.093 487.685C183.038 488.43 183.58 489.755 183.719 491.662H183.716C183.714 492.364 183.216 493.115 182.223 493.913L182.129 493.99C180.3 495.536 177.806 496.698 174.646 497.478C172.041 498.12 170.451 500.753 171.093 503.358C171.639 505.572 173.623 507.053 175.806 507.053C176.191 507.053 176.583 507.007 176.973 506.911C181.558 505.78 185.336 503.972 188.309 501.488H188.307C191.92 498.586 193.623 495.119 193.417 491.086L193.411 490.989C193.079 486.323 191.381 482.735 188.317 480.223H188.314C187.882 479.828 187.38 479.471 186.806 479.152C185.93 478.666 184.799 478.226 183.413 477.832C183.238 477.782 183.061 477.743 182.882 477.713C181.264 477.443 178.94 477.136 175.911 476.791L175.902 476.789C175.715 476.768 175.53 476.758 175.346 476.758Z" fill="black"/>
<path d="M191.61 522.32C193.011 522.32 194.689 522.483 196.645 522.809H196.642C195.87 523.307 195.231 524.029 194.834 524.932C193.753 527.388 194.868 530.254 197.324 531.335C199.98 532.503 201.247 533.526 201.127 534.401H201.124C200.687 536.824 199.508 538.036 197.587 538.036C197.521 538.036 197.454 538.034 197.386 538.031C197.33 538.029 197.274 538.028 197.218 538.027C194.327 538.006 191.862 537.007 189.823 535.031H189.82C187.65 532.548 186.463 529.575 186.258 526.111H186.255C186.256 525.628 186.294 525.197 186.369 524.818C186.698 523.152 188.445 522.32 191.61 522.32ZM191.528 512.631C183.091 512.631 178.194 516.066 176.837 522.936C176.634 523.966 176.534 525.058 176.539 526.214C176.54 526.288 176.542 526.363 176.545 526.437C176.839 532.289 178.871 537.337 182.641 541.58C182.706 541.653 182.774 541.724 182.843 541.794C186.762 545.699 191.502 547.681 197.063 547.742H197.061C197.331 547.753 197.598 547.758 197.861 547.758C205.125 547.758 209.415 543.792 210.732 535.859C210.739 535.815 210.746 535.77 210.752 535.725C211.524 530.11 208.48 525.739 201.618 522.613H201.615C202.832 521.945 203.756 520.762 204.046 519.293C204.566 516.661 202.854 514.106 200.221 513.586C196.995 512.949 194.098 512.631 191.528 512.631Z" fill="black"/>
<path d="M209.036 553.736C209.011 553.736 208.986 553.737 208.961 553.737C204.69 553.802 200.693 555.021 196.972 557.395L196.959 557.403C193.97 559.324 191.973 562.13 190.969 565.821C190.811 566.393 190.713 566.995 190.675 567.625C190.508 570.383 191.601 574.053 193.954 578.637L193.966 578.661C196.069 582.704 198.377 585.38 200.891 586.689L200.892 586.69C201.066 586.78 201.241 586.865 201.417 586.943H201.414C203.965 588.252 206.431 588.906 208.814 588.906C209.579 588.906 210.336 588.839 211.083 588.704C211.167 588.689 211.249 588.672 211.331 588.652C214.056 588.012 216.605 586.384 218.978 583.766H218.975C219.057 583.683 219.139 583.597 219.22 583.509C220.746 581.851 222.055 579.158 223.147 575.432C224.081 572.24 224.343 568.458 223.931 564.083C223.694 561.567 221.577 559.681 219.1 559.681C218.947 559.681 218.793 559.688 218.639 559.702C215.967 559.954 214.006 562.323 214.258 564.995C214.553 568.132 214.408 570.701 213.822 572.7C213.156 574.975 212.572 576.385 212.071 576.93C211.997 577.003 211.925 577.078 211.856 577.156C210.859 578.273 209.982 578.943 209.225 579.164H209.222C209.092 579.18 208.958 579.189 208.82 579.189C207.97 579.189 206.945 578.874 205.743 578.243C205.625 578.181 205.504 578.124 205.38 578.071H205.378C204.679 577.707 203.752 576.417 202.598 574.201C201.094 571.272 200.352 569.301 200.37 568.289H200.367C200.72 567.05 201.33 566.149 202.198 565.586C204.37 564.2 206.674 563.489 209.108 563.452C211.791 563.411 213.933 561.203 213.892 558.521C213.852 555.863 211.685 553.736 209.036 553.736Z" fill="black"/>
<path d="M240.583 551.905C239.972 551.905 239.351 552.021 238.751 552.266C233.427 554.436 226.953 559.066 219.328 566.155C209.69 574.92 203.475 581.874 200.684 587.017C200.641 587.096 200.601 587.176 200.562 587.257C198.921 590.727 198.375 593.795 198.926 596.46C199.218 597.869 199.795 599.128 200.659 600.237H200.656C202.802 603.247 207.38 605.895 214.388 608.179C214.888 608.343 215.395 608.42 215.894 608.42C217.94 608.42 219.844 607.117 220.512 605.067C221.344 602.516 219.95 599.774 217.399 598.942C212.348 597.295 209.407 595.851 208.576 594.609C208.529 594.539 208.48 594.47 208.43 594.403H208.427C208.364 593.86 208.646 592.916 209.271 591.57H209.268C211.566 587.387 217.112 581.299 225.904 573.307L225.944 573.27C232.7 566.989 238.192 562.986 242.418 561.263C244.903 560.25 246.096 557.415 245.083 554.931C244.315 553.047 242.499 551.905 240.583 551.905Z" fill="black"/>
<path d="M269.243 614.707C268.849 614.707 268.448 614.755 268.048 614.856C265.511 615.498 263.95 618.028 264.486 620.566H264.482C264.369 623.005 260.918 628.615 254.13 637.394L254.074 637.467C251.154 641.397 247.537 644.049 243.225 645.424C240.669 646.239 239.258 648.972 240.073 651.528C240.731 653.593 242.642 654.911 244.7 654.911C245.189 654.911 245.686 654.837 246.177 654.681C252.448 652.681 257.662 648.9 261.817 643.337C270.029 632.716 274.156 625.124 274.2 620.562C274.208 619.795 274.124 619.066 273.949 618.375C273.393 616.174 271.415 614.707 269.243 614.707Z" fill="black"/>
<path d="M275.555 614.727C273.392 614.727 271.09 615.265 268.65 616.342C266.195 617.425 265.083 620.293 266.167 622.748C266.969 624.564 268.748 625.645 270.614 625.645C271.269 625.645 271.935 625.512 272.573 625.231C273.646 624.757 274.59 624.52 275.404 624.52C276.155 624.52 276.795 624.721 277.325 625.125H277.321C282.479 629.548 285.114 632.616 285.226 634.328H285.225C285.22 634.455 285.221 634.583 285.226 634.71C285.281 635.997 284.338 637.34 282.395 638.737L282.341 638.777C278.979 641.267 274.987 643.162 270.363 644.462C267.781 645.188 266.275 647.87 267.001 650.453C267.604 652.596 269.553 653.997 271.675 653.997C272.111 653.997 272.553 653.938 272.993 653.815C278.738 652.2 283.764 649.803 288.07 646.624C292.761 643.25 295.051 639.229 294.942 634.563H294.938C294.946 634.275 294.94 633.985 294.921 633.692C294.629 629.243 290.828 623.891 283.516 617.637C283.463 617.593 283.411 617.55 283.357 617.507C280.994 615.653 278.394 614.727 275.555 614.727Z" fill="black"/>
<path d="M307.956 643.06C306.194 643.06 304.494 644.021 303.632 645.696C303.317 646.308 302.2 648.14 300.279 651.194C300.196 651.326 300.119 651.462 300.049 651.602H300.045C299.236 652.487 298.539 653.347 297.953 654.184C297.9 654.26 297.849 654.336 297.801 654.415C293.296 661.694 290.739 666.534 290.128 668.934C290.088 669.089 290.054 669.241 290.024 669.39C289.646 671.283 290.426 673.222 292.01 674.326C292.843 674.907 293.814 675.199 294.788 675.199C295.667 675.199 296.547 674.961 297.328 674.482C297.69 674.26 298.048 673.997 298.401 673.693C299.654 672.617 301.08 670.759 302.681 668.12L302.704 668.082C304.022 665.864 305.852 662.216 308.194 657.14H308.19C309.126 656.218 310.251 655.231 311.564 654.178H311.56C311.74 654.132 311.935 654.109 312.144 654.109C312.639 654.109 313.215 654.236 313.872 654.49L313.985 654.532C315.383 655.032 317.192 656.239 319.412 658.153C320.329 658.944 321.458 659.331 322.581 659.331C323.946 659.331 325.302 658.759 326.263 657.645C328.015 655.612 327.787 652.545 325.755 650.793C322.671 648.135 319.877 646.346 317.375 645.427H317.372C315.552 644.724 313.799 644.373 312.114 644.373C311.842 644.373 311.572 644.382 311.303 644.4C310.975 644.088 310.597 643.817 310.174 643.599C309.463 643.233 308.704 643.06 307.956 643.06Z" fill="black"/>
<path d="M255.219 642.145C253.358 642.145 251.582 643.221 250.777 645.031C249.688 647.483 250.792 650.354 253.244 651.443C256.227 652.769 259.297 653.531 262.453 653.732L262.498 653.734C262.899 653.756 263.298 653.767 263.695 653.767C264.361 653.767 265.021 653.736 265.675 653.675L265.765 653.666L266.367 653.598C266.443 653.59 266.52 653.579 266.597 653.567C268.504 653.259 269.631 653.087 269.979 653.049L270.096 653.035C270.878 652.93 271.676 652.835 272.49 652.75C275.158 652.469 277.094 650.078 276.813 647.41C276.551 644.915 274.443 643.06 271.988 643.06C271.818 643.06 271.647 643.069 271.474 643.087C270.579 643.181 269.698 643.286 268.831 643.402H268.827C268.268 643.468 267.045 643.654 265.158 643.958H265.154L264.714 644.007H264.711C264.377 644.036 264.039 644.051 263.695 644.051C263.484 644.051 263.27 644.046 263.054 644.034H263.052C261.06 643.906 259.106 643.416 257.189 642.564C256.548 642.279 255.878 642.145 255.219 642.145Z" fill="black"/>
<path d="M336.653 672.474C336.419 672.596 336.191 672.691 335.97 672.758C336.203 672.68 336.43 672.585 336.649 672.474H336.653ZM335.478 672.893C336.442 672.972 338.406 673.382 341.37 674.124C341.766 674.223 342.162 674.27 342.553 674.27C343.012 674.27 343.462 674.204 343.893 674.08H343.897C344.987 674.697 346.106 675.405 347.254 676.204H347.25C348.306 677.009 349.094 677.872 349.612 678.795C349.633 678.832 349.654 678.868 349.676 678.905C350.933 681.012 350.633 683.162 348.776 685.354H348.772C347.575 686.554 346.071 687.395 344.259 687.875C344.111 687.914 343.966 687.96 343.824 688.013H343.819C343.196 688.105 342.039 688.151 340.35 688.151C339.159 688.151 337.702 688.128 335.981 688.082H335.977C334.152 687.965 332.137 686.177 329.933 682.718H329.928C328.73 680.059 329.261 677.356 331.522 674.61H331.517C332.768 673.672 333.972 673.121 335.128 672.955C335.244 672.939 335.359 672.918 335.473 672.893H335.478ZM341.483 662.723C340.49 662.723 339.527 663.029 338.723 663.583C337.225 663.307 336.06 663.167 335.228 663.163C335.215 663.163 335.202 663.163 335.19 663.163C334.483 663.163 333.832 663.249 333.236 663.421H333.232C330.415 663.922 327.712 665.207 325.122 667.275C324.896 667.456 324.687 667.656 324.497 667.873C319.115 674.029 318.04 680.452 321.272 687.141C321.348 687.299 321.433 687.453 321.526 687.602C325.604 694.129 330.272 697.524 335.531 697.788L335.644 697.792C337.198 697.834 338.593 697.855 339.829 697.855C342.716 697.855 344.735 697.741 345.886 697.513C346.318 697.427 346.718 697.315 347.088 697.175H347.083C350.564 696.195 353.503 694.457 355.899 691.962C355.96 691.899 356.018 691.834 356.075 691.768C361.005 686.048 361.674 680.138 358.085 674.037H358.084C356.873 671.882 355.16 669.98 352.944 668.33C352.903 668.3 352.862 668.27 352.82 668.241C349.5 665.928 346.287 664.191 343.182 663.031C342.622 662.822 342.048 662.723 341.483 662.723Z" fill="black"/>
<path d="M383.375 699.415C383.385 699.456 383.394 699.498 383.405 699.54C383.952 701.752 385.935 703.232 388.116 703.232C388.503 703.232 388.895 703.185 389.287 703.088C391.638 702.506 393.458 702.215 394.748 702.215C395.477 702.215 396.036 702.309 396.426 702.495C396.917 702.729 397.205 702.926 397.293 703.085C397.316 703.149 397.322 703.249 397.313 703.385H397.308C395.519 707.679 392.336 710.124 387.758 710.72H387.753C387.334 710.766 386.915 710.79 386.497 710.79C384.775 710.79 383.063 710.394 381.362 709.603H381.357C380.428 709.082 379.596 708.007 378.864 706.378C378.79 706.213 378.707 706.053 378.615 705.898H378.61C378.649 705.538 378.973 704.969 379.582 704.193C379.652 704.103 379.719 704.011 379.783 703.917C380.529 702.813 381.703 701.337 383.305 699.489L383.371 699.415H383.375ZM392.999 676.442C391.661 676.442 390.329 676.992 389.37 678.07L376.049 693.028L376 693.083C374.161 695.202 372.757 696.972 371.79 698.393H371.785C369.941 700.806 368.978 703.215 368.896 705.619C368.848 707.032 369.104 708.388 369.662 709.687C369.801 710.01 369.958 710.328 370.134 710.639H370.129C371.773 714.173 374.01 716.696 376.841 718.207C376.905 718.24 376.968 718.273 377.033 718.304C380.109 719.774 383.25 720.509 386.456 720.509C387.283 720.509 388.115 720.46 388.95 720.362L389.013 720.354C397.6 719.236 403.456 714.57 406.581 706.356C406.686 706.08 406.766 705.794 406.819 705.502C407.205 703.391 407.058 701.436 406.376 699.638C406.216 699.215 406.027 698.805 405.809 698.409C404.718 696.421 402.986 694.861 400.613 693.727L400.61 693.726C398.999 692.957 397.033 692.573 394.711 692.573C392.969 692.573 391.028 692.789 388.886 693.221L396.625 684.531C398.41 682.528 398.232 679.457 396.228 677.673C395.302 676.848 394.149 676.442 392.999 676.442Z" fill="black"/>
<path d="M428.356 692.143C427.241 692.143 426.12 692.524 425.205 693.305C415.391 701.679 410.869 709.532 411.639 716.867L411.643 716.908C412.208 721.875 414.924 724.961 419.791 726.165L419.881 726.186C420.773 726.389 421.696 726.49 422.652 726.49C423.816 726.49 425.028 726.339 426.288 726.038C426.29 726.037 426.292 726.037 426.295 726.036H426.289C426.26 726.043 426.208 726.055 426.118 726.075L426.418 726.005C428.977 725.318 430.906 724.551 432.206 723.702C432.853 723.279 433.402 722.81 433.852 722.292C435.613 720.269 435.401 717.2 433.377 715.439C432.457 714.638 431.32 714.245 430.189 714.245C428.952 714.245 427.72 714.715 426.785 715.636H426.779C426.301 715.905 425.354 716.229 423.94 716.61H423.935C423.453 716.72 423.027 716.775 422.658 716.775C422.456 716.775 422.271 716.759 422.102 716.726H422.097C421.633 716.603 421.368 716.311 421.302 715.852C420.888 711.909 424.291 706.857 431.512 700.696C433.553 698.955 433.795 695.889 432.054 693.848C431.093 692.721 429.729 692.143 428.356 692.143Z" fill="black"/>
<path d="M458.025 703.341C454.652 703.341 451.893 704.021 449.747 705.38H449.746C447.175 706.964 445.109 709.02 443.547 711.549H443.541C441.697 714.287 440.625 717.122 440.323 720.053H440.317C440.158 721.287 440.353 722.563 440.903 723.879C441.378 725.019 442.158 726.246 443.24 727.562C443.359 727.706 443.486 727.843 443.62 727.972C446.054 730.318 448.436 731.737 450.765 732.228H450.767C452.691 732.681 454.612 732.908 456.529 732.908C459.491 732.908 462.445 732.367 465.392 731.286C467.91 730.362 469.203 727.571 468.279 725.052C467.557 723.085 465.697 721.866 463.718 721.866C463.162 721.866 462.597 721.962 462.045 722.165C460.194 722.844 458.348 723.183 456.505 723.183C455.32 723.183 454.136 723.043 452.954 722.762C452.894 722.747 452.832 722.734 452.77 722.722C452.624 722.691 452.453 722.621 452.258 722.511H452.263C452.559 722.518 452.851 722.521 453.139 722.521C457.771 722.521 461.468 721.717 464.23 720.11C464.271 720.087 464.31 720.063 464.35 720.039C466.219 718.878 467.625 717.685 468.568 716.458C470.668 713.726 470.875 711.001 469.188 708.283C468.732 707.549 468.136 706.88 467.402 706.277C467.238 706.142 467.066 706.01 466.887 705.882C464.915 704.442 462.247 703.602 458.885 703.36C458.808 703.354 458.731 703.35 458.654 703.349C458.442 703.343 458.233 703.341 458.025 703.341Z" fill="black"/>
<path d="M496.03 704.031C494.056 704.031 492.2 705.244 491.474 707.204C490.715 709.253 489.975 712.008 489.251 715.468H489.246C489.064 716.1 488.846 716.751 488.594 717.419C487.558 720.127 486.243 722.698 484.65 725.13C483.18 727.375 483.808 730.386 486.052 731.856C486.873 732.393 487.796 732.65 488.709 732.65C490.293 732.65 491.846 731.877 492.778 730.453C494.757 727.431 496.39 724.236 497.677 720.869L497.683 720.852C498.069 719.831 498.398 718.827 498.671 717.842C498.699 717.741 498.724 717.639 498.745 717.536C499.375 714.509 499.989 712.189 500.586 710.577C501.517 708.061 500.232 705.266 497.716 704.335C497.16 704.129 496.59 704.031 496.03 704.031Z" fill="black"/>
<path d="M512.204 707.836C512.217 707.85 512.23 707.863 512.243 707.877H512.236C512.224 707.863 512.211 707.85 512.198 707.836H512.204ZM513.394 714.703C513.388 714.709 513.382 714.715 513.376 714.72H513.37C513.111 714.849 512.863 715.001 512.629 715.174C512.876 714.991 513.129 714.834 513.388 714.703H513.394ZM512.746 699.002C512.703 699.002 512.66 699.002 512.616 699.002C509.933 699.017 507.77 701.204 507.785 703.887C507.799 706.471 509.828 708.572 512.374 708.711H512.368C512.469 709.629 512.469 710.765 512.37 712.119H512.368C512.3 712.729 512.201 713.303 512.071 713.841L512.068 713.854C511.886 714.621 511.561 715.512 511.094 716.528C510.935 716.876 510.816 717.241 510.743 717.615C510.73 717.68 510.718 717.742 510.708 717.802L510.707 717.805C510.099 721.214 511.381 723.231 514.55 723.854C514.895 723.922 515.233 723.956 515.563 723.956C516.255 723.956 516.914 723.807 517.541 723.508H517.534C518.128 723.26 518.712 722.906 519.287 722.447C520.003 721.875 520.811 721.051 521.711 719.973C521.866 719.788 522.006 719.591 522.132 719.385C523.843 716.574 524.97 714.849 525.514 714.208H525.508C525.677 714.058 525.834 713.896 525.98 713.724C526.459 713.158 527.011 712.672 527.637 712.266H527.631C528.73 711.638 529.548 711.296 530.085 711.241H530.091C530.145 711.636 530.147 712.188 530.098 712.897C530.089 713.029 530.085 713.161 530.087 713.292C530.109 715.122 529.594 717.385 528.542 720.079C527.565 722.579 528.8 725.396 531.299 726.372C531.88 726.599 532.477 726.706 533.065 726.706C535.008 726.706 536.842 725.533 537.591 723.615C539.054 719.871 539.791 716.491 539.803 713.476H539.797C539.97 710.815 539.644 708.575 538.82 706.753C538.4 705.827 537.857 705.011 537.192 704.307C537.1 704.209 537.004 704.116 536.904 704.027C536.507 703.671 536.089 703.352 535.651 703.069C534.692 702.45 533.656 702.017 532.542 701.769C531.826 701.61 531.092 701.531 530.34 701.531C527.993 701.531 525.47 702.305 522.769 703.854C522.718 703.883 522.667 703.914 522.618 703.945C522.221 704.192 521.836 704.453 521.464 704.729C521.028 703.263 520.276 702.047 519.209 701.083H519.203C518.318 700.155 517.124 699.542 515.622 699.242C514.818 699.082 513.859 699.002 512.746 699.002Z" fill="black"/>
<path d="M576.05 693.362C574.531 693.362 573.035 694.073 572.087 695.405C570.672 697.394 569.558 698.699 568.745 699.32C568.684 699.367 568.624 699.415 568.566 699.464C567.77 700.133 566.929 700.784 566.043 701.417H566.038C562.212 703.955 559.75 705.66 558.652 706.532C557.085 707.749 555.658 709.107 554.372 710.607C552.627 712.645 552.863 715.711 554.9 717.457C555.816 718.242 556.94 718.626 558.059 718.626C559.428 718.626 560.789 718.051 561.75 716.93C562.618 715.917 563.582 715 564.644 714.18L564.696 714.14C565.589 713.43 567.874 711.857 571.549 709.421C571.595 709.39 571.641 709.359 571.686 709.326C572.728 708.583 573.724 707.815 574.673 707.022H574.668C576.253 705.805 578.032 703.81 580.005 701.036C581.56 698.85 581.048 695.817 578.862 694.262C578.007 693.654 577.024 693.362 576.05 693.362Z" fill="black"/>
<path d="M598.576 693.357C598.615 693.39 598.653 693.423 598.691 693.457H598.684C598.839 693.855 599.047 694.233 599.304 694.58C598.996 694.164 598.751 693.756 598.569 693.357H598.576ZM608.211 665.314C606.661 665.314 605.138 666.054 604.197 667.43C602.682 669.644 603.249 672.667 605.463 674.182C605.485 674.197 605.506 674.212 605.526 674.226H605.519C605.48 674.344 605.428 674.468 605.364 674.597C605.279 674.769 605.204 674.945 605.139 675.125H605.132C605.008 675.362 604.762 675.729 604.395 676.225H604.388L601.957 678.791C601.86 678.392 601.711 677.998 601.507 677.62C600.628 675.993 598.955 675.069 597.228 675.069C596.448 675.069 595.658 675.258 594.924 675.654C594.088 676.105 593.351 676.623 592.713 677.206C590.507 679.222 589.586 681.713 589.948 684.679C590.02 685.271 590.149 685.871 590.333 686.477C590.388 686.655 590.452 686.83 590.527 687.001C591.172 688.482 592.217 689.691 593.663 690.628C593.822 690.731 593.987 690.824 594.157 690.908H594.15C594.142 691.077 594.137 691.243 594.137 691.405C594.136 692.65 594.377 693.761 594.859 694.737C595.996 697.037 597.737 698.187 600.08 698.187C600.832 698.187 601.647 698.068 602.524 697.831C603.246 697.635 604.015 697.336 604.83 696.933C605.309 696.696 605.746 696.382 606.123 696.003C606.238 695.887 606.346 695.774 606.447 695.662C608.165 693.778 608.634 691.915 607.854 690.073H607.847C607.633 689.311 607.264 688.579 606.741 687.875H606.734L611.669 682.666C611.795 682.533 611.913 682.393 612.023 682.247C612.922 681.054 613.575 680.019 613.982 679.142C614.037 679.024 614.088 678.907 614.136 678.791H614.129C615.081 676.822 615.465 674.809 615.28 672.752C615.267 672.609 615.248 672.468 615.223 672.327C614.966 670.898 614.361 669.591 613.41 668.405C612.749 667.581 611.928 666.834 610.949 666.164C610.111 665.59 609.156 665.314 608.211 665.314Z" fill="black"/>
<path d="M645.679 655.619C645.41 656.653 644.893 657.448 644.127 658.004C644.868 657.381 645.406 656.551 645.672 655.619H645.679ZM645.241 647.479C644.642 647.479 644.034 647.591 643.444 647.826C641.241 648.704 639.761 649.352 639.004 649.77C638.573 650.007 638.19 650.272 637.856 650.562H637.849C636.509 651.529 635.306 652.738 634.241 654.187C632.622 656.382 631.379 658.456 630.514 660.409C630.496 660.449 630.479 660.488 630.463 660.529C629.688 662.413 629.19 664.736 628.969 667.5C628.755 670.174 630.75 672.515 633.424 672.729C633.556 672.74 633.687 672.745 633.817 672.745C636.324 672.745 638.45 670.817 638.654 668.274C638.788 666.594 639.037 665.284 639.4 664.344H639.397C639.975 663.039 640.864 661.574 642.064 659.949L642.069 659.942C642.578 659.25 643.12 658.712 643.695 658.329C643.775 658.275 643.854 658.219 643.93 658.161H643.923C644.445 657.909 645.484 657.472 647.041 656.852C649.533 655.858 650.748 653.033 649.755 650.54C648.997 648.638 647.171 647.479 645.241 647.479Z" fill="black"/>
<path d="M655.077 637.192L655.687 635.21C656.476 632.646 659.194 631.206 661.759 631.995C664.323 632.784 665.762 635.503 664.973 638.067L664.364 640.049C663.575 642.613 660.856 644.052 658.292 643.263C655.728 642.474 654.288 639.756 655.077 637.192Z" fill="black"/>
<path d="M709.402 526.604C706.895 526.604 704.768 528.532 704.565 531.075C704.424 532.844 704.113 534.328 703.632 535.529L703.595 535.626C703.121 536.887 701.157 540.731 697.702 547.156L697.651 547.255C696.961 548.61 696.37 550.556 695.875 553.093H695.873C695.854 553.181 695.837 553.269 695.82 553.359C695.607 554.506 695.568 555.957 695.701 557.711C695.707 557.794 695.716 557.877 695.726 557.96C695.808 558.595 695.931 559.214 696.095 559.818C696.139 559.977 696.19 560.134 696.25 560.288C696.778 561.659 697.087 562.537 697.174 562.922H697.172C697.204 563.11 697.247 563.295 697.301 563.478H697.3C697.401 563.902 697.511 564.845 697.631 566.307L697.632 566.317C697.807 568.403 697.621 570.585 697.074 572.863L697.068 572.889C696.223 576.499 694.393 580.077 691.58 583.622C689.912 585.724 690.264 588.779 692.366 590.447C693.259 591.156 694.324 591.5 695.382 591.5C696.814 591.5 698.232 590.87 699.191 589.661C702.899 584.988 705.343 580.144 706.522 575.13C707.311 571.842 707.575 568.637 707.314 565.515C707.154 563.558 706.963 562.111 706.739 561.175H706.731C706.707 561.041 706.68 560.904 706.647 560.762C706.468 559.974 706.066 558.762 705.442 557.125H705.435C705.417 557.051 705.402 556.975 705.389 556.897H705.383C705.321 556.054 705.316 555.474 705.368 555.159H705.367C705.383 555.09 705.398 555.02 705.412 554.95C705.715 553.397 705.998 552.333 706.263 551.758H706.259C709.852 545.077 711.983 540.87 712.654 539.137C713.499 537.026 714.03 534.596 714.25 531.849C714.464 529.175 712.469 526.833 709.795 526.619C709.663 526.609 709.532 526.604 709.402 526.604Z" fill="black"/>
<path d="M631.981 306.492C629.928 306.492 628.021 307.804 627.358 309.863C626.536 312.417 627.94 315.153 630.494 315.976C637.789 318.325 642.859 321.06 645.702 324.181H645.694C646.304 325.36 647.139 328.508 648.201 333.625C648.327 334.228 648.566 334.803 648.906 335.317L655.796 345.736L662.108 366.163C662.185 366.412 662.282 366.654 662.398 366.888C664.579 371.284 666.745 374.383 668.895 376.186C669.208 376.448 669.551 376.669 669.919 376.845C673.517 378.567 676.405 380.002 678.582 381.149H678.575C678.587 381.268 678.598 381.387 678.61 381.508C678.661 382.031 678.796 382.542 679.011 383.022C681.277 388.087 684.554 391.188 688.843 392.326C689.252 392.434 689.671 392.488 690.088 392.488C690.756 392.488 691.421 392.35 692.04 392.079C695.841 390.411 696.853 387.55 695.074 383.495C695.06 383.463 695.047 383.432 695.033 383.403L695.032 383.4C694.301 381.78 692.834 379.856 690.63 377.628H690.622C690.372 377.319 690.082 377.017 689.753 376.722C689.264 376.285 688.541 375.763 687.585 375.156H687.577C687.01 371.764 686.248 368.86 685.294 366.442H685.302C688.559 367.046 692.541 371.052 697.25 378.46H697.242C699.64 383.049 701.053 386.235 701.481 388.019H701.473L699.867 395.164C699.803 395.446 699.765 395.733 699.753 396.022C699.429 403.634 700.071 410.66 701.68 417.099H701.672L700.743 427.265C700.693 427.81 700.736 428.361 700.87 428.892C702.548 435.563 703.729 443.156 704.413 451.672C704.618 454.214 706.744 456.141 709.25 456.141C709.381 456.141 709.513 456.136 709.645 456.125C712.319 455.91 714.313 453.568 714.098 450.894C713.399 442.189 712.199 434.344 710.499 427.358H710.491L711.426 417.123C711.478 416.557 711.43 415.987 711.285 415.437C709.806 409.855 709.192 403.678 709.441 396.906H709.433L711.167 389.191C711.286 388.663 711.316 388.118 711.255 387.58C710.936 384.757 709.09 380.13 705.717 373.7C705.655 373.583 705.589 373.468 705.518 373.356C698.45 362.206 691.423 356.631 684.435 356.631C683.015 356.631 681.597 356.861 680.18 357.322C679.25 357.624 678.432 358.201 677.834 358.976C675.864 361.533 674.98 364.176 675.182 366.906C675.229 367.546 675.403 368.171 675.693 368.744C675.715 368.786 675.736 368.829 675.757 368.873C675.436 368.717 675.109 368.559 674.777 368.399H674.769C673.78 367.399 672.621 365.583 671.293 362.952H671.285L664.874 342.203C664.738 341.761 664.539 341.342 664.284 340.957L657.532 330.747H657.525C656.276 324.895 655.107 321.032 654.019 319.16C653.73 318.665 653.417 318.229 653.078 317.853C649.083 313.358 642.547 309.649 633.471 306.727C632.976 306.568 632.475 306.492 631.981 306.492Z" fill="black"/>
<path d="M599.515 222.961C598.761 222.961 597.995 223.137 597.28 223.508C594.899 224.745 593.971 227.677 595.207 230.058C598.385 236.18 599.028 241.327 597.135 245.5H597.128C596.927 245.789 596.759 245.989 596.623 246.101H596.616C596.555 246.127 596.495 246.153 596.436 246.181C594.968 246.866 592.793 247.419 589.91 247.838C589.672 247.873 589.437 247.925 589.207 247.994C587.795 248.42 586.427 249.065 585.103 249.93C585.046 249.967 584.989 250.006 584.933 250.046C583.99 250.721 583.095 251.558 582.248 252.557C582.153 252.669 582.062 252.786 581.977 252.907C580.761 254.641 579.954 255.741 579.556 256.207H579.55C579.447 256.295 579.348 256.388 579.254 256.485C578.588 257.164 577.494 257.968 575.97 258.897C575.754 259.029 575.549 259.177 575.357 259.341C573.18 261.187 572.439 263.312 573.132 265.716C573.35 266.472 573.748 267.163 574.293 267.731C574.663 268.117 575.07 268.473 575.512 268.797C577.71 270.408 580.826 271.213 584.86 271.213C585.623 271.213 586.419 271.184 587.248 271.127H587.242C590.563 270.975 593.398 270.602 595.745 270.006L595.885 269.968C595.953 269.949 596.022 269.928 596.089 269.905L604.026 267.257H604.033C604.335 267.453 604.664 267.619 605.017 267.747C605.567 267.948 606.129 268.043 606.682 268.043C608.665 268.043 610.527 266.82 611.246 264.849C612.678 260.923 611.583 258.3 607.96 256.978C607.588 256.842 607.2 256.742 606.795 256.676C606.537 256.634 606.277 256.613 606.017 256.613C605.496 256.613 604.977 256.697 604.479 256.863L593.175 260.635H593.168C591.724 260.985 589.951 261.228 587.851 261.363C588.378 260.666 589.015 259.788 589.761 258.729H589.754C590.007 258.441 590.249 258.207 590.48 258.027H590.474C590.899 257.754 591.317 257.542 591.728 257.391H591.722C595.251 256.852 598.126 256.081 600.347 255.076H600.34C601.008 254.812 601.649 254.458 602.263 254.015C603.436 253.169 604.507 251.994 605.478 250.489C605.587 250.321 605.684 250.146 605.771 249.966C609.212 242.829 608.565 234.701 603.83 225.581C602.965 223.916 601.27 222.961 599.515 222.961Z" fill="black"/>
<path d="M518.481 195.666C516.264 195.666 513.778 195.959 511.022 196.546C508.397 197.104 506.723 199.684 507.281 202.308C507.767 204.592 509.784 206.156 512.028 206.156C512.363 206.156 512.703 206.121 513.044 206.049C515.349 205.558 517.224 205.313 518.67 205.313C519.593 205.313 520.341 205.413 520.913 205.613H520.907C521.034 205.956 521.17 206.435 521.316 207.05C521.327 207.096 521.339 207.143 521.351 207.189C521.584 208.055 521.562 209.922 521.287 212.79C521.254 213.132 521.257 213.476 521.297 213.817C521.505 215.6 521.821 217.035 522.244 218.122C522.346 218.383 522.456 218.633 522.575 218.869H522.568C524.292 222.979 527.48 226.239 532.13 228.65C532.17 228.671 532.211 228.692 532.251 228.711C534.898 229.991 536.946 230.765 538.393 231.033C538.829 231.114 539.25 231.159 539.653 231.17H539.647C539.887 231.194 540.137 231.206 540.396 231.206C540.417 231.206 540.437 231.206 540.458 231.206C540.953 231.202 541.584 231.156 542.351 231.068C542.757 231.022 543.155 230.924 543.537 230.778C545.035 230.204 546.251 229.884 547.186 229.819C547.276 229.813 547.365 229.804 547.454 229.793C547.588 229.776 547.732 229.767 547.886 229.767C548.364 229.767 548.936 229.849 549.603 230.013H549.596C550.446 230.266 550.988 230.44 551.221 230.535H551.216C555.24 232.426 558.456 233.843 560.866 234.784L560.9 234.797C563.886 235.938 566.277 236.751 568.074 237.235C568.498 237.35 568.924 237.404 569.343 237.404C571.485 237.404 573.446 235.978 574.03 233.811C574.729 231.221 573.196 228.554 570.606 227.855C569.133 227.458 567.065 226.751 564.402 225.734C562.208 224.877 559.215 223.558 555.423 221.777H555.419C555.258 221.696 555.082 221.617 554.89 221.539C554.346 221.317 553.456 221.023 552.22 220.657C552.154 220.638 552.089 220.62 552.023 220.603C550.561 220.236 549.176 220.053 547.869 220.053C547.356 220.053 546.854 220.081 546.365 220.138H546.359C544.663 220.274 542.771 220.719 540.682 221.474H540.676C540.621 221.478 540.572 221.482 540.529 221.485C540.367 221.466 540.205 221.455 540.042 221.453H540.035C539.422 221.306 538.279 220.83 536.607 220.025H536.602C533.983 218.667 532.273 216.984 531.473 214.975C531.421 214.846 531.365 214.72 531.302 214.596H531.298C531.199 214.343 531.104 213.878 531.012 213.202H531.006C531.33 209.515 531.252 206.716 530.77 204.806H530.769C530.312 202.882 529.738 201.342 529.047 200.185C528.436 199.163 527.698 198.358 526.833 197.77C526.791 197.742 526.748 197.714 526.706 197.687C524.583 196.34 521.841 195.666 518.481 195.666Z" fill="black"/>
<path d="M457.024 181.099C455.422 181.099 453.233 181.367 450.455 181.905H450.449C445.774 182.713 442.367 183.635 440.225 184.673H440.22C437.675 185.689 436.112 187.633 435.529 190.503C435.22 192.025 435.251 193.784 435.623 195.783C436.057 198.12 438.099 199.753 440.393 199.753C440.688 199.753 440.987 199.726 441.287 199.671C443.925 199.18 445.665 196.644 445.175 194.006C445.114 193.681 445.072 193.399 445.048 193.161H445.043C446.447 192.606 448.833 192.04 452.2 191.462L452.301 191.444C454.51 191.017 456.021 190.803 456.834 190.803C456.9 190.803 456.961 190.804 457.017 190.807H457.012C457.202 190.858 457.395 190.897 457.591 190.925C458.823 191.099 459.807 191.508 460.543 192.152H460.537C460.708 192.336 460.856 192.542 460.98 192.769C463.001 196.53 464.337 198.867 464.988 199.778C465.096 199.929 465.204 200.071 465.314 200.204H465.308C466.597 202.059 467.906 203.43 469.237 204.318C469.378 204.412 469.519 204.501 469.662 204.586L469.676 204.594C472.203 206.08 475.242 206.823 478.794 206.823C480.637 206.823 482.619 206.623 484.738 206.223C487.374 205.725 489.108 203.184 488.61 200.547C488.17 198.216 486.131 196.59 483.842 196.59C483.543 196.59 483.24 196.618 482.935 196.675C481.361 196.973 479.963 197.121 478.742 197.121C477.021 197.121 475.65 196.826 474.63 196.236C474.291 196.01 473.801 195.424 473.162 194.478C473.071 194.343 472.973 194.213 472.869 194.088H472.863C472.427 193.458 471.312 191.473 469.518 188.132L469.497 188.093C468.898 187.002 468.159 186.022 467.281 185.152C467.23 185.101 467.178 185.052 467.125 185.004C464.998 183.075 462.401 181.861 459.335 181.363H459.329C458.931 181.259 458.506 181.186 458.055 181.143C457.744 181.113 457.4 181.099 457.024 181.099Z" fill="black"/>
<path d="M390.181 179.395C390.302 180.163 390.607 180.894 391.072 181.523C390.538 180.8 390.24 180.091 390.176 179.395H390.181ZM386.495 210.067C386.606 210.106 386.718 210.141 386.83 210.172C386.72 210.144 386.606 210.109 386.49 210.067H386.495ZM346.358 165.494C344.292 165.494 342.377 166.822 341.725 168.897C340.92 171.457 342.344 174.184 344.903 174.988C345.048 175.033 345.199 175.076 345.356 175.117C346.188 175.33 347.316 175.489 348.737 175.594C348.856 175.602 348.974 175.607 349.093 175.607C349.23 175.607 349.366 175.601 349.503 175.589C351.199 175.445 352.605 175.374 353.72 175.374C354.047 175.374 354.349 175.38 354.626 175.392H354.621C354.734 176.628 354.946 177.762 355.257 178.795C355.328 179.029 355.416 179.257 355.521 179.478C356.851 182.281 357.626 184.13 357.844 185.026H357.84C357.838 185.184 357.844 185.341 357.858 185.498H357.854C357.846 185.736 357.79 186.124 357.686 186.663H357.681C356.735 189.801 356.201 192.01 356.078 193.29C356.034 193.759 356.029 194.202 356.064 194.62H356.06C356.042 197.088 356.328 199.636 356.919 202.265C356.939 202.352 356.96 202.437 356.985 202.523C358.855 209.133 362.639 212.528 368.335 212.707H368.33C368.54 212.722 368.773 212.729 369.03 212.729C371.605 212.729 376.553 211.998 383.874 210.536H383.87C385.511 210.354 386.617 210.261 387.186 210.258H387.191C387.499 210.318 387.809 210.347 388.118 210.347C389.69 210.347 391.217 209.583 392.145 208.209C393.479 206.236 393.186 203.587 391.453 201.954C390.504 201.06 390.138 199.819 390.353 198.231H390.349C390.414 198.006 390.508 197.774 390.632 197.535H390.627C392.718 194.789 394.874 191.261 397.096 186.949L397.129 186.884C398.529 184.063 399.388 181.977 399.705 180.625C399.97 179.495 399.982 178.463 399.741 177.531H399.736C399.304 174.748 397.747 172.348 395.064 170.331H395.059C393.738 169.213 392.164 168.569 390.335 168.401C390.03 168.373 389.721 168.359 389.405 168.359C388.571 168.359 387.699 168.457 386.789 168.654C384.167 169.221 382.5 171.806 383.067 174.429C383.56 176.705 385.573 178.261 387.811 178.261C388.151 178.261 388.496 178.225 388.842 178.15C388.984 178.12 389.105 178.098 389.206 178.086H389.211C389.687 178.439 389.98 178.717 390.091 178.919H390.086C389.816 179.664 389.262 180.88 388.426 182.564C386.415 186.461 384.518 189.559 382.736 191.859C382.608 192.023 382.492 192.196 382.386 192.375C381.69 193.561 381.187 194.783 380.879 196.041C380.85 196.158 380.826 196.277 380.806 196.396C380.517 198.121 380.477 199.744 380.686 201.264H380.681C374.698 202.439 370.922 203.027 369.352 203.027C369.229 203.027 369.119 203.023 369.023 203.016C368.913 203.006 368.801 203 368.69 202.997C367.731 202.976 366.964 201.998 366.387 200.062H366.382C365.944 198.088 365.743 196.21 365.779 194.428C365.782 194.307 365.78 194.186 365.773 194.065H365.768C365.876 193.312 366.307 191.694 367.062 189.211C367.107 189.061 367.145 188.909 367.176 188.755C367.447 187.408 367.578 186.272 367.57 185.348C367.57 185.302 367.569 185.256 367.568 185.211H367.563C367.594 184.659 367.553 184.074 367.44 183.457C367.149 181.861 366.165 179.283 364.491 175.72H364.486C364.307 174.99 364.226 174.055 364.242 172.915C364.247 172.535 364.207 172.155 364.124 171.784C363.962 171.063 363.71 170.393 363.368 169.773H363.363C362.71 168.361 361.518 167.304 359.786 166.603C359.211 166.37 358.55 166.169 357.805 165.998C357.732 165.982 357.66 165.967 357.587 165.954C356.537 165.764 355.226 165.669 353.655 165.669C352.319 165.669 350.794 165.738 349.081 165.875C348.469 165.824 348.043 165.77 347.804 165.714H347.8C347.32 165.565 346.835 165.494 346.358 165.494Z" fill="black"/>
<path d="M326.546 192.627C326.034 192.627 325.513 192.709 325 192.881C322.92 193.579 321.624 195.548 321.689 197.634H321.684C321.074 198.016 320.083 198.439 318.712 198.903H318.711C317.045 199.441 315.111 199.869 312.907 200.187C312.808 200.201 312.708 200.218 312.61 200.239C310.888 200.598 306.996 200.871 300.934 201.058C300.719 201.064 300.505 201.085 300.292 201.12C298.938 201.344 297.88 201.585 297.118 201.843C296.545 202.037 296.036 202.275 295.59 202.557H295.586C293.436 203.766 292.203 205.515 291.886 207.804C291.805 208.39 291.831 208.987 291.965 209.563C292.139 210.316 292.21 210.849 292.178 211.165H292.174C291.973 211.64 291.798 211.958 291.649 212.118H291.645C291.601 212.15 291.558 212.183 291.515 212.217C289.885 213.489 287.365 214.125 283.955 214.125C283.802 214.125 283.648 214.124 283.492 214.122C283.465 214.121 283.438 214.121 283.411 214.121C280.765 214.121 278.599 216.244 278.555 218.9C278.512 221.582 280.651 223.793 283.333 223.836C283.536 223.84 283.737 223.841 283.937 223.841C289.506 223.841 293.975 222.557 297.345 219.99H297.341C297.768 219.687 298.172 219.341 298.554 218.954C299.6 217.893 300.475 216.512 301.181 214.81C301.456 214.166 301.651 213.476 301.767 212.74C301.866 212.115 301.907 211.451 301.889 210.748H301.885C307.996 210.547 312.175 210.226 314.421 209.785H314.417C317.147 209.385 319.6 208.832 321.775 208.124L321.83 208.105C325.305 206.928 327.826 205.482 329.392 203.767C331.53 201.426 332.117 198.817 331.151 195.941C330.47 193.91 328.576 192.627 326.546 192.627Z" fill="black"/>
<path d="M234.759 219.751C234.541 219.751 234.326 219.756 234.112 219.766C231.432 219.889 229.359 222.162 229.483 224.842C229.603 227.446 231.752 229.477 234.332 229.477C234.408 229.477 234.484 229.475 234.56 229.471C234.63 229.468 234.702 229.466 234.775 229.466C234.952 229.466 235.137 229.476 235.33 229.495H235.327C231.522 235.368 229.326 238.909 228.738 240.119C228.723 240.15 228.708 240.18 228.694 240.211H228.691C228.106 241.273 227.58 242.659 227.111 244.369C227.094 244.429 227.079 244.49 227.064 244.552C226.499 246.98 226.682 249.974 227.616 253.532L227.617 253.537C228.416 256.568 229.671 259.1 231.383 261.132C232.344 262.272 233.718 262.859 235.1 262.859C236.206 262.859 237.317 262.484 238.229 261.715C240.28 259.986 240.542 256.922 238.813 254.87C238.04 253.954 237.441 252.686 237.014 251.067C236.509 249.143 236.339 247.743 236.504 246.867H236.5C236.774 245.877 237.011 245.215 237.21 244.881C237.309 244.715 237.398 244.544 237.476 244.368C237.942 243.411 240.298 239.667 244.547 233.136C244.583 233.081 244.618 233.024 244.652 232.967C245.239 231.978 245.698 231.082 246.03 230.28C246.074 230.173 246.114 230.065 246.151 229.955C246.452 229.047 246.57 228.141 246.506 227.237C246.327 224.729 244.994 222.832 242.507 221.547C242.28 221.429 242.043 221.318 241.796 221.213C241.734 221.187 241.672 221.162 241.608 221.138C239.148 220.213 236.865 219.751 234.759 219.751Z" fill="black"/>
<path d="M315.425 17.6367C315.186 17.6367 314.943 17.6545 314.699 17.691C312.046 18.0887 310.217 20.5621 310.615 23.2155C311.611 29.8593 313.229 38.9252 315.47 50.4131H315.467C316.12 54.449 316.561 57.6213 316.792 59.9301L316.795 59.9567C317.088 62.7303 317.283 65.5148 317.38 68.3104C317.786 83.4893 317.953 92.3567 317.879 94.9126C317.802 97.5945 319.913 99.831 322.595 99.9082C322.643 99.9095 322.69 99.9103 322.738 99.9103C325.356 99.9103 327.515 97.8263 327.591 95.192C327.67 92.4541 327.503 83.3937 327.092 68.0109L327.09 67.9713C326.985 64.957 326.775 61.9543 326.46 58.9631C326.206 56.4294 325.731 53.0109 325.034 48.7079L325.021 48.6308L325.02 48.6291C325.016 48.6037 325.011 48.5783 325.006 48.553C322.792 37.2038 321.198 28.2779 320.223 21.7751C319.862 19.3659 317.79 17.6367 315.425 17.6367Z" fill="black"/>
<path d="M190.287 -0.350586C188.152 -0.350586 186.195 1.06766 185.604 3.22626C184.309 7.95661 185.031 13.0191 187.768 18.4136C187.864 18.6042 187.973 18.7882 188.094 18.9645C207.415 47.1176 218.424 63.9878 221.123 69.5753C221.961 71.3103 223.695 72.3215 225.501 72.3215C226.209 72.3215 226.929 72.1657 227.61 71.8369C230.026 70.67 231.038 67.7657 229.872 65.3497C226.969 59.3404 215.781 42.1435 196.306 13.759H196.303C194.8 10.7028 194.358 8.04675 194.975 5.79095C195.684 3.20315 194.16 0.531137 191.572 -0.177063C191.143 -0.294503 190.711 -0.350586 190.287 -0.350586Z" fill="black"/>
<path d="M81.7742 125.1C79.935 125.1 78.1753 126.149 77.357 127.93C76.2368 130.368 77.3049 133.253 79.7428 134.373C83.0065 135.873 85.4884 137.069 87.1886 137.963H87.1873L101.85 145.961C102.588 146.364 103.386 146.555 104.172 146.555C105.892 146.555 107.559 145.639 108.441 144.022C109.726 141.667 108.858 138.716 106.502 137.431L91.7747 129.397L91.7081 129.362C89.8557 128.388 87.2196 127.116 83.7996 125.544C83.1425 125.243 82.453 125.1 81.7742 125.1Z" fill="black"/>
<path d="M41.2321 330.272C41.165 330.272 41.0976 330.274 41.0299 330.277C35.5117 330.503 30.3429 330.696 25.5234 330.856L25.5158 330.857L25.5018 330.857L25.481 330.858C25.0044 330.876 23.6455 330.912 21.4044 330.964C21.4627 330.963 21.509 330.962 21.5432 330.961H21.5421C21.4968 330.962 21.4307 330.964 21.3438 330.966C19.5642 331.003 17.8584 331.025 16.2252 331.032L16.216 331.032C15.9049 331.034 15.596 331.035 15.2891 331.035C14.8137 331.035 14.3434 331.033 13.878 331.028H13.8769L12.7023 331.006H12.7013C11.9515 330.987 11.2094 330.958 10.4751 330.921L10.3801 330.917C9.31471 330.883 7.53041 330.729 5.02716 330.454C4.84704 330.434 4.66815 330.425 4.49105 330.425C2.04574 330.425 -0.058892 332.266 -0.331896 334.753C-0.624676 337.42 1.29997 339.819 3.96692 340.112C6.69018 340.411 8.71079 340.582 10.0287 340.626C10.8375 340.667 11.6523 340.698 12.4749 340.719L12.5063 340.72L13.7087 340.742L13.7492 340.743C14.2589 340.748 14.7734 340.751 15.2925 340.751C15.616 340.751 15.9413 340.75 16.2684 340.748C17.9565 340.74 19.7219 340.717 21.5638 340.679L21.5658 340.679H21.5669C21.4187 340.683 21.3446 340.684 21.3446 340.684C21.3452 340.684 21.4226 340.683 21.5769 340.679H21.575C21.5862 340.679 21.5978 340.678 21.6098 340.678H21.6109C23.9001 340.625 25.313 340.588 25.8495 340.567H25.8483L25.8546 340.567C30.7018 340.405 35.8924 340.211 41.4273 339.984C44.1081 339.875 46.1922 337.612 46.0825 334.932C45.9755 332.319 43.8235 330.272 41.2321 330.272Z" fill="black"/>
<path d="M82.5286 594.587C81.5276 594.587 80.5176 594.895 79.65 595.535C73.0852 600.374 52.2408 623.285 17.1167 664.268C15.3708 666.305 15.6069 669.372 17.644 671.118C18.56 671.903 19.6843 672.287 20.803 672.287C22.1721 672.287 23.533 671.712 24.4939 670.591C59.1374 630.169 79.4445 607.757 85.4152 603.355C87.5748 601.763 88.0349 598.722 86.4429 596.563C85.4904 595.271 84.0193 594.587 82.5286 594.587Z" fill="black"/>
<path d="M157.372 694.887C155.859 694.887 154.367 695.592 153.418 696.917C142.179 712.611 132.336 730.085 123.888 749.339C116.999 764.58 113.635 775.476 113.799 782.026C113.864 784.667 116.026 786.763 118.653 786.763C118.694 786.763 118.735 786.763 118.776 786.762C121.458 786.695 123.578 784.466 123.512 781.784C123.385 776.707 126.469 767.21 132.763 753.293L132.785 753.243C140.961 734.608 150.472 717.718 161.318 702.573C162.88 700.392 162.378 697.358 160.196 695.795C159.34 695.182 158.351 694.887 157.372 694.887Z" fill="black"/>
<path d="M401.377 791.985C398.836 791.985 396.699 793.96 396.534 796.531C396.345 799.457 396.802 806.607 397.905 817.982C398.646 825.693 399.495 832.607 400.452 838.723C401.804 847.685 402.844 853.882 403.57 857.315C404.184 860.501 405.489 864.83 407.487 870.304C408.206 872.275 410.068 873.498 412.051 873.498C412.604 873.498 413.166 873.403 413.716 873.202C416.236 872.282 417.534 869.493 416.614 866.973C414.776 861.937 413.603 858.08 413.096 855.404L413.075 855.302C412.388 852.054 411.381 846.035 410.056 837.247L410.051 837.22C409.124 831.293 408.298 824.569 407.576 817.048L407.575 817.044C406.523 806.19 406.074 799.561 406.229 797.156C406.402 794.479 404.371 792.168 401.694 791.996C401.588 791.989 401.482 791.985 401.377 791.985Z" fill="black"/>
<path d="M577.261 777.047C574.846 777.047 572.753 778.845 572.446 781.303C572.114 783.965 574.002 786.393 576.664 786.726C578.01 786.894 579.759 787.18 581.911 787.583C591.28 789.352 600.83 791.225 610.561 793.205L610.625 793.218C617.216 794.467 621.028 795.148 622.06 795.261L622.064 795.261C622.083 795.263 622.102 795.265 622.121 795.267H622.114C626.998 796.024 634.288 796.592 643.986 796.972C644.051 796.975 644.115 796.976 644.179 796.976C646.775 796.976 648.928 794.925 649.03 792.308C649.135 789.628 647.047 787.369 644.366 787.264C634.936 786.894 627.966 786.354 623.458 785.644C623.347 785.626 623.235 785.612 623.123 785.603H623.118C622.341 785.517 618.801 784.878 612.501 783.684H612.498C602.713 781.694 593.117 779.811 583.707 778.035L583.702 778.034C581.357 777.594 579.413 777.278 577.869 777.085C577.665 777.059 577.461 777.047 577.261 777.047Z" fill="black"/>
<path d="M775.246 628.731C774.469 628.731 773.681 628.918 772.948 629.312C763.733 634.272 757.68 637.164 754.79 637.988C754.721 638.008 754.653 638.029 754.585 638.052C750.122 639.541 746.814 640.566 744.662 641.127C738.033 642.826 732.847 644.242 729.103 645.375H729.095C727.565 645.774 726.11 646.094 724.731 646.334C722.088 646.794 720.318 649.309 720.778 651.952C721.188 654.314 723.24 655.979 725.558 655.979C725.834 655.979 726.115 655.955 726.396 655.906C728.09 655.611 729.862 655.221 731.711 654.734C731.769 654.719 731.827 654.702 731.885 654.685C735.498 653.589 740.568 652.205 747.094 650.534L747.115 650.529C749.449 649.92 752.914 648.85 757.509 647.319H757.501C761.077 646.288 767.761 643.138 777.553 637.868C779.915 636.597 780.8 633.651 779.528 631.288C778.651 629.658 776.976 628.731 775.246 628.731Z" fill="black"/>
<path d="M797.965 282.257C796.423 282.257 794.906 282.99 793.963 284.355C789.398 290.968 785.431 296.038 782.06 299.566L752.742 329.28C750.857 331.19 750.878 334.266 752.788 336.15C753.734 337.084 754.967 337.55 756.2 337.55C757.454 337.55 758.707 337.067 759.658 336.104L789.031 306.334L789.086 306.278C792.811 302.378 797.102 296.91 801.959 289.875C803.483 287.667 802.929 284.642 800.721 283.117C799.878 282.536 798.917 282.257 797.965 282.257Z" fill="black"/>
<path d="M536.724 31.2041C535.496 31.2041 534.268 31.6662 533.323 32.5933C530.567 35.2959 526.721 38.5097 521.786 42.2349H521.785C497.469 59.9921 484.516 69.5547 482.927 70.9227L482.925 70.9238C482.887 70.9564 482.85 70.9888 482.814 71.0211H482.809C479.613 73.4557 475.88 76.7485 471.61 80.8994C469.687 82.7696 469.643 85.8452 471.513 87.7689C472.466 88.7485 473.731 89.2406 474.997 89.2406C476.217 89.2406 477.439 88.7836 478.383 87.8658C482.468 83.8944 485.973 80.805 488.897 78.5975C489.026 78.5003 489.15 78.3967 489.268 78.2872H489.264C490.658 77.0873 503.429 67.67 527.577 50.0354L527.639 49.9895C532.908 46.0122 537.07 42.526 540.125 39.5309C542.041 37.6526 542.071 34.5768 540.193 32.661C539.241 31.6908 537.983 31.2041 536.724 31.2041Z" fill="black"/>
<path d="M701.632 106.962C700.652 106.962 699.664 107.257 698.807 107.871L686.312 116.821H686.304C671.153 125.719 661.034 131.898 655.947 135.36H655.944C652.345 137.664 646.545 141.777 638.542 147.7C636.386 149.296 635.932 152.338 637.528 154.495C638.481 155.782 639.949 156.463 641.436 156.463C642.44 156.463 643.454 156.153 644.323 155.509C652.237 149.651 657.894 145.639 661.292 143.473C661.333 143.446 661.373 143.42 661.414 143.392C666.347 140.035 676.361 133.925 691.456 125.062C691.583 124.988 691.706 124.908 691.825 124.822L704.464 115.77C706.646 114.207 707.147 111.173 705.585 108.991C704.636 107.667 703.145 106.962 701.632 106.962Z" fill="black"/>
<path d="M735.468 222.351C734.79 222.351 734.101 222.493 733.445 222.794C728.482 225.072 724.497 227.262 721.489 229.364H721.48C719.261 230.789 715.918 233.962 711.451 238.883C709.647 240.869 709.796 243.941 711.782 245.745C712.713 246.589 713.881 247.006 715.046 247.006C716.368 247.006 717.686 246.469 718.644 245.413C722.646 241.005 725.351 238.375 726.76 237.521C726.852 237.466 726.942 237.407 727.03 237.345C729.561 235.573 733.05 233.666 737.497 231.625C739.935 230.506 741.005 227.622 739.886 225.183C739.068 223.402 737.308 222.351 735.468 222.351Z" fill="black"/>
<path d="M802.525 450.696C799.894 450.696 796.808 450.76 793.265 450.889L793.208 450.891C790.56 451.017 787.772 451.27 784.844 451.647L784.778 451.656C782.151 452.029 780.303 454.448 780.644 457.088C780.96 459.533 783.042 461.318 785.493 461.318C785.709 461.318 785.928 461.304 786.149 461.275L786.152 461.275H786.156C788.782 460.937 791.271 460.712 793.624 460.598H793.616C797.047 460.474 800.014 460.412 802.517 460.412C803.63 460.412 804.652 460.424 805.582 460.449H805.573C807.559 460.526 809.523 460.714 811.466 461.015H811.464C814.959 461.601 818.12 462.221 820.945 462.875C821.314 462.961 821.682 463.002 822.045 463.002C824.255 463.002 826.254 461.484 826.774 459.239C827.379 456.625 825.751 454.015 823.138 453.41C820.102 452.707 816.726 452.044 813.01 451.422L812.951 451.413C810.625 451.053 808.275 450.828 805.901 450.738L805.846 450.736C804.834 450.71 803.727 450.696 802.525 450.696Z" fill="black"/>
<path d="M488.256 792.137C487.737 792.137 487.208 792.221 486.689 792.398C484.149 793.263 482.792 796.023 483.657 798.563C484.075 799.79 484.467 801.532 484.832 803.792C485.056 805.376 485.215 806.573 485.311 807.385C485.879 812.569 486.482 817.501 487.12 822.179C487.529 825.317 488.39 831.238 489.701 839.943C490.064 842.351 492.135 844.078 494.499 844.078C494.739 844.078 494.983 844.06 495.228 844.023C497.881 843.623 499.708 841.149 499.308 838.496C498.003 829.826 497.15 823.959 496.751 820.895L496.747 820.867C496.119 816.26 495.525 811.401 494.965 806.289L494.96 806.252C494.854 805.347 494.68 804.041 494.437 802.334L494.423 802.243C493.971 799.445 493.448 797.174 492.854 795.429C492.166 793.409 490.278 792.137 488.256 792.137Z" fill="black"/>
<path d="M528.367 895.796C527.171 895.796 525.973 896.235 525.035 897.12C523.083 898.96 522.993 902.035 524.834 903.987C570.992 952.932 636.33 988.838 720.846 1011.71C720.963 1011.74 721.082 1011.77 721.202 1011.79C737.379 1014.88 748.63 1017.41 754.954 1019.38C755.422 1019.53 755.908 1019.6 756.397 1019.6C756.483 1019.6 756.569 1019.6 756.656 1019.59C757.378 1019.56 758.194 1019.54 759.103 1019.54C767.226 1019.54 782.807 1021.07 805.846 1024.15H805.837C806.343 1024.38 806.921 1024.55 807.57 1024.66C811.335 1025.29 841.524 1026.33 898.138 1027.76H898.134C905.279 1027.96 912.299 1028.05 919.196 1028.05C942.036 1028.05 963.519 1027 983.647 1024.88H983.636C989.506 1024.65 993.62 1023.89 995.977 1022.59C998.579 1021.15 999.831 1019.1 999.732 1016.45C999.678 1015.01 999.161 1013.64 998.18 1012.33C997.641 1011.61 996.945 1010.9 996.092 1010.18C995.183 1009.42 994.077 1009.05 992.978 1009.05C991.589 1009.05 990.209 1009.64 989.249 1010.79C988.277 1011.95 987.941 1013.44 988.202 1014.82H988.192C986.871 1014.98 985.182 1015.1 983.126 1015.18C983.016 1015.18 982.907 1015.19 982.798 1015.2C962.96 1017.29 941.761 1018.34 919.199 1018.34C912.388 1018.34 905.452 1018.24 898.392 1018.05L898.384 1018.05C847.339 1016.76 818.126 1015.82 810.745 1015.24H810.736C810.287 1015.02 809.799 1014.88 809.283 1014.81C784.665 1011.49 767.876 1009.83 758.917 1009.83C758.241 1009.83 757.609 1009.84 757.022 1009.85C750.268 1007.83 739.006 1005.31 723.236 1002.29H723.228C640.553 979.893 576.778 944.905 531.902 897.321C530.946 896.307 529.658 895.796 528.367 895.796Z" fill="black"/>
<path d="M545.532 898.226C545.429 898.234 545.324 898.237 545.215 898.237C545.154 898.237 545.092 898.236 545.029 898.234H545.036C545.092 898.236 545.148 898.237 545.204 898.237C545.313 898.237 545.42 898.233 545.525 898.226H545.532ZM549.704 887.844C549.497 887.844 549.288 887.857 549.078 887.884C548.068 888.014 546.549 888.242 544.523 888.567H544.516C544.471 888.573 544.426 888.579 544.381 888.586L544.379 888.586C543.843 888.666 541.685 889.061 537.903 889.773C537.146 889.912 535.843 890.13 533.995 890.427C531.346 890.854 529.544 893.347 529.971 895.996C530.355 898.383 532.418 900.082 534.761 900.082C535.018 900.082 535.278 900.062 535.539 900.02C537.478 899.708 538.858 899.476 539.679 899.325L539.699 899.321C543.14 898.674 545.148 898.303 545.721 898.21H545.715C545.788 898.202 545.86 898.192 545.931 898.181C545.958 898.177 545.976 898.174 545.985 898.172C547.95 897.857 549.393 897.64 550.318 897.521C552.979 897.178 554.859 894.743 554.516 892.082C554.201 889.632 552.111 887.844 549.704 887.844Z" fill="black"/>
<path d="M840.4 801.717C839.842 801.717 839.275 801.814 838.722 802.017L695.8 854.659H695.791C665.511 864.679 635.295 871.551 605.142 875.276C602.48 875.605 600.588 878.031 600.917 880.693C600.979 881.196 601.115 881.671 601.314 882.109H601.307C583.485 887.004 562.527 892.253 538.432 897.857H538.431C530.802 899.553 525.448 900.514 522.37 900.739C522.106 900.329 521.776 899.953 521.381 899.626C520.475 898.877 519.378 898.511 518.287 898.511C516.889 898.511 515.502 899.112 514.541 900.273C514.521 900.297 514.512 900.309 514.512 900.309C513.093 902.038 512.592 903.839 513.009 905.712C513.554 908.16 515.237 909.666 518.058 910.229C518.739 910.365 519.595 910.433 520.623 910.433C524.635 910.433 531.289 909.399 540.587 907.331L540.633 907.321C570.169 900.451 595.045 894.104 615.26 888.278H615.253C642.493 883.044 657.686 879.754 660.832 878.408C661.09 878.298 661.334 878.177 661.564 878.047H661.556C703.339 863.719 726.14 855.313 729.959 852.83C730.006 852.799 730.054 852.768 730.1 852.736H730.092C759.544 844.344 775.696 839.463 778.549 838.094C778.584 838.077 778.62 838.06 778.654 838.042H778.646C797.578 830.789 818.836 821.773 842.42 810.994C844.795 809.909 845.887 807.14 844.892 804.725C844.122 802.856 842.314 801.717 840.4 801.717Z" fill="black"/>
<path d="M845.535 799.627C845.13 799.665 844.74 799.752 844.372 799.882C844.707 799.75 845.092 799.665 845.526 799.627H845.535ZM777.315 467.613C776.072 467.613 774.954 467.857 773.961 468.344C771.205 469.695 770.028 472.051 770.431 475.411C770.608 476.893 771.184 478.628 772.159 480.616H772.156L818.028 581.997L838.886 662.632H838.876C846.05 703.589 849.349 726.144 848.773 730.297H848.764C848.665 730.667 848.611 731.047 848.602 731.431C847.649 771.916 845.92 794.89 843.413 800.352H843.403C841.968 801.257 841.05 802.89 841.141 804.705C841.27 807.302 843.417 809.321 845.988 809.321C846.07 809.321 846.152 809.319 846.234 809.315C848.368 809.209 850.084 808.109 851.382 806.016C854.958 800.25 857.264 775.66 858.301 732.248H858.292C858.326 732.084 858.355 731.915 858.381 731.742C859.132 726.631 855.803 702.935 848.393 660.653C848.371 660.526 848.344 660.4 848.312 660.275L827.33 579.159C827.26 578.889 827.167 578.626 827.053 578.372L781.776 478.307H781.784C856.227 495.144 916.749 525.749 963.352 570.124H963.348C973.06 580.016 991.927 604.255 1019.95 642.839H1019.94L1040.54 680.452H1040.54C1063.69 727.877 1075.5 772.142 1075.96 813.245C1075.99 815.909 1078.16 818.048 1080.82 818.048C1080.83 818.048 1080.85 818.048 1080.87 818.048C1083.55 818.018 1085.7 815.818 1085.67 813.136C1085.2 770.515 1073.03 724.798 1049.17 675.984C1049.13 675.917 1049.1 675.85 1049.06 675.784L1028.28 637.838C1028.18 637.658 1028.07 637.484 1027.95 637.317C999.461 598.089 980.199 573.382 970.162 563.196C970.126 563.16 970.088 563.123 970.051 563.088C921.184 516.557 857.595 484.795 779.284 467.802C779.185 467.78 779.085 467.762 778.984 467.746C778.444 467.664 777.928 467.62 777.436 467.614C777.395 467.613 777.356 467.613 777.315 467.613Z" fill="black"/>
<path d="M957.301 1027.47C955.611 1027.47 953.968 1028.36 953.073 1029.93C951.747 1032.26 952.563 1035.23 954.895 1036.56C977.383 1049.34 999.938 1061.22 1022.56 1072.19C1022.64 1072.23 1022.71 1072.27 1022.79 1072.3C1035.63 1077.72 1055.74 1085.07 1083.14 1094.34C1083.65 1094.51 1084.18 1094.6 1084.7 1094.6C1086.72 1094.6 1088.61 1093.32 1089.3 1091.29C1090.16 1088.75 1088.79 1086 1086.25 1085.14C1059.23 1075.99 1039.4 1068.76 1026.77 1063.43H1026.76C1004.34 1052.56 981.989 1040.79 959.698 1028.11C958.939 1027.68 958.115 1027.47 957.301 1027.47Z" fill="black"/>
<path d="M855.498 794.757C855.177 794.757 854.85 794.789 854.522 794.856C838.29 798.167 822.156 801.729 806.121 805.542H806.112C782.017 809.279 765.64 812.471 756.98 815.119L663.291 842.903H663.284C654.287 844.841 607.927 862.916 524.203 897.127C521.72 898.142 520.529 900.978 521.544 903.461C522.313 905.343 524.128 906.483 526.043 906.483C526.655 906.483 527.277 906.367 527.878 906.121C611.939 871.772 657.784 853.859 665.415 852.383C665.57 852.353 665.723 852.316 665.874 852.271L759.782 824.422L759.821 824.41C768.063 821.89 784.062 818.789 807.817 815.109C807.945 815.089 808.072 815.064 808.198 815.035C824.191 811.23 840.28 807.677 856.464 804.376C859.093 803.839 860.789 801.274 860.253 798.645C859.784 796.344 857.759 794.757 855.498 794.757Z" fill="black"/>
<path d="M775.804 476.709C775.623 476.709 775.44 476.719 775.256 476.74C772.59 477.039 770.671 479.443 770.97 482.109C771.854 489.984 772.762 495.602 773.695 498.962H773.689C774.728 503.521 778.001 515.392 783.507 534.576H783.498L787.003 552.643C787.033 552.797 787.07 552.948 787.115 553.098C791.215 566.936 793.854 576.606 795.033 582.106C795.079 582.321 795.139 582.532 795.214 582.739C802.292 602.322 809.593 620.526 817.117 637.352H817.108C821.539 649.244 824.004 657.304 824.502 661.532C824.507 661.58 824.514 661.627 824.521 661.674C828.063 685.631 829.888 701.713 829.996 709.921C829.908 725.362 830.194 739.33 830.855 751.826H830.848L830.858 800.198C830.858 800.253 830.859 800.307 830.861 800.361C830.941 802.741 830.628 806.959 829.921 813.015C829.61 815.68 831.518 818.093 834.183 818.404C834.374 818.426 834.564 818.437 834.752 818.437C837.183 818.437 839.283 816.615 839.571 814.142C840.32 807.725 840.655 803.077 840.576 800.196H840.574L840.564 751.569C840.564 751.483 840.562 751.398 840.557 751.313C839.905 738.982 839.623 725.173 839.712 709.886L839.712 709.793C839.598 701.169 837.745 684.703 834.153 660.395H834.151C833.558 655.36 830.878 646.458 826.112 633.689C826.076 633.593 826.037 633.498 825.995 633.404C818.613 616.897 811.443 599.03 804.484 579.804H804.475C803.228 574.065 800.577 564.347 796.522 550.649H796.514L792.977 532.422C792.95 532.282 792.917 532.144 792.877 532.007C787.305 512.593 784.052 500.792 783.118 496.604C783.099 496.523 783.079 496.441 783.057 496.361C782.262 493.499 781.451 488.387 780.625 481.026C780.347 478.543 778.244 476.709 775.804 476.709Z" fill="black"/>
<path d="M953.847 1018.5C952.065 1018.89 950.646 1020.25 950.187 1022.03C950.084 1022.42 950.033 1022.83 950.032 1023.23C949.832 1020.62 951.1 1019.04 953.837 1018.5H953.847Z" fill="black"/>
<path d="M950.688 1015.01L948.769 1015.2C941.861 1015.8 936.214 1016.04 931.828 1015.89C943.387 1022.02 949.909 1025.59 951.394 1026.6C953.427 1028.31 955.205 1030.02 956.729 1031.75C957.564 1032.69 958.409 1033.69 959.263 1034.77L963.689 1040.75C965.003 1041.92 966.327 1042.4 967.662 1042.21C969.372 1042.03 970.676 1041.12 971.575 1039.46C972.31 1037.84 972.185 1036.23 971.199 1034.64C968.802 1030.92 965.516 1026.88 961.341 1022.51L957.506 1019.02C956.14 1018.09 953.867 1016.76 950.688 1015.01Z" fill="black"/>
</g>
<defs>
<clipPath id="clip0_151_193">
<rect width="990" height="1095" fill="white"/>
</clipPath>
</defs>
</svg>
