<svg width="1000" height="368" viewBox="0 0 1000 368" fill="none" xmlns="http://www.w3.org/2000/svg">
<g clip-path="url(#clip0_107_2)">
<rect width="1000" height="368" fill="currentColor"/>
<path d="M63.746 270.898L62.415 320.292L115.337 321.718L116.668 272.324L63.746 270.898Z" fill="currentColor" stroke="#F9D342" stroke-width="2"/>
<path d="M73.8627 215.858L73.0071 247.611L97.7039 248.277L98.5595 216.524L73.8627 215.858Z" fill="currentColor" stroke="#F9D342" stroke-width="2"/>
<path d="M181.081 254.838L131.687 253.507L132.638 218.226L182.032 219.557L181.081 254.838Z" fill="currentColor" stroke="#F9D342" stroke-width="2"/>
<path d="M242.876 320.055L204.067 319.01L208.06 170.829L246.869 171.874L242.876 320.055Z" fill="currentColor" stroke="#F9D342" stroke-width="2"/>
<path d="M178.843 323.429L147.09 322.573L148.326 276.708L180.079 277.563L178.843 323.429Z" fill="currentColor" stroke="#F9D342" stroke-width="2"/>
<path d="M182.697 194.86L66.2693 191.723L67.1249 159.97L183.553 163.107L182.697 194.86Z" fill="currentColor" stroke="#F9D342" stroke-width="2"/>
<path d="M86.7686 217.139L87.181 201.834L114.444 202.569L114.744 191.438L113.656 231.787M112.569 272.137L113.656 231.787M113.656 231.787L131.377 232.265M155.351 253.797L155.051 264.928L163.23 265.148M163.23 265.148L162.855 279.062M163.23 265.148L205.487 266.287M207.774 181.413L183.238 180.752M148.11 218.792L148.822 192.356" stroke="#F9D342" stroke-width="10"/>
<path d="M266.449 151.025L47.7056 145.131L160.209 84.6097L266.449 151.025Z" fill="currentColor" stroke="#F9D342" stroke-width="2"/>
<path d="M263.219 82.8483C263.219 82.8483 254.741 74.2311 236.77 76.7076C235.222 62.3557 220.458 53.5692 220.458 53.5692C220.458 53.5692 205.97 70.4497 215.606 89.9541L195.055 108.456L220.326 125.537L232.238 101.258C257.328 103.908 263.219 82.8483 263.219 82.8483Z" fill="currentColor"/>
<path d="M225.388 47.6788C249.814 44.8731 263.328 53.85 267.003 76.5916" stroke="#F9D342" stroke-width="1.60892"/>
<path d="M226.036 36.9056C254.41 36.7226 271.433 48.0305 278.618 73.1033" stroke="#F9D342" stroke-width="1.60892"/>
<path d="M226.094 24.6195C260.014 25.8696 280.996 39.8078 290.977 69.1384" stroke="#F9D342" stroke-width="1.60892"/>
<path d="M389.893 165.015L390.274 137.946L365.989 137.604L365.607 164.673L352.36 164.486L353.281 99.2126L366.527 99.3993L366.151 126.085L390.437 126.427L390.813 99.7416L404.06 99.9283L403.139 165.202L389.893 165.015ZM418.8 122.89C422.254 118.523 427.948 116.395 435.883 116.507C443.818 116.618 449.451 118.906 452.78 123.369C456.111 127.769 457.72 133.936 457.608 141.871C457.371 158.702 449.893 167.013 435.174 166.806C420.456 166.598 413.215 158.079 413.452 141.249C413.564 133.314 415.347 127.194 418.8 122.89ZM428.274 152.307C429.585 154.63 431.937 155.815 435.329 155.863C438.72 155.91 441.072 154.791 442.385 152.506C443.761 150.221 444.484 146.615 444.553 141.687C444.623 136.76 444.001 133.167 442.689 130.908C441.441 128.65 439.121 127.497 435.729 127.449C432.337 127.402 429.954 128.488 428.578 130.709C427.267 132.931 426.576 136.505 426.507 141.433C426.438 146.36 427.027 149.985 428.274 152.307ZM479.56 166.279L466.697 166.098L467.374 118.102L480.14 118.282L480.103 120.97C484.554 118.473 488.348 117.246 491.484 117.29C496.667 117.363 500.645 118.924 503.419 121.971C509.349 119.046 514.745 117.618 519.609 117.687C525.944 117.776 530.301 119.694 532.681 123.439C535.125 127.122 536.291 132.995 536.177 141.058L535.81 167.072L522.948 166.891L523.309 141.261C523.367 137.166 522.961 134.152 522.092 132.219C521.224 130.223 519.446 129.206 516.759 129.168C514.711 129.139 512.209 129.552 509.252 130.406L507.806 130.866C507.994 135.669 508.071 139.318 508.036 141.814L507.685 166.675L494.822 166.494L495.17 141.825C495.237 137.089 494.868 133.756 494.063 131.824C493.259 129.828 491.449 128.811 488.633 128.771C486.138 128.736 483.668 129.149 481.223 130.011L480.066 130.379L479.56 166.279ZM558.04 148.855C558.063 151.8 558.801 153.955 560.254 155.319C561.771 156.621 563.938 157.291 566.754 157.331C572.705 157.415 578.019 157.298 582.696 156.98L585.388 156.73L585.446 166.235C578.062 167.923 571.394 168.726 565.442 168.642C558.211 168.54 552.991 166.546 549.781 162.66C546.572 158.775 545.028 152.512 545.149 143.873C545.392 126.659 552.585 118.151 566.727 118.351C580.678 118.547 587.551 125.877 587.347 140.34L586.262 149.253L558.04 148.855ZM574.689 139.297C574.743 135.457 574.172 132.793 572.977 131.304C571.783 129.751 569.65 128.953 566.578 128.91C563.571 128.867 561.416 129.637 560.113 131.219C558.876 132.738 558.199 135.352 558.082 139.063L574.689 139.297Z" fill="white"/>
<path d="M594.589 167.9L595.158 127.513L599.377 127.572L598.808 167.96L594.589 167.9ZM627.403 148.728L627.2 163.128C627.293 164.517 628.369 165.357 630.428 165.649L630.212 168.965C627.25 168.923 625.029 168.142 623.55 166.621C620.154 168.073 616.769 168.776 613.394 168.728C610.806 168.692 608.848 167.933 607.518 166.451C606.189 164.97 605.544 162.86 605.582 160.123C605.621 157.385 606.343 155.389 607.748 154.133C609.154 152.84 611.341 152.065 614.307 151.806L623.151 151.087L623.185 148.668C623.212 146.756 622.818 145.381 622.005 144.545C621.192 143.708 620.072 143.28 618.647 143.26C615.647 143.217 612.532 143.361 609.302 143.691L607.556 143.835L607.432 140.626C611.569 139.859 615.231 139.498 618.419 139.543C621.606 139.588 623.902 140.352 625.306 141.834C626.748 143.318 627.447 145.615 627.403 148.728ZM609.917 159.959C609.868 163.409 611.269 165.154 614.119 165.194C616.669 165.23 619.187 164.834 621.674 164.006L622.974 163.575L623.105 154.293L614.769 154.964C613.08 155.09 611.854 155.56 611.092 156.374C610.331 157.189 609.939 158.384 609.917 159.959ZM648.286 139.964C652.073 140.018 654.702 141.142 656.171 143.338C657.679 145.498 658.394 149.277 658.318 154.677C658.242 160.077 657.232 163.87 655.288 166.055C653.383 168.204 649.899 169.243 644.836 169.171C643.261 169.149 640.657 168.962 637.024 168.611L635.451 168.42L636.02 128.089L640.182 128.148L639.989 141.816C642.858 140.544 645.623 139.927 648.286 139.964ZM644.833 165.402C648.508 165.454 650.938 164.663 652.124 163.029C653.348 161.358 653.988 158.536 654.044 154.561C654.1 150.586 653.67 147.804 652.755 146.216C651.84 144.59 650.183 143.76 647.783 143.727C645.608 143.696 643.371 144.077 641.072 144.87L639.941 145.248L639.662 165.048C642.097 165.269 643.82 165.387 644.833 165.402ZM692.332 144.805L683.388 144.679L683.198 158.122C683.153 161.347 683.348 163.469 683.784 164.488C684.257 165.507 685.375 166.029 687.137 166.054L692.148 165.787L692.38 169.279C689.862 169.656 687.947 169.835 686.634 169.817C683.709 169.776 681.694 169.034 680.589 167.594C679.485 166.153 678.96 163.426 679.017 159.414L679.225 144.62L675.232 144.564L675.283 140.907L679.277 140.964L679.398 132.357L683.561 132.416L683.439 141.022L692.383 141.148L692.332 144.805ZM716.313 166.128L717.946 165.982L718.012 169.303C713.728 169.842 710.068 170.091 707.03 170.048C702.98 169.991 700.128 168.788 698.473 166.439C696.819 164.053 696.027 160.385 696.097 155.435C696.236 145.572 700.224 140.696 708.062 140.807C711.849 140.86 714.665 141.969 716.51 144.133C718.355 146.259 719.246 149.591 719.182 154.129L718.912 157.332L700.35 157.07C700.306 160.182 700.836 162.497 701.94 164.013C703.043 165.528 704.983 166.306 707.758 166.345C710.57 166.385 713.422 166.312 716.313 166.128ZM714.966 153.9C715.015 150.45 714.486 148.005 713.381 146.564C712.314 145.124 710.524 144.386 708.012 144.35C705.537 144.316 703.651 145.039 702.355 146.521C701.096 148.004 700.425 150.395 700.341 153.694L714.966 153.9ZM736.461 141.207C737.699 141.224 739.796 141.479 742.752 141.971L744.099 142.159L743.882 145.587C740.887 145.208 738.677 145.008 737.252 144.988C734.064 144.943 731.878 145.681 730.694 147.202C729.548 148.686 728.946 151.491 728.888 155.616C728.83 159.703 729.315 162.561 730.342 164.188C731.407 165.816 733.627 166.653 737.002 166.701L743.647 166.288L743.766 169.778C740.271 170.254 737.661 170.48 735.936 170.455C731.549 170.394 728.527 169.226 726.871 166.952C725.253 164.679 724.482 160.88 724.557 155.555C724.632 150.192 725.585 146.455 727.415 144.343C729.246 142.193 732.261 141.148 736.461 141.207ZM754.256 170.151L750.038 170.092L750.607 129.704L754.826 129.764L754.631 143.601C757.651 142.218 760.548 141.547 763.323 141.586C767.073 141.639 769.571 142.686 770.818 144.729C772.102 146.773 772.707 150.382 772.634 155.557L772.425 170.407L768.206 170.348L768.414 155.61C768.469 151.71 768.113 149.042 767.345 147.606C766.616 146.133 765.014 145.379 762.539 145.344C760.176 145.311 757.883 145.71 755.658 146.541L754.584 146.92L754.256 170.151ZM801.792 145.897C797.704 145.84 795.641 147.236 795.6 150.086C795.582 151.398 796.038 152.343 796.967 152.918C797.897 153.457 800.027 154.049 803.356 154.696C806.685 155.306 809.037 156.145 810.409 157.215C811.782 158.284 812.448 160.263 812.407 163.15C812.366 166.038 811.399 168.143 809.505 169.467C807.649 170.791 804.939 171.428 801.377 171.378C799.052 171.345 796.318 171.044 793.175 170.475L791.492 170.17L791.768 166.516C796.034 167.214 799.255 167.578 801.43 167.609C803.605 167.64 805.259 167.325 806.394 166.666C807.567 165.97 808.164 164.816 808.187 163.203C808.21 161.553 807.738 160.44 806.771 159.864C805.805 159.25 803.675 158.658 800.382 158.086C797.09 157.515 794.757 156.713 793.384 155.681C792.01 154.649 791.343 152.764 791.382 150.027C791.42 147.289 792.405 145.277 794.336 143.992C796.305 142.707 798.733 142.085 801.62 142.125C803.908 142.158 806.773 142.461 810.215 143.034L811.786 143.338L811.623 146.936C807.469 146.277 804.192 145.931 801.792 145.897ZM833.671 146.797L824.727 146.671L824.537 160.114C824.492 163.339 824.687 165.461 825.123 166.48C825.596 167.5 826.714 168.022 828.476 168.047L833.487 167.78L833.719 171.271C831.201 171.648 829.286 171.827 827.973 171.809C825.048 171.768 823.033 171.027 821.928 169.586C820.823 168.145 820.299 165.418 820.356 161.406L820.564 146.612L816.571 146.556L816.622 142.9L820.616 142.956L820.737 134.35L824.9 134.408L824.778 143.015L833.722 143.141L833.671 146.797ZM858.61 151.987L858.407 166.387C858.5 167.776 859.576 168.616 861.635 168.908L861.419 172.224C858.457 172.182 856.236 171.401 854.757 169.88C851.361 171.332 847.976 172.035 844.601 171.987C842.013 171.951 840.055 171.192 838.725 169.71C837.396 168.229 836.751 166.119 836.789 163.382C836.828 160.644 837.55 158.648 838.955 157.392C840.361 156.099 842.548 155.324 845.514 155.065L854.357 154.346L854.392 151.927C854.419 150.015 854.025 148.64 853.212 147.804C852.399 146.967 851.279 146.539 849.854 146.519C846.854 146.476 843.739 146.62 840.509 146.949L838.763 147.094L838.639 143.885C842.776 143.118 846.438 142.757 849.625 142.802C852.813 142.847 855.109 143.611 856.513 145.093C857.955 146.577 858.654 148.874 858.61 151.987ZM841.124 163.218C841.075 166.668 842.476 168.413 845.326 168.453C847.876 168.489 850.394 168.093 852.881 167.265L854.181 166.834L854.312 157.552L845.976 158.223C844.287 158.349 843.061 158.819 842.299 159.633C841.538 160.448 841.146 161.643 841.124 163.218ZM877.58 143.196C878.818 143.214 880.915 143.468 883.871 143.96L885.218 144.148L885.001 147.577C882.006 147.197 879.796 146.997 878.371 146.977C875.183 146.932 872.998 147.67 871.813 149.191C870.667 150.675 870.065 153.48 870.007 157.605C869.949 161.692 870.434 164.55 871.462 166.177C872.526 167.805 874.746 168.643 878.121 168.69L884.766 168.277L884.885 171.767C881.39 172.243 878.781 172.469 877.056 172.445C872.668 172.383 869.646 171.215 867.991 168.941C866.372 166.668 865.601 162.869 865.676 157.544C865.751 152.181 866.704 148.444 868.534 146.332C870.365 144.182 873.38 143.137 877.58 143.196ZM895.376 172.14L891.157 172.081L891.726 131.693L895.945 131.753L895.609 155.603L899.999 155.44L908.203 144.19L912.984 144.258L903.633 157.066L912.982 172.388L908.2 172.321L900.003 159.153L895.557 159.259L895.376 172.14Z" fill="white" fill-opacity="0.25"/>
<path d="M325.041 252.354C321.167 253.087 317.693 253.432 314.618 253.389C311.543 253.345 309.055 252.898 307.154 252.046C305.292 251.157 303.848 249.824 302.822 248.046C301.835 246.232 301.152 244.178 300.771 241.885C300.429 239.555 300.282 236.664 300.331 233.214C300.38 229.764 300.608 226.88 301.016 224.56C301.461 222.203 302.203 220.132 303.241 218.346C304.316 216.561 305.797 215.269 307.684 214.471C309.571 213.672 312.014 213.294 315.014 213.336C318.014 213.378 321.533 213.841 325.572 214.723L325.351 218.377C321.573 217.648 318.203 217.263 315.241 217.221C311.116 217.163 308.361 218.362 306.976 220.818C305.629 223.237 304.914 227.409 304.83 233.334C304.788 236.297 304.867 238.679 305.067 240.483C305.304 242.286 305.769 243.924 306.46 245.397C307.153 246.832 308.17 247.878 309.511 248.534C310.89 249.154 312.892 249.482 315.517 249.519C318.179 249.557 321.315 249.263 324.925 248.639L325.041 252.354ZM329.798 238.918C329.87 233.781 330.841 230.081 332.711 227.82C334.581 225.558 337.691 224.458 342.041 224.519C346.428 224.581 349.506 225.768 351.273 228.081C353.079 230.395 353.945 234.12 353.873 239.258C353.8 244.395 352.885 248.114 351.127 250.415C349.37 252.716 346.203 253.834 341.628 253.769C337.053 253.705 333.92 252.498 332.227 250.149C330.535 247.799 329.725 244.056 329.798 238.918ZM334.13 238.923C334.072 243.011 334.519 245.886 335.471 247.55C336.46 249.214 338.53 250.069 341.68 250.113C344.867 250.158 346.96 249.381 347.958 247.782C348.956 246.146 349.484 243.265 349.542 239.14C349.6 235.015 349.097 232.176 348.031 230.624C346.965 229.033 344.952 228.217 341.989 228.176C339.064 228.134 337.028 228.893 335.881 230.452C334.772 231.975 334.188 234.798 334.13 238.923ZM364.773 253.533L360.554 253.473L360.951 225.348L365.113 225.407L365.085 227.376C367.922 225.728 370.671 224.923 373.334 224.96C376.821 225.01 379.245 226 380.606 227.932C381.854 227.2 383.457 226.566 385.415 226.031C387.411 225.459 389.159 225.183 390.659 225.205C394.409 225.257 396.907 226.305 398.153 228.348C399.438 230.354 400.043 233.964 399.97 239.176L399.76 254.026L395.542 253.967L395.749 239.229C395.804 235.329 395.467 232.661 394.737 231.226C394.008 229.753 392.424 228.999 389.987 228.965C388.749 228.947 387.472 229.117 386.154 229.473C384.836 229.792 383.819 230.115 383.102 230.443L382.026 230.934C382.496 232.178 382.701 234.919 382.642 239.157L382.435 253.782L378.217 253.722L378.421 239.21C378.478 235.16 378.142 232.417 377.412 230.982C376.72 229.509 375.137 228.755 372.662 228.72C371.462 228.703 370.222 228.874 368.941 229.231C367.699 229.551 366.738 229.875 366.058 230.203L365.095 230.695L364.773 253.533ZM631.571 216.895L631.001 257.286L626.839 257.227L626.865 255.314C623.954 256.924 621.093 257.708 618.28 257.669C616.78 257.648 615.47 257.442 614.35 257.051C613.23 256.66 612.19 255.97 611.228 254.981C609.232 252.928 608.272 249.182 608.348 243.744C608.426 238.268 609.381 234.343 611.215 231.968C613.087 229.557 616.123 228.38 620.324 228.44C622.499 228.47 624.802 228.746 627.233 229.268L627.408 216.836L631.571 216.895ZM614.534 251.989C615.124 252.71 615.755 253.207 616.426 253.479C617.097 253.751 617.958 253.895 619.008 253.909C620.096 253.925 621.298 253.773 622.616 253.454C623.971 253.098 625.026 252.756 625.781 252.429L626.913 251.939L627.182 232.869C624.788 232.385 622.56 232.128 620.497 232.099C617.647 232.059 615.646 232.95 614.495 234.772C613.345 236.556 612.743 239.361 612.689 243.186C612.627 247.536 613.242 250.471 614.534 251.989ZM655.804 229.505L660.023 229.564L665.359 254.113L666.259 254.126L673.29 230.314L677.677 230.375L684.034 254.376L684.991 254.39L690.96 230L695.179 230.06L688.089 258.09L681.058 257.991L675.405 235.913L669.133 257.823L662.102 257.724L655.804 229.505ZM700.561 258.266L700.957 230.141L705.176 230.2L704.779 258.325L700.561 258.266ZM701.047 223.785L701.116 218.891L705.334 218.95L705.265 223.844L701.047 223.785ZM727.779 234.176L718.835 234.05L718.646 247.494C718.6 250.719 718.795 252.841 719.231 253.859C719.704 254.879 720.822 255.401 722.585 255.426L727.596 255.159L727.828 258.65C725.309 259.027 723.394 259.207 722.082 259.188C719.157 259.147 717.142 258.406 716.037 256.965C714.932 255.524 714.408 252.798 714.464 248.785L714.673 233.991L710.679 233.935L710.73 230.279L714.724 230.335L714.846 221.729L719.008 221.788L718.887 230.394L727.83 230.52L727.779 234.176ZM736.804 258.777L732.586 258.717L733.155 218.33L737.374 218.389L737.179 232.227C740.199 230.844 743.096 230.172 745.871 230.211C749.621 230.264 752.12 231.312 753.366 233.355C754.65 235.399 755.255 239.008 755.183 244.183L754.973 259.033L750.754 258.973L750.962 244.236C751.017 240.336 750.661 237.668 749.894 236.232C749.164 234.759 747.562 234.005 745.087 233.97C742.724 233.937 740.431 234.336 738.206 235.167L737.132 235.546L736.804 258.777ZM789.783 259.524L775.889 259.328L776.438 220.403L790.331 220.599C796.669 220.688 800.833 223.26 802.825 228.314C803.984 231.218 804.531 235.014 804.465 239.702C804.327 249.489 801.803 255.623 796.892 258.105C794.927 259.09 792.558 259.563 789.783 259.524ZM800.021 239.639C800.126 232.176 798.523 227.503 795.212 225.618C793.872 224.849 792.227 224.451 790.277 224.424L780.715 224.289L780.274 255.564L789.837 255.699C796.474 255.792 799.869 250.439 800.021 239.639ZM810.374 245.692C810.446 240.555 811.418 236.855 813.287 234.594C815.157 232.332 818.267 231.232 822.617 231.293C827.004 231.355 830.082 232.542 831.85 234.855C833.655 237.169 834.521 240.894 834.449 246.032C834.377 251.169 833.461 254.888 831.704 257.189C829.946 259.49 826.78 260.608 822.205 260.543C817.63 260.479 814.496 259.272 812.804 256.923C811.112 254.573 810.302 250.83 810.374 245.692ZM814.706 245.697C814.648 249.785 815.096 252.66 816.047 254.324C817.036 255.988 819.106 256.843 822.256 256.887C825.444 256.932 827.536 256.155 828.534 254.556C829.532 252.92 830.06 250.039 830.119 245.914C830.177 241.789 829.673 238.95 828.607 237.398C827.542 235.807 825.528 234.991 822.565 234.95C819.64 234.908 817.604 235.667 816.457 237.226C815.348 238.749 814.764 241.572 814.706 245.697ZM852.054 231.708C853.291 231.726 855.388 231.98 858.344 232.472L859.692 232.66L859.475 236.089C856.479 235.709 854.269 235.509 852.844 235.489C849.657 235.444 847.471 236.182 846.287 237.703C845.141 239.187 844.538 241.992 844.48 246.117C844.423 250.204 844.907 253.062 845.935 254.689C847 256.317 849.219 257.155 852.594 257.202L859.239 256.789L859.359 260.279C855.864 260.755 853.254 260.981 851.529 260.957C847.141 260.895 844.12 259.727 842.464 257.453C840.846 255.18 840.074 251.381 840.149 246.056C840.225 240.693 841.177 236.956 843.008 234.844C844.838 232.694 847.854 231.649 852.054 231.708ZM869.849 260.652L865.63 260.593L866.199 220.205L870.418 220.265L870.082 244.115L874.473 243.952L882.676 232.702L887.458 232.77L878.107 245.578L887.455 260.9L882.674 260.833L874.476 247.665L870.03 247.771L869.849 260.652ZM911.006 257.744L912.64 257.598L912.706 260.919C908.422 261.458 904.762 261.707 901.724 261.664C897.674 261.607 894.822 260.404 893.167 258.055C891.513 255.669 890.721 252.001 890.791 247.051C890.93 237.188 894.918 232.312 902.755 232.423C906.543 232.476 909.359 233.585 911.204 235.749C913.049 237.875 913.94 241.207 913.876 245.745L913.606 248.948L895.043 248.686C895 251.799 895.53 254.113 896.633 255.629C897.737 257.145 899.677 257.922 902.452 257.961C905.264 258.001 908.116 257.928 911.006 257.744ZM909.66 245.516C909.708 242.066 909.18 239.621 908.075 238.18C907.008 236.74 905.218 236.002 902.706 235.967C900.231 235.932 898.345 236.655 897.049 238.137C895.79 239.62 895.119 242.011 895.035 245.31L909.66 245.516ZM920.232 261.362L920.628 233.237L924.791 233.296L924.737 237.121C928.031 234.917 931.483 233.484 935.093 232.822L935.033 237.097C933.454 237.375 931.797 237.821 930.063 238.434C928.367 239.048 927.065 239.592 926.158 240.067L924.742 240.778L924.451 261.422L920.232 261.362Z" fill="white" fill-opacity="0.25"/>
<path d="M434.894 235.511L424.143 235.36L423.876 254.366L410.629 254.179L411.549 188.906L435.547 189.244C451.033 189.462 458.67 197.123 458.457 212.225C458.35 219.84 456.283 225.668 452.258 229.708C448.298 233.684 442.51 235.619 434.894 235.511ZM424.303 224.033L434.958 224.183C441.549 224.276 444.903 220.227 445.018 212.036C445.075 208.004 444.316 205.113 442.74 203.363C441.166 201.548 438.683 200.617 435.291 200.57L424.636 200.419L424.303 224.033ZM469.194 212.473C472.648 208.105 478.342 205.977 486.277 206.089C494.213 206.201 499.845 208.488 503.174 212.951C506.505 217.351 508.114 223.518 508.002 231.453C507.765 248.284 500.287 256.595 485.568 256.388C470.85 256.18 463.609 247.661 463.847 230.831C463.958 222.896 465.741 216.776 469.194 212.473ZM478.668 241.889C479.98 244.212 482.331 245.397 485.723 245.445C489.114 245.493 491.466 244.374 492.779 242.088C494.155 239.803 494.878 236.197 494.947 231.269C495.017 226.342 494.395 222.749 493.083 220.49C491.835 218.232 489.515 217.079 486.123 217.032C482.732 216.984 480.348 218.07 478.973 220.291C477.661 222.513 476.971 226.087 476.901 231.015C476.832 235.942 477.421 239.567 478.668 241.889ZM552.059 220.169C544.139 219.033 538.578 218.443 535.379 218.398C532.243 218.354 530.191 218.613 529.223 219.175C528.319 219.739 527.858 220.66 527.84 221.94C527.823 223.156 528.419 224.028 529.627 224.557C530.901 225.023 534.091 225.773 539.197 226.805C544.367 227.774 548.026 229.329 550.172 231.472C552.318 233.614 553.357 237.053 553.291 241.789C553.145 252.156 546.64 257.249 533.777 257.067C529.554 257.008 524.442 256.36 518.443 255.123L515.38 254.504L515.915 243.758C523.836 244.894 529.332 245.483 532.404 245.527C535.54 245.571 537.655 245.313 538.752 244.752C539.912 244.128 540.501 243.209 540.519 241.993C540.536 240.777 539.94 239.872 538.733 239.279C537.589 238.687 534.527 237.94 529.547 237.038C524.632 236.136 520.972 234.676 518.568 232.658C516.164 230.64 514.998 227.104 515.069 222.048C515.141 216.929 516.923 213.113 520.415 210.602C523.908 208.027 528.374 206.778 533.813 206.855C537.589 206.908 542.732 207.588 549.242 208.896L552.401 209.517L552.059 220.169ZM573.188 237.941C573.211 240.885 573.948 243.04 575.401 244.405C576.919 245.706 579.086 246.377 581.902 246.416C587.853 246.5 593.167 246.383 597.844 246.065L600.536 245.815L600.594 255.321C593.209 257.009 586.541 257.811 580.59 257.727C573.359 257.625 568.138 255.631 564.929 251.746C561.719 247.86 560.175 241.598 560.297 232.959C560.54 215.744 567.732 207.237 581.875 207.436C595.826 207.633 602.699 214.962 602.495 229.425L601.409 238.339L573.188 237.941ZM589.837 228.382C589.891 224.543 589.32 221.879 588.125 220.39C586.931 218.837 584.798 218.038 581.726 217.995C578.718 217.953 576.563 218.722 575.261 220.304C574.023 221.823 573.347 224.438 573.23 228.148L589.837 228.382Z" fill="white"/>
</g>
<defs>
<clipPath id="clip0_107_2">
<rect width="1000" height="368" fill="white"/>
</clipPath>
</defs>
</svg>
