<svg width="250" height="183" viewBox="0 0 250 183" fill="none" xmlns="http://www.w3.org/2000/svg">
<path d="M180.723 96.7657V11.313L66.265 35.1253V153.163L180.723 176.976V91.5229" stroke="white" stroke-width="9.03615"/>
<path d="M123.494 124.566C144.454 124.566 161.446 107.575 161.446 86.6144C161.446 65.6542 144.454 48.6626 123.494 48.6626C102.534 48.6626 85.5422 65.6542 85.5422 86.6144C85.5422 107.575 102.534 124.566 123.494 124.566Z" stroke="white" stroke-width="8.43373"/>
<path d="M24.0964 112.217C34.9092 112.217 43.6747 103.451 43.6747 92.6384C43.6747 81.8256 34.9092 73.0601 24.0964 73.0601C13.2836 73.0601 4.51807 81.8256 4.51807 92.6384C4.51807 103.451 13.2836 112.217 24.0964 112.217Z" stroke="white" stroke-width="9.03615"/>
<path d="M66.2651 92.6387H45.1808" stroke="white" stroke-width="9.03615"/>
<path d="M111.446 183V143.843" stroke="white" stroke-width="9.03615"/>
<path d="M135.542 183V143.843" stroke="white" stroke-width="9.03615"/>
<path d="M225.904 48.9642C215.091 48.9642 206.325 40.1987 206.325 29.3859C206.325 18.5731 215.091 9.80762 225.904 9.80762C236.716 9.80762 245.482 18.5731 245.482 29.3859C245.482 40.1987 236.716 48.9642 225.904 48.9642Z" stroke="white" stroke-width="9.03615"/>
<path d="M183.735 29.3853H204.819" stroke="white" stroke-width="9.03615"/>
<path d="M225.904 178.482C215.091 178.482 206.325 169.716 206.325 158.904C206.325 148.091 215.091 139.325 225.904 139.325C236.716 139.325 245.482 148.091 245.482 158.904C245.482 169.716 236.716 178.482 225.904 178.482Z" stroke="white" stroke-width="9.03615"/>
<path d="M183.735 158.904H204.819" stroke="white" stroke-width="9.03615"/>
<path d="M225.904 112.217C215.091 112.217 206.325 103.451 206.325 92.6384C206.325 81.8256 215.091 73.0601 225.904 73.0601C236.716 73.0601 245.482 81.8256 245.482 92.6384C245.482 103.451 236.716 112.217 225.904 112.217Z" stroke="white" stroke-width="9.03615"/>
<path d="M183.735 92.6387H204.819" stroke="white" stroke-width="9.03615"/>
</svg>
