<svg width="1251" height="859" viewBox="0 0 1251 859" fill="none" xmlns="http://www.w3.org/2000/svg">
<g clip-path="url(#clip0_149_525)">
<path d="M469.353 607.366C468.55 607.366 467.799 607.718 467.099 608.423C466.124 609.404 465.883 610.649 466.374 612.156C466.566 612.745 466.941 613.557 467.498 614.59H467.496C468.478 616.549 470.29 618.842 472.932 621.469C472.969 621.505 473.005 621.54 473.043 621.574L525.178 668.61L525.217 668.644C534.669 676.896 555.172 692.334 586.727 714.958H586.726C609.123 731.845 637.803 745.97 672.764 757.336L672.849 757.362C687.718 761.736 710.457 765.885 741.067 769.808H741.065C744.121 770.233 761.554 770.446 793.363 770.446C811.791 770.446 835.043 770.375 863.12 770.232L863.213 770.23C871.315 769.95 880.113 769.06 889.605 767.558H889.611C889.622 767.558 889.633 767.558 889.645 767.558C889.652 767.558 889.66 767.558 889.668 767.558C893 767.558 915.331 763.322 956.661 754.848C956.841 754.811 957.017 754.759 957.187 754.692H957.18C958.688 754.355 965.321 753.798 977.081 753.02C977.229 753.01 977.377 752.99 977.523 752.959L997.138 748.839H997.144C997.151 748.838 997.159 748.836 997.167 748.835H997.173C997.567 749.002 997.99 749.087 998.414 749.087C999.127 749.087 999.843 748.848 1000.43 748.358C1001.53 747.45 1001.96 746.353 1001.72 745.067C1001.39 743.256 1000.21 742.351 998.209 742.351C998.153 742.351 998.095 742.352 998.037 742.353C997.515 742.366 996.806 742.456 995.908 742.623L995.836 742.637L976.436 746.712H976.43C964.158 747.526 957.185 748.147 955.513 748.576C955.368 748.613 955.229 748.655 955.097 748.701H955.09C914.52 757.018 892.734 761.191 889.733 761.221C889.635 761.212 889.537 761.207 889.439 761.207C889.272 761.207 889.105 761.221 888.94 761.247C879.596 762.736 870.962 763.619 863.039 763.895H863.034C833.831 764.043 809.895 764.118 791.225 764.118C760.949 764.118 744.521 763.923 741.943 763.532L741.872 763.522C711.653 759.649 689.269 755.577 674.72 751.307H674.717C640.4 740.15 612.321 726.333 590.482 709.854L590.42 709.808C559.074 687.333 538.742 672.032 529.424 663.904L477.364 616.937H477.362C475.807 615.388 474.642 614.051 473.867 612.925H473.866C474.306 611.787 474.065 610.446 473.143 609.531C472.582 608.973 472.104 608.551 471.71 608.267C470.88 607.666 470.095 607.366 469.353 607.366Z" fill="black"/>
<path d="M441.95 576.447C441.273 576.447 440.591 576.663 440.014 577.109L417.084 594.835C416.884 594.99 416.703 595.168 416.545 595.366C410.053 603.508 403.714 611.931 397.528 620.636L397.464 620.73C395.807 623.248 395.159 625.731 395.52 628.18C395.534 628.278 395.553 628.376 395.577 628.472C395.874 629.687 396.258 630.67 396.727 631.423C396.907 631.71 397.102 631.971 397.313 632.206C397.375 632.276 397.441 632.342 397.509 632.406C402.938 637.471 406.649 642.018 408.64 646.044C408.736 646.239 408.852 646.423 408.986 646.593H408.985C409.834 647.94 412.826 654.894 417.96 667.456C418.017 667.593 418.082 667.726 418.157 667.855C420.789 672.361 428.623 688.272 441.657 715.587H441.656C443.165 719.768 450.152 730.995 462.617 749.269H462.616L481.772 787.922C482.319 789.026 483.435 789.684 484.611 789.684C484.949 789.684 485.292 789.63 485.628 789.516C487.131 789.007 488.025 787.464 487.72 785.906L481.319 753.203H481.317C478.521 723.672 476.326 706.578 474.732 701.921H474.73C466.323 666.126 457.955 637.835 449.625 617.048H449.623C450.552 616.458 452.42 616.163 455.227 616.163C458.487 616.163 463.012 616.561 468.802 617.357C468.949 617.377 469.094 617.387 469.238 617.387C470.796 617.387 472.155 616.236 472.373 614.649C472.611 612.916 471.399 611.317 469.665 611.079C464.475 610.365 460.059 610.008 456.418 610.008C450.651 610.008 446.829 610.903 444.95 612.693C443.971 613.625 443.393 614.74 443.215 616.038C443.16 616.435 443.147 616.84 443.174 617.254C443.195 617.563 443.239 617.876 443.305 618.192C443.344 618.374 443.398 618.552 443.468 618.724C451.781 639.303 460.157 667.57 468.597 703.525C468.627 703.653 468.665 703.779 468.711 703.902C470.121 707.703 472.224 724.381 475.021 753.939C475.031 754.043 475.046 754.147 475.066 754.25L476.965 763.952L468.192 746.25C468.127 746.118 468.053 745.992 467.97 745.871C455.541 727.656 448.748 716.82 447.591 713.362C447.55 713.239 447.502 713.12 447.446 713.003C434.48 685.829 426.58 669.783 423.748 664.863H423.747C418.448 651.903 415.284 644.64 414.254 643.072C414.236 643.044 414.217 643.015 414.198 642.988H414.197C411.872 638.397 407.826 633.396 402.059 627.984C401.972 627.81 401.877 627.528 401.776 627.137C401.696 626.322 402.01 625.367 402.718 624.273C408.752 615.784 414.932 607.565 421.261 599.617H421.259L443.89 582.123C445.274 581.053 445.529 579.062 444.459 577.678C443.834 576.87 442.897 576.447 441.95 576.447Z" fill="black"/>
<path d="M1081.36 731.531C1080.61 732.041 1080.13 732.839 1080.01 733.71H1080C1079.96 733.748 1079.91 733.786 1079.87 733.825C1079.85 732.935 1080.35 732.17 1081.35 731.531H1081.36ZM1071.14 743.001C1072.3 743.001 1073.12 743.565 1073.58 744.693C1073.55 744.629 1073.51 744.566 1073.47 744.504C1072.88 743.584 1071.87 743.049 1070.81 743.049C1070.57 743.049 1070.34 743.074 1070.11 743.126C1070.48 743.043 1070.82 743.001 1071.14 743.001ZM1052.92 764.691C1053.68 764.691 1054.43 765.12 1055.15 765.978C1054.52 765.237 1053.63 764.854 1052.73 764.854C1052.42 764.854 1052.11 764.899 1051.81 764.991C1052.18 764.791 1052.56 764.691 1052.92 764.691ZM983.642 787.004C983.393 788.001 983.648 789.023 984.264 789.777C983.504 789.098 983.294 788.174 983.635 787.004H983.642ZM1043.66 699.329C1042.54 699.329 1041.56 700.007 1040.75 701.365C1040.61 701.602 1040.48 701.863 1040.37 702.147C1040.22 702.525 1040.09 702.964 1039.98 703.464C1039.6 705.172 1040.67 706.865 1042.38 707.245C1042.61 707.296 1042.85 707.321 1043.07 707.321C1043.19 707.321 1043.31 707.314 1043.42 707.302H1043.43C1045.32 709.428 1048.36 712.105 1052.55 715.333C1052.59 715.367 1052.64 715.4 1052.69 715.432C1066.99 725.292 1075.82 731.621 1079.17 734.421H1079.16C1072.91 739.739 1069.35 742.897 1068.5 743.893C1068.23 744.207 1068.02 744.528 1067.86 744.857H1067.86C1058.93 756.522 1053.51 763.261 1051.58 765.074H1051.57C1051.26 765.195 1050.97 765.365 1050.7 765.587C1039.77 774.682 1027 783.477 1012.38 791.973C1012.22 792.062 1012.08 792.164 1011.94 792.277L996.615 805.03H996.608C989.234 809.298 983.033 813.574 978.007 817.856H978L957.685 828.359C975.013 806.231 985.094 793.678 987.926 790.702H987.919C988.589 790.427 989.163 789.925 989.517 789.254H989.51C990.915 787.588 998.234 782.39 1011.47 773.661C1011.63 773.556 1011.78 773.437 1011.91 773.305C1032.52 753.575 1044.9 742.975 1049.04 741.505C1050.53 740.975 1051.4 739.426 1051.08 737.876C1050.77 736.397 1049.47 735.35 1047.98 735.35C1047.91 735.35 1047.83 735.353 1047.76 735.358L1019.55 737.255C1019.43 737.262 1019.32 737.276 1019.21 737.296C1005.59 739.707 997.675 741.539 995.463 742.793C994.704 743.224 994.149 743.761 993.799 744.406C992.965 745.944 993.535 747.868 995.073 748.702C995.553 748.963 996.071 749.087 996.581 749.087C997.386 749.087 998.172 748.78 998.764 748.218H998.757C1000.63 747.312 1007.76 745.762 1020.14 743.567H1020.13L1036.59 742.46H1036.6C1029.76 747.977 1020.13 756.671 1007.72 768.544H1007.72C994.736 777.112 987.112 782.592 984.844 784.983H984.837C984.678 785.088 984.521 785.207 984.365 785.341C982.201 787.188 970.905 801.169 950.479 827.284H950.473L926.719 853.462C925.594 854.701 925.627 856.601 926.794 857.801C927.413 858.437 928.238 858.76 929.066 858.76C929.798 858.76 930.532 858.508 931.128 857.996C944.629 846.415 954.282 838.501 960.085 834.256H960.079L981.253 823.308C981.472 823.195 981.677 823.057 981.863 822.897C986.695 818.744 992.752 814.569 1000.03 810.371C1000.19 810.28 1000.34 810.177 1000.48 810.061L1015.77 797.332H1015.77C1030.31 788.871 1043.07 780.101 1054.07 771.024H1054.07C1054.42 770.862 1054.77 770.64 1055.14 770.359L1055.14 770.358C1055.23 770.29 1055.32 770.216 1055.42 770.136C1057.48 768.398 1063.44 761.067 1073.32 748.142C1073.42 748.007 1073.52 747.867 1073.59 747.721H1073.59C1074.75 746.555 1078.44 743.333 1084.68 738.055C1084.78 737.964 1084.89 737.866 1084.98 737.762C1085 737.738 1085.02 737.716 1085.04 737.696C1085.66 736.988 1086.06 736.243 1086.24 735.461H1086.24C1086.7 734.574 1086.59 733.519 1085.88 732.297C1085.75 732.074 1085.59 731.847 1085.4 731.619C1083.65 729.525 1073.99 722.424 1056.43 710.313H1056.42C1050.92 706.074 1047.85 703.279 1047.23 701.927H1047.22C1047.01 701.126 1046.49 700.438 1045.78 700.011C1045.02 699.556 1044.32 699.329 1043.66 699.329Z" fill="black"/>
<path d="M512.369 652.357C512.316 652.357 512.262 652.359 512.209 652.361C510.461 652.449 509.115 653.937 509.202 655.684C509.724 666.107 509.948 679.037 509.876 694.474L509.877 694.572C509.981 698.594 510.216 702.589 510.581 706.555C510.588 706.626 510.597 706.696 510.608 706.766L514.154 728.908H514.152C515.3 741.357 516.053 748.463 516.413 750.226H516.411L520.221 774.567L520.225 774.587C520.573 776.722 520.864 778.143 521.098 778.849C521.363 779.648 521.782 780.262 522.354 780.692C522.905 781.105 523.574 781.325 524.255 781.325C524.395 781.325 524.536 781.316 524.676 781.297C526.511 781.051 527.504 779.886 527.654 777.802C527.659 777.738 527.663 777.673 527.665 777.606C527.667 777.564 527.668 777.521 527.668 777.479C527.676 775.02 527.81 772.418 528.073 769.674C528.286 767.622 528.499 766.074 528.712 765.031H528.71C530.821 756.696 532.806 748.011 534.665 738.978C534.673 738.937 534.681 738.897 534.688 738.856L538.415 716.321L541.032 703.083H541.03C542.989 695.258 544.228 689.694 544.747 686.39L546.263 677.252L546.266 677.234C546.283 677.129 546.297 677.031 546.308 676.941C546.575 674.747 545.69 673.487 543.653 673.16L543.648 673.159C543.43 673.125 543.221 673.108 543.019 673.108C541.76 673.108 540.804 673.779 540.15 675.122C540.001 675.429 539.809 675.895 539.576 676.521C539.294 677.278 539.319 678.074 539.589 678.772H539.587L538.495 685.352L538.49 685.382C538.003 688.497 536.798 693.896 534.874 701.576C534.861 701.628 534.85 701.679 534.839 701.731L532.188 715.141L532.17 715.239L528.436 737.817H528.434C527.027 744.648 525.548 751.276 523.995 757.701L522.653 749.128C522.645 749.072 522.634 749.016 522.623 748.961C522.317 747.52 521.593 740.597 520.45 728.19C520.444 728.12 520.435 728.05 520.424 727.98L516.887 705.9H516.885C516.54 702.129 516.316 698.33 516.214 694.504H516.213C516.286 678.951 516.059 665.906 515.532 655.368C515.447 653.674 514.047 652.357 512.369 652.357Z" fill="black"/>
<path d="M950.555 752.504C949.256 752.504 948.037 753.309 947.573 754.602C946.928 756.398 942.491 762.308 934.264 772.33H934.258L908.428 798.789C908.372 798.847 908.318 798.906 908.266 798.968L890.902 819.696L887.28 823.425C888.765 819.962 889.787 817.283 890.343 815.388L890.371 815.287L895.05 797.172L903.812 769.788L903.845 769.678C904.476 767.426 904.794 765.76 904.799 764.681C904.806 762.931 903.394 761.506 901.644 761.498C901.639 761.498 901.635 761.498 901.63 761.498C899.886 761.498 898.469 762.908 898.462 764.653C898.459 765.161 898.22 766.266 897.743 767.968H897.741L888.987 795.327C888.968 795.384 888.952 795.442 888.937 795.5L884.235 813.702H884.233C883.189 817.199 880.339 823.795 875.683 833.489C875.635 833.589 875.593 833.69 875.556 833.794C875.313 834.473 875.148 835.031 875.06 835.468C874.637 837.561 875.329 838.931 877.136 839.576L877.138 839.577C877.518 839.712 877.893 839.78 878.263 839.78C878.72 839.78 879.17 839.677 879.612 839.471H879.606C879.879 839.367 880.154 839.23 880.431 839.062C881.22 838.583 882.273 837.669 883.59 836.318L883.593 836.314L895.529 824.027C895.583 823.972 895.635 823.914 895.685 823.854L913.047 803.129L938.927 776.619C938.991 776.554 939.051 776.486 939.109 776.416C947.834 765.79 952.643 759.232 953.537 756.744C954.128 755.097 953.273 753.283 951.626 752.691C951.272 752.564 950.91 752.504 950.555 752.504Z" fill="black"/>
<path d="M454.143 563.49C453.659 563.49 453.168 563.601 452.707 563.836C450.75 564.833 449.23 565.723 448.145 566.504H448.143C448.127 566.515 448.111 566.526 448.095 566.538C447.848 566.708 447.377 567.068 446.681 567.616L446.605 567.677L442.355 571.243C441.014 572.368 440.839 574.367 441.964 575.707C442.591 576.454 443.489 576.84 444.393 576.84C445.112 576.84 445.834 576.596 446.428 576.098L450.619 572.583H450.617C451.169 572.148 451.52 571.877 451.672 571.769H451.671C451.723 571.735 451.774 571.701 451.823 571.665C452.644 571.07 453.897 570.342 455.585 569.482C457.144 568.687 457.764 566.779 456.969 565.22C456.409 564.122 455.297 563.49 454.143 563.49Z" fill="black"/>
<path d="M451.121 564.408C449.996 564.408 448.891 565.023 448.263 566.156L448.304 566.079H448.302C447.849 566.886 447.075 568.016 445.98 569.471H445.979L439.941 577.013L439.925 577.034C439.335 577.782 438.311 579.29 436.85 581.558C435.902 583.029 436.327 584.99 437.798 585.938C438.329 586.28 438.923 586.443 439.511 586.443C440.552 586.443 441.572 585.93 442.178 584.99C443.515 582.914 444.418 581.575 444.888 580.974L450.98 573.365L451.038 573.29C452.332 571.571 453.274 570.179 453.866 569.113L453.931 568.991C454.687 567.482 454.125 565.631 452.636 564.804C452.156 564.537 451.636 564.408 451.121 564.408Z" fill="black"/>
<path d="M529.72 409.7C529.374 409.7 529.028 409.757 528.696 409.87C527.817 410.171 527.067 410.759 526.447 411.636C525.926 412.372 525.458 413.39 525.042 414.691C525.002 414.816 524.97 414.945 524.946 415.074C524.559 417.149 522.845 424.457 519.805 436.999C519.787 437.074 519.771 437.15 519.758 437.227L514.58 468.45H514.578C514.461 469.022 514.339 469.454 514.214 469.748C514.12 469.728 514.014 469.7 513.895 469.664H513.892L484.398 454.767C483.954 454.542 483.464 454.426 482.97 454.426C482.838 454.426 482.705 454.434 482.573 454.451C481.393 454.6 480.392 455.22 479.569 456.311C479.089 456.947 478.653 457.788 478.259 458.833C478.166 459.079 478.105 459.337 478.075 459.599C477.75 462.528 476.388 468.376 473.991 477.144C473.956 477.273 473.929 477.404 473.91 477.536L469.341 509.839H469.339C469.102 511.092 468.883 511.94 468.68 512.384C455.269 504.211 446.533 500.124 442.473 500.124C442.303 500.124 442.141 500.131 441.987 500.146C440.95 500.243 440.069 500.578 439.343 501.153C438.427 501.878 437.984 503.048 438.191 504.198L446.802 552.07L446.812 552.122C447.865 557.46 449.737 562.607 452.428 567.562C453.003 568.619 454.091 569.219 455.216 569.219C455.726 569.219 456.245 569.095 456.725 568.834C458.263 567.999 458.832 566.075 457.997 564.537C455.622 560.165 453.97 555.635 453.04 550.948L445.125 506.95H445.126C448.919 508.235 455.871 511.972 465.982 518.162C466.188 518.288 466.408 518.39 466.637 518.466C467.267 518.675 467.885 518.797 468.492 518.83C468.615 518.837 468.738 518.84 468.859 518.84C470.361 518.84 471.674 518.318 472.798 517.273C472.932 517.149 473.062 517.017 473.188 516.879H473.186C473.509 516.569 473.799 516.199 474.054 515.767C474.664 514.736 475.175 513.113 475.588 510.899C475.597 510.853 475.604 510.808 475.611 510.762L480.155 478.635H480.153C482.279 470.85 483.619 465.223 484.173 461.753H484.175L511.255 475.432C511.392 475.501 511.533 475.56 511.678 475.608C512.699 475.95 513.651 476.121 514.535 476.121C514.718 476.121 514.899 476.114 515.077 476.099C516.41 475.988 517.534 475.493 518.447 474.615C518.65 474.422 518.841 474.211 519.02 473.983C519.84 472.938 520.438 471.473 520.814 469.587L520.832 469.486L525.986 438.407H525.984C528.857 426.557 530.558 419.315 531.089 416.681H531.091C536.93 419.226 545.125 426.713 555.676 439.144C556.303 439.882 557.195 440.262 558.093 440.262C558.818 440.262 559.546 440.014 560.142 439.509C561.476 438.376 561.64 436.377 560.507 435.042C547.721 419.979 537.709 411.562 530.474 409.791C530.226 409.73 529.973 409.7 529.72 409.7Z" fill="black"/>
<path d="M903.047 491.349C903.232 491.518 903.407 491.73 903.572 491.985C903.422 491.752 903.246 491.546 903.05 491.366H903.044C903.043 491.36 903.042 491.355 903.041 491.349H903.047ZM697.859 380.3C696.638 380.3 695.498 381.008 694.975 382.158C693.078 386.333 683.82 395.632 667.202 410.055C666.992 410.238 666.806 410.448 666.65 410.68L657.432 424.39L646.099 395.9C646.019 395.699 645.918 395.506 645.799 395.326C640.218 386.875 635.156 382.65 630.611 382.65C629.6 382.65 628.615 382.859 627.656 383.276C627.131 383.505 626.678 383.871 626.345 384.337L619.238 394.261C619.124 394.419 619.026 394.588 618.943 394.765L601.58 431.953C600.692 430.641 599.584 428.752 598.258 426.289H598.255L579.923 388.184C579.392 387.08 578.277 386.389 577.069 386.389C576.974 386.389 576.878 386.393 576.782 386.402C575.466 386.521 574.362 387.444 574.012 388.718L562.376 431.056C561.705 433.466 561.457 436.396 561.633 439.846C561.719 441.539 563.119 442.853 564.795 442.853C564.849 442.853 564.904 442.852 564.959 442.849C566.706 442.76 568.051 441.271 567.962 439.523C567.821 436.755 567.995 434.497 568.483 432.748L568.487 432.735L577.881 398.556L592.551 429.049C592.571 429.091 592.592 429.134 592.615 429.175C595.584 434.703 597.992 438.083 599.838 439.313C600.706 439.891 601.568 440.181 602.425 440.181C602.923 440.181 603.418 440.083 603.912 439.888C604.666 439.59 605.277 439.015 605.619 438.281L624.561 397.712L630.838 388.947H630.835C630.85 388.946 630.865 388.946 630.88 388.946C632.927 388.946 636.081 392.151 640.34 398.56H640.337L653.765 432.316C654.199 433.408 655.203 434.17 656.372 434.295C656.485 434.307 656.598 434.313 656.71 434.313C657.757 434.313 658.746 433.794 659.339 432.913L671.669 414.573H671.666C682.942 404.774 690.996 397.12 695.828 391.613H695.832C697.775 400.512 702.192 414.911 709.085 434.811C709.492 435.985 710.547 436.813 711.784 436.928C711.883 436.938 711.982 436.942 712.08 436.942C713.208 436.942 714.261 436.34 714.829 435.349C728.389 411.679 741.956 396.685 755.528 390.367H755.533L767.565 444.142C767.849 445.414 768.883 446.381 770.171 446.581C770.334 446.606 770.496 446.619 770.658 446.619C771.772 446.619 772.82 446.03 773.394 445.047C786.673 422.281 795.592 410.084 800.15 408.455H800.155C802.067 424.874 806.835 443.631 814.459 464.724C814.721 465.449 815.238 466.053 815.913 466.424C816.508 466.751 817.138 466.915 817.803 466.915C818.398 466.915 819.021 466.783 819.672 466.521C821.058 465.962 822.877 464.559 825.13 462.311C825.181 462.26 825.23 462.208 825.278 462.153L854.27 428.993L858.614 474.606C858.719 475.716 859.401 476.689 860.408 477.167C860.84 477.372 861.305 477.474 861.768 477.474C862.384 477.474 862.998 477.294 863.528 476.94C868.585 473.563 877.792 463.192 891.15 445.826H891.144C893.496 443.715 895.273 442.304 896.477 441.59H896.483C895.957 446.81 895.951 462.624 896.464 489.032C896.465 489.075 896.467 489.118 896.469 489.16C896.609 491.487 896.869 493.165 897.25 494.196C897.778 495.627 898.609 496.492 899.743 496.79H899.737C900.289 497.064 900.926 497.201 901.648 497.201C901.859 497.201 902.077 497.19 902.303 497.166C904.786 496.908 909.716 494.396 917.094 489.629C921.219 486.964 926.203 483.557 932.046 479.409H932.04L945.735 472.726L938.885 519.403C938.631 521.134 939.829 522.744 941.56 522.998C941.716 523.021 941.871 523.032 942.024 523.032C943.57 523.032 944.924 521.899 945.155 520.323L952.755 468.535C952.905 467.511 952.546 466.477 951.791 465.768C950.968 464.993 950.048 464.606 949.032 464.606C948.358 464.606 947.641 464.776 946.882 465.116C946.747 465.177 946.612 465.243 946.477 465.315H946.473L929.047 473.818C928.892 473.894 928.743 473.983 928.601 474.083C922.738 478.249 917.756 481.657 913.655 484.306C908.512 487.629 904.937 489.69 902.929 490.491C902.883 490.048 902.841 489.521 902.803 488.909H902.8C902.245 460.335 902.253 444.629 902.825 441.792H902.819C902.971 441.419 903.052 441.02 903.055 440.616C903.055 440.546 903.055 440.476 903.054 440.405C903.045 439.823 902.98 439.281 902.858 438.777C902.268 436.33 900.719 434.995 898.212 434.771C898.018 434.754 897.82 434.746 897.618 434.746C897.607 434.746 897.596 434.746 897.585 434.746C897.553 434.745 897.521 434.745 897.488 434.745C897.122 434.745 896.744 434.785 896.356 434.865C894.173 435.319 890.956 437.462 886.706 441.295C886.563 441.423 886.433 441.565 886.316 441.717C876.643 454.302 869.32 463.046 864.346 467.949L859.881 421.068C859.761 419.808 858.903 418.741 857.699 418.353C857.379 418.25 857.052 418.2 856.727 418.2C855.829 418.2 854.954 418.583 854.342 419.283L820.545 457.938H820.54C820.052 458.423 819.611 458.844 819.219 459.201C812.072 438.835 807.723 420.818 806.172 405.152C806.057 403.983 805.305 402.975 804.217 402.531C803.559 402.262 802.859 402.127 802.118 402.127C795.433 402.127 785.397 413.083 772.012 434.994L760.896 385.312C760.697 384.424 760.126 383.664 759.329 383.226C758.856 382.967 758.331 382.835 757.803 382.835C757.441 382.835 757.078 382.897 756.729 383.023C741.801 388.401 727.174 402.811 712.847 426.252C704.846 402.722 700.906 388.487 701.027 383.546C701.064 382.041 700.036 380.717 698.568 380.38C698.331 380.326 698.094 380.3 697.859 380.3Z" fill="black"/>
<path d="M1003.88 529.351C1003.26 529.516 1002.7 529.87 1002.28 530.357C1002.66 529.809 1003.19 529.474 1003.88 529.351H1003.88ZM1006.31 529.689C1006.92 530.012 1007.37 530.537 1007.64 531.263H1007.64C1007.38 530.59 1006.9 530.043 1006.3 529.689H1006.31ZM1026.45 585.649C1026.52 585.814 1026.58 585.995 1026.62 586.194H1026.61C1026.57 586.03 1026.53 585.868 1026.47 585.711C1026.46 585.689 1026.45 585.669 1026.44 585.649H1026.45ZM1026.67 586.685C1026.67 586.685 1026.67 586.685 1026.67 586.685ZM1005.23 492.786C1005.12 492.786 1005.01 492.789 1004.9 492.795H1004.9C1004.02 492.84 1003.1 493.073 1002.16 493.493C1002.06 493.535 1001.97 493.581 1001.88 493.631C988.315 501.312 980.242 505.434 977.663 505.996C977.219 506.093 976.802 506.284 976.44 506.555H976.433C974.407 507.531 965.231 509.349 948.903 512.01H948.901C945.871 512.476 943.8 514.285 942.69 517.438C942.108 519.089 942.975 520.898 944.626 521.48C944.974 521.602 945.329 521.66 945.678 521.66C946.985 521.66 948.208 520.846 948.667 519.544C948.937 518.776 949.341 518.352 949.878 518.272L949.922 518.265C967.201 515.449 977.057 513.397 979.491 512.109C979.542 512.082 979.591 512.055 979.64 512.027H979.633C983.237 510.971 991.637 506.709 1004.83 499.242H1004.83C1004.88 499.218 1004.94 499.198 1004.98 499.182H1004.99C1005.49 499.846 1005.71 501.305 1005.66 503.558H1005.65C1003.74 519.23 1002.52 528.308 1001.97 530.794H1001.97C1001.83 531.016 1001.73 531.257 1001.65 531.514C998.862 540.892 994.239 548.471 987.779 554.25C986.72 555.198 986.421 556.736 987.049 558.011C987.589 559.108 988.701 559.781 989.891 559.781C990.084 559.781 990.28 559.763 990.475 559.726L1044.89 549.546L1027.18 571.347C1027.06 571.492 1026.96 571.647 1026.87 571.81L1020.88 582.609H1020.88C1020.21 583.677 1019.95 584.872 1020.1 586.194C1020.16 586.699 1020.28 587.214 1020.46 587.736H1020.45C1020.69 588.702 1021.32 589.513 1022.34 590.171C1023.4 590.858 1025.3 591.542 1028.02 592.225C1028.11 592.247 1028.2 592.265 1028.29 592.28L1072.89 599.394L1072.95 599.402C1073.53 599.484 1074.06 599.569 1074.54 599.657H1074.54C1070.48 601.327 1067.3 602.943 1064.99 604.505C1064.93 604.552 1064.86 604.601 1064.79 604.653C1052.17 614.738 1043.92 620.649 1040.07 622.388C1039.81 622.503 1039.57 622.651 1039.36 622.827C1037.78 624.119 1036.73 625.408 1036.19 626.694C1035.69 627.901 1035.61 629.089 1035.96 630.257H1035.96C1037.1 634.617 1042.76 640.342 1052.93 647.432H1052.93C1056.89 650.431 1065.69 653.832 1079.32 657.635H1079.32L1087.52 663.581L1053.6 684.872H1053.59C1053.54 684.896 1053.49 684.922 1053.44 684.949C1051.37 686.034 1047.07 690.373 1040.52 697.967C1039.38 699.292 1039.52 701.293 1040.85 702.436C1041.45 702.952 1042.18 703.204 1042.92 703.204C1043.81 703.204 1044.69 702.832 1045.32 702.105C1051.28 695.192 1054.95 691.351 1056.34 690.582H1056.33C1056.5 690.514 1056.66 690.432 1056.81 690.337L1094.23 666.851C1094.57 666.638 1094.87 666.363 1095.1 666.039C1096.2 664.542 1096.09 662.972 1094.76 661.328C1094.51 661.014 1094.2 660.686 1093.82 660.344C1093.73 660.266 1093.64 660.193 1093.55 660.125L1082.57 652.166C1082.26 651.944 1081.92 651.778 1081.56 651.677C1068.27 647.996 1059.98 644.88 1056.69 642.329C1056.64 642.296 1056.6 642.265 1056.56 642.234C1047.9 636.199 1043.1 631.763 1042.17 628.926H1042.16C1042.33 628.679 1042.63 628.364 1043.08 627.98H1043.07C1047.52 625.845 1056.03 619.757 1068.61 609.718H1068.6C1071.12 608.021 1075.01 606.187 1080.27 604.214C1080.37 604.174 1080.48 604.127 1080.58 604.076C1080.88 603.925 1081.16 603.761 1081.41 603.583C1083.56 602.096 1084.2 600.127 1083.34 597.677C1083.23 597.361 1083.07 597.065 1082.87 596.799C1082.64 596.496 1082.37 596.212 1082.06 595.946C1080.55 594.636 1077.83 593.699 1073.89 593.135H1073.89L1029.45 586.047H1029.44C1028.24 585.744 1027.32 585.478 1026.67 585.248H1026.67L1032.27 575.126L1051.79 551.111C1051.9 550.97 1052 550.82 1052.09 550.662C1052.76 549.478 1053.18 548.439 1053.36 547.547C1053.37 547.531 1053.37 547.515 1053.37 547.498C1053.94 544.62 1052.87 542.903 1050.17 542.35C1049.96 542.307 1049.75 542.286 1049.53 542.286C1049.34 542.286 1049.14 542.304 1048.95 542.34L998.642 551.751C1002.44 546.71 1005.38 540.864 1007.45 534.212H1007.45C1007.63 533.9 1007.79 533.538 1007.91 533.127C1008.49 531.23 1009.85 521.554 1011.97 504.098C1011.98 503.996 1011.99 503.894 1011.99 503.791C1012.11 498.799 1010.87 495.422 1008.27 493.661C1008.21 493.622 1008.15 493.585 1008.09 493.55C1007.22 493.041 1006.26 492.786 1005.23 492.786Z" fill="black"/>
<path d="M389.52 474.471C387.831 474.471 386.427 475.804 386.356 477.507C385.621 495.128 386.107 506.708 387.814 512.248C388.61 518.861 392.866 529.177 400.582 543.197C400.608 543.243 400.635 543.289 400.663 543.335C413.455 564.032 428.636 576.145 446.206 579.673C446.416 579.716 446.626 579.736 446.833 579.736C448.311 579.736 449.634 578.696 449.936 577.191C450.281 575.475 449.169 573.805 447.454 573.46C431.704 570.297 417.921 559.172 406.104 540.086C398.686 526.601 394.676 516.989 394.077 511.25C394.054 511.023 394.005 510.799 393.934 510.582C392.386 505.912 391.97 494.975 392.688 477.771C392.761 476.023 391.403 474.547 389.654 474.474C389.609 474.472 389.564 474.471 389.52 474.471Z" fill="black"/>
<path d="M434.026 450.233C432.674 450.233 431.422 451.105 431 452.464C430.186 455.086 428.851 459.111 426.994 464.538L426.976 464.593C426.457 466.207 426.093 468.478 425.885 471.406H425.884C425.655 473.282 425.867 477.871 426.52 485.174C427.094 491.699 427.611 496.054 428.072 498.24C430.956 513.142 436.96 523.057 446.086 527.986C446.564 528.244 447.08 528.367 447.589 528.367C448.715 528.367 449.806 527.765 450.379 526.703C451.211 525.164 450.637 523.241 449.097 522.41C441.722 518.427 436.785 509.952 434.283 496.986L434.273 496.932C433.864 494.995 433.384 490.889 432.833 484.615L432.832 484.61C432.204 477.579 431.984 473.435 432.173 472.179C432.186 472.096 432.195 472.012 432.201 471.928C432.37 469.512 432.633 467.732 432.991 466.589C434.868 461.104 436.221 457.022 437.053 454.342C437.572 452.671 436.637 450.896 434.966 450.377C434.653 450.28 434.337 450.233 434.026 450.233Z" fill="black"/>
<path d="M448.6 444.098L448.542 444.148L448.485 444.199C448.447 444.233 448.411 444.269 448.375 444.305C448.339 444.341 448.304 444.378 448.27 444.416C448.168 444.53 448.074 444.651 447.988 444.78C448.029 444.718 448.07 444.658 448.113 444.601C448.156 444.543 448.2 444.489 448.245 444.437L448.312 444.361C448.403 444.263 448.499 444.175 448.6 444.098ZM493.313 358.318L492.956 358.339C491.7 358.523 490.826 359.215 490.334 360.415L482.095 395.772C481.308 398.932 480.138 402.703 478.585 407.085C478.245 408.298 477.004 411.341 474.863 416.214C473.099 419.974 471.188 423.337 469.131 426.304C465.472 431.981 459.588 437.374 451.48 442.484C451.298 443.194 446.334 445.087 436.586 448.161C435.21 448.565 431.712 449.277 426.093 450.299C424.867 453.173 423.984 455.597 423.446 457.571L425.446 456.856C432.217 455.642 436.584 454.749 438.547 454.178C445.445 451.974 449.897 450.409 451.906 449.483C460.879 444.851 468.343 438.349 474.296 429.977C479.957 421.611 484.452 411.311 487.783 399.078L496.471 361.78C496.588 359.871 495.536 358.717 493.313 358.318Z" fill="black"/>
<path d="M399.578 451.759C397.99 451.759 396.62 452.95 396.434 454.565C396.181 456.759 395.145 459.892 393.327 463.964C388.663 473.017 385.064 479.679 382.53 483.949C381.637 485.454 382.133 487.398 383.638 488.291C384.145 488.592 384.702 488.735 385.252 488.735C386.334 488.735 387.388 488.181 387.98 487.183C390.587 482.789 394.263 475.986 399.006 466.776C399.033 466.724 399.058 466.672 399.081 466.619C401.185 461.92 402.401 458.144 402.73 455.291C402.93 453.552 401.683 451.98 399.945 451.78C399.822 451.766 399.699 451.759 399.578 451.759Z" fill="black"/>
<path d="M427.625 334.234C426.798 334.234 425.971 334.557 425.35 335.198C419.213 341.529 415.323 345.904 413.68 348.321C409.695 354.176 402.91 364.628 393.327 379.677C393.288 379.738 393.252 379.8 393.217 379.863C385.854 393.371 381.777 403.589 380.988 410.516C380.983 410.561 380.979 410.606 380.976 410.651C380.121 422.743 381.43 432.103 384.903 438.732C384.973 438.865 385.052 438.994 385.14 439.115C392.889 449.863 401.183 457.215 410.022 461.173C410.443 461.361 410.882 461.45 411.315 461.45C411.491 461.45 411.665 461.435 411.837 461.406H411.838C411.018 458.674 409.774 455.87 408.105 452.995H408.106C401.981 449.219 396.085 443.421 390.419 435.601C387.585 430.052 386.542 421.913 387.291 411.185C387.999 405.092 391.81 395.697 398.724 383.001C408.247 368.048 414.978 357.677 418.92 351.885L418.921 351.883C420.358 349.769 424.018 345.677 429.9 339.608C431.118 338.352 431.087 336.346 429.83 335.128C429.215 334.531 428.42 334.234 427.625 334.234Z" fill="black"/>
<path d="M432.963 337.435C432.718 337.435 432.469 337.464 432.221 337.523C430.519 337.932 429.471 339.643 429.879 341.344C433.884 358.023 436.174 369.75 436.75 376.527L436.761 376.631C437.304 381.219 437.223 386.612 436.516 392.812H436.514C435.843 395.014 435.587 396.734 435.745 397.972C435.798 398.382 435.888 398.768 436.016 399.13C436.468 400.404 437.671 401.241 439.002 401.241C439.1 401.241 439.2 401.237 439.3 401.227C440.745 401.091 441.913 399.991 442.135 398.556C442.391 396.892 442.611 395.273 442.792 393.699H442.791C443.53 391.643 444.796 388.822 446.59 385.236L446.617 385.18C448.958 380.264 451.362 376.63 453.831 374.279L453.908 374.203C455.089 372.999 456.498 371.952 458.134 371.064H458.133C465.282 367.863 471.65 364.678 477.236 361.508C477.389 361.421 477.536 361.321 477.673 361.209C483.723 356.281 487.798 353.036 489.897 351.472H489.899C489.955 351.723 490.007 351.999 490.055 352.298H490.053L491.682 371.962C491.819 373.617 493.205 374.869 494.837 374.869C494.924 374.869 495.013 374.865 495.102 374.858C496.846 374.713 498.142 373.183 497.998 371.439L496.357 351.636C496.351 351.562 496.342 351.489 496.331 351.416C496.195 350.53 496.021 349.74 495.808 349.044C495.505 348.051 495.112 347.217 494.629 346.543C493.567 345.062 492.268 344.321 490.73 344.321C490.189 344.321 489.619 344.413 489.019 344.596C488.908 344.63 488.8 344.67 488.694 344.715C488.544 344.78 488.387 344.858 488.223 344.951C486.88 345.708 482.098 349.435 473.875 356.13H473.873C468.492 359.171 462.35 362.235 455.447 365.324C455.378 365.354 455.311 365.387 455.245 365.423C453.002 366.624 451.053 368.067 449.399 369.751H449.397C447.261 371.8 445.214 374.527 443.256 377.932C443.203 377.269 443.14 376.619 443.065 375.981H443.064C442.46 368.886 440.119 356.847 436.041 339.865C435.693 338.412 434.394 337.435 432.963 337.435Z" fill="black"/>
<path d="M1071.83 718.064C1071.33 718.282 1070.89 718.625 1070.56 719.064C1070.93 718.573 1071.35 718.24 1071.82 718.064H1071.83ZM1177.59 652.219C1177.42 652.343 1177.27 652.459 1177.13 652.568C1176.29 653.15 1174.14 655.567 1170.67 659.82H1170.68C1169.83 661.032 1168.72 662.473 1167.33 664.141H1167.32L1138.86 692.308C1136.55 694.559 1133.53 696.86 1129.81 699.209C1124.31 702.615 1119.38 705.199 1115.02 706.962H1115.01L1094.04 713.566C1093.94 713.596 1093.85 713.631 1093.75 713.67C1092.63 714.144 1088.69 714.752 1081.93 715.491C1081.78 715.507 1081.64 715.534 1081.5 715.57L1072.32 717.897C1072.23 717.92 1072.14 717.947 1072.05 717.977H1072.04C1071.41 718.045 1070.06 718.078 1068 718.078C1067.03 718.078 1065.89 718.071 1064.6 718.056L1064.57 718.056H1064.56C1062.83 718.056 1061.41 719.45 1061.39 721.187C1061.37 722.934 1062.77 724.367 1064.55 724.393H1064.54C1065.64 724.405 1066.64 724.412 1067.54 724.412C1070.53 724.412 1072.45 724.342 1073.29 724.202C1073.6 724.15 1073.89 724.073 1074.15 723.971H1074.14L1082.83 721.768H1082.83C1089.8 721.001 1094.19 720.275 1096.01 719.59H1096.01L1117.07 712.958C1117.15 712.933 1117.22 712.906 1117.3 712.875C1122.03 710.973 1127.32 708.208 1133.17 704.582L1133.19 704.569C1137.3 701.976 1140.67 699.395 1143.3 696.827L1143.32 696.812L1171.94 668.488C1172.01 668.416 1172.08 668.34 1172.15 668.261C1176.66 662.836 1178.94 658.738 1179 655.965C1179.04 654.442 1178.57 653.193 1177.6 652.219H1177.59Z" fill="black"/>
<path d="M1154.79 621.109C1153.76 621.109 1152.75 621.61 1152.14 622.535C1148.61 627.904 1145.63 633.003 1143.2 637.831H1143.19L1136.69 647.055H1136.68C1135.95 647.87 1135.44 648.372 1135.17 648.561C1135.1 648.604 1135.04 648.65 1134.98 648.698L1121.01 659.439H1121C1115.77 662.351 1111.42 664.049 1107.97 664.533H1107.97L1091.65 666.616C1091.55 666.629 1091.45 666.647 1091.35 666.67H1091.34C1091.23 666.678 1091.09 666.682 1090.93 666.682C1089.62 666.682 1086.63 666.435 1081.96 665.942C1081.85 665.93 1081.74 665.924 1081.63 665.924C1080.03 665.924 1078.65 667.132 1078.48 668.759C1078.3 670.499 1079.56 672.059 1081.3 672.244C1086.09 672.75 1089.37 673.003 1091.13 673.003C1091.53 673.003 1091.85 672.991 1092.09 672.965C1092.28 672.945 1092.46 672.917 1092.63 672.881H1092.62L1108.81 670.814L1108.85 670.809C1113.14 670.207 1118.3 668.218 1124.33 664.841C1124.46 664.766 1124.59 664.681 1124.71 664.588L1138.78 653.767L1138.84 653.721H1138.85C1139.54 653.225 1140.45 652.35 1141.57 651.098C1141.65 651.008 1141.72 650.913 1141.79 650.814L1148.53 641.248C1148.62 641.118 1148.71 640.982 1148.78 640.841C1151.11 636.185 1153.99 631.245 1157.44 626.021C1158.4 624.559 1157.99 622.594 1156.53 621.632C1156 621.278 1155.39 621.109 1154.79 621.109Z" fill="black"/>
<path d="M1189.09 642.951C1187.72 643.933 1186.56 644.802 1185.61 645.557C1185.51 646.343 1185.15 647.008 1184.54 647.554C1180.89 649.883 1178.43 651.554 1177.13 652.568C1176.62 652.918 1175.64 653.934 1174.18 655.614H1174.19C1174.19 655.625 1174.18 655.635 1174.17 655.646H1174.17C1173.01 657.273 1171.98 658.502 1171.06 659.331H1171.07C1170.04 660.582 1168.9 662.003 1167.63 663.595H1167.64C1167.67 663.927 1167.75 664.26 1167.89 664.582C1168.42 665.766 1169.58 666.47 1170.79 666.47C1171.22 666.47 1171.66 666.383 1172.07 666.198C1172.88 665.844 1173.69 665.334 1174.52 664.671H1174.53C1174.94 664.851 1175.38 664.945 1175.82 664.945C1176.43 664.945 1177.04 664.773 1177.58 664.412C1180.01 662.79 1182.83 658.703 1186.04 652.153L1186.07 652.081C1187.7 648.53 1188.66 646.044 1188.94 644.622L1188.95 644.573C1189.04 644.122 1189.09 643.706 1189.1 643.323C1189.1 643.197 1189.1 643.073 1189.1 642.951H1189.09Z" fill="black"/>
<path d="M1168.35 534.134C1167.73 534.134 1167.1 534.319 1166.55 534.703L1165.32 535.554C1164.98 535.791 1164.7 536.082 1164.49 536.408H1164.48C1162.05 538.722 1159.7 542.056 1157.43 546.409L1157.4 546.468C1155.96 549.367 1153.79 554.806 1150.9 562.784H1150.89L1146.12 573.874L1146.08 573.976C1143.52 580.532 1142.29 587.618 1142.39 595.236L1142.39 595.261C1142.5 600.52 1142.68 603.74 1142.94 604.922C1142.99 605.165 1143.06 605.392 1143.14 605.604H1143.13C1143.85 608.69 1145 611.745 1146.58 614.768C1146.6 614.81 1146.62 614.852 1146.65 614.893L1155.19 629.584C1155.23 629.662 1155.28 629.739 1155.33 629.813C1156.55 631.544 1157.96 633.069 1159.58 634.389C1159.93 633.407 1160.28 632.366 1160.65 631.266C1160.86 630.564 1161.16 629.315 1161.56 627.52H1161.57C1161.25 627.143 1160.93 626.749 1160.64 626.34H1160.63L1152.13 611.709H1152.13C1150.79 609.109 1149.82 606.5 1149.23 603.882C1149.21 603.753 1149.17 603.625 1149.12 603.501H1149.12C1148.95 602.609 1148.82 599.827 1148.73 595.154C1148.64 588.399 1149.71 582.141 1151.94 576.379H1151.94L1156.78 565.118C1156.81 565.062 1156.83 565.005 1156.85 564.947C1159.65 557.246 1161.71 552.044 1163.05 549.339C1165.47 544.683 1167.85 541.535 1170.18 539.894C1171.61 538.888 1171.95 536.916 1170.95 535.486C1170.34 534.605 1169.35 534.134 1168.35 534.134Z" fill="black"/>
<path d="M1234.86 563.017C1235.1 563.017 1235.35 563.05 1235.61 563.116H1235.6C1235.36 563.061 1235.12 563.033 1234.88 563.033C1234.65 563.033 1234.43 563.058 1234.2 563.107C1234.41 563.047 1234.63 563.017 1234.86 563.017ZM1184.56 527.417C1181.83 527.417 1178.3 528.921 1173.96 531.931C1169.93 534.694 1166.78 537.388 1164.53 540.013L1164.46 540.107C1162.7 542.33 1162.24 544.626 1163.08 546.994C1163.55 548.29 1164.77 549.098 1166.07 549.098C1166.42 549.098 1166.78 549.038 1167.13 548.913C1168.78 548.324 1169.64 546.511 1169.05 544.863C1169 544.716 1169.1 544.473 1169.35 544.137H1169.35C1171.24 541.931 1173.97 539.602 1177.56 537.149L1177.58 537.137C1180.86 534.859 1183.09 533.72 1184.28 533.72C1184.29 533.72 1184.31 533.72 1184.32 533.72H1184.32C1186.14 538.128 1187.97 545.8 1189.78 556.737C1189.81 556.871 1189.84 557.004 1189.88 557.134L1196.02 577.467H1196.01C1196.28 579.188 1196.36 580.569 1196.24 581.61H1196.23C1194.44 586.421 1193.64 589.792 1193.82 591.721C1193.84 591.95 1193.87 592.17 1193.92 592.381C1194.21 593.741 1195.35 594.754 1196.73 594.879C1196.83 594.888 1196.92 594.892 1197.02 594.892C1198.29 594.892 1199.46 594.124 1199.95 592.928C1200.85 590.743 1207.1 585.505 1218.7 577.215C1218.89 577.081 1219.06 576.928 1219.21 576.759H1219.21C1220.6 575.813 1226.13 573.314 1235.78 569.261H1235.77C1236.07 569.185 1236.37 569.07 1236.67 568.917C1237.66 568.419 1240 566.748 1243.69 563.905H1243.7L1240.89 574.422C1240.86 574.545 1240.83 574.67 1240.81 574.83C1239.42 584.613 1238.37 590.583 1237.66 592.74C1237.63 592.833 1237.61 592.926 1237.58 593.021C1236.27 598.731 1234.9 602.361 1233.49 603.912C1233.43 603.977 1233.37 604.046 1233.32 604.116C1226.69 612.75 1219.18 620.476 1210.8 627.293H1210.79L1192.03 640.748H1192.04C1191.8 640.96 1191.56 641.175 1191.3 641.393C1188.93 643.037 1187.03 644.425 1185.61 645.557C1185.51 646.342 1185.15 647.008 1184.54 647.554C1182.98 648.548 1181.64 649.421 1180.52 650.175H1180.53C1179.53 651.398 1179.58 653.199 1180.7 654.366C1181.32 655.015 1182.15 655.341 1182.99 655.341C1183.77 655.341 1184.56 655.049 1185.18 654.459C1187.91 651.844 1190 650.01 1191.46 648.955L1214.64 632.333C1214.69 632.296 1214.74 632.257 1214.79 632.216C1223.5 625.13 1231.31 617.107 1238.21 608.147H1238.2C1240.32 605.798 1242.15 601.311 1243.7 594.686H1243.69C1244.52 592.162 1245.64 585.916 1247.05 575.948H1247.04L1250.67 562.371L1250.69 562.28C1251.06 560.708 1251.16 559.173 1250.98 557.676C1250.95 557.37 1250.87 557.07 1250.74 556.787C1250.61 556.482 1250.45 556.201 1250.27 555.945C1249.43 554.804 1248.45 554.233 1247.34 554.233C1246.54 554.233 1245.67 554.522 1244.73 555.101L1244.73 555.102C1244.58 555.195 1244.43 555.298 1244.28 555.409L1244.18 555.481C1238.54 559.935 1235.14 562.496 1233.99 563.165H1233.98C1233.87 563.197 1233.76 563.236 1233.66 563.28C1222.97 567.762 1216.84 570.6 1215.26 571.795C1215.03 571.961 1214.84 572.136 1214.66 572.32H1214.65C1209.78 575.807 1205.77 578.862 1202.61 581.485C1202.69 579.962 1202.56 578.186 1202.21 576.156C1202.19 576.024 1202.16 575.895 1202.12 575.767L1196.02 555.563H1196.01C1194.03 543.642 1191.97 535.298 1189.84 530.53C1189.77 530.376 1189.69 530.228 1189.6 530.087C1189.57 530.038 1189.54 529.989 1189.5 529.941C1188.63 528.678 1187.43 527.883 1185.92 527.556C1185.49 527.463 1185.04 527.417 1184.56 527.417Z" fill="black"/>
<path d="M688.104 682.82C689.077 682.82 690.01 682.927 690.904 683.142C690.967 683.157 691.031 683.171 691.095 683.182C699.49 684.662 705.402 686.766 708.83 689.493L708.902 689.549C712.647 692.357 716.859 697.586 721.539 705.237H721.536C723.719 709.131 724.576 712.418 724.106 715.098C724.087 715.202 724.075 715.305 724.067 715.41C723.254 726.29 717.408 733.972 706.53 738.456H706.526C702.963 739.472 699.949 739.98 697.483 739.98C696.495 739.98 695.595 739.899 694.783 739.735H694.779C684.174 737.236 676.909 734.855 672.985 732.593L672.974 732.587C669.193 730.428 666.046 728.276 663.535 726.132C663.5 726.102 663.465 726.073 663.429 726.045C658.331 722.059 655.58 719.369 655.174 717.974C655.16 717.924 655.144 717.874 655.127 717.825C653.413 712.86 654.22 706.594 657.547 699.026H657.543C660.461 694.418 664.246 691.533 668.896 690.373H668.893C672.96 689.507 676.632 689.074 679.907 689.074C684.097 689.074 687.638 689.782 690.532 691.198C690.98 691.418 691.455 691.522 691.923 691.522C693.095 691.522 694.221 690.869 694.771 689.746C695.54 688.174 694.89 686.276 693.318 685.507C690.919 684.332 688.229 683.532 685.247 683.107H685.244C686.232 682.915 687.186 682.82 688.104 682.82ZM688.098 676.479C685.086 676.479 681.903 677.18 678.549 678.582C676.934 679.257 676.172 681.113 676.847 682.728C676.863 682.766 676.88 682.805 676.897 682.842H676.894C673.981 683.026 670.866 683.472 667.546 684.18L667.451 684.202C661.046 685.775 655.916 689.654 652.061 695.84C651.983 695.964 651.914 696.094 651.855 696.228C647.769 705.418 646.863 713.306 649.136 719.893H649.135C650.003 722.584 653.463 726.296 659.515 731.029H659.512C662.31 733.406 665.75 735.76 669.832 738.09C674.297 740.661 682.135 743.267 693.346 745.908L693.428 745.927C694.656 746.182 695.993 746.309 697.439 746.309C700.592 746.309 704.265 745.704 708.459 744.494C708.568 744.463 708.674 744.426 708.778 744.383C722.106 738.947 729.304 729.513 730.371 716.081H730.367C731.063 711.917 729.941 707.232 727.001 702.026L726.945 701.931C721.871 693.636 717.149 687.837 712.778 684.534H712.776C708.524 681.151 701.7 678.627 692.304 676.96H692.3C690.939 676.64 689.538 676.479 688.098 676.479Z" fill="black"/>
<path d="M644.953 564.628C645.41 564.628 645.754 564.698 645.986 564.839H645.982C645.986 564.849 645.99 564.861 645.995 564.875C646.43 566.214 647.672 567.065 649.008 567.065C649.332 567.065 649.662 567.015 649.987 566.909C651.064 566.559 651.825 565.688 652.082 564.666H652.085C655.777 565.121 658.236 565.679 659.463 566.34C659.513 566.367 659.564 566.393 659.616 566.417C671.734 572.121 678.634 578.8 680.315 586.453C682.747 599.038 681.503 610.523 676.584 620.907H676.582C673.019 627.697 668.761 633.727 663.808 638.998H663.805C661.414 641.166 657.805 642.653 652.979 643.46C652.899 643.474 652.82 643.49 652.742 643.509C651.696 643.768 650.447 643.897 648.996 643.897C645.43 643.897 640.643 643.116 634.633 641.554L634.524 641.528C628.463 640.18 624.138 638.399 621.55 636.186H621.547C614.792 629.841 611.118 620.727 610.527 608.844H610.524C610.633 593.556 613.501 583.681 619.127 579.22C619.265 579.111 619.394 578.99 619.512 578.859C624.242 573.61 630.214 569.557 637.426 566.7L637.441 566.694C638.452 566.287 639.396 565.942 640.271 565.657C642.382 564.971 643.943 564.628 644.953 564.628ZM638.389 557.315C638.358 557.315 638.327 557.315 638.296 557.316C633.819 557.448 630.224 559.822 627.508 564.439H627.505C622.728 567.169 618.549 570.501 614.968 574.436H614.965C607.898 580.218 604.305 591.683 604.187 608.834C604.186 608.891 604.187 608.949 604.19 609.006C604.842 622.673 609.185 633.277 617.222 640.818L617.309 640.897C620.692 643.842 625.961 646.112 633.115 647.707H633.111C639.55 649.376 644.874 650.211 649.083 650.211C650.996 650.211 652.679 650.038 654.131 649.693H654.128C660.22 648.66 664.916 646.613 668.215 643.553C668.267 643.504 668.317 643.454 668.366 643.402C673.769 637.664 678.399 631.108 682.256 623.732C682.275 623.695 682.294 623.657 682.312 623.62C687.833 611.962 689.236 599.144 686.52 585.169L686.505 585.094C684.383 575.433 676.353 567.312 662.415 560.731H662.412C659.132 559 651.17 557.862 638.525 557.318C638.48 557.316 638.434 557.315 638.389 557.315Z" fill="black"/>
<path d="M779.264 598.303C779.837 599.175 780.823 599.734 781.911 599.734C782.033 599.734 782.156 599.727 782.28 599.713C786.195 599.259 789.834 599.032 793.197 599.032C801.681 599.032 808.409 600.476 813.381 603.365C813.448 603.404 813.517 603.441 813.588 603.475C824.411 608.737 830.19 615.338 830.925 623.279C830.934 623.374 830.947 623.469 830.965 623.563C831.817 628.174 831.336 634.103 829.52 641.35H829.519C828.518 644.857 826.308 649.066 822.892 653.977H822.888C815.474 663.662 806.139 670.27 794.883 673.802H794.878C789.707 674.614 785.168 675.02 781.262 675.02C774.079 675.02 769.036 673.646 766.132 670.898H766.128C755.962 658.806 751.609 647.187 753.068 636.041L753.077 635.961C754.309 624.227 759.895 613.93 769.837 605.069L769.879 605.03C772.915 602.224 776.042 599.981 779.26 598.303H779.264ZM794.106 588.202C783.867 588.202 774.358 592.26 765.578 600.376C754.443 610.317 748.175 621.958 746.775 635.299C745.1 648.297 749.964 661.559 761.367 675.084C761.432 675.16 761.5 675.233 761.571 675.303C765.653 679.307 772.325 681.309 781.587 681.309C785.873 681.309 790.713 680.881 796.107 680.023C796.256 680 796.403 679.965 796.547 679.921C809.231 675.992 819.72 668.588 828.013 657.708C828.041 657.671 828.067 657.635 828.094 657.597C831.946 652.061 834.463 647.187 835.645 642.976L835.668 642.89C837.681 634.853 838.203 628.095 837.234 622.617H837.228C836.249 612.379 829.338 604.12 816.495 597.843H816.49C812.973 595.813 808.806 594.385 803.99 593.557H803.985C804.137 593.276 804.248 592.967 804.31 592.636C804.634 590.916 803.502 589.26 801.782 588.936C799.179 588.447 796.62 588.202 794.106 588.202Z" fill="black"/>
<path d="M640.113 565.457C639.144 565.457 638.09 565.493 636.949 565.565C635.203 565.676 633.877 567.181 633.987 568.928C634.094 570.606 635.488 571.896 637.146 571.896C637.214 571.896 637.282 571.894 637.35 571.889C638.603 571.81 639.682 571.77 640.589 571.77C642.163 571.77 643.216 571.89 643.746 572.13H643.743C643.781 572.159 643.82 572.187 643.859 572.214H643.856C644.07 572.784 644.107 573.911 643.968 575.597H643.965C643.104 580.464 641.102 585.909 637.958 591.933H637.955C636.349 594.591 634.189 596.646 631.475 598.097H631.472C629.798 598.862 628.104 599.244 626.388 599.244C625.578 599.244 624.763 599.159 623.944 598.988C623.805 598.96 623.665 598.94 623.524 598.93C622.482 598.855 621.601 598.19 620.88 596.933H620.876C620.396 595.7 620.346 594.132 620.727 592.227H620.726C621.56 588.668 622.812 584.959 624.482 581.1C624.539 580.969 624.587 580.833 624.625 580.695C625.13 578.889 625.406 577.553 625.452 576.687C625.547 574.939 624.207 573.446 622.459 573.352C622.401 573.348 622.343 573.347 622.286 573.347C620.614 573.347 619.216 574.655 619.124 576.345C619.104 576.73 618.92 577.55 618.573 578.806H618.57C616.798 582.932 615.46 586.923 614.556 590.78L614.537 590.866C613.861 594.155 614.043 597.038 615.085 599.513C615.125 599.609 615.17 599.703 615.22 599.794C617.021 603.117 619.567 604.93 622.857 605.233H622.854C624.052 605.47 625.241 605.588 626.421 605.588C629.074 605.588 631.682 604.991 634.245 603.796C634.294 603.773 634.343 603.749 634.391 603.724C638.216 601.695 641.242 598.807 643.47 595.057C643.5 595.008 643.528 594.957 643.555 594.906C647.053 588.209 649.282 582.075 650.24 576.502C650.255 576.414 650.267 576.325 650.274 576.235C650.545 573.063 650.24 570.664 649.357 569.037C648.871 568.143 648.228 567.453 647.428 566.967H647.425C647.165 566.778 646.881 566.608 646.573 566.457C645.21 565.79 643.057 565.457 640.113 565.457Z" fill="black"/>
<path d="M786.642 599.811C787.003 599.811 787.323 599.846 787.602 599.914C787.695 599.937 787.79 599.956 787.885 599.97C789.256 600.178 791.202 602.66 793.724 607.417H793.719C796.432 614.772 794.123 621.256 786.794 626.866H786.789C780.749 630.825 775.939 632.805 772.358 632.805C770.124 632.805 768.369 632.035 767.091 630.494H767.087C765.331 627.612 765.05 624.104 766.245 619.969C766.265 619.898 766.284 619.825 766.299 619.753C767.556 613.876 769.978 608.981 773.565 605.069C774.12 604.463 774.396 603.701 774.398 602.939H774.403C774.802 603.114 775.237 603.207 775.678 603.207C776.126 603.207 776.58 603.112 777.013 602.91C781.453 600.844 784.663 599.811 786.642 599.811ZM786.883 593.512C783.754 593.512 779.573 594.73 774.339 597.165C773.189 597.7 772.511 598.837 772.507 600.027C772.1 599.848 771.665 599.759 771.23 599.759C770.373 599.759 769.519 600.105 768.894 600.786C764.539 605.537 761.611 611.403 760.111 618.386H760.106C758.431 624.324 758.994 629.525 761.797 633.988C761.856 634.081 761.919 634.172 761.987 634.259C764.578 637.559 767.947 639.209 772.095 639.209C777.074 639.209 783.175 636.832 790.399 632.077C790.46 632.037 790.52 631.995 790.578 631.95C800.532 624.364 803.527 615.365 799.564 604.955C799.519 604.835 799.466 604.718 799.406 604.604C795.909 597.975 792.441 594.351 789.002 593.732H788.997C788.356 593.586 787.651 593.512 786.883 593.512Z" fill="black"/>
<path d="M275.742 145.097L275.778 145.118C275.849 145.161 275.918 145.205 275.984 145.25C276.006 145.265 276.027 145.281 276.049 145.296L276.049 145.297C276.046 145.297 276.043 145.297 276.041 145.298C275.946 145.226 275.846 145.159 275.742 145.097Z" fill="black"/>
<path d="M280.115 151.348L280.744 151.36L289.159 152.701C289.683 152.488 290.193 152.391 290.692 152.411C293.321 152.351 295.198 152.414 296.324 152.601C295.774 151.978 295.706 151.769 296.119 151.974C297.223 151.906 299.629 152.229 303.336 152.943C305.91 153.489 308.439 154.215 310.925 155.122L320.48 158.918L322.175 159.971C322.979 160.571 323.629 161.298 324.124 162.152C328.808 165.604 332.794 168.902 336.083 172.047C338.486 174.416 340.865 177.067 343.221 179.998C348.068 187.307 350.76 195.139 351.294 203.493C351.114 217.702 349.594 230.519 346.735 241.943C344.633 248.274 341.764 253.832 338.128 258.615C329.442 268.319 322.908 274.071 318.525 275.873C314.246 278.742 304.953 280.712 290.645 281.784C276.77 281.185 267.708 279.763 263.461 277.518C250.493 271.3 241.371 265.753 236.092 260.876C227.636 252.464 222.853 246.172 221.741 241.999C219.196 234.349 217.575 226.118 216.877 217.305C215.694 199.159 220.087 184.879 230.054 174.462C233.751 171.22 236.657 169.102 238.771 168.107L271.057 153.257C274.861 151.893 277.88 151.257 280.115 151.348ZM275.186 144.507L274.73 144.511C272.004 144.705 269.108 145.424 266.042 146.666C262.267 148.573 260.382 150.081 260.387 151.19L234.775 163.064C228.969 166.553 224.61 170.349 221.698 174.452C212.19 187.127 208.664 203.489 211.123 223.536C211.609 230.445 213.809 238.671 217.722 248.213C221.722 255.549 227.581 262.254 235.298 268.326C240.42 272.765 249.767 278.069 263.337 284.239C270.133 286.576 279.256 287.871 290.705 288.122C306.327 287.036 317.018 284.577 322.777 280.747C330.854 275.749 337.94 269.261 344.035 261.282C349.047 253.87 352.154 247.387 353.357 241.832C355.568 230.199 356.949 221.041 357.502 214.357C357.958 212.161 357.815 207.288 357.073 199.738C356.677 192.666 353.91 185.09 348.772 177.008C343.501 169.744 335.482 162.33 324.715 154.767C318.876 151.208 312.456 148.591 305.454 146.918L299.532 145.879C286.504 144.973 278.389 144.515 275.186 144.507Z" fill="black"/>
<path d="M446.445 15.5483C446.33 15.5483 446.215 15.5545 446.098 15.5672C424.279 17.9422 408.161 25.7832 397.744 39.0903C392.819 44.3323 387.114 51.3743 380.63 60.2163C380.602 60.2549 380.575 60.2941 380.548 60.3339L366.246 81.8157C346.176 107.252 334.939 122.034 332.537 126.162L332.525 126.183L315.81 155.396C315.771 155.464 315.735 155.533 315.702 155.603C315.426 156.18 315.177 156.731 314.955 157.257C315.74 157.541 316.549 157.859 317.383 158.211C317.929 158.211 318.726 158.364 319.775 158.668C320.161 158.775 320.575 158.953 321.017 159.2C321.126 158.959 321.243 158.706 321.368 158.442L338.025 129.33C340.308 125.423 351.401 110.859 371.303 85.6358C371.356 85.5689 371.406 85.5 371.453 85.4291L385.776 63.9171C392.138 55.2429 397.699 48.3781 402.462 43.3224C402.53 43.2501 402.595 43.1746 402.656 43.0963C411.972 31.1318 426.681 24.0554 446.784 21.8672C448.524 21.6778 449.78 20.114 449.591 18.3743C449.414 16.7512 448.041 15.5483 446.445 15.5483Z" fill="black"/>
<path d="M470.246 6.76801C477.268 7.47941 483.214 10.8535 488.085 16.8903H488.084C490.829 20.6735 490.76 25.8573 487.877 32.4416H487.875C483.931 37.8958 479.296 41.0105 473.968 41.7857L473.963 41.7864C471.949 42.0827 470.072 42.2308 468.334 42.2308C459.444 42.2308 454.15 38.3579 452.452 30.6119C451.876 27.6468 452.612 25.0638 454.664 22.8627H454.663C459.579 18.8555 464.318 16.3344 468.88 15.2995C470.586 14.9123 471.656 13.2149 471.269 11.5083C470.935 10.0377 469.629 9.0401 468.182 9.0401C467.949 9.0401 467.714 9.06582 467.478 9.11932C463.543 10.012 459.569 11.7606 455.555 14.3652C460.573 9.48564 465.47 6.95323 470.245 6.76801H470.246ZM470.349 0.425781C470.322 0.425781 470.294 0.42613 470.267 0.42688C462.897 0.618313 455.659 4.645 448.554 12.5069C447.381 13.8052 447.482 15.8089 448.78 16.9822C449.371 17.5162 450.108 17.7862 450.846 17.7995H450.845C450.73 17.8929 450.614 17.987 450.499 18.0817C450.403 18.1602 450.312 18.2442 450.226 18.3333C446.555 22.1448 445.223 26.6409 446.231 31.8217L446.244 31.8858C448.652 43.0333 455.861 48.6071 467.871 48.6071C470.049 48.6071 472.386 48.4237 474.881 48.0568C482.083 47.0089 488.199 42.9395 493.23 35.8488C493.35 35.6794 493.454 35.4985 493.538 35.3088C497.569 26.2965 497.432 18.877 493.126 13.0505C493.1 13.0151 493.074 12.9805 493.046 12.9463C487.007 5.44529 479.54 1.27645 470.646 0.439758C470.547 0.430498 470.448 0.425781 470.349 0.425781Z" fill="black"/>
<path d="M493.439 35.9976C492.637 35.9976 491.835 36.2999 491.218 36.9061C489.97 38.1327 489.952 40.1389 491.179 41.3871C502.233 52.6362 505.119 70.4864 499.836 94.9377H499.834C489.842 123.887 480.229 144.26 470.994 156.056L470.96 156.101L429.387 211.184H429.386C411.955 230.206 402.057 240.466 399.692 241.963C399.399 242.148 399.139 242.38 398.921 242.65L329.452 328.728L239.019 421.367C238.954 421.434 238.892 421.504 238.832 421.576C227.996 434.847 206.412 443.55 174.078 447.688C149.918 444.391 138.125 433.857 138.698 416.086C138.705 415.851 138.687 415.616 138.642 415.386C135.742 400.302 139.877 383.993 151.046 366.459H151.045C173.719 337.785 188.815 315.6 196.333 299.902H196.332C208.634 284.98 219.293 273.415 228.31 265.205C229.604 264.027 229.698 262.023 228.52 260.729C227.895 260.042 227.037 259.693 226.176 259.693C225.415 259.693 224.651 259.966 224.044 260.519C214.742 268.988 203.793 280.871 191.196 296.17C191.031 296.37 190.891 296.591 190.78 296.826C183.516 312.131 168.584 334.071 145.983 362.643C145.917 362.727 145.855 362.813 145.798 362.903C133.734 381.783 129.253 399.564 132.355 416.244H132.353C131.818 437.716 145.584 450.309 173.651 454.025C173.789 454.043 173.928 454.052 174.067 454.052C174.199 454.052 174.332 454.044 174.464 454.027C208.61 449.71 231.671 440.268 243.647 425.699L334.091 333.048C334.161 332.976 334.227 332.902 334.289 332.824L403.575 246.974C407.002 244.409 417.199 233.866 434.167 215.346C434.235 215.272 434.3 215.195 434.36 215.115L476.018 159.918C485.699 147.532 495.657 126.497 505.892 96.8105C505.933 96.6926 505.966 96.5725 505.993 96.4506C511.809 69.6831 508.378 49.848 495.699 36.9453C495.079 36.3141 494.259 35.9976 493.439 35.9976Z" fill="black"/>
<path d="M216.356 95.0671C218.443 95.0671 219.794 95.2719 220.409 95.6813C220.453 95.7369 220.499 95.791 220.548 95.8434C224.497 100.106 225.585 105.829 223.811 113.013C223.283 114.353 222.113 115.648 220.302 116.9C220.239 116.944 220.177 116.99 220.117 117.038C219.102 117.855 217.655 118.395 215.777 118.658C211.946 118.393 208.372 116.62 205.052 113.337H205.051C202.634 110.8 201.695 106.633 202.232 100.834H202.231C202.351 100.068 202.485 99.3521 202.631 98.6871H202.632C202.827 98.7237 203.024 98.7421 203.221 98.7421C203.961 98.7421 204.704 98.4845 205.305 97.9595C207.014 96.4666 209.502 95.5514 212.769 95.2137C214.141 95.116 215.336 95.0671 216.356 95.0671ZM205.28 86.1211C204.941 86.1211 204.595 86.1762 204.256 86.292C199.905 87.7778 197.139 92.3265 195.957 99.938C195.947 99.9994 195.94 100.061 195.934 100.123C195.19 107.911 196.706 113.779 200.481 117.727L200.537 117.785C205.097 122.317 210.162 124.723 215.73 125.004C215.783 125.006 215.836 125.008 215.889 125.008C216.019 125.008 216.149 125 216.278 124.984C219.43 124.595 222.001 123.619 223.989 122.056C226.929 120.005 228.873 117.661 229.824 115.024C229.86 114.926 229.89 114.825 229.916 114.724C232.291 105.301 230.752 97.609 225.3 91.6485C224.985 91.2541 224.611 90.8999 224.179 90.5861C222.506 89.3705 219.691 88.7627 215.732 88.7627C214.661 88.7627 213.507 88.8071 212.269 88.8961L212.176 88.9041C210.853 89.0382 209.607 89.2507 208.439 89.5414C208.473 89.1224 208.423 88.6898 208.278 88.2666C207.829 86.9499 206.598 86.1211 205.28 86.1211Z" fill="black"/>
<path d="M148.394 65.4604C147.885 65.4604 147.376 65.47 146.866 65.4892H146.864C140.165 65.5395 134.546 69.3843 130.008 77.0236C126.879 82.2268 125.622 89.3488 126.239 98.3895C126.248 98.5182 126.265 98.6463 126.289 98.7731C129.043 113.069 131.527 121.722 133.741 124.731H133.739L154.772 155.565C154.802 155.609 154.833 155.652 154.865 155.694C164.81 168.801 170.843 176.154 172.966 177.755H172.964L208.426 210.06C209.033 210.613 209.797 210.886 210.559 210.886C211.419 210.886 212.277 210.538 212.902 209.851C214.08 208.558 213.987 206.553 212.693 205.375L177.094 172.945C176.987 172.847 176.873 172.757 176.753 172.674C175.201 171.548 169.609 164.639 159.976 151.947H159.975L138.92 121.081C138.896 121.046 138.872 121.011 138.846 120.977C137.211 118.776 135.113 111.043 132.552 97.7802H132.55C132.05 90.145 133.015 84.3109 135.446 80.2778L135.457 80.2602C138.786 74.6558 142.617 71.8444 146.949 71.826L147.059 71.8236C147.5 71.8064 147.942 71.7979 148.383 71.7979C154.319 71.7979 160.239 73.3493 166.142 76.4521H166.14C180.338 84.8374 191.493 92.3268 199.606 98.9202C200.194 99.3977 200.901 99.6299 201.603 99.6299C202.524 99.6299 203.438 99.2302 204.064 98.4596C205.168 97.1015 204.961 95.1059 203.603 94.0023C195.23 87.1977 183.791 79.5133 169.285 70.9493C169.241 70.9235 169.197 70.8986 169.152 70.875C162.306 67.2653 155.386 65.4604 148.394 65.4604Z" fill="black"/>
<path d="M205.041 195.36C204.039 195.36 203.053 195.834 202.438 196.718C201.438 198.154 201.791 200.129 203.227 201.129C206.708 203.552 209.37 205.637 211.216 207.383C217.294 214.679 225.741 222.959 236.558 232.222C236.762 232.396 236.987 232.544 237.228 232.662C246.349 237.117 261.374 247.242 282.304 263.037L291.788 273.206C291.893 273.319 292.006 273.424 292.127 273.52C314.422 291.336 328.45 303.385 334.212 309.666L354.923 333.42C355.015 333.525 355.114 333.625 355.22 333.718C361.168 338.944 366.24 342.427 370.436 344.166C370.624 344.244 370.819 344.303 371.019 344.344C376.399 345.436 381.105 345.982 385.136 345.982C392.489 345.982 397.598 344.166 400.464 340.533C409.212 333.617 413.152 320.83 412.287 302.172C412.277 301.958 412.246 301.747 412.193 301.54C410.329 294.19 404.128 284.803 393.59 273.379C393.451 273.227 393.296 273.089 393.129 272.967C381.07 264.166 369.433 254.833 358.218 244.967C356.134 243.114 353.16 242.14 349.293 242.045C349.267 242.045 349.24 242.044 349.214 242.044C347.5 242.044 346.09 243.412 346.048 245.135C346.005 246.885 347.388 248.338 349.138 248.381C351.456 248.438 353.079 248.878 354.006 249.702L354.019 249.714C365.305 259.643 377.014 269.04 389.144 277.904C398.675 288.269 404.283 296.567 405.972 302.801C406.688 319.308 403.453 330.295 396.271 335.765C396.021 335.955 395.801 336.181 395.618 336.436C394.033 338.641 390.682 339.744 385.567 339.744C382.067 339.744 377.742 339.228 372.591 338.196C369.12 336.696 364.777 333.663 359.563 329.097L338.957 305.465L338.905 305.407C332.95 298.907 318.736 286.677 296.265 268.714L286.75 258.513C286.625 258.379 286.488 258.256 286.342 258.145C265.246 242.217 249.925 231.885 240.379 227.149C229.907 218.163 221.77 210.176 215.967 203.186C215.89 203.093 215.808 203.005 215.72 202.921C213.633 200.924 210.676 198.593 206.849 195.928C206.297 195.544 205.666 195.36 205.041 195.36Z" fill="black"/>
<path d="M218.525 112.067C217.61 112.067 216.703 112.461 216.077 113.222C214.965 114.573 215.158 116.57 216.51 117.682L243.416 139.826C244.751 141.032 246.06 142.363 247.346 143.82L253.574 151.849C253.681 151.987 253.798 152.115 253.926 152.233C255.979 154.133 258.365 155.301 261.082 155.739C261.252 155.766 261.422 155.78 261.589 155.78C263.117 155.78 264.463 154.672 264.714 153.114C264.992 151.387 263.817 149.761 262.089 149.482C260.71 149.26 259.484 148.681 258.41 147.743L252.287 139.852C252.247 139.801 252.206 139.75 252.163 139.702C250.678 138.012 249.156 136.466 247.597 135.063C247.562 135.032 247.527 135.002 247.491 134.972L220.537 112.789C219.947 112.304 219.234 112.067 218.525 112.067Z" fill="black"/>
<path d="M103.764 219.767L103.909 219.77C104.295 219.786 104.656 219.867 104.992 220.012C106.177 219.869 107.49 219.873 108.934 220.024L111.083 220.374C112.543 220.685 114.057 221.151 115.626 221.772C119.644 223.598 122.12 224.88 123.054 225.618C124.763 226.689 126.572 227.949 128.482 229.398C133.661 233.118 136.667 238.335 137.499 245.05C138.037 246.899 137.458 250.541 135.763 255.976C134.867 259.047 133.175 261.91 130.688 264.563C128.356 266.727 126.348 267.915 124.663 268.125C120.021 269.546 115.512 270.251 111.137 270.24C109.159 270.184 107.379 269.907 105.796 269.408C103.816 268.278 101.969 267.117 100.255 265.925C99.2323 265.368 96.9605 263.511 93.4402 260.356C90.8108 257.789 88.7118 255.1 87.1432 252.29C86.5798 251.424 85.8551 249.056 84.9692 245.185L84.7272 242.931C84.6464 241.448 84.7265 240.002 84.9675 238.595C85.5678 235.593 86.575 233.119 87.9891 231.172C88.1036 230.938 88.6281 230.379 89.5626 229.495C90.3517 228.821 91.2631 228.242 92.2967 227.759C94.2284 225.916 96.6471 223.792 99.5527 221.389C101.247 220.327 102.651 219.786 103.764 219.767ZM106.838 213.572L106.486 213.575C98.9496 213.298 89.6646 218.465 78.631 229.077C77.783 229.956 77.4817 230.963 77.7272 232.099C77.8205 232.88 78.4102 233.6 79.4965 234.258C78.586 237.097 78.2062 240.038 78.3573 243.081C78.7767 246.93 79.1872 249.27 79.5886 250.101C80.0516 251.68 80.6652 253.324 81.4294 255.034C83.352 258.54 85.8108 261.757 88.8058 264.685C89.3758 265.485 91.9799 267.627 96.6179 271.113C98.5335 272.453 100.686 273.797 103.076 275.146C105.347 276.057 108.274 276.533 111.856 276.573C117.903 276.35 123.553 275.32 128.807 273.482L131.686 271.902C133.35 270.812 134.855 269.502 136.2 267.97C138.892 264.908 140.948 260.961 142.369 256.131C143.076 253.745 143.631 251.08 144.035 248.134L143.807 244.391C143.302 240.112 142.087 236.299 140.16 232.951L138.582 230.527C137.441 228.969 136.123 227.527 134.626 226.202C124.725 217.988 115.462 213.778 106.838 213.572Z" fill="black"/>
<path d="M207.695 192.923C207.208 193.15 206.78 193.501 206.458 193.95C205.872 194.768 205.709 195.816 206.02 196.773C205.409 194.889 205.968 193.606 207.695 192.923Z" fill="black"/>
<path d="M80.322 185.142C80.0292 185.142 79.7555 185.143 79.5007 185.147L79.4984 185.148C49.5123 185.315 31.8727 187.276 26.5796 191.031L26.5768 191.032C13.9483 197.088 5.71802 205.478 1.88597 216.2L1.84812 216.312C-2.1783 229.066 -0.141416 239.639 7.95875 248.03C7.98945 248.062 8.02063 248.093 8.05262 248.124C16.2789 255.963 26.0302 260.928 37.3064 263.02C37.3661 263.031 37.4257 263.041 37.486 263.048C42.9982 263.747 48.2729 264.096 53.3101 264.096C63.9999 264.096 73.62 262.523 82.1704 259.376C83.8127 258.772 84.6542 256.951 84.0498 255.309C83.5782 254.027 82.3659 253.233 81.0758 253.233C80.7124 253.233 80.3428 253.296 79.9818 253.429C72.1366 256.316 63.2472 257.76 53.3135 257.76C48.5741 257.76 43.5969 257.431 38.382 256.774L38.3794 256.775C28.4109 254.909 19.7868 250.523 12.5072 243.615L12.5042 243.616C6.18476 237.058 4.63536 228.631 7.856 218.333L7.8535 218.334C11.1272 209.173 18.3726 201.934 29.5898 196.615C29.8181 196.507 30.0328 196.372 30.229 196.213C33.9126 193.223 50.3514 191.647 79.5454 191.484L79.5722 191.484C79.8138 191.48 80.0743 191.479 80.3536 191.479C83.9327 191.479 90.5963 191.757 100.345 192.314L100.342 192.315C111.905 194.276 118.62 195.257 120.488 195.257C120.521 195.257 120.553 195.257 120.584 195.256L120.583 195.257C120.829 195.252 121.056 195.231 121.263 195.197C121.343 195.182 121.423 195.167 121.501 195.148L121.499 195.148C121.647 195.143 121.83 195.14 122.048 195.14C126.292 195.14 143.907 196.114 174.896 198.063C174.962 198.067 175.028 198.069 175.094 198.069C175.132 198.069 175.17 198.069 175.208 198.067L190.054 197.537L190.055 197.538C200.815 198.517 207.038 199.006 208.723 199.006C208.797 199.006 208.863 199.005 208.92 199.003C209.105 198.996 209.281 198.981 209.448 198.955L209.448 198.956C211.966 198.883 214.322 198.413 216.518 197.546C218.145 196.904 218.944 195.063 218.301 193.435C217.81 192.19 216.616 191.43 215.353 191.43C214.966 191.43 214.573 191.501 214.191 191.652C212.608 192.276 210.875 192.601 208.991 192.627C208.826 192.629 208.663 192.644 208.502 192.671C206.992 192.655 200.967 192.168 190.43 191.208C190.334 191.199 190.238 191.195 190.142 191.195C190.104 191.195 190.067 191.196 190.029 191.197L175.138 191.729C144.288 189.788 126.487 188.819 121.734 188.819C121.273 188.819 120.934 188.828 120.719 188.846L120.719 188.847C120.533 188.863 120.355 188.886 120.185 188.916C118.396 188.839 112.077 187.879 101.229 186.036C101.113 186.016 100.996 186.003 100.879 185.996C90.9201 185.427 84.0678 185.142 80.322 185.142ZM123.727 191.008C123.802 191.217 123.854 191.431 123.882 191.652L123.881 191.653C123.852 191.433 123.8 191.217 123.725 191.008H123.727ZM123.877 192.535C123.709 194.018 122.961 194.877 121.632 195.112C122.492 194.86 123.212 194.253 123.602 193.433C123.739 193.145 123.83 192.842 123.875 192.535H123.877Z" fill="black"/>
<path d="M549.887 245.648C549.19 246.146 548.711 246.916 548.59 247.792C548.584 247.834 548.579 247.876 548.575 247.918L548.574 247.919C548.609 246.858 549.046 246.101 549.885 245.648H549.887Z" fill="black"/>
<path d="M548.833 249.514C549.042 249.983 549.364 250.401 549.779 250.725L549.777 250.726C549.345 250.395 549.029 249.991 548.831 249.514H548.833Z" fill="black"/>
<path d="M435.073 257.02C435.47 258.045 436.379 258.8 437.47 258.994C436.211 258.876 435.411 258.219 435.071 257.02H435.073Z" fill="black"/>
<path d="M437.097 252.845L436.815 252.947L436.547 253.072L436.296 253.22L436.061 253.39L435.844 253.578L435.645 253.785L435.467 254.008L435.31 254.246L435.174 254.497L435.061 254.76L434.972 255.034L434.908 255.316L434.97 254.915L435.077 254.546L435.23 254.209L435.428 253.903L435.671 253.628L435.959 253.385L436.293 253.174L436.672 252.994L437.097 252.845ZM491.007 182.505L489.877 182.512C475.005 183.374 456.372 185.119 433.978 187.747C431.374 188.014 424.514 188.965 413.398 190.599L350.125 200.32C350.521 200.266 350.961 202.336 351.446 206.529L427.758 194.936C437.83 193.413 456.923 191.456 485.037 189.063C496.296 188.558 507.903 189.535 519.858 191.994C532.896 194.309 542.487 196.919 548.631 199.824C550.921 200.364 555.21 203.178 561.5 208.267C563.715 210.442 565.5 212.816 566.856 215.389C573.65 229.697 568.081 239.728 550.149 245.48C549.96 245.79 537.308 247.319 512.195 250.067L471.027 252.7L437.142 252.713L410.096 255.257L399.95 255.358L361.523 258.29L291.282 255.715L263.2 257.345C250.854 256.308 242.829 255.839 239.124 255.937C231.042 254.127 223.265 252.966 215.793 252.455C207.179 251.805 194.656 251.598 178.224 251.833L164.234 250.715L135.95 252.636C136.203 253.958 135.704 256.109 134.454 259.091L164.151 257.061L177.989 258.169C194.65 257.937 207.109 258.14 215.367 258.778C222.504 259.255 230.189 260.414 238.423 262.254C242.629 262.171 250.832 262.649 263.034 263.688L291.276 262.055L361.576 264.631L400.257 261.69L410.511 261.582L437.677 259.024L471.248 259.035L512.81 256.374C534.244 254.062 547.045 252.507 551.215 251.71C557.619 249.655 561.981 247.809 564.301 246.172C567.347 244.306 569.804 242.193 571.67 239.833C573.341 238.962 574.813 234.863 576.086 227.536C575.984 216.659 571.412 207.685 562.37 200.614C556.425 195.997 548.605 192.355 538.909 189.687C518.177 184.713 502.21 182.319 491.007 182.505Z" fill="black"/>
<path d="M632.557 567.556L632.491 567.556L629.718 567.862C629.084 567.987 628.632 568.116 628.36 568.25C627.15 568.8 626.292 569.453 625.784 570.209C624.512 572.028 623.61 573.641 623.079 575.047C621.857 577.92 620.94 580.713 620.326 583.426C619.76 585.608 619.693 587.235 620.127 588.306C619.567 588.733 619.096 589.527 618.711 590.689C618.357 591.769 618.294 592.743 618.521 593.612C618.677 594.51 619.074 595.363 619.712 596.171C619.701 596.611 619.85 597.193 620.159 597.917C620.361 598.307 620.628 598.636 620.961 598.905C620.917 599.692 621.088 600.4 621.472 601.027C621.706 601.495 622.186 601.977 622.912 602.473C623.342 602.711 623.807 602.829 624.308 602.829C626.004 602.794 627.878 601.618 629.931 599.302C631.672 600.06 633.55 599.432 635.567 597.418C636.427 596.458 636.77 595.484 636.596 594.496C637.622 593.144 638.503 591.715 639.239 590.209C640.769 588.882 641.954 587.327 642.795 585.545C643.206 584.843 643.884 583.306 644.829 580.936C645.235 579.92 645.633 578.665 646.023 577.17C646.312 576.056 646.326 575.149 646.067 574.448C645.798 573.589 645.515 573.031 645.217 572.774C645.237 571.47 645.086 570.529 644.763 569.951C644.297 569.176 643.97 568.761 643.781 568.705C643.048 568.245 642.51 568.007 642.166 567.992L639.761 567.708C639.554 567.685 639.271 567.689 638.912 567.717C637.831 567.741 636.797 568.29 635.81 569.364C635.19 568.272 634.105 567.669 632.557 567.556Z" fill="black"/>
<path d="M784.801 597.734L784.674 597.736C784.119 597.653 783.15 597.953 781.765 598.635C780.695 599.268 779.839 600.187 779.198 601.391C778.186 601.504 777.363 601.698 776.729 601.973C776.383 602.108 775.905 602.486 775.294 603.107C773.836 603.528 772.912 603.993 772.521 604.502L770.176 607.401C769.58 608.299 769.222 608.904 769.102 609.214C768.45 610.444 767.666 612.61 766.751 615.713C766.4 616.824 765.852 619.071 765.107 622.455C765.027 622.735 764.907 623.427 764.749 624.53C764.566 626.226 764.686 627.527 765.108 628.435C765.311 628.919 765.581 629.345 765.919 629.713C766.291 630.101 766.8 630.511 767.447 630.942C768.802 632.742 769.628 633.685 769.922 633.773C770.203 633.959 770.447 634.085 770.653 634.153L772.767 634.787C773.269 634.903 773.722 634.951 774.128 634.932C775.405 634.916 776.764 634.487 778.204 633.645C779.685 632.794 780.935 631.56 781.953 629.945C782.271 629.983 782.772 629.877 783.454 629.625C783.858 629.454 784.268 629.215 784.687 628.907C785.484 628.693 786.062 628.481 786.421 628.273C786.895 628.037 787.376 627.746 787.866 627.401C789.883 626.102 791.256 624.488 791.987 622.557C793.511 622.445 794.51 621.64 794.986 620.141C795.41 618.34 795.651 617.207 795.708 616.743C795.898 615.757 795.937 614.888 795.826 614.136C796.4 612.488 796.622 611.469 796.492 611.077C796.222 609.801 795.668 608.979 794.831 608.611C794.603 607.105 794.26 605.775 793.801 604.622C793.517 603.952 793.147 603.383 792.691 602.915C792.397 602.621 792.072 602.396 791.717 602.239C791.245 601.595 790.884 601.195 790.633 601.041C790.317 600.793 789.974 600.602 789.606 600.468C788.988 599.724 788.494 599.223 788.125 598.966C786.964 598.111 785.856 597.7 784.801 597.734Z" fill="black"/>
<path d="M689.157 678.125C689.007 678.125 688.844 678.13 688.669 678.141C688.517 678.151 688.365 678.171 688.216 678.202C686.15 678.635 684.761 678.898 684.05 678.993L684.018 678.997C683.762 679.034 683.502 679.068 683.238 679.099L680.541 678.593L680.527 678.591C679.53 678.408 678.615 678.317 677.782 678.317C677.432 678.317 677.096 678.333 676.774 678.365L676.729 678.37C676.189 678.432 675.712 678.523 675.298 678.643C674.55 678.86 673.939 679.177 673.465 679.595H673.461C673.24 679.607 672.967 679.632 672.641 679.671C672.55 679.681 672.459 679.696 672.37 679.715C670.593 680.084 668.275 681.358 665.417 683.537C664.026 684.598 663.758 686.586 664.819 687.978C665.443 688.796 666.386 689.225 667.341 689.225C668.011 689.225 668.686 689.014 669.26 688.576C671.264 687.048 672.693 686.171 673.546 685.946H673.542C673.581 685.942 673.616 685.938 673.648 685.935H673.651C674.491 686.07 675.29 686.138 676.049 686.138C676.402 686.138 676.745 686.123 677.08 686.094L677.198 686.082C678.395 685.932 679.751 685.786 681.265 685.644H681.269C681.619 686.461 682.398 687.084 683.607 687.513C683.761 687.568 683.932 687.621 684.118 687.673C684.404 687.754 684.692 687.792 684.975 687.792C685.754 687.792 686.498 687.502 687.069 686.999H687.065C687.394 686.983 687.767 686.968 688.183 686.953L688.216 686.952C688.751 686.929 689.424 686.917 690.237 686.917C690.337 686.917 690.439 686.917 690.543 686.917H690.539L696.924 688.115C696.97 688.124 697.018 688.132 697.064 688.139C697.244 688.164 697.418 688.182 697.586 688.194C697.724 688.203 697.861 688.208 697.993 688.208C699.352 688.208 700.398 687.719 701.133 686.743C701.158 686.71 701.182 686.676 701.206 686.642C701.335 686.456 701.445 686.262 701.536 686.059C702.51 683.905 701.838 682.304 699.521 681.256C699.458 681.227 699.393 681.201 699.328 681.176C699.161 681.114 698.985 681.058 698.8 681.008C698.082 680.817 697.132 680.711 695.95 680.69H695.946C694.765 680.653 693.689 680.625 692.719 680.606H692.716C692.611 680.314 692.462 680.014 692.269 679.704C691.615 678.652 690.579 678.125 689.162 678.125H689.164C689.161 678.125 689.159 678.125 689.157 678.125Z" fill="black"/>
<path d="M706.158 687.496L706.186 687.657L706.209 687.814L706.226 687.968L706.238 688.119L706.243 688.266L706.244 688.409L706.238 688.549L706.227 688.685L706.21 688.818L706.106 688.744L706.102 688.744L706.125 688.643L706.144 688.541L706.161 688.438L706.174 688.335L706.184 688.231L706.19 688.127L706.193 688.022L706.192 687.917L706.188 687.812L706.18 687.707L706.169 687.601L706.154 687.496H706.158ZM698.434 683.266L698.383 683.266C696.399 683.342 695.055 684.175 694.35 685.766C693.074 685.203 691.868 685.424 690.732 686.428C689.565 687.902 689.539 689.376 690.656 690.848C691.165 691.679 692.466 692.577 694.558 693.542L696.12 694.159L700.845 695.358L702.329 696.061C704.931 696.916 706.438 697.435 706.849 697.619C707.186 697.592 708.761 698.451 711.574 700.195L718.609 706.517C719.857 708.043 720.738 709.197 721.25 709.977C721.656 712.033 722.039 714.621 722.4 717.742C722.433 718.009 722.496 718.264 722.589 718.505C723.143 719.782 724.128 720.458 725.543 720.533C727.635 720.219 728.692 719.128 728.713 717.261C728.663 715.061 728.49 712.485 728.195 709.533C727.876 707.963 727.011 706.202 725.599 704.252C724.448 702.714 723.475 701.566 722.68 700.808L720.737 698.29C719.331 697.237 717.202 695.177 714.348 692.11C709.744 688.619 706.563 686.337 704.804 685.262C701.379 683.785 699.256 683.12 698.434 683.266Z" fill="black"/>
<path d="M976.838 200.684C976.804 200.727 976.77 200.772 976.738 200.818C975.725 202.245 976.061 204.223 977.488 205.236C980.087 207.08 982.408 208.26 984.45 208.778L984.479 208.785C1006.53 214.159 1020.08 217.837 1025.14 219.82C1035.67 224.079 1042.78 227.857 1046.5 231.154C1057.95 241.67 1065.45 250.121 1069.01 256.506L1069.04 256.561C1074.5 265.908 1076.7 274.527 1075.63 282.416C1073.38 296.379 1065.13 309.711 1050.88 322.412H1050.88C1042.4 328.422 1035.12 331.589 1029.04 331.913C1028.93 331.919 1028.82 331.931 1028.71 331.949C1022.71 332.911 1018.54 333.392 1016.19 333.392C1016.16 333.392 1016.14 333.392 1016.11 333.391H1016.09C1015.89 333.391 1015.69 333.41 1015.49 333.448H1015.48C1015.24 333.476 1014.85 333.489 1014.32 333.489C1011.06 333.489 1002.43 332.978 988.42 331.956C988.349 331.951 988.278 331.948 988.206 331.948C988.156 331.947 988.107 331.947 988.058 331.947C985.062 331.947 982.59 332.428 980.64 333.39C980.571 333.424 980.504 333.46 980.438 333.498C978.156 334.836 976.624 336.647 975.841 338.93C975.807 339.027 975.779 339.125 975.755 339.225C974.425 344.819 971.706 351.998 967.598 360.762C966.855 362.347 967.538 364.233 969.123 364.976C969.557 365.18 970.015 365.276 970.465 365.276C971.656 365.276 972.798 364.601 973.336 363.452C977.575 354.409 980.418 346.898 981.866 340.918H981.859C982.132 340.182 982.686 339.555 983.522 339.038H983.515C984.578 338.536 986.09 338.284 988.05 338.284H988.07C1001.91 339.294 1010.74 339.799 1014.56 339.799C1015.38 339.799 1015.96 339.776 1016.32 339.731L1016.32 339.73C1016.33 339.73 1016.33 339.729 1016.34 339.728H1016.33C1019.01 339.711 1023.42 339.212 1029.55 338.232H1029.54C1036.85 337.797 1045.25 334.202 1054.73 327.449C1054.82 327.383 1054.91 327.312 1055 327.236C1070.45 313.484 1079.42 298.853 1081.89 283.342L1081.91 283.269C1083.17 273.953 1080.72 264.003 1074.55 253.419C1070.65 246.432 1062.71 237.443 1050.74 226.451L1050.7 226.417C1046.44 222.632 1038.71 218.47 1027.49 213.932L1027.45 213.919C1022.13 211.834 1008.31 208.073 986.009 202.635C985.083 202.401 983.979 201.887 982.698 201.095H982.691C982.499 201.097 982.303 201.098 982.105 201.098C981.83 201.098 981.548 201.096 981.261 201.091L981.227 201.091C979.766 201.053 978.573 200.966 977.649 200.831C977.605 200.825 977.561 200.818 977.517 200.81C977.286 200.766 977.062 200.724 976.845 200.684H976.838Z" fill="black"/>
<path d="M932.68 395.138C931.763 395.986 931.4 397.336 931.866 398.577C932.343 399.849 933.55 400.633 934.833 400.633C935.203 400.633 935.579 400.568 935.946 400.43C940.308 398.793 943.976 397.975 946.95 397.975H946.975C949.687 398.115 952.703 399.341 956.022 401.653H956.015C958.791 403.972 960.439 406.256 960.96 408.505L960.968 408.538C961.869 412.247 961.67 415.461 960.37 418.181H960.365C958.934 420.798 956.277 423.498 952.394 426.279H952.388C950.036 427.793 947.626 428.57 945.161 428.61C944.898 428.614 944.638 428.651 944.385 428.72C944.19 428.765 943.95 428.787 943.666 428.787C941.457 428.787 936.538 427.431 928.906 424.719H928.9C925.665 423.371 923.043 421.531 921.036 419.198H921.029C918.057 414.356 917.912 409.301 920.594 404.034H920.588C923.621 400.287 927.649 397.321 932.673 395.138H932.68ZM930.96 388.979C924.502 391.64 919.334 395.416 915.454 400.306C915.333 400.459 915.225 400.624 915.134 400.797C911.136 408.377 911.345 415.686 915.76 422.725C915.837 422.847 915.922 422.964 916.014 423.074C918.714 426.301 922.212 428.806 926.508 430.588C926.558 430.608 926.609 430.628 926.66 430.646C934.918 433.585 940.743 435.055 944.133 435.055C944.685 435.055 945.172 435.016 945.594 434.939H945.588C949.2 434.819 952.662 433.675 955.975 431.506C956.012 431.482 956.049 431.456 956.085 431.43C960.831 428.03 964.145 424.566 966.025 421.037C966.046 420.997 966.067 420.956 966.087 420.914C968.032 416.846 968.381 412.233 967.134 407.075C966.282 403.398 963.877 399.925 959.919 396.658C959.854 396.604 959.788 396.553 959.719 396.505C957.588 395.014 955.505 393.865 953.47 393.057H953.464C952.882 393.871 951.931 394.386 950.887 394.386C950.757 394.386 950.625 394.378 950.493 394.361C943.601 393.506 939.386 392.792 937.846 392.221H937.852C935.23 391.316 933.413 390.585 932.4 390.029H932.406C931.823 389.737 931.343 389.387 930.967 388.979H930.96Z" fill="black"/>
<path d="M975.769 200.489C975.841 200.676 975.931 200.857 976.037 201.028L976.03 201.029C973.449 207.363 970.054 214.766 965.844 223.238C965.799 223.329 965.758 223.422 965.722 223.516C963.932 228.196 963.046 231.405 963.065 233.144C963.068 233.49 963.101 233.815 963.161 234.119C963.572 236.189 964.657 237.224 966.417 237.224C966.758 237.224 967.124 237.185 967.516 237.107C967.729 237.065 967.937 237.001 968.138 236.916C968.701 236.676 969.494 236.557 970.515 236.557C976.87 236.557 992.083 241.193 1016.15 250.465L1016.14 250.466L1037.51 265.568L1037.5 265.569C1041.2 270.652 1042.93 274.682 1042.7 277.657C1042.69 277.702 1042.69 277.748 1042.69 277.793C1042.38 286.17 1039.87 293.259 1035.16 299.062C1034.98 299.283 1034.83 299.526 1034.72 299.784L1034.71 299.785C1032.94 301.557 1025.25 305.922 1011.62 312.88L1011.61 312.881C1008.21 314.193 1004.28 314.849 999.848 314.849C998.489 314.849 997.082 314.787 995.626 314.664C995.542 314.657 995.458 314.653 995.373 314.652C990.826 314.632 981.927 311.912 968.676 306.493C968.565 306.448 968.453 306.409 968.338 306.377C967.087 306.023 965.917 305.847 964.829 305.847C962.268 305.847 960.157 306.825 958.496 308.783C958.415 308.878 958.34 308.978 958.271 309.083C956.135 312.305 952.854 321.619 948.426 337.025L948.419 337.026C944.293 347.241 940.851 354.097 938.094 357.595C938.032 357.673 937.975 357.754 937.921 357.837C936.954 359.333 936.533 361.15 936.658 363.288L936.662 363.348C936.736 364.305 937.081 365.207 937.696 366.052C938.743 367.491 940.711 368.806 943.602 369.998C943.7 370.038 943.8 370.073 943.901 370.104L964.579 376.289C964.875 376.378 965.181 376.422 965.487 376.422C965.717 376.422 965.946 376.397 966.172 376.347C972.241 375.004 975.888 370.134 977.113 361.737C977.366 360.006 976.167 358.397 974.435 358.145C974.28 358.122 974.126 358.111 973.974 358.111C972.426 358.111 971.072 359.246 970.843 360.823C970.1 365.914 968.324 368.959 965.517 369.955L945.896 364.086L945.889 364.087C944.395 363.463 943.425 362.936 942.98 362.504L942.973 362.505C942.978 362.025 943.047 361.651 943.182 361.384L943.176 361.385C946.305 357.356 950.04 349.957 954.381 339.187C954.421 339.086 954.457 338.982 954.487 338.877C958.649 324.387 961.628 315.69 963.424 312.785L963.418 312.786C963.791 312.407 964.322 312.218 965.01 312.218C965.437 312.218 965.925 312.291 966.473 312.436L966.467 312.437C980.267 318.071 989.852 320.921 995.22 320.989L995.213 320.99C996.801 321.12 998.345 321.186 999.844 321.186C1005.16 321.186 1009.91 320.361 1014.1 318.712C1014.2 318.674 1014.29 318.632 1014.38 318.585C1029.33 310.958 1037.77 305.995 1039.71 303.695C1040 303.36 1040.22 303.018 1040.39 302.669L1040.39 302.67C1045.77 295.878 1048.64 287.709 1049.02 278.162L1049.01 278.163C1049.38 273.528 1047.14 267.934 1042.29 261.381C1042.09 261.11 1041.85 260.873 1041.57 260.679L1019.47 245.057C1019.26 244.906 1019.03 244.782 1018.78 244.688C994.486 235.315 978.22 230.572 969.988 230.459L969.982 230.46C970.342 229.298 970.87 227.804 971.565 225.979L971.558 225.98C976.334 216.366 980.091 208.07 982.829 201.093L982.822 201.094C982.588 201.097 982.349 201.098 982.105 201.098C981.83 201.098 981.548 201.096 981.261 201.092L981.227 201.091C979.766 201.053 978.573 200.966 977.649 200.832C977.605 200.825 977.561 200.818 977.517 200.81C976.887 200.691 976.307 200.584 975.776 200.489H975.769Z" fill="black"/>
<path d="M977.709 194.258C977.685 194.301 977.662 194.344 977.639 194.388L977.645 194.389C977.68 194.394 977.715 194.4 977.75 194.407C977.736 194.357 977.725 194.308 977.715 194.258H977.709Z" fill="black"/>
<path d="M1194.81 639.738C1193.99 639.738 1193.17 640.055 1192.55 640.687C1190.86 642.412 1189.21 643.466 1187.6 643.848L1187.59 643.85C1186.55 644.102 1185.48 644.243 1184.38 644.274C1184.34 644.275 1184.29 644.278 1184.25 644.281H1184.24C1184.16 644.283 1184.04 644.284 1183.87 644.284C1183.74 644.284 1183.6 644.284 1183.43 644.282H1183.42C1181.8 644.221 1179.93 644.159 1177.79 644.095C1177.76 644.094 1177.72 644.094 1177.69 644.094C1175.99 644.094 1174.58 645.452 1174.53 647.169C1174.48 648.918 1175.85 650.378 1177.6 650.43C1179.75 650.493 1181.63 650.556 1183.23 650.617L1183.33 650.619C1183.51 650.62 1183.67 650.621 1183.81 650.621C1184.14 650.621 1184.39 650.618 1184.54 650.611L1184.55 650.611C1184.57 650.61 1184.59 650.609 1184.61 650.608H1184.6C1186.12 650.562 1187.61 650.364 1189.07 650.013C1191.86 649.349 1194.53 647.72 1197.07 645.126C1198.3 643.877 1198.28 641.871 1197.03 640.645C1196.41 640.04 1195.61 639.738 1194.81 639.738Z" fill="black"/>
<path d="M1155.84 623.762C1155.09 623.762 1154.34 624.027 1153.74 624.566C1152.43 625.731 1152.32 627.734 1153.48 629.04C1154.17 629.811 1154.63 630.396 1154.86 630.795L1154.91 630.888C1155.35 631.586 1156.11 633.033 1157.2 635.228C1157.22 635.271 1157.24 635.313 1157.27 635.355C1157.66 636.062 1158.09 636.734 1158.55 637.369C1159.17 638.22 1160.13 638.672 1161.11 638.672C1161.76 638.672 1162.41 638.474 1162.98 638.064C1164.39 637.034 1164.7 635.052 1163.67 633.638C1163.39 633.252 1163.13 632.845 1162.88 632.414H1162.88C1161.74 630.114 1160.89 628.516 1160.34 627.62H1160.34C1159.9 626.847 1159.18 625.914 1158.21 624.821C1157.58 624.119 1156.72 623.762 1155.84 623.762Z" fill="black"/>
<path d="M1157.92 624.492C1156.64 624.492 1155.43 625.28 1154.95 626.555C1154.34 628.195 1155.17 630.019 1156.81 630.63C1157.08 630.729 1157.29 630.861 1157.46 631.029C1157.51 631.084 1157.56 631.146 1157.61 631.214H1157.61L1158.58 632.741C1159.18 633.69 1160.21 634.208 1161.25 634.208C1161.84 634.208 1162.43 634.048 1162.95 633.712C1164.43 632.771 1164.86 630.813 1163.92 629.337L1162.84 627.642C1162.81 627.585 1162.77 627.529 1162.73 627.474C1162.5 627.155 1162.24 626.857 1161.97 626.579C1161.15 625.746 1160.17 625.117 1159.03 624.692C1158.66 624.556 1158.29 624.492 1157.92 624.492Z" fill="black"/>
<path d="M935.349 388.9C932.071 388.9 928.148 390.164 923.578 392.693C922.047 393.54 921.493 395.468 922.34 396.999C922.918 398.044 924 398.634 925.115 398.634C925.634 398.634 926.16 398.507 926.647 398.238C930.262 396.237 933.154 395.237 935.323 395.237C935.404 395.237 935.483 395.238 935.561 395.241L935.666 395.243C936.283 395.244 936.885 395.291 937.474 395.384L937.481 395.385C938.879 395.601 940.166 395.845 941.34 396.116L941.348 396.118C941.956 396.257 942.547 396.408 943.119 396.571H943.112C946.29 397.619 948.286 398.217 949.1 398.366L949.103 398.366C949.165 398.377 949.226 398.387 949.285 398.396H949.279C949.999 398.536 950.695 398.606 951.365 398.606C951.877 398.606 952.375 398.565 952.859 398.483C954.584 398.191 955.746 396.555 955.453 394.83C955.191 393.284 953.85 392.19 952.333 392.19C952.157 392.19 951.979 392.205 951.8 392.235C951.665 392.258 951.52 392.269 951.363 392.269C951.085 392.269 950.773 392.234 950.425 392.163C950.365 392.151 950.304 392.14 950.242 392.131H950.236C949.701 392.033 947.954 391.496 944.994 390.519C944.965 390.509 944.937 390.5 944.862 390.48H944.867C944.187 390.286 943.488 390.107 942.769 389.943C941.443 389.636 940.006 389.362 938.456 389.123C937.565 388.983 936.658 388.911 935.736 388.906H935.73C935.604 388.902 935.477 388.9 935.349 388.9Z" fill="black"/>
</g>
<defs>
<clipPath id="clip0_149_525">
<rect width="1251" height="859" fill="white"/>
</clipPath>
</defs>
</svg>
