<svg width="608" height="510" viewBox="0 0 608 510" fill="none" xmlns="http://www.w3.org/2000/svg">
<g clip-path="url(#clip0_157_2)">
<path d="M307.589 487.587C307.167 487.712 306.847 488.067 306.771 488.507C306.826 487.992 307.098 487.685 307.584 487.587H307.589ZM306.793 489.009C306.891 489.373 307.161 489.678 307.533 489.809C307.117 489.662 306.869 489.396 306.789 489.009H306.793ZM44.8727 420.087C44.4299 420.087 44.0063 420.34 43.8097 420.769C43.5408 421.355 43.7983 422.049 44.385 422.318L151.628 471.484L151.676 471.504C156.834 473.599 172.823 476.555 199.64 480.374L199.67 480.378L199.68 480.379L199.683 480.379C227.598 483.557 244.291 485.146 249.763 485.146C250.065 485.146 250.332 485.141 250.566 485.132H250.57C273.45 488.406 287.111 490.043 291.554 490.043C292.177 490.043 292.619 490.01 292.88 489.946H292.884C295.648 489.954 298.034 489.958 300.043 489.958C304.87 489.958 307.517 489.935 307.981 489.888C308.076 489.879 308.166 489.864 308.249 489.844H308.245C320.444 488.265 339.661 487.33 365.896 487.037L365.988 487.032C385.763 485.261 400.869 483.057 411.305 480.42C457.901 469.567 486.014 462.044 495.646 457.85H495.64C506.85 453.843 512.971 451.451 514.001 450.674C514.028 450.653 514.055 450.632 514.08 450.611H514.074L555.87 427.46C556.435 427.148 556.639 426.437 556.326 425.872C556.113 425.487 555.714 425.269 555.303 425.269C555.111 425.269 554.917 425.317 554.738 425.416L512.831 448.628C512.728 448.685 512.634 448.757 512.553 448.841H512.547C511.556 449.518 505.657 451.788 494.85 455.65L494.775 455.68C485.338 459.811 457.337 467.299 410.774 478.144L410.753 478.149C400.444 480.756 385.468 482.94 365.825 484.7H365.82C339.395 484.996 320.045 485.945 307.771 487.548C307.73 487.554 307.691 487.561 307.652 487.57H307.647C307.042 487.605 304.664 487.622 300.514 487.622C298.381 487.622 295.779 487.617 292.71 487.608C292.708 487.608 292.707 487.608 292.706 487.608C292.563 487.608 292.421 487.635 292.288 487.686H292.283C292.086 487.732 291.755 487.755 291.291 487.755C287.357 487.755 273.857 486.104 250.791 482.802C250.736 482.794 250.68 482.79 250.625 482.79C250.605 482.79 250.585 482.791 250.565 482.792C250.319 482.805 250.028 482.811 249.691 482.811C244.367 482.811 227.786 481.226 199.951 478.057L199.94 478.056H199.943C173.411 474.278 157.63 471.378 152.6 469.357H152.597L45.359 420.193C45.2012 420.121 45.0356 420.087 44.8727 420.087Z" fill="black"/>
<path d="M61.7099 384.563C61.6597 384.733 61.6492 384.913 61.6786 385.088C61.6356 384.932 61.6454 384.757 61.708 384.563H61.7099Z" fill="black"/>
<path d="M301.609 200.385C301.326 200.385 301.05 200.487 300.833 200.679C276.346 222.383 262.381 236.478 258.938 242.963C245.386 221.816 237.158 210.953 234.255 210.375C234.124 210.349 233.995 210.335 233.868 210.333C233.863 210.332 233.857 210.333 233.852 210.333C233.493 210.333 233.153 210.498 232.931 210.781L191.365 263.904L191.362 263.905C191.266 263.935 191.166 263.95 191.06 263.95C190.29 263.95 189.242 263.143 187.917 261.53L187.914 261.531L166.741 230.319C166.518 229.99 166.151 229.806 165.773 229.806C165.622 229.806 165.468 229.835 165.321 229.897C151.332 235.769 142.875 251.581 139.951 277.333L120.244 262.941C120.042 262.793 119.8 262.716 119.555 262.716C119.443 262.716 119.331 262.732 119.221 262.765C118.871 262.869 118.59 263.131 118.462 263.472C106.002 296.496 100.093 318.579 100.733 329.721L100.731 329.722C100.712 329.721 100.692 329.721 100.672 329.721C98.997 329.721 94.8248 328.652 88.1548 326.513L88.1526 326.514C76.0096 320.254 68.7358 317.124 66.331 317.124C66.2148 317.124 66.1099 317.132 66.0164 317.146L66.0161 317.147C65.8786 317.168 65.7492 317.201 65.6281 317.245C64.7448 317.569 64.41 318.186 64.6253 319.096L64.6234 319.097C61.6056 339.587 61.5549 361.249 64.4715 384.086C64.2683 384.071 64.0031 384.018 63.6758 383.928L63.6739 383.929C63.6455 383.893 63.6154 383.857 63.5835 383.821C62.3547 382.456 53.8787 378.413 38.1555 371.69C38.1 371.667 38.0427 371.647 37.9842 371.632C37.5936 371.533 37.2268 371.483 36.8839 371.483C35.4842 371.483 34.4817 372.311 33.8762 373.966L33.8578 374.02C31.6909 380.988 35.9363 397.898 46.5941 424.752C46.7761 425.21 47.2157 425.49 47.6806 425.49C47.8241 425.49 47.9699 425.463 48.1114 425.407C48.7113 425.169 49.0046 424.489 48.7665 423.89C38.3401 397.619 34.1091 381.245 36.0734 374.767L36.0718 374.768C36.2945 374.16 36.636 373.856 37.0962 373.856C37.1726 373.856 37.2523 373.864 37.3353 373.881L37.3337 373.882C52.1843 380.232 60.3158 384.028 61.7279 385.27L61.7261 385.271C61.736 385.299 61.7472 385.328 61.7596 385.357C61.8928 385.665 62.1521 385.901 62.4714 386.005C63.3002 386.274 64.017 386.409 64.6217 386.409C65.0199 386.409 65.3695 386.35 65.6706 386.234C66.1646 386.041 66.5304 385.72 66.7677 385.266C66.879 385.053 66.9221 384.811 66.891 384.573C63.9014 361.674 63.9146 339.974 66.9304 319.472L66.9323 319.473C69.2185 319.803 75.9625 322.856 87.1644 328.633C87.2218 328.663 87.2813 328.688 87.3428 328.707C94.1746 330.9 98.7056 331.997 100.936 331.997C101.386 331.997 101.743 331.952 102.006 331.863C102.58 331.666 102.95 331.312 103.115 330.798C103.23 330.441 103.216 330.068 103.075 329.678L103.072 329.679C102.417 319.07 108.095 297.756 120.107 265.737L120.109 265.737L140.208 280.415C140.411 280.564 140.653 280.64 140.897 280.64C141.059 280.64 141.221 280.606 141.374 280.538C141.756 280.367 142.018 280.005 142.06 279.588C144.617 254.131 152.38 238.414 165.351 232.437L165.354 232.438L185.995 262.864L186.056 262.947C187.878 265.181 189.555 266.298 191.087 266.298C191.639 266.298 192.172 266.153 192.686 265.863C192.82 265.787 192.938 265.686 193.033 265.565L234.271 212.862L234.275 212.863C237.127 214.495 245.129 225.634 258.283 246.28C258.503 246.624 258.879 246.82 259.269 246.82C259.405 246.82 259.542 246.797 259.675 246.747C260.191 246.556 260.504 246.03 260.425 245.485C259.933 242.07 273.48 228.107 301.066 203.597L301.071 203.598C305.73 216.85 314.134 231.429 326.282 247.335C326.503 247.625 326.846 247.794 327.21 247.794L327.221 247.795C327.588 247.791 327.933 247.615 328.151 247.319C332.784 241.034 349.428 229.976 378.085 214.144L378.09 214.145C387.103 228.179 394.182 244.477 399.328 263.042C399.428 263.403 399.695 263.694 400.046 263.825C400.178 263.874 400.317 263.898 400.454 263.898C400.681 263.898 400.907 263.832 401.101 263.703C418.873 251.908 434.589 244.98 448.249 242.917L448.254 242.918L471.294 298.309C471.428 298.631 471.699 298.876 472.032 298.977C472.144 299.012 472.259 299.028 472.373 299.028C472.6 299.028 472.824 298.962 473.018 298.835C481.488 293.234 495.107 290.036 513.874 289.241L513.881 289.242C515.561 294.405 517.737 310.937 520.409 338.839L520.403 338.84C520.275 339.525 520.524 340.102 521.151 340.569C521.4 340.754 521.712 340.909 522.089 341.032C523.001 341.33 524.518 341.48 526.64 341.48C530.07 341.48 535.079 341.09 541.668 340.31L541.675 340.311L557.333 343.198L557.326 343.199C556.166 366.783 554.03 382.577 550.917 390.58C550.79 390.908 550.817 391.276 550.991 391.582C551.165 391.888 551.468 392.099 551.816 392.156C566.444 394.573 574.45 396.545 575.833 398.074L575.826 398.075C575.322 409.011 568.036 419.251 553.968 428.795C553.434 429.158 553.295 429.884 553.657 430.418C553.883 430.751 554.251 430.931 554.625 430.931C554.851 430.931 555.079 430.866 555.28 430.729C570.17 420.628 577.802 409.64 578.177 397.765C578.183 397.576 578.143 397.389 578.061 397.219C578.034 397.163 578.005 397.108 577.972 397.054C576.721 394.942 568.594 392.618 553.592 390.083L553.585 390.084C556.568 381.378 558.609 365.446 559.71 342.289C559.738 341.705 559.329 341.19 558.754 341.084L541.922 337.979C541.852 337.966 541.781 337.96 541.71 337.96C541.664 337.96 541.618 337.963 541.572 337.968C534.83 338.77 529.833 339.171 526.583 339.171C524.804 339.171 523.549 339.051 522.815 338.811C522.796 338.804 522.777 338.798 522.759 338.792L522.753 338.793C519.903 309.003 517.573 291.935 515.764 287.59C515.582 287.153 515.155 286.87 514.685 286.87C514.67 286.87 514.655 286.87 514.64 286.871C495.844 287.589 481.937 290.676 472.92 296.132L450.064 241.181C449.881 240.741 449.452 240.462 448.986 240.462C448.933 240.462 448.88 240.465 448.827 240.472C434.951 242.364 419.058 249.165 401.147 260.874C395.86 242.314 388.63 226.007 379.456 211.954C379.233 211.612 378.859 211.424 378.477 211.424C378.285 211.424 378.092 211.471 377.913 211.569C350.079 226.907 333.189 237.962 327.241 244.734C315.229 228.826 307.055 214.31 302.718 201.187C302.595 200.814 302.292 200.527 301.913 200.425C301.812 200.398 301.71 200.385 301.609 200.385Z" fill="black"/>
<path d="M606.064 380.302C606.055 380.302 606.047 380.302 606.038 380.302C605.54 380.308 604.92 380.487 604.178 380.842C604.084 380.887 603.996 380.945 603.916 381.013C599.218 385.082 591.395 390.19 580.446 396.335H580.439C580.403 396.352 580.366 396.371 580.329 396.391C579.737 396.717 578.123 398.11 575.488 400.57C575.016 401.011 574.991 401.75 575.431 402.222C575.661 402.468 575.973 402.593 576.286 402.593C576.571 402.593 576.858 402.489 577.083 402.279C579.512 400.011 580.958 398.737 581.421 398.459H581.414C581.464 398.439 581.514 398.416 581.561 398.389C592.466 392.27 600.342 387.14 605.188 383.002H605.196C603.865 386.637 602.909 389.519 602.329 391.647L602.325 391.661C596.99 412.205 592.481 428.065 588.798 439.241H588.791C586.093 445.01 583.035 450.654 579.618 456.172H579.614C579.598 456.196 579.582 456.221 579.566 456.246C579.136 456.943 577.783 460.484 575.505 466.868H575.498L567.827 480.341L567.772 480.449C566.696 482.902 562.737 488.086 555.897 496.004C551.541 500.861 548.352 504.06 546.331 505.6L559.416 479.166L559.451 479.089L568.894 455.998H568.9C573.633 447.088 576.265 441.801 576.795 440.135H576.788C577.685 438.114 578.764 434.809 580.027 430.221L580.043 430.156C580.108 429.85 580.133 429.566 580.115 429.304L580.115 429.302C580.113 429.276 580.111 429.25 580.109 429.224C580.016 428.303 579.519 427.737 578.618 427.527C578.424 427.482 578.215 427.459 577.989 427.459C577.91 427.459 577.83 427.462 577.748 427.467H577.747C566.162 428.144 559.775 428.708 558.584 429.157C558.533 429.176 558.486 429.196 558.442 429.217C557.857 429.489 557.604 430.184 557.876 430.769C558.074 431.194 558.496 431.444 558.936 431.444C559.095 431.444 559.256 431.412 559.41 431.344C560.374 430.98 566.473 430.469 577.708 429.811H577.715C576.505 434.19 575.482 437.321 574.645 439.204C574.621 439.256 574.602 439.31 574.587 439.366C574.217 440.694 571.615 445.908 566.78 455.007L566.73 455.113L557.303 478.167L543.076 506.905C542.914 507.233 542.915 507.617 543.078 507.945C543.402 508.596 543.922 508.922 544.637 508.922C544.721 508.922 544.808 508.918 544.898 508.909C545.256 508.872 545.652 508.746 546.087 508.53C548.156 507.499 552.011 503.838 557.652 497.548L557.666 497.531C564.566 489.545 568.632 484.2 569.864 481.497H569.858L577.599 467.903C577.633 467.843 577.661 467.781 577.684 467.717C579.861 461.613 581.142 458.215 581.526 457.523H581.519C581.55 457.485 581.579 457.445 581.605 457.403C585.093 451.77 588.213 446.007 590.962 440.115C590.982 440.073 590.999 440.03 591.013 439.986C594.712 428.765 599.236 412.856 604.584 392.262C605.192 390.032 606.234 386.923 607.711 382.935C607.731 382.882 607.747 382.826 607.758 382.77C607.818 382.487 607.842 382.227 607.831 381.99C607.786 381.072 607.338 380.524 606.488 380.344C606.353 380.316 606.212 380.302 606.064 380.302Z" fill="black"/>
<path d="M532.038 434.857C531.594 434.857 531.17 435.112 530.974 435.542C527.18 443.877 523.591 450.613 520.207 455.751C520.176 455.798 520.149 455.847 520.125 455.898L515.796 465.137H515.789C512.506 469.994 509.983 474.382 508.221 478.303H508.214L505.304 482.681L505.255 482.762L494.388 502.398C493.672 503.625 493.015 504.67 492.417 505.532C493.504 502.159 494.605 498.328 495.721 494.039L495.737 493.973C498.332 481.953 500.521 472.777 502.305 466.444H502.298C505.258 459.226 507.389 455.33 508.692 454.755C509.282 454.495 509.55 453.805 509.289 453.215C509.096 452.777 508.668 452.517 508.219 452.517C508.062 452.517 507.902 452.549 507.748 452.617C505.871 453.445 503.331 457.763 500.13 465.571C500.114 465.612 500.099 465.653 500.087 465.696C498.285 472.079 496.073 481.34 493.452 493.48H493.451C492.201 498.283 490.972 502.5 489.761 506.13C489.742 506.189 489.727 506.249 489.717 506.31C489.57 507.198 489.557 507.883 489.676 508.366C489.857 509.1 490.282 509.523 490.951 509.633C491.036 509.647 491.122 509.654 491.209 509.654C491.445 509.654 491.688 509.602 491.936 509.496C492.078 509.436 492.224 509.357 492.373 509.26C492.452 509.209 492.524 509.149 492.588 509.08C493.661 507.94 494.938 506.097 496.42 503.552L496.432 503.53L507.277 483.935L510.234 479.487C510.269 479.434 510.301 479.377 510.327 479.318C512.048 475.478 514.538 471.152 517.797 466.341C517.831 466.29 517.862 466.237 517.888 466.181L522.19 457H522.183C525.626 451.766 529.266 444.936 533.101 436.51C533.368 435.923 533.109 435.23 532.522 434.963C532.365 434.891 532.2 434.857 532.038 434.857Z" fill="black"/>
<path d="M84.5224 497.103C84.5367 497.111 84.5511 497.12 84.5656 497.129C84.5515 497.12 84.5373 497.112 84.523 497.104H84.5209C84.5207 497.103 84.5205 497.103 84.5203 497.103H84.5224ZM60.8225 430.34C60.7737 430.34 60.7243 430.343 60.6746 430.349C60.0343 430.43 59.5808 431.015 59.6617 431.655C60.028 434.554 60.9079 438.045 62.3013 442.129L62.3261 442.195C64.0811 446.475 65.7414 450.895 67.307 455.457L67.3383 455.538C71.174 464.484 73.7187 470.619 74.9723 473.942L74.9762 473.953C75.8622 476.236 77.7337 482.637 80.5907 493.157L80.6079 493.214C81.6113 496.277 82.3288 498.104 82.7605 498.696C83.0692 499.12 83.4253 499.333 83.8288 499.337H83.8267C83.9251 499.363 84.0211 499.375 84.1146 499.375C84.5272 499.375 84.8915 499.126 85.2074 498.629C85.2426 498.573 85.2761 498.514 85.308 498.451C85.6567 497.76 85.9429 496.029 86.1659 493.26L86.1693 493.196C86.8211 467.593 87.9274 449.967 89.4881 440.32C89.5911 439.683 89.1582 439.083 88.5211 438.98C88.4579 438.97 88.3951 438.965 88.3331 438.965C87.7698 438.965 87.2737 439.373 87.1808 439.947C85.6034 449.698 84.4874 467.428 83.8329 493.137H83.8311C83.7756 493.821 83.7196 494.425 83.663 494.949C83.4268 494.282 83.1551 493.481 82.8479 492.544H82.8462C79.9719 481.961 78.0762 475.485 77.1591 473.117C75.8965 469.77 73.3479 463.625 69.5134 454.68H69.5114C67.9405 450.104 66.2744 445.667 64.5132 441.369H64.5113C63.1704 437.438 62.3267 434.103 61.9805 431.362C61.9059 430.772 61.4027 430.34 60.8225 430.34Z" fill="black"/>
<path d="M3.5172 362.783C2.82277 362.783 2.25588 362.868 1.81653 363.039H1.81527C1.25481 363.186 0.853644 363.557 0.611768 364.151C0.331054 364.84 0.327367 365.916 0.600644 367.378C0.659518 367.693 0.731099 368.03 0.815389 368.389L0.817983 368.4C1.38321 370.709 2.05288 372.927 2.82697 375.055L2.85423 375.123C5.42717 381.015 7.72163 387.013 9.73759 393.116L21.2732 430.463L21.2958 430.529C27.4784 446.988 31.9343 459.28 34.6634 467.406C34.6853 467.471 34.7129 467.534 34.7465 467.595C35.1725 468.384 36.2963 473.149 38.1177 481.892C38.2282 482.422 38.6887 482.807 39.2306 482.822C39.2453 482.822 39.26 482.822 39.2745 482.822C39.8578 482.822 40.2629 482.505 40.4897 481.871C40.6646 481.382 40.8243 480.234 40.9688 478.429L44.8383 431.865C44.8446 431.789 44.8434 431.712 44.8347 431.636C44.7683 430.725 45.787 425.984 47.8909 417.413C48.0448 416.786 47.6614 416.153 47.0346 416C46.941 415.977 46.8474 415.966 46.7551 415.966C46.2296 415.966 45.752 416.323 45.6211 416.856C43.475 425.598 42.4352 430.573 42.5018 431.779H42.5002L38.9424 474.592C37.9463 470.121 37.2523 467.457 36.8603 466.601H36.8587C34.1223 458.459 29.6709 446.179 23.5044 429.762H23.5029L11.9638 392.405L11.9569 392.383C9.92421 386.229 7.61149 380.181 5.01872 374.24H5.01744C4.27603 372.199 3.63381 370.071 3.09079 367.855C3.01469 367.531 2.95041 367.229 2.8981 366.949C2.73927 366.099 2.68515 365.512 2.73574 365.189H2.73447C2.9345 365.119 3.20496 365.083 3.54585 365.083C4.4598 365.083 5.88 365.337 7.80644 365.844C7.90384 365.87 8.00382 365.882 8.10389 365.882C8.17725 365.882 8.25067 365.875 8.32312 365.862H8.32181C8.34448 365.86 8.36833 365.859 8.39335 365.859C10.1038 365.859 17.3042 369.4 29.9946 376.481L30.0802 376.524C32.4295 377.593 34.7213 378.271 36.9557 378.559L36.9605 378.559H36.9589C37.0088 378.565 37.0583 378.568 37.1074 378.568C37.6862 378.568 38.1889 378.138 38.2649 377.549C38.3472 376.91 37.8963 376.324 37.1086 376.231H37.1102L37.2545 376.241C35.2685 375.985 33.2169 375.378 31.0997 374.42H31.0982C18.0812 367.158 10.471 363.527 8.26764 363.527C8.241 363.527 8.21517 363.527 8.19012 363.529C6.26062 363.032 4.70298 362.783 3.5172 362.783Z" fill="black"/>
<path d="M68.8276 199.632C68.2719 199.632 67.7791 200.03 67.6784 200.596C67.5654 201.231 67.9889 201.838 68.6243 201.951C70.4129 202.269 71.2893 204.346 71.2536 208.182L71.2537 208.212C71.3232 212.509 71.2239 216.328 70.9556 219.668L70.9554 219.671C70.2847 228.257 69.488 237.381 68.5655 247.041L68.5641 247.057C68.4462 248.501 68.359 249.929 68.3026 251.342L68.3024 251.346C68.0513 258.276 67.9399 263.027 67.9684 265.601C67.926 276.496 68.0386 283.323 68.3065 286.081C69.4587 298.979 70.5642 308.064 71.6231 313.336C72.3409 317.245 73.6772 320.368 75.6322 322.705C75.8634 322.981 76.1951 323.124 76.5293 323.124C76.7937 323.124 77.0597 323.035 77.2784 322.852C77.7734 322.438 77.8391 321.701 77.425 321.206C75.7302 319.179 74.5613 316.409 73.9183 312.895L73.9145 312.876C72.8722 307.686 71.7786 298.682 70.6336 285.864L70.6328 285.855C70.3723 283.173 70.2632 276.419 70.3056 265.592L70.3055 265.575C70.2774 263.039 70.3882 258.326 70.638 251.435C70.6929 250.06 70.7776 248.669 70.8923 247.264C71.8159 237.591 72.6135 228.455 73.2854 219.855C73.559 216.448 73.6609 212.564 73.5911 208.204C73.639 203.05 72.1196 200.199 69.0336 199.65C68.9644 199.638 68.8955 199.632 68.8276 199.632Z" fill="black"/>
<path d="M102.639 194.602L102.433 194.789L100.355 196.471C100.436 199.053 100.508 200.916 100.573 202.06C100.652 203.319 100.758 204.541 100.89 205.726C101.124 207.826 101.527 210.808 102.097 214.672C102.305 216.461 102.464 218.018 102.575 219.343C102.661 220.308 102.744 221.548 102.823 223.063C103.027 229.527 103.225 234.156 103.417 236.948L105.564 261.027C105.788 265.118 105.912 268.348 105.934 270.716L105.982 290.879C106.032 292.444 106.253 295.109 106.645 298.872C106.66 299.237 106.665 299.584 106.659 299.914C106.664 300.118 106.634 300.556 106.57 301.229L106.582 301.384C106.885 302.362 107.527 302.599 108.51 302.094C108.866 302.036 109.028 301.116 108.996 299.333L108.97 298.63L108.518 293.915C108.41 292.617 108.343 291.594 108.319 290.845L108.271 270.679C108.227 267.898 108.123 265.001 107.959 261.988L107.891 260.818L105.746 236.761C105.558 234.004 105.362 229.4 105.157 222.95C105.102 221.822 105.03 220.694 104.938 219.566C104.791 217.785 104.616 216.051 104.414 214.362C103.871 210.775 103.436 207.484 103.109 204.488C102.973 202.989 102.898 202.03 102.884 201.614C102.815 200.256 102.733 197.919 102.639 194.602Z" fill="black"/>
<path d="M538.917 207.846C538.804 207.846 538.689 207.862 538.576 207.897C537.958 208.085 537.61 208.738 537.798 209.355C539.87 216.157 540.772 220.997 540.504 223.874L540.499 223.972C540.495 224.538 540.42 225.579 540.276 227.095L538.992 237.633L538.985 237.719C538.704 243.618 538.468 247.236 538.276 248.572C538.269 248.618 538.265 248.665 538.264 248.712C538.235 249.31 537.549 254.032 536.207 262.879C533.381 279.228 530.846 291.405 528.603 299.411C526.391 306.377 523.653 313.634 520.391 321.184C520.135 321.776 520.408 322.464 521 322.72C521.151 322.786 521.309 322.816 521.463 322.816C521.915 322.816 522.346 322.552 522.537 322.111C525.835 314.476 528.604 307.132 530.842 300.08L530.853 300.042C533.119 291.955 535.673 279.692 538.514 263.254L538.518 263.23C539.823 254.63 540.514 249.855 540.593 248.905H540.589C540.791 247.502 541.033 243.839 541.315 237.915H541.312L542.6 227.346L542.603 227.315C542.746 225.811 542.823 224.736 542.835 224.09H542.832C543.128 220.908 542.195 215.77 540.034 208.674C539.881 208.17 539.417 207.846 538.917 207.846Z" fill="black"/>
<path d="M574.745 202.199C574.743 202.199 574.74 202.199 574.738 202.199C574.093 202.203 573.572 202.729 573.576 203.374C573.63 212.907 573.412 219.205 572.92 222.269L572.915 222.307L570.378 242.317C570.119 244.24 569.483 247.876 568.471 253.226L568.47 253.229L568.457 253.315C568.134 256.111 567.32 261.82 566.015 270.444C565.592 273.091 565.109 275.775 564.565 278.498L564.564 278.506L564.563 278.509L564.56 278.528C562.998 287.416 560.131 298.331 555.958 311.273L555.933 311.359C555.147 314.64 552.435 321.786 547.797 332.796C547.546 333.391 547.826 334.076 548.42 334.327C548.569 334.389 548.722 334.419 548.873 334.419C549.33 334.419 549.763 334.15 549.951 333.703C554.599 322.669 557.344 315.431 558.185 311.99H558.182C562.385 298.955 565.277 287.942 566.858 278.951L566.859 278.948C567.408 276.195 567.897 273.48 568.325 270.803L568.326 270.794C569.623 262.22 570.438 256.509 570.77 253.66H570.767C571.789 248.261 572.431 244.581 572.695 242.62L572.696 242.611L575.234 222.601C575.741 219.397 575.968 212.984 575.913 203.361C575.91 202.718 575.387 202.199 574.745 202.199Z" fill="black"/>
<path d="M83.0159 204.622C82.974 204.625 82.9323 204.627 82.8906 204.63L82.8927 204.631C82.9633 204.952 83.0324 205.268 83.1002 205.579C83.1177 205.449 83.1348 205.321 83.1514 205.197L83.1535 205.198C83.1102 205.011 83.065 204.819 83.0179 204.622H83.0159Z" fill="black"/>
<path d="M45.1152 131.56C45.0297 131.56 44.9429 131.569 44.8559 131.589C44.2265 131.731 43.8318 132.357 43.9745 132.987C44.2716 134.298 44.4476 135.469 44.5023 136.499L44.5011 136.5C44.5355 141.621 44.6932 145.579 44.9742 148.375C45.4067 152.922 45.8093 156.146 46.1823 158.047L46.184 158.056C48.7857 170.8 50.9845 178.681 52.7803 181.698L52.7786 181.699C53.2497 183.23 57.3957 188.819 65.2166 198.466L65.2163 198.467C66.8347 200.54 68.4221 202.185 69.9786 203.405L69.9766 203.406C72.2307 205.818 75.8968 207.024 80.9748 207.024C80.9899 207.024 81.0049 207.024 81.02 207.024L81.022 207.025C80.861 206.28 80.691 205.501 80.5121 204.687L80.5141 204.688C76.32 204.627 73.3584 203.648 71.6295 201.75C71.5843 201.7 71.5349 201.655 71.482 201.614C70.0524 200.505 68.5737 198.971 67.0458 197.012L67.0321 196.994C59.4043 187.586 55.4019 182.272 55.0247 181.053L55.0231 181.054C54.9981 180.898 54.9424 180.751 54.8593 180.619C53.1962 177.969 51.0684 170.295 48.4758 157.597C48.1176 155.77 47.7257 152.621 47.3004 148.148L47.2997 148.141C47.025 145.408 46.871 141.504 46.8379 136.429L46.8363 136.375C46.7744 135.212 46.5803 133.911 46.2539 132.47C46.1309 131.928 45.649 131.56 45.1152 131.56Z" fill="black"/>
<path d="M123.976 106.017L123.911 106.018C122.312 106.393 120.153 107.874 117.435 110.459C112.295 115.742 108.024 120.699 104.624 125.33C97.3415 135.129 90.7558 145.993 84.8668 157.92C84.7929 158.727 84.9883 159.2 85.4532 159.34C85.9292 159.593 86.4119 159.481 86.9014 159.005C91.8987 148.767 98.0984 138.436 105.5 128.012C112.207 118.889 118.225 112.379 123.553 108.483L122.44 115.022L122.154 123.498C121.246 131.17 120.574 139.298 120.14 147.882C118.324 160.982 116.771 169.365 115.479 173.031C114.466 176.338 113.584 178.693 112.832 180.095C110.219 184.942 107.853 188.349 105.736 190.316C105.877 190.67 105.845 191.026 105.64 191.383C104.321 193.051 102.757 194.619 100.948 196.087C100.35 196.596 99.7838 196.73 99.2494 196.49L94.9664 200.224L94.5578 201.029C94.5975 201.723 94.627 202.565 94.6462 203.557C101.698 197.541 106.589 193.024 109.318 190.005C113.143 184.895 115.777 180.045 117.22 175.454C119.037 169.966 120.785 160.85 122.465 148.107C122.91 139.423 123.585 131.253 124.489 123.597L124.769 115.245L125.996 108.001C125.962 106.866 125.288 106.205 123.976 106.017Z" fill="black"/>
<path d="M84.2095 156.026L84.8255 154.794C85.1141 154.216 85.8161 153.982 86.3933 154.271C86.9706 154.56 87.2046 155.262 86.916 155.839L86.3001 157.071C86.0114 157.648 85.3095 157.882 84.7322 157.594C84.155 157.305 83.9209 156.603 84.2095 156.026Z" fill="black"/>
<path d="M54.9132 104.584C54.6739 104.584 54.4324 104.631 54.1889 104.726C52.4188 105.412 49.5029 110.115 45.4412 118.836H45.4395C45.4265 118.862 45.4138 118.888 45.4015 118.915C44.8839 120.048 44.365 124.979 43.8448 133.708C43.6991 135.768 43.8043 138.161 44.1605 140.888C44.2374 141.477 44.7397 141.906 45.3178 141.906C45.3682 141.906 45.4193 141.902 45.4706 141.896C46.1106 141.812 46.5617 141.225 46.478 140.586C46.1414 138.008 46.041 135.767 46.1769 133.861L46.1778 133.847C46.6768 125.476 47.1234 120.829 47.5177 119.908H47.5158L47.5598 119.823C50.6427 113.204 52.8647 109.12 54.2259 107.572H54.2277C55.4019 111.783 56.6938 114.766 58.1036 116.52L58.1043 116.521L77.4244 140.512H77.4224C79.368 143.391 81.3047 148.061 83.2325 154.521C83.2475 154.572 83.266 154.621 83.2878 154.669C83.7778 155.751 84.5674 156.502 85.6564 156.921C85.7944 156.974 85.9362 156.999 86.0757 156.999C86.5452 156.999 86.988 156.714 87.1667 156.25C87.3984 155.647 87.098 154.971 86.4956 154.739C86.028 154.559 85.6803 154.24 85.4525 153.78H85.4504C83.4483 147.085 81.404 142.206 79.3175 139.142L79.2618 139.067L59.9247 115.055C58.5619 113.359 57.2819 110.162 56.0848 105.465C55.9593 104.973 55.5301 104.618 55.0231 104.587C54.9865 104.585 54.9499 104.584 54.9132 104.584Z" fill="black"/>
<path d="M574.236 97.0879C573.873 97.0879 573.517 97.1937 573.168 97.4052C572.979 97.5201 572.799 97.666 572.629 97.8429C572.501 97.976 572.378 98.1274 572.259 98.2972C572.232 98.3362 572.207 98.377 572.185 98.419L564.966 112.045C564.945 112.085 564.926 112.126 564.909 112.169L551.842 145.822L551.817 145.894L548.729 155.712H548.727C548.682 155.83 548.638 155.941 548.595 156.045C546.014 149.172 542.258 143.571 537.327 139.243L537.303 139.223L520.498 125.234C520.463 125.205 520.426 125.178 520.388 125.154C506.318 115.986 498.647 110.299 497.377 108.091C497.297 107.953 497.189 107.832 497.06 107.736C496.619 107.408 496.197 107.199 495.795 107.109C495.615 107.068 495.442 107.048 495.278 107.048C494.679 107.048 494.182 107.315 493.786 107.849C493.77 107.87 493.756 107.89 493.742 107.909L493.741 107.911C493.686 107.991 493.634 108.076 493.586 108.167C493.487 108.355 493.441 108.567 493.453 108.78C494.549 127.661 499.687 151.09 508.867 179.068L508.882 179.108C509.581 181.002 510.556 183.197 511.807 185.695C511.827 185.734 511.848 185.771 511.872 185.808L522.766 202.605H522.76C522.99 203.021 523.257 203.425 523.561 203.817H523.554C525.456 206.573 528.038 209.009 531.3 211.125C531.497 211.252 531.717 211.313 531.935 211.313C532.318 211.313 532.693 211.125 532.916 210.78C533.151 210.418 533.16 209.975 532.979 209.616H532.985C537.216 211.048 542.633 212.099 549.237 212.767C549.276 212.771 549.315 212.773 549.354 212.773C549.454 212.773 549.554 212.76 549.651 212.735C549.707 212.72 549.764 212.705 549.82 212.69H549.827L549.248 211.078C549.082 211.062 548.869 210.82 548.61 210.353H548.617C536.249 209.02 528.534 206.395 525.472 202.477H525.469L513.896 184.634H513.89C512.69 182.237 511.756 180.139 511.089 178.339C502.19 151.22 497.117 128.439 495.871 109.995H495.877C498.232 112.847 505.968 118.547 519.085 127.094H519.078L535.808 141.019C540.868 145.468 544.62 151.371 547.065 158.728C547.226 159.213 547.678 159.528 548.173 159.528C548.247 159.528 548.322 159.521 548.397 159.506C548.636 159.46 548.865 159.37 549.085 159.237C549.783 158.814 550.4 157.894 550.937 156.476L550.959 156.413L554.035 146.631L567.063 113.079L574.194 99.6185H574.187C574.213 99.5822 574.238 99.5494 574.263 99.5202H574.27C576.458 102.786 579.978 111.691 584.829 126.235H584.822L587.362 143.658H587.355C586.786 171.87 584.907 187.682 581.717 191.093C581.615 191.202 581.535 191.33 581.481 191.469C579.642 196.22 574.901 200.431 567.258 204.101H567.265C567.085 205.046 566.893 205.986 566.688 206.921C575.713 202.85 581.342 198.053 583.576 192.527H583.569C587.083 188.394 589.125 172.074 589.694 143.565C589.696 143.501 589.692 143.437 589.682 143.374L587.115 125.757C587.105 125.689 587.089 125.622 587.067 125.556C582.057 110.534 578.397 101.36 576.086 98.0353C576.042 97.9722 575.992 97.9135 575.936 97.8602C575.662 97.5968 575.378 97.4012 575.083 97.2736C574.796 97.1499 574.514 97.0879 574.236 97.0879Z" fill="black"/>
<path d="M209.177 317.226C209.113 317.291 209.046 317.343 208.976 317.383H208.974C209.046 317.338 209.113 317.285 209.173 317.226H209.177ZM228.302 315.957C229.674 315.957 231.109 316.276 232.607 316.915H232.604C240.225 320.606 244.344 322.928 244.959 323.879C245.001 323.944 245.05 324.006 245.105 324.062C248.067 327.085 249.837 330.502 250.414 334.31H250.412C251.616 347.426 250.507 356.528 247.084 361.616L247.025 361.715C242.412 370.299 235.695 375.005 226.876 375.833L226.833 375.838C225.908 375.959 224.962 376.02 223.996 376.02C217.406 376.02 209.85 373.204 201.327 367.574H201.324C192.387 359.031 188.185 351.646 188.718 345.419C188.722 345.37 188.723 345.32 188.721 345.271C188.582 341.884 189.569 337.693 191.682 332.698H191.681C194.589 326.665 197.705 322.562 201.03 320.39C201.066 320.366 201.1 320.34 201.134 320.313C203.024 318.754 205.466 317.836 208.461 317.557C208.602 317.544 208.737 317.506 208.862 317.445H208.859C209.114 317.404 209.589 317.383 210.285 317.383C210.86 317.383 211.586 317.398 212.462 317.426H212.458C212.444 317.476 212.433 317.528 212.426 317.581C212.334 318.22 212.779 318.811 213.417 318.902C213.62 318.931 213.855 318.946 214.123 318.946C215.478 318.946 217.664 318.575 220.681 317.833H220.684C222.417 317.935 224.336 318.055 226.442 318.193C226.468 318.195 226.493 318.196 226.519 318.196C227.13 318.196 227.644 317.721 227.684 317.103C227.712 316.67 227.5 316.276 227.162 316.052H227.159C227.196 316.041 227.233 316.03 227.27 316.019H227.267C227.608 315.978 227.953 315.957 228.302 315.957ZM228.307 313.619C227.827 313.619 227.351 313.65 226.879 313.712C226.818 313.72 226.757 313.733 226.698 313.751C224.316 314.46 222.247 315.037 220.491 315.483C215.735 315.209 212.343 315.072 210.313 315.072C209.267 315.072 208.582 315.109 208.261 315.182C208.177 315.201 208.097 315.224 208.022 315.252H208.019C204.667 315.599 201.889 316.675 199.684 318.479H199.681C196.02 320.899 192.652 325.3 189.575 331.683L189.552 331.734C187.297 337.052 186.241 341.58 186.384 345.32H186.381C185.834 352.284 190.3 360.287 199.778 369.329C199.827 369.377 199.882 369.42 199.939 369.458C208.892 375.39 216.914 378.356 224.003 378.356C225.058 378.356 226.093 378.291 227.107 378.159H227.103C236.723 377.253 244.035 372.167 249.041 362.9H249.037C252.765 357.341 253.997 347.716 252.733 334.027L252.725 333.96C252.078 329.688 250.12 325.87 246.853 322.506H246.849C245.84 321.157 241.415 318.584 233.574 314.788L233.523 314.764C231.731 314.001 229.993 313.619 228.307 313.619Z" fill="black"/>
<path d="M370.662 316.413C375.493 316.413 378.445 317.269 379.519 318.982C379.74 319.336 380.121 319.531 380.51 319.531C380.722 319.531 380.937 319.473 381.129 319.352C381.635 319.035 381.815 318.395 381.568 317.868H381.573C384.085 319.545 385.639 320.784 386.233 321.585C386.263 321.625 386.295 321.664 386.33 321.7C388.327 323.774 389.782 326.279 390.696 329.215C393.898 341.034 393.272 350.818 388.82 358.567L388.817 358.572C386.743 362.222 383.629 365.694 379.475 368.988C377.081 370.771 374.352 371.953 371.289 372.534H371.284C371.071 372.537 370.859 372.539 370.648 372.539C361.248 372.539 353.819 369.294 348.363 362.803L348.334 362.771C344.04 358.029 342.035 352.624 342.317 346.554L342.318 346.485C342.208 337.662 344.201 330.798 348.297 325.893L348.299 325.891C352.577 320.743 356.998 317.817 361.563 317.113H361.561C365.106 316.646 368.14 316.413 370.662 316.413ZM375.685 311.648C375.286 311.648 374.898 311.852 374.68 312.219C374.35 312.774 374.531 313.491 375.086 313.821C375.636 314.149 376.166 314.467 376.677 314.776C374.941 314.34 372.8 314.121 370.255 314.121C367.672 314.121 364.672 314.346 361.256 314.796L361.232 314.799C356.074 315.587 351.164 318.786 346.502 324.397C342.037 329.744 339.863 337.116 339.981 346.515H339.979C339.685 353.198 341.893 359.14 346.602 364.339C352.523 371.364 360.535 374.876 370.64 374.876C370.901 374.876 371.164 374.874 371.428 374.869C371.493 374.868 371.557 374.861 371.62 374.85C375.091 374.206 378.185 372.87 380.9 370.84L380.927 370.819C385.317 367.338 388.623 363.642 390.847 359.731C395.626 351.413 396.323 341.023 392.94 328.561L392.928 328.52C391.915 325.269 390.302 322.481 388.088 320.156H388.083C386.864 318.551 382.93 315.77 376.281 311.813C376.094 311.701 375.888 311.648 375.685 311.648Z" fill="black"/>
<path d="M221.865 335.425C221.782 335.437 221.699 335.449 221.615 335.461L221.49 335.478C221.406 335.489 221.323 335.499 221.239 335.509C221.071 335.528 220.903 335.545 220.735 335.56C220.901 335.506 220.978 335.481 220.966 335.483C221.099 335.476 221.231 335.468 221.364 335.46C221.43 335.456 221.497 335.451 221.563 335.447L221.865 335.425ZM220.805 314.971L220.414 314.98C219.383 315.027 218.437 315.266 217.577 315.696C215.607 315.596 214.02 315.776 212.816 316.237C212.081 316.45 211.264 316.969 210.365 317.795C208.881 318.283 207.723 318.845 206.894 319.481L204.631 321.441C203.886 322.224 203.396 322.833 203.161 323.269C201.918 325.01 201.232 326.762 201.104 328.526C201.008 329.372 201.292 330.239 201.956 331.128C202.25 331.53 202.61 331.917 203.035 332.29L203.721 332.836C204.21 333.193 204.765 333.535 205.386 333.862L209.603 335.94C211.14 336.552 212.359 336.966 213.259 337.18C215.458 337.766 217.664 338.025 219.874 337.956C221.831 337.886 223.741 337.539 225.604 336.914C226.529 336.483 227.285 335.98 227.872 335.406C228.924 334.298 229.586 333.392 229.859 332.688C230.864 332.086 231.636 331.245 232.176 330.163C232.785 329.047 233.092 327.952 233.096 326.881C233.688 325.949 234.025 325.075 234.106 324.258C234.147 323.85 234.124 323.457 234.037 323.078L233.858 322.52C233.707 322.156 233.493 321.806 233.214 321.47C232.447 320.599 231.869 320.028 231.48 319.757L228.847 317.85C228.048 317.326 227.045 316.898 225.837 316.568C225.502 316.229 225.056 315.918 224.499 315.635C223.431 315.241 222.2 315.02 220.805 314.971Z" fill="black"/>
<path d="M369.687 323.002L369.689 323.006L369.71 323.038H369.707L369.687 323.025H369.682C369.682 323.019 369.682 323.012 369.682 323.002H369.687ZM366.943 312.618L366.853 312.619C365.112 312.712 363.886 312.923 363.176 313.251L362.475 313.529C361.551 313.932 360.671 314.47 359.835 315.141C357.651 314.887 356.004 315.349 354.892 316.528C354.339 317.072 353.993 317.654 353.852 318.273C353.711 318.893 353.775 319.55 354.046 320.244C352.996 322.19 352.621 324.007 352.92 325.695C353.015 326.262 353.412 326.912 354.111 327.646C354.216 328.239 354.42 328.827 354.724 329.41C355.056 330.031 355.425 330.573 355.831 331.034C356.382 331.652 356.76 332.015 356.965 332.126C357.816 332.542 358.841 332.939 360.04 333.319C360.059 333.862 360.174 334.343 360.384 334.76C360.489 335.108 360.894 335.53 361.6 336.026C362.521 336.436 363.367 336.565 364.14 336.412C364.763 336.75 365.712 337.055 366.987 337.328C368.298 337.488 369.745 337.575 371.329 337.589C373.346 337.589 375.083 337.391 376.54 336.995L377.579 336.66C378.237 336.412 378.825 336.115 379.343 335.768C379.861 335.421 380.308 335.025 380.686 334.579C382.127 332.979 383.224 331.21 383.977 329.27C384.253 328.667 384.373 328.142 384.339 327.696C384.76 326.735 384.969 326.148 384.964 325.935C385.132 325.126 385.153 324.283 385.026 323.404C384.978 323.005 384.863 322.517 384.683 321.94L384.271 321.112C383.963 320.578 383.588 320.079 383.145 319.616C381.82 318.228 379.887 317.161 377.346 316.416C377.041 315.485 376.428 314.749 375.508 314.207C375.132 313.98 374.762 313.828 374.397 313.753C373.886 313.648 373.39 313.689 372.908 313.875C371.13 313.109 369.141 312.69 366.943 312.618Z" fill="black"/>
<path d="M231.781 319.966L231.987 320.004C232.248 320.068 232.451 320.19 232.597 320.369L232.694 320.514L232.771 320.681L232.825 320.869L232.858 321.078L232.881 321.397L232.887 321.721L232.875 322.053L232.845 322.393L232.798 322.741L232.733 323.097L232.651 323.46L232.552 323.832L232.434 324.211L232.465 323.734L232.475 323.268L232.465 322.814L232.434 322.372L232.382 321.942L232.31 321.523L232.217 321.116L232.104 320.72L231.951 320.288L231.911 320.206L231.777 319.966H231.781ZM214.222 324.855L214.236 324.868C214.273 324.903 214.308 324.938 214.341 324.974H214.339C214.381 325.026 214.41 325.064 214.425 325.087C214.447 325.118 214.468 325.149 214.489 325.181H214.485C214.431 325.339 214.382 325.469 214.34 325.572C214.327 325.462 214.313 325.353 214.295 325.246L214.282 325.167C214.273 325.114 214.263 325.061 214.252 325.009C214.242 324.957 214.231 324.906 214.219 324.855H214.222ZM209.627 322.93L209.698 322.94C209.888 322.97 210.091 323.012 210.306 323.068H210.303L210.428 323.137C210.455 323.154 210.483 323.173 210.51 323.192C210.565 323.23 210.62 323.272 210.674 323.319H210.671L210.702 323.73L210.71 324.135L210.695 324.532L210.658 324.922L210.598 325.306L210.516 325.682L210.411 326.051L210.283 326.414L210.132 326.769C209.848 326.43 209.615 326.083 209.434 325.727C209.343 325.549 209.265 325.369 209.2 325.187L209.113 324.912L209.044 324.633L208.995 324.352H208.992C209.058 324.085 209.104 323.892 209.129 323.776L209.204 323.425L209.228 323.307L209.225 323.308L209.346 323.146L209.509 322.945H209.505L209.627 322.93ZM228.329 324.366L228.277 324.635C228.128 325.366 227.914 326.205 227.632 327.15L227.58 327.105L227.607 326.873L227.648 326.622C227.712 326.276 227.813 325.882 227.951 325.44C228.02 325.219 228.099 324.986 228.187 324.742L228.325 324.366H228.329ZM224.001 325.918L224.004 325.928C224.141 326.345 224.311 326.748 224.514 327.137L224.372 327.367L224.274 327.514C224.207 327.61 224.139 327.703 224.067 327.792C224.044 327.698 224.022 327.599 224.002 327.497C223.966 327.315 223.942 327.181 223.929 327.095L223.925 327.095C223.924 327.009 223.924 326.924 223.926 326.838C223.925 326.795 223.93 326.665 223.943 326.447C223.949 326.36 223.957 326.272 223.966 326.184C223.975 326.096 223.985 326.007 223.998 325.918H224.001ZM201.773 328.693L201.791 328.716C201.838 328.776 201.887 328.835 201.937 328.894H201.934C201.933 328.914 201.932 328.935 201.932 328.955C201.93 329.007 201.929 329.078 201.929 329.168C201.881 329.163 201.826 329.154 201.764 329.139C201.761 329.108 201.759 329.076 201.758 329.044C201.757 329.012 201.756 328.98 201.756 328.947L201.757 328.897C201.758 328.864 201.759 328.83 201.761 328.796L201.765 328.745L201.77 328.693H201.773ZM225.791 329.409C225.794 329.414 225.798 329.421 225.803 329.43L225.799 329.43C225.784 329.434 225.771 329.437 225.762 329.439C225.768 329.431 225.777 329.421 225.787 329.409H225.791ZM218.74 328.684L218.741 328.816C218.75 329.165 218.784 329.509 218.844 329.847C218.468 329.884 218.167 329.907 217.939 329.914C218.076 329.735 218.204 329.554 218.324 329.372C218.384 329.281 218.442 329.19 218.498 329.099L218.58 328.961C218.634 328.869 218.686 328.777 218.736 328.684H218.74ZM228.182 316.272L227.843 316.297C227.391 316.362 226.947 316.558 226.508 316.885C226.07 317.211 225.638 317.668 225.212 318.256C224.412 318.677 223.556 319.359 222.644 320.3C221.289 321.856 220.288 323.368 219.639 324.836C219.55 323.541 219.271 322.47 218.802 321.623C218.354 320.684 217.368 319.676 215.844 318.6C214.272 317.761 212.634 317.218 210.929 316.971C210.087 316.816 209.276 316.777 208.496 316.855C207.99 316.908 207.505 317.015 207.042 317.176L206.363 317.457C205.922 317.671 205.501 317.938 205.102 318.259C204.493 318.768 203.59 319.758 202.392 321.229C201.976 321.802 201.641 322.386 201.388 322.981C201.135 323.576 200.964 324.181 200.873 324.797C200.353 325.532 199.905 326.597 199.529 327.991C199.313 329.258 199.45 330.162 199.941 330.703C200.399 331.265 201.3 331.528 202.645 331.491C202.883 331.791 203.102 332.033 203.302 332.218C203.472 332.758 203.777 333.236 204.216 333.651C204.456 333.957 204.954 334.227 205.711 334.46C206.299 334.597 207 334.544 207.814 334.303C208.169 334.206 208.632 334.008 209.203 333.71C209.52 333.657 209.908 333.54 210.368 333.357C210.983 333.107 211.528 332.781 212.004 332.38C212.257 332.321 212.461 332.265 212.617 332.212C213.587 332.339 214.428 332.297 215.141 332.083C216.629 332.322 218.14 332.328 219.674 332.101C219.862 332.449 220.17 332.88 220.599 333.395C220.691 333.519 220.852 333.631 221.082 333.73C221.752 333.892 222.237 333.698 222.537 333.149C223.252 333.735 223.989 334.014 224.749 333.985C225.478 333.875 226.115 333.649 226.661 333.306C227.524 332.77 228.309 331.905 229.017 330.71C229.371 330.533 229.643 330.368 229.834 330.215C230.52 330.11 231.089 329.936 231.543 329.693C231.695 329.657 232.095 329.338 232.742 328.736C233.956 327.518 234.848 325.718 235.418 323.335C235.708 320.877 235.254 319.136 234.057 318.111C233.588 317.6 232.839 317.106 231.808 316.63C230.888 316.324 230.086 316.307 229.404 316.58C228.901 316.353 228.494 316.251 228.182 316.272Z" fill="black"/>
<path d="M203.35 288.822L203.178 288.83C202.497 288.934 202.117 289.347 202.039 290.07C201.959 290.536 202.401 291.017 203.364 291.514C203.142 291.711 203.012 291.961 202.976 292.262C201.046 291.966 199.956 291.954 199.706 292.225C198.974 292.937 198.994 293.603 199.766 294.226C199.989 294.327 200.129 294.374 200.186 294.366C201.364 294.368 202.241 294.45 202.817 294.613C203.57 294.777 204.375 295.023 205.233 295.35C211.972 298.161 218.572 300.838 225.034 303.383L238.237 309.27L244.72 311.412C247.038 312.341 249.85 313.428 253.155 314.672C254.329 315.139 254.887 315.322 254.83 315.222C255.986 314.915 256.27 314.259 255.682 313.252C255.647 313.089 253.982 312.366 250.689 311.085C250.558 310.617 250.321 310.297 249.977 310.126L239.216 305.446C230.349 300.837 221.805 296.6 213.581 292.734C210.435 291.321 207.96 290.264 206.157 289.562C205.273 289.17 204.338 288.923 203.35 288.822Z" fill="black"/>
<path d="M388.211 291.833L388.18 291.833C386.958 292.019 385.828 292.276 384.79 292.605C381.88 293.757 376.78 295.527 369.492 297.917C358.478 300.786 351.078 303.001 347.291 304.562C344.498 305.997 342.907 307.134 342.517 307.971C342.103 309.307 342.62 310.08 344.066 310.29C345.064 310.1 345.405 309.527 345.09 308.569C346.957 307.298 348.226 306.579 348.895 306.415C349.181 306.901 349.561 307.12 350.034 307.074C352.251 306.782 353.416 306.598 353.529 306.522C356.233 305.863 357.731 305.489 358.022 305.401L359.589 304.938L378.382 299.907L388.101 297.61C388.531 297.43 388.793 297.168 388.886 296.825C389.16 296.789 389.464 296.64 389.798 296.376C390.04 296.164 390.168 295.92 390.182 295.644C390.179 294.66 389.518 294.175 388.2 294.188C388.955 294.078 389.348 293.674 389.378 292.976C389.346 292.326 388.957 291.945 388.211 291.833Z" fill="black"/>
<path d="M292.436 427.954L292.21 427.973C292.067 427.997 291.941 428.043 291.831 428.113L291.679 428.233C291.586 428.325 291.509 428.44 291.448 428.576C291.387 428.713 291.343 428.873 291.315 429.055C291.276 429.18 291.276 429.442 291.313 429.84C291.41 430.197 291.489 430.394 291.55 430.429C291.629 430.538 291.725 430.631 291.839 430.709C292.057 430.86 292.363 430.961 292.756 431.011C293.105 431.046 293.464 431.003 293.833 430.883C294.018 430.823 294.206 430.744 294.396 430.645L294.684 430.482L294.665 430.494L294.77 430.425C294.907 430.33 295.039 430.224 295.165 430.108C295.29 429.991 295.409 429.865 295.523 429.727L295.482 429.779C295.868 429.266 296.113 428.865 296.218 428.576C296.313 428.225 296.333 427.838 296.276 427.415C296.251 427.3 296.213 427.199 296.162 427.111L295.763 426.67C295.815 426.737 295.855 426.778 295.884 426.793C295.803 426.705 295.349 426.586 294.521 426.436L294.588 426.446C294.447 426.43 294.309 426.419 294.173 426.413C294.038 426.407 293.904 426.405 293.773 426.408C293.705 426.404 293.514 426.419 293.2 426.453C292.469 426.514 291.865 426.784 291.389 427.263C291.039 427.594 290.703 428.033 290.381 428.581L290.445 428.455C290.193 429.076 290.065 429.427 290.06 429.506C290.002 429.712 289.963 429.899 289.943 430.067C289.903 430.403 289.938 430.664 290.048 430.85C290.031 430.82 290.023 430.808 290.024 430.813C290.04 430.829 290.099 430.843 290.203 430.854L290.103 430.85C290.256 430.872 290.392 430.877 290.509 430.863C290.531 430.868 290.683 430.838 290.963 430.772L291.862 430.494L291.795 430.52C291.98 430.443 292.155 430.355 292.321 430.255C292.928 429.934 293.41 429.398 293.769 428.648L293.666 428.958L293.697 428.73C293.721 429.023 293.786 429.21 293.892 429.291C294 429.414 294.153 429.517 294.35 429.598C294.113 429.498 293.927 429.337 293.794 429.117C293.844 429.196 293.888 429.242 293.924 429.255C293.685 429.205 293.689 429.195 293.935 429.225C293.748 429.211 293.652 429.211 293.648 429.226C293.545 429.251 293.429 429.31 293.299 429.405C293.131 429.54 293.026 429.631 292.984 429.679L293.024 429.638L292.761 429.931L292.531 430.203L292.17 430.679C291.973 430.929 291.864 431.198 291.845 431.488L291.701 431.256L291.741 431.3C291.72 431.273 291.658 431.236 291.553 431.19C291.426 431.152 291.297 431.181 291.165 431.28C291.227 431.257 291.353 431.08 291.543 430.747C291.655 430.534 291.778 430.265 291.912 429.938L291.877 430.034L291.9 429.943C291.864 430.068 291.907 430.221 292.029 430.403C292.038 430.434 292.126 430.494 292.294 430.582L292.499 430.643L292.469 430.643L292.516 430.642C292.257 430.628 291.998 430.758 291.739 431.033L291.782 430.978C291.628 431.215 291.543 431.362 291.527 431.42C291.48 431.525 291.439 431.634 291.404 431.747C291.368 431.86 291.339 431.978 291.316 432.099L291.287 432.285L291.266 432.478L291.269 432.437V432.5C291.277 432.361 291.196 432.213 291.024 432.056C291.008 432.026 290.902 431.988 290.706 431.941C290.529 431.915 290.411 431.927 290.354 431.978C290.786 431.785 291.023 431.654 291.066 431.583L291.021 431.65C291.05 431.595 291.099 431.524 291.166 431.438C291.274 431.263 291.341 431.108 291.367 430.972L291.394 430.831L291.423 430.625C291.432 430.557 291.433 430.482 291.424 430.401C291.469 430.678 291.685 430.831 292.073 430.861C291.498 431.129 291.008 431.083 290.603 430.721C290.362 430.444 290.243 430.218 290.243 430.044C290.2 429.728 290.268 429.443 290.447 429.187C290.553 428.963 290.89 428.77 291.457 428.605C291.908 428.497 292.292 428.499 292.608 428.613C292.761 428.66 292.898 428.723 293.021 428.804C293.301 429.034 293.452 429.192 293.472 429.278C293.627 429.501 293.724 429.867 293.763 430.375C293.773 430.897 293.691 431.415 293.516 431.931C293.501 431.998 293.422 432.175 293.278 432.461C293.216 432.574 293.149 432.682 293.075 432.786C292.926 432.992 292.923 432.99 293.067 432.78C293.013 432.877 292.95 432.97 292.877 433.06C292.735 433.272 292.406 433.528 291.892 433.828C291.387 434.114 290.987 434.258 290.693 434.259C290.557 434.273 290.384 434.264 290.174 434.232L289.916 434.166C289.754 434.111 289.612 434.033 289.49 433.933C289.245 433.731 289.08 433.438 288.994 433.054C288.822 431.896 289.132 430.732 289.923 429.563C290.066 429.386 290.219 429.228 290.38 429.088L290.63 428.893C290.801 428.772 290.981 428.67 291.171 428.586C291.361 428.502 291.56 428.437 291.768 428.391L292.088 428.335C292.407 428.308 292.532 428.298 292.464 428.306C292.595 428.305 292.717 428.313 292.829 428.33C293.871 428.527 294.335 429.155 294.222 430.213C294.229 430.492 294.027 431.024 293.615 431.811C293.301 432.394 292.975 432.822 292.636 433.096C292.205 433.42 291.827 433.582 291.501 433.582C291.151 433.601 290.806 433.494 290.466 433.264C289.733 432.792 289.422 432.078 289.534 431.123C289.607 430.609 289.831 430.054 290.206 429.46C290.252 429.324 290.618 428.856 291.303 428.056C291.731 427.632 292.14 427.332 292.53 427.155C292.732 427.06 292.935 426.99 293.141 426.943L293.45 426.891C293.658 426.869 293.867 426.871 294.078 426.897L293.935 426.888C294.175 426.894 294.466 426.962 294.811 427.092C294.994 427.161 295.193 427.281 295.408 427.453C295.511 427.526 295.642 427.682 295.802 427.921L295.246 427.44C295.323 427.451 295.472 427.551 295.693 427.738C295.772 427.821 295.837 427.915 295.889 428.02C295.994 428.301 296.04 428.483 296.028 428.566C296.046 428.859 296.014 429.175 295.932 429.513C295.818 429.797 295.647 430.116 295.418 430.469C295.049 430.993 294.773 431.323 294.589 431.46L294.409 431.612C294.521 431.516 294.48 431.552 294.286 431.719L294.105 431.864C293.792 432.091 293.6 432.222 293.53 432.256C292.767 432.707 291.833 433.015 290.726 433.18L290.255 433.204L290.05 433.191C289.814 433.16 289.831 433.158 290.103 433.187C289.892 433.173 289.751 433.157 289.681 433.139C289.37 433.08 289.089 432.976 288.836 432.826C288.272 432.495 287.897 431.968 287.712 431.245C287.568 430.675 287.57 430.026 287.719 429.297C287.711 429.139 287.905 428.548 288.302 427.522L288.742 426.803C289.255 426.052 289.817 425.461 290.428 425.031C290.733 424.816 291.051 424.641 291.38 424.506L291.884 424.334L292.406 424.221L292.335 424.234L292.599 424.182C292.684 424.158 292.956 424.125 293.413 424.085C294.669 424.013 295.859 424.229 296.984 424.732C297.08 424.779 297.197 424.856 297.336 424.963C297.455 425.059 297.557 425.165 297.642 425.28C297.322 424.961 297.365 424.992 297.771 425.372L298.054 425.714C298.224 425.952 298.358 426.212 298.456 426.493C298.554 426.775 298.616 427.078 298.642 427.403L298.653 427.907L298.61 428.444L298.513 429.013C298.524 428.953 298.525 428.948 298.517 428.997L298.492 429.114C298.282 429.778 297.907 430.46 297.367 431.161C297.018 431.619 296.537 432.053 295.923 432.464C294.583 433.285 293.271 433.548 291.987 433.253C291.689 433.191 291.343 433.074 290.949 432.902L290.454 432.629C290.147 432.429 289.887 432.193 289.674 431.922L289.389 431.49C289.223 431.183 289.103 430.841 289.03 430.464C288.957 430.091 288.931 429.674 288.952 429.214L289.034 428.465C289.114 427.995 289.245 427.583 289.426 427.229L289.735 426.742L290.119 426.342L290.58 426.03L291.115 425.805L291.727 425.667L292.414 425.616L292.573 425.626C292.632 425.617 292.776 425.665 293.005 425.77C293.182 425.873 293.323 426.011 293.429 426.186C293.645 426.577 293.649 426.97 293.44 427.365C293.22 427.734 292.886 427.93 292.436 427.954Z" fill="black"/>
<path d="M294.829 430.911L294.827 430.921C294.823 430.946 294.819 430.971 294.814 430.997C294.807 431.004 294.792 431.026 294.768 431.063C294.754 431.086 294.74 431.109 294.728 431.132H294.725C294.73 431.114 294.736 431.096 294.742 431.079C294.749 431.062 294.755 431.045 294.763 431.028L294.774 431.003L294.786 430.979C294.794 430.964 294.802 430.948 294.811 430.933L294.825 430.911H294.829ZM300.407 429.517L300.512 429.651C300.578 429.74 300.638 429.828 300.691 429.916L300.766 430.046C300.812 430.133 300.852 430.219 300.886 430.304L300.931 430.431L300.967 430.557C300.984 430.629 301.001 430.723 301.02 430.838C301.058 431.143 300.999 431.466 300.845 431.808C300.844 431.421 300.814 431.027 300.753 430.627C300.717 430.453 300.674 430.283 300.624 430.118C300.599 430.035 300.572 429.953 300.544 429.873C300.469 429.673 300.422 429.555 300.403 429.517H300.407ZM294.575 430.31L294.594 430.445C294.641 430.794 294.669 431.063 294.676 431.251C294.648 431.304 294.623 431.389 294.602 431.507H294.598C294.579 431.539 294.553 431.571 294.521 431.606L294.468 431.659C294.43 431.696 294.385 431.734 294.333 431.773C294.229 431.853 294.1 431.94 293.944 432.033C293.93 431.963 293.918 431.892 293.909 431.822C293.901 431.786 293.892 431.681 293.88 431.505C293.877 431.435 293.876 431.365 293.877 431.295C293.878 431.225 293.881 431.155 293.886 431.086L293.882 431.086C293.923 431.017 293.967 430.951 294.012 430.887L294.082 430.794C294.13 430.732 294.18 430.674 294.232 430.617C294.335 430.505 294.449 430.402 294.575 430.31ZM291.956 429.188L291.918 429.272C291.838 429.47 291.788 429.613 291.768 429.701C291.691 430.01 291.643 430.232 291.622 430.366C291.452 430.719 291.319 431.091 291.224 431.483C291.181 431.728 291.165 431.964 291.175 432.191C291.18 432.304 291.192 432.415 291.211 432.524L291.244 432.685C291.269 432.791 291.301 432.895 291.34 432.997C291.22 432.928 291.113 432.85 291.02 432.763L290.891 432.626L290.782 432.477L290.694 432.314L290.627 432.139L290.58 431.951L290.554 431.749C290.549 431.555 290.547 431.464 290.549 431.474L290.561 431.283L290.609 431.076L290.694 430.854L290.814 430.616L290.97 430.362C291.2 430.013 291.529 429.621 291.956 429.188ZM298.154 430.26L298.201 430.348C298.321 430.583 298.409 430.834 298.464 431.1H298.461C298.479 431.241 298.492 431.37 298.502 431.489C298.511 431.607 298.516 431.715 298.517 431.811C298.52 432.004 298.506 432.151 298.475 432.255L298.279 432.664L298.183 432.835C298.114 432.948 298.037 433.055 297.952 433.157C297.867 433.26 297.774 433.358 297.673 433.451L297.514 433.587C297.405 433.675 297.287 433.758 297.161 433.837C297.373 433.573 297.556 433.287 297.707 432.98C297.758 432.878 297.805 432.773 297.849 432.666L298.007 432.258L298.086 432.012L298.147 431.764L298.191 431.516L298.218 431.267L298.227 431.017L298.219 430.766L298.193 430.513L298.15 430.26H298.154ZM294.534 424.672L294.295 424.675C292.239 424.814 290.454 425.58 288.942 426.972C288.196 427.71 287.645 428.512 287.29 429.377C287.012 430.169 286.902 430.977 286.96 431.799C286.955 432.323 287.081 433.031 287.34 433.923C287.712 434.77 288.225 435.486 288.88 436.07C289.534 436.654 290.33 437.107 291.267 437.428C292.195 437.759 293.285 437.921 294.537 437.916C295.055 437.906 295.579 437.859 296.109 437.773C296.86 437.597 297.469 437.42 297.937 437.244C298.785 436.947 299.585 436.469 300.338 435.81L301.149 435.115C301.647 434.652 302.062 434.19 302.392 433.73C303.054 432.808 303.379 431.891 303.369 430.978C303.314 429.252 302.327 427.733 300.406 426.423C299.454 425.754 298.568 425.31 297.748 425.09C296.491 424.806 295.42 424.667 294.534 424.672Z" fill="black"/>
<path d="M90.8115 41.5908C90.792 41.5908 90.7726 41.5913 90.7531 41.5923C80.5215 42.1035 71.6688 44.144 64.1949 47.7139L64.1389 47.7425C59.9488 50.0282 55.8072 54.6183 51.7139 61.5129H51.7121C50.7457 62.8349 48.4859 69.344 44.9327 81.0402C44.9204 81.0808 44.9103 81.1219 44.9025 81.1636C44.1933 84.9287 43.987 89.8898 44.2835 96.0469C44.2884 96.1484 44.3065 96.2489 44.3374 96.3457C47.0013 104.699 50.7811 109.569 55.6766 110.956C55.7831 110.986 55.8903 111.001 55.9958 111.001C56.5053 111.001 56.9737 110.665 57.1195 110.15C57.2954 109.529 56.9347 108.884 56.3137 108.708C52.251 107.557 49.0174 103.25 46.6127 95.7872H46.611C46.3355 89.9241 46.5268 85.2192 47.185 81.6726H47.1833C50.7011 70.0949 52.8332 63.8432 53.5795 62.9173C53.6216 62.8676 53.6593 62.8145 53.6925 62.7585C57.5642 56.2252 61.4061 51.9112 65.2181 49.8162H65.2162C72.3744 46.3999 80.883 44.4388 90.742 43.9331H90.7441C101.257 45.703 109.791 49.2671 116.345 54.6255L116.437 54.6939C120.296 57.2595 123.855 62.4874 127.117 70.3776H127.116C130.156 78.7004 130.105 87.9418 126.962 98.1019C123.397 109.472 119.688 115.157 115.837 115.157C115.707 115.157 115.578 115.15 115.448 115.137C115.409 115.134 115.371 115.132 115.332 115.132C114.739 115.132 114.23 115.582 114.171 116.185C114.107 116.828 114.576 117.4 115.219 117.463C115.421 117.483 115.622 117.493 115.822 117.493C120.829 117.493 125.286 111.261 129.194 98.7968L129.195 98.7925C132.499 88.1117 132.532 78.3571 129.294 69.5288L129.277 69.4847C125.851 61.1961 122.023 55.631 117.794 52.7894H117.792C110.895 47.1622 101.966 43.4347 91.0036 41.6068C90.9401 41.5961 90.8758 41.5908 90.8115 41.5908Z" fill="black"/>
<path d="M501.759 74.4842C501.823 74.6023 501.857 74.7194 501.864 74.8356C501.846 74.7141 501.809 74.5954 501.753 74.4842H501.759ZM529.989 52.8483C540.425 55.3103 549.393 58.8124 556.892 63.3547H556.886C562.51 67.3915 566.697 76.5221 569.448 90.7464H569.442C570.138 102.64 567.328 112.578 561.012 120.56H561.005C556.104 124.011 549.817 125.737 542.144 125.737C537.489 125.737 532.324 125.101 526.649 123.831H526.642L513.614 119.045H513.608C510.119 117.001 507.544 114.924 505.882 112.812H505.875C500.242 103.597 497.996 95.2235 499.138 87.6929L499.15 87.5731C499.361 83.1087 500.238 79.0733 501.782 75.4668C501.847 75.3147 501.878 75.1538 501.876 74.9941H501.87C502.323 73.9402 505.049 70.3745 510.048 64.2971C514.512 58.9365 517.821 55.5923 519.974 54.2646L519.997 54.2502C521.341 53.378 523.092 52.9419 525.25 52.9419C526.348 52.9419 527.552 53.055 528.861 53.2811C528.929 53.2927 528.996 53.2984 529.062 53.2984C529.427 53.2984 529.765 53.1265 529.982 52.8483H529.989ZM521.667 48.8047C521.108 48.8047 520.614 49.207 520.517 49.7766C520.414 50.3803 520.793 50.9551 521.376 51.105H521.37C520.395 51.3833 519.513 51.7781 518.725 52.2894C516.355 53.7593 512.864 57.2633 508.252 62.8015L508.247 62.8069C502.868 69.3475 499.987 73.2061 499.605 74.3826C499.553 74.5448 499.522 74.6996 499.513 74.847H499.507C497.931 78.6346 497.034 82.8398 496.815 87.4626H496.809C495.623 95.5283 497.985 104.391 503.894 114.051C503.916 114.088 503.941 114.123 503.967 114.157C505.824 116.553 508.67 118.871 512.508 121.109C512.567 121.144 512.629 121.173 512.694 121.196L525.898 126.047C525.946 126.065 525.995 126.079 526.045 126.091C531.918 127.411 537.283 128.071 542.142 128.071C550.395 128.071 557.185 126.166 562.512 122.356C562.6 122.293 562.679 122.219 562.746 122.134C569.524 113.636 572.531 103.083 571.767 90.4772C571.764 90.4265 571.757 90.3761 571.748 90.3262C568.867 75.4202 564.343 65.7788 558.173 61.402L558.103 61.3557C548.383 55.4684 536.304 51.2904 521.866 48.8216C521.799 48.8102 521.733 48.8047 521.667 48.8047Z" fill="black"/>
<path d="M189.424 56.7581C195.579 59.8807 199.514 62.9212 201.229 65.8798C203.694 70.1336 201.171 74.4421 193.66 78.8053H193.657L182.404 83.8462H182.401C181.709 84.082 181.079 84.2687 180.511 84.4063C180.066 84.2286 179.616 84.046 179.162 83.8586H179.159C174.345 81.1601 171.35 78.4649 170.175 75.7729C167.608 69.8961 174.023 63.5578 189.421 56.7581H189.424ZM261.616 56.7402C262.289 56.8838 262.927 57.0462 263.531 57.2271C270.341 59.269 272.671 63.8774 270.519 71.0525C268.274 78.5335 263.671 83.4066 256.708 85.6716C253.886 82.557 251.851 79.6286 250.602 76.8865C246.836 68.6148 250.506 61.8993 261.612 56.7402H261.616ZM331.509 54.5181C331.605 54.5181 331.701 54.5188 331.798 54.5201H331.793C332.907 54.6536 333.948 54.8424 334.916 55.0864C343.47 57.2437 346.309 64.0229 343.433 75.4241H343.43C341.507 81.0499 335.6 85.8796 325.709 89.9133C321.733 86.6559 319.1 82.105 317.809 76.2606H317.805C317.698 74.6852 317.655 73.1942 317.678 71.7877C317.86 60.2746 322.47 54.5181 331.509 54.5181ZM400.512 59.2419C409.169 60.5893 414.542 64.3753 416.631 70.6001H416.629C418.177 76.294 415.423 81.8484 408.367 87.2634C408.321 87.2983 408.278 87.3367 408.238 87.3781C406.737 88.9299 403.599 90.3461 398.824 91.6268C398.749 91.6002 398.676 91.5735 398.604 91.5468L398.576 91.5369L398.566 91.5333L398.565 91.5329C390.956 88.9012 387.26 82.6275 387.474 72.7118H387.469C389.322 63.9707 393.668 59.4807 400.506 59.2419H400.512ZM460.539 68.2005C467.852 68.2005 471.85 71.0738 472.532 76.8205L472.535 76.8458C473.629 84.6042 469.895 90.3288 461.333 94.0196H461.327C459.896 94.3643 458.517 94.6848 457.19 94.981C454.32 94.6782 451.877 93.8535 449.858 92.5071C445.175 89.2331 443.794 84.1061 445.716 77.126H445.71C447.836 71.5827 452.3 68.6192 459.101 68.2355C459.594 68.2121 460.073 68.2005 460.539 68.2005ZM465.011 95.0939C464.708 95.1566 464.44 95.3378 464.269 95.6C464.168 95.7552 464.106 95.9299 464.087 96.1094H464.083C464.121 95.5097 464.428 95.1712 465.005 95.0939H465.011ZM331.476 52.1807C320.926 52.1807 315.547 58.704 315.341 71.7507C315.317 73.2399 315.363 74.8154 315.477 76.4771C315.481 76.5337 315.489 76.5899 315.501 76.6452C316.8 82.6213 319.369 87.3682 323.21 90.8859H323.206C319.963 92.0867 316.343 93.2123 312.346 94.2625H312.341C309.968 94.6904 307.082 94.9043 303.684 94.9043C295.905 94.9043 285.44 93.7832 272.289 91.5411H272.285C265.665 90.07 261.172 88.6949 258.806 87.4156H258.802C265.769 84.7431 270.421 79.5126 272.758 71.724C275.357 63.0564 272.505 57.4777 264.202 54.9883C263.418 54.7533 262.584 54.5477 261.702 54.3715C261.626 54.3564 261.55 54.3489 261.473 54.3489C261.307 54.3489 261.142 54.3843 260.989 54.454C248.195 60.2796 244.024 68.08 248.475 77.8551C249.703 80.5508 251.608 83.3842 254.19 86.3553H254.186C253.988 86.3992 253.787 86.4413 253.585 86.4816H253.582C243.25 88.2444 237.408 89.1259 236.054 89.1259C236.019 89.1259 235.987 89.1252 235.958 89.124H235.954C235.847 89.0924 235.735 89.076 235.622 89.076C235.609 89.076 235.595 89.0762 235.582 89.0767C229.819 89.2746 222.898 89.3736 214.817 89.3736C210.787 89.3736 206.469 89.349 201.862 89.2997L201.799 89.3007C201.46 89.3153 201.114 89.3226 200.761 89.3226C196.233 89.3226 190.63 88.12 183.953 85.7147H183.95L194.683 80.9068L194.791 80.8514C203.682 75.6989 206.502 70.3177 203.251 64.7079C201.257 61.2671 196.833 57.8379 189.977 54.4203C189.814 54.3386 189.635 54.2976 189.456 54.2976C189.297 54.2976 189.138 54.3301 188.988 54.3953C171.8 61.9023 164.815 69.34 168.033 76.7084C169.268 79.5361 172.047 82.2777 176.371 84.9332H176.368C162.776 86.3383 154.563 87.0408 151.73 87.0408C151.355 87.0408 151.074 87.0285 150.887 87.004C150.837 86.9973 150.786 86.994 150.735 86.994C150.692 86.994 150.649 86.9963 150.606 87.0012C150.378 87.0265 150.105 87.0392 149.788 87.0392C147.938 87.0392 144.568 86.6077 139.68 85.7448C139.613 85.733 139.545 85.727 139.477 85.727C139.439 85.727 139.401 85.7289 139.363 85.7326C137.754 85.8904 136.2 85.9693 134.7 85.9693C132.135 85.9693 129.727 85.7386 127.478 85.2773C127.399 85.2611 127.32 85.2533 127.242 85.2533C126.699 85.2533 126.212 85.6343 126.098 86.1873C125.969 86.8196 126.376 87.4373 127.008 87.5669C129.412 88.06 131.976 88.3065 134.7 88.3065C136.226 88.3065 137.803 88.2291 139.429 88.0743H139.432C144.351 88.9389 147.827 89.3712 149.859 89.3712C150.187 89.3712 150.477 89.3599 150.73 89.3374H150.733C150.948 89.3562 151.233 89.3656 151.588 89.3656C154.83 89.3656 163.923 88.5848 178.866 87.0234H178.863C179.302 87.0015 179.783 86.9404 180.308 86.8403H180.311C188.509 90.0531 195.33 91.6595 200.774 91.6595C201.145 91.6595 201.51 91.6521 201.868 91.6371H201.871C206.473 91.6862 210.788 91.7108 214.817 91.7108C222.837 91.7108 229.723 91.6135 235.474 91.4189H235.477C235.537 91.4308 235.6 91.4399 235.664 91.446C235.729 91.4522 235.809 91.4553 235.904 91.4553C237.521 91.4553 243.557 90.5634 254.01 88.7796L254.042 88.7737C254.716 88.6393 255.374 88.4865 256.015 88.3154H256.019C258.25 90.149 263.509 91.9859 271.794 93.8261L271.851 93.8373C285.129 96.1028 295.749 97.2356 303.709 97.2356C307.281 97.2356 310.317 97.0075 312.818 96.5515L312.905 96.5321C317.506 95.3244 321.634 94.008 325.288 92.5831H325.293C328.408 94.84 332.199 96.4441 336.664 97.3954H336.659C338.591 98.2589 343.99 98.6907 352.856 98.6907C358.137 98.6907 364.648 98.5375 372.389 98.2311L372.463 98.2259C383.588 97.0736 392.315 95.6764 398.646 94.0344H398.651C399.924 94.4417 401.52 94.829 403.438 95.1963L403.49 95.205L435.368 99.8386C436.288 99.9729 437.348 100.04 438.548 100.04C442.937 100.04 449.197 99.1412 457.328 97.3435H457.334C458 97.4032 458.685 97.4378 459.389 97.4474L459.402 97.4474C460.19 97.4495 460.899 97.4505 461.531 97.4505C463.744 97.4505 464.997 97.4381 465.291 97.4132C465.347 97.4084 465.402 97.4018 465.454 97.3933H465.448C473.408 96.6488 479.868 96.2766 484.828 96.2766C485.486 96.2766 486.117 96.2831 486.722 96.2962L486.778 96.2961C488.043 96.2634 492.567 95.7889 500.35 94.8726C500.991 94.7971 501.449 94.2163 501.374 93.5753C501.304 92.9808 500.799 92.5433 500.215 92.5433C500.169 92.5433 500.123 92.5459 500.077 92.5514C492.421 93.4529 487.977 93.9221 486.744 93.9589C486.133 93.9459 485.496 93.9394 484.834 93.9394C479.778 93.9394 473.213 94.3178 465.139 95.0748C465.106 95.0779 465.073 95.0823 465.041 95.0882H465.035C464.934 95.0935 464.758 95.0979 464.509 95.1016C472.551 90.9267 475.999 84.7411 474.853 76.545C474.008 69.4227 469.259 65.8616 460.607 65.8616C460.083 65.8616 459.544 65.8747 458.991 65.9009L458.98 65.9014C451.167 66.3393 446.016 69.8018 443.528 76.2891L443.494 76.3932C441.233 84.4898 442.908 90.4996 448.518 94.4225L448.538 94.4358C449.538 95.1055 450.621 95.6636 451.788 96.1102H451.783C446.247 97.1761 441.856 97.7091 438.609 97.7091C437.51 97.7091 436.542 97.648 435.705 97.5258L403.875 92.8992H403.869C403.579 92.8436 403.298 92.7877 403.024 92.7314H403.019C406.251 91.6138 408.524 90.3982 409.838 89.0846H409.832C417.715 83.0208 420.726 76.6314 418.865 69.9163L418.847 69.8564C416.447 62.7053 410.418 58.3916 400.759 56.9152C400.7 56.9062 400.641 56.9018 400.582 56.9018C400.571 56.9018 400.56 56.9019 400.549 56.9022C392.399 57.1323 387.271 62.2681 385.166 72.3094C385.151 72.3787 385.143 72.4492 385.141 72.5199C384.894 82.3818 388.177 89.0588 394.992 92.5508H394.987C389.18 93.813 381.603 94.9286 372.256 95.8976H372.251C364.097 96.2199 357.361 96.3811 352.043 96.3811C343.871 96.3811 339.046 96.0006 337.567 95.2397C337.474 95.1918 337.375 95.1566 337.272 95.1351C333.68 94.3821 330.563 93.172 327.92 91.5048H327.916C337.737 87.2586 343.657 82.1171 345.675 76.0804L345.7 75.9957C348.956 63.0836 345.552 55.3585 335.488 52.8202C334.404 52.547 333.244 52.3375 332.007 52.1918L331.889 52.184C331.75 52.1818 331.613 52.1807 331.476 52.1807Z" fill="black"/>
<path d="M260.496 14.3066C260.312 14.3066 260.125 14.3502 259.951 14.442C259.381 14.7433 259.162 15.4502 259.464 16.021C260.127 17.2781 261.315 18.3688 263.028 19.2932H263.027C264.041 19.8759 265.784 20.3245 268.254 20.639C268.304 20.6453 268.354 20.6484 268.403 20.6484C268.983 20.6484 269.486 20.2175 269.561 19.6273C269.643 18.9871 269.19 18.402 268.549 18.3205C266.367 18.0426 264.909 17.6883 264.175 17.2573L264.138 17.2365C262.842 16.537 261.973 15.7682 261.53 14.9299C261.321 14.5331 260.915 14.3066 260.496 14.3066Z" fill="black"/>
<path d="M278.156 0.137695C277.924 0.137695 277.69 0.20647 277.486 0.34967C276.958 0.72027 276.83 1.44908 277.2 1.97748C278.717 4.1401 280.322 5.98039 282.014 7.49823C284.487 9.82403 286.432 11.2994 287.849 11.9243C288.002 11.992 288.162 12.024 288.32 12.024C288.769 12.024 289.197 11.7639 289.39 11.3267C289.65 10.7362 289.383 10.0464 288.792 9.78589C287.616 9.26709 285.883 7.93088 283.595 5.77728L283.574 5.75848C282.015 4.35968 280.528 2.65198 279.114 0.635315C278.886 0.311115 278.524 0.137695 278.156 0.137695Z" fill="black"/>
<path d="M325.686 3.10681C325.556 3.43125 325.576 3.80306 325.753 4.11676C325.548 3.75361 325.524 3.41695 325.681 3.10681H325.686ZM328.46 -0.273438C328.016 -0.273438 327.592 -0.0197779 327.396 0.409912C327.157 0.933139 326.634 1.74721 325.827 2.85211C325.784 2.91035 325.748 2.97166 325.717 3.03516H325.713C325.411 3.40836 324.387 4.48388 322.641 6.26172L322.622 6.28223C322.177 6.75736 321.577 7.54854 320.821 8.6557L320.774 8.72968C319.671 10.6388 319.005 12.5683 318.778 14.5183C318.703 15.1594 319.162 15.7397 319.803 15.8145C319.849 15.8198 319.895 15.8224 319.94 15.8224C320.525 15.8224 321.03 15.3842 321.099 14.7891C321.286 13.1841 321.838 11.5789 322.755 9.97357H322.751C323.428 8.98264 323.947 8.29124 324.309 7.89941C326.279 5.89364 327.4 4.69991 327.673 4.31818C327.716 4.25726 327.755 4.19633 327.788 4.13568H327.783C328.646 2.94901 329.225 2.03078 329.522 1.38098C329.79 0.793981 329.532 0.100558 328.945 -0.167542C328.787 -0.239442 328.622 -0.273438 328.46 -0.273438Z" fill="black"/>
<path d="M263.067 113.181C262.627 113.181 262.205 113.43 262.007 113.855C261.606 114.715 261.101 115.604 260.491 116.522L260.466 116.56C260.052 117.24 258.688 119.05 256.376 121.989L256.34 122.037C255.671 122.984 255.16 123.859 254.809 124.662C254.551 125.253 254.82 125.942 255.412 126.201C255.564 126.268 255.723 126.299 255.879 126.299C256.329 126.299 256.759 126.037 256.951 125.599C257.232 124.954 257.654 124.233 258.215 123.434H258.213C260.544 120.471 261.952 118.598 262.438 117.815C263.113 116.8 263.675 115.809 264.125 114.844C264.398 114.259 264.145 113.563 263.56 113.291C263.4 113.216 263.232 113.181 263.067 113.181Z" fill="black"/>
<path d="M295.709 120.573C295.189 120.573 294.714 120.924 294.578 121.451C294.156 123.091 293.844 124.648 293.64 126.123C293.415 127.653 293.337 129.048 293.408 130.307L293.409 130.326C293.473 131.2 293.627 131.987 293.873 132.687H293.869C293.875 132.708 293.882 132.729 293.889 132.751C294.025 133.159 294.5 134.066 295.315 135.471C295.532 135.844 295.924 136.053 296.327 136.053C296.526 136.053 296.728 136.002 296.912 135.895C297.471 135.571 297.661 134.856 297.337 134.298C296.64 133.096 296.235 132.35 296.123 132.057H296.119C296.108 132.008 296.095 131.96 296.078 131.913C295.903 131.414 295.791 130.835 295.742 130.175C295.68 129.072 295.75 127.831 295.954 126.453L295.955 126.443C296.147 125.057 296.442 123.587 296.842 122.033C297.002 121.408 296.626 120.771 296.001 120.61C295.903 120.585 295.805 120.573 295.709 120.573Z" fill="black"/>
<path d="M322.403 116.569C322.263 116.569 322.12 116.595 321.981 116.648C321.38 116.881 321.08 117.558 321.313 118.16C322.555 121.368 324.075 124.024 325.872 126.129C328.538 129.384 330.818 131.427 332.713 132.259C332.866 132.326 333.025 132.357 333.182 132.357C333.632 132.357 334.061 132.096 334.253 131.658C334.512 131.067 334.243 130.378 333.652 130.118C332.096 129.435 330.1 127.606 327.665 124.63L327.649 124.612C326.025 122.708 324.639 120.277 323.493 117.316C323.314 116.853 322.872 116.569 322.403 116.569Z" fill="black"/>
<path d="M358.335 0.958984C357.97 0.958984 357.61 1.12951 357.382 1.44952C356.705 2.40036 354.916 4.22436 352.016 6.92151L351.953 6.98376L351.951 6.98621L351.942 6.99603C351.023 8.01305 350.467 8.66831 350.276 8.96179H350.272C349.543 9.82769 348.555 11.6701 347.307 14.4889C347.046 15.0791 347.313 15.7693 347.903 16.0305C348.057 16.0986 348.217 16.1308 348.375 16.1308C348.824 16.1308 349.251 15.8713 349.445 15.4349C350.645 12.7229 351.53 11.0519 352.099 10.4219C352.15 10.3646 352.196 10.3024 352.236 10.2361C352.354 10.0534 352.815 9.51683 353.619 8.62653H353.614C356.626 5.82496 358.517 3.88473 359.286 2.80585C359.66 2.28021 359.538 1.55046 359.012 1.17596C358.807 1.0294 358.57 0.958984 358.335 0.958984Z" fill="black"/>
<path d="M352.381 115.132C351.97 115.132 351.571 115.349 351.358 115.734C351.045 116.299 351.249 117.01 351.813 117.323C353.889 118.473 357.682 121.048 363.191 125.049C363.399 125.2 363.639 125.273 363.877 125.273C364.238 125.273 364.595 125.105 364.823 124.791C365.203 124.268 365.087 123.538 364.565 123.158C358.978 119.101 355.105 116.475 352.946 115.278C352.767 115.179 352.572 115.132 352.381 115.132Z" fill="black"/>
<path d="M63.6945 117.801C63.4577 117.801 63.2188 117.872 63.012 118.022C60.8003 119.616 60.3308 121.296 61.6036 123.062C62.3416 124.085 63.7886 125.063 65.9445 125.995H65.9426C67.9736 127.061 71.1274 128.179 75.4042 129.349L75.456 129.362L83.11 131.084L83.1371 131.09C84.3932 131.342 85.6545 131.483 86.921 131.513L86.9347 131.513C86.998 131.514 87.0611 131.514 87.1243 131.514C89.4301 131.514 91.6819 131 93.8797 129.971H93.8776C94.8275 129.634 97.3186 128.297 101.351 125.96H101.349C102.554 125.341 104.906 124.323 108.405 122.904H108.403L108.527 122.85C109.315 122.455 110.473 121.72 112.003 120.644C112.531 120.273 112.658 119.544 112.286 119.016C112.059 118.692 111.697 118.519 111.33 118.519C111.097 118.519 110.863 118.589 110.658 118.732C109.245 119.726 108.195 120.398 107.51 120.745H107.508C103.948 122.189 101.537 123.236 100.274 123.885L100.228 123.91L100.222 123.914C96.2057 126.242 93.8249 127.529 93.0792 127.775C93.0337 127.79 92.989 127.807 92.9457 127.828C91.0434 128.727 89.1025 129.177 87.1229 129.177C87.0735 129.177 87.024 129.177 86.9744 129.176H86.9723C85.8525 129.149 84.7367 129.025 83.6249 128.804H83.6232L76.007 127.09H76.005C71.866 125.957 68.8594 124.894 66.985 123.902L66.9003 123.861C65.1226 123.096 63.989 122.374 63.4995 121.695C63.1379 121.193 63.431 120.601 64.3789 119.917C64.9024 119.54 65.0208 118.81 64.6434 118.286C64.415 117.969 64.0573 117.801 63.6945 117.801Z" fill="black"/>
<path d="M188.075 33.6094C188.074 33.6094 188.073 33.6094 188.071 33.6094L157.489 33.6144H157.482C156.388 33.6212 155.361 33.6349 154.402 33.6553L154.39 33.6556C151.729 33.7389 150.001 33.7852 149.207 33.7945H149.204L144.301 33.835L144.296 33.8351C143.533 33.8446 142.105 33.8912 140.012 33.9749H140.009L138.111 34.0088L138.105 34.0089C137.911 34.0134 137.182 34.0171 135.916 34.0201H135.919L115.438 34.0211C114.793 34.0212 114.27 34.5443 114.27 35.1897C114.27 35.835 114.793 36.3582 115.438 36.3582C115.438 36.3582 115.438 36.3582 115.438 36.3582L121.348 36.3579H121.35C121.304 36.4629 121.272 36.5766 121.258 36.6966C121.184 37.3377 121.643 37.9177 122.284 37.9921C123.097 38.0864 124.149 38.1437 125.439 38.164L125.481 38.1639L125.493 38.1637L125.497 38.1636C130.207 38.0531 133.465 37.9979 135.273 37.9979C135.468 37.9979 135.646 37.9986 135.807 37.9999L135.833 37.9998C135.949 37.9982 136.079 37.9974 136.225 37.9974C137.464 37.9974 139.787 38.0559 143.195 38.1729L143.202 38.1732C143.806 38.1899 144.782 38.2006 146.13 38.2053H146.136C147.831 38.2022 149.096 38.1918 149.931 38.1741C149.963 38.1735 149.983 38.1731 149.989 38.173C155.746 38.0612 158.781 37.996 159.094 37.9775L159.097 37.9774C159.099 37.9772 159.102 37.9771 159.104 37.9769H159.101C162.021 37.8536 165.635 37.7387 169.946 37.632L169.956 37.6317C171.426 37.5816 172.957 37.5063 174.549 37.4058H174.546C176.337 37.342 181.392 36.8669 189.711 35.9806C190.287 35.9192 190.732 35.4446 190.755 34.8654C190.778 34.2873 190.375 33.7795 189.592 33.6507H189.595L189.804 33.6702C189.765 33.6629 189.724 33.6566 189.679 33.6513C189.444 33.6234 188.909 33.6094 188.075 33.6094Z" fill="black"/>
<path d="M177.64 45.7687C177.665 45.7698 177.689 45.7716 177.713 45.7739H177.71C177.741 45.7777 177.772 45.7828 177.804 45.7894C177.749 45.7785 177.693 45.7716 177.637 45.7687H177.64ZM181.713 20.0742C181.395 20.0742 181.107 20.219 180.849 20.5084C180.504 20.8967 180.444 21.3659 180.67 21.916C180.748 22.1072 180.901 22.3829 181.127 22.7429H181.124C181.096 22.7443 181.069 22.7463 181.042 22.7488C180.921 22.7598 180.806 22.7797 180.695 22.8087C179.856 23.0283 179.417 23.5905 179.38 24.4954C179.368 24.775 179.406 25.0839 179.495 25.4222C179.632 25.9476 180.106 26.2955 180.625 26.2955C180.723 26.2955 180.822 26.2832 180.921 26.2573C181.431 26.1241 181.773 25.6741 181.793 25.1737H181.797C182.137 25.2821 182.595 25.4791 183.171 25.7645H183.168C183.216 25.7922 183.263 25.8206 183.31 25.8495H183.307C184.937 28.0703 187.269 31.1172 190.305 34.9904H190.302C190.977 36.0494 191.347 36.7491 191.411 37.0893H191.407C191.404 37.1146 191.401 37.14 191.398 37.1655C191.395 37.2002 191.368 37.2404 191.315 37.2863H191.312C188.254 38.5284 186.289 39.4251 185.419 39.9763C185.771 39.6705 186.106 39.3921 186.425 39.1412C186.518 39.0678 186.599 38.9807 186.666 38.8829C187.158 38.1633 187.065 37.5714 186.387 37.1074C186.243 37.0088 186.082 36.9425 185.906 36.9096C185.835 36.8963 185.763 36.8897 185.691 36.8897C185.642 36.8897 185.592 36.8929 185.543 36.8992C185.118 36.9535 184.736 37.0606 184.398 37.2203H184.396C182.36 38.0857 180.921 38.7412 180.079 39.1868C179.508 39.4887 179.291 40.1958 179.593 40.7663C179.791 41.1419 180.166 41.3646 180.561 41.3867H180.558C179.642 42.3235 178.66 43.3704 177.611 44.5273C177.08 45.094 176.708 45.5425 176.496 45.8727H176.493C176.489 45.8788 176.484 45.885 176.48 45.8911C176.276 46.1773 176.171 46.4686 176.165 46.765C176.146 47.621 176.591 48.0669 177.5 48.1026H177.497C177.531 48.1053 177.565 48.1066 177.599 48.1066C177.781 48.1066 177.971 48.0693 178.17 47.9946C178.568 47.8445 179.284 47.4128 180.317 46.6998L180.353 46.674L186.668 41.9535H186.665C187.42 41.4725 189.309 40.6194 192.333 39.3944L192.338 39.3925C192.416 39.3605 192.492 39.32 192.562 39.2717C193.23 38.8114 193.613 38.2213 193.712 37.5015H193.709C193.756 37.2999 193.765 37.0829 193.737 36.8505C193.655 36.1672 193.151 35.104 192.226 33.6611L192.162 33.5709C191.642 32.9081 191.144 32.2697 190.666 31.6558H190.663C190.756 31.6069 190.845 31.5443 190.925 31.4681C191.38 31.0378 191.414 30.326 191.004 29.8535L183.296 20.9754C183.263 20.9377 183.228 20.9021 183.19 20.8688C182.922 20.6303 182.703 20.4571 182.531 20.3493C182.239 20.1659 181.967 20.0742 181.713 20.0742Z" fill="black"/>
<path d="M505.271 28.4446L505.211 28.5117L505.157 28.5825L505.109 28.6567L505.067 28.7338L505.032 28.8137L505.002 28.8956L504.978 28.9795L504.961 29.0649L504.95 29.1514L504.946 29.2385L504.948 29.3261L504.956 29.4136C504.942 29.3781 504.926 29.3434 504.907 29.3095L504.901 29.2968H504.894L504.889 29.1957L504.896 29.0962L504.914 28.9983L504.943 28.902L504.984 28.8073L505.037 28.7142L505.101 28.6228L505.177 28.5329L505.265 28.4446H505.271ZM505.038 29.7087C505.052 29.7426 505.068 29.7761 505.086 29.8091H505.082L505.075 29.7979C505.057 29.7679 505.041 29.7382 505.026 29.7087H505.038ZM505.384 30.1663C505.557 30.3028 505.752 30.3851 505.969 30.4134L505.896 30.4045L505.824 30.3911L505.754 30.3729L505.687 30.3501L505.621 30.3226L505.557 30.2905L505.495 30.2537L505.435 30.2123L505.378 30.1663H505.384ZM510.553 28.0625L509.726 28.0627C507.349 28.0623 505.887 28.0738 505.341 28.0974C500.794 28.2705 497.048 28.4322 494.102 28.5823C493.342 28.5528 490.817 28.4231 486.526 28.1933C485.925 28.1652 485.136 28.1408 484.16 28.12C481.994 28.0984 479.469 28.1377 476.587 28.2379C474.293 28.2873 471.691 28.4324 468.781 28.6732C468.334 28.6995 466.842 28.848 464.304 29.1186C461.572 29.4333 460.069 29.6302 459.797 29.7092C458.246 29.6694 456.38 29.5865 454.2 29.4604C454.123 29.2988 453.952 29.1439 453.688 28.9958C453.505 28.9088 453.304 28.8739 453.086 28.8912C451.123 29.1026 450.57 29.9051 451.424 31.2986C451.569 31.4451 451.913 31.5645 452.456 31.6569C452.655 31.7077 453.664 31.7801 455.485 31.874C455.481 32.198 455.719 32.4783 456.199 32.715C456.433 32.8319 456.993 32.882 457.877 32.8652C459.323 32.8593 460.936 32.8146 462.715 32.731C463.019 32.7156 463.309 32.699 463.585 32.6814C467.074 32.4063 469.231 32.2485 470.055 32.2079L472.987 32.085C475.049 32.0379 476.714 31.987 477.982 31.9324L490.491 31.2382C491.85 31.1683 493.135 31.1097 494.348 31.0624L496.119 31.0001C500.338 31.1528 502.764 31.1988 503.397 31.1383C504.19 31.1233 504.695 30.8936 504.91 30.449C505.536 30.4232 506.184 30.4092 506.852 30.4071L513.922 30.3915C515.027 29.9575 515.213 29.2634 514.479 28.3094L514.076 28.1071C513.977 28.0794 513.873 28.0654 513.765 28.0649L510.553 28.0625Z" fill="black"/>
<path d="M458.12 17.5918C457.973 17.5918 457.824 17.6198 457.679 17.679C456.518 18.1532 455.182 18.8125 453.67 19.657L453.606 19.6951L447.307 23.7565H447.302C443.395 25.9458 441.01 27.3802 440.15 28.0595H440.148C439.691 28.3875 439.377 28.6394 439.204 28.8153C438.977 29.0458 438.835 29.2778 438.777 29.5111H438.772C438.14 30.2903 437.872 31.1109 437.968 31.9728H437.963C437.958 32.3474 438.062 32.7074 438.274 33.0527C438.63 33.6329 439.32 34.1528 440.344 34.6121L440.428 34.6459C442.93 35.5422 445.241 36.2639 447.363 36.8107L447.375 36.8137C451.965 37.9463 455.551 38.8133 458.133 39.4146H458.127C458.27 39.9109 458.727 40.2589 459.249 40.2589C459.293 40.2589 459.337 40.2564 459.382 40.2512C460.119 40.1672 460.673 40.1252 461.044 40.1252C461.189 40.1252 461.306 40.1316 461.395 40.1443C461.451 40.1523 461.506 40.1562 461.561 40.1562C462.119 40.1562 462.611 39.7561 462.711 39.1912C462.821 38.5706 462.419 37.9747 461.802 37.8442C459.48 37.3528 454.862 36.2539 447.947 34.5474C445.914 34.0236 443.694 33.3315 441.288 32.4711H441.282C440.774 32.2422 440.45 32.0486 440.311 31.8904H440.305C440.305 31.8395 440.301 31.7886 440.294 31.7381C440.255 31.4592 440.407 31.1434 440.749 30.7906H440.744C441.275 30.5894 442.171 30.1699 443.432 29.5319H443.429C444.126 29.223 446.314 27.8936 449.992 25.5439H449.987L456.765 21.864C457.246 21.6032 457.481 21.0443 457.332 20.5184C457.321 20.4806 457.309 20.4437 457.295 20.4077H457.289C457.738 20.1943 458.163 20.0059 458.563 19.8425C459.16 19.5984 459.447 18.9162 459.203 18.3187C459.018 17.866 458.581 17.5918 458.12 17.5918Z" fill="black"/>
<path d="M114.819 208.873C114.227 208.873 113.719 209.321 113.658 209.922C113.47 211.753 113.407 213.266 113.468 214.463L113.468 214.466C113.497 215.016 113.556 215.556 113.645 216.086C113.709 216.477 113.844 217.102 114.048 217.963H114.047C114.083 218.164 114.114 218.369 114.139 218.577C114.194 219.036 114.222 219.512 114.222 220.004C114.209 220.807 114.178 221.57 114.13 222.292L114.129 222.315C114.108 222.748 114.02 223.716 113.863 225.219C113.796 225.861 114.262 226.436 114.904 226.502C114.945 226.507 114.986 226.509 115.027 226.509C115.618 226.509 116.125 226.062 116.188 225.461C116.347 223.939 116.438 222.934 116.462 222.448C116.513 221.68 116.545 220.872 116.559 220.023L116.559 220.004C116.559 219.418 116.526 218.85 116.459 218.298C116.426 218.02 116.384 217.746 116.334 217.477L116.322 217.422C116.13 216.614 116.006 216.041 115.95 215.704L115.95 215.702C115.876 215.259 115.827 214.806 115.802 214.344C115.747 213.266 115.807 211.872 115.983 210.161C116.048 209.519 115.581 208.945 114.939 208.879C114.899 208.875 114.859 208.873 114.819 208.873Z" fill="black"/>
<path d="M115.131 244.295C115.028 244.295 114.922 244.309 114.818 244.338C114.196 244.511 113.832 245.155 113.997 245.747L114.004 245.777C114.221 246.557 114.395 247.345 114.525 248.14C114.612 248.671 114.679 249.202 114.726 249.733L114.731 249.776L114.732 249.784C114.747 249.898 114.767 250.259 114.793 250.868C114.799 251.097 114.799 251.32 114.795 251.537L114.783 251.878H114.781C114.624 253.509 114.508 255.29 114.435 257.22C114.379 258.605 114.358 260.336 114.372 262.413C114.377 263.056 114.899 263.573 115.541 263.573C115.544 263.573 115.546 263.573 115.549 263.573C116.194 263.569 116.714 263.042 116.71 262.397C116.696 260.355 116.716 258.66 116.771 257.312L116.771 257.308C116.843 255.396 116.958 253.636 117.114 252.031L117.119 251.957L117.131 251.601L117.131 251.586C117.137 251.327 117.136 251.06 117.129 250.788L117.128 250.77C117.102 250.143 117.077 249.728 117.055 249.524C117.002 248.937 116.927 248.35 116.831 247.762C116.689 246.894 116.5 246.033 116.265 245.18L116.256 245.151C116.113 244.634 115.643 244.295 115.131 244.295Z" fill="black"/>
<path d="M54.1495 216.778C53.7378 216.778 53.3386 216.996 53.1255 217.382C51.5501 220.235 50.5902 223.853 50.2458 228.236L50.2422 228.327C50.2422 228.992 50.3518 229.591 50.571 230.125H50.5692C50.6091 230.268 50.6711 230.412 50.7551 230.556C50.9724 230.931 51.4301 231.432 52.1281 232.062H52.1263C52.1826 232.177 52.2626 232.375 52.3664 232.656C52.3716 232.67 52.3771 232.684 52.3829 232.698H52.3812C52.4097 232.849 52.4406 233.155 52.4739 233.615H52.4721L52.4669 234.034L52.365 236.378C52.337 237.022 52.8369 237.568 53.4817 237.596C53.499 237.596 53.5163 237.597 53.5334 237.597C54.1554 237.597 54.6727 237.106 54.7 236.479L54.8026 234.118L54.8037 234.081L54.81 233.574L54.8071 233.476C54.7595 232.81 54.7036 232.348 54.6396 232.089C54.6154 231.991 54.5854 231.9 54.5496 231.817H54.5478C54.3719 231.343 54.2193 230.999 54.09 230.784C53.9946 230.627 53.8868 230.495 53.7671 230.391H53.7656C53.2578 229.938 52.939 229.619 52.8094 229.434H52.8076C52.7926 229.382 52.774 229.331 52.7518 229.281C52.6432 229.038 52.5859 228.74 52.5799 228.389H52.5782C52.8981 224.356 53.7625 221.063 55.1714 218.512C55.4834 217.947 55.2783 217.236 54.7133 216.924C54.5343 216.825 54.3406 216.778 54.1495 216.778Z" fill="black"/>
<path d="M51.581 270.169C51.2626 270.169 50.9455 270.298 50.7148 270.553C50.2813 271.031 50.3176 271.77 50.6457 272.039L50.7959 272.204C51.1944 272.565 51.5847 273.107 51.9667 273.831H51.9648C52.1459 274.233 52.2584 274.691 52.3022 275.205C52.3054 275.243 52.3106 275.281 52.3176 275.319H52.3158C52.3246 275.447 52.3263 275.733 52.3209 276.177H52.3196L52.3013 276.489L52.1034 278.482L52.1024 278.493C52.0542 279.029 52.013 279.555 51.9786 280.071L51.9782 280.077C51.9073 281.228 51.8681 282.181 51.8607 282.934C51.8441 284.294 51.8472 285.341 51.8701 286.075C51.8764 286.563 51.9277 287.773 52.0244 289.704C52.0484 290.609 52.0583 291.26 52.0546 291.656C52.0487 292.302 52.5671 292.83 53.2125 292.836C53.2161 292.836 53.2198 292.836 53.2235 292.836C53.8638 292.836 54.3859 292.32 54.3918 291.678C54.3957 291.25 54.385 290.563 54.3597 289.616L54.3596 289.611L54.3595 289.609L54.3586 289.587C54.2618 287.654 54.2112 286.467 54.2067 286.027L54.2062 286.003C54.1843 285.301 54.1815 284.287 54.1978 282.96L54.1978 282.957C54.2048 282.245 54.2424 281.335 54.3106 280.226C54.3436 279.732 54.3831 279.227 54.4292 278.713L54.6294 276.697L54.6332 276.649L54.656 276.26L54.6579 276.206C54.6649 275.632 54.6583 275.246 54.6382 275.049C54.6362 275.029 54.6338 275.009 54.6313 274.99H54.6295C54.559 274.184 54.3685 273.45 54.058 272.789L54.0335 272.74C53.5264 271.779 52.9739 271.026 52.3762 270.482H52.3745L52.3655 270.472C52.1418 270.269 51.8609 270.169 51.581 270.169Z" fill="black"/>
<path d="M526.597 226.841C526.277 226.841 525.958 226.971 525.728 227.228C525.296 227.707 525.335 228.446 525.815 228.878C526.096 229.132 526.33 229.616 526.514 230.332C526.732 231.298 526.862 232.323 526.906 233.407L526.906 233.418C526.94 234.083 526.938 234.683 526.902 235.219L526.868 235.621H526.866C526.755 236.402 526.66 237.181 526.582 237.959L526.581 237.967C526.504 238.773 526.449 239.593 526.415 240.427L526.415 240.43C526.377 241.416 526.358 242.142 526.357 242.61V242.612L526.352 247.208C526.351 247.853 526.874 248.377 527.519 248.378C527.519 248.378 527.52 248.378 527.52 248.378C528.165 248.378 528.688 247.856 528.689 247.211L528.694 242.614V242.616C528.695 242.178 528.714 241.48 528.75 240.521C528.782 239.731 528.834 238.954 528.907 238.193C528.985 237.425 529.079 236.656 529.189 235.887L529.197 235.82L529.233 235.396L529.234 235.375C529.276 234.751 529.278 234.063 529.241 233.312C529.191 232.074 529.039 230.896 528.785 229.781L528.777 229.748C528.475 228.578 528.009 227.709 527.378 227.141C527.155 226.94 526.875 226.841 526.597 226.841Z" fill="black"/>
<path d="M525.982 274.584C525.576 274.584 525.182 274.795 524.966 275.173C524.531 275.935 524.226 276.857 524.052 277.94C523.996 278.286 523.953 278.649 523.924 279.029L523.921 279.066C523.792 281.888 523.67 283.802 523.553 284.81C523.386 286.226 523.08 287.68 522.637 289.172L522.626 289.209C521.99 291.638 520.689 294.021 518.722 296.356C518.306 296.85 518.369 297.587 518.863 298.003C519.082 298.188 519.35 298.278 519.615 298.278C519.948 298.278 520.279 298.136 520.51 297.862C522.693 295.269 524.149 292.594 524.877 289.839C525.36 288.217 525.692 286.631 525.875 285.081L525.875 285.078C525.997 284.021 526.123 282.065 526.254 279.21C526.279 278.894 526.314 278.595 526.359 278.312C526.489 277.508 526.701 276.849 526.996 276.333C527.316 275.772 527.121 275.058 526.561 274.738C526.378 274.634 526.179 274.584 525.982 274.584Z" fill="black"/>
<path d="M583.779 226.225C583.571 226.225 583.359 226.281 583.168 226.398C582.018 227.106 581.42 228.32 581.375 230.04L581.375 230.082L581.38 230.588L581.381 230.627L581.382 230.644C581.412 231.344 581.443 231.984 581.473 232.563L581.474 232.578C581.707 236.212 581.837 238.571 581.862 239.657L581.862 239.663C581.879 240.253 581.889 240.853 581.892 241.462V241.456L581.893 249.366C581.893 250.011 582.416 250.534 583.062 250.534C583.062 250.534 583.062 250.534 583.062 250.534C583.707 250.534 584.231 250.011 584.23 249.365L584.229 241.456V241.449C584.226 240.823 584.216 240.208 584.199 239.604C584.173 238.486 584.042 236.099 583.807 232.442C583.777 231.868 583.747 231.242 583.718 230.564L583.712 230.059C583.741 229.206 583.969 228.65 584.393 228.389C584.943 228.05 585.114 227.331 584.776 226.781C584.555 226.422 584.172 226.225 583.779 226.225Z" fill="black"/>
<path d="M576.902 290.498C576.898 290.498 576.894 290.498 576.891 290.498C576.245 290.504 575.727 291.032 575.733 291.678C575.751 293.548 575.666 295.722 575.48 298.201C575.369 299.497 575.171 300.831 574.885 302.203L574.884 302.207C574.295 305.08 572.889 309.685 570.666 316.024C570.452 316.633 570.773 317.3 571.382 317.514C571.51 317.558 571.64 317.58 571.768 317.58C572.251 317.58 572.702 317.279 572.871 316.798C575.129 310.362 576.563 305.656 577.173 302.68C577.479 301.212 577.691 299.781 577.809 298.388L577.81 298.377C578.002 295.831 578.088 293.591 578.07 291.656C578.064 291.014 577.542 290.498 576.902 290.498Z" fill="black"/>
<path d="M494.693 179.596C495.128 179.596 495.433 179.771 495.609 180.122C495.395 179.799 495.031 179.599 494.635 179.599C494.599 179.599 494.563 179.6 494.526 179.604C494.584 179.598 494.64 179.596 494.693 179.596ZM495.667 180.255C495.667 180.255 495.667 180.255 495.667 180.255ZM489.331 159.897C489.048 159.897 488.764 160 488.539 160.207C487.753 160.933 487.245 161.943 487.017 163.236L487.006 163.315C486.792 165.318 486.891 166.833 487.304 167.859C487.572 168.53 487.791 168.993 487.962 169.249C488.066 169.405 488.179 169.532 488.303 169.629H488.297C490.126 171.354 491.297 172.838 491.81 174.083L491.829 174.128C492.044 174.593 492.214 175.062 492.338 175.537H492.334C492.909 178.723 493.29 180.567 493.475 181.067C493.513 181.17 493.557 181.265 493.605 181.35H493.599C493.754 181.794 493.936 182.25 494.145 182.718L494.153 182.735L496.382 187.535C496.58 187.961 497.002 188.211 497.443 188.211C497.607 188.211 497.775 188.176 497.934 188.102C498.519 187.83 498.774 187.135 498.502 186.55L496.272 181.75C496.064 181.282 495.888 180.831 495.743 180.397C495.718 180.324 495.688 180.255 495.651 180.19H495.645C495.493 179.706 495.151 177.987 494.618 175.033L494.599 174.944C494.443 174.352 494.235 173.768 493.972 173.193H493.971C493.33 171.637 491.971 169.88 489.894 167.923H489.888C489.804 167.783 489.666 167.472 489.473 166.99L489.472 166.989C489.209 166.333 489.159 165.217 489.322 163.642H489.319C489.456 162.866 489.724 162.294 490.124 161.925C490.598 161.487 490.628 160.748 490.19 160.273C489.96 160.024 489.646 159.897 489.331 159.897Z" fill="black"/>
<path d="M600.309 135.77C600.247 135.77 600.185 135.774 600.122 135.784C599.485 135.887 599.051 136.486 599.154 137.124C599.203 137.431 599.243 138.018 599.273 138.883C599.277 139.127 599.277 139.375 599.272 139.627L599.272 139.652C599.272 139.764 599.257 140.165 599.226 140.856L599.225 140.897L599.221 141.335L599.222 141.375C599.241 142.151 599.266 142.647 599.295 142.864H599.292C599.31 143.107 599.371 143.601 599.476 144.344L599.483 144.386C599.792 146.13 600.023 147.567 600.176 148.697C600.292 149.564 600.356 150.443 600.368 151.336L600.369 151.352C600.38 151.766 600.364 152.202 600.319 152.659L600.315 152.727L600.315 152.729C600.307 152.843 600.255 153.187 600.159 153.76C600.112 154.006 600.058 154.257 599.997 154.514L599.382 156.87C599.219 157.494 599.593 158.133 600.218 158.296C600.317 158.322 600.416 158.334 600.514 158.334C601.033 158.334 601.506 157.986 601.643 157.46L602.265 155.08L602.27 155.056C602.343 154.754 602.406 154.458 602.46 154.168L602.464 154.147C602.572 153.501 602.633 153.083 602.646 152.892C602.646 152.89 602.646 152.888 602.647 152.887H602.645C602.699 152.338 602.719 151.81 602.705 151.302C602.691 150.319 602.621 149.35 602.494 148.395L602.492 148.384C602.336 147.231 602.102 145.776 601.791 144.019C601.687 143.279 601.631 142.838 601.623 142.695C601.622 142.649 601.618 142.602 601.612 142.556L601.611 142.55C601.594 142.42 601.576 142.022 601.559 141.355L601.562 140.918C601.592 140.252 601.608 139.837 601.609 139.671C601.614 139.383 601.614 139.099 601.609 138.82L601.608 138.802C601.575 137.84 601.526 137.157 601.461 136.753C601.369 136.179 600.873 135.77 600.309 135.77Z" fill="black"/>
<path d="M28.0382 145.762C27.968 145.762 27.8945 145.766 27.8178 145.776C27.1342 145.856 26.7899 146.26 26.7852 146.985C26.7841 147.155 26.8076 147.581 26.8557 148.263L26.8584 148.295C26.9366 149.093 27.0064 149.617 27.0679 149.868C27.0723 149.886 27.0767 149.903 27.0814 149.92H27.0799C27.1804 150.518 27.4628 151.31 27.9271 152.298L27.9643 152.371C28.8021 153.872 30.0994 155.483 31.856 157.206H31.8545C32.08 157.469 32.367 157.97 32.7157 158.709H32.7141C33.1537 159.81 33.373 161.109 33.3719 162.606C33.3714 163.251 33.8942 163.775 34.5396 163.775C34.5392 163.775 34.5399 163.775 34.5396 163.775C35.1845 163.775 35.7086 163.253 35.7091 162.608C35.7105 160.783 35.4269 159.172 34.8585 157.777L34.8332 157.719C34.3694 156.736 33.9448 156.031 33.5592 155.605L33.519 155.563L33.5101 155.554C31.9255 154.003 30.7667 152.579 30.0338 151.283H30.0323C29.6468 150.46 29.4291 149.865 29.3791 149.496C29.3706 149.434 29.3572 149.372 29.339 149.312C29.3042 149.17 29.2525 148.76 29.1859 148.081H29.1841C29.2351 147.925 29.2538 147.756 29.2333 147.582C29.1849 147.171 29.1483 146.901 29.1236 146.772C28.9951 146.098 28.6333 145.762 28.0382 145.762Z" fill="black"/>
<path d="M134.532 134.537C134.45 134.537 134.366 134.546 134.282 134.564C132.638 134.923 131.44 136.044 130.686 137.927L130.651 138.03C130.502 138.533 130.412 138.891 130.381 139.106C130.371 139.175 130.364 139.24 130.362 139.3H130.361C130.241 140.723 130.136 141.726 130.045 142.31L128.74 150.623L128.739 150.631C128.575 151.723 127.997 153.325 127.006 155.436C126.731 156.02 126.982 156.716 127.567 156.99C127.727 157.066 127.896 157.102 128.063 157.102C128.502 157.102 128.922 156.853 129.121 156.429C130.207 154.117 130.85 152.302 131.049 150.986L132.355 142.669L132.355 142.667C132.455 142.022 132.568 140.948 132.694 139.443C132.709 139.346 132.766 139.121 132.869 138.769H132.867C133.313 137.67 133.951 137.029 134.781 136.848C135.411 136.71 135.811 136.087 135.673 135.456C135.553 134.91 135.07 134.537 134.532 134.537Z" fill="black"/>
</g>
<defs>
<clipPath id="clip0_157_2">
<rect width="608" height="510" fill="white"/>
</clipPath>
</defs>
</svg>
